<?xml version="1.0" encoding="UTF-8" standalone="no"?>
<svg
   xmlns:dc="http://purl.org/dc/elements/1.1/"
   xmlns:cc="http://creativecommons.org/ns#"
   xmlns:rdf="http://www.w3.org/1999/02/22-rdf-syntax-ns#"
   xmlns:svg="http://www.w3.org/2000/svg"
   xmlns="http://www.w3.org/2000/svg"
   xmlns:sodipodi="http://sodipodi.sourceforge.net/DTD/sodipodi-0.dtd"
   xmlns:inkscape="http://www.inkscape.org/namespaces/inkscape"
   width="210mm"
   height="297mm"
   viewBox="0 0 210 297"
   version="1.1"
   id="svg2713"
   inkscape:version="1.0.2 (e86c870879, 2021-01-15)"
   sodipodi:docname="octo-portrait.svg">
  <defs
     id="defs2707" />
  <sodipodi:namedview
     id="base"
     pagecolor="#ffffff"
     bordercolor="#666666"
     borderopacity="1.0"
     inkscape:pageopacity="0.0"
     inkscape:pageshadow="2"
     inkscape:zoom="0.98994949"
     inkscape:cx="351.19467"
     inkscape:cy="498.132"
     inkscape:document-units="mm"
     inkscape:current-layer="layer1"
     inkscape:document-rotation="0"
     showgrid="false"
     inkscape:window-width="1278"
     inkscape:window-height="1415"
     inkscape:window-x="1280"
     inkscape:window-y="0"
     inkscape:window-maximized="0">
    <inkscape:grid
       type="xygrid"
       id="grid3296" />
  </sodipodi:namedview>
  <metadata
     id="metadata2710">
    <rdf:RDF>
      <cc:Work
         rdf:about="">
        <dc:format>image/svg+xml</dc:format>
        <dc:type
           rdf:resource="http://purl.org/dc/dcmitype/StillImage" />
        <dc:title></dc:title>
      </cc:Work>
    </rdf:RDF>
  </metadata>
  <g
     inkscape:label="Layer 1"
     inkscape:groupmode="layer"
     id="layer1">
    <rect
       style="fill:#373b41;fill-opacity:1;fill-rule:evenodd;stroke:none;stroke-width:0.264583"
       id="rect5123"
       width="210"
       height="297"
       x="-0.44067571"
       y="0.37089646"
       ry="32.218616" />
    <path
       style="fill:#1d1f21;fill-opacity:1;stroke:none;stroke-width:0.264583px;stroke-linecap:butt;stroke-linejoin:miter;stroke-opacity:1"
       d="m 94.059387,128.21481 c 0.183266,9.96918 -2.92463,13.83399 -1.13778,19.72708 1.786851,5.89309 2.371006,14.07127 -0.15272,16.26533 -2.523728,2.19406 -7.899548,-1.05315 -5.772893,1.11491 2.126654,2.16806 10.308735,3.72178 10.339279,-3.87131 0.03055,-7.59308 -1.546302,-18.46914 -0.07253,-20.58194 1.473766,-2.1128 -0.263454,2.55811 1.389763,6.12062 1.653214,3.56252 0.236723,15.29994 0.08782,16.16456 -0.148905,0.86463 -1.11106,10.408 0.790331,12.15024 1.901393,1.74226 5.788173,4.97322 2.374833,-2.8019 -3.413341,-7.77511 -0.44291,-8.38945 0.38562,-14.42231 0.82852,-6.03286 2.03502,0.17878 0.66434,4.57341 -1.37068,4.39463 0.90105,10.24546 0.99269,8.15541 0.0916,-2.09005 2.06174,-9.91392 2.06174,-9.91392 l -0.0725,-38.05645 z"
       id="path3330"
       sodipodi:nodetypes="cssssssssssssccc" />
    <path
       style="fill:#1d1f21;fill-opacity:1;stroke:none;stroke-width:0.264583px;stroke-linecap:butt;stroke-linejoin:miter;stroke-opacity:1"
       d="m 117.81539,128.21481 c -0.18327,9.96918 2.92462,13.83399 1.13778,19.72708 -1.78686,5.89309 -2.37101,14.07127 0.15272,16.26533 2.52372,2.19406 7.89954,-1.05315 5.77288,1.11491 -2.12665,2.16806 -10.30873,3.72178 -10.33927,-3.87131 -0.0305,-7.59308 1.5463,-18.46914 0.0725,-20.58194 -1.47377,-2.1128 0.26345,2.55811 -1.38977,6.12062 -1.65321,3.56252 -0.23672,15.29994 -0.0878,16.16456 0.14891,0.86463 1.11106,10.408 -0.79033,12.15024 -1.90139,1.74226 -5.78817,4.97322 -2.37483,-2.8019 3.41334,-7.77511 0.44291,-8.38945 -0.38562,-14.42231 -0.82852,-6.03286 -2.03502,0.17878 -0.66434,4.57341 1.37068,4.39463 -0.90105,10.24546 -0.99269,8.15541 -0.0916,-2.09005 -2.06174,-9.91392 -2.06174,-9.91392 l 0.0725,-38.05645 z"
       id="path3330-4"
       sodipodi:nodetypes="cssssssssssssccc" />
    <path
       id="path3298"
       style="fill:#282a2e;fill-opacity:1;stroke:none;stroke-width:0.264583px;stroke-linecap:butt;stroke-linejoin:miter;stroke-opacity:1"
       d="m 105.83333,100.54167 c 4.90207,-1.690986 10.8503,-2.391496 15.39375,0.6125 2.78962,1.83821 3.12454,5.32493 3.15412,8.33051 0.98759,6.4515 -3.42209,12.81934 -0.89846,19.14303 1.51279,2.78606 4.73492,5.01239 3.73484,8.65209 -0.26212,3.38279 -4.0529,7.41785 -7.45438,4.96149 -1.31337,-0.60251 -3.20092,-3.6935 -0.34363,-2.21517 2.35943,1.61873 6.40389,0.90649 4.86722,-2.69573 -2.94299,-2.47348 -1.09345,3.72374 -0.8715,5.05135 0.92973,3.24628 1.05062,6.57468 1.06218,9.88171 0.0945,7.33856 -5.95309,13.39868 -4.94822,20.85839 -2.00021,-0.34597 -3.16948,-4.40563 -2.82194,-6.63978 1.08918,-2.24257 2.77608,-4.29669 3.25864,-6.85978 1.786,-6.75494 -0.32026,-13.70051 -2.50714,-20.08478 -0.065,-1.57932 -1.22348,-3.92593 -1.08329,-0.96071 -0.009,3.59111 0.0421,7.21711 0.14025,10.78771 2.04006,7.45557 0.78181,15.5235 -2.81477,22.29045 -0.42255,3.1429 3.25696,4.60301 4.32814,7.09874 -3.77438,2.06314 -6.77666,-3.33499 -7.19445,-6.5977 -0.75415,-4.28341 0.74704,-8.57881 2.64039,-12.31182 0.70939,-7.80348 -3.67993,-14.69163 -7.06583,-21.35522 -1.06115,-12.62298 -0.57253,-25.29843 -0.57592,-37.94728 z" />
    <path
       id="path3298-9"
       style="fill:#282a2e;fill-opacity:1;stroke:none;stroke-width:0.264583px;stroke-linecap:butt;stroke-linejoin:miter;stroke-opacity:1"
       d="m 105.83333,100.54167 c -4.90206,-1.690992 -10.850304,-2.3915 -15.39375,0.6125 -2.789619,1.83822 -3.124534,5.32493 -3.154118,8.33051 -0.987587,6.4515 3.422089,12.81934 0.898462,19.14303 -1.512792,2.78606 -4.734924,5.01239 -3.734835,8.65209 0.262124,3.38279 4.052911,7.41784 7.454387,4.96148 1.313366,-0.60251 3.200919,-3.6935 0.343624,-2.21517 -2.359426,1.61873 -6.40389,0.90651 -4.867232,-2.69572 2.942993,-2.47349 1.093468,3.72373 0.871514,5.05135 -0.929737,3.24627 -1.050588,6.57467 -1.062146,9.8817 -0.0945,7.33856 5.953096,13.39868 4.948224,20.85839 2.000217,-0.34597 3.169489,-4.40563 2.821948,-6.63978 -1.08918,-2.24257 -2.776082,-4.29669 -3.258639,-6.85978 -1.786007,-6.75494 0.320257,-13.70051 2.507156,-20.08477 0.06499,-1.57931 1.223489,-3.92593 1.083284,-0.96071 0.0093,3.59111 -0.04213,7.21711 -0.140256,10.78771 -2.040036,7.45557 -0.781799,15.5235 2.814788,22.29044 0.422543,3.1429 -3.25696,4.60302 -4.328146,7.09874 3.774384,2.06313 6.776655,-3.33499 7.194445,-6.5977 0.75415,-4.28341 -0.74704,-8.57882 -2.640379,-12.31183 -0.709399,-7.80348 3.679929,-14.69163 7.065819,-21.35521 1.0611,-12.62275 0.57262,-25.29903 0.57585,-37.94727 z" />
    <path
       style="fill:#1d1f21;fill-opacity:1;stroke:none;stroke-width:0.264583px;stroke-linecap:butt;stroke-linejoin:miter;stroke-opacity:1"
       d="m 112.08511,121.6295 c 1.17169,-4.9692 4.60581,-4.76234 6.84662,-4.13717 2.2408,0.62517 -1.67927,8.64208 -6.84662,4.13717 z"
       id="path3372" />
    <path
       style="fill:#1d1f21;fill-opacity:1;stroke:none;stroke-width:0.264583px;stroke-linecap:butt;stroke-linejoin:miter;stroke-opacity:1"
       d="m 100.48328,121.20785 c -1.171692,-4.9692 -4.605815,-4.76234 -6.846625,-4.13717 -2.2408,0.62517 1.67927,8.64208 6.846625,4.13717 z"
       id="path3372-3" />
  </g>
</svg>
