<?xml version="1.0" encoding="UTF-8" standalone="no"?>
<svg
   xmlns:dc="http://purl.org/dc/elements/1.1/"
   xmlns:cc="http://creativecommons.org/ns#"
   xmlns:rdf="http://www.w3.org/1999/02/22-rdf-syntax-ns#"
   xmlns:svg="http://www.w3.org/2000/svg"
   xmlns="http://www.w3.org/2000/svg"
   xmlns:sodipodi="http://sodipodi.sourceforge.net/DTD/sodipodi-0.dtd"
   xmlns:inkscape="http://www.inkscape.org/namespaces/inkscape"
   width="108.11795mm"
   height="99.512016mm"
   viewBox="0 0 108.11795 99.512017"
   version="1.1"
   id="svg8"
   inkscape:version="1.0.1 (unknown)"
   sodipodi:docname="wheeled-cabin-background_1.svg">
  <defs
     id="defs2" />
  <sodipodi:namedview
     id="base"
     pagecolor="#1d1f21"
     bordercolor="#666666"
     borderopacity="1.0"
     inkscape:pageopacity="0"
     inkscape:pageshadow="2"
     inkscape:zoom="2.6377054"
     inkscape:cx="199.55557"
     inkscape:cy="258.82686"
     inkscape:document-units="mm"
     inkscape:current-layer="g6487"
     inkscape:document-rotation="0"
     showgrid="false"
     inkscape:window-width="1278"
     inkscape:window-height="1415"
     inkscape:window-x="1280"
     inkscape:window-y="0"
     inkscape:window-maximized="0"
     fit-margin-top="0"
     fit-margin-left="0"
     fit-margin-right="0"
     fit-margin-bottom="0" />
  <metadata
     id="metadata5">
    <rdf:RDF>
      <cc:Work
         rdf:about="">
        <dc:format>image/svg+xml</dc:format>
        <dc:type
           rdf:resource="http://purl.org/dc/dcmitype/StillImage" />
        <dc:title />
      </cc:Work>
    </rdf:RDF>
  </metadata>
  <g
     inkscape:label="Layer 1"
     inkscape:groupmode="layer"
     id="layer1"
     style="display:inline"
     transform="translate(-188.61341,-27.267151)">
    <path
       style="display:inline;fill:#282a2e;fill-opacity:1;stroke:none;stroke-width:0.264583px;stroke-linecap:butt;stroke-linejoin:miter;stroke-opacity:1"
       d="m 194.12774,123.7867 c 1.24601,-3.82428 2.3267,-4.43366 3.58206,-4.45168 1.25536,-0.018 0.93318,-9.94997 3.99612,-11.50082 3.06295,-1.55086 3.26679,-4.4484 5.29303,-5.01881 2.02624,-0.57041 1.55077,-9.658886 7.27375,-11.303623 5.72298,-1.644737 4.72477,-4.860668 6.77108,-4.86981 2.04631,-0.0091 3.2107,-0.169145 3.47195,-1.95381 0.26125,-1.784665 3.71863,-1.401122 3.71863,-4.255791 0,-2.854669 0.40552,-3.101472 3.86819,-3.23029 3.46267,-0.12882 3.49936,-1.714561 5.64136,-4.763294 2.14199,-3.048735 1.96509,0.185645 4.61996,1.111631 2.65487,0.925984 2.55353,-7.340827 2.55353,-7.34083 0,-5e-6 4.14309,3.592994 7.04083,2.968453 2.89775,-0.624543 2.84435,4.250063 5.04198,4.919978 2.19763,0.669914 5.09838,2.841487 5.4264,4.843848 0.32802,2.002362 6.04527,4.876268 8.1752,3.071807 2.12995,-1.804458 3.42169,-5.60411 3.90189,-1.96138 0.48019,3.642733 3.10462,2.660576 2.83802,5.499241 -0.26662,2.838664 -1.56501,10.205389 -0.52075,11.128081 1.04423,0.922692 2.85549,0.926997 3.28523,4.345009 0.42973,3.41801 4.30326,5.9117 6.59114,4.61065 2.28788,-1.30104 4.43362,3.94581 3.37809,6.37546 -1.05553,2.42965 8.70051,10.2526 6.26367,10.41102 -2.43684,0.15843 -7.26789,4.50617 -10.5927,2.31293 -3.32481,-2.19324 -6.36715,2.07576 -11.07657,-0.60761 -4.70943,-2.68337 -15.5157,3.3127 -20.76603,-0.0858 -5.25032,-3.39855 -4.8316,3.32299 -10.70706,1.12657 -5.87546,-2.19642 -11.57719,3.16676 -15.06695,0.72382 -3.48975,-2.44293 -6.07336,2.91656 -12.33328,-1.45331 -6.25991,-4.36986 -0.14154,3.04425 -5.04746,1.80918 -4.90592,-1.23507 -17.13191,3.28011 -16.62131,-2.46077 z"
       id="path5986" />
    <g
       id="g5999"
       style="display:inline;fill:#1d1f21">
      <path
         style="fill:#1d1f21;fill-opacity:1;stroke:none;stroke-width:0.264583px;stroke-linecap:butt;stroke-linejoin:miter;stroke-opacity:1"
         d="m 244.9174,66.209568 c 0,0 1.81173,12.335446 -0.18704,13.140227 -1.99878,0.80478 -9.33945,2.709674 -5.41354,2.78815 3.92591,0.07847 4.33144,0.35868 4.33144,0.35868 l -1.33598,9.128119 -1.80623,-0.989997 c 0,0 -3.74041,-10.656837 -3.40873,-13.895313 0.33169,-3.238476 0.64659,-4.300662 0.64659,-4.300662 l -2.48797,0.07034 0.30928,4.564136 -6.23761,0.270894 c 0,0 4.92387,1.088768 6.07979,4.852045 1.15593,3.763275 2.68921,11.105325 2.68921,11.105325 0,0 6.98532,-0.779466 8.10205,0.543729 1.11674,1.323194 1.10689,13.429819 1.10689,13.429819 0,0 2.6892,-0.1913 2.81814,2.63961 0.12893,2.83091 0.0509,5.78276 1.325,5.46229 1.27409,-0.32048 1.5757,-7.79961 -0.80853,-10.10031 -2.38423,-2.30071 0.22567,-37.699845 -0.48877,-39.23083 -0.71444,-1.530988 -2.6493,-2.023904 -2.80172,-3.615476 -0.15241,-1.591572 0.37963,3.129849 -2.43227,3.779229 z"
         id="path5959" />
      <path
         style="fill:#1d1f21;fill-opacity:1;stroke:none;stroke-width:0.264583px;stroke-linecap:butt;stroke-linejoin:miter;stroke-opacity:1"
         d="m 241.50646,94.548512 c -1.32534,2.511224 -2.58609,6.979558 -0.88902,5.763358 1.69706,-1.216211 1.88943,-1.849591 0.88902,-5.763358 z"
         id="path5961" />
      <path
         style="fill:#1d1f21;fill-opacity:1;stroke:none;stroke-width:0.264583px;stroke-linecap:butt;stroke-linejoin:miter;stroke-opacity:1"
         d="m 226.79816,96.884478 c -0.41897,-5.540645 0.70832,-9.687599 0.70832,-9.687599 0,0 6.05355,-1.272173 7.53474,1.648552 1.48119,2.920728 1.23797,11.317559 2.41339,13.499889 1.17541,2.18233 -1.35955,1.34479 -1.50145,5.58945 -0.1419,4.24467 0.48125,5.69224 -1.39205,5.49243 -1.8733,-0.19982 0.53273,-6.71184 -1.17061,-12.16629 -1.70334,-5.454453 -3.39376,-5.545988 -2.30099,-7.409388 1.09276,-1.863396 -2.62216,-3.985421 -2.68593,-1.584904 -0.0638,2.400514 0.8245,4.693632 -1.60542,4.61786 z"
         id="path5963" />
      <path
         style="fill:#1d1f21;fill-opacity:1;stroke:none;stroke-width:0.264583px;stroke-linecap:butt;stroke-linejoin:miter;stroke-opacity:1"
         d="m 219.99568,89.867032 c 3.31406,0.924449 3.68801,0.653087 3.91438,4.611712 0.22638,3.958627 -2.64346,6.989026 -0.55764,7.102086 2.08582,0.11306 6.21846,2.37873 2.83265,2.03948 -3.3858,-0.33925 -4.74545,-1.22938 -4.79226,0.0879 -0.0468,1.3173 -0.64651,7.67257 -2.2228,5.41989 -1.5763,-2.25268 -3.1644,-2.17779 -3.29598,0.0321 -0.13158,2.20987 2.27009,3.33464 1.20247,5.89109 -1.06763,2.55645 -3.69029,4.31938 -3.9661,-1.19615 -0.27581,-5.51552 0.0866,-14.804726 -0.93675,-11.94062 -1.02334,2.8641 -2.78502,10.03815 -3.1808,6.70327 -0.39577,-3.33488 -1.36599,-6.41893 -0.62098,-9.782175 0.745,-3.363246 0.2752,-5.663999 0.49034,-6.267995 0.21515,-0.603999 5.41049,-1.055851 5.41049,-1.055851 0,0 3.75604,0.794943 3.65836,3.10257 -0.0977,2.307624 1.16337,3.43149 2.09159,3.494754 0.92823,0.06327 1.87785,-4.084582 -0.0206,-4.967692 -1.8985,-0.883111 -7.51712,-0.604195 -0.006,-3.274349 z"
         id="path5965" />
      <path
         style="fill:#1d1f21;fill-opacity:1;stroke:none;stroke-width:0.264583px;stroke-linecap:butt;stroke-linejoin:miter;stroke-opacity:1"
         d="m 206.7419,110.54849 c -2.36257,0.20761 -6.59888,10.46776 -3.57416,7.41374 3.02472,-3.05403 3.96747,-0.20435 3.57416,-7.41374 z"
         id="path5967" />
      <path
         style="fill:#1d1f21;fill-opacity:1;stroke:none;stroke-width:0.264583px;stroke-linecap:butt;stroke-linejoin:miter;stroke-opacity:1"
         d="m 224.8925,109.84031 c -2.96061,1.7173 -2.97298,1.8929 -3.2521,4.94133 -0.27912,3.04843 -1.86599,5.13868 0.18101,4.99291 2.04701,-0.14577 2.82716,-0.26868 3.22821,-4.75114 0.40105,-4.48246 -0.15712,-5.1831 -0.15712,-5.1831 z"
         id="path5969" />
      <path
         style="fill:#1d1f21;fill-opacity:1;stroke:none;stroke-width:0.264583px;stroke-linecap:butt;stroke-linejoin:miter;stroke-opacity:1"
         d="m 241.52803,120.79681 c -1.74934,-2.03885 -0.85584,-4.16676 -0.0101,-9.30085 0.84571,-5.1341 1.33769,4.09113 1.33769,4.09113 0,0 1.33499,5.74537 1.67037,1.77983 0.33537,-3.96554 3.27871,1.1097 1.57425,3.78491 -1.70446,2.67522 -4.57221,-0.35502 -4.57221,-0.35502 z"
         id="path5971" />
      <path
         id="path5981"
         style="fill:#1d1f21;fill-opacity:1;fill-rule:evenodd;stroke:none;stroke-width:0.264583px;stroke-linecap:butt;stroke-linejoin:miter;stroke-opacity:1"
         d="m 273.51244,104.8364 c -1.52255,0.7096 -2.57969,5.72062 -1.10025,4.46427 1.47945,-1.25635 2.83951,0.68781 1.10025,-4.46427 z m -11.2145,-5.053771 c -3.1603,0.403621 -3.75749,4.006721 -1.60321,5.310791 2.15429,1.30407 2.45769,-2.00774 1.60321,-5.310791 z m 8.16073,-1.983693 c -4.1175,0.403646 -4.63659,1.040265 -4.36274,4.681954 0.27384,3.64168 1.06005,6.84679 2.37368,2.12009 1.31366,-4.726694 4.34983,-3.26201 1.98906,-6.802044 z m -8.71571,-10.643044 c -2.62454,-0.125553 -3.02193,3.639606 -2.72741,6.593345 0.29453,2.953742 3.26855,4.242451 3.27802,1.246331 0.009,-2.996121 -0.55061,-7.839676 -0.55061,-7.839676 z M 253.0854,72.960674 c 1.78369,0.916683 1.61903,5.127074 4.16804,5.452311 2.54902,0.325239 0.1061,5.070604 2.34732,5.057579 2.24122,-0.01302 8.11751,0.885388 7.86745,2.723785 -0.25005,1.838396 -4.69595,-0.814354 -4.17494,1.559853 0.521,2.374204 -0.22317,8.962983 2.00279,8.564377 2.226,-0.398608 6.0487,0.81633 4.62426,-1.99676 -1.42441,-2.813087 -2.5989,-2.916637 -1.50021,-4.814167 1.09865,-1.897531 -2.07481,-3.411718 -0.13587,-3.723942 1.93895,-0.312227 4.8159,-2.488639 4.66963,0.355515 -0.14626,2.844155 0.40786,13.377474 1.84793,14.233855 1.44008,0.85639 5.24584,3.15455 2.96553,2.96242 -2.28028,-0.19212 -2.06594,2.74659 -1.82144,3.1382 0.24447,0.39162 2.27549,-3.37987 3.07543,-0.62364 0.79995,2.75624 -2.66991,9.94115 -4.02166,9.75374 -1.35176,-0.18741 1.10556,3.52391 -1.46055,3.17907 -2.56612,-0.34484 -1.35494,-5.21357 -3.54114,-5.87367 -2.18619,-0.6601 -2.34203,2.94036 -4.37512,2.59822 -2.03306,-0.34214 -2.45666,-6.09751 -4.14339,-5.78889 -1.68673,0.30863 -1.32989,10.18706 -1.79085,6.14429 -0.46097,-4.04278 0.34017,-9.43084 -1.93655,-9.19841 -2.27671,0.23244 -2.64058,-6.00086 -1.66947,-10.997677 0.9711,-4.996817 0.16024,-12.379118 -1.12217,-12.678412 -1.28241,-0.299291 -2.55115,0.09441 -1.75823,7.623016 0.79291,7.528602 -1.05361,6.572562 -1.01993,3.322815 0.0337,-3.249748 -1.84667,-19.006254 0.90314,-20.973478 z" />
      <path
         style="fill:#1d1f21;fill-opacity:1;stroke:none;stroke-width:0.264583px;stroke-linecap:butt;stroke-linejoin:miter;stroke-opacity:1"
         d="m 282.89998,119.75752 c 0.24249,-7.12321 3.02067,-11.29595 0.41953,-9.25477 -2.60112,2.04118 -5.36448,11.19622 -0.41953,9.25477 z"
         id="path5984" />
    </g>
    <g
       id="g6487"
       style="display:inline;fill:#c5c8c6">
      <path
         style="fill:#c5c8c6;fill-opacity:1;stroke:none;stroke-width:0.264583px;stroke-linecap:butt;stroke-linejoin:miter;stroke-opacity:1"
         d="m 264.07594,87.862227 c 3.67406,1.108141 6.1189,0.520344 0,0 z"
         id="path5988" />
      <path
         style="display:inline;fill:#c5c8c6;fill-opacity:1;stroke:none;stroke-width:0.264583px;stroke-linecap:butt;stroke-linejoin:miter;stroke-opacity:1"
         d="m 264.23505,89.396668 c 3.67406,1.108141 6.1189,0.520345 0,0 z"
         id="path5988-7" />
      <path
         style="display:inline;fill:#c5c8c6;fill-opacity:1;stroke:none;stroke-width:0.264583px;stroke-linecap:butt;stroke-linejoin:miter;stroke-opacity:1"
         d="m 264.46869,91.649935 c 3.67407,1.108141 6.11891,0.520345 0,0 z"
         id="path5988-74" />
      <path
         style="display:inline;fill:#c5c8c6;fill-opacity:1;stroke:none;stroke-width:0.264583px;stroke-linecap:butt;stroke-linejoin:miter;stroke-opacity:1"
         d="m 264.64002,93.302257 c 3.67407,1.108142 6.11891,0.520345 0,0 z"
         id="path5988-9" />
      <path
         style="display:inline;fill:#c5c8c6;fill-opacity:1;stroke:none;stroke-width:0.264583px;stroke-linecap:butt;stroke-linejoin:miter;stroke-opacity:1"
         d="m 264.79892,94.834608 c 3.67406,1.108142 6.1189,0.520345 0,0 z"
         id="path5988-90" />
      <path
         style="display:inline;fill:#c5c8c6;fill-opacity:1;stroke:none;stroke-width:0.246058px;stroke-linecap:butt;stroke-linejoin:miter;stroke-opacity:1"
         d="m 253.25109,84.402207 c 2.30696,1.588748 3.93115,0.881975 0,0 z"
         id="path5988-1" />
      <path
         style="display:inline;fill:#c5c8c6;fill-opacity:1;stroke:none;stroke-width:0.246058px;stroke-linecap:butt;stroke-linejoin:miter;stroke-opacity:1"
         d="m 253.25826,86.019715 c 2.30696,1.588748 3.93115,0.881974 0,0 z"
         id="path5988-1-3" />
      <path
         style="display:inline;fill:#c5c8c6;fill-opacity:1;stroke:none;stroke-width:0.246058px;stroke-linecap:butt;stroke-linejoin:miter;stroke-opacity:1"
         d="m 253.45225,87.451364 c 2.30696,1.588748 3.93115,0.881974 0,0 z"
         id="path5988-1-8" />
      <path
         style="display:inline;fill:#c5c8c6;fill-opacity:1;stroke:none;stroke-width:0.246058px;stroke-linecap:butt;stroke-linejoin:miter;stroke-opacity:1"
         d="m 253.44564,88.751039 c 2.30696,1.588748 3.93115,0.881973 0,0 z"
         id="path5988-1-81" />
      <path
         style="display:inline;fill:#c5c8c6;fill-opacity:1;stroke:none;stroke-width:0.246058px;stroke-linecap:butt;stroke-linejoin:miter;stroke-opacity:1"
         d="m 253.63963,90.182688 c 2.30696,1.588748 3.93115,0.881974 0,0 z"
         id="path5988-1-9" />
      <path
         style="display:inline;fill:#c5c8c6;fill-opacity:1;stroke:none;stroke-width:0.246058px;stroke-linecap:butt;stroke-linejoin:miter;stroke-opacity:1"
         d="m 253.5322,91.516342 c 2.30696,1.588748 3.93115,0.881974 0,0 z"
         id="path5988-1-0" />
      <path
         style="display:inline;fill:#c5c8c6;fill-opacity:1;stroke:none;stroke-width:0.246058px;stroke-linecap:butt;stroke-linejoin:miter;stroke-opacity:1"
         d="m 253.62487,93.08195 c 2.30696,1.588748 3.93115,0.881975 0,0 z"
         id="path5988-1-5" />
      <path
         style="display:inline;fill:#c5c8c6;fill-opacity:1;stroke:none;stroke-width:0.246058px;stroke-linecap:butt;stroke-linejoin:miter;stroke-opacity:1"
         d="m 253.61724,94.581572 c 2.30696,1.588748 3.93115,0.881974 0,0 z"
         id="path5988-1-39" />
      <path
         style="display:inline;fill:#c5c8c6;fill-opacity:1;stroke:none;stroke-width:0.246058px;stroke-linecap:butt;stroke-linejoin:miter;stroke-opacity:1"
         d="m 253.41001,95.749258 c 2.30696,1.588747 3.93115,0.881974 0,0 z"
         id="path5988-1-94" />
      <path
         style="display:inline;fill:#c5c8c6;fill-opacity:1;stroke:none;stroke-width:0.246058px;stroke-linecap:butt;stroke-linejoin:miter;stroke-opacity:1"
         d="m 246.98066,67.926382 c 2.30696,0.0827 3.93115,-1.68439 0,0 z"
         id="path5988-1-2" />
      <path
         style="display:inline;fill:#c5c8c6;fill-opacity:1;stroke:none;stroke-width:0.246058px;stroke-linecap:butt;stroke-linejoin:miter;stroke-opacity:1"
         d="m 246.98066,69.430985 c 2.30696,0.0827 3.93115,-1.68439 0,0 z"
         id="path5988-1-6" />
      <path
         style="display:inline;fill:#c5c8c6;fill-opacity:1;stroke:none;stroke-width:0.246058px;stroke-linecap:butt;stroke-linejoin:miter;stroke-opacity:1"
         d="m 246.98066,70.936097 c 2.30696,0.0827 3.93115,-1.68439 0,0 z"
         id="path5988-1-25" />
      <path
         style="display:inline;fill:#c5c8c6;fill-opacity:1;stroke:none;stroke-width:0.246058px;stroke-linecap:butt;stroke-linejoin:miter;stroke-opacity:1"
         d="m 246.98066,72.340393 c 2.30696,0.0827 3.93115,-1.68439 0,0 z"
         id="path5988-1-1" />
      <path
         style="display:inline;fill:#c5c8c6;fill-opacity:1;stroke:none;stroke-width:0.246058px;stroke-linecap:butt;stroke-linejoin:miter;stroke-opacity:1"
         d="m 246.98066,73.445295 c 2.30696,0.0827 3.93115,-1.68439 0,0 z"
         id="path5988-1-15" />
      <path
         style="display:inline;fill:#c5c8c6;fill-opacity:1;stroke:none;stroke-width:0.246058px;stroke-linecap:butt;stroke-linejoin:miter;stroke-opacity:1"
         d="m 246.98066,75.450923 c 2.30696,0.0827 3.93115,-1.68439 0,0 z"
         id="path5988-1-36" />
      <path
         style="display:inline;fill:#c5c8c6;fill-opacity:1;stroke:none;stroke-width:0.246058px;stroke-linecap:butt;stroke-linejoin:miter;stroke-opacity:1"
         d="m 246.98066,76.453736 c 2.30696,0.0827 3.93115,-1.68439 0,0 z"
         id="path5988-1-63" />
      <path
         style="display:inline;fill:#c5c8c6;fill-opacity:1;stroke:none;stroke-width:0.246058px;stroke-linecap:butt;stroke-linejoin:miter;stroke-opacity:1"
         d="m 246.98066,77.456551 c 2.30696,0.0827 3.93115,-1.68439 0,0 z"
         id="path5988-1-88" />
      <path
         style="display:inline;fill:#c5c8c6;fill-opacity:1;stroke:none;stroke-width:0.246058px;stroke-linecap:butt;stroke-linejoin:miter;stroke-opacity:1"
         d="m 246.98066,80.466266 c 2.30696,0.0827 3.93115,-1.68439 0,0 z"
         id="path5988-1-10" />
      <path
         style="display:inline;fill:#c5c8c6;fill-opacity:1;stroke:none;stroke-width:0.246058px;stroke-linecap:butt;stroke-linejoin:miter;stroke-opacity:1"
         d="m 246.98066,81.670457 c 2.30696,0.0827 3.93115,-1.68439 0,0 z"
         id="path5988-1-7" />
      <path
         style="display:inline;fill:#c5c8c6;fill-opacity:1;stroke:none;stroke-width:0.246058px;stroke-linecap:butt;stroke-linejoin:miter;stroke-opacity:1"
         d="m 246.98066,83.175569 c 2.30696,0.0827 3.93115,-1.68439 0,0 z"
         id="path5988-1-07" />
      <path
         style="display:inline;fill:#c5c8c6;fill-opacity:1;stroke:none;stroke-width:0.246058px;stroke-linecap:butt;stroke-linejoin:miter;stroke-opacity:1"
         d="m 246.98066,85.581916 c 2.30696,0.0827 3.93115,-1.68439 0,0 z"
         id="path5988-1-28" />
      <path
         style="display:inline;fill:#c5c8c6;fill-opacity:1;stroke:none;stroke-width:0.246058px;stroke-linecap:butt;stroke-linejoin:miter;stroke-opacity:1"
         d="m 246.98066,86.586002 c 2.30696,0.0827 3.93115,-1.68439 0,0 z"
         id="path5988-1-84" />
      <path
         style="display:inline;fill:#c5c8c6;fill-opacity:1;stroke:none;stroke-width:0.246058px;stroke-linecap:butt;stroke-linejoin:miter;stroke-opacity:1"
         d="m 246.98066,87.8905 c 2.30696,0.0827 3.93115,-1.68439 0,0 z"
         id="path5988-1-00" />
      <path
         style="display:inline;fill:#c5c8c6;fill-opacity:1;stroke:none;stroke-width:0.246058px;stroke-linecap:butt;stroke-linejoin:miter;stroke-opacity:1"
         d="m 247.32492,108.82185 c 2.30696,1.58875 3.93115,0.88198 0,0 z"
         id="path5988-1-94-9" />
      <path
         style="display:inline;fill:#c5c8c6;fill-opacity:1;stroke:none;stroke-width:0.246058px;stroke-linecap:butt;stroke-linejoin:miter;stroke-opacity:1"
         d="m 247.31627,110.52707 c 2.30696,1.58875 3.93115,0.88197 0,0 z"
         id="path5988-1-94-3" />
      <path
         style="display:inline;fill:#c5c8c6;fill-opacity:1;stroke:none;stroke-width:0.246058px;stroke-linecap:butt;stroke-linejoin:miter;stroke-opacity:1"
         d="m 247.31067,111.63045 c 2.30696,1.58874 3.93115,0.88197 0,0 z"
         id="path5988-1-94-90" />
      <path
         style="display:inline;fill:#c5c8c6;fill-opacity:1;stroke:none;stroke-width:0.246058px;stroke-linecap:butt;stroke-linejoin:miter;stroke-opacity:1"
         d="m 247.40233,113.33617 c 2.30696,1.58875 3.93115,0.88198 0,0 z"
         id="path5988-1-94-91" />
      <path
         style="display:inline;fill:#c5c8c6;fill-opacity:1;stroke:none;stroke-width:0.246058px;stroke-linecap:butt;stroke-linejoin:miter;stroke-opacity:1"
         d="m 247.69511,114.94261 c 2.30696,1.58874 3.93115,0.88197 0,0 z"
         id="path5988-1-94-2" />
      <path
         style="display:inline;fill:#c5c8c6;fill-opacity:1;stroke:none;stroke-width:0.246058px;stroke-linecap:butt;stroke-linejoin:miter;stroke-opacity:1"
         d="m 247.68798,116.3469 c 2.30696,1.58875 3.93115,0.88198 0,0 z"
         id="path5988-1-94-6" />
      <path
         style="display:inline;fill:#c5c8c6;fill-opacity:1;stroke:none;stroke-width:0.246058px;stroke-linecap:butt;stroke-linejoin:miter;stroke-opacity:1"
         d="m 247.68035,117.85151 c 2.30696,1.58874 3.93115,0.88197 0,0 z"
         id="path5988-1-94-8" />
      <path
         style="display:inline;fill:#c5c8c6;fill-opacity:1;stroke:none;stroke-width:0.168796px;stroke-linecap:butt;stroke-linejoin:miter;stroke-opacity:1"
         d="m 255.6956,108.46338 c 1.08565,1.58875 1.84999,0.88197 0,0 z"
         id="path5988-1-94-0" />
      <path
         style="display:inline;fill:#c5c8c6;fill-opacity:1;stroke:none;stroke-width:0.168796px;stroke-linecap:butt;stroke-linejoin:miter;stroke-opacity:1"
         d="m 255.6448,109.96747 c 1.08565,1.58875 1.85,0.88198 0,0 z"
         id="path5988-1-94-22" />
      <path
         style="display:inline;fill:#c5c8c6;fill-opacity:1;stroke:none;stroke-width:0.168796px;stroke-linecap:butt;stroke-linejoin:miter;stroke-opacity:1"
         d="m 255.82763,112.47718 c 1.08565,1.58875 1.85,0.88197 0,0 z"
         id="path5988-1-94-5" />
      <path
         style="display:inline;fill:#c5c8c6;fill-opacity:1;stroke:none;stroke-width:0.168796px;stroke-linecap:butt;stroke-linejoin:miter;stroke-opacity:1"
         d="m 255.77635,114.18189 c 1.08566,1.58875 1.85,0.88197 0,0 z"
         id="path5988-1-94-68" />
      <path
         style="display:inline;fill:#c5c8c6;fill-opacity:1;stroke:none;stroke-width:0.168796px;stroke-linecap:butt;stroke-linejoin:miter;stroke-opacity:1"
         d="m 255.77228,115.8871 c 1.08566,1.58875 1.85,0.88198 0,0 z"
         id="path5988-1-94-1" />
      <path
         style="display:inline;fill:#c5c8c6;fill-opacity:1;stroke:none;stroke-width:0.168796px;stroke-linecap:butt;stroke-linejoin:miter;stroke-opacity:1"
         d="m 255.90958,117.69415 c 1.08566,1.58875 1.85,0.88198 0,0 z"
         id="path5988-1-94-18" />
      <path
         style="display:inline;fill:#c5c8c6;fill-opacity:1;stroke:none;stroke-width:0.168796px;stroke-linecap:butt;stroke-linejoin:miter;stroke-opacity:1"
         d="m 257.37997,109.62635 c 1.08565,1.58875 1.84999,0.88197 0,0 z"
         id="path5988-1-94-0-1" />
      <path
         style="display:inline;fill:#c5c8c6;fill-opacity:1;stroke:none;stroke-width:0.168796px;stroke-linecap:butt;stroke-linejoin:miter;stroke-opacity:1"
         d="m 257.32917,111.13044 c 1.08565,1.58875 1.85,0.88198 0,0 z"
         id="path5988-1-94-22-4" />
      <path
         style="display:inline;fill:#c5c8c6;fill-opacity:1;stroke:none;stroke-width:0.168796px;stroke-linecap:butt;stroke-linejoin:miter;stroke-opacity:1"
         d="m 257.512,113.64015 c 1.08565,1.58875 1.85,0.88197 0,0 z"
         id="path5988-1-94-5-9" />
      <path
         style="display:inline;fill:#c5c8c6;fill-opacity:1;stroke:none;stroke-width:0.168796px;stroke-linecap:butt;stroke-linejoin:miter;stroke-opacity:1"
         d="m 257.46072,115.34486 c 1.08566,1.58875 1.85,0.88197 0,0 z"
         id="path5988-1-94-68-1" />
      <path
         style="display:inline;fill:#c5c8c6;fill-opacity:1;stroke:none;stroke-width:0.168796px;stroke-linecap:butt;stroke-linejoin:miter;stroke-opacity:1"
         d="m 257.45665,117.05007 c 1.08566,1.58875 1.85,0.88198 0,0 z"
         id="path5988-1-94-1-4" />
      <path
         style="display:inline;fill:#c5c8c6;fill-opacity:1;stroke:none;stroke-width:0.168796px;stroke-linecap:butt;stroke-linejoin:miter;stroke-opacity:1"
         d="m 257.59395,118.85712 c 1.08566,1.58875 1.85,0.88198 0,0 z"
         id="path5988-1-94-18-8" />
      <path
         style="display:inline;fill:#c5c8c6;fill-opacity:1;stroke:none;stroke-width:0.246058px;stroke-linecap:butt;stroke-linejoin:miter;stroke-opacity:1"
         d="m 230.7654,102.66987 c 2.30696,0.0827 3.93115,-1.68439 0,0 z"
         id="path5988-1-2-3" />
      <path
         style="display:inline;fill:#c5c8c6;fill-opacity:1;stroke:none;stroke-width:0.246058px;stroke-linecap:butt;stroke-linejoin:miter;stroke-opacity:1"
         d="m 230.75776,104.17448 c 2.30696,0.0827 3.93115,-1.68439 0,0 z"
         id="path5988-1-6-4" />
      <path
         style="display:inline;fill:#c5c8c6;fill-opacity:1;stroke:none;stroke-width:0.246058px;stroke-linecap:butt;stroke-linejoin:miter;stroke-opacity:1"
         d="m 230.85044,105.67959 c 2.30696,0.0827 3.93115,-1.68439 0,0 z"
         id="path5988-1-25-6" />
      <path
         style="display:inline;fill:#c5c8c6;fill-opacity:1;stroke:none;stroke-width:0.246058px;stroke-linecap:butt;stroke-linejoin:miter;stroke-opacity:1"
         d="m 230.84331,107.08388 c 2.30696,0.0827 3.93115,-1.68439 0,0 z"
         id="path5988-1-1-9" />
      <path
         style="display:inline;fill:#c5c8c6;fill-opacity:1;stroke:none;stroke-width:0.246058px;stroke-linecap:butt;stroke-linejoin:miter;stroke-opacity:1"
         d="m 231.13863,108.18879 c 2.30696,0.0827 3.93115,-1.68439 0,0 z"
         id="path5988-1-15-4" />
      <path
         style="display:inline;fill:#c5c8c6;fill-opacity:1;stroke:none;stroke-width:0.246058px;stroke-linecap:butt;stroke-linejoin:miter;stroke-opacity:1"
         d="m 231.02815,110.19441 c 2.30696,0.0827 3.93115,-1.68439 0,0 z"
         id="path5988-1-36-6" />
      <path
         style="display:inline;fill:#c5c8c6;fill-opacity:1;stroke:none;stroke-width:0.246058px;stroke-linecap:butt;stroke-linejoin:miter;stroke-opacity:1"
         d="m 231.12387,111.09768 c 2.30696,0.0827 3.93115,-1.68439 0,0 z"
         id="path5988-1-63-0" />
      <path
         style="display:inline;fill:#c5c8c6;fill-opacity:1;stroke:none;stroke-width:0.246058px;stroke-linecap:butt;stroke-linejoin:miter;stroke-opacity:1"
         d="m 230.91766,112.20004 c 2.30696,0.0827 3.93115,-1.68439 0,0 z"
         id="path5988-1-88-9" />
      <path
         style="display:inline;fill:#c5c8c6;fill-opacity:1;stroke:none;stroke-width:0.246058px;stroke-linecap:butt;stroke-linejoin:miter;stroke-opacity:1"
         d="m 231.0027,115.20976 c 2.30696,0.0827 3.93115,-1.68439 0,0 z"
         id="path5988-1-10-7" />
      <path
         style="display:inline;fill:#c5c8c6;fill-opacity:1;stroke:none;stroke-width:0.246058px;stroke-linecap:butt;stroke-linejoin:miter;stroke-opacity:1"
         d="m 231.0969,116.41395 c 2.30696,0.0827 3.93115,-1.68439 0,0 z"
         id="path5988-1-7-1" />
      <path
         style="display:inline;fill:#c5c8c6;fill-opacity:1;stroke:none;stroke-width:0.246058px;stroke-linecap:butt;stroke-linejoin:miter;stroke-opacity:1"
         d="m 231.18957,117.91906 c 2.30696,0.0827 3.93115,-1.68439 0,0 z"
         id="path5988-1-07-1" />
      <path
         style="display:inline;fill:#c5c8c6;fill-opacity:1;stroke:none;stroke-width:0.246058px;stroke-linecap:butt;stroke-linejoin:miter;stroke-opacity:1"
         d="m 230.97674,120.32541 c 2.30696,0.0827 3.93115,-1.68439 0,0 z"
         id="path5988-1-28-0" />
      <path
         style="display:inline;fill:#c5c8c6;fill-opacity:1;stroke:none;stroke-width:0.246058px;stroke-linecap:butt;stroke-linejoin:miter;stroke-opacity:1"
         d="m 231.17227,121.32949 c 2.30696,0.0827 3.93115,-1.68439 0,0 z"
         id="path5988-1-84-0" />
      <path
         style="display:inline;fill:#c5c8c6;fill-opacity:1;stroke:none;stroke-width:0.246058px;stroke-linecap:butt;stroke-linejoin:miter;stroke-opacity:1"
         d="m 231.26596,122.63399 c 2.30696,0.0827 3.93115,-1.68439 0,0 z"
         id="path5988-1-00-3" />
      <path
         style="display:inline;fill:#c5c8c6;fill-opacity:1;stroke:none;stroke-width:0.246058px;stroke-linecap:butt;stroke-linejoin:miter;stroke-opacity:1"
         d="m 232.76295,90.595093 c 2.30696,0.0827 3.93115,-1.68439 0,0 z"
         id="path5988-1-10-3" />
      <path
         style="display:inline;fill:#c5c8c6;fill-opacity:1;stroke:none;stroke-width:0.246058px;stroke-linecap:butt;stroke-linejoin:miter;stroke-opacity:1"
         d="m 232.76295,91.799284 c 2.30696,0.0827 3.93115,-1.68439 0,0 z"
         id="path5988-1-7-2" />
      <path
         style="display:inline;fill:#c5c8c6;fill-opacity:1;stroke:none;stroke-width:0.246058px;stroke-linecap:butt;stroke-linejoin:miter;stroke-opacity:1"
         d="m 232.76295,93.304396 c 2.30696,0.0827 3.93115,-1.68439 0,0 z"
         id="path5988-1-07-17" />
      <path
         style="display:inline;fill:#c5c8c6;fill-opacity:1;stroke:none;stroke-width:0.246058px;stroke-linecap:butt;stroke-linejoin:miter;stroke-opacity:1"
         d="m 232.76295,95.710743 c 2.30696,0.0827 3.93115,-1.68439 0,0 z"
         id="path5988-1-28-8" />
      <path
         style="display:inline;fill:#c5c8c6;fill-opacity:1;stroke:none;stroke-width:0.246058px;stroke-linecap:butt;stroke-linejoin:miter;stroke-opacity:1"
         d="m 232.76295,96.714829 c 2.30696,0.0827 3.93115,-1.68439 0,0 z"
         id="path5988-1-84-2" />
      <path
         style="display:inline;fill:#c5c8c6;fill-opacity:1;stroke:none;stroke-width:0.246058px;stroke-linecap:butt;stroke-linejoin:miter;stroke-opacity:1"
         d="m 232.76295,98.019327 c 2.30696,0.0827 3.93115,-1.68439 0,0 z"
         id="path5988-1-00-8" />
      <path
         style="display:inline;fill:#c5c8c6;fill-opacity:1;stroke:none;stroke-width:0.168796px;stroke-linecap:butt;stroke-linejoin:miter;stroke-opacity:1"
         d="m 216.04737,96.783796 c 1.08565,0.37893 1.85,-1.1796 0,0 z"
         id="path5988-1-94-22-4-0" />
      <path
         style="display:inline;fill:#c5c8c6;fill-opacity:1;stroke:none;stroke-width:0.168796px;stroke-linecap:butt;stroke-linejoin:miter;stroke-opacity:1"
         d="m 216.2302,99.089766 c 1.08565,0.37893 1.85,-1.17961 0,0 z"
         id="path5988-1-94-5-9-1" />
      <path
         style="display:inline;fill:#c5c8c6;fill-opacity:1;stroke:none;stroke-width:0.168796px;stroke-linecap:butt;stroke-linejoin:miter;stroke-opacity:1"
         d="m 216.17892,100.85162 c 1.08566,0.37893 1.85,-1.179614 0,0 z"
         id="path5988-1-94-68-1-9" />
      <path
         style="display:inline;fill:#c5c8c6;fill-opacity:1;stroke:none;stroke-width:0.168796px;stroke-linecap:butt;stroke-linejoin:miter;stroke-opacity:1"
         d="m 216.17485,102.56137 c 1.08566,0.37892 1.85,-1.1796 0,0 z"
         id="path5988-1-94-1-4-9" />
      <path
         style="display:inline;fill:#c5c8c6;fill-opacity:1;stroke:none;stroke-width:0.168796px;stroke-linecap:butt;stroke-linejoin:miter;stroke-opacity:1"
         d="m 216.31215,104.21541 c 1.08566,0.37893 1.85,-1.17959 0,0 z"
         id="path5988-1-94-18-8-3" />
      <path
         style="display:inline;fill:#c5c8c6;fill-opacity:1;stroke:none;stroke-width:0.168796px;stroke-linecap:butt;stroke-linejoin:miter;stroke-opacity:1"
         d="m 213.96162,96.862874 c 1.08565,0.37893 1.84999,-1.1796 0,0 z"
         id="path5988-1-94-0-1-2-3" />
      <path
         style="display:inline;fill:#c5c8c6;fill-opacity:1;stroke:none;stroke-width:0.168796px;stroke-linecap:butt;stroke-linejoin:miter;stroke-opacity:1"
         d="m 213.91082,98.423574 c 1.08565,0.37893 1.85,-1.1796 0,0 z"
         id="path5988-1-94-22-4-0-7" />
      <path
         style="display:inline;fill:#c5c8c6;fill-opacity:1;stroke:none;stroke-width:0.168796px;stroke-linecap:butt;stroke-linejoin:miter;stroke-opacity:1"
         d="m 214.04237,102.49139 c 1.08566,0.37893 1.85,-1.17961 0,0 z"
         id="path5988-1-94-68-1-9-5" />
      <path
         style="display:inline;fill:#c5c8c6;fill-opacity:1;stroke:none;stroke-width:0.168796px;stroke-linecap:butt;stroke-linejoin:miter;stroke-opacity:1"
         d="m 214.1756,105.85518 c 1.08566,0.37893 1.85,-1.17959 0,0 z"
         id="path5988-1-94-18-8-3-4" />
      <path
         style="display:inline;fill:#c5c8c6;fill-opacity:1;stroke:none;stroke-width:0.264583px;stroke-linecap:butt;stroke-linejoin:miter;stroke-opacity:1"
         d="m 238.03784,108.9756 c 3.61227,-0.23135 6.46944,-1.7622 0,0 z"
         id="path5988-6" />
      <path
         style="display:inline;fill:#c5c8c6;fill-opacity:1;stroke:none;stroke-width:0.264583px;stroke-linecap:butt;stroke-linejoin:miter;stroke-opacity:1"
         d="m 237.63854,110.7152 c 3.61227,-0.23135 6.46944,-1.7622 0,0 z"
         id="path5988-7-8" />
      <path
         style="display:inline;fill:#c5c8c6;fill-opacity:1;stroke:none;stroke-width:0.264583px;stroke-linecap:butt;stroke-linejoin:miter;stroke-opacity:1"
         d="m 237.16374,112.78374 c 3.61226,-0.23135 6.46944,-1.7622 0,0 z"
         id="path5988-74-9" />
      <path
         style="display:inline;fill:#c5c8c6;fill-opacity:1;stroke:none;stroke-width:0.264583px;stroke-linecap:butt;stroke-linejoin:miter;stroke-opacity:1"
         d="m 236.82714,114.25018 c 3.61226,-0.23135 6.46944,-1.7622 0,0 z"
         id="path5988-9-6" />
      <path
         style="display:inline;fill:#c5c8c6;fill-opacity:1;stroke:none;stroke-width:0.264583px;stroke-linecap:butt;stroke-linejoin:miter;stroke-opacity:1"
         d="m 236.48341,115.74766 c 3.61226,-0.23135 6.46944,-1.76221 0,0 z"
         id="path5988-90-9" />
      <path
         style="display:inline;fill:#c5c8c6;fill-opacity:1;stroke:none;stroke-width:0.168796px;stroke-linecap:butt;stroke-linejoin:miter;stroke-opacity:1"
         d="m 228.4855,107.2318 c 1.08565,0.37893 1.85,-1.1796 0,0 z"
         id="path5988-1-94-22-4-0-4" />
      <path
         style="display:inline;fill:#c5c8c6;fill-opacity:1;stroke:none;stroke-width:0.168796px;stroke-linecap:butt;stroke-linejoin:miter;stroke-opacity:1"
         d="m 228.61705,111.29962 c 1.08566,0.37893 1.85,-1.17961 0,0 z"
         id="path5988-1-94-68-1-9-4" />
      <path
         style="display:inline;fill:#c5c8c6;fill-opacity:1;stroke:none;stroke-width:0.168796px;stroke-linecap:butt;stroke-linejoin:miter;stroke-opacity:1"
         d="m 228.61298,113.00937 c 1.08566,0.37892 1.85,-1.1796 0,0 z"
         id="path5988-1-94-1-4-9-5" />
      <path
         style="display:inline;fill:#c5c8c6;fill-opacity:1;stroke:none;stroke-width:0.168796px;stroke-linecap:butt;stroke-linejoin:miter;stroke-opacity:1"
         d="m 228.75028,116.78009 c 1.08566,0.37893 1.85,-1.17959 0,0 z"
         id="path5988-1-94-18-8-3-8" />
      <path
         style="display:inline;fill:#c5c8c6;fill-opacity:1;stroke:none;stroke-width:0.168796px;stroke-linecap:butt;stroke-linejoin:miter;stroke-opacity:1"
         d="m 226.39975,107.31087 c 1.08565,0.37893 1.84999,-1.1796 0,0 z"
         id="path5988-1-94-0-1-2-3-2" />
      <path
         style="display:inline;fill:#c5c8c6;fill-opacity:1;stroke:none;stroke-width:0.168796px;stroke-linecap:butt;stroke-linejoin:miter;stroke-opacity:1"
         d="m 226.34895,108.87157 c 1.08565,0.37893 1.85,-1.1796 0,0 z"
         id="path5988-1-94-22-4-0-7-9" />
      <path
         style="display:inline;fill:#c5c8c6;fill-opacity:1;stroke:none;stroke-width:0.168796px;stroke-linecap:butt;stroke-linejoin:miter;stroke-opacity:1"
         d="m 226.4805,112.93939 c 1.08566,0.37893 1.85,-1.17961 0,0 z"
         id="path5988-1-94-68-1-9-5-6" />
      <path
         style="display:inline;fill:#c5c8c6;fill-opacity:1;stroke:none;stroke-width:0.168796px;stroke-linecap:butt;stroke-linejoin:miter;stroke-opacity:1"
         d="m 226.61373,116.30318 c 1.08566,0.37893 1.85,-1.17959 0,0 z"
         id="path5988-1-94-18-8-3-4-5" />
      <path
         style="display:inline;fill:#c5c8c6;fill-opacity:1;stroke:none;stroke-width:0.168796px;stroke-linecap:butt;stroke-linejoin:miter;stroke-opacity:1"
         d="m 226.66481,114.19536 c 1.08566,0.37893 1.85,-1.17959 0,0 z"
         id="path5988-1-94-18-8-3-8-1" />
      <path
         style="display:inline;fill:#c5c8c6;fill-opacity:1;stroke:none;stroke-width:0.168796px;stroke-linecap:butt;stroke-linejoin:miter;stroke-opacity:1"
         d="m 226.68415,110.3837 c 1.08566,0.37893 1.85,-1.17959 0,0 z"
         id="path5988-1-94-18-8-3-8-0" />
      <path
         style="display:inline;fill:#c5c8c6;fill-opacity:1;stroke:none;stroke-width:0.233441px;stroke-linecap:butt;stroke-linejoin:miter;stroke-opacity:1"
         d="m 200.20456,110.88412 c 2.65593,1.32367 4.75406,0.94229 0,0 z"
         id="path5988-4" />
      <path
         style="display:inline;fill:#c5c8c6;fill-opacity:1;stroke:none;stroke-width:0.233441px;stroke-linecap:butt;stroke-linejoin:miter;stroke-opacity:1"
         d="m 199.94854,112.35723 c 2.65592,1.32366 4.75405,0.94229 0,0 z"
         id="path5988-7-2" />
      <path
         style="display:inline;fill:#c5c8c6;fill-opacity:1;stroke:none;stroke-width:0.233441px;stroke-linecap:butt;stroke-linejoin:miter;stroke-opacity:1"
         d="m 199.57257,114.52041 c 2.65594,1.32367 4.75406,0.9423 0,0 z"
         id="path5988-74-5" />
      <path
         style="display:inline;fill:#c5c8c6;fill-opacity:1;stroke:none;stroke-width:0.233441px;stroke-linecap:butt;stroke-linejoin:miter;stroke-opacity:1"
         d="m 199.29687,116.10669 c 2.65593,1.32367 4.75407,0.9423 0,0 z"
         id="path5988-9-9" />
      <path
         style="display:inline;fill:#c5c8c6;fill-opacity:1;stroke:none;stroke-width:0.233441px;stroke-linecap:butt;stroke-linejoin:miter;stroke-opacity:1"
         d="m 199.0412,117.57779 c 2.65592,1.32366 4.75405,0.94229 0,0 z"
         id="path5988-90-0" />
      <path
         style="display:inline;fill:#c5c8c6;fill-opacity:1;stroke:none;stroke-width:0.12395px;stroke-linecap:butt;stroke-linejoin:miter;stroke-opacity:1"
         d="m 262.61283,115.38311 c 0.91517,0.24239 1.5595,-0.75457 0,0 z"
         id="path5988-1-94-5-9-1-4" />
      <path
         style="display:inline;fill:#c5c8c6;fill-opacity:1;stroke:none;stroke-width:0.12395px;stroke-linecap:butt;stroke-linejoin:miter;stroke-opacity:1"
         d="m 262.5696,116.51011 c 0.91519,0.2424 1.55951,-0.75456 0,0 z"
         id="path5988-1-94-68-1-9-7" />
      <path
         style="display:inline;fill:#c5c8c6;fill-opacity:1;stroke:none;stroke-width:0.12395px;stroke-linecap:butt;stroke-linejoin:miter;stroke-opacity:1"
         d="m 262.68191,118.66184 c 0.91519,0.24239 1.55951,-0.75455 0,0 z"
         id="path5988-1-94-18-8-3-41" />
      <path
         style="display:inline;fill:#c5c8c6;fill-opacity:1;stroke:none;stroke-width:0.12395px;stroke-linecap:butt;stroke-linejoin:miter;stroke-opacity:1"
         d="m 260.70046,113.95862 c 0.91518,0.24239 1.5595,-0.75455 0,0 z"
         id="path5988-1-94-0-1-2-3-3" />
      <path
         style="display:inline;fill:#c5c8c6;fill-opacity:1;stroke:none;stroke-width:0.12395px;stroke-linecap:butt;stroke-linejoin:miter;stroke-opacity:1"
         d="m 260.65764,114.95696 c 0.91518,0.24239 1.55951,-0.75456 0,0 z"
         id="path5988-1-94-22-4-0-7-1" />
      <path
         style="display:inline;fill:#c5c8c6;fill-opacity:1;stroke:none;stroke-width:0.12395px;stroke-linecap:butt;stroke-linejoin:miter;stroke-opacity:1"
         d="m 260.76853,117.55903 c 0.91519,0.24239 1.55951,-0.75456 0,0 z"
         id="path5988-1-94-68-1-9-5-0" />
      <path
         style="display:inline;fill:#c5c8c6;fill-opacity:1;stroke:none;stroke-width:0.12395px;stroke-linecap:butt;stroke-linejoin:miter;stroke-opacity:1"
         d="m 260.88084,119.71075 c 0.91519,0.24239 1.55951,-0.75455 0,0 z"
         id="path5988-1-94-18-8-3-4-9" />
      <path
         style="display:inline;fill:#c5c8c6;fill-opacity:1;stroke:none;stroke-width:0.12395px;stroke-linecap:butt;stroke-linejoin:miter;stroke-opacity:1"
         d="m 262.2674,113.10184 c 0.91517,0.24239 1.5595,-0.75457 0,0 z"
         id="path5988-1-94-5-9-1-4-9" />
      <path
         style="display:inline;fill:#c5c8c6;fill-opacity:1;stroke:none;stroke-width:0.12395px;stroke-linecap:butt;stroke-linejoin:miter;stroke-opacity:1"
         d="m 262.36058,114.50665 c 0.91517,0.24239 1.5595,-0.75457 0,0 z"
         id="path5988-1-94-5-9-1-4-2" />
      <path
         style="display:inline;fill:#c5c8c6;fill-opacity:1;stroke:none;stroke-width:0.12395px;stroke-linecap:butt;stroke-linejoin:miter;stroke-opacity:1"
         d="m 260.84733,116.20423 c 0.91517,0.24239 1.5595,-0.75457 0,0 z"
         id="path5988-1-94-5-9-1-4-7" />
      <path
         style="display:inline;fill:#c5c8c6;fill-opacity:1;stroke:none;stroke-width:0.12395px;stroke-linecap:butt;stroke-linejoin:miter;stroke-opacity:1"
         d="m 250.45204,99.701036 c 0.91517,0.242392 1.5595,-0.75457 0,0 z"
         id="path5988-1-94-5-9-1-4-79" />
      <path
         style="display:inline;fill:#c5c8c6;fill-opacity:1;stroke:none;stroke-width:0.12395px;stroke-linecap:butt;stroke-linejoin:miter;stroke-opacity:1"
         d="m 250.45204,98.597342 c 0.91517,0.24239 1.5595,-0.75457 0,0 z"
         id="path5988-1-94-5-9-1-4-26" />
      <path
         style="display:inline;fill:#c5c8c6;fill-opacity:1;stroke:none;stroke-width:0.12395px;stroke-linecap:butt;stroke-linejoin:miter;stroke-opacity:1"
         d="m 250.45204,97.493645 c 0.91517,0.24239 1.5595,-0.75457 0,0 z"
         id="path5988-1-94-5-9-1-4-65" />
      <path
         style="display:inline;fill:#c5c8c6;fill-opacity:1;stroke:none;stroke-width:0.12395px;stroke-linecap:butt;stroke-linejoin:miter;stroke-opacity:1"
         d="m 250.45204,96.389963 c 0.91517,0.24239 1.5595,-0.75457 0,0 z"
         id="path5988-1-94-5-9-1-4-8" />
      <path
         style="display:inline;fill:#c5c8c6;fill-opacity:1;stroke:none;stroke-width:0.12395px;stroke-linecap:butt;stroke-linejoin:miter;stroke-opacity:1"
         d="m 250.45204,95.286266 c 0.91517,0.24239 1.5595,-0.75457 0,0 z"
         id="path5988-1-94-5-9-1-4-28" />
      <path
         style="display:inline;fill:#c5c8c6;fill-opacity:1;stroke:none;stroke-width:0.12395px;stroke-linecap:butt;stroke-linejoin:miter;stroke-opacity:1"
         d="m 250.45204,94.182572 c 0.91517,0.24239 1.5595,-0.75457 0,0 z"
         id="path5988-1-94-5-9-1-4-31" />
      <path
         style="display:inline;fill:#c5c8c6;fill-opacity:1;stroke:none;stroke-width:0.12395px;stroke-linecap:butt;stroke-linejoin:miter;stroke-opacity:1"
         d="m 250.33246,92.858471 c 0.91517,0.24239 1.5595,-0.75457 0,0 z"
         id="path5988-1-94-5-9-1-4-6-8" />
      <path
         style="display:inline;fill:#c5c8c6;fill-opacity:1;stroke:none;stroke-width:0.12395px;stroke-linecap:butt;stroke-linejoin:miter;stroke-opacity:1"
         d="m 250.33246,91.754771 c 0.91517,0.24239 1.5595,-0.75457 0,0 z"
         id="path5988-1-94-5-9-1-4-94-3" />
      <path
         style="display:inline;fill:#c5c8c6;fill-opacity:1;stroke:none;stroke-width:0.12395px;stroke-linecap:butt;stroke-linejoin:miter;stroke-opacity:1"
         d="m 250.33246,90.651071 c 0.91517,0.24239 1.5595,-0.75457 0,0 z"
         id="path5988-1-94-5-9-1-4-3-8" />
      <path
         style="display:inline;fill:#c5c8c6;fill-opacity:1;stroke:none;stroke-width:0.12395px;stroke-linecap:butt;stroke-linejoin:miter;stroke-opacity:1"
         d="m 250.33246,89.547387 c 0.91517,0.242392 1.5595,-0.75457 0,0 z"
         id="path5988-1-94-5-9-1-4-79-7" />
      <path
         style="display:inline;fill:#c5c8c6;fill-opacity:1;stroke:none;stroke-width:0.12395px;stroke-linecap:butt;stroke-linejoin:miter;stroke-opacity:1"
         d="m 250.33246,88.443693 c 0.91517,0.24239 1.5595,-0.75457 0,0 z"
         id="path5988-1-94-5-9-1-4-26-8" />
      <path
         style="display:inline;fill:#c5c8c6;fill-opacity:1;stroke:none;stroke-width:0.12395px;stroke-linecap:butt;stroke-linejoin:miter;stroke-opacity:1"
         d="m 250.33246,87.339996 c 0.91517,0.24239 1.5595,-0.75457 0,0 z"
         id="path5988-1-94-5-9-1-4-65-0" />
      <path
         style="display:inline;fill:#c5c8c6;fill-opacity:1;stroke:none;stroke-width:0.12395px;stroke-linecap:butt;stroke-linejoin:miter;stroke-opacity:1"
         d="m 250.33246,86.236314 c 0.91517,0.24239 1.5595,-0.75457 0,0 z"
         id="path5988-1-94-5-9-1-4-8-1" />
      <path
         style="display:inline;fill:#c5c8c6;fill-opacity:1;stroke:none;stroke-width:0.12395px;stroke-linecap:butt;stroke-linejoin:miter;stroke-opacity:1"
         d="m 250.33246,85.132617 c 0.91517,0.24239 1.5595,-0.75457 0,0 z"
         id="path5988-1-94-5-9-1-4-28-2" />
      <path
         style="display:inline;fill:#c5c8c6;fill-opacity:1;stroke:none;stroke-width:0.12395px;stroke-linecap:butt;stroke-linejoin:miter;stroke-opacity:1"
         d="m 250.33246,84.028923 c 0.91517,0.24239 1.5595,-0.75457 0,0 z"
         id="path5988-1-94-5-9-1-4-31-4" />
      <path
         style="display:inline;fill:#c5c8c6;fill-opacity:1;stroke:none;stroke-width:0.12395px;stroke-linecap:butt;stroke-linejoin:miter;stroke-opacity:1"
         d="m 250.42144,82.486308 c 0.91517,0.24239 1.5595,-0.75457 0,0 z"
         id="path5988-1-94-5-9-1-4-6-8-2" />
      <path
         style="display:inline;fill:#c5c8c6;fill-opacity:1;stroke:none;stroke-width:0.12395px;stroke-linecap:butt;stroke-linejoin:miter;stroke-opacity:1"
         d="m 250.42144,81.382608 c 0.91517,0.24239 1.5595,-0.75457 0,0 z"
         id="path5988-1-94-5-9-1-4-94-3-2" />
      <path
         style="display:inline;fill:#c5c8c6;fill-opacity:1;stroke:none;stroke-width:0.12395px;stroke-linecap:butt;stroke-linejoin:miter;stroke-opacity:1"
         d="m 250.42144,80.278908 c 0.91517,0.24239 1.5595,-0.75457 0,0 z"
         id="path5988-1-94-5-9-1-4-3-8-3" />
      <path
         style="display:inline;fill:#c5c8c6;fill-opacity:1;stroke:none;stroke-width:0.205229px;stroke-linecap:butt;stroke-linejoin:miter;stroke-opacity:1"
         d="m 224.35731,90.980968 c 1.60488,0.0827 2.73478,-1.68439 0,0 z"
         id="path5988-1-10-3-0" />
      <path
         style="display:inline;fill:#c5c8c6;fill-opacity:1;stroke:none;stroke-width:0.205229px;stroke-linecap:butt;stroke-linejoin:miter;stroke-opacity:1"
         d="m 224.35731,92.185159 c 1.60488,0.0827 2.73478,-1.68439 0,0 z"
         id="path5988-1-7-2-5" />
      <path
         style="display:inline;fill:#c5c8c6;fill-opacity:1;stroke:none;stroke-width:0.205229px;stroke-linecap:butt;stroke-linejoin:miter;stroke-opacity:1"
         d="m 224.35731,93.690271 c 1.60488,0.0827 2.73478,-1.68439 0,0 z"
         id="path5988-1-07-17-1" />
      <path
         style="display:inline;fill:#c5c8c6;fill-opacity:1;stroke:none;stroke-width:0.205229px;stroke-linecap:butt;stroke-linejoin:miter;stroke-opacity:1"
         d="m 224.35731,97.100704 c 1.60488,0.0827 2.73478,-1.68439 0,0 z"
         id="path5988-1-84-2-9" />
      <path
         style="display:inline;fill:#c5c8c6;fill-opacity:1;stroke:none;stroke-width:0.205229px;stroke-linecap:butt;stroke-linejoin:miter;stroke-opacity:1"
         d="m 224.35731,98.405202 c 1.60488,0.0827 2.73478,-1.68439 0,0 z"
         id="path5988-1-00-8-9" />
      <path
         style="display:inline;fill:#c5c8c6;fill-opacity:1;stroke:none;stroke-width:0.205229px;stroke-linecap:butt;stroke-linejoin:miter;stroke-opacity:1"
         d="m 224.31468,89.878865 c 1.60488,0.0827 2.73478,-1.68439 0,0 z"
         id="path5988-1-10-3-0-5" />
      <path
         style="display:inline;fill:#c5c8c6;fill-opacity:1;stroke:none;stroke-width:0.205229px;stroke-linecap:butt;stroke-linejoin:miter;stroke-opacity:1"
         d="m 224.16551,99.507814 c 1.60488,0.0827 2.73478,-1.68439 0,0 z"
         id="path5988-1-10-3-0-7" />
      <path
         style="display:inline;fill:#c5c8c6;fill-opacity:1;stroke:none;stroke-width:0.246058px;stroke-linecap:butt;stroke-linejoin:miter;stroke-opacity:1"
         d="m 240.18665,83.167945 c 2.30696,1.58875 3.93115,0.88198 0,0 z"
         id="path5988-1-94-9-6" />
      <path
         style="display:inline;fill:#c5c8c6;fill-opacity:1;stroke:none;stroke-width:0.246058px;stroke-linecap:butt;stroke-linejoin:miter;stroke-opacity:1"
         d="m 239.88573,84.471951 c 2.30696,1.58875 3.93115,0.88198 0,0 z"
         id="path5988-1-94-9-61" />
      <path
         style="display:inline;fill:#c5c8c6;fill-opacity:1;stroke:none;stroke-width:0.246058px;stroke-linecap:butt;stroke-linejoin:miter;stroke-opacity:1"
         d="m 240.08634,85.976573 c 2.30696,1.58875 3.93115,0.88198 0,0 z"
         id="path5988-1-94-9-4" />
      <path
         style="display:inline;fill:#c5c8c6;fill-opacity:1;stroke:none;stroke-width:0.246058px;stroke-linecap:butt;stroke-linejoin:miter;stroke-opacity:1"
         d="m 240.28696,87.380887 c 2.30696,1.58875 3.93115,0.88198 0,0 z"
         id="path5988-1-94-9-2" />
      <path
         style="display:inline;fill:#c5c8c6;fill-opacity:1;stroke:none;stroke-width:0.246058px;stroke-linecap:butt;stroke-linejoin:miter;stroke-opacity:1"
         d="m 240.18665,88.584585 c 2.30696,1.58875 3.93115,0.88198 0,0 z"
         id="path5988-1-94-9-5" />
      <path
         style="display:inline;fill:#c5c8c6;fill-opacity:1;stroke:none;stroke-width:0.168796px;stroke-linecap:butt;stroke-linejoin:miter;stroke-opacity:1"
         d="m 245.07354,105.3845 c 1.08565,1.06589 1.85,-0.009 0,0 z"
         id="path5988-1-94-22-4-0-4-3"
         inkscape:transform-center-x="-0.80978802"
         inkscape:transform-center-y="-2.4463194" />
      <path
         style="display:inline;fill:#c5c8c6;fill-opacity:1;stroke:none;stroke-width:0.168796px;stroke-linecap:butt;stroke-linejoin:miter;stroke-opacity:1"
         d="m 245.20509,109.53556 c 1.08566,1.06589 1.85,-0.009 0,0 z"
         id="path5988-1-94-68-1-9-4-4"
         inkscape:transform-center-x="-0.94133964"
         inkscape:transform-center-y="1.7047406" />
      <path
         style="display:inline;fill:#c5c8c6;fill-opacity:1;stroke:none;stroke-width:0.168796px;stroke-linecap:butt;stroke-linejoin:miter;stroke-opacity:1"
         d="m 245.20102,111.24274 c 1.08566,1.06588 1.85,-0.009 0,0 z"
         id="path5988-1-94-1-4-9-5-1"
         inkscape:transform-center-x="-0.93726964"
         inkscape:transform-center-y="3.4119184" />
      <path
         style="display:inline;fill:#c5c8c6;fill-opacity:1;stroke:none;stroke-width:0.168796px;stroke-linecap:butt;stroke-linejoin:miter;stroke-opacity:1"
         d="m 245.33832,115.10034 c 1.08566,1.06588 1.85,-0.009 0,0 z"
         id="path5988-1-94-18-8-3-8-5"
         inkscape:transform-center-x="-1.0745696"
         inkscape:transform-center-y="7.2695184" />
      <path
         style="display:inline;fill:#c5c8c6;fill-opacity:1;stroke:none;stroke-width:0.168796px;stroke-linecap:butt;stroke-linejoin:miter;stroke-opacity:1"
         d="m 242.98779,104.1438 c 1.08565,1.06588 1.84999,-0.009 0,0 z"
         id="path5988-1-94-0-1-2-3-2-7"
         inkscape:transform-center-x="1.2759641"
         inkscape:transform-center-y="-3.6870217" />
      <path
         style="display:inline;fill:#c5c8c6;fill-opacity:1;stroke:none;stroke-width:0.168796px;stroke-linecap:butt;stroke-linejoin:miter;stroke-opacity:1"
         d="m 242.93699,105.67236 c 1.08565,1.06587 1.85,-0.009 0,0 z"
         id="path5988-1-94-22-4-0-7-9-5"
         inkscape:transform-center-x="1.326762"
         inkscape:transform-center-y="-2.1584639" />
      <path
         style="display:inline;fill:#c5c8c6;fill-opacity:1;stroke:none;stroke-width:0.168796px;stroke-linecap:butt;stroke-linejoin:miter;stroke-opacity:1"
         d="m 243.06854,109.82341 c 1.08566,1.06589 1.85,-0.009 0,0 z"
         id="path5988-1-94-68-1-9-5-6-6"
         inkscape:transform-center-x="1.1952104"
         inkscape:transform-center-y="1.9925906" />
      <path
         style="display:inline;fill:#c5c8c6;fill-opacity:1;stroke:none;stroke-width:0.168796px;stroke-linecap:butt;stroke-linejoin:miter;stroke-opacity:1"
         d="m 243.20177,113.2715 c 1.08566,1.0659 1.85,-0.009 0,0 z"
         id="path5988-1-94-18-8-3-4-5-1"
         inkscape:transform-center-x="1.0619804"
         inkscape:transform-center-y="5.4406829" />
      <path
         style="display:inline;fill:#c5c8c6;fill-opacity:1;stroke:none;stroke-width:0.168796px;stroke-linecap:butt;stroke-linejoin:miter;stroke-opacity:1"
         d="m 243.25285,111.19601 c 1.08566,1.06589 1.85,-0.009 0,0 z"
         id="path5988-1-94-18-8-3-8-1-2"
         inkscape:transform-center-x="1.0109004"
         inkscape:transform-center-y="3.3651906" />
      <path
         style="display:inline;fill:#c5c8c6;fill-opacity:1;stroke:none;stroke-width:0.168796px;stroke-linecap:butt;stroke-linejoin:miter;stroke-opacity:1"
         d="m 243.27219,107.39659 c 1.08566,1.06589 1.85,-0.009 0,0 z"
         id="path5988-1-94-18-8-3-8-0-9"
         inkscape:transform-center-x="0.99156038"
         inkscape:transform-center-y="-0.43422942" />
    </g>
    <g
       id="g6510"
       style="fill:#969896">
      <path
         style="fill:#969896;fill-opacity:1;stroke:none;stroke-width:0.264583px;stroke-linecap:butt;stroke-linejoin:miter;stroke-opacity:1"
         d="m 288.9732,117.42422 c -2.10915,-0.0351 -3.47535,-3.01868 -2.58394,-3.60461 0.89138,-0.58593 2.40067,-5.45803 0.25013,-4.11725 -2.1505,1.34078 -6.42659,14.92384 2.33381,7.72186 z"
         id="path6489" />
      <path
         style="fill:#969896;fill-opacity:1;stroke:none;stroke-width:0.264583px;stroke-linecap:butt;stroke-linejoin:miter;stroke-opacity:1"
         d="m 244.82851,103.48811 c -2.80117,-0.33627 -3.28957,-1.23175 -0.99712,-6.822069 2.29244,-5.590323 1.9258,4.538179 0.99712,6.822069 z"
         id="path6491" />
      <path
         style="fill:#969896;fill-opacity:1;stroke:none;stroke-width:0.264583px;stroke-linecap:butt;stroke-linejoin:miter;stroke-opacity:1"
         d="m 218.71944,112.63205 c 2.71872,-0.36195 2.4001,0.3001 1.52282,3.7505 -0.87728,3.45041 -5.09327,7.44994 -1.52282,-3.7505 z"
         id="path6493" />
      <path
         style="fill:#969896;fill-opacity:1;stroke:none;stroke-width:0.264583px;stroke-linecap:butt;stroke-linejoin:miter;stroke-opacity:1"
         d="m 213.64933,118.90121 c -2.51191,-3.12115 -2.45142,-3.74546 -4.02428,-1.02566 -1.57286,2.71981 1.11941,-3.72245 -0.55586,-6.80031 -1.67528,-3.07787 -0.59558,5.54038 -2.50217,7.38501 -1.9066,1.84463 -8.60964,3.46973 -5.35456,3.58872 3.25508,0.119 12.1847,1.36473 12.30477,-0.83544 0.12007,-2.20016 0.1321,-2.31232 0.1321,-2.31232 z"
         id="path6495" />
      <path
         style="fill:#969896;fill-opacity:1;stroke:none;stroke-width:0.264583px;stroke-linecap:butt;stroke-linejoin:miter;stroke-opacity:1"
         d="m 276.40341,97.065543 c -0.40572,-8.151251 0.58451,-11.269263 -1.33485,-12.5575 -1.91937,-1.288238 0.23759,-3.902597 -1.77877,-3.014954 -2.01639,0.887643 -9.18343,0.202266 -7.91599,1.18953 1.26746,0.987266 3.20302,2.475648 5.64203,1.887812 2.43901,-0.587832 2.64236,0.0037 3.20908,6.926014 0.56671,6.922373 0.24241,7.574616 2.1785,5.569098 z"
         id="path6497" />
      <path
         style="fill:#969896;fill-opacity:1;stroke:none;stroke-width:0.264583px;stroke-linecap:butt;stroke-linejoin:miter;stroke-opacity:1"
         d="m 241.38062,73.587008 c 0.4132,4.418277 1.75313,5.810925 -0.4595,5.838735 -2.21263,0.02781 -3.15517,-8.516543 0.4595,-5.838735 z"
         id="path6499" />
      <path
         style="fill:#969896;fill-opacity:1;stroke:none;stroke-width:0.264583px;stroke-linecap:butt;stroke-linejoin:miter;stroke-opacity:1"
         d="m 234.22668,82.744163 c -3.13329,0.730706 -4.69781,-2.712582 -6.14704,-0.636277 -1.44923,2.076301 -1.40166,3.999166 2.95045,3.674787 4.35212,-0.324377 4.863,0.659037 3.19659,-3.03851 z"
         id="path6501" />
      <path
         style="display:inline;fill:#969896;fill-opacity:1;stroke:none;stroke-width:0.202772px;stroke-linecap:butt;stroke-linejoin:miter;stroke-opacity:1"
         d="m 252.76436,102.75272 c 1.01771,-4.836415 1.34149,-5.022218 1.53433,3.54369 0.19284,8.56589 -1.45284,-0.0585 -1.53433,-3.54369 z"
         id="path6491-3" />
      <path
         style="display:inline;fill:#969896;fill-opacity:1;stroke:none;stroke-width:0.187017px;stroke-linecap:butt;stroke-linejoin:miter;stroke-opacity:1"
         d="m 254.42183,76.631297 c 2.53856,0.219742 1.53075,2.480846 3.74356,1.600428 2.21281,-0.880416 3.3298,-1.97633 0.21637,-2.67168 -3.11343,-0.695358 -2.86857,-1.354067 -3.95993,1.071252 z"
         id="path6501-4" />
      <path
         style="display:inline;fill:#969896;fill-opacity:1;stroke:none;stroke-width:0.194469px;stroke-linecap:butt;stroke-linejoin:miter;stroke-opacity:1"
         d="m 268.94702,114.19701 c 1.84678,0.0279 1.84617,0.52065 2.41136,3.18035 0.56521,2.65971 -1.10109,5.36895 -2.41136,-3.18035 z"
         id="path6493-0" />
    </g>
    <g
       id="g7041"
       transform="matrix(1,0,0,-0.78063813,0.54228,111.09657)"
       style="fill:#373b41">
      <path
         style="fill:#373b41;fill-opacity:1;fill-rule:evenodd;stroke:none;stroke-width:0.264583"
         id="path6983"
         d="m 201.47649,58.364648 c -0.55083,0.19434 -2.81294,0.988897 -3.16053,1.129832 -0.88511,0.358884 -1.738,0.794647 -2.62587,1.146662 -1.17582,0.466185 -4.68215,1.602303 -5.90111,2.321203 -0.54781,0.323074 -0.94999,0.845804 -1.42499,1.268706 -0.0493,0.523975 -0.52665,1.206579 -0.14783,1.571921 1.85014,1.784348 9.20105,4.110995 10.77684,4.594982 8.98339,2.759146 6.79768,1.697979 16.06457,3.546999 3.06532,0.611624 6.10474,1.34657 9.15711,2.019855 1.99677,0.469247 3.99353,0.938493 5.99029,1.40774 0.0485,0.01196 0.0654,-0.05662 0.0169,-0.06859 v 0 c -2.00929,-0.414252 -4.01858,-0.828508 -6.02786,-1.242761 -6.44405,-1.475406 -10.86604,-2.511737 -17.24875,-3.885774 -6.00028,-1.291714 -9.18098,-1.468744 -14.63025,-4.162766 -1.18152,-0.584121 -2.21866,-1.450615 -3.17201,-2.360731 -0.2934,-0.280102 -0.31642,-0.747028 -0.47463,-1.120543 0.37516,-0.51948 0.60302,-1.187452 1.12549,-1.558435 0.78824,-0.559697 1.76741,-0.785799 2.66864,-1.13561 1.06889,-0.414891 2.13583,-0.84555 3.23917,-1.157499 0.90529,-0.255958 1.84284,-0.381442 2.76992,-0.541468 1.84573,-0.3186 1.53428,-0.260326 3.13232,-0.254624 1.07417,-0.09011 0.94673,-1.609214 -0.12744,-1.519103 z" />
      <path
         style="fill:#373b41;fill-opacity:1;fill-rule:evenodd;stroke:none;stroke-width:0.264583"
         id="path6985"
         d="m 204.98195,72.100852 c 0.45154,-0.322906 0.87664,-0.686443 1.35463,-0.968719 1.18281,-0.698492 2.45083,-1.163124 3.69134,-1.737963 0.15235,-0.0706 3.78599,-1.840177 3.8687,-1.884313 0.66935,-0.357158 1.31304,-0.760444 1.96956,-1.140669 0.56016,-0.239455 1.09707,-0.543001 1.68047,-0.718367 0.01,-0.0029 3.30967,0.04779 -0.0647,-1.162188 -0.2662,-0.09546 -0.43268,0.364456 -0.65526,0.538917 -0.59326,0.46501 -0.7471,0.562208 -1.31084,0.954206 0.36256,0.458259 0.53913,1.173393 1.08767,1.374775 0.99174,0.364099 2.12441,-0.0024 3.16391,0.186111 1.89577,0.343765 3.73523,0.947087 5.60688,1.404324 3.65569,0.893077 12.63691,3.026817 16.03103,3.775874 3.02746,0.668136 6.06835,1.273886 9.10253,1.910828 1.90176,0.421535 3.80352,0.843069 5.70528,1.264603 0.0449,0.01098 0.0605,-0.05259 0.0155,-0.06357 v 0 c -1.88699,-0.489373 -3.77399,-0.978749 -5.66098,-1.468123 -3.03024,-0.660262 -6.05928,-1.325988 -9.0907,-1.980787 -7.81232,-1.687502 -8.64107,-1.811086 -16.08608,-3.507348 -1.87861,-0.428019 -3.79178,-0.734851 -5.62749,-1.320128 -0.94478,-0.30122 -1.69132,-1.131925 -2.66427,-1.323517 -0.27323,-0.05381 -0.29011,0.475451 -0.43517,0.713176 0.019,-0.55581 -0.0704,-0.476358 0.8111,-0.815742 0.34647,-0.133395 1.00199,0.134654 1.09065,-0.225867 0.12475,-0.507288 -0.23087,-1.156504 -0.68893,-1.407665 -0.78661,-0.431303 -0.59337,3.825438 -2.14765,1.621901 -1.5323,0.854181 -2.36067,1.354629 -3.94787,2.088121 -0.62949,0.290904 -1.28094,0.531936 -1.91599,0.810498 -0.60876,0.26703 -1.20126,0.570986 -1.8151,0.826135 -1.75264,0.728498 -1.88663,0.723079 -3.57888,1.219816 -0.73234,0.361056 -0.22173,1.396738 0.51061,1.03568 z" />
      <path
         style="fill:#373b41;fill-opacity:1;fill-rule:evenodd;stroke:none;stroke-width:0.264583"
         id="path6987"
         d="m 213.70901,75.462891 c 0.24921,1.643563 0.29071,1.469369 0.21763,3.373853 -0.0245,0.638897 -0.15836,1.272072 -0.15978,1.911435 -0.001,0.508031 -0.0374,1.045149 0.15219,1.516475 0.5219,1.297432 1.30054,1.437156 2.42889,2.021488 0.86891,0.582149 1.93628,0.709721 2.85353,1.175456 1.5799,0.80219 0.65486,0.973048 2.87615,1.147194 1.651,0.129437 3.31444,-0.0097 4.96732,0.09296 3.41735,0.212275 6.8243,0.567634 10.23645,0.85145 16.10768,0.864579 8.41353,0.0154 23.10317,2.3524 0.16944,0.02445 0.20402,-0.21517 0.0346,-0.239625 v 0 c -14.81719,-1.285677 -7.11046,-0.417989 -23.10789,-2.710066 -5.25535,-0.150651 -9.97713,0.07177 -15.04186,-0.935205 -1.35671,-0.269742 -1.61087,-0.733327 -2.7364,-1.304544 -0.42986,-0.218156 -0.88162,-0.390474 -1.32763,-0.573362 -0.48824,-0.2002 -0.98311,-0.383807 -1.47466,-0.575712 -0.70866,-0.355934 -1.63031,-0.666007 -2.04571,-1.439977 -0.21812,-0.406381 -0.26954,-0.887711 -0.31983,-1.346176 -0.0691,-0.629563 -0.1066,-1.270254 -0.0362,-1.899671 0.13138,-1.175187 0.68246,-2.277224 0.74532,-3.468341 -0.0353,-0.965364 -1.40056,-0.9154 -1.36523,0.04996 z" />
      <path
         style="fill:#373b41;fill-opacity:1;fill-rule:evenodd;stroke:none;stroke-width:0.264583"
         id="path6989"
         d="m 233.10273,69.982791 c 0.10374,-0.232344 0.15367,-0.497218 0.31121,-0.697029 0.23436,-0.297233 0.54987,-0.521052 0.84045,-0.763606 0.46155,-0.385265 0.91189,-0.789228 1.41472,-1.118807 1.12501,-0.737377 2.09502,-1.074869 3.26659,-1.685462 0.37737,-0.19667 0.73788,-0.424108 1.10681,-0.636164 1.11257,-0.955259 0.54283,-0.366239 1.27549,-1.29663 0.11147,-0.141555 0.46247,-0.282742 0.34308,-0.417684 -1.14689,-1.296361 -1.39288,-1.121617 -2.08889,-0.327446 -0.26889,0.348025 -0.75738,0.8934 -0.25938,1.392304 0.3842,0.38491 1.05004,0.339502 1.59381,0.34885 1.21566,0.0209 2.42252,-0.269838 3.63831,-0.258905 2.09864,0.01886 4.19136,0.226123 6.28654,0.348138 2.99176,0.174228 5.98282,0.360392 8.97423,0.540586 5.03348,0.608666 9.10156,0.944592 13.95129,2.01049 0.67207,0.147714 1.30246,0.444555 1.95371,0.666834 0.30903,0.06864 0.40608,-0.3684 0.0971,-0.437036 v 0 c -0.68305,-0.07999 -1.36927,-0.136657 -2.0492,-0.239977 -9.91004,-1.505886 -1.61716,-0.606345 -13.98468,-1.605891 -2.98011,-0.324144 -5.95401,-0.711425 -8.94031,-0.972434 -2.09042,-0.182705 -4.20348,-0.09257 -6.28498,-0.358282 -1.13964,-0.145479 -2.21645,-0.608034 -3.33514,-0.869749 -0.54435,-0.12735 -0.61628,1.151149 -0.28944,0.663826 0.0743,-0.04822 0.1485,-0.09644 0.22275,-0.144666 -0.0217,0.01241 -0.0459,0.05327 -0.065,0.03723 -0.41172,-0.345249 -0.83211,-0.686797 -1.18884,-1.088612 -0.0412,-0.04642 0.17414,-0.109508 0.18001,-0.04771 0.0175,0.183817 -0.0399,0.378415 -0.13347,0.537618 -0.14605,0.248597 -0.37764,0.4358 -0.56646,0.653698 -0.24716,0.32259 -0.43406,0.701982 -0.74148,0.967772 -0.42227,0.365082 -0.9238,0.630314 -1.41456,0.896305 -1.16168,0.629626 -2.42847,1.051523 -3.58803,1.685023 -0.94628,0.516982 -1.17183,0.775374 -1.90883,1.425858 -0.55972,0.977656 0.82289,1.769213 1.38261,0.791559 z" />
      <path
         style="fill:#373b41;fill-opacity:1;fill-rule:evenodd;stroke:none;stroke-width:0.264583"
         id="path6991"
         d="m 260.48621,65.193428 c 0.12872,-0.423371 0.15564,-0.892395 0.38616,-1.270109 0.22479,-0.36831 0.63399,-0.58606 0.93524,-0.894974 0.26469,-0.271425 0.51184,-0.559517 0.76146,-0.844862 0.2002,-0.228849 0.41535,-0.447109 0.58783,-0.697511 0.17997,-0.261273 0.30288,-0.557736 0.46475,-0.830593 0.15758,-0.265623 0.32885,-0.522883 0.49328,-0.784323 0.29462,-0.641143 0.29879,-0.907163 0.88821,-1.301549 0.10936,-0.07317 0.50959,-0.131169 0.38119,-0.102481 -0.39309,0.08782 -0.77362,0.252802 -1.17548,0.279929 -0.0733,0.0049 -0.1429,-0.256831 -0.10573,-0.193439 0.15674,0.267364 0.30966,0.53694 0.46449,0.80541 0.80762,0.587153 1.12898,0.997799 2.26949,0.964507 0.82508,-0.02408 3.57407,-1.060553 4.07665,-1.214027 5.72016,-1.746803 -0.11189,0.261884 5.48764,-1.737072 2.04759,-0.941856 2.90492,-1.161124 4.6473,-2.706772 1.40693,-1.24804 2.69923,-3.022299 3.61117,-4.652534 0.0905,-0.161721 2.1835,-4.61913 2.41374,-5.10875 -0.15282,0.08389 1.02182,-1.800412 1.66132,-1.441714 0.14026,0.07867 -0.11666,0.299733 -0.17497,0.449598 1.15951,0.298114 1.58112,-1.341715 0.42159,-1.639829 v 0 c -0.39513,0.05934 -0.84569,-0.03235 -1.18536,0.178014 -0.52396,0.324464 -0.72065,2.215314 -0.76317,2.436191 -1.03169,2.393733 -1.06129,2.64169 -2.47314,5.061122 -0.49858,0.854424 -0.98888,1.720509 -1.5921,2.504562 -1.0305,1.339379 -2.74336,2.974782 -4.20055,3.859942 -0.73864,0.448676 -1.57684,0.707888 -2.36527,1.061829 -0.37285,0.117734 -5.12654,1.630847 -5.49653,1.698805 -0.80304,0.147494 -1.6301,0.106889 -2.44645,0.120356 -0.2572,0.0042 -1.69074,-0.0097 -2.12521,-0.206655 -0.17603,-0.07979 -0.28689,-0.259054 -0.43034,-0.388583 -0.11076,-0.341387 -0.40566,-1.334101 -0.63328,-1.440807 -0.36402,-0.170662 -0.82527,0.0065 -1.19477,0.164951 -0.14371,0.06163 -0.11904,0.289579 -0.19007,0.428887 -0.44147,0.865826 -0.32673,0.631476 -1.01236,1.420509 -0.62012,1.315698 -0.13406,0.332126 -0.78525,1.536768 -0.13552,0.250712 -0.24319,0.517398 -0.39777,0.756828 -0.20999,0.325234 -0.46413,0.619757 -0.69274,0.93218 -1.12512,1.537613 -0.41223,0.698947 -1.77179,2.117254 -0.48008,0.891532 0.78073,1.570471 1.26082,0.678942 z" />
      <path
         style="fill:#373b41;fill-opacity:1;fill-rule:evenodd;stroke:none;stroke-width:0.264583"
         id="path6993"
         d="m 265.50268,67.872461 c 0.14176,1.415992 0.0877,1.997009 0.71472,3.348135 0.30226,0.651272 0.75062,1.224378 1.10976,1.846083 0.33155,0.57391 0.64874,1.156099 0.962,1.740172 0.7932,1.478775 0.74454,0.837594 0.50885,2.084719 -0.22849,-0.741246 -0.31282,-0.474597 0.72292,-0.957559 0.0238,-0.01111 0.0345,0.04154 0.0419,0.06674 0.076,0.257026 0.1225,0.522689 0.20762,0.776845 0.007,0.02082 0.0392,0.0281 0.061,0.0249 0.59163,-0.08732 1.17983,-0.196721 1.76974,-0.29508 0.90141,-0.02339 1.80282,-0.09321 2.70423,-0.07013 1.11524,0.02854 2.22472,0.176662 3.3393,0.224808 2.31286,0.09991 5.9318,0.188365 8.26712,-0.04311 1.03196,-0.102288 2.09267,-0.184409 3.0611,-0.555244 0.89929,-0.34435 1.6251,-1.033544 2.43766,-1.550318 0.5266,-0.569629 1.0532,-1.139258 1.5798,-1.708888 0.0447,-0.05147 -0.0281,-0.114689 -0.0728,-0.06322 v 0 c -0.50268,0.59013 -1.00536,1.180259 -1.50804,1.770388 -0.81529,0.501147 -1.55115,1.163855 -2.44587,1.503445 -1.85422,0.703773 -5.26544,0.717595 -7.06672,0.720529 -1.41703,0.0024 -2.83356,-0.06346 -4.24932,-0.12355 -3.48877,-0.148074 -2.8503,-0.130985 -6.03398,-0.569846 -0.63968,-0.18414 -1.25563,-0.497658 -1.91905,-0.552419 -0.49964,-0.04125 -1.12564,-0.08353 -1.47921,0.271897 -0.1675,0.168399 -0.22428,1.715257 0.42617,1.833131 1.7113,0.31011 1.43687,-0.110868 1.47706,-1.125514 -0.95835,-1.854443 0.25175,0.305867 -1.43007,-1.917046 -0.77139,-1.019583 -1.47048,-2.253885 -1.85153,-3.48003 -0.39844,-1.282158 -0.27043,-1.76893 -0.20944,-3.046847 0.10816,-0.795427 -1.01674,-0.948409 -1.12493,-0.152982 z" />
      <path
         style="fill:#373b41;fill-opacity:1;fill-rule:evenodd;stroke:none;stroke-width:0.264583"
         id="path6995"
         d="m 193.15234,69.112473 c 0.10055,0.584679 0.2877,1.160936 0.30164,1.754034 0.0195,0.829093 -0.31999,2.811206 -0.58592,3.654967 -0.0821,0.26052 -0.85825,1.306243 -0.36738,1.742496 0.31991,0.284313 0.81943,0.24747 1.22914,0.371205 0.20558,-0.01966 1.14,-0.124351 1.34168,-0.08092 0.35042,0.07546 0.66362,0.273534 1.00544,0.381468 0.55283,0.174559 1.10967,0.34053 1.67584,0.465167 0.79598,0.17522 1.60631,0.277974 2.40637,0.433469 0.99656,0.193686 1.98872,0.409329 2.98308,0.613995 4.78275,0.523576 2.48793,0.270492 6.88455,0.758396 0.009,0.0011 0.011,-0.0122 0.002,-0.01331 v 0 c -4.38981,-0.532331 -2.09879,-0.260543 -6.87344,-0.812115 -0.99449,-0.195508 -2.01787,-0.278529 -2.98346,-0.586525 -0.005,-0.0016 -3.35577,-1.639615 -3.68797,-1.817225 -0.39866,-0.213132 -0.74971,-0.519845 -1.17063,-0.684686 -0.53484,-0.209449 -1.1635,-0.06679 -1.70153,-0.272238 0.10337,0.14505 0.27563,0.260401 0.31011,0.435147 0.0159,0.08039 -0.1607,0.224756 -0.19463,0.150167 -0.3245,-0.713362 -0.12577,-2.0857 -0.0695,-2.695784 0.21293,-2.306719 0.15338,-1.717162 0.75806,-3.912917 -0.0815,-0.893123 -1.34453,-0.777918 -1.26307,0.115204 z" />
      <path
         style="fill:#373b41;fill-opacity:1;fill-rule:evenodd;stroke:none;stroke-width:0.264583"
         id="path6997"
         d="m 235.48657,87.937487 c 1.0323,1.398095 0.5129,0.627772 1.36874,2.034511 0.21736,0.357264 0.49871,0.682114 0.65502,1.069993 0.24908,0.618115 0.32208,1.524815 0.24384,2.192415 -0.0278,0.237429 -0.12524,0.461412 -0.18786,0.692118 0.14166,0.71506 0.0738,1.100077 1.12941,1.346512 0.28024,0.06542 0.52917,-0.230553 0.80576,-0.310015 0.23048,-0.06622 0.46882,-0.133741 0.70847,-0.125015 0.2903,0.01056 0.56584,0.13363 0.8523,0.181842 0.5399,0.09086 1.0837,0.156784 1.62555,0.235178 5.55862,0.336068 11.13461,0.899493 16.70473,0.36485 1.87079,-0.179565 3.71536,-0.569677 5.57304,-0.854514 0.0206,-0.0032 0.0161,-0.03241 -0.004,-0.02919 v 0 c -1.8565,0.285715 -3.69965,0.678534 -5.56949,0.857149 -3.15579,0.301451 -7.08002,0.232418 -10.27582,0.04606 -1.25486,-0.07318 -2.51919,-0.112048 -3.75588,-0.337021 -0.84549,-0.153807 -1.6355,-0.528344 -2.45325,-0.792517 -0.0111,-0.0047 -2.36826,-1.025186 -2.68514,-1.081971 -0.31735,-0.05687 -0.64395,0.04832 -0.9663,0.04217 -0.10735,-0.0021 -0.31783,-0.173966 -0.31515,-0.06663 0.005,0.211725 0.26895,0.341053 0.32711,0.544706 0.0201,0.07034 -0.13225,-0.06259 -0.19838,-0.09389 -0.0525,-0.241612 -0.11456,-0.481338 -0.15744,-0.724839 -0.0664,-0.376754 -0.0925,-0.760376 -0.17011,-1.134978 -0.17093,-0.825307 -0.4673,-1.956737 -0.90843,-2.687606 -0.19548,-0.323884 -0.56686,-0.519832 -0.75286,-0.849254 -0.19278,-0.341419 -0.23939,-0.746731 -0.35909,-1.120095 -0.42428,-0.872734 -1.65851,-0.272706 -1.23423,0.600027 z" />
      <path
         style="fill:#373b41;fill-opacity:1;fill-rule:evenodd;stroke:none;stroke-width:0.264583"
         id="path6999"
         d="m 237.17025,86.27515 c 0.1186,-0.116224 1.50209,-1.472658 1.51307,-1.48014 0.43333,-0.295225 2.74428,-1.254295 3.04715,-1.380218 3.13927,-1.305205 2.0966,-0.890762 5.30822,-1.990204 -1.12409,-2.60296 2.68564,0.442754 2.75066,-0.486063 0.16765,-2.394656 -0.7668,-1.374328 -1.65813,-1.312008 -1.81608,0.126974 0.5691,-0.463129 -1.16346,0.03452 0.417,0.564663 0.64781,1.334963 1.251,1.693989 0.35892,0.213641 0.81706,-0.226528 1.23458,-0.214521 0.52153,0.015 1.01709,0.254693 1.53734,0.294224 0.89872,0.06829 1.80839,-0.07498 2.7038,0.02804 1.38135,0.15893 7.73571,1.568034 8.65195,1.765223 6.27177,1.919759 3.4779,0.951579 8.41876,2.79491 -0.0212,-0.0084 -0.0331,0.02138 -0.0119,0.02983 v 0 c -4.90344,-1.951186 -2.1214,-0.946849 -8.39869,-2.863012 -1.6208,-0.345408 -3.23473,-0.724778 -4.8624,-1.036224 -1.26417,-0.241896 -2.56448,-0.301377 -3.81067,-0.623332 -0.87365,-0.225711 -1.65698,-0.720246 -2.51152,-1.010026 -0.51479,-0.174569 -1.06279,-0.231992 -1.58599,-0.37946 -0.41232,-0.116221 -0.89627,-0.693952 -1.21775,-0.410808 -0.38001,0.33469 -0.0267,1.012407 -0.04,1.51861 -0.14711,-0.01892 -0.4058,0.08726 -0.44132,-0.05674 -0.0339,-0.137568 0.24161,-0.161983 0.38067,-0.189137 0.15529,-0.03032 0.41652,0.169592 0.47412,0.02222 0.16871,-0.43156 0.0704,-0.925539 0.0601,-1.388785 -0.0185,-0.825593 -0.13433,6.262269 -1.78324,1.719747 -0.89208,0.30839 -1.7673,0.670737 -2.67623,0.925165 -0.92054,0.257673 -1.86966,0.399524 -2.80247,0.608426 -0.64858,0.145248 -1.31285,0.238424 -1.94157,0.453998 -0.49111,0.168392 -0.93208,0.457608 -1.39612,0.690438 -1.37972,0.692275 -0.90538,0.43429 -2.07945,1.145826 -0.77463,0.742177 0.27497,1.837672 1.0496,1.095491 z" />
      <path
         style="fill:#373b41;fill-opacity:1;fill-rule:evenodd;stroke:none;stroke-width:0.264583"
         id="path7001"
         d="m 238.78155,95.899911 c 0.21077,0.354544 0.4577,0.689956 0.63231,1.063638 0.86788,1.857311 -0.11503,0.62656 1.20603,2.505525 1.56059,2.219646 0.78014,0.859966 2.59155,2.867936 0.37129,0.41158 0.67854,0.8767 1.01781,1.31504 0.23176,0.22211 1.35589,1.32642 1.69278,1.55619 0.19324,0.13179 0.4074,0.26323 0.64002,0.28771 0.30863,0.0325 0.72787,0.11817 0.9228,-0.12331 0.2551,-0.31603 0.55766,-1.18002 0.15254,-1.20884 -0.55169,-0.0392 -0.80782,0.75567 -1.21174,1.1335 1.22915,0.50483 1.03928,0.58251 2.58768,0.39538 4.38923,-0.53047 -0.11858,-0.62945 6.01317,-0.73339 4.61479,-0.0782 7.67513,0.38789 12.43465,0.85164 3.8127,0.56537 8.85047,1.45952 12.83271,1.57298 0.80889,0.023 1.60899,-0.17437 2.41351,-0.26156 -0.003,1.2e-4 0,0.002 1.6e-4,0.002 v 0 c -0.80442,0.085 -1.60483,0.28349 -2.41322,0.25513 -3.97846,-0.13956 -9.01946,-1.08959 -12.82054,-1.69176 -2.41718,-0.20287 -4.83011,-0.46525 -7.25154,-0.60862 -1.72952,-0.1024 -3.46363,-0.10829 -5.19607,-0.12838 -1.27188,-0.0147 -2.5444,0.0606 -3.81584,0.0239 -1.39826,-0.0404 -2.02615,-0.0608 -3.179,-0.58743 -0.1302,-0.0595 -0.22798,-0.17317 -0.34197,-0.25975 -0.55417,0.22714 -1.07371,0.79106 -1.66251,0.68144 -0.31962,-0.0595 -0.0165,-0.73049 0.22401,-0.94925 0.17214,-0.15659 0.51736,-0.0386 0.68775,0.11989 0.10325,0.0961 -0.25514,0.17484 -0.39445,0.15294 -0.59284,-0.0932 -1.3517,-0.73567 -1.77401,-1.03544 -0.75091,-0.67584 -1.9033,-1.65562 -2.49989,-2.45144 -0.59038,-0.787533 -1.06094,-1.913568 -1.47374,-2.816102 -0.17492,-0.382441 -0.42012,-0.740161 -0.524,-1.147675 -0.10487,-0.411427 -0.0616,-0.846928 -0.0924,-1.270394 -0.34547,-0.988959 -1.74407,-0.50039 -1.3986,0.488572 z" />
      <path
         style="fill:#373b41;fill-opacity:1;fill-rule:evenodd;stroke:none;stroke-width:0.264583"
         id="path7007"
         d="m 224.07971,68.330206 c 0.62144,-0.868291 0.9911,-1.482032 1.82732,-2.203114 0.48522,-0.41842 1.03393,-0.757198 1.55965,-1.12345 1.05495,-0.734954 2.14822,-1.413875 3.20277,-2.149403 0.45259,-0.315675 0.89047,-0.651928 1.33571,-0.977892 0.13195,-0.16078 1.73946,-2.108822 1.90634,-2.351622 0.28461,-0.414108 0.46009,-0.899827 0.7668,-1.297845 0.58288,-0.756404 1.05433,-1.164796 1.97362,-1.359046 0.21137,-0.04466 0.43129,0.02606 0.64694,0.03911 0.0889,0.07572 0.18895,0.13997 0.26658,0.227166 0.0609,0.06843 0.0871,0.162343 0.14404,0.234071 0.35862,0.451358 0.72262,0.760733 1.38939,0.822788 0.82072,0.07639 1.64519,-0.142134 2.46937,-0.130352 1.16468,0.01664 2.32516,0.143669 3.48773,0.215503 8.76167,0.987573 -1.03888,-0.157348 8.98019,1.159801 1.79566,0.236064 3.5919,0.471768 5.39382,0.653947 1.77153,0.179107 3.54958,0.286462 5.32435,0.429694 0.0283,0.0024 0.0316,-0.03772 0.003,-0.04005 v 0 c -1.77384,-0.146693 -3.55071,-0.260525 -5.32153,-0.440082 -1.80156,-0.182676 -3.59812,-0.412864 -5.39379,-0.646432 -12.40193,-1.61316 1.72706,0.09314 -8.98124,-1.176965 -2.55718,-0.260263 -3.33414,-0.07321 -5.44867,-1.033846 -0.15437,-0.07014 -0.21995,-0.259125 -0.34393,-0.374804 -0.17447,-0.162798 -0.37162,-0.299783 -0.54951,-0.458843 -0.23462,-0.209777 -0.40621,-0.50596 -0.68747,-0.647189 -0.30063,-0.150961 -0.66011,-0.130143 -0.99016,-0.195215 -0.37234,0.09204 -0.78623,0.08199 -1.11702,0.276122 -0.36078,0.211735 -0.59328,0.590158 -0.87926,0.895456 -0.50991,0.544361 -1.54301,1.693674 -1.95728,2.308124 -0.24872,0.368903 -0.3892,0.803693 -0.63913,1.171771 -0.27707,0.408027 -0.62343,0.764424 -0.93514,1.146638 -0.38847,0.363741 -0.75502,0.752406 -1.16541,1.091224 -1.145,0.945311 -1.92478,1.367753 -3.17619,2.184034 -0.54975,0.358596 -1.08895,0.733277 -1.64103,1.088274 -2.17238,1.396889 -0.64352,0.295841 -2.51031,1.705565 -0.6766,0.748927 0.38254,1.705787 1.05914,0.956863 z" />
      <circle
         id="path7009"
         style="fill:#373b41;stroke:#000000;stroke-width:0.264583"
         cx="271.26636"
         cy="70.215469"
         r="0.017675551" />
      <path
         style="fill:#373b41;fill-opacity:1;fill-rule:evenodd;stroke:none;stroke-width:0.264583"
         id="path7013"
         d="m 230.77419,77.670818 c 0.38293,-0.170987 0.73834,-0.426892 1.14878,-0.512961 0.63673,-0.133522 1.29791,-0.09202 1.947,-0.136216 3.51137,-0.239064 1.97318,-0.255923 5.80594,0.08425 5.09001,0.451753 3.24319,0.254368 8.40284,1.03876 4.37082,0.782624 8.73881,1.507188 13.16389,1.905558 1.02042,0.09186 2.04891,0.08779 3.06688,0.203697 2.0399,0.400905 1.16389,0.297514 2.61352,0.415097 0.0161,-0.51521 0.0324,-1.030422 0.0485,-1.545632 -0.83325,-0.960049 -2.19096,0.218374 -1.3577,1.178422 v 0 c 0.22357,-0.315674 0.44714,-0.631348 0.67071,-0.947023 -0.0712,0.161272 -0.0515,0.414658 -0.21373,0.483817 -1.4619,0.623409 -3.38575,0.286798 -4.82298,0.163121 -1.32891,-0.114355 -2.65738,-0.241162 -3.98014,-0.412596 -2.80486,-0.363517 -6.40804,-1.015595 -9.18143,-1.493631 -3.14448,-0.482492 -5.24401,-0.868331 -8.40437,-1.10712 -1.05773,-0.07992 -2.12232,-0.02974 -3.1806,-0.102084 -0.87966,-0.06013 -1.75341,-0.188217 -2.62863,-0.295 -1.70123,-0.207566 -1.84901,-0.245523 -3.36814,-0.495353 -1.11362,0.190669 -0.84398,1.765564 0.26964,1.574898 z" />
      <path
         style="fill:#373b41;fill-opacity:1;fill-rule:evenodd;stroke:none;stroke-width:0.264583"
         id="path7015"
         d="m 213.49868,49.39652 c -1.05409,0.838501 -2.61177,2.113214 -3.69409,2.791026 -0.85889,0.537884 -1.78234,0.965054 -2.67075,1.452626 -0.98704,0.541702 -1.96617,1.097817 -2.95558,1.635178 -2.21441,1.202668 -2.54708,1.355537 -4.63362,2.414799 -4.16837,2.433714 0.42545,-0.326393 -2.89071,1.867966 -0.22277,0.147407 -0.47014,0.253738 -0.70521,0.380606 -0.59726,0.878832 0.6456,1.723482 1.24285,0.84465 v 0 c 10e-4,-0.207078 -0.10336,-0.443933 0.004,-0.621241 0.37413,-0.62002 2.05389,-1.894139 2.4796,-2.241778 0.63233,-0.418552 1.24044,-0.876218 1.89698,-1.255651 0.85253,-0.492705 1.75611,-0.891644 2.62384,-1.357059 0.99239,-0.532278 1.96632,-1.098396 2.95599,-1.635733 1.25254,-0.680064 3.69112,-2.022605 5.1011,-2.519149 0.57838,-0.203686 1.19829,-0.261133 1.79743,-0.391699 0.96488,-0.389941 0.41342,-1.754482 -0.55146,-1.364541 z" />
      <path
         style="fill:#373b41;fill-opacity:1;fill-rule:evenodd;stroke:none;stroke-width:0.264583"
         id="path7021"
         d="m 234.71369,49.430654 c -0.63322,-0.07744 -1.19776,-0.434698 -1.84764,-0.417272 -0.3432,0.0092 -0.68218,0.0786 -1.02227,0.125598 -0.56307,0.07782 -1.12221,0.184843 -1.68702,0.248838 -0.69296,0.07851 -1.38971,0.118991 -2.08457,0.178488 -0.28088,0.01513 -4.11736,0.224779 -4.35321,0.224821 -0.65984,1.19e-4 -1.31684,-0.0941 -1.97651,-0.109111 -0.65862,-0.015 -1.31749,0.02008 -1.97628,0.01916 -2.81968,-0.0039 -0.76569,-0.07889 -3.30605,0.05509 -1.34253,-0.04266 -0.74868,-0.03912 -1.78136,-0.02967 -0.93709,0.0416 -0.87827,1.366849 0.0588,1.325251 v 0 c 1.08636,-0.32325 0.48363,-0.151985 1.81116,-0.503211 1.11881,-0.20115 2.07615,-0.407792 3.22675,-0.456486 0.65388,-0.02767 1.30879,0.05134 1.96307,0.03575 0.66111,-0.01574 1.31872,-0.107633 1.97965,-0.129662 1.33799,-0.0446 3.01977,0.005 4.36162,0.03088 3.12558,0.140952 1.01764,-0.06149 3.74502,0.430102 0.27308,0.04922 0.54917,0.08069 0.8249,0.111712 0.23603,0.02656 0.74498,0.02342 0.95198,0.117925 0.20209,0.09227 0.35728,0.264136 0.53592,0.396203 1.16984,0.407305 1.74585,-1.247093 0.57601,-1.654397 z" />
      <path
         style="fill:#373b41;fill-opacity:1;fill-rule:evenodd;stroke:none;stroke-width:0.264583"
         id="path7023"
         d="m 201.96416,60.874925 c 0.66972,1.273919 0.59321,1.172136 1.34324,2.41975 0.22072,0.367143 0.38933,0.774975 0.67708,1.092316 0.0115,0.01267 1.47646,1.118193 1.67403,1.210627 0.19335,0.09046 0.41719,0.09065 0.62579,0.135983 0.23248,-0.513511 0.65445,-0.978493 0.69745,-1.540539 0.0176,-0.230068 -0.34802,-0.307462 -0.54715,-0.424029 -0.21408,-0.125315 -3.27197,-0.205425 0.0782,1.397317 0.37616,0.179957 0.56221,-0.637529 0.92634,-0.840729 0.7372,-0.41139 1.55704,-0.653037 2.33556,-0.979556 2.31035,-0.328705 4.86777,-0.742067 7.19482,-0.859417 1.18873,-0.05994 2.38051,-0.0063 3.5707,0.0036 2.02084,0.01677 4.04132,0.06309 6.06201,0.09315 -0.0113,-5.29e-4 -0.0122,0.01524 -0.001,0.0159 v 0 c -0.85077,-0.0493 -1.70045,-0.123899 -2.55231,-0.147902 -1.16959,-0.03295 -2.34008,-0.03329 -3.51009,-0.02291 -1.18928,0.01056 -2.37965,0.01622 -3.56695,0.08568 -3.39741,0.198749 -3.92335,0.366384 -7.18266,0.897061 -0.85852,0.0472 -1.71581,0.131099 -2.57556,0.14159 -0.5646,0.0069 -1.27735,-0.473261 -1.69155,-0.08953 -0.46382,0.429699 -0.16162,1.254167 -0.24243,1.881251 0.0485,-0.03759 0.15058,-0.05161 0.14554,-0.112776 -0.005,-0.06118 -0.19074,-0.03327 -0.16202,-0.08753 0.22681,-0.428566 0.55849,-0.79281 0.83774,-1.189217 0.0444,0.06467 0.20942,0.175355 0.13322,0.194008 -0.29652,0.07258 -1.34973,-0.403442 -1.42858,-0.461407 -0.57546,-0.423087 -1.05298,-1.318789 -1.29282,-1.946772 -0.15229,-0.398759 -0.22035,-0.82477 -0.33053,-1.237152 -0.26252,-0.861338 -1.48063,-0.49008 -1.21811,0.371258 z" />
    </g>
  </g>
</svg>
