<?xml version="1.0" encoding="UTF-8" standalone="no"?>
<!-- Created with Inkscape (http://www.inkscape.org/) -->

<svg
   width="207.83406mm"
   height="324.50131mm"
   viewBox="0 0 207.83406 324.50131"
   version="1.1"
   id="svg1577"
   inkscape:version="1.1.1 (3bf5ae0d25, 2021-09-20)"
   sodipodi:docname="cave-relief-1.svg"
   xmlns:inkscape="http://www.inkscape.org/namespaces/inkscape"
   xmlns:sodipodi="http://sodipodi.sourceforge.net/DTD/sodipodi-0.dtd"
   xmlns="http://www.w3.org/2000/svg"
   xmlns:svg="http://www.w3.org/2000/svg">
  <sodipodi:namedview
     id="namedview1579"
     pagecolor="#969896"
     bordercolor="#eeeeee"
     borderopacity="1"
     inkscape:pageshadow="0"
     inkscape:pageopacity="0"
     inkscape:pagecheckerboard="0"
     inkscape:document-units="mm"
     showgrid="false"
     inkscape:zoom="0.97027087"
     inkscape:cx="342.68781"
     inkscape:cy="613.23082"
     inkscape:window-width="2550"
     inkscape:window-height="1405"
     inkscape:window-x="4"
     inkscape:window-y="4"
     inkscape:window-maximized="0"
     inkscape:current-layer="layer1"
     fit-margin-top="0"
     fit-margin-left="0"
     fit-margin-right="0"
     fit-margin-bottom="0" />
  <defs
     id="defs1574">
    <inkscape:path-effect
       effect="bspline"
       id="path-effect6002"
       is_visible="true"
       lpeversion="1"
       weight="33.333333"
       steps="2"
       helper_size="0"
       apply_no_weight="true"
       apply_with_weight="true"
       only_selected="false" />
    <inkscape:path-effect
       effect="bspline"
       id="path-effect5955"
       is_visible="true"
       lpeversion="1"
       weight="33.333333"
       steps="2"
       helper_size="0"
       apply_no_weight="true"
       apply_with_weight="true"
       only_selected="false" />
    <inkscape:path-effect
       effect="bspline"
       id="path-effect5781"
       is_visible="true"
       lpeversion="1"
       weight="33.333333"
       steps="2"
       helper_size="0"
       apply_no_weight="true"
       apply_with_weight="true"
       only_selected="false" />
    <inkscape:path-effect
       effect="bspline"
       id="path-effect3665"
       is_visible="true"
       lpeversion="1"
       weight="33.333333"
       steps="2"
       helper_size="0"
       apply_no_weight="true"
       apply_with_weight="true"
       only_selected="false" />
    <inkscape:path-effect
       effect="bspline"
       id="path-effect3661"
       is_visible="true"
       lpeversion="1"
       weight="33.333333"
       steps="2"
       helper_size="0"
       apply_no_weight="true"
       apply_with_weight="true"
       only_selected="false" />
    <inkscape:path-effect
       effect="bspline"
       id="path-effect3657"
       is_visible="true"
       lpeversion="1"
       weight="33.333333"
       steps="2"
       helper_size="0"
       apply_no_weight="true"
       apply_with_weight="true"
       only_selected="false" />
    <inkscape:path-effect
       effect="bspline"
       id="path-effect3653"
       is_visible="true"
       lpeversion="1"
       weight="33.333333"
       steps="2"
       helper_size="0"
       apply_no_weight="true"
       apply_with_weight="true"
       only_selected="false" />
    <inkscape:path-effect
       effect="bspline"
       id="path-effect3649"
       is_visible="true"
       lpeversion="1"
       weight="33.333333"
       steps="2"
       helper_size="0"
       apply_no_weight="true"
       apply_with_weight="true"
       only_selected="false" />
    <inkscape:path-effect
       effect="bspline"
       id="path-effect2699"
       is_visible="true"
       lpeversion="1"
       weight="33.333333"
       steps="2"
       helper_size="0"
       apply_no_weight="true"
       apply_with_weight="true"
       only_selected="false" />
    <inkscape:path-effect
       effect="bspline"
       id="path-effect2652"
       is_visible="true"
       lpeversion="1"
       weight="33.333333"
       steps="2"
       helper_size="0"
       apply_no_weight="true"
       apply_with_weight="true"
       only_selected="false" />
    <inkscape:path-effect
       effect="bspline"
       id="path-effect2113"
       is_visible="true"
       lpeversion="1"
       weight="33.333333"
       steps="2"
       helper_size="0"
       apply_no_weight="true"
       apply_with_weight="true"
       only_selected="false" />
    <inkscape:path-effect
       effect="bspline"
       id="path-effect2039"
       is_visible="true"
       lpeversion="1"
       weight="33.333333"
       steps="2"
       helper_size="0"
       apply_no_weight="true"
       apply_with_weight="true"
       only_selected="false" />
    <inkscape:path-effect
       effect="bspline"
       id="path-effect1992"
       is_visible="true"
       lpeversion="1"
       weight="33.333333"
       steps="2"
       helper_size="0"
       apply_no_weight="true"
       apply_with_weight="true"
       only_selected="false" />
    <inkscape:path-effect
       effect="bspline"
       id="path-effect1673"
       is_visible="true"
       lpeversion="1"
       weight="33.333333"
       steps="2"
       helper_size="0"
       apply_no_weight="true"
       apply_with_weight="true"
       only_selected="false" />
  </defs>
  <g
     inkscape:label="Layer 1"
     inkscape:groupmode="layer"
     id="layer1"
     transform="translate(25.4401,35.558147)">
    <path
       style="fill:#282a2e;stroke:none;stroke-width:0.39478px;stroke-linecap:butt;stroke-linejoin:miter;stroke-opacity:1"
       d="m 69.962475,133.66164 c 4.20563,-10.23719 12.571276,-10.23719 20.668085,-10.23719 8.096809,0 15.92447,0 19.83825,10.71641 3.91377,10.71641 3.91377,32.14778 3.91377,59.73468 0,27.58691 0,61.32613 -4.20545,78.19687 -4.20546,16.87075 -12.616135,16.87075 -20.735704,16.87075 -8.119569,0 -15.947188,0 -19.861234,-17.34947 -3.914046,-17.34947 -3.914046,-52.04787 -3.891371,-79.63465 0.02267,-27.58678 0.06802,-48.0602 4.273654,-58.2974 z"
       id="path1671"
       inkscape:path-effect="#path-effect1673"
       inkscape:original-d="m 65.802196,123.42445 c 8.365909,5.7e-4 16.731555,5.7e-4 25.096934,0 7.828239,6e-4 15.6559,6e-4 23.48345,0 2.6e-4,21.43282 2.6e-4,42.86419 0,64.29542 2.6e-4,33.74258 2.6e-4,67.4818 0,101.22329 -8.41091,2.7e-4 -16.821585,2.7e-4 -25.233028,0 -7.827695,2.7e-4 -15.655314,2.7e-4 -23.483406,0 2.65e-4,-34.69894 2.65e-4,-69.39734 0,-104.09729 0.04561,-20.47361 0.09096,-40.94703 0.13605,-61.42142 z"
       sodipodi:nodetypes="ccccccccc" />
    <path
       style="fill:#e0e0e0;stroke:none;stroke-width:0.371648px;stroke-linecap:butt;stroke-linejoin:miter;stroke-opacity:1"
       d="m 69.272405,136.47884 c 3.9592,-9.63734 11.83466,-9.63734 19.457032,-9.63734 7.622372,0 14.991383,0 18.675823,10.08847 3.68445,10.08847 3.68445,30.26407 3.68445,56.64734 0,26.38327 0,58.97101 -3.95904,75.26607 -3.95904,16.29506 -11.876851,16.29506 -19.52067,16.29506 -7.643818,0 -15.012761,0 -18.69747,-16.74568 -3.68471,-16.74567 -3.68471,-50.23652 -3.663364,-76.61967 0.02135,-26.38314 0.06404,-45.65691 4.023239,-55.29425 z"
       id="path1671-3"
       inkscape:path-effect="#path-effect1992"
       inkscape:original-d="m 65.355898,126.8415 c 7.875707,5.4e-4 15.751167,5.4e-4 23.626375,0 7.369536,5.6e-4 14.738547,5.6e-4 22.107437,0 2.4e-4,20.17694 2.4e-4,40.35254 0,60.52799 2.6e-4,32.59109 2.6e-4,65.17883 0,97.76895 -7.91808,2.7e-4 -15.835891,2.7e-4 -23.754498,0 -7.36903,2.7e-4 -14.737973,2.7e-4 -22.107392,0 2.65e-4,-33.49135 2.65e-4,-66.9822 0,-100.47454 0.04294,-19.27395 0.08563,-38.54772 0.128078,-57.8224 z"
       sodipodi:nodetypes="ccccccccc" />
    <path
       style="fill:#969896;stroke:none;stroke-width:0.352229px;stroke-linecap:butt;stroke-linejoin:miter;stroke-opacity:1"
       d="m 72.125862,139.20027 c 3.752335,-9.1338 11.21631,-9.1338 18.440423,-9.1338 7.224114,0 14.208085,0 17.700015,9.56137 3.49194,9.56137 3.49194,28.68281 3.49194,54.05567 0,25.37286 0,56.99411 -3.75217,72.80586 -3.75218,15.81176 -11.256273,15.81176 -18.500724,15.81176 -7.244452,0 -14.228341,0 -17.720541,-16.23886 -3.492201,-16.23885 -3.492201,-48.71598 -3.47197,-74.08872 0.02023,-25.37273 0.06069,-43.63947 3.813027,-52.77328 z"
       id="path1671-6"
       inkscape:path-effect="#path-effect2039"
       inkscape:original-d="m 68.413989,130.06647 c 7.464208,5.4e-4 14.928183,5.4e-4 22.391917,0 6.984493,5.6e-4 13.968464,5.6e-4 20.952334,0 2.4e-4,19.12274 2.4e-4,38.24418 0,57.36547 2.6e-4,31.62443 2.6e-4,63.24568 0,94.86919 -7.50435,2.7e-4 -15.008443,2.7e-4 -22.513339,0 -6.984007,2.7e-4 -13.967896,2.7e-4 -20.952297,0 2.65e-4,-32.47771 2.65e-4,-64.95484 0,-97.43342 0.04068,-18.26689 0.08119,-36.53363 0.121385,-54.80124 z"
       sodipodi:nodetypes="ccccccccc" />
    <path
       style="fill:#282a2e;stroke:none;stroke-width:0.282547px;stroke-linecap:butt;stroke-linejoin:miter;stroke-opacity:1"
       d="m 87.725568,118.99283 c -1.856804,0.0208 -5.570689,0.0625 -9.267591,1.31428 -3.696901,1.25181 -7.376522,3.71374 -11.056152,6.17568 7.599023,-7.86488 15.198038,-15.72975 18.807397,-26.750509 3.60936,-11.020757 3.229047,-25.19739 2.848735,-39.37402 0.835634,0.06963 1.584322,0.132009 1.794182,7.960375 0.20986,7.828365 -0.262664,22.468327 2.453119,31.987134 2.715783,9.51881 10.467162,18.75371 17.253932,26.83937 -4.12001,-2.69939 -8.23969,-5.39856 -11.735873,-6.76086 -3.496187,-1.3623 -6.368395,-1.3873 -7.804671,-1.3998 -1.436275,-0.0125 -1.436275,-0.0125 -3.293078,0.008 z"
       id="path2111"
       inkscape:path-effect="#path-effect2113"
       inkscape:original-d="m 89.582371,118.972 c -3.713603,0.042 -7.427489,0.0836 -11.141657,0.12497 -3.679421,2.46227 -11.038889,7.38582 -11.038889,7.38582 0,0 15.198329,-15.72947 22.797069,-23.59464 -0.380055,-14.176633 -1.140937,-42.529889 -1.140937,-42.529889 0,0 1.584302,0.13225 2.506902,0.20888 -0.502587,15.579869 -0.975111,30.219831 -1.365965,42.321009 5.822171,6.93641 20.360296,24.25699 20.360296,24.25699 0,0 -8.23973,-5.39849 -12.360023,-8.09816 -2.872039,-0.0248 -5.744248,-0.0497 -8.616796,-0.075 z"
       sodipodi:nodetypes="sccccccccss" />
    <path
       style="fill:#e0e0e0;stroke:none;stroke-width:0.262061px;stroke-linecap:butt;stroke-linejoin:miter;stroke-opacity:1"
       d="m 86.227628,116.92476 c -1.655692,0.0201 -4.967324,0.0603 -8.263821,1.26795 -3.296496,1.20766 -6.577553,3.58277 -9.858639,5.95789 6.775966,-7.58753 13.551905,-15.17503 16.770341,-25.807161 3.218437,-10.632131 2.879316,-24.308829 2.540196,-37.985529 0.745126,0.06717 1.412725,0.127354 1.599854,7.679657 0.187128,7.552304 -0.234216,21.675998 2.187418,30.859129 2.421634,9.183134 9.333463,18.092364 15.385153,25.892894 -3.67377,-2.60419 -7.347239,-5.20817 -10.464756,-6.52244 -3.117516,-1.31427 -5.678633,-1.3384 -6.959344,-1.35047 -1.280711,-0.0121 -1.280711,-0.012 -2.936402,0.008 z"
       id="path2111-7"
       inkscape:path-effect="#path-effect2652"
       inkscape:original-d="m 87.883319,116.90467 c -3.311379,0.0405 -6.623011,0.0807 -9.934894,0.12056 -3.2809,2.37544 -9.843257,7.12537 -9.843257,7.12537 0,0 13.552184,-15.17478 20.327898,-22.76259 -0.338891,-13.676708 -1.017361,-41.0301 -1.017361,-41.0301 0,0 1.412704,0.127586 2.235377,0.201514 -0.448152,15.030454 -0.869496,29.154148 -1.218016,40.828586 5.191567,6.6918 18.155064,23.40158 18.155064,23.40158 0,0 -7.347278,-5.20812 -11.021308,-7.81258 -2.560966,-0.0239 -5.122083,-0.048 -7.683503,-0.0724 z"
       sodipodi:nodetypes="sccccccccss" />
    <path
       id="path2111-7-5"
       style="fill:#969896;stroke:none;stroke-width:0.262061px;stroke-linecap:butt;stroke-linejoin:miter;stroke-opacity:1"
       sodipodi:type="inkscape:offset"
       inkscape:radius="-0.43096131"
       inkscape:original="M 88.568359 59.378906 C 88.907483 73.055605 89.247733 86.731151 86.029297 97.363281 C 82.81086 107.99541 76.03378 115.58435 69.257812 123.17188 C 72.538898 120.79675 75.820691 118.42056 79.117188 117.21289 C 82.413684 116.00522 85.725167 115.9654 87.380859 115.94531 C 89.036551 115.92522 89.035695 115.92543 90.316406 115.9375 C 91.597117 115.94957 94.159828 115.97284 97.277344 117.28711 C 100.39486 118.60138 104.06646 121.20635 107.74023 123.81055 C 101.68855 116.01002 94.777103 107.1011 92.355469 97.917969 C 89.933835 88.734842 90.355097 74.610895 90.167969 67.058594 C 89.98084 59.506292 89.313486 59.446078 88.568359 59.378906 z "
       d="m 89.017578,60.236328 c 0.330949,13.386256 0.605404,26.741591 -2.576172,37.251953 -2.8767,9.503199 -8.578754,16.564089 -14.544922,23.326169 2.333823,-1.61945 4.679648,-3.12932 7.072266,-4.00586 3.381156,-1.23868 6.750621,-1.27483 8.40625,-1.29492 1.655727,-0.0201 1.66465,-0.0199 2.945312,-0.008 1.280514,0.0121 3.931261,0.0384 7.125,1.38476 2.538375,1.07012 5.401948,2.99598 8.306638,5.02735 -5.61986,-7.28408 -11.575622,-15.40812 -13.812497,-23.890626 -2.452557,-9.300393 -2.016723,-23.435996 -2.203125,-30.958985 -0.09325,-3.763497 -0.315325,-5.657904 -0.572266,-6.535156 -0.05873,-0.200531 -0.09383,-0.19707 -0.146484,-0.296875 z"
       transform="translate(-0.76975761,0.63194536)" />
    <path
       style="fill:#282a2e;stroke:none;stroke-width:0.600071px;stroke-linecap:butt;stroke-linejoin:miter;stroke-opacity:1"
       d="m 98.843589,73.583869 c 6.392671,-9.907882 19.107901,-9.907882 31.415421,-9.907882 12.30752,0 24.20506,0 30.15435,15.727025 5.94929,15.727026 5.94929,47.178938 5.94929,84.513418 0,37.33448 0,80.54758 -4.90088,102.15526 -4.90088,21.60768 -14.70261,21.60768 -14.6385,-15.6402 0.0641,-37.24788 9.99432,-111.74129 2.55365,-139.16805 -7.44068,-27.426756 -32.2516,-7.78498 -44.62327,-7.87119 -12.371663,-0.0862 -12.302733,-19.9005 -5.910061,-29.808381 z"
       id="path1671-35"
       inkscape:path-effect="#path-effect3649"
       inkscape:original-d="m 92.519852,63.675987 c 12.716408,2.64e-4 25.431638,2.64e-4 38.147658,0 11.89902,2.64e-4 23.79656,2.64e-4 35.69514,0 2.6e-4,31.454051 2.6e-4,62.905963 0,94.357663 2.6e-4,43.21726 2.6e-4,86.43036 0,129.64572 -9.80176,2.7e-4 -19.60349,2.7e-4 -29.40581,0 9.93083,-74.49572 19.86105,-148.98913 29.79133,-223.485263 -24.8117,19.642869 -49.62262,39.284643 -74.435116,58.927193 0.0692,-19.81526 0.138129,-39.629549 0.206798,-59.445313 z"
       sodipodi:nodetypes="ccccccccc" />
    <path
       style="fill:#e0e0e0;stroke:none;stroke-width:0.56491px;stroke-linecap:butt;stroke-linejoin:miter;stroke-opacity:1"
       d="m 102.18649,75.524146 c 5.68591,-8.897191 16.15083,-8.27433 26.98445,-8.123983 10.83362,0.150348 22.03406,-0.17181 27.63475,13.96351 5.60068,14.13532 5.60068,42.726227 5.60068,77.755067 0,35.02883 0,76.49167 -4.87686,97.22429 -4.87686,20.73263 -14.63052,20.73263 -14.93989,-14.45367 -0.30937,-35.1863 8.82587,-105.55698 2.41651,-131.52763 -6.40936,-25.970656 -28.36274,-7.53963 -38.88707,-7.53204 -10.524339,0.008 -9.618487,-18.408354 -3.93257,-27.305544 z"
       id="path1671-3-6"
       inkscape:path-effect="#path-effect3653"
       inkscape:original-d="m 97.406492,66.004036 c 10.465898,0.623167 20.930818,1.246027 31.396288,1.868672 11.20179,-0.321925 22.40223,-0.644083 33.60359,-0.96654 2.6e-4,28.592825 2.6e-4,57.183732 0,85.774412 2.6e-4,41.46699 2.6e-4,82.92983 0,124.39508 -9.75372,2.7e-4 -19.50738,2.7e-4 -29.26161,0 C 142.28055,206.7031 151.41579,136.33242 160.55105,65.959293 138.59701,84.39136 116.64363,102.82238 94.688825,121.25412 95.594998,102.8373 96.50085,84.42135 97.406492,66.004036 Z"
       sodipodi:nodetypes="ccccccccc" />
    <path
       style="fill:#969896;stroke:none;stroke-width:0.535393px;stroke-linecap:butt;stroke-linejoin:miter;stroke-opacity:1"
       d="m 102.5443,77.643837 c 5.2912,-7.244086 16.63653,-7.244086 27.61728,-7.244086 10.98075,0 21.59647,0 26.90425,14.533404 5.30779,14.533405 5.30779,43.598235 5.30779,78.129365 0,34.53114 0,74.52491 -4.23021,94.52289 -4.23022,19.99799 -12.69064,19.99799 -12.69079,-14.53289 -1.4e-4,-34.53088 8.4603,-103.59074 2.09158,-130.8779 C 141.17549,84.887449 119.97811,99.374637 108.99723,99.374795 98.016343,99.374952 97.253105,84.887923 102.5443,77.643837 Z"
       id="path1671-6-2"
       inkscape:path-effect="#path-effect3657"
       inkscape:original-d="m 96.489806,70.399751 c 11.345694,8.21e-4 22.691024,8.21e-4 34.035994,0 10.61653,8.52e-4 21.23225,8.52e-4 31.84782,0 3.6e-4,29.066809 3.6e-4,58.131639 0,87.196249 2.6e-4,39.99766 2.6e-4,79.99143 0,119.9874 -8.46043,2.7e-4 -16.92085,2.7e-4 -25.38181,0 8.46096,-69.06172 16.9214,-138.12158 25.38181,-207.183649 C 141.1757,84.887752 119.97832,99.374939 98.779614,113.86259 98.016593,99.374939 97.253355,84.88791 96.489806,70.399751 Z"
       sodipodi:nodetypes="ccccccccc" />
    <path
       style="fill:#282a2e;stroke:none;stroke-width:0.429475px;stroke-linecap:butt;stroke-linejoin:miter;stroke-opacity:1"
       d="m 125.84365,53.567673 c -2.82236,0.03166 -8.46751,0.09498 -14.08685,1.997732 -5.61933,1.902756 -11.2124,5.644927 -16.80549,9.387107 11.55061,-11.954718 23.10121,-23.90943 28.58748,-40.661123 5.48627,-16.7516924 4.90819,-38.300346 4.33012,-59.849004 1.27017,0.105833 2.40818,0.200654 2.72717,12.099871 0.31899,11.899217 -0.39926,34.152141 3.72877,48.620854 4.12802,14.468713 15.91023,28.505872 26.2262,40.796183 -6.26246,-4.103102 -12.52443,-8.20588 -17.83868,-10.276592 -5.31425,-2.070712 -9.68004,-2.108712 -11.8632,-2.127714 -2.18316,-0.019 -2.18316,-0.01897 -5.00552,0.01269 z"
       id="path2111-9"
       inkscape:path-effect="#path-effect3661"
       inkscape:original-d="m 128.66601,53.536016 c -5.64471,0.06384 -11.28987,0.127073 -16.93544,0.189956 -5.59277,3.742682 -16.77926,11.22654 -16.77926,11.22654 0,0 23.10166,-23.908994 34.65182,-35.864153 -0.57768,-21.548673 -1.73422,-64.645974 -1.73422,-64.645974 0,0 2.40815,0.201021 3.81052,0.3175 -0.76395,23.681601 -1.48218,45.934526 -2.0763,64.328474 8.84978,10.543432 30.94792,36.870934 30.94792,36.870934 0,0 -12.5245,-8.205774 -18.78739,-12.309307 -4.36554,-0.0377 -8.73133,-0.07554 -13.09765,-0.114001 z"
       sodipodi:nodetypes="sccccccccss" />
    <path
       style="fill:#e0e0e0;stroke:none;stroke-width:0.398336px;stroke-linecap:butt;stroke-linejoin:miter;stroke-opacity:1"
       d="m 123.56677,50.424188 c -2.51668,0.03054 -7.5504,0.09162 -12.56111,1.927292 -5.01072,1.835669 -9.99797,5.445856 -14.985265,9.056074 10.299555,-11.533142 20.599065,-23.066237 25.491125,-39.227214 4.89206,-16.1609774 4.3766,-36.949729 3.86113,-57.738487 1.1326,0.102099 2.14737,0.193576 2.43181,11.673176 0.28443,11.479601 -0.35602,32.9477905 3.32489,46.906267 3.68092,13.958477 14.18699,27.500631 23.38564,39.357531 -5.58418,-3.958407 -11.1679,-7.916493 -15.90657,-9.914197 -4.73867,-1.997704 -8.63159,-2.034386 -10.57828,-2.05273 -1.9467,-0.01834 -1.9467,-0.01825 -4.46337,0.01229 z"
       id="path2111-7-1"
       inkscape:path-effect="#path-effect3665"
       inkscape:original-d="m 126.08344,50.393648 c -5.03334,0.06156 -10.06706,0.122665 -15.10116,0.183253 -4.98701,3.610699 -14.961885,10.830653 -14.961885,10.830653 0,0 20.599485,-23.065859 30.898655,-34.599427 -0.51512,-20.788773 -1.5464,-62.366274 -1.5464,-62.366274 0,0 2.14734,0.193923 3.39781,0.306297 -0.6812,22.846491 -1.32166,44.3146803 -1.85141,62.059977 7.89125,10.171621 27.59594,35.5707 27.59594,35.5707 0,0 -11.16796,-7.916409 -16.75253,-11.875221 -3.89271,-0.03633 -7.78563,-0.07296 -11.67902,-0.110049 z"
       sodipodi:nodetypes="sccccccccss" />
    <path
       id="path2111-7-5-2"
       style="fill:#969896;stroke:none;stroke-width:0.262061px;stroke-linecap:butt;stroke-linejoin:miter;stroke-opacity:1"
       sodipodi:type="inkscape:offset"
       inkscape:radius="-0.43096131"
       inkscape:original="M 88.568359 59.378906 C 88.907483 73.055605 89.247733 86.731151 86.029297 97.363281 C 82.81086 107.99541 76.03378 115.58435 69.257812 123.17188 C 72.538898 120.79675 75.820691 118.42056 79.117188 117.21289 C 82.413684 116.00522 85.725167 115.9654 87.380859 115.94531 C 89.036551 115.92522 89.035695 115.92543 90.316406 115.9375 C 91.597117 115.94957 94.159828 115.97284 97.277344 117.28711 C 100.39486 118.60138 104.06646 121.20635 107.74023 123.81055 C 101.68855 116.01002 94.777103 107.1011 92.355469 97.917969 C 89.933835 88.734842 90.355097 74.610895 90.167969 67.058594 C 89.98084 59.506292 89.313486 59.446078 88.568359 59.378906 z "
       transform="matrix(1.5200127,0,0,1.5200127,-8.6703692,-126.34238)"
       d="m 89.017578,60.236328 c 0.330949,13.386256 0.605404,26.741591 -2.576172,37.251953 -2.8767,9.503199 -8.578754,16.564089 -14.544922,23.326169 2.333823,-1.61945 4.679648,-3.12932 7.072266,-4.00586 3.381156,-1.23868 6.750621,-1.27483 8.40625,-1.29492 1.655727,-0.0201 1.66465,-0.0199 2.945312,-0.008 1.280514,0.0121 3.931261,0.0384 7.125,1.38476 2.538375,1.07012 5.401948,2.99598 8.306638,5.02735 -5.61986,-7.28408 -11.575622,-15.40812 -13.812497,-23.890626 -2.452557,-9.300393 -2.016723,-23.435996 -2.203125,-30.958985 -0.09325,-3.763497 -0.315325,-5.657904 -0.572266,-6.535156 -0.05873,-0.200531 -0.09383,-0.19707 -0.146484,-0.296875 z" />
    <g
       id="g6159"
       transform="translate(135.8155,48.182623)">
      <path
         style="fill:#282a2e;stroke:none;stroke-width:0.264583px;stroke-linecap:butt;stroke-linejoin:miter;stroke-opacity:1"
         d="m -159.38862,101.51115 c 0,0 9.30303,-12.675078 9.30303,-12.675078 0,0 12.36247,19.051788 12.36247,19.051788 0,0 20.76386,-34.344797 20.76386,-34.344797 0,0 10.64687,16.710615 10.64687,16.710615 0,0 5.79302,-11.214214 5.79302,-11.214214 0,0 17.039657,31.490306 17.039657,31.490306 0,0 9.51157,-7.62501 9.51157,-7.62501 0,0 12.79133,27.92261 12.79133,27.92261 0,0 26.92461,-50.277352 26.92461,-50.277352 0,0 12.93802,20.722332 12.93802,20.722332 0,0 31.94059,-54.384647 31.94059,-54.384647 0,0 8.98171,18.879981 8.98171,18.879981 0,0 26.97035,-49.186745 26.97035,-49.186745 0,0 0,8.226432 0,8.226432 0,0 -27.22265,45.986394 -27.22265,45.986394 0,0 -9.33494,-17.075756 -9.33494,-17.075756 0,0 -31.48641,53.718821 -31.48641,53.718821 0,0 -11.86509,-20.550951 -11.86509,-20.550951 0,0 -29.20855,51.652441 -29.20855,51.652441 0,0 -12.71571,-28.95361 -12.71571,-28.95361 0,0 -10.39452,5.94966 -10.39452,5.94966 0,0 -15.816477,-27.394948 -15.816477,-27.394948 0,0 -4.21578,8.149833 -4.21578,8.149833 0,0 -10.54594,-14.41237 -10.54594,-14.41237 0,0 -21.4703,32.454665 -21.4703,32.454665 0,0 -12.46339,-18.128208 -12.46339,-18.128208 0,0 -9.32823,11.815938 -9.32823,11.815938 0,0 0.1009,-6.50813 0.1009,-6.50813 z"
         id="path5779"
         inkscape:path-effect="#path-effect5781"
         inkscape:original-d="m -159.38862,101.51115 9.30303,-12.675078 12.36247,19.051788 20.76386,-34.344797 10.64687,16.710615 5.79302,-11.214214 17.039657,31.490306 9.51157,-7.62501 12.79133,27.92261 26.92461,-50.277352 12.93802,20.722332 31.94059,-54.384647 8.98171,18.879981 26.97035,-49.186745 v 8.226432 l -27.22265,45.986394 -9.33494,-17.075756 -31.48641,53.718821 -11.86509,-20.550951 -29.20855,51.652441 -12.71571,-28.95361 -10.39452,5.94966 -15.816477,-27.394948 -4.21578,8.149833 -10.54594,-14.41237 -21.4703,32.454665 -12.46339,-18.128208 -9.32823,11.815938 z"
         sodipodi:nodetypes="ccccccccccccccccccccccccccccc" />
      <path
         style="fill:#e0e0e0;stroke:none;stroke-width:0.264583px;stroke-linecap:butt;stroke-linejoin:miter;stroke-opacity:1"
         d="m -161.1547,101.51115 c 0,0 9.30303,-12.675078 9.30303,-12.675078 0,0 12.36247,19.051788 12.36247,19.051788 0,0 20.76386,-34.344798 20.76386,-34.344798 0,0 10.64687,16.71061 10.64687,16.71061 0,0 5.79302,-11.21421 5.79302,-11.21421 0,0 17.039662,31.490308 17.039662,31.490308 0,0 9.51157,-7.62501 9.51157,-7.62501 0,0 12.79133,27.92261 12.79133,27.92261 0,0 26.924609,-50.277358 26.924609,-50.277358 0,0 12.93802,20.722338 12.93802,20.722338 0,0 31.9405896,-54.38465 31.9405896,-54.38465 0,0 8.9817104,18.879982 8.9817104,18.879982 0,0 26.97035,-49.186746 26.97035,-49.186746 0,0 0,8.226432 0,8.226432 0,0 -27.22265,45.986394 -27.22265,45.986394 0,0 -9.3349404,-17.075756 -9.3349404,-17.075756 0,0 -31.4864096,53.718824 -31.4864096,53.718824 0,0 -11.86509,-20.550958 -11.86509,-20.550958 0,0 -29.208549,51.652448 -29.208549,51.652448 0,0 -12.71571,-28.95361 -12.71571,-28.95361 0,0 -10.39452,5.94966 -10.39452,5.94966 0,0 -15.816482,-27.394948 -15.816482,-27.394948 0,0 -4.21578,8.14983 -4.21578,8.14983 0,0 -10.54594,-14.41237 -10.54594,-14.41237 0,0 -21.4703,32.454668 -21.4703,32.454668 0,0 -12.46339,-18.128208 -12.46339,-18.128208 0,0 -9.32823,11.815938 -9.32823,11.815938 0,0 0.1009,-6.50813 0.1009,-6.50813 z"
         id="path5779-7"
         inkscape:path-effect="#path-effect5955"
         inkscape:original-d="m -161.1547,101.51115 9.30303,-12.675078 12.36247,19.051788 20.76386,-34.344798 10.64687,16.71061 5.79302,-11.21421 17.039662,31.490308 9.51157,-7.62501 12.79133,27.92261 26.924609,-50.277358 12.93802,20.722338 L 8.8603306,46.8877 17.842041,65.767682 44.812391,16.580936 v 8.226432 L 17.589741,70.793762 8.2548006,53.718006 -23.231609,107.43683 l -11.86509,-20.550958 -29.208549,51.652448 -12.71571,-28.95361 -10.39452,5.94966 -15.816482,-27.394948 -4.21578,8.14983 -10.54594,-14.41237 -21.4703,32.454668 -12.46339,-18.128208 -9.32823,11.815938 z"
         sodipodi:nodetypes="ccccccccccccccccccccccccccccc" />
      <path
         id="path5779-7-0"
         style="fill:#969896;stroke:none;stroke-width:0.264583px;stroke-linecap:butt;stroke-linejoin:miter;stroke-opacity:1"
         d="m 44.564189,18.304899 -25.84375,47.134766 c -0.393988,-0.04773 -0.51859,-0.989608 -0.804602,-1.36232 C 15.161156,58.288007 12.407264,52.498294 9.6520792,46.709196 -0.96577644,64.788613 -11.583595,82.868052 -22.201436,100.94748 c -0.410882,-0.0253 -0.625342,-0.9263 -0.956533,-1.268453 -4.019754,-6.437826 -8.039048,-12.875938 -12.059092,-19.313581 -8.950333,16.71034 -17.898253,33.421974 -26.847657,50.132814 -0.38953,-0.0406 -0.505313,-0.99772 -0.784837,-1.37155 -4.034865,-8.81057 -8.072937,-17.61969 -12.105787,-26.43118 -3.166267,2.51748 -6.29662,5.0976 -9.488282,7.57226 -1.394867,-2.36752 -2.64944,-4.86616 -3.990313,-7.28414 -4.350865,-8.040713 -8.701893,-16.08134 -13.052653,-24.122111 -1.93051,3.706202 -3.80918,7.44969 -5.77539,11.13086 -0.99465,-1.335256 -1.84788,-2.868193 -2.78806,-4.27946 -2.62449,-4.120511 -5.25058,-8.240006 -7.87405,-12.361165 -6.89545,11.405183 -13.79173,22.809857 -20.6875,34.214846 -0.41665,-0.0359 -0.64152,-0.91602 -0.98046,-1.25837 -3.82084,-5.88987 -7.64272,-11.779072 -11.4629,-17.669367 -12.43779,17.844857 2.33414,-4.545185 -10.10495,13.298747 -0.0309,2.10744 -0.0651,4.21483 -0.0957,6.32227 12.41375,-17.516312 -2.37797,5.20527 10.03659,-12.31047 0.4332,-0.0088 0.63352,0.856123 0.97474,1.157588 3.85815,5.614502 7.72062,11.226042 11.57604,16.842412 7.12679,-10.77397 14.25534,-21.546786 21.38281,-32.320312 0.44684,0.01 0.69919,0.877614 1.06554,1.202668 3.18871,4.356076 6.3752,8.713772 9.56532,13.068816 1.4151,-2.686887 2.7575,-5.436977 4.21875,-8.083984 1.79981,2.940684 3.478854,6.000035 5.232206,8.986366 3.535177,6.123066 7.070766,12.245896 10.605683,18.369106 3.462453,-1.95969 6.897148,-3.98794 10.375,-5.9082 1.232337,2.56399 2.319699,5.24691 3.496259,7.85665 3.076421,7.00273 6.150325,14.00656 9.228351,21.00858 9.705408,-17.16656 19.412921,-34.33194 29.11914,-51.498049 0.405221,0.03642 0.594461,0.947097 0.91216,1.300962 3.67759,6.369805 7.35622,12.739017 11.033153,19.109197 10.469853,-17.860033 20.9373163,-35.721465 31.4062497,-53.582034 0.4035242,0.04962 0.5691823,0.957888 0.8777547,1.318101 2.8469606,5.206344 5.6920686,10.413703 8.5402146,15.619399 9.054005,-15.300001 18.111987,-30.597652 27.167968,-45.896485 -0.0021,-2.658855 0.0058,-5.317729 -0.0078,-7.976562 l -0.986328,1.78125 z"
         sodipodi:nodetypes="ccccccccccccccccccccccccccccccccccccccccccc" />
    </g>
  </g>
</svg>
