<?xml version="1.0" encoding="UTF-8" standalone="no"?>
<!-- Created with Inkscape (http://www.inkscape.org/) -->

<svg
   width="289.38065mm"
   height="797.08533mm"
   viewBox="0 0 289.38065 797.08532"
   version="1.1"
   id="svg17972"
   inkscape:version="1.1.1 (3bf5ae0d25, 2021-09-20)"
   sodipodi:docname="cloaked-exchanger-cultist.svg"
   xmlns:inkscape="http://www.inkscape.org/namespaces/inkscape"
   xmlns:sodipodi="http://sodipodi.sourceforge.net/DTD/sodipodi-0.dtd"
   xmlns="http://www.w3.org/2000/svg"
   xmlns:svg="http://www.w3.org/2000/svg">
  <sodipodi:namedview
     id="namedview17974"
     pagecolor="#505050"
     bordercolor="#eeeeee"
     borderopacity="1"
     inkscape:pageshadow="0"
     inkscape:pageopacity="0"
     inkscape:pagecheckerboard="0"
     inkscape:document-units="mm"
     showgrid="false"
     inkscape:zoom="0.48561571"
     inkscape:cx="744.41578"
     inkscape:cy="1892.4429"
     inkscape:window-width="1272"
     inkscape:window-height="1405"
     inkscape:window-x="1282"
     inkscape:window-y="4"
     inkscape:window-maximized="0"
     inkscape:current-layer="layer1"
     inkscape:snap-nodes="true"
     fit-margin-top="0"
     fit-margin-left="0"
     fit-margin-right="0"
     fit-margin-bottom="0" />
  <defs
     id="defs17969">
    <inkscape:path-effect
       effect="bspline"
       id="path-effect1098"
       is_visible="true"
       lpeversion="1"
       weight="33.333333"
       steps="2"
       helper_size="0"
       apply_no_weight="true"
       apply_with_weight="true"
       only_selected="false" />
    <inkscape:path-effect
       effect="bspline"
       id="path-effect1094"
       is_visible="true"
       lpeversion="1"
       weight="33.333333"
       steps="2"
       helper_size="0"
       apply_no_weight="true"
       apply_with_weight="true"
       only_selected="false" />
    <inkscape:path-effect
       effect="bspline"
       id="path-effect1090"
       is_visible="true"
       lpeversion="1"
       weight="33.333333"
       steps="2"
       helper_size="0"
       apply_no_weight="true"
       apply_with_weight="true"
       only_selected="false" />
    <inkscape:path-effect
       effect="bspline"
       id="path-effect1086"
       is_visible="true"
       lpeversion="1"
       weight="33.333333"
       steps="2"
       helper_size="0"
       apply_no_weight="true"
       apply_with_weight="true"
       only_selected="false" />
    <inkscape:path-effect
       effect="bspline"
       id="path-effect1082"
       is_visible="true"
       lpeversion="1"
       weight="33.333333"
       steps="2"
       helper_size="0"
       apply_no_weight="true"
       apply_with_weight="true"
       only_selected="false" />
    <inkscape:path-effect
       effect="bspline"
       id="path-effect1078"
       is_visible="true"
       lpeversion="1"
       weight="33.333333"
       steps="2"
       helper_size="0"
       apply_no_weight="true"
       apply_with_weight="true"
       only_selected="false" />
    <inkscape:path-effect
       effect="bspline"
       id="path-effect1074"
       is_visible="true"
       lpeversion="1"
       weight="33.333333"
       steps="2"
       helper_size="0"
       apply_no_weight="true"
       apply_with_weight="true"
       only_selected="false" />
    <inkscape:path-effect
       effect="bspline"
       id="path-effect917"
       is_visible="true"
       lpeversion="1"
       weight="33.333333"
       steps="2"
       helper_size="0"
       apply_no_weight="true"
       apply_with_weight="true"
       only_selected="false" />
    <inkscape:path-effect
       effect="bspline"
       id="path-effect913"
       is_visible="true"
       lpeversion="1"
       weight="33.333333"
       steps="2"
       helper_size="0"
       apply_no_weight="true"
       apply_with_weight="true"
       only_selected="false" />
    <inkscape:path-effect
       effect="bspline"
       id="path-effect909"
       is_visible="true"
       lpeversion="1"
       weight="33.333333"
       steps="2"
       helper_size="0"
       apply_no_weight="true"
       apply_with_weight="true"
       only_selected="false" />
    <inkscape:path-effect
       effect="bspline"
       id="path-effect905"
       is_visible="true"
       lpeversion="1"
       weight="33.333333"
       steps="2"
       helper_size="0"
       apply_no_weight="true"
       apply_with_weight="true"
       only_selected="false" />
    <inkscape:path-effect
       effect="bspline"
       id="path-effect1619"
       is_visible="true"
       lpeversion="1"
       weight="33.333333"
       steps="2"
       helper_size="0"
       apply_no_weight="true"
       apply_with_weight="true"
       only_selected="false" />
    <inkscape:path-effect
       effect="bspline"
       id="path-effect1549"
       is_visible="true"
       lpeversion="1"
       weight="33.333333"
       steps="2"
       helper_size="0"
       apply_no_weight="true"
       apply_with_weight="true"
       only_selected="false" />
    <inkscape:path-effect
       effect="bspline"
       id="path-effect1366"
       is_visible="true"
       lpeversion="1"
       weight="33.333333"
       steps="2"
       helper_size="0"
       apply_no_weight="true"
       apply_with_weight="true"
       only_selected="false" />
    <inkscape:path-effect
       effect="bspline"
       id="path-effect873"
       is_visible="true"
       lpeversion="1"
       weight="33.333333"
       steps="2"
       helper_size="0"
       apply_no_weight="true"
       apply_with_weight="true"
       only_selected="false" />
    <inkscape:path-effect
       effect="bspline"
       id="path-effect19248"
       is_visible="true"
       lpeversion="1"
       weight="33.333333"
       steps="2"
       helper_size="0"
       apply_no_weight="true"
       apply_with_weight="true"
       only_selected="false" />
    <inkscape:path-effect
       effect="bspline"
       id="path-effect19046"
       is_visible="true"
       lpeversion="1"
       weight="33.333333"
       steps="2"
       helper_size="0"
       apply_no_weight="true"
       apply_with_weight="true"
       only_selected="false" />
    <inkscape:path-effect
       effect="bspline"
       id="path-effect18976"
       is_visible="true"
       lpeversion="1"
       weight="33.333333"
       steps="2"
       helper_size="0"
       apply_no_weight="true"
       apply_with_weight="true"
       only_selected="false" />
    <inkscape:path-effect
       effect="bspline"
       id="path-effect18769"
       is_visible="true"
       lpeversion="1"
       weight="33.333333"
       steps="2"
       helper_size="0"
       apply_no_weight="true"
       apply_with_weight="true"
       only_selected="false" />
    <inkscape:path-effect
       effect="bspline"
       id="path-effect18586"
       is_visible="true"
       lpeversion="1"
       weight="33.333333"
       steps="2"
       helper_size="0"
       apply_no_weight="true"
       apply_with_weight="true"
       only_selected="false" />
    <inkscape:path-effect
       effect="bspline"
       id="path-effect18370"
       is_visible="true"
       lpeversion="1"
       weight="33.333333"
       steps="2"
       helper_size="0"
       apply_no_weight="true"
       apply_with_weight="true"
       only_selected="false" />
    <inkscape:path-effect
       effect="bspline"
       id="path-effect18011"
       is_visible="true"
       lpeversion="1"
       weight="33.333333"
       steps="2"
       helper_size="0"
       apply_no_weight="true"
       apply_with_weight="true"
       only_selected="false" />
  </defs>
  <g
     inkscape:label="Layer 1"
     inkscape:groupmode="layer"
     id="layer1"
     transform="translate(78.338353,-25.864195)">
    <path
       style="fill:#373b41;stroke:none;stroke-width:0.264583px;stroke-linecap:butt;stroke-linejoin:miter;stroke-opacity:1"
       d="m 76.027992,253.30343 c -11.055704,2.28788 -22.111207,4.57573 -19.419729,4.89032 2.691478,0.31459 19.130104,-1.34413 22.403875,15.11006 3.273772,16.45418 -6.616974,51.02089 -16.50777,85.58777 0,0 70.752242,2.77129 70.752242,2.77129 0,0 -57.228618,-108.35944 -57.228618,-108.35944 z"
       id="path1364"
       inkscape:path-effect="#path-effect1366"
       inkscape:original-d="m 76.027992,253.30343 c 0,0 -22.111144,4.57603 -33.167112,6.86365 16.43889,-1.65845 32.877516,-3.31717 49.315876,-4.97615 -9.890531,34.56715 -29.672388,103.70065 -29.672388,103.70065 l 70.752242,2.77129 z"
       sodipodi:nodetypes="cssccc" />
    <path
       style="fill:#1d1f21;fill-opacity:1;stroke:none;stroke-width:1.94371px;stroke-linecap:butt;stroke-linejoin:miter;stroke-opacity:1"
       d="m 78.80014,225.35057 56.03942,82.09048 -1.58295,54.22182 -57.228617,-108.35944 z"
       id="path668"
       sodipodi:nodetypes="ccccc" />
    <path
       style="fill:#1d1f21;fill-opacity:1;stroke:none;stroke-width:1.94371px;stroke-linecap:butt;stroke-linejoin:miter;stroke-opacity:1"
       d="M 23.827483,265.89058 62.504369,358.89159 57.620898,447.69375 24.300593,304.91073 Z"
       id="path668-3"
       sodipodi:nodetypes="ccccc" />
    <path
       style="fill:#1d1f21;fill-opacity:1;stroke:none;stroke-width:1.94371px;stroke-linecap:butt;stroke-linejoin:miter;stroke-opacity:1"
       d="m -34.525758,311.04675 14.717333,133.88559 -2.490506,79.21771 -11.753724,-174.08315 z"
       id="path668-3-6"
       sodipodi:nodetypes="ccccc" />
    <path
       style="fill:#1d1f21;stroke:none;stroke-width:0.264583px;stroke-linecap:butt;stroke-linejoin:miter;stroke-opacity:1"
       d="m 122.28259,235.96168 c -0.8076,7.67217 -1.61523,15.34457 -3.89065,20.91034 -2.27541,5.56578 -6.01855,9.02529 -9.76174,12.48485 0,0 -1.53828,45.57462 -1.53828,45.57462 -6.67877,4.3872 -13.357466,8.77436 -20.747651,9.94214 -7.390186,1.16778 -15.491711,-0.8839 -21.677081,-1.04765 -6.185369,-0.16376 -10.454199,1.56059 -14.722982,3.28491 0.294843,7.23563 0.589697,14.47153 2.903728,20.08654 2.314032,5.61501 6.646531,9.609 10.979396,13.60333 11.210337,-0.11459 22.42071,-0.22918 32.272305,-3.63972 9.851595,-3.41053 18.344075,-10.11669 26.836755,-16.82301 0,0 -0.92298,-49.86362 -0.92298,-49.86362 13.54982,-6.60265 27.09974,-13.20535 41.93804,-21.10133 14.8383,-7.89598 30.96436,-17.08487 47.09084,-26.274 0,0 -88.7597,-7.1374 -88.7597,-7.1374 z"
       id="path871"
       inkscape:path-effect="#path-effect873"
       inkscape:original-d="m 122.28259,235.96168 c 0,0 -1.61494,15.3446 -2.42281,23.0165 -3.743,3.45989 -11.22958,10.37869 -11.22958,10.37869 l -1.53828,45.57462 c 0,0 -13.357264,8.77467 -20.036298,13.16161 -8.101587,-2.0515 -16.203113,-4.10318 -24.305067,-6.15518 -4.268605,1.72463 -12.806349,5.17297 -12.806349,5.17297 0,0 0.589952,14.47152 0.884529,21.70689 4.333216,3.99468 12.998595,11.98298 12.998595,11.98298 0,0 22.420713,-0.22891 33.631012,-0.34377 8.493118,-6.70619 25.478048,-20.11896 25.478048,-20.11896 l -0.92298,-49.86362 c 0,0 27.0999,-13.20502 40.64945,-19.80794 16.12707,-9.18905 48.37943,-27.56739 48.37943,-27.56739 z"
       sodipodi:nodetypes="ccccccccccccccc" />
    <path
       style="fill:#282a2e;fill-opacity:1;stroke:none;stroke-width:0.264583px;stroke-linecap:butt;stroke-linejoin:miter;stroke-opacity:1"
       d="m 132.30601,45.270443 c -1.40305,5.424922 -2.80615,10.85003 -1.45918,18.746393 1.34697,7.896362 5.4435,18.263297 9.54023,28.630758 0,0 4.47899,-32.147546 4.47899,-32.147546 0,0 -12.56004,-15.229605 -12.56004,-15.229605 z"
       id="path18368"
       inkscape:path-effect="#path-effect18370"
       inkscape:original-d="m 132.30601,45.270443 c 0,0 -2.80584,10.85011 -4.20915,16.274767 4.09708,10.367933 12.2902,31.102384 12.2902,31.102384 0,0 4.47899,-32.147546 4.47899,-32.147546 0,0 -12.56004,-15.229605 -12.56004,-15.229605 z" />
    <path
       style="fill:#373b41;fill-opacity:1;stroke:none;stroke-width:0.264583px;stroke-linecap:butt;stroke-linejoin:miter;stroke-opacity:1"
       d="m 126.3732,42.559086 c 7.66936,-4.40345 15.33881,-8.80695 22.87212,-9.844445 7.53331,-1.037495 14.93004,1.290719 18.64319,3.121369 3.71315,1.83065 3.74288,3.163467 2.92546,4.156618 -0.81741,0.99315 -2.48205,1.646904 -2.51664,2.655136 -0.0346,1.008232 1.56069,2.370574 1.14929,8.106945 -0.4114,5.736372 -2.82909,15.846392 -3.0618,22.280828 -0.2327,6.434435 1.71928,9.19286 4.48137,13.317987 2.7621,4.125126 6.33413,9.616677 8.19567,29.220216 1.86153,19.60353 2.01268,53.31764 1.7786,74.23901 -0.23409,20.92138 -0.85337,29.04903 1.76276,35.16285 2.61613,6.11382 8.46713,10.2135 13.98385,12.22743 5.51673,2.01392 10.6989,1.94222 12.79691,2.77109 2.098,0.82888 1.11212,2.55816 -5.36076,4.43507 -6.47287,1.8769 -18.43249,3.90143 -32.74332,2.85753 -14.31082,-1.04391 -30.97204,-5.15624 -40.40524,-8.73712 -9.4332,-3.58089 -11.63787,-6.63035 -10.21852,-17.19212 1.41934,-10.56177 6.4628,-28.63496 8.67991,-42.59191 2.21711,-13.95695 1.60773,-23.79703 1.98178,-36.23569 0.37405,-12.43865 1.73152,-27.47503 3.60924,-37.51998 1.87772,-10.044963 4.27558,-15.097859 5.18474,-22.234494 0.90916,-7.136636 0.32951,-16.356701 -2.20832,-23.403394 -2.53784,-7.046694 -7.03414,-11.919896 -11.53029,-16.792926 z"
       id="path18009"
       inkscape:path-effect="#path-effect18011"
       inkscape:original-d="m 126.3732,42.559086 c 0,0 15.33899,-8.806635 23.00808,-13.210349 7.3973,2.328571 14.79403,4.656785 22.19064,6.984783 0.03,1.333134 0.0597,2.665952 0.0892,3.998531 -1.66444,0.654045 -3.32907,1.307801 -4.99401,1.961306 1.59561,1.362662 3.19089,2.725004 4.78594,4.087109 -2.41752,10.110689 -4.83521,20.220709 -7.25321,30.330668 1.95233,2.7588 3.90431,5.517227 5.85607,8.275445 3.57244,5.49203 7.14448,10.983579 10.71632,16.474971 0.15142,33.71572 0.30258,67.42983 0.45347,101.14435 -0.61904,8.12825 -1.23833,16.2559 -1.85789,24.38346 5.8515,4.10011 11.7025,8.19979 17.55336,12.2993 5.18263,-0.0714 10.3648,-0.14314 15.5468,-0.21511 -0.98567,1.72963 -1.97156,3.45891 -2.95774,5.18797 -11.95983,2.02488 -23.91945,4.04941 -35.87958,6.07371 -16.66162,-4.11223 -33.32284,-8.22456 -49.98466,-12.33724 -2.20449,-3.04931 -4.40915,-6.09877 -6.61412,-9.14855 5.04393,-18.07364 10.08738,-36.14683 15.13067,-54.22063 -0.60914,-9.84021 -1.21852,-19.68029 -1.82817,-29.52083 1.35779,-15.03672 2.71527,-30.0731 4.07251,-45.110052 2.39823,-5.052838 4.79609,-10.105736 7.19374,-15.159003 -0.5794,-9.220171 -1.15905,-18.440236 -1.73898,-27.66075 C 135.36566,52.305312 126.3732,42.559086 126.3732,42.559086 Z" />
    <path
       style="fill:#282a2e;fill-opacity:1;stroke:none;stroke-width:0.292954px;stroke-linecap:butt;stroke-linejoin:miter;stroke-opacity:1"
       d="m 160.3671,105.9132 c -1.05679,9.46213 -2.11362,18.92456 -2.21026,27.93622 -0.0966,9.01166 0.76675,17.57246 0.43841,24.50478 -0.32834,6.93232 -1.84822,12.23567 -3.3682,17.53935 2.31594,-5.37408 4.63181,-10.74798 5.62119,-17.95019 0.98937,-7.20222 0.65211,-16.23237 0.35081,-25.20881 -0.30131,-8.97644 -0.56663,-17.89898 -0.83195,-26.82135 z"
       id="path18584"
       inkscape:path-effect="#path-effect18586"
       inkscape:original-d="m 160.3671,105.9132 c 0,0 -2.11332,18.92459 -3.17038,28.38639 0.8637,8.56147 1.7271,17.12227 2.59026,25.68292 -1.51974,5.30411 -4.55993,15.91104 -4.55993,15.91104 0,0 4.63215,-10.74783 6.94783,-16.12223 -0.33701,-9.03019 -0.67428,-18.06034 -1.01182,-27.091 C 160.898,123.7581 160.3671,105.9132 160.3671,105.9132 Z" />
    <path
       style="fill:#282a2e;fill-opacity:1;stroke:none;stroke-width:0.395191px;stroke-linecap:butt;stroke-linejoin:miter;stroke-opacity:1"
       d="m 153.99274,174.86476 c -1.49692,-0.47831 -8.04287,-0.98999 -9.81887,-0.76736 -1.77601,0.22264 1.21783,1.17938 4.49082,1.43505 3.273,0.25568 6.82497,-0.18938 5.32805,-0.66769 z"
       id="path18767"
       inkscape:path-effect="#path-effect18769"
       inkscape:original-d="m 159.04102,174.89808 c -6.54521,-0.51147 -13.09116,-1.02316 -19.63783,-1.53505 2.99468,0.95699 5.98851,1.91373 8.98167,2.87027 3.55287,-0.44487 7.10484,-0.88994 10.65616,-1.33522 z" />
    <path
       style="fill:#282a2e;fill-opacity:1;stroke:none;stroke-width:0.264583px;stroke-linecap:butt;stroke-linejoin:miter;stroke-opacity:1"
       d="m 177.77534,86.509258 c 0.48612,0.09272 1.45804,0.278099 2.80689,-3.917897 1.34885,-4.195996 3.07494,-12.773373 4.80103,-21.350718 1.04098,0.162777 2.08225,0.325601 2.56543,0.09964 0.48317,-0.225959 0.40882,-0.840875 -0.11685,-1.372232 -0.52567,-0.531356 -1.5032,-0.979125 -2.48044,-1.426756 0.63732,-4.376841 1.27461,-8.753459 -0.10351,-10.72949 -1.37813,-1.97603 -4.77183,-1.551014 -6.12888,0.619524 -1.35706,2.170538 -0.67731,6.085803 0.002,10.001448 -0.75416,-0.41146 -1.50801,-0.822747 -1.89854,-0.592099 -0.39052,0.230649 -0.41709,1.10329 0.0292,1.663876 0.4463,0.560587 1.36478,0.809179 2.28359,1.057862 -0.74885,8.61804 -1.49773,17.236319 -1.87214,21.54522 -0.37442,4.3089 -0.3744,4.3089 0.11172,4.40162 z"
       id="path18974"
       inkscape:path-effect="#path-effect18976"
       inkscape:original-d="m 177.28922,86.416538 c 0.9722,0.185645 1.94412,0.371025 2.91578,0.556141 1.72639,-8.577252 5.17826,-25.732036 5.17826,-25.732036 0,0 2.08222,0.325818 3.12293,0.488331 -0.0741,-0.614675 -0.14846,-1.229591 -0.22308,-1.844784 -0.97699,-0.447376 -2.93171,-1.342893 -2.93171,-1.342893 0,0 1.27491,-8.753416 1.91197,-13.130524 -3.39357,0.425296 -6.78727,0.850313 -10.1813,1.275072 0.68009,3.915987 2.03944,11.746934 2.03944,11.746934 0,0 -1.50806,-0.822656 -2.26249,-1.234379 -0.0263,0.872937 -0.0529,1.745577 -0.0797,2.61797 0.9191,0.248951 2.75644,0.746048 2.75644,0.746048 0,0 -1.49744,17.236344 -2.24656,25.85412 z" />
    <path
       style="fill:#c5c8c6;fill-opacity:1;stroke:none;stroke-width:0.264583px;stroke-linecap:butt;stroke-linejoin:miter;stroke-opacity:1"
       d="m 178.05936,49.572997 c -0.53636,-1.629852 -1.6092,-4.889874 -1.75532,-7.921658 -0.14613,-3.031783 0.63458,-5.835078 0.43816,-8.428131 -0.19641,-2.593054 -1.37029,-4.976168 -2.54404,-7.359013 1.59333,2.997774 3.18682,5.995865 3.94356,8.674865 0.75674,2.679 0.67707,5.039192 1.2958,4.849188 0.61873,-0.190003 1.93585,-2.929994 3.39119,-4.652789 1.45534,-1.722795 3.04849,-2.428085 4.64181,-3.133446 -1.37026,1.582536 -2.74053,3.165088 -3.423,5.154712 -0.68247,1.989624 -0.67717,4.385986 -0.19908,6.463673 0.47809,2.077687 1.42875,3.836527 1.8987,2.807814 0.46994,-1.028712 0.4593,-4.844808 -0.0107,-8.396479 -0.47001,-3.55167 -1.39952,-6.83907 -2.32897,-10.126222 1.49773,3.124378 2.99561,6.249072 3.70191,9.990652 0.70629,3.74158 0.62131,8.100247 -0.0612,11.048181 -0.68249,2.947934 -1.96244,4.485228 -3.47063,4.693292 -1.5082,0.208065 -3.24488,-0.913251 -4.11339,-1.474019 -0.86851,-0.560768 -0.86844,-0.560768 -1.40481,-2.19062 z"
       id="path19044"
       inkscape:path-effect="#path-effect19046"
       inkscape:original-d="m 178.59573,51.202849 c -1.07257,-3.259757 -2.14541,-6.519778 -3.21851,-9.780064 0.78101,-2.803141 1.56172,-5.606436 2.34218,-8.410054 -1.17351,-2.382628 -3.52124,-7.148536 -3.52124,-7.148536 0,0 3.18692,5.995813 4.77998,8.993323 -0.0794,2.360551 -0.15907,4.720743 -0.23901,7.080718 1.31744,-2.739837 2.63456,-5.479828 3.95144,-8.220139 1.59362,-0.705112 4.77995,-2.116084 4.77995,-2.116084 0,0 -2.74024,3.165337 -4.11077,4.747609 0.006,2.396725 0.0109,4.793088 0.0159,7.189237 0.95097,1.759175 1.90164,3.518014 2.85206,5.276625 -0.0104,-3.815985 -0.021,-7.632081 -0.0319,-11.448518 -0.9292,-3.286953 -2.78834,-9.861455 -2.78834,-9.861455 0,0 2.99572,6.24902 4.49319,9.373135 -0.0847,4.359103 -0.1697,8.717769 -0.25495,13.076258 -1.27972,1.537616 -2.55967,3.074906 -3.8399,4.61196 -1.73649,-1.121095 -3.47317,-2.242412 -5.21015,-3.364015 z" />
    <path
       style="fill:#e0e0e0;fill-opacity:1;stroke:none;stroke-width:0.264583px;stroke-linecap:butt;stroke-linejoin:miter;stroke-opacity:1"
       d="m 181.14509,50.705641 c -0.31862,-1.039793 -0.95595,-3.119698 -0.91087,-5.56142 0.0451,-2.441721 0.77272,-5.245195 1.50033,-8.048543 0.0266,2.979689 0.0531,5.959644 0.37723,7.872278 0.3241,1.912634 0.94548,2.758142 1.42335,2.179321 0.47787,-0.57882 0.81247,-2.581818 0.70897,-4.449177 -0.1035,-1.867358 -0.64533,-3.599388 -1.18706,-5.331134 0.74355,1.107775 1.48732,2.215861 1.71557,4.508277 0.22826,2.292417 -0.0585,5.769404 -0.69576,7.611788 -0.63722,1.842384 -1.62505,2.050369 -2.11909,2.154387 -0.49403,0.104017 -0.49405,0.104017 -0.81267,-0.935777 z"
       id="path19246"
       inkscape:path-effect="#path-effect19248"
       inkscape:original-d="m 181.46371,51.745435 c -0.63706,-2.079641 -1.2744,-4.159544 -1.912,-6.239714 0.7279,-2.803138 2.18284,-8.410043 2.18284,-8.410043 0,0 0.0534,5.959642 0.0797,8.939067 0.62168,0.845807 1.24306,1.691315 1.86418,2.536576 0.33488,-2.002813 0.66947,-4.005812 1.00381,-6.009116 -0.54148,-1.731515 -1.6252,-5.195239 -1.6252,-5.195239 0,0 1.48738,2.215817 2.23066,3.323325 -0.28654,3.477393 -0.57333,6.95438 -0.8604,10.431172 -0.98761,0.208259 -1.97544,0.416245 -2.96357,0.623972 z" />
    <path
       style="fill:#373b41;stroke:none;stroke-width:0.264583px;stroke-linecap:butt;stroke-linejoin:miter;stroke-opacity:1"
       d="m 24.300591,304.91073 c -13.217231,1.70447 -26.4342353,3.4089 -23.84564151,4.47003 2.58859371,1.06113 20.98296851,1.47889 20.23991851,23.96365 -0.743051,22.48476 -20.62314467,67.03628 -40.503294,111.58792 0,0 77.429322,2.76141 77.429322,2.76141 0,0 -33.320305,-142.78301 -33.320305,-142.78301 z"
       id="path1547"
       inkscape:path-effect="#path-effect1549"
       inkscape:original-d="m 24.300591,304.91073 c 0,0 -26.4341971,3.4092 -39.651693,5.1134 18.3946394,0.41802 36.789014,0.83578 55.183124,1.25327 -19.879885,44.55191 -59.640448,133.65493 -59.640448,133.65493 l 77.429322,2.76141 z"
       sodipodi:nodetypes="cssccc" />
    <path
       style="fill:#373b41;stroke:none;stroke-width:0.264583px;stroke-linecap:butt;stroke-linejoin:miter;stroke-opacity:1"
       d="m -22.298931,524.15004 c 0,0 -47.705469,0 -47.705469,0 17.432866,-53.04862 34.865679,-106.09707 32.817473,-129.74746 -2.048206,-23.65038 -23.577716,-17.90232 -26.185887,-19.75153 -2.608171,-1.84922 13.705014,-11.29566 30.018281,-20.74215 0,0 11.055602,170.24114 11.055602,170.24114 z"
       id="path1617"
       inkscape:path-effect="#path-effect1619"
       inkscape:original-d="M -22.298931,524.15004 H -70.0044 c 0,0 34.865996,-106.09697 52.298597,-159.14585 -21.529245,5.74833 -43.058755,11.49639 -64.58853,17.24418 16.313531,-9.44622 48.9398,-28.33947 48.9398,-28.33947 z"
       sodipodi:nodetypes="ccsscc" />
    <path
       style="fill:#373b41;stroke:none;stroke-width:0.264583px;stroke-linecap:butt;stroke-linejoin:miter;stroke-opacity:1"
       d="m -19.526783,552.10291 c 11.055704,2.28788 22.1112071,4.57573 19.4197292,4.89032 -2.6914779,0.31459 -19.1301042,-1.34413 -22.4038752,15.11006 -3.273772,16.45418 6.616974,51.02089 16.50777,85.58777 0,0 -70.752244,2.77129 -70.752244,2.77129 0,0 57.22862,-108.35944 57.22862,-108.35944 z"
       id="path1364-3"
       inkscape:path-effect="#path-effect905"
       inkscape:original-d="m -19.526783,552.10291 c 0,0 22.111144,4.57603 33.167112,6.86365 -16.43889,-1.65845 -32.877516,-3.31717 -49.315876,-4.97615 9.890531,34.56715 29.672388,103.70065 29.672388,103.70065 l -70.752244,2.77129 z"
       sodipodi:nodetypes="cssccc" />
    <path
       style="fill:#1d1f21;fill-opacity:1;stroke:none;stroke-width:1.94371px;stroke-linecap:butt;stroke-linejoin:miter;stroke-opacity:1"
       d="m -22.298931,524.15005 -56.039422,82.09048 1.58295,54.22182 57.228619,-108.35944 z"
       id="path668-6"
       sodipodi:nodetypes="ccccc" />
    <path
       style="fill:#1d1f21;fill-opacity:1;stroke:none;stroke-width:1.94371px;stroke-linecap:butt;stroke-linejoin:miter;stroke-opacity:1"
       d="M 32.673726,564.69006 -6.00316,657.69107 -1.119689,746.49323 32.200616,603.71021 Z"
       id="path668-3-7"
       sodipodi:nodetypes="ccccc" />
    <path
       style="fill:#1d1f21;fill-opacity:1;stroke:none;stroke-width:1.94371px;stroke-linecap:butt;stroke-linejoin:miter;stroke-opacity:1"
       d="m 91.026969,609.84623 -14.71733,133.88559 2.4905,79.21771 11.75373,-174.08315 z"
       id="path668-3-6-5"
       sodipodi:nodetypes="ccccc" />
    <path
       style="fill:#373b41;stroke:none;stroke-width:0.264583px;stroke-linecap:butt;stroke-linejoin:miter;stroke-opacity:1"
       d="m 32.200618,603.71021 c 13.21723,1.70447 26.434239,3.4089 23.845642,4.47003 -2.588597,1.06113 -20.982969,1.47889 -20.239918,23.96365 0.74305,22.48476 20.623146,67.03628 40.503297,111.58792 0,0 -77.429326,2.76141 -77.429326,2.76141 0,0 33.320305,-142.78301 33.320305,-142.78301 z"
       id="path1547-5"
       inkscape:path-effect="#path-effect913"
       inkscape:original-d="m 32.200618,603.71021 c 0,0 26.434201,3.4092 39.651691,5.1134 -18.39464,0.41802 -36.789012,0.83578 -55.183122,1.25327 19.879882,44.55191 59.640452,133.65493 59.640452,133.65493 l -77.429326,2.76141 z"
       sodipodi:nodetypes="cssccc" />
    <path
       style="fill:#373b41;stroke:none;stroke-width:0.264583px;stroke-linecap:butt;stroke-linejoin:miter;stroke-opacity:1"
       d="m 78.800139,822.94952 c 0,0 47.705471,0 47.705471,0 C 109.07274,769.9009 91.639928,716.85245 93.688136,693.20206 c 2.048208,-23.65038 23.577724,-17.90232 26.185884,-19.75153 2.60817,-1.84922 -13.70501,-11.29566 -30.018281,-20.74215 0,0 -11.0556,170.24114 -11.0556,170.24114 z"
       id="path1617-6"
       inkscape:path-effect="#path-effect917"
       inkscape:original-d="m 78.800139,822.94952 h 47.705471 c 0,0 -34.866001,-106.09697 -52.298601,-159.14585 21.52925,5.74833 43.058761,11.49639 64.588541,17.24418 -16.31354,-9.44622 -48.939811,-28.33947 -48.939811,-28.33947 z"
       sodipodi:nodetypes="ccsscc" />
    <path
       style="fill:#282a2e;fill-opacity:1;stroke:none;stroke-width:0.264583px;stroke-linecap:butt;stroke-linejoin:miter;stroke-opacity:1"
       d="m 99.513046,467.09999 c 1.403054,5.42492 2.806154,10.85003 1.459184,18.74639 -1.346973,7.89637 -5.443498,18.2633 -9.540232,28.63076 0,0 -4.47899,-32.14754 -4.47899,-32.14754 4.18668,-5.07654 12.560036,-15.22961 12.560038,-15.22961 z"
       id="path18368-2"
       inkscape:path-effect="#path-effect1074"
       inkscape:original-d="m 99.513048,467.09999 c 0,0 2.805832,10.85011 4.209152,16.27477 -4.097092,10.36793 -12.290202,31.10238 -12.290202,31.10238 0,0 -4.47899,-32.14754 -4.47899,-32.14754 0,0 12.56003,-15.22961 12.56004,-15.22961 z" />
    <path
       style="fill:#373b41;fill-opacity:1;stroke:none;stroke-width:0.264583px;stroke-linecap:butt;stroke-linejoin:miter;stroke-opacity:1"
       d="m 105.44585,464.38864 c -7.669357,-4.40345 -15.338803,-8.80695 -22.872113,-9.84445 -7.53331,-1.03749 -14.930039,1.29072 -18.643189,3.12137 -3.71315,1.83065 -3.742883,3.16347 -2.925463,4.15662 0.817419,0.99315 2.482048,1.6469 2.516641,2.65514 0.03459,1.00823 -1.560685,2.37057 -1.149289,8.10694 0.411397,5.73637 2.829084,15.8464 3.061793,22.28083 0.232709,6.43443 -1.719276,9.19286 -4.481367,13.31799 -2.762091,4.12512 -6.33413,9.61667 -7.147485,27.92586 -0.813356,18.3092 1.131713,49.43424 1.365763,70.35583 0.234049,20.92159 -1.242919,31.63784 -1.871483,39.10361 -0.628565,7.46577 -0.408756,11.68031 2.467268,16.26014 2.876024,4.57982 8.408715,9.52575 15.515273,10.09238 7.106558,0.56662 15.787484,-3.24534 28.157956,0.2684 12.370475,3.51373 28.427585,14.35156 32.000015,2.23414 3.57244,-12.11742 -5.34108,-47.18596 -11.52251,-69.41276 -6.18143,-22.2268 -9.62959,-31.6073 -12.92507,-43.33042 -3.29548,-11.72313 -6.43789,-25.78768 -9.20811,-35.34673 -2.770219,-9.55904 -5.168079,-14.61194 -6.077233,-21.74858 -0.909154,-7.13663 -0.329506,-16.35669 2.208327,-23.40339 2.537833,-7.04669 7.034136,-11.91989 11.530276,-16.79292 z"
       id="path18009-9"
       inkscape:path-effect="#path-effect1078"
       inkscape:original-d="m 105.44585,464.38864 c 0,0 -15.338982,-8.80664 -23.008072,-13.21035 -7.3973,2.32857 -14.79403,4.65678 -22.19064,6.98478 -0.03,1.33313 -0.0597,2.66595 -0.0892,3.99853 1.66444,0.65405 3.32907,1.3078 4.99401,1.96131 -1.59561,1.36266 -3.19089,2.725 -4.78594,4.08711 2.41752,10.11068 4.8352,20.22071 7.2532,30.33066 -1.95232,2.7588 -3.90431,5.51723 -5.85606,8.27545 -3.57244,5.49203 -7.14448,10.98358 -10.71632,16.47497 1.945441,31.12702 3.89051,62.25206 5.835413,93.3784 -1.476756,10.7169 -2.953723,21.43315 -4.430993,32.14941 0.220095,4.21523 0.439904,8.42977 0.659439,12.64388 5.532246,4.94557 11.06494,9.8915 16.596931,14.83678 8.681281,-3.81173 17.362206,-7.62369 26.043307,-11.43611 16.059665,10.83963 32.116775,21.67746 48.176735,32.51712 -8.91487,-35.07461 -17.82838,-70.14315 -26.7432,-105.216 -3.44808,-9.38076 -6.89624,-18.76125 -10.34488,-28.1426 -3.14228,-14.06489 -6.28469,-28.12944 -9.427412,-42.1945 -2.39823,-5.05284 -4.79608,-10.10574 -7.19373,-15.159 0.57939,-9.22018 1.15905,-18.44024 1.73898,-27.66075 4.49598,-4.87287 13.488432,-14.61909 13.488432,-14.61909 z"
       sodipodi:nodetypes="ccccccccccccccccccccc" />
    <path
       style="fill:#282a2e;fill-opacity:1;stroke:none;stroke-width:0.292954px;stroke-linecap:butt;stroke-linejoin:miter;stroke-opacity:1"
       d="m 71.451958,527.74275 c 1.056793,9.46213 2.11362,18.92456 2.210264,27.93622 0.09664,9.01166 -0.766759,17.57246 -0.438415,24.50478 0.328344,6.93232 1.848224,12.23567 3.368201,17.53935 -2.315943,-5.37408 -4.63181,-10.74798 -5.621186,-17.95019 -0.989376,-7.20222 -0.65211,-16.23237 -0.350809,-25.20881 0.3013,-8.97644 0.566625,-17.89898 0.831945,-26.82135 z"
       id="path18584-1"
       inkscape:path-effect="#path-effect1082"
       inkscape:original-d="m 71.451958,527.74275 c 0,0 2.11332,18.92459 3.17038,28.38639 -0.8637,8.56147 -1.7271,17.12227 -2.59026,25.68292 1.51974,5.30411 4.55993,15.91104 4.55993,15.91104 0,0 -4.63215,-10.74783 -6.94783,-16.12223 0.33701,-9.03019 0.67428,-18.06034 1.01182,-27.091 0.26506,-8.92222 0.79596,-26.76712 0.79596,-26.76712 z" />
    <path
       style="fill:#282a2e;fill-opacity:1;stroke:none;stroke-width:0.395191px;stroke-linecap:butt;stroke-linejoin:miter;stroke-opacity:1"
       d="m 77.826315,596.69431 c 1.496921,-0.47831 8.042871,-0.98999 9.818875,-0.76736 1.776003,0.22264 -1.217827,1.17937 -4.490826,1.43505 -3.272998,0.25568 -6.824969,-0.18938 -5.328049,-0.66769 z"
       id="path18767-2"
       inkscape:path-effect="#path-effect1086"
       inkscape:original-d="m 72.778038,596.72763 c 6.54521,-0.51147 13.09116,-1.02316 19.63782,-1.53505 -2.99467,0.95699 -5.9885,1.91373 -8.98166,2.87027 -3.55287,-0.44487 -7.10484,-0.88994 -10.65616,-1.33522 z" />
    <path
       style="fill:#282a2e;fill-opacity:1;stroke:none;stroke-width:0.264583px;stroke-linecap:butt;stroke-linejoin:miter;stroke-opacity:1"
       d="m 54.043719,508.33881 c -0.486119,0.0927 -1.458039,0.2781 -2.80689,-3.9179 -1.348851,-4.19599 -3.074944,-12.77337 -4.801031,-21.35072 -1.040977,0.16278 -2.082254,0.3256 -2.565429,0.0996 -0.483175,-0.22595 -0.408816,-0.84087 0.11685,-1.37223 0.525667,-0.53135 1.503202,-0.97912 2.480439,-1.42675 -0.637323,-4.37684 -1.274614,-8.75346 0.103511,-10.72949 1.378126,-1.97603 4.771826,-1.55102 6.128883,0.61952 1.357058,2.17054 0.677309,6.08581 -0.0025,10.00145 0.754163,-0.41146 1.508012,-0.82275 1.898538,-0.5921 0.390527,0.23065 0.417093,1.10329 -0.0292,1.66388 -0.446295,0.56058 -1.364774,0.80918 -2.283587,1.05786 0.748853,8.61804 1.497727,17.23632 1.872144,21.54522 0.374416,4.3089 0.374396,4.3089 -0.111723,4.40162 z"
       id="path18974-7"
       inkscape:path-effect="#path-effect1090"
       inkscape:original-d="m 54.529838,508.24609 c -0.9722,0.18564 -1.94412,0.37102 -2.91578,0.55614 -1.72639,-8.57725 -5.17826,-25.73204 -5.17826,-25.73204 0,0 -2.08222,0.32582 -3.12293,0.48833 0.0741,-0.61467 0.14846,-1.22959 0.22308,-1.84478 0.97699,-0.44738 2.93171,-1.34289 2.93171,-1.34289 0,0 -1.27491,-8.75342 -1.91197,-13.13053 3.39357,0.4253 6.78727,0.85032 10.1813,1.27508 -0.68009,3.91598 -2.03944,11.74693 -2.03944,11.74693 0,0 1.50806,-0.82266 2.26249,-1.23438 0.0263,0.87294 0.0529,1.74558 0.0797,2.61797 -0.9191,0.24895 -2.75644,0.74605 -2.75644,0.74605 0,0 1.49744,17.23634 2.24656,25.85412 z" />
    <path
       style="fill:#c5c8c6;fill-opacity:1;stroke:none;stroke-width:0.264583px;stroke-linecap:butt;stroke-linejoin:miter;stroke-opacity:1"
       d="m 53.759694,471.40255 c 0.536366,-1.62986 1.609202,-4.88988 1.755327,-7.92166 0.146124,-3.03179 -0.634586,-5.83508 -0.438166,-8.42813 0.196419,-2.59306 1.370296,-4.97617 2.544043,-7.35901 -1.593327,2.99777 -3.186821,5.99586 -3.943561,8.67486 -0.756739,2.679 -0.677071,5.03919 -1.2958,4.84919 -0.61873,-0.19 -1.93585,-2.92999 -3.391188,-4.65279 -1.455338,-1.72279 -3.048494,-2.42809 -4.641811,-3.13345 1.370257,1.58254 2.740528,3.16509 3.422999,5.15472 0.68247,1.98962 0.67717,4.38598 0.199083,6.46367 -0.478087,2.07768 -1.428756,3.83652 -1.898697,2.80781 -0.469942,-1.02871 -0.459309,-4.84481 0.0107,-8.39648 0.470006,-3.55167 1.399521,-6.83907 2.328968,-10.12622 -1.49773,3.12438 -2.99561,6.24907 -3.701905,9.99065 -0.706295,3.74158 -0.621313,8.10024 0.06118,11.04818 0.682496,2.94794 1.962441,4.48523 3.470634,4.69329 1.508193,0.20807 3.244876,-0.91325 4.113388,-1.47401 0.868511,-0.56077 0.868441,-0.56077 1.404807,-2.19062 z"
       id="path19044-0"
       inkscape:path-effect="#path-effect1094"
       inkscape:original-d="m 53.223328,473.0324 c 1.07257,-3.25976 2.14541,-6.51978 3.21851,-9.78007 -0.78101,-2.80314 -1.56172,-5.60643 -2.34218,-8.41005 1.17351,-2.38263 3.52124,-7.14853 3.52124,-7.14853 0,0 -3.18692,5.99581 -4.77998,8.99332 0.0794,2.36055 0.15907,4.72074 0.23901,7.08072 -1.31744,-2.73984 -2.63456,-5.47983 -3.95144,-8.22014 -1.59362,-0.70511 -4.77995,-2.11609 -4.77995,-2.11609 0,0 2.74024,3.16534 4.11077,4.74761 -0.006,2.39673 -0.0109,4.79309 -0.0159,7.18924 -0.95097,1.75917 -1.90164,3.51801 -2.85206,5.27662 0.0104,-3.81598 0.021,-7.63208 0.0319,-11.44851 0.9292,-3.28696 2.78834,-9.86146 2.78834,-9.86146 0,0 -2.99572,6.24902 -4.49319,9.37314 0.0847,4.3591 0.1697,8.71776 0.25495,13.07625 1.27972,1.53762 2.55967,3.07491 3.8399,4.61196 1.73649,-1.12109 3.47317,-2.24241 5.21015,-3.36401 z" />
    <path
       style="fill:#e0e0e0;fill-opacity:1;stroke:none;stroke-width:0.264583px;stroke-linecap:butt;stroke-linejoin:miter;stroke-opacity:1"
       d="m 50.673966,472.53519 c 0.318618,-1.0398 0.955951,-3.1197 0.910876,-5.56142 -0.04508,-2.44172 -0.772721,-5.24519 -1.500334,-8.04854 -0.02657,2.97969 -0.05314,5.95964 -0.377232,7.87227 -0.324097,1.91264 -0.945478,2.75815 -1.42335,2.17933 -0.477872,-0.57882 -0.812469,-2.58182 -0.708965,-4.44918 0.103503,-1.86736 0.645324,-3.59938 1.187057,-5.33113 -0.743553,1.10777 -1.487313,2.21585 -1.715574,4.50827 -0.22826,2.29242 0.05853,5.76941 0.695761,7.61179 0.637228,1.84238 1.625059,2.05037 2.119091,2.15438 0.494032,0.10402 0.494052,0.10402 0.81267,-0.93577 z"
       id="path19246-9"
       inkscape:path-effect="#path-effect1098"
       inkscape:original-d="m 50.355348,473.57498 c 0.63706,-2.07964 1.2744,-4.15954 1.912,-6.23971 -0.7279,-2.80314 -2.18284,-8.41004 -2.18284,-8.41004 0,0 -0.0534,5.95964 -0.0797,8.93906 -0.62168,0.84581 -1.24306,1.69132 -1.86418,2.53658 -0.33488,-2.00281 -0.66947,-4.00581 -1.00381,-6.00911 0.54148,-1.73152 1.6252,-5.19524 1.6252,-5.19524 0,0 -1.48738,2.21581 -2.23066,3.32332 0.28654,3.47739 0.57333,6.95438 0.8604,10.43117 0.98761,0.20826 1.97544,0.41625 2.96357,0.62397 z" />
  </g>
</svg>
