<?xml version="1.0" encoding="UTF-8" standalone="no"?>
<!-- Created with Inkscape (http://www.inkscape.org/) -->

<svg
   width="322.98657mm"
   height="290.72736mm"
   viewBox="0 0 322.98657 290.72736"
   version="1.1"
   id="svg7224"
   inkscape:version="1.1.1 (3bf5ae0d25, 2021-09-20)"
   sodipodi:docname="owl-cave-entrance.svg"
   xmlns:inkscape="http://www.inkscape.org/namespaces/inkscape"
   xmlns:sodipodi="http://sodipodi.sourceforge.net/DTD/sodipodi-0.dtd"
   xmlns="http://www.w3.org/2000/svg"
   xmlns:svg="http://www.w3.org/2000/svg">
  <sodipodi:namedview
     id="namedview7226"
     pagecolor="#505050"
     bordercolor="#eeeeee"
     borderopacity="1"
     inkscape:pageshadow="0"
     inkscape:pageopacity="0"
     inkscape:pagecheckerboard="0"
     inkscape:document-units="mm"
     showgrid="false"
     fit-margin-top="0"
     fit-margin-left="0"
     fit-margin-right="0"
     fit-margin-bottom="0"
     inkscape:zoom="0.77771465"
     inkscape:cx="760.56173"
     inkscape:cy="536.18638"
     inkscape:window-width="1272"
     inkscape:window-height="1405"
     inkscape:window-x="1282"
     inkscape:window-y="4"
     inkscape:window-maximized="0"
     inkscape:current-layer="g7219" />
  <defs
     id="defs7221">
    <inkscape:path-effect
       effect="bspline"
       id="path-effect38209"
       is_visible="true"
       lpeversion="1"
       weight="33.333333"
       steps="2"
       helper_size="0"
       apply_no_weight="true"
       apply_with_weight="true"
       only_selected="false" />
    <inkscape:path-effect
       effect="bspline"
       id="path-effect3317"
       is_visible="true"
       lpeversion="1"
       weight="33.333333"
       steps="2"
       helper_size="0"
       apply_no_weight="true"
       apply_with_weight="true"
       only_selected="false" />
    <inkscape:path-effect
       effect="bspline"
       id="path-effect3387"
       is_visible="true"
       lpeversion="1"
       weight="33.333333"
       steps="2"
       helper_size="0"
       apply_no_weight="true"
       apply_with_weight="true"
       only_selected="false" />
    <inkscape:path-effect
       effect="bspline"
       id="path-effect3490"
       is_visible="true"
       lpeversion="1"
       weight="33.333333"
       steps="2"
       helper_size="0"
       apply_no_weight="true"
       apply_with_weight="true"
       only_selected="false" />
    <inkscape:path-effect
       effect="bspline"
       id="path-effect36203"
       is_visible="true"
       lpeversion="1"
       weight="33.333333"
       steps="2"
       helper_size="0"
       apply_no_weight="true"
       apply_with_weight="true"
       only_selected="false" />
    <inkscape:path-effect
       effect="bspline"
       id="path-effect1729"
       is_visible="true"
       lpeversion="1"
       weight="33.333333"
       steps="2"
       helper_size="0"
       apply_no_weight="true"
       apply_with_weight="true"
       only_selected="false" />
    <inkscape:path-effect
       effect="bspline"
       id="path-effect35082"
       is_visible="true"
       lpeversion="1"
       weight="33.333333"
       steps="2"
       helper_size="0"
       apply_no_weight="true"
       apply_with_weight="true"
       only_selected="false" />
    <inkscape:path-effect
       effect="bspline"
       id="path-effect34880"
       is_visible="true"
       lpeversion="1"
       weight="33.333333"
       steps="2"
       helper_size="0"
       apply_no_weight="true"
       apply_with_weight="true"
       only_selected="false" />
    <inkscape:path-effect
       effect="bspline"
       id="path-effect35435"
       is_visible="true"
       lpeversion="1"
       weight="33.333333"
       steps="2"
       helper_size="0"
       apply_no_weight="true"
       apply_with_weight="true"
       only_selected="false" />
    <inkscape:path-effect
       effect="bspline"
       id="path-effect35505"
       is_visible="true"
       lpeversion="1"
       weight="33.333333"
       steps="2"
       helper_size="0"
       apply_no_weight="true"
       apply_with_weight="true"
       only_selected="false" />
    <inkscape:path-effect
       effect="bspline"
       id="path-effect35608"
       is_visible="true"
       lpeversion="1"
       weight="33.333333"
       steps="2"
       helper_size="0"
       apply_no_weight="true"
       apply_with_weight="true"
       only_selected="false" />
    <inkscape:path-effect
       effect="bspline"
       id="path-effect35678"
       is_visible="true"
       lpeversion="1"
       weight="33.333333"
       steps="2"
       helper_size="0"
       apply_no_weight="true"
       apply_with_weight="true"
       only_selected="false" />
    <inkscape:path-effect
       effect="bspline"
       id="path-effect35748"
       is_visible="true"
       lpeversion="1"
       weight="33.333333"
       steps="2"
       helper_size="0"
       apply_no_weight="true"
       apply_with_weight="true"
       only_selected="false" />
    <inkscape:path-effect
       effect="bspline"
       id="path-effect37110"
       is_visible="true"
       lpeversion="1"
       weight="33.333333"
       steps="2"
       helper_size="0"
       apply_no_weight="true"
       apply_with_weight="true"
       only_selected="false" />
    <inkscape:path-effect
       effect="bspline"
       id="path-effect37437"
       is_visible="true"
       lpeversion="1"
       weight="33.333333"
       steps="2"
       helper_size="0"
       apply_no_weight="true"
       apply_with_weight="true"
       only_selected="false" />
    <inkscape:path-effect
       effect="bspline"
       id="path-effect1155"
       is_visible="true"
       lpeversion="1"
       weight="33.333333"
       steps="2"
       helper_size="0"
       apply_no_weight="true"
       apply_with_weight="true"
       only_selected="false" />
    <inkscape:path-effect
       effect="bspline"
       id="path-effect204"
       is_visible="true"
       lpeversion="1"
       weight="33.333333"
       steps="2"
       helper_size="0"
       apply_no_weight="true"
       apply_with_weight="true"
       only_selected="false" />
    <inkscape:path-effect
       effect="bspline"
       id="path-effect1371"
       is_visible="true"
       lpeversion="1"
       weight="33.333333"
       steps="2"
       helper_size="0"
       apply_no_weight="true"
       apply_with_weight="true"
       only_selected="false" />
    <inkscape:path-effect
       effect="bspline"
       id="path-effect1578"
       is_visible="true"
       lpeversion="1"
       weight="33.333333"
       steps="2"
       helper_size="0"
       apply_no_weight="true"
       apply_with_weight="true"
       only_selected="false" />
  </defs>
  <g
     inkscape:label="Layer 1"
     inkscape:groupmode="layer"
     id="layer1"
     transform="translate(67.18121,-6.4010469)">
    <g
       id="g7219"
       transform="translate(-95.201506,-43.594537)">
      <path
         style="fill:#969896;fill-opacity:1;stroke:none;stroke-width:0.264583px;stroke-linecap:butt;stroke-linejoin:miter;stroke-opacity:1"
         d="m 28.020296,274.30956 c 0,0 0,0 11.590648,1.1983 11.590648,1.1983 34.77073,3.59478 51.731618,10.79466 16.960888,7.19988 27.701728,19.20238 44.348178,20.64139 16.64646,1.43901 39.19751,-7.68505 50.23338,-18.67693 11.03586,-10.99188 10.55623,-23.85122 6.65617,-33.17635 -3.90005,-9.32513 -11.2205,-15.11551 -9.33333,-20.49117 1.88718,-5.37565 12.98185,-10.33597 27.96923,-14.70064 14.98739,-4.36466 33.86644,-8.13344 45.27971,-13.51225 11.41327,-5.37881 15.3605,-12.36746 19.64219,-15.56731 4.2817,-3.19985 8.89698,-2.61081 13.51265,-2.02171 -1.6434,-5.7905 -3.28672,-11.58071 -3.59344,-16.404 -0.30671,-4.82329 0.72339,-8.67925 1.75347,-12.53512 0,0 7.35988,-1.24513 7.35988,-1.24513 -0.69195,-2.35637 -1.38381,-4.71242 -3.27875,-6.54674 -1.89494,-1.83432 -4.99327,-3.14649 -8.09135,-4.45855 4.08884,-2.47017 8.17776,-4.94039 10.64291,-5.41883 2.46514,-0.47845 3.30631,1.0341 4.14767,2.54699 10.48942,-10.46306 20.97885,-20.92613 24.32071,-30.52222 3.34187,-9.5961 -0.46381,-18.325193 -0.16491,-22.837273 0.2989,-4.51208 4.70193,-4.806604 9.10529,-5.10115 1.23452,2.79149 2.46918,5.583298 5.66171,6.67093 3.19254,1.087632 8.34257,0.471804 13.49293,-0.144064 0,0 -1.17951,241.072357 -1.17951,241.072357 0,0 -320.863484,6.84819 -320.863484,6.84819 0,0 -0.94357,-66.41338 -0.94357,-66.41338 z"
         id="path38207"
         inkscape:path-effect="#path-effect38209"
         inkscape:original-d="m 28.020296,274.30956 c 0,0 2.65e-4,2.6e-4 0,0 23.181272,2.39683 46.361353,4.79332 69.541631,7.18957 10.741543,12.00325 21.482383,24.00575 32.223183,36.00826 22.55222,-9.12416 45.10327,-18.24821 67.65452,-27.37271 -0.4794,-12.85959 -0.95903,-25.71893 -1.43894,-38.57879 -7.32048,-5.79035 -14.64093,-11.58073 -21.96179,-17.37151 11.09538,-4.96025 22.19005,-9.92057 33.28467,-14.88125 18.88007,-3.76867 37.75912,-7.53745 56.63828,-11.30657 3.94764,-6.98862 7.89486,-13.97727 11.84189,-20.9663 4.61602,0.58936 13.847,1.76729 13.847,1.76729 0,0 -3.28654,-11.58076 -4.93021,-17.37151 1.03037,-3.8557 3.09024,-11.56761 3.09024,-11.56761 0,0 7.35988,-1.24513 7.35988,-1.24513 0,0 -1.38364,-4.71247 -2.07586,-7.06911 -3.09788,-1.31183 -9.29424,-3.93618 -9.29424,-3.93618 0,0 8.17794,-4.94009 12.26651,-7.4105 0.84164,1.51317 2.52407,4.53866 2.52407,4.53866 0,0 20.9791,-20.92587 31.46827,-31.38919 -3.80555,-8.72919 -7.61124,-17.458281 -11.41727,-26.187814 4.40372,-0.294288 13.21009,-0.883639 13.21009,-0.883639 0,0 2.4693,5.583245 3.70356,8.374469 5.15072,-0.615614 15.45108,-1.847603 15.45108,-1.847603 0,0 -1.17951,241.072357 -1.17951,241.072357 0,0 -320.863484,6.84819 -320.863484,6.84819 0,0 -0.94357,-66.41338 -0.94357,-66.41338 z" />
      <path
         style="fill:#c5c8c6;fill-opacity:1;stroke:none;stroke-width:0.173743px;stroke-linecap:butt;stroke-linejoin:miter;stroke-opacity:1"
         d="m 290.20515,224.47832 c 1.95087,-0.66311 3.82337,-0.44128 5.18362,-1.03657 1.36026,-0.59529 2.20847,-2.00767 3.99102,-2.21178 1.78254,-0.20411 4.49906,0.80002 5.7498,1.83311 1.25075,1.03309 1.03594,2.0949 0.82111,3.15686 0.68643,0.35079 1.37308,0.7017 1.78121,1.1528 0.40812,0.4511 0.53806,1.00216 0.25699,1.62563 -0.28108,0.62347 -0.973,1.3194 -1.25626,2.02446 -0.28327,0.70506 -0.15781,1.41866 -0.33859,2.0303 -0.18078,0.61164 -0.66775,1.12148 -0.88828,1.77681 -0.22053,0.65532 -0.17472,1.456 -0.44037,2.23568 -0.26565,0.77968 -0.8424,1.53804 -1.5139,1.96171 -0.67149,0.42367 -1.43723,0.51219 -2.82026,0.26758 -1.38302,-0.24462 -3.38289,-0.82242 -4.83428,-2.15562 -1.45139,-1.33319 -2.35364,-3.42166 -4.21224,-5.03121 -1.85859,-1.60954 -4.67372,-2.74001 -7.48869,-3.87041 2.0291,-1.5481 4.05824,-3.09623 6.00912,-3.75935 z"
         id="path3315"
         inkscape:path-effect="#path-effect3317"
         inkscape:original-d="m 290.28334,223.59336 c 1.87266,0.22201 3.74516,0.44382 5.61747,0.66549 0.84843,-1.41226 1.69664,-2.82465 2.5447,-4.23724 2.71679,1.00434 5.4333,2.00848 8.14969,3.01245 -0.21467,1.06215 -0.6445,3.18588 -0.6445,3.18588 0,0 1.37303,0.7018 2.05928,1.05237 0.13024,0.55149 0.26018,1.10255 0.38989,1.65347 -0.69178,0.69632 -1.38371,1.39225 -2.07603,2.08806 0.12574,0.71401 0.25119,1.42761 0.37641,2.14107 -0.48671,0.51011 -0.97368,1.01996 -1.46082,1.52945 0.0461,0.80088 0.0919,1.60156 0.13741,2.40212 -0.5768,0.75904 -1.15355,1.5174 -1.73092,2.27598 -0.76588,0.0888 -1.53162,0.17735 -2.29786,0.26563 -1.99989,-0.57762 -3.99976,-1.15543 -6.00027,-1.73361 -0.90213,-2.08842 -1.80439,-4.17689 -2.70685,-6.2656 -2.81485,-1.13025 -8.44491,-3.39121 -8.44491,-3.39121 0,0 4.05839,-3.09604 6.08731,-4.64431 z"
         sodipodi:nodetypes="ccccccccccccccccc"
         transform="translate(2.5929389,1.9193039)" />
      <path
         style="fill:#b4b7b4;fill-opacity:1;stroke:none;stroke-width:0.173743px;stroke-linecap:butt;stroke-linejoin:miter;stroke-opacity:1"
         d="m 295.83179,236.69059 c 0.5214,0.0705 2.53545,0.34272 2.53808,0.1574 0.003,-0.18532 -1.51927,-0.76189 -2.27861,-1.34803 -0.75935,-0.58613 -0.75351,-1.18082 0.0733,-1.22138 0.82685,-0.0406 2.47536,0.47319 2.47454,0.39048 -8.2e-4,-0.0827 -1.64955,-0.76125 -2.25653,-1.54939 -0.60698,-0.78814 -0.17025,-1.68446 0.91122,-1.93947 1.08147,-0.25502 2.80676,0.1314 2.77615,0.0548 -0.0306,-0.0766 -1.81602,-0.61578 -2.52081,-1.28786 -0.7048,-0.67209 -0.32619,-1.47593 0.20661,-2.07583 0.53281,-0.5999 1.22061,-0.99656 1.37087,-0.83916 0.15026,0.15741 -0.23688,0.86913 -6.7e-4,1.18117 0.2362,0.31204 1.09537,0.22511 1.85353,0.44619 0.75817,0.22109 1.41434,0.74945 2.20764,0.44409 0.79329,-0.30537 1.72253,-1.44379 1.25549,-1.88552 -0.46705,-0.44174 -2.33015,-0.18608 -3.2905,-0.49828 -0.96034,-0.3122 -1.01639,-1.19203 -1.57954,-1.39622 -0.56316,-0.20418 -1.63317,0.26823 -2.6988,1.86221 -1.06563,1.59399 -2.12758,4.31098 -2.38737,6.07036 -0.25978,1.75938 0.28214,2.56174 0.82393,3.36391 1e-5,1e-5 2e-5,3e-5 0.52143,0.0705 z"
         id="path3385"
         inkscape:path-effect="#path-effect3387"
         inkscape:original-d="m 295.31038,236.62011 c 1.04278,0.14118 3.05683,0.41342 4.58605,0.6199 -1.52398,-0.57719 -3.04589,-1.15376 -4.57035,-1.73147 0.006,-0.59471 0.0119,-1.1894 0.0175,-1.78406 1.64782,0.51371 3.29633,1.02745 4.94506,1.54108 -1.65037,-0.67907 -3.2991,-1.35762 -4.94998,-2.03721 0.43729,-0.89666 0.87402,-1.79298 1.31058,-2.68977 1.72602,0.38679 3.45131,0.77321 5.17764,1.15967 -1.78756,-0.53965 -3.57297,-1.07884 -5.36124,-1.61907 0.37905,-0.80396 0.75765,-1.6078 1.13578,-2.41145 0.68735,-0.39599 1.37515,-0.79265 2.06237,-1.18939 -0.38656,0.71141 -0.7737,1.42313 -1.16077,2.13397 0.85919,-0.0866 1.71836,-0.17358 2.57755,-0.2608 0.65708,0.52914 1.31326,1.0575 1.96983,1.58613 0.93033,-1.13915 1.85957,-2.27757 2.78921,-3.41706 -1.86398,0.25608 -3.72708,0.51174 -5.59174,0.76731 -0.0558,-0.88029 -0.11187,-1.76012 -0.16823,-2.64096 -1.07006,0.47281 -2.14007,0.94522 -3.21004,1.41723 -1.06111,2.71576 -2.12318,5.43271 -3.18502,8.14881 0.54211,0.80255 1.08402,1.60492 1.62578,2.40711 0,0 2.8e-4,2.9e-4 2e-5,3e-5 z"
         sodipodi:nodetypes="sccccccccccccccccccss"
         transform="translate(2.5929389,1.9193039)" />
      <path
         style="fill:#b4b7b4;fill-opacity:1;stroke:none;stroke-width:0.173743px;stroke-linecap:butt;stroke-linejoin:miter;stroke-opacity:1"
         d="m 295.83012,223.29247 c -0.96604,0.0614 -1.93192,0.1227 -2.8931,0.0655 -0.96118,-0.0572 -1.9177,-0.23306 -2.87404,-0.40887 0,0 -3.7921,3.69917 -3.7921,3.69917 0,0 9.55924,-3.3558 9.55924,-3.3558 z"
         id="path3488"
         inkscape:path-effect="#path-effect3490"
         inkscape:original-d="m 295.83012,223.29247 c 0,0 -1.93191,0.12289 -2.89813,0.18407 -0.95618,-0.17564 -2.86901,-0.52744 -2.86901,-0.52744 l -3.7921,3.69917 z"
         sodipodi:nodetypes="ccccc"
         transform="translate(2.5929389,1.9193039)" />
      <path
         style="fill:#1d1f21;fill-opacity:1;stroke:none;stroke-width:0.264583px;stroke-linecap:butt;stroke-linejoin:miter;stroke-opacity:1"
         d="m 259.3591,177.19251 c 2.14169,8.18717 4.28345,16.37465 4.40812,22.91108 0.12468,6.53644 -1.7674,11.42195 -3.65957,16.3077 6.69537,1.0931 13.39103,2.18625 19.10658,3.48296 5.71555,1.29671 10.45076,2.79682 15.18638,4.29706 -2.49516,1.59761 -4.99026,3.19517 -6.25607,5.04963 -1.26582,1.85445 -1.3022,3.96539 -4.70698,4.33037 -3.40478,0.36498 -10.17798,-1.01574 -17.5206,-2.71736 -7.34263,-1.70161 -15.25423,-3.72402 -19.59751,-6.12034 -4.34328,-2.39632 -5.11781,-5.16664 -4.10679,-8.87537 1.01103,-3.70873 3.80768,-8.35549 6.60435,-13.00227 -5.90003,0.95591 -11.79985,1.91179 -19.17625,2.22381 -7.3764,0.31202 -16.22887,-0.0199 -21.41171,0.79002 -5.18284,0.8099 -6.69548,2.76147 -8.20817,4.71312 -1.38274,-1.9782 -2.76528,-3.95612 -3.92202,-1.95799 -1.15674,1.99813 -2.08721,7.97244 -4.35092,10.71395 -2.26372,2.74151 -5.86115,2.25025 -9.45835,1.75903 -1.61146,1.55777 -3.22292,3.11554 -7.61537,3.32576 -4.39245,0.21023 -11.56622,-0.92714 -18.73982,-2.06449 0,0 21.11534,-47.8087 21.11534,-47.8087 0,0 52.61607,-2.69521 52.61607,-2.69521 0,0 12.22717,-41.82425 12.22717,-41.82425 0,0 20.77741,2.883 20.77741,2.883 0,0 4.86248,18.40162 4.86248,18.40162 0,0 -8.17377,25.87687 -8.17377,25.87687 z"
         id="path36201"
         inkscape:path-effect="#path-effect36203"
         inkscape:original-d="m 259.3591,177.19251 c 0,0 4.28363,16.3746 6.42506,24.56152 -1.89195,4.88612 -5.67651,14.65726 -5.67651,14.65726 0,0 13.391,2.18646 20.08611,3.2793 4.73597,1.50053 14.20685,4.50072 14.20685,4.50072 0,0 -4.99006,3.19548 -7.48549,4.79282 -0.0361,2.11127 -0.0725,4.2222 -0.10917,6.33288 -6.77321,-1.38051 -13.54641,-2.76124 -20.32001,-4.14226 -7.91166,-2.02221 -15.82326,-4.04463 -23.73529,-6.06735 -0.7743,-2.77016 -1.54883,-5.54048 -2.32364,-8.31109 2.79699,-4.64661 8.39,-13.94034 8.39,-13.94034 0,0 -11.7998,1.91209 -17.7001,2.86774 -8.85256,-0.33165 -17.70503,-0.66355 -26.55795,-0.99573 -1.51246,1.95194 -4.53808,5.85494 -4.53808,5.85494 0,0 -2.76522,-3.95616 -4.14823,-5.93461 -0.93024,5.9748 -1.8607,11.94911 -2.79145,17.92327 -3.59701,-0.49096 -10.79161,-1.47367 -10.79161,-1.47367 0,0 -3.22265,3.11581 -4.83438,4.67331 -7.17348,-1.1371 -21.52081,-3.41204 -21.52081,-3.41204 l 21.11534,-47.8087 52.61607,-2.69521 12.22717,-41.82425 20.77741,2.883 4.86248,18.40162 z"
         sodipodi:nodetypes="ccccccccccccccccccccccccc" />
      <path
         style="fill:#c5c8c6;fill-opacity:1;stroke:none;stroke-width:0.264583px;stroke-linecap:butt;stroke-linejoin:miter;stroke-opacity:1"
         d="m 228.77027,235.69742 c 0.50421,0.9939 1.51241,2.9813 2.61392,3.28653 1.1015,0.30524 2.29636,-1.07142 4.37937,-1.22822 2.08301,-0.15679 5.05366,0.90623 7.21155,1.26349 2.15789,0.35725 3.50288,0.009 4.84808,-0.33943 -1.05359,1.20929 -2.1072,2.4186 -3.81559,2.77783 -1.7084,0.35923 -4.07215,-0.13168 -6.43563,-0.62253 3.06901,0.92732 6.13834,1.85473 8.45363,2.84702 2.3153,0.9923 3.87682,2.04941 4.30236,2.8101 0.42554,0.7607 -0.28468,1.22519 -1.33815,1.00106 -1.05347,-0.22414 -2.45038,-1.13709 -4.02486,-1.72272 -1.57449,-0.58563 -3.32673,-0.84379 -5.07872,-1.10191 1.25342,0.76666 2.50714,1.53351 3.95695,2.77482 1.44982,1.24131 3.09596,2.95707 3.49568,4.05311 0.39971,1.09604 -0.44689,1.57253 -1.6274,0.91498 -1.18052,-0.65755 -2.69502,-2.44944 -4.15778,-3.74789 -1.46275,-1.29844 -2.87378,-2.10329 -3.73226,-2.44177 -0.85849,-0.33847 -1.1642,-0.21034 -0.53619,0.4325 0.62801,0.64284 2.1895,1.80003 3.08071,3.16555 0.8912,1.36553 1.11226,2.93914 0.75251,3.84396 -0.35975,0.90481 -1.30039,1.14105 -1.82962,0.67671 -0.52924,-0.46434 -0.64682,-1.62951 -1.578,-2.82885 -0.93118,-1.19935 -2.67644,-2.43285 -4.42143,-3.66617 0.71963,1.1332 1.43946,2.2667 2.06029,3.50605 0.62083,1.23935 1.1429,2.58476 0.9901,3.25534 -0.15281,0.67057 -0.9806,0.66661 -1.9096,-0.27825 -0.92899,-0.94485 -1.95904,-2.83083 -2.89972,-4.32244 -0.94068,-1.49162 -1.79199,-2.58876 -3.41703,-3.65399 -1.62504,-1.06523 -4.02377,-2.09832 -5.41142,-3.25148 -1.38765,-1.15316 -1.76401,-2.42681 -2.14029,-3.70017 2.56811,-1.56567 5.1363,-3.13138 6.42032,-3.9142 1.28402,-0.78281 1.28402,-0.78293 1.78822,0.21097 z"
         id="path1727"
         inkscape:path-effect="#path-effect1729"
         inkscape:original-d="m 228.26607,234.70352 c 1.00851,1.98775 2.01671,3.97515 3.02471,5.96239 1.19519,-1.37648 2.39005,-2.75314 3.58472,-4.13015 2.97102,1.06333 5.94166,2.12636 8.91208,3.18913 1.3455,-0.34811 4.03561,-1.0451 4.03561,-1.0451 0,0 -2.10692,2.41884 -3.16077,3.62786 -2.36326,-0.4906 -7.09045,-1.47256 -7.09045,-1.47256 0,0 6.13829,1.8549 9.20703,2.78195 1.56185,1.05744 3.12338,2.11453 4.68467,3.17141 -0.70997,0.46476 -1.42018,0.92927 -2.13067,1.39348 -1.3967,-0.91274 -2.79361,-1.82568 -4.19081,-2.73892 -1.75176,-0.25787 -5.25596,-0.77437 -5.25596,-0.77437 0,0 2.50709,1.53359 3.76025,2.29999 1.64652,1.71614 3.29266,3.4319 4.93866,5.14751 -0.84639,0.47678 -1.69299,0.95327 -2.5399,1.42952 -1.51428,-1.79168 -3.02878,-3.58357 -4.54356,-5.37575 -1.41081,-0.80459 -2.82183,-1.60946 -4.23314,-2.41458 -0.30547,0.12841 -0.61119,0.25654 -0.91719,0.38442 1.56186,1.15753 3.12335,2.31471 4.68468,3.47171 0.22134,1.57398 0.44239,3.14759 0.6632,4.72104 -0.94045,0.23653 -1.88109,0.47277 -2.82207,0.70876 -0.11733,-1.16501 -0.23492,-2.33018 -0.35278,-3.49572 -1.74477,-1.23308 -5.23498,-3.69995 -5.23498,-3.69995 0,0 1.43953,2.26666 2.1589,3.3996 0.52236,1.34575 1.04443,2.69116 1.56625,4.03633 -0.82757,-0.004 -1.65536,-0.008 -2.48344,-0.0119 -1.02982,-1.88579 -2.05987,-3.77177 -3.0902,-5.65806 -0.85109,-1.09691 -1.7024,-2.19406 -2.554,-3.2915 -2.39857,-1.03285 -4.7973,-2.06594 -7.19635,-3.09933 -0.37601,-1.27312 -1.12883,-3.82008 -1.12883,-3.82008 0,0 5.13649,-3.13107 7.70434,-4.69701 z"
         sodipodi:nodetypes="cccccccccccccccccccccccccccccccc" />
      <path
         style="fill:#282a2e;fill-opacity:1;stroke:none;stroke-width:0.264583px;stroke-linecap:butt;stroke-linejoin:miter;stroke-opacity:1"
         d="m 229.66581,171.85527 c -8.90462,8.28454 -17.80905,16.56891 -20.11448,28.04019 -2.30543,11.47129 1.98816,26.12794 6.28193,40.7852 3.21253,-0.0575 6.42524,-0.11507 8.71757,-1.3365 2.29233,-1.22142 3.66468,-3.60679 5.03702,-5.99213 -0.83692,-6.00541 -1.67379,-12.01042 -2.92392,-16.42049 -1.25013,-4.41008 -2.91374,-7.22497 -4.57718,-10.03959 5.23986,-7.1162 10.47968,-14.23236 11.74294,-20.07172 1.26325,-5.83936 -1.45038,-10.40227 -4.16388,-14.96496 z"
         id="path35080"
         inkscape:path-effect="#path-effect35082"
         inkscape:original-d="m 229.66581,171.85527 c 0,0 -17.8088,16.56918 -26.71386,24.85362 4.29412,14.65781 12.88131,43.97177 12.88131,43.97177 0,0 6.42524,-0.1148 9.63758,-0.1726 1.37264,-2.38514 4.11701,-7.15603 4.11701,-7.15603 0,0 -1.67357,-12.01045 -2.51077,-18.01622 -1.6632,-2.8144 -4.99033,-8.44386 -4.99033,-8.44386 0,0 10.47998,-14.23214 15.71957,-21.3486 -2.71329,-4.56253 -8.14051,-13.68808 -8.14051,-13.68808 z"
         sodipodi:nodetypes="ccccccccc" />
      <path
         style="fill:#282a2e;fill-opacity:1;stroke:none;stroke-width:0.264583px;stroke-linecap:butt;stroke-linejoin:miter;stroke-opacity:1"
         d="m 141.81679,193.90409 c -3.71061,1.86463 -11.13192,5.59394 -18.59059,6.63904 -7.45867,1.04509 -14.9546,-0.59407 -19.2574,0.80121 -4.302797,1.39527 -5.411916,5.82474 -10.512052,8.15347 -5.100136,2.32873 -14.191214,2.55684 -12.926159,3.28363 1.265056,0.72679 12.885929,1.95218 16.789558,4.68687 3.903633,2.73469 0.09025,6.97847 8.555613,8.18263 8.46536,1.20416 29.20847,-0.63128 41.20039,-0.39508 11.99192,0.23621 15.23206,2.54378 19.22921,-1.95754 3.99715,-4.50132 8.75142,-15.81101 11.1224,-24.29079 2.37098,-8.47979 2.35852,-14.12933 6.20335,-16.64394 3.84484,-2.51461 11.54639,-1.89397 20.57541,-2.46959 9.02902,-0.57562 19.385,-2.34739 25.15188,-0.81142 5.76688,1.53598 6.94455,6.3792 8.72671,8.302 1.78216,1.92281 4.16863,0.92552 6.93835,-1.1142 2.76971,-2.03971 5.92263,-5.12177 9.0756,-8.20388 -5.41487,-6.80081 -10.82951,-13.60131 -12.403,-20.11049 -1.5735,-6.50918 0.69458,-12.72633 4.24024,-17.11621 3.54565,-4.38988 8.36848,-6.95207 12.6556,-5.23837 4.28712,1.7137 8.0382,7.70276 7.15631,15.60696 -0.88189,7.90421 -6.3963,17.72319 -11.91088,27.54245 1.83197,2.37126 3.66416,4.74282 6.25934,1.75867 2.59517,-2.98414 5.95369,-11.32317 7.59875,-20.33878 1.64505,-9.01561 1.57651,-18.70738 -1.81003,-24.73378 -3.38655,-6.0264 -10.09114,-8.387 -17.81479,-9.18543 -7.72365,-0.79844 -16.46579,-0.0346 -20.11729,2.06105 -3.6515,2.09562 -2.21214,5.52248 -3.23727,9.37369 -1.02513,3.85121 -4.51452,8.12684 -6.39321,12.1454 -1.87869,4.01856 -2.14661,7.77962 -7.10035,10.07119 -4.95373,2.29156 -14.59315,3.1138 -23.16112,5.04744 -8.56798,1.93363 -16.06391,4.97855 -20.38531,11.16423 -4.3214,6.18567 -5.46788,15.51118 -6.61441,24.83709 -0.98452,-2.88054 -1.96893,-5.76075 -5.59231,-8.02871 -3.62338,-2.26796 -9.88558,-3.92304 -11.98234,-3.96804 -2.09677,-0.045 -0.0281,1.51989 1.00615,2.30225 1.03423,0.78235 1.03426,0.78235 -2.67635,2.64698 z"
         id="path34878"
         inkscape:path-effect="#path-effect34880"
         inkscape:original-d="m 145.5274,192.03946 c -7.42105,3.72959 -14.84236,7.4589 -22.26394,11.18793 -7.49597,-1.63896 -14.9919,-3.27813 -22.48825,-4.9176 -1.108896,4.4299 -2.218013,8.85937 -3.327417,13.28865 -9.091175,0.22836 -18.182253,0.45646 -27.273778,0.68432 11.621605,1.22571 23.242478,2.4511 34.863325,3.67625 -3.81328,4.24424 -7.626662,8.48802 -11.440388,12.73162 20.744198,-1.83523 41.487298,-3.6707 62.230548,-5.50643 3.24053,2.30793 6.48067,4.6155 9.7206,6.92282 4.75473,-11.30988 9.50901,-22.61957 14.26311,-33.92977 -0.0122,-5.64951 -0.0247,-11.29905 -0.0374,-16.94897 7.70212,0.62093 15.40367,1.24159 23.10511,1.86198 10.35667,-1.77157 20.71265,-3.54335 31.06857,-5.31542 1.17798,4.84367 2.35566,9.68689 3.53308,14.52993 2.38684,-0.99705 4.77331,-1.99435 7.15957,-2.99193 3.1533,-3.08189 9.45892,-9.24634 9.45892,-9.24634 0,0 -10.82948,-13.60133 -16.24462,-20.40242 2.26844,-6.21713 4.53653,-12.43428 6.80439,-18.65183 4.82329,-2.56201 9.64612,-5.12421 14.46878,-7.6867 3.75149,5.98953 7.50256,11.97859 11.25345,17.96751 -5.51442,9.81972 -16.54373,29.45778 -16.54373,29.45778 0,0 3.6642,4.74279 5.4959,7.11378 3.35893,-8.33912 6.71745,-16.67815 10.07578,-25.01763 -0.0683,-9.69187 -0.13682,-19.38364 -0.20562,-29.07585 -6.7046,-2.36043 -13.40919,-4.72104 -20.11419,-7.08195 -8.74223,0.76417 -17.48437,1.52805 -26.22695,2.29169 1.43969,3.42725 2.87906,6.85411 4.31819,10.28078 -3.48925,4.27604 -6.97863,8.55168 -10.46834,12.82711 -0.26767,3.76147 -0.5356,7.52253 -0.8038,11.28339 -9.63953,0.82254 -19.27895,1.64476 -28.91882,2.46677 -7.49597,3.0453 -14.9919,6.09023 -22.48825,9.13495 -1.14629,9.32635 -3.43959,27.97773 -3.43959,27.97773 0,0 -1.96877,-5.7608 -2.95356,-8.64161 -6.26218,-1.65487 -12.52438,-3.30994 -18.78696,-4.96533 2.06906,1.56525 4.13777,3.13012 6.20625,4.69479 z" />
      <path
         style="fill:#969896;stroke:none;stroke-width:0.264583px;stroke-linecap:butt;stroke-linejoin:miter;stroke-opacity:1"
         d="m 74.162373,218.32452 c 7.225593,1.48697 14.451493,2.974 18.305875,5.86843 3.854382,2.89444 4.337808,7.19593 9.983332,8.60749 5.64552,1.41156 16.45228,-0.0665 27.25948,-1.54462 -10.99954,3.30143 -21.99891,6.6028 -28.57995,5.50099 -6.581053,-1.10182 -8.743487,-6.60703 -12.501792,-10.41308 -3.758304,-3.80605 -9.11273,-5.91267 -14.466945,-8.01921 z"
         id="path35433"
         inkscape:path-effect="#path-effect35435"
         inkscape:original-d="m 74.162373,218.32452 c 0,0 14.451449,2.97421 21.676778,4.4609 0.483711,4.30194 0.967139,8.60343 1.45031,12.90476 10.807679,-1.47788 32.421599,-4.43436 32.421599,-4.43436 0,0 -21.99881,6.60312 -32.99861,9.90428 -2.162257,-5.50516 -4.324688,-11.01037 -6.487432,-16.51596 -5.354058,-2.10632 -16.062645,-6.31962 -16.062645,-6.31962 z" />
      <path
         style="fill:#969896;stroke:none;stroke-width:0.264583px;stroke-linecap:butt;stroke-linejoin:miter;stroke-opacity:1"
         d="m 70.060934,207.80953 c 7.397136,-1.10637 14.794492,-2.21278 20.29159,-4.51628 5.497098,-2.30349 9.094217,-5.80399 15.093236,-7.20906 5.99903,-1.40508 14.39898,-0.71474 22.79938,-0.0244 -8.73829,-1.29224 -17.47629,-2.58444 -23.9639,-1.56437 -6.487601,1.02008 -10.724104,4.35242 -16.05232,6.95683 -5.328216,2.60441 -11.748124,4.48083 -18.167986,6.35724 z"
         id="path35503"
         inkscape:path-effect="#path-effect35505"
         inkscape:original-d="m 70.060934,207.80953 c 0,0 14.794537,-2.21248 22.191409,-3.31912 3.597534,-3.50039 7.194658,-7.00088 10.791587,-10.50171 8.40084,0.69064 25.20121,2.07113 25.20121,2.07113 0,0 -17.47632,-2.58424 -26.21488,-3.87673 -4.236397,3.33272 -8.472895,6.66507 -12.709739,9.99721 -6.419725,1.87671 -19.259587,5.62922 -19.259587,5.62922 z" />
      <path
         style="fill:#969896;fill-opacity:1;stroke:none;stroke-width:0.264583px;stroke-linecap:butt;stroke-linejoin:miter;stroke-opacity:1"
         d="m 139.7853,190.53681 c -3.24372,-0.39829 -6.48715,-0.79655 -11.48015,-2.28571 -4.99299,-1.48917 -11.73501,-4.06918 -17.73915,-4.27282 -6.00415,-0.20364 -11.270017,1.96928 -16.535861,4.1422 5.790874,-0.91166 11.581961,-1.82335 17.346951,-1.21696 5.76498,0.60639 11.50375,2.73059 16.23416,3.58907 4.73042,0.85847 8.45208,0.45136 12.17405,0.0442 z"
         id="path35606"
         inkscape:path-effect="#path-effect35608"
         inkscape:original-d="m 139.7853,190.53681 c 0,0 -6.48718,-0.79634 -9.73117,-1.19488 -6.74202,-2.57987 -13.48404,-5.15988 -20.22646,-7.7402 -5.26569,2.17321 -15.797531,6.51875 -15.797531,6.51875 0,0 11.582011,-1.82303 17.372621,-2.73497 5.73926,2.12455 11.47802,4.24876 17.21664,6.37273 3.7223,-0.40688 11.1659,-1.22143 11.1659,-1.22143 z" />
      <path
         style="fill:#969896;fill-opacity:1;stroke:none;stroke-width:0.264583px;stroke-linecap:butt;stroke-linejoin:miter;stroke-opacity:1"
         d="m 160.19889,193.81611 c -1.03446,-2.73054 -2.06879,-5.46076 -5.78813,-7.20456 -3.71934,-1.7438 -10.12348,-2.50054 -14.58881,-3.71306 -4.46534,-1.21252 -6.99194,-2.8811 -9.51829,-4.54952 2.61992,2.58007 5.24011,5.1604 9.42219,6.77117 4.18208,1.61077 9.92605,2.25245 13.59861,3.54042 3.67257,1.28797 5.27336,3.2216 6.87443,5.15555 z"
         id="path35676"
         inkscape:path-effect="#path-effect35678"
         inkscape:original-d="m 160.19889,193.81611 c 0,0 -2.06865,-5.46081 -3.10337,-8.19163 -6.40413,-0.7565 -12.80827,-1.51323 -19.2128,-2.27026 -2.52614,-1.6682 -7.57906,-5.00525 -7.57906,-5.00525 0,0 5.24011,5.1604 7.85977,7.7402 5.74447,0.64198 11.48844,1.28365 17.23226,1.92508 1.60137,1.93426 4.8032,5.80186 4.8032,5.80186 z" />
      <path
         style="fill:#969896;fill-opacity:1;stroke:none;stroke-width:0.264583px;stroke-linecap:butt;stroke-linejoin:miter;stroke-opacity:1"
         d="m 113.21175,177.8179 c -7.41792,0.61073 -14.835604,1.22143 -20.332941,3.88124 -5.497336,2.6598 -9.07367,7.36843 -13.468787,10.87562 -4.395117,3.50719 -9.608999,5.81288 -14.822864,8.11856 5.775275,-2.10653 11.550699,-4.21312 16.27068,-7.38179 4.719981,-3.16866 8.384675,-7.39935 13.601318,-10.1587 5.216643,-2.75935 11.984444,-4.04711 18.752594,-5.33493 z"
         id="path35746"
         inkscape:path-effect="#path-effect35748"
         inkscape:original-d="m 113.21175,177.8179 c 0,0 -14.835581,1.22171 -22.25377,1.83218 -3.576217,4.70908 -7.152553,9.41771 -10.729227,14.12619 -5.213705,2.306 -15.641595,6.91705 -15.641595,6.91705 0,0 11.550816,-4.2128 17.325826,-6.3196 3.665114,-4.23061 7.329818,-8.46129 10.994329,-12.69235 6.768547,-1.28757 20.304437,-3.86347 20.304437,-3.86347 z" />
      <path
         style="fill:#969896;fill-opacity:1;stroke:none;stroke-width:0.246299px;stroke-linecap:butt;stroke-linejoin:miter;stroke-opacity:1"
         d="m 84.70764,144.87406 c -8.127563,1.87617 -16.418941,4.4558 -24.073702,6.61632 -7.654761,2.16053 -14.672652,3.90186 -12.24667,3.95256 2.425982,0.0507 14.295433,-1.58927 21.962602,-3.29875 7.667169,-1.70948 11.131764,-3.48828 12.381992,-3.37203 1.250228,0.11626 0.286296,2.12744 -2.293605,3.63204 -2.579902,1.5046 -6.775931,2.50257 -6.246793,2.70547 0.529138,0.2029 5.78326,-0.38931 5.081936,0.11066 -0.701325,0.49996 -7.35793,2.09209 -15.062143,3.26127 -7.704212,1.16918 -16.4556,1.9153 -22.890066,1.87786 -6.434466,-0.0374 -10.551695,-0.85854 -9.761443,-0.58256 0.790253,0.27597 6.487856,1.64897 14.75213,1.66959 8.264275,0.0206 19.094702,-1.31094 26.292322,-2.32425 7.197621,-1.01332 10.762101,-1.70829 10.729311,-1.23682 -0.03279,0.47147 -3.662707,2.10941 -8.851801,3.4635 -5.189094,1.35408 -11.937102,2.42417 -12.3334,2.79695 -0.396298,0.37277 5.558988,0.0482 5.529341,0.54018 -0.02965,0.492 -6.044084,1.80062 -4.614144,2.15012 1.429941,0.34951 10.30399,-0.26016 13.488615,-0.1092 3.184625,0.15096 0.679817,1.06264 1.190393,1.63016 0.510576,0.56753 4.036343,0.79073 7.723883,1.05219 3.68754,0.26145 7.536638,0.56114 8.325005,1.09955 0.788367,0.53841 -1.483897,1.31565 -0.564769,1.47367 0.919127,0.15802 5.029465,-0.30324 9.460146,-0.64212 4.43068,-0.33888 9.18142,-0.55538 9.90131,-1.05795 0.71989,-0.50257 -2.59105,-1.2913 -2.49285,-1.975 0.0982,-0.68369 3.60548,-1.26214 4.25687,-2.14133 0.6514,-0.87918 -1.55308,-2.05931 0.20891,-2.90934 1.762,-0.85003 7.49023,-1.36969 13.27082,-2.12584 5.78058,-0.75616 11.61319,-1.74873 11.32448,-1.96824 -0.28871,-0.21951 -6.69862,0.33401 -12.51254,0.38677 -5.81392,0.0528 -11.03149,-0.39529 -11.8443,-0.92686 -0.8128,-0.53157 2.7792,-1.14653 2.7656,-1.59216 -0.0136,-0.44563 -3.63272,-0.72202 -2.29297,-0.97348 1.33976,-0.25145 7.63825,-0.47791 14.5615,-1.3229 6.92325,-0.84498 14.47089,-2.30837 13.89447,-2.78251 -0.57642,-0.47415 -9.27671,0.0409 -16.01458,0.11121 -6.73787,0.0703 -11.51299,-0.30419 -11.21407,-0.5827 0.29892,-0.27851 5.67181,-0.46096 4.8839,-0.8876 -0.78791,-0.42664 -7.73646,-1.09748 -8.82306,-1.81398 -1.0866,-0.71649 3.68871,-1.47849 8.14924,-2.35318 4.46053,-0.87469 8.60602,-1.86198 7.09436,-2.01448 -1.51167,-0.15251 -8.68033,0.52972 -10.34614,0.006 -1.66582,-0.52411 2.17127,-2.25439 -1.09495,-2.45147 -3.26622,-0.19707 -13.63552,1.13896 -16.08609,1.17568 -2.450563,0.0367 3.01763,-1.22581 1.76986,-1.27068 -1.24777,-0.0449 -9.211348,1.1279 -17.33891,3.00408 z"
         id="path37108"
         inkscape:path-effect="#path-effect37110"
         inkscape:original-d="m 84.871096,144.17072 c -8.290948,2.57974 -16.582325,5.15937 -24.87412,7.73887 -7.017743,1.74154 -14.035632,3.48289 -21.054092,5.22412 11.870398,-1.63985 23.739843,-3.27985 35.609116,-4.91997 3.465177,-1.77876 6.929767,-3.55757 10.394032,-5.33653 -0.963557,2.01139 -1.927478,4.02258 -2.891856,6.03368 -4.19577,0.99813 -8.3918,1.99609 -12.588326,2.99395 5.254772,-0.5921 10.508892,-1.18432 15.762712,-1.77665 -6.656437,1.59231 -13.313042,3.18444 -19.970199,4.77648 -8.751304,0.74628 -17.502693,1.49238 -26.254674,2.2384 -4.116971,-0.82101 -8.234199,-1.64212 -12.351933,-2.46335 5.698243,1.37316 11.395845,2.74616 17.093131,4.11907 10.831285,-1.33152 21.661713,-2.66308 32.491947,-3.99479 3.565025,-0.69488 7.129504,-1.38986 10.693646,-2.08497 -3.629644,1.63812 -7.259559,3.27606 -10.889957,4.9139 -6.747881,1.07024 -13.495887,2.14034 -20.244456,3.21034 5.955953,-0.32449 11.911239,-0.64909 17.866231,-0.97381 -6.014252,1.30878 -12.028688,2.61741 -18.043668,3.92594 8.874828,-0.60958 17.748877,-1.21925 26.622683,-1.82905 -2.504473,0.91184 -5.009286,1.8235 -7.514567,2.73507 3.526339,0.22334 7.052106,0.44654 10.577507,0.66962 3.849677,0.29983 7.698777,0.5995 11.547535,0.89908 -2.271938,0.77739 -4.544198,1.55464 -6.816938,2.33177 4.11093,-0.46116 8.221268,-0.92242 12.33127,-1.38382 4.75135,-0.21639 9.50209,-0.43289 14.2525,-0.64951 -3.31064,-0.78865 -6.62158,-1.57738 -9.93302,-2.36624 3.50786,-0.57835 7.01515,-1.1568 10.52208,-1.73539 -2.20413,-1.18005 -4.4086,-2.36018 -6.61354,-3.54045 5.72889,-0.51955 11.45712,-1.03921 17.18505,-1.559 5.83327,-0.99247 11.66588,-1.98504 17.49817,-2.97777 -6.40974,0.55367 -12.81965,1.10719 -19.23013,1.66058 -5.21738,-0.44796 -10.43495,-0.89601 -15.65306,-1.34419 3.59254,-0.61487 7.18454,-1.22981 10.77616,-1.84489 -3.61885,-0.27628 -7.23798,-0.55267 -10.85763,-0.82919 6.29917,-0.22636 12.59766,-0.45281 18.89585,-0.67939 7.54835,-1.46332 15.09598,-2.92673 22.64333,-4.39025 -8.70021,0.51519 -17.4005,1.03026 -26.10138,1.5452 -4.77488,-0.3744 -9.55,-0.7489 -14.32565,-1.12352 5.3735,-0.18235 10.74639,-0.36479 16.11893,-0.54738 -6.94837,-0.67074 -13.89692,-1.3416 -20.846,-2.01257 4.77592,-0.76192 9.55123,-1.52392 14.3262,-2.28604 4.14611,-0.98723 8.2916,-1.97451 12.43677,-2.96194 -7.16853,0.68237 -14.33719,1.3646 -21.50641,2.04671 3.83769,-1.73023 7.67477,-3.46053 11.51154,-5.19097 -10.3693,1.33621 -20.7386,2.67224 -31.10854,4.00818 5.468838,-1.26245 10.93703,-2.52499 16.40489,-3.78767 -7.96342,1.17295 -15.927,2.34569 -23.891134,3.51834 z" />
      <path
         sodipodi:type="star"
         style="fill:#969896;fill-opacity:1;fill-rule:evenodd;stroke:none"
         id="path37320"
         inkscape:flatsided="true"
         sodipodi:sides="8"
         sodipodi:cx="98.378075"
         sodipodi:cy="826.67194"
         sodipodi:r1="142.99355"
         sodipodi:r2="132.10881"
         sodipodi:arg1="0.883302"
         sodipodi:arg2="1.2760011"
         inkscape:rounded="0"
         inkscape:randomized="0"
         transform="matrix(0.20436873,0,-0.19310168,0.11486369,218.2116,-28.612893)"
         inkscape:transform-center-y="-1.8848413e-06"
         inkscape:transform-center-x="-1.4324365e-06"
         d="M 189.12216,937.18286 84.400812,968.98072 -12.132849,917.41603 -43.93071,812.69467 7.6339852,716.16101 112.35534,684.36315 208.889,735.92785 240.68686,840.6492 Z" />
      <path
         style="fill:#e0e0e0;fill-opacity:1;stroke:none;stroke-width:0.264583px;stroke-linecap:butt;stroke-linejoin:miter;stroke-opacity:1"
         d="m 113.95849,55.156574 c -0.50576,0.197568 -1.01138,0.39508 -2.70716,0.151983 -1.69577,-0.243097 -4.5816,-0.926958 -6.74473,0.952512 -2.16313,1.879471 -3.60307,6.322021 -6.747719,9.232188 -3.144652,2.910166 -7.994026,4.288016 -12.302009,3.41176 -4.307983,-0.876256 -8.074437,-4.006808 -11.823301,-3.550969 -3.748865,0.45584 -7.479613,4.498197 -11.496025,7.390707 -4.016411,2.89251 -8.318383,4.635089 -11.62072,4.966987 -3.302338,0.331898 -5.605367,-0.747229 -7.908123,-1.826228 0,0 6.319206,5.091051 6.319206,5.091051 0,0 25.473123,-3.464962 25.473123,-3.464962 0,0 28.614918,-10.668412 28.614918,-10.668412 0,0 12.10285,-9.574202 12.10285,-9.574202 0,0 -1.16031,-2.112415 -1.16031,-2.112415 z"
         id="path37435"
         inkscape:path-effect="#path-effect37437"
         inkscape:original-d="m 113.95849,55.156574 c 0,0 -1.01126,0.395399 -1.51729,0.592704 -2.88569,-0.683625 -5.77152,-1.367489 -8.65768,-2.05163 -1.43973,4.442995 -2.87967,8.885545 -4.319901,13.32792 -4.849301,1.37817 -9.698675,2.756019 -14.54841,4.133633 -3.766341,-3.130415 -7.532796,-6.260965 -11.299592,-9.391846 -3.730636,4.042786 -7.461385,8.085143 -11.192473,12.127317 -4.301879,1.742914 -8.603851,3.485492 -12.906173,5.227839 -2.302538,-1.078754 -6.908268,-3.236997 -6.908268,-3.236997 0,0 6.319206,5.091051 6.319206,5.091051 0,0 25.473123,-3.464962 25.473123,-3.464962 0,0 28.614918,-10.668412 28.614918,-10.668412 0,0 12.10285,-9.574202 12.10285,-9.574202 0,0 -1.16031,-2.112415 -1.16031,-2.112415 z" />
      <path
         style="fill:#c5c8c6;fill-opacity:1;stroke:none;stroke-width:0.264583px;stroke-linecap:butt;stroke-linejoin:miter;stroke-opacity:1"
         d="m 255.90964,142.50348 c -5.27224,-0.66942 -10.54418,-1.33881 -12.90915,1.66709 -2.36498,3.0059 -1.82243,9.6866 0.72345,14.36918 2.54588,4.68259 7.0943,7.36674 11.64313,10.05112 3.82149,-3.97637 7.64298,-7.95274 9.15468,-13.06704 1.51171,-5.1143 0.71362,-11.36657 -1.1067,-13.72645 -1.82032,-2.35987 -4.66288,-0.82688 -7.50541,0.7061 z"
         id="path1153"
         inkscape:path-effect="#path-effect1155"
         inkscape:original-d="m 255.90964,142.50348 c 0,0 -10.54421,-1.33858 -15.81672,-2.00827 0.54283,6.68124 1.08538,13.36194 1.62767,20.04251 4.54918,2.6847 13.64648,8.05315 13.64648,8.05315 0,0 7.64325,-7.95248 11.46447,-11.92911 -0.79786,-6.25226 -1.59595,-12.50453 -2.39432,-18.75721 -2.84232,1.53328 -8.52758,4.59893 -8.52758,4.59893 z" />
      <path
         style="fill:#969896;fill-opacity:1;stroke:none;stroke-width:0.264583px;stroke-linecap:butt;stroke-linejoin:miter;stroke-opacity:1"
         d="m 236.01423,146.52642 c 2.13091,-1.27525 4.26191,-2.55054 7.77887,-2.38644 3.51695,0.1641 8.41953,1.76734 12.49842,1.10787 4.07889,-0.65947 7.33415,-3.58144 9.52022,-4.3327 2.18607,-0.75127 3.3024,0.6676 4.41897,2.08678 -1.2699,-0.48868 -2.53949,-0.97724 -4.73939,0.27454 -2.1999,1.25178 -5.32937,4.24404 -9.3434,4.79469 -4.01403,0.55065 -8.91267,-1.34043 -12.41579,-2.00491 -3.50312,-0.66449 -5.61058,-0.10214 -7.7179,0.46017 z"
         id="path202"
         inkscape:path-effect="#path-effect204"
         inkscape:original-d="m 236.01423,146.52642 c 0,0 4.26209,-2.55024 6.39274,-3.82574 4.90303,1.60356 9.80561,3.2068 14.70802,4.8098 3.25567,-2.92182 6.51093,-5.84379 9.76601,-8.76609 1.11685,1.41946 3.34971,4.25754 3.34971,4.25754 0,0 -2.53954,-0.9771 -3.80971,-1.46605 -3.12932,2.99264 -6.25879,5.9849 -9.38858,8.97696 -4.89858,-1.89089 -9.79722,-3.78198 -14.69623,-5.67335 -2.1071,0.56258 -6.32196,1.68693 -6.32196,1.68693 z" />
      <path
         style="fill:#282a2e;fill-opacity:1;stroke:none;stroke-width:0.566915px;stroke-linecap:butt;stroke-linejoin:miter;stroke-opacity:1"
         d="m 260.8742,149.33846 c 1.70627,-1.50976 3.87124,-1.08661 3.24751,0.63457 -0.62374,1.72119 -4.0354,4.74042 -5.11796,4.529 -1.08256,-0.21143 0.16419,-3.65381 1.87045,-5.16357 z"
         id="path1369"
         inkscape:path-effect="#path-effect1371"
         inkscape:original-d="m 260.41484,147.40543 c 2.16554,0.42371 4.33052,0.84685 6.49492,1.26943 -3.41125,3.01997 -6.82292,6.03919 -10.23526,9.05796 1.24738,-3.44197 2.49414,-6.88435 3.74034,-10.32739 z" />
      <path
         style="fill:#282a2e;fill-opacity:1;stroke:none;stroke-width:0.566915px;stroke-linecap:butt;stroke-linejoin:miter;stroke-opacity:1"
         d="m 249.11037,149.97471 c -1.99039,-1.10864 -4.01421,-0.23097 -3.03581,1.31637 0.97841,1.54733 4.95826,3.76452 5.97028,3.32581 1.01201,-0.4387 -0.94409,-3.53355 -2.93447,-4.64218 z m 6.54218,9.66338 c -1.28956,1.52963 -2.57914,3.05929 -2.70872,4.32295 -0.12959,1.26366 0.90019,2.26081 1.93026,3.25825 0.94751,-1.21165 1.89499,-2.42327 2.02482,-3.68668 0.12984,-1.26341 -0.55834,-2.57911 -1.24636,-3.89452 z"
         id="path1369-3"
         inkscape:path-effect="#path-effect1578"
         inkscape:original-d="m 249.14442,147.98814 c -2.02426,0.87834 -4.04809,1.756 -6.07147,2.633 3.97962,2.21799 7.95948,4.43516 11.93991,6.65174 -1.95663,-3.0943 -3.91274,-6.18914 -5.86844,-9.28474 z m 6.50813,11.64995 c 0,0 -2.57885,3.05953 -3.86867,4.58889 1.03036,0.99772 3.09021,2.99231 3.09021,2.99231 0,0 1.89529,-2.42304 2.84253,-3.63496 -0.68777,-1.31518 -2.06407,-3.94624 -2.06407,-3.94624 z" />
    </g>
  </g>
</svg>
