<?xml version="1.0" encoding="UTF-8" standalone="no"?>
<!-- Created with Inkscape (http://www.inkscape.org/) -->

<svg
   width="232.49985mm"
   height="246.77428mm"
   viewBox="0 0 232.49984 246.77427"
   version="1.1"
   id="svg5"
   inkscape:version="1.1 (c68e22c387, 2021-05-23)"
   sodipodi:docname="owl-disguised.svg"
   xmlns:inkscape="http://www.inkscape.org/namespaces/inkscape"
   xmlns:sodipodi="http://sodipodi.sourceforge.net/DTD/sodipodi-0.dtd"
   xmlns="http://www.w3.org/2000/svg"
   xmlns:svg="http://www.w3.org/2000/svg">
  <sodipodi:namedview
     id="namedview7"
     pagecolor="#000000"
     bordercolor="#666666"
     borderopacity="1.0"
     inkscape:pageshadow="2"
     inkscape:pageopacity="0"
     inkscape:pagecheckerboard="0"
     inkscape:document-units="mm"
     showgrid="false"
     inkscape:snap-nodes="false"
     inkscape:zoom="0.81756524"
     inkscape:cx="378.56306"
     inkscape:cy="612.79513"
     inkscape:window-width="1918"
     inkscape:window-height="1055"
     inkscape:window-x="0"
     inkscape:window-y="0"
     inkscape:window-maximized="1"
     inkscape:current-layer="layer1"
     fit-margin-top="0"
     fit-margin-left="0"
     fit-margin-right="0"
     fit-margin-bottom="0" />
  <defs
     id="defs2">
    <inkscape:path-effect
       effect="bspline"
       id="path-effect4107"
       is_visible="true"
       lpeversion="1"
       weight="33.333333"
       steps="2"
       helper_size="0"
       apply_no_weight="true"
       apply_with_weight="true"
       only_selected="false" />
    <inkscape:path-effect
       effect="bspline"
       id="path-effect918"
       is_visible="true"
       lpeversion="1"
       weight="33.333333"
       steps="2"
       helper_size="0"
       apply_no_weight="true"
       apply_with_weight="true"
       only_selected="false" />
    <inkscape:path-effect
       effect="bspline"
       id="path-effect1172"
       is_visible="true"
       lpeversion="1"
       weight="33.333333"
       steps="2"
       helper_size="0"
       apply_no_weight="true"
       apply_with_weight="true"
       only_selected="false" />
    <inkscape:path-effect
       effect="bspline"
       id="path-effect25208"
       is_visible="true"
       lpeversion="1"
       weight="33.333333"
       steps="2"
       helper_size="0"
       apply_no_weight="true"
       apply_with_weight="true"
       only_selected="false" />
    <inkscape:path-effect
       effect="bspline"
       id="path-effect13170"
       is_visible="true"
       lpeversion="1"
       weight="33.333333"
       steps="2"
       helper_size="0"
       apply_no_weight="true"
       apply_with_weight="true"
       only_selected="false" />
    <inkscape:path-effect
       effect="bspline"
       id="path-effect12954"
       is_visible="true"
       lpeversion="1"
       weight="33.333333"
       steps="2"
       helper_size="0"
       apply_no_weight="true"
       apply_with_weight="true"
       only_selected="false" />
    <inkscape:path-effect
       effect="bspline"
       id="path-effect12370"
       is_visible="true"
       lpeversion="1"
       weight="33.333333"
       steps="2"
       helper_size="0"
       apply_no_weight="true"
       apply_with_weight="true"
       only_selected="false" />
    <inkscape:path-effect
       effect="bspline"
       id="path-effect10893"
       is_visible="true"
       lpeversion="1"
       weight="33.333333"
       steps="2"
       helper_size="0"
       apply_no_weight="true"
       apply_with_weight="true"
       only_selected="false" />
    <inkscape:path-effect
       effect="bspline"
       id="path-effect10790"
       is_visible="true"
       lpeversion="1"
       weight="33.333333"
       steps="2"
       helper_size="0"
       apply_no_weight="true"
       apply_with_weight="true"
       only_selected="false" />
    <inkscape:path-effect
       effect="bspline"
       id="path-effect10621"
       is_visible="true"
       lpeversion="1"
       weight="33.333333"
       steps="2"
       helper_size="0"
       apply_no_weight="true"
       apply_with_weight="true"
       only_selected="false" />
    <inkscape:path-effect
       effect="bspline"
       id="path-effect10116"
       is_visible="true"
       lpeversion="1"
       weight="33.333333"
       steps="2"
       helper_size="0"
       apply_no_weight="true"
       apply_with_weight="true"
       only_selected="false" />
    <inkscape:path-effect
       effect="bspline"
       id="path-effect9900"
       is_visible="true"
       lpeversion="1"
       weight="33.333333"
       steps="2"
       helper_size="0"
       apply_no_weight="true"
       apply_with_weight="true"
       only_selected="false" />
    <inkscape:path-effect
       effect="bspline"
       id="path-effect8796"
       is_visible="true"
       lpeversion="1"
       weight="33.333333"
       steps="2"
       helper_size="0"
       apply_no_weight="true"
       apply_with_weight="true"
       only_selected="false" />
    <inkscape:path-effect
       effect="bspline"
       id="path-effect7853"
       is_visible="true"
       lpeversion="1"
       weight="33.333333"
       steps="2"
       helper_size="0"
       apply_no_weight="true"
       apply_with_weight="true"
       only_selected="false" />
    <inkscape:path-effect
       effect="bspline"
       id="path-effect7634"
       is_visible="true"
       lpeversion="1"
       weight="33.333333"
       steps="2"
       helper_size="0"
       apply_no_weight="true"
       apply_with_weight="true"
       only_selected="false" />
    <inkscape:path-effect
       effect="bspline"
       id="path-effect6877"
       is_visible="true"
       lpeversion="1"
       weight="33.333333"
       steps="2"
       helper_size="0"
       apply_no_weight="true"
       apply_with_weight="true"
       only_selected="false" />
    <inkscape:path-effect
       effect="bspline"
       id="path-effect6405"
       is_visible="true"
       lpeversion="1"
       weight="33.333333"
       steps="2"
       helper_size="0"
       apply_no_weight="true"
       apply_with_weight="true"
       only_selected="false" />
    <inkscape:path-effect
       effect="bspline"
       id="path-effect6367"
       is_visible="true"
       lpeversion="1"
       weight="33.333333"
       steps="2"
       helper_size="0"
       apply_no_weight="true"
       apply_with_weight="true"
       only_selected="false" />
    <inkscape:path-effect
       effect="bspline"
       id="path-effect6160"
       is_visible="true"
       lpeversion="1"
       weight="33.333333"
       steps="2"
       helper_size="0"
       apply_no_weight="true"
       apply_with_weight="true"
       only_selected="false" />
    <inkscape:path-effect
       effect="bspline"
       id="path-effect5556"
       is_visible="true"
       lpeversion="1"
       weight="33.333333"
       steps="2"
       helper_size="0"
       apply_no_weight="true"
       apply_with_weight="true"
       only_selected="false" />
    <inkscape:path-effect
       effect="bspline"
       id="path-effect5358"
       is_visible="true"
       lpeversion="1"
       weight="33.333333"
       steps="2"
       helper_size="0"
       apply_no_weight="true"
       apply_with_weight="true"
       only_selected="false" />
    <inkscape:path-effect
       effect="bspline"
       id="path-effect4801"
       is_visible="true"
       lpeversion="1"
       weight="33.333333"
       steps="2"
       helper_size="0"
       apply_no_weight="true"
       apply_with_weight="true"
       only_selected="false" />
    <inkscape:path-effect
       effect="bspline"
       id="path-effect4698"
       is_visible="true"
       lpeversion="1"
       weight="33.333333"
       steps="2"
       helper_size="0"
       apply_no_weight="true"
       apply_with_weight="true"
       only_selected="false" />
    <inkscape:path-effect
       effect="bspline"
       id="path-effect4350"
       is_visible="true"
       lpeversion="1"
       weight="33.333333"
       steps="2"
       helper_size="0"
       apply_no_weight="true"
       apply_with_weight="true"
       only_selected="false" />
    <inkscape:path-effect
       effect="bspline"
       id="path-effect2633"
       is_visible="true"
       lpeversion="1"
       weight="33.333333"
       steps="2"
       helper_size="0"
       apply_no_weight="true"
       apply_with_weight="true"
       only_selected="false" />
    <inkscape:path-effect
       effect="bspline"
       id="path-effect2629"
       is_visible="true"
       lpeversion="1"
       weight="33.333333"
       steps="2"
       helper_size="0"
       apply_no_weight="true"
       apply_with_weight="true"
       only_selected="false" />
    <inkscape:path-effect
       effect="bspline"
       id="path-effect1687"
       is_visible="true"
       lpeversion="1"
       weight="33.333333"
       steps="2"
       helper_size="0"
       apply_no_weight="true"
       apply_with_weight="true"
       only_selected="false" />
    <inkscape:path-effect
       effect="bspline"
       id="path-effect1551"
       is_visible="true"
       lpeversion="1"
       weight="33.333333"
       steps="2"
       helper_size="0"
       apply_no_weight="true"
       apply_with_weight="true"
       only_selected="false" />
    <inkscape:path-effect
       effect="bspline"
       id="path-effect1302"
       is_visible="true"
       lpeversion="1"
       weight="33.333333"
       steps="2"
       helper_size="0"
       apply_no_weight="true"
       apply_with_weight="true"
       only_selected="false" />
    <inkscape:path-effect
       effect="bspline"
       id="path-effect1002"
       is_visible="true"
       lpeversion="1"
       weight="33.333333"
       steps="2"
       helper_size="0"
       apply_no_weight="true"
       apply_with_weight="true"
       only_selected="false" />
    <inkscape:path-effect
       effect="bspline"
       id="path-effect117"
       is_visible="true"
       lpeversion="1"
       weight="33.333333"
       steps="2"
       helper_size="0"
       apply_no_weight="true"
       apply_with_weight="true"
       only_selected="false" />
    <inkscape:path-effect
       effect="bspline"
       id="path-effect72"
       is_visible="true"
       lpeversion="1"
       weight="33.333333"
       steps="2"
       helper_size="0"
       apply_no_weight="true"
       apply_with_weight="true"
       only_selected="false" />
    <inkscape:path-effect
       effect="bspline"
       id="path-effect68"
       is_visible="true"
       lpeversion="1"
       weight="33.333333"
       steps="2"
       helper_size="0"
       apply_no_weight="true"
       apply_with_weight="true"
       only_selected="false" />
    <inkscape:path-effect
       effect="bspline"
       id="path-effect64"
       is_visible="true"
       lpeversion="1"
       weight="33.333333"
       steps="2"
       helper_size="0"
       apply_no_weight="true"
       apply_with_weight="true"
       only_selected="false" />
    <inkscape:path-effect
       effect="bspline"
       id="path-effect56"
       is_visible="true"
       lpeversion="1"
       weight="33.333333"
       steps="2"
       helper_size="0"
       apply_no_weight="true"
       apply_with_weight="true"
       only_selected="false" />
    <inkscape:path-effect
       effect="bspline"
       id="path-effect48"
       is_visible="true"
       lpeversion="1"
       weight="33.333333"
       steps="2"
       helper_size="0"
       apply_no_weight="true"
       apply_with_weight="true"
       only_selected="false" />
    <inkscape:path-effect
       effect="bspline"
       id="path-effect44"
       is_visible="true"
       lpeversion="1"
       weight="33.333333"
       steps="2"
       helper_size="0"
       apply_no_weight="true"
       apply_with_weight="true"
       only_selected="false" />
  </defs>
  <g
     inkscape:label="Layer 1"
     inkscape:groupmode="layer"
     id="layer1"
     transform="translate(-33.380141,-71.498696)">
    <path
       style="fill:#1d1f21;stroke:none;stroke-width:0.264583px;stroke-linecap:butt;stroke-linejoin:miter;stroke-opacity:1"
       d="m 139.11616,102.91049 c 0,0 11.13543,0.90819 11.13543,0.90819 0,0 -5.61887,20.96932 -5.61887,20.96932 0,0 -8.74612,0.0933 -8.74612,0.0933 0,0 3.22956,-21.97082 3.22956,-21.97082 0,0 0,10e-6 0,10e-6 z"
       id="path1170"
       inkscape:path-effect="#path-effect1172"
       inkscape:original-d="m 139.11616,102.91049 c 0,0 11.13543,0.90819 11.13543,0.90819 0,0 -5.61887,20.96932 -5.61887,20.96932 0,0 -8.74612,0.0933 -8.74612,0.0933 0,0 3.22956,-21.97082 3.22956,-21.97082 z" />
    <path
       style="fill:#1d1f21;fill-opacity:1;stroke:none;stroke-width:0.264583px;stroke-linecap:butt;stroke-linejoin:miter;stroke-opacity:1"
       d="m 107.72375,144.63226 c 0,0 -0.0207,2.81508 -0.0207,2.81508 0,0 1.48801,48.92958 1.48801,48.92958 -7.27462,0.15835 -14.548985,0.31669 -20.084365,4.43096 -5.535379,4.11427 -9.331049,12.184 -14.094606,16.91679 -4.763557,4.73278 -10.494934,6.12856 -9.633869,-3.58943 0.861064,-9.718 8.314676,-30.54931 15.768386,-51.38089 0,0 26.577104,-18.12209 26.577104,-18.12209 0,0 4e-5,0 4e-5,0 z"
       id="path25206"
       inkscape:path-effect="#path-effect25208"
       inkscape:original-d="m 107.72375,144.63226 c 0,0 -0.0207,2.81508 -0.0207,2.81508 0,0 1.48801,48.92958 1.48801,48.92958 0,0 -14.548979,0.31697 -21.823864,0.47505 -3.795559,8.07033 -7.591232,16.14006 -11.387243,24.20969 -5.731344,1.39611 -11.462721,2.79189 -17.194477,4.18743 7.454125,-20.83174 22.36113,-62.49474 22.36113,-62.49474 0,0 26.577104,-18.12209 26.577104,-18.12209 z" />
    <path
       style="fill:#373b41;fill-opacity:1;stroke:none;stroke-width:0.264583px;stroke-linecap:butt;stroke-linejoin:miter;stroke-opacity:1"
       d="m 140.81524,146.19774 c 0,0 -7.62821,30.59244 -7.62821,30.59244 3.49748,-0.40641 6.9952,-0.81284 8.26645,-5.91152 1.27126,-5.09869 0.3165,-14.88985 -0.63824,-24.68092 z"
       id="path12952"
       inkscape:path-effect="#path-effect12954"
       inkscape:original-d="m 140.81524,146.19774 c 0,0 -7.62821,30.59244 -7.62821,30.59244 0,0 6.99523,-0.81255 10.49244,-1.21922 -0.9545,-9.79101 -2.86423,-29.37322 -2.86423,-29.37322 z" />
    <path
       style="fill:#969896;fill-opacity:1;stroke:none;stroke-width:0.264583px;stroke-linecap:butt;stroke-linejoin:miter;stroke-opacity:1"
       d="m 139.96292,105.65272 c 2.85318,2.37994 -0.57845,7.35428 -0.90455,10.8764 -0.3261,3.52211 2.45255,5.59096 5.23169,7.66018 0,0 -16.26719,13.81849 -16.26719,13.81849 0,0 -9.19141,-34.30657 -9.19141,-34.30657 9.13869,-0.21421 18.27827,-0.42844 21.13146,1.9515 z"
       id="path7851"
       inkscape:path-effect="#path-effect7853"
       inkscape:original-d="m 146.24754,103.05859 c -3.43114,4.97428 -6.86277,9.94862 -10.29491,14.92306 2.7796,2.06963 8.33743,6.20765 8.33743,6.20765 l -16.26719,13.81849 -9.19141,-34.30657 c 0,0 18.27828,-0.42817 27.41608,-0.64263 z"
       sodipodi:nodetypes="cccccc" />
    <path
       style="fill:#1d1f21;fill-opacity:1;stroke:none;stroke-width:0.264583px;stroke-linecap:butt;stroke-linejoin:miter;stroke-opacity:1"
       d="m 101.4992,175.7575 c 2.90364,10.75595 5.80737,21.51221 6.85441,29.80644 1.04703,8.29424 0.23761,14.12662 -1.58266,17.14685 -1.82026,3.02023 -4.65152,3.22842 -8.2088,3.87955 -3.557279,0.65112 -7.840216,1.74513 -11.365412,4.09664 -3.525197,2.35151 -6.292012,5.96016 -9.010131,8.06805 -2.718119,2.1079 -5.387683,2.71493 -8.057107,3.32193 2.001206,1.40754 4.002678,2.81527 4.81368,4.35038 0.811002,1.53512 0.432168,3.19755 0.05328,4.86021 8.528999,-3.76933 17.057956,-7.53863 26.26299,-11.68549 9.20504,-4.14685 19.08537,-8.67088 24.69916,-19.43107 5.61379,-10.76019 6.96055,-27.75614 8.30732,-44.75218 0,0 -32.76673,0.33869 -32.76673,0.33869 z"
       id="path10114"
       inkscape:path-effect="#path-effect10116"
       inkscape:original-d="m 101.4992,175.7575 c 0,0 5.80755,21.51216 8.71093,32.26784 -0.8092,5.83288 -1.61862,11.66526 -2.42832,17.49749 -2.8311,0.20847 -5.66236,0.41666 -8.493931,0.6246 -4.282928,1.09434 -8.565865,2.18835 -12.849322,3.28216 -2.766721,3.60913 -5.533538,7.21777 -8.300786,10.82637 -2.669212,0.60728 -8.008271,1.821 -8.008271,1.821 0,0 4.002641,2.81532 6.003618,4.22262 -0.378627,1.66295 -1.136655,4.98797 -1.136655,4.98797 0,0 17.058099,-7.53831 25.586997,-11.30798 9.88118,-4.52403 19.76151,-9.04807 29.64216,-13.57264 1.34706,-16.99611 4.04031,-50.98812 4.04031,-50.98812 z"
       sodipodi:nodetypes="ccccccccccccc" />
    <path
       style="fill:#373b41;fill-opacity:1;stroke:none;stroke-width:0.264583px;stroke-linecap:butt;stroke-linejoin:miter;stroke-opacity:1"
       d="m 128.84784,135.73249 c 0.22042,8.25268 0.66126,24.75775 -0.46884,33.87583 -1.1301,9.11809 -3.83104,10.84939 -8.52679,11.30976 -4.69576,0.46036 -11.38615,-0.35036 -14.74495,-1.74365 -3.3588,-1.3933 -3.3856,-3.36931 -2.88997,-8.5822 0.49563,-5.21289 1.51368,-13.66223 6.00254,-21.38726 4.48886,-7.72502 12.44813,-14.72502 16.42785,-18.22508 3.97971,-3.50007 3.97974,-3.50007 4.20016,4.7526 z"
       id="path12368"
       inkscape:path-effect="#path-effect12370"
       inkscape:original-d="m 128.62742,127.47982 c 0.4411,16.50534 0.88194,33.01041 1.32251,49.51523 -2.70083,1.73167 -5.40177,3.46297 -8.10313,5.19411 -6.69038,-0.81049 -13.38077,-1.62121 -20.07154,-2.43221 -0.0265,-1.97582 -0.0533,-3.95183 -0.0804,-5.92814 1.01836,-8.44943 2.0364,-16.89878 3.05421,-25.34856 7.95986,-7.00002 15.91914,-14.00002 23.87832,-21.00043 z"
       sodipodi:nodetypes="scccccss" />
    <path
       style="fill:#b4b7b4;fill-opacity:1;stroke:none;stroke-width:0.264583px;stroke-linecap:butt;stroke-linejoin:miter;stroke-opacity:1"
       d="m 120.69334,81.852793 c 0,0 25.08395,-1.447126 25.08395,-1.447126 0,0 1.78766,10.481773 1.78766,10.481773 -0.89383,4.602363 -1.78769,9.20493 -3.06613,13.10809 -1.27845,3.90316 -2.94139,7.10701 -5.28604,8.78311 -2.34465,1.67609 -5.37104,1.82432 -9.06299,-0.43737 -3.69195,-2.26168 -8.0491,-6.9334 -10.4065,-12.515418 -2.3574,-5.58202 -2.71472,-12.074289 -3.07204,-18.566407 0,0 4.02209,0.593348 4.02209,0.593348 z"
       id="path6875"
       inkscape:path-effect="#path-effect6877"
       inkscape:original-d="m 120.69334,81.852793 25.08395,-1.447126 1.78766,10.481773 c 0,0 -1.78739,9.20499 -2.68148,13.80709 -1.66278,3.20432 -3.32572,6.40818 -4.98903,9.61197 -3.0263,0.1485 -6.05269,0.29673 -9.07953,0.44471 -4.35706,-4.67163 -8.71421,-9.34335 -13.07171,-14.01541 -0.35706,-6.491982 -1.07195,-19.476355 -1.07195,-19.476355 z"
       sodipodi:nodetypes="ccccccccc" />
    <path
       style="fill:#b4b7b4;fill-opacity:1;stroke:none;stroke-width:0.264583px;stroke-linecap:butt;stroke-linejoin:miter;stroke-opacity:1"
       d="m 143.65191,121.01396 c -2.34565,2.03507 -4.69128,4.07012 -5.81932,5.80331 -1.12804,1.73319 -1.03849,3.16417 -1.24855,3.20376 -0.21006,0.0396 -0.71983,-1.3122 -2.50742,-2.96614 -1.78759,-1.65394 -4.85337,-3.60999 -7.9189,-5.56588 0,0 4.92753,55.93501 4.92753,55.93501 2.30354,0.72376 4.60734,1.4476 6.70166,-7.9542 2.09432,-9.4018 3.97965,-28.92875 5.865,-48.45586 z"
       id="path7632"
       inkscape:path-effect="#path-effect7634"
       inkscape:original-d="m 143.65191,121.01396 c 0,0 -4.69103,4.0704 -7.03694,6.1052 0.0898,1.43129 0.17938,2.86226 0.26867,4.293 -0.50952,-1.35159 -1.01929,-2.70338 -1.52932,-4.05547 -3.06533,-1.95567 -9.1966,-5.86768 -9.1966,-5.86768 l 4.92753,55.93501 c 0,0 4.60729,1.44777 6.91061,2.17128 1.88565,-19.52725 5.65605,-58.58134 5.65605,-58.58134 z"
       sodipodi:nodetypes="cccccccc" />
    <path
       style="fill:#282a2e;fill-opacity:1;stroke:none;stroke-width:0.264583px;stroke-linecap:butt;stroke-linejoin:miter;stroke-opacity:1"
       d="m 159.51356,136.97017 c 1.56328,-0.81912 4.68968,-2.45729 3.64511,-9.17799 -1.04456,-6.72071 -6.7283,-19.58412 -12.17785,-31.917493 -1.06946,1.526291 -2.13891,3.052558 -2.93215,3.832089 -0.79324,0.779534 -1.31084,0.812314 -1.82814,0.845084 0,0 6.31144,28.05086 6.31144,28.05086 0,0 -6.5968,1.56333 -6.5968,1.56333 0,0 0.7479,12.49768 0.7479,12.49768 3.75573,-1.62481 7.51177,-3.24976 9.38949,-4.0621 1.87771,-0.81234 1.87771,-0.81233 3.441,-1.63146 z"
       id="path1300"
       inkscape:path-effect="#path-effect1302"
       inkscape:original-d="m 157.95027,137.7893 c 3.12672,-1.63797 6.25312,-3.27613 9.37919,-4.91449 -4.8935,-11.94555 -16.34864,-37.000123 -16.34864,-37.000123 0,0 -2.1386,3.052775 -3.20839,4.578873 -0.51699,0.0329 -1.5519,0.0983 -1.5519,0.0983 l 6.31144,28.05086 -6.5968,1.56333 0.7479,12.49768 c 0,0 7.51191,-3.24944 11.2672,-4.87444 z"
       sodipodi:nodetypes="scccccccss" />
    <path
       style="fill:#c5c8c6;fill-opacity:1;stroke:none;stroke-width:0.264583px;stroke-linecap:butt;stroke-linejoin:miter;stroke-opacity:1"
       d="m 151.53243,98.369681 c 0.0947,-1.835662 0.18943,-3.671071 -0.10676,-6.298453 -0.29618,-2.627382 -0.98333,-6.046451 -1.87969,-8.547823 -0.89635,-2.501373 -2.00197,-4.084796 -2.86578,-4.499871 -0.86382,-0.415075 -1.60823,0.487268 -1.46201,1.227187 0.14621,0.739919 1.28185,1.995465 1.37351,5.57154 0.0917,3.576074 -0.68169,9.06855 -1.49172,14.821469 1.38293,-0.12316 2.76608,-0.24633 3.83807,-0.62535 1.07198,-0.379015 1.83316,-1.013839 2.59438,-1.648699 z"
       id="path1685-8"
       inkscape:path-effect="#path-effect2633"
       inkscape:original-d="m 151.53243,98.369681 c 0,0 0.18971,-3.671056 0.28416,-5.506986 -0.6869,-3.41889 -1.37405,-6.837958 -2.06149,-10.257445 -1.10542,-1.583253 -2.21103,-3.16668 -3.31697,-4.750451 -0.62146,0.753897 -1.36587,1.656238 -1.86515,2.260865 0.79143,0.874964 1.92707,2.130511 2.95709,3.269309 -0.84641,6.013403 -2.43009,17.258757 -2.43009,17.258757 0,0 2.76611,-0.24604 4.14879,-0.36947 0.7615,-0.634609 2.28366,-1.904579 2.28366,-1.904579 z"
       sodipodi:nodetypes="ccccccccc" />
    <path
       style="fill:#c5c8c6;fill-opacity:1;stroke:none;stroke-width:0.264583px;stroke-linecap:butt;stroke-linejoin:miter;stroke-opacity:1"
       d="m 120.89566,95.059063 c 0.94109,2.390706 1.88228,4.781676 3.3672,6.746477 1.48492,1.96481 3.5134,3.50369 5.06942,4.02217 1.55602,0.51849 2.63968,0.0169 5.03024,-0.50183 2.39056,-0.51868 6.08774,-1.0544 8.01469,-1.47249 1.92695,-0.4181 2.08387,-0.71866 2.54768,-3.990485 0.46381,-3.271822 1.23449,-9.515004 2.00516,-15.758084 0,0 -2.00309,-4.358258 -2.00309,-4.358258 0,0 -27.89207,5.287306 -27.89207,5.287306 0,0 3.86077,10.025194 3.86077,10.025194 z"
       id="path4105"
       inkscape:path-effect="#path-effect4107"
       inkscape:original-d="m 120.89566,95.059063 c 0,0 1.88242,4.781623 2.82327,7.172117 2.02882,1.53921 4.0573,3.07809 6.08555,4.61673 1.08397,-0.50139 2.16763,-1.00302 3.25104,-1.50493 3.6976,-0.53548 7.39478,-1.07121 11.09178,-1.60721 0.15718,-0.30031 0.31409,-0.60088 0.47074,-0.90171 0.77095,-6.242941 2.31201,-18.729239 2.31201,-18.729239 l -2.00309,-4.358258 -27.89207,5.287306 z"
       sodipodi:nodetypes="cccccccccc" />
    <path
       style="fill:#282a2e;fill-opacity:1;stroke:none;stroke-width:0.264583px;stroke-linecap:butt;stroke-linejoin:miter;stroke-opacity:1"
       d="m 131.25336,119.62882 c -2.63264,-5.14431 -9.49046,-13.85639 -11.59856,-20.917697 -2.1081,-7.061303 0.53371,-12.471426 3.9818,-14.24841 3.44809,-1.776984 7.70186,0.07917 11.55433,-0.404781 3.85247,-0.483952 7.3037,-3.307771 9.30148,-2.888244 1.99777,0.419526 2.54198,4.081988 1.25886,12.814685 -1.28312,8.732697 -4.39337,22.535107 -5.40943,37.719147 -1.01606,15.18405 0.062,31.7487 1.92731,41.45781 1.8653,9.70912 4.51745,12.56227 4.96856,14.54148 0.4511,1.9792 -1.29862,3.08468 -2.35439,5.00702 -1.05576,1.92233 -1.41742,4.66111 0.75436,3.8912 2.17177,-0.76991 6.87675,-5.04816 7.72409,-12.02568 0.84733,-6.97752 -2.16303,-16.65416 -4.31584,-28.85593 -2.15281,-12.20177 -3.44788,-26.92786 -3.16545,-39.26889 0.28243,-12.34104 2.14238,-22.296253 2.16487,-28.567115 0.0225,-6.270862 -1.79267,-8.857164 -5.3697,-11.502263 -3.57703,-2.6451 -8.91577,-5.348695 -16.29475,-4.814338 -7.37899,0.534357 -16.79737,4.306708 -20.96179,9.95328 -4.16443,5.646573 -3.07431,13.166376 -1.76546,13.809254 1.30886,0.642879 2.8364,-5.591125 2.94319,-3.70995 0.10679,1.881175 -1.1707,11.599482 -5.58859,20.666502 -4.417895,9.06701 -11.498121,16.50157 -16.120563,25.68011 -4.622442,9.17854 -6.584484,19.88779 -10.525976,26.46962 -3.941492,6.58183 -9.862326,9.03618 -13.194897,11.4086 -3.332572,2.37242 -4.076551,4.66256 -3.075826,8.99822 1.000725,4.33565 3.745869,10.71637 1.796183,17.92115 -1.949686,7.20478 -8.593824,15.23345 -13.614022,20.0044 -5.020198,4.77095 -8.416448,6.28408 -11.812644,7.79719 4.935849,3.52764 9.871996,7.0555 12.073387,11.65232 2.20139,4.59682 1.668688,10.26234 1.135952,15.9282 11.52846,-17.37432 23.05688,-34.74857 28.288973,-48.37823 5.232094,-13.62966 4.167791,-23.5145 11.081521,-34.33442 6.913729,-10.81992 21.804912,-22.57393 29.498842,-26.75117 7.69393,-4.17723 8.19027,-0.77795 8.50887,8.70259 0.3186,9.48054 0.45945,25.04156 1.66839,34.41895 1.20893,9.37738 3.48565,12.57068 5.90886,15.15701 2.42321,2.58634 4.99269,4.56565 4.4242,6.9657 -0.5685,2.40005 -4.27462,5.22094 -3.68377,6.13582 0.59085,0.91489 5.47838,-0.0762 8.96747,-2.43237 3.48908,-2.35614 5.57981,-6.07725 3.97827,-9.93916 -1.60153,-3.86191 -6.8955,-7.86452 -10.11273,-21.18209 -3.21724,-13.31758 -4.35732,-35.94919 -4.13119,-48.05379 0.22613,-12.10461 1.81844,-13.68141 -0.81419,-18.82573 z"
       id="path115"
       inkscape:path-effect="#path-effect117"
       inkscape:original-d="m 135.47833,123.19631 c -6.85757,-8.71183 -13.7154,-17.42391 -20.57349,-26.13626 2.64218,-5.410075 5.28399,-10.820198 7.92559,-16.230692 4.25421,1.856494 8.50798,3.712652 12.76157,5.56858 3.45164,-2.823668 6.90287,-5.647489 10.35391,-8.471631 0.5445,3.662873 1.0887,7.325336 1.63265,10.987609 -3.1101,13.803224 -6.22035,27.605634 -9.33092,41.408054 1.07839,16.56558 2.15647,33.13023 3.2343,49.69495 2.65252,2.85352 5.30467,5.70667 7.9566,8.55961 -1.74953,1.10579 -3.49926,2.21127 -5.24928,3.31651 -0.36141,2.73916 -0.72306,5.47794 -1.08499,8.21651 4.70543,-4.27816 9.41041,-8.5564 14.11522,-12.835 -3.01022,-9.67677 -6.02058,-19.35341 -9.03127,-29.0305 -1.29486,-14.72642 -2.58993,-29.45251 -3.88529,-44.17916 1.86028,-9.95534 3.72023,-19.910557 5.57995,-29.866233 -1.81498,-2.58614 -3.63015,-5.172442 -5.44562,-7.759062 -5.33869,-2.703438 -10.67743,-5.407033 -16.01654,-8.110947 -9.41868,3.772843 -18.83706,7.545193 -28.25626,11.317502 1.09045,7.520484 2.18056,15.040288 3.27047,22.56022 1.52789,-6.234067 3.05544,-12.46807 4.5828,-18.702687 -1.31381,9.996928 -2.59129,19.715237 -3.94214,29.989397 -7.484967,7.86009 -14.565189,15.29465 -21.848184,22.94158 -1.961859,10.70995 -3.923901,21.4192 -5.886249,32.12841 -5.920806,2.45471 -11.841639,4.90906 -17.762855,7.36319 -0.743744,2.29049 -1.48772,4.58063 -2.23198,6.87055 2.745518,6.38124 5.490662,12.76196 8.235595,19.14254 -6.644142,8.02927 -13.288285,16.05794 -19.932824,24.08652 -3.396001,1.5134 -10.188588,4.53932 -10.188588,4.53932 0,0 9.871961,7.05555 14.807546,10.58293 -0.532482,5.66624 -1.598207,16.99759 -1.598207,16.99759 0,0 23.057185,-34.74837 34.58538,-52.12295 -1.06408,-9.88497 -2.128382,-19.76981 -3.19297,-29.65511 14.892043,-11.75422 29.783226,-23.50823 44.674446,-35.26275 0.49663,3.39973 0.99297,6.79901 1.48908,10.19822 0.14113,15.5619 0.28198,31.12292 0.42258,46.68398 2.27706,3.19368 4.55378,6.38697 6.83027,9.58006 2.56985,1.97966 5.13933,3.95897 7.7086,5.93806 -3.706,2.82127 -7.41212,5.64216 -11.11858,8.46283 4.88799,-0.99089 9.77552,-1.98202 14.66288,-2.97343 2.09107,-3.72099 4.18179,-7.4421 6.27229,-11.16355 -5.29392,-4.0025 -10.58788,-8.00512 -15.88221,-12.00807 -1.13986,-22.63225 -2.27994,-45.26386 -3.4203,-67.89619 1.59264,-1.5766 3.18495,-3.1534 4.77702,-4.7305 z"
       sodipodi:nodetypes="ccccccccccccccccccccccccccccccccccccccccccc" />
    <path
       style="fill:#373b41;fill-opacity:1;stroke:none;stroke-width:0.264583px;stroke-linecap:butt;stroke-linejoin:miter;stroke-opacity:1"
       d="m 114.12834,111.96127 c 2.7561,0.18329 5.51249,0.36661 7.50672,-0.5164 1.99423,-0.88301 3.2269,-2.83232 4.45957,-4.78162 3.47127,16.07795 6.94259,32.15618 7.21813,41.26516 0.27554,9.10898 -2.64454,11.24924 -7.01561,11.16733 -4.37107,-0.0819 -10.19342,-2.38629 -16.01556,-4.69057 0,0 8.81684,-7.84096 8.81684,-7.84096 0,0 -4.97009,-34.60294 -4.97009,-34.60294 z"
       id="path1000"
       inkscape:path-effect="#path-effect1002"
       inkscape:original-d="m 114.12834,111.96127 c 0,0 5.51248,0.36683 8.26829,0.54988 1.23297,-1.9491 3.698,-5.8479 3.698,-5.8479 0,0 6.94282,32.15613 10.4138,48.23384 -2.91991,2.14059 -5.84,4.28085 -8.76043,6.42093 -5.82196,-2.3041 -17.46641,-6.91285 -17.46641,-6.91285 0,0 8.81684,-7.84096 8.81684,-7.84096 0,0 -4.97009,-34.60294 -4.97009,-34.60294 z" />
    <g
       id="g7597">
      <path
         style="fill:#e0e0e0;fill-opacity:1;stroke:none;stroke-width:0.264583px;stroke-linecap:butt;stroke-linejoin:miter;stroke-opacity:1"
         d="m 146.16478,84.857009 c 0.56661,4.435216 1.13325,8.870636 -0.26525,13.261826 -1.39849,4.391195 -4.76187,8.738315 -8.12534,13.085555 -5.43184,-3.19335 -10.86326,-6.38646 -13.54754,-10.40605 -2.68427,-4.019596 -2.62054,-8.865507 -2.55682,-13.711256 4.78946,0.83426 9.57922,1.668572 13.66165,1.296824 4.08243,-0.371749 7.45777,-1.949281 10.8333,-3.526899 z"
         id="path4696"
         inkscape:path-effect="#path-effect4698"
         inkscape:original-d="m 146.16478,84.857009 c 0,0 1.13347,8.870607 1.69983,13.305649 -3.36328,4.347592 -10.09042,13.041732 -10.09042,13.041732 0,0 -10.86331,-6.38638 -16.29553,-9.58006 0.064,-4.845582 0.19117,-14.537246 0.19117,-14.537246 0,0 9.57918,1.668783 14.36837,2.502779 3.37586,-1.577385 10.12658,-4.732854 10.12658,-4.732854 z"
         sodipodi:nodetypes="ccccccc" />
      <path
         style="fill:#373b41;fill-opacity:1;stroke:none;stroke-width:0.264583px;stroke-linecap:butt;stroke-linejoin:miter;stroke-opacity:1"
         d="m 126.84109,88.200068 c 1.65765,0.653892 4.21847,1.510112 5.83556,2.837878 1.61709,1.327766 2.29046,3.126739 2.90095,5.924985 0.61049,2.798246 1.1581,6.595299 1.70577,10.392719 0.0982,-4.36924 0.19632,-8.738213 0.58294,-11.712455 0.38661,-2.974242 1.06169,-4.553266 2.17003,-5.753452 1.10834,-1.200186 2.64966,-2.021217 3.62783,-2.779919 0.97816,-0.758702 1.39324,-1.455206 1.80829,-2.151646 0,0 -9.17076,3.320913 -9.17076,3.320913 0,0 -12.62723,-1.636263 -12.62723,-1.636263 0.75433,0.451586 1.50896,0.903349 3.16662,1.55724 z"
         id="path5554"
         inkscape:path-effect="#path-effect5556"
         inkscape:original-d="m 125.93746,87.997585 c 2.56123,0.856533 5.12205,1.712753 7.68276,2.56876 0.67366,1.799313 1.34703,3.598286 2.02015,5.397034 0.54794,3.797766 1.643,11.392271 1.643,11.392271 0,0 0.19659,-8.738207 0.29449,-13.10771 0.67538,-1.578851 1.35046,-3.157874 2.02531,-4.737251 1.54168,-0.820814 3.083,-1.641849 4.62415,-2.463192 0.41532,-0.696189 1.24514,-2.089319 1.24514,-2.089319 l -9.17076,3.320913 -12.62723,-1.636263 c 0,0 1.50891,0.903428 2.26299,1.354757 z"
         sodipodi:nodetypes="ccccccccccc" />
      <path
         style="fill:#373b41;fill-opacity:1;stroke:none;stroke-width:0.264583px;stroke-linecap:butt;stroke-linejoin:miter;stroke-opacity:1"
         d="m 148.3125,80.530533 c -0.62883,1.080991 -1.25771,2.162063 -1.99402,2.602642 -0.73632,0.440579 -1.61059,0.233626 -3.0049,0.84398 -1.39431,0.610355 -4.55939,2.626044 -8.00716,2.925197 -3.44778,0.299153 -8.52261,-1.012778 -10.66287,-1.203517 -2.14026,-0.19074 -3.41313,0.526819 -4.42349,0.475199 -1.01037,-0.05162 -1.82012,-0.74231 -2.66347,-1.461666 0.87276,1.065086 1.6962,2.069978 2.80194,2.484974 1.10574,0.414995 2.49446,0.09696 4.72363,0.5351 2.22917,0.438141 7.39107,2.072952 11.71037,3.440904 2.65737,-1.778485 5.84519,-3.911985 7.41609,-4.820642 1.5709,-0.908656 3.06771,-1.489519 3.67016,-2.390666 0.60245,-0.901147 0.51888,-2.15437 0.43372,-3.431505 z"
         id="path4348"
         inkscape:path-effect="#path-effect4350"
         inkscape:original-d="m 148.3125,80.530533 c 0,0 -1.25739,2.162247 -1.88649,3.242973 -0.84386,-0.199716 -1.71817,-0.406513 -2.35371,-0.557157 -2.15283,1.371469 -5.31791,3.387157 -7.97726,5.080339 -4.23645,-1.094999 -9.31128,-2.40693 -12.70989,-3.285725 -0.88168,0.497447 -2.15455,1.215005 -3.2985,1.859473 -0.87698,-0.747999 -2.53006,-2.158068 -2.53006,-2.158068 0,0 1.69623,2.069955 2.61829,3.195257 1.28946,-0.294978 2.67818,-0.613013 3.65976,-0.838135 3.47664,1.101258 12.95789,4.103856 12.95789,4.103856 0,0 5.84539,-3.911682 7.9721,-5.335455 1.01501,-0.393523 2.51182,-0.974385 3.80335,-1.475954 -0.0865,-1.301063 -0.25548,-3.831404 -0.25548,-3.831404 z"
         sodipodi:nodetypes="ccccccccccccc" />
      <path
         style="fill:#1d1f21;fill-opacity:1;stroke:none;stroke-width:0.336434px;stroke-linecap:butt;stroke-linejoin:miter;stroke-opacity:1"
         d="m 139.45862,93.013643 c -0.68126,1.72026 -0.12206,3.869641 1.11287,4.201359 1.23492,0.331717 3.14559,-1.153748 3.82692,-2.873641 0.68132,-1.719893 0.13323,-3.674379 -1.10179,-4.006512 -1.23501,-0.332133 -3.15674,0.958534 -3.838,2.678794 z"
         id="path6158"
         inkscape:path-effect="#path-effect6160"
         inkscape:original-d="m 138.21806,92.584108 c 0.55952,2.149739 1.11872,4.299119 1.67759,6.448149 1.91099,-1.485246 3.82166,-2.97071 5.73213,-4.456491 -0.54787,-1.954347 -1.09597,-3.908833 -1.64438,-5.863761 -1.92159,1.291016 -3.84332,2.581683 -5.76534,3.872103 z"
         sodipodi:nodetypes="ccccc" />
      <path
         style="fill:#1d1f21;fill-opacity:1;stroke:none;stroke-width:0.336434px;stroke-linecap:butt;stroke-linejoin:miter;stroke-opacity:1"
         d="m 131.96828,92.60265 c 1.21043,1.549997 1.43624,3.759422 0.23293,4.498999 -1.2033,0.739576 -3.83526,0.0098 -5.04586,-1.53986 -1.2106,-1.5497 -0.99922,-3.91943 0.20424,-4.659311 1.20346,-0.73988 3.39825,0.150175 4.60869,1.700172 z"
         id="path6158-0"
         inkscape:path-effect="#path-effect6367"
         inkscape:original-d="m 132.95286,91.942799 c 0.22562,2.209871 0.45143,4.419296 0.67742,6.628276 -2.63242,-0.729671 -5.26438,-1.459407 -7.89689,-2.189488 0.21165,-2.369472 0.42303,-4.739203 0.63416,-7.109333 2.19545,0.890479 4.39024,1.780534 6.58531,2.670545 z"
         sodipodi:nodetypes="ccccc" />
      <path
         style="fill:#1d1f21;fill-opacity:1;stroke:none;stroke-width:0.264583px;stroke-linecap:butt;stroke-linejoin:miter;stroke-opacity:1"
         d="m 136.92687,103.88959 c 0.9386,1.1275 1.87745,2.25528 2.03229,3.74928 0.15485,1.49399 -0.47369,3.3544 -1.1023,5.21499 -1.04366,-1.56149 -2.08711,-3.12268 -2.24223,-4.61684 -0.15511,-1.49416 0.57858,-2.92083 1.31224,-4.34743 z"
         id="path6403"
         inkscape:path-effect="#path-effect6405"
         inkscape:original-d="m 136.92687,103.88959 c 0,0 1.87747,2.25526 2.81581,3.38249 -0.62836,1.86089 -1.88582,5.58178 -1.88582,5.58178 0,0 -2.08705,-3.12272 -3.13097,-4.68447 0.73394,-1.42637 2.20098,-4.2798 2.20098,-4.2798 z" />
    </g>
    <path
       style="fill:#c5c8c6;fill-opacity:1;stroke:none;stroke-width:0.264583px;stroke-linecap:butt;stroke-linejoin:miter;stroke-opacity:1"
       d="m 117.54274,109.84207 c 0.8343,-0.34089 0.73958,-3.14424 -0.30999,-5.29665 -1.04956,-2.1524 -3.05417,-3.65375 -4.52756,-4.964501 -1.47338,-1.310751 -2.41541,-2.43089 -2.99593,-2.841541 -0.58053,-0.410651 -0.79924,-0.111556 -0.49433,1.161989 0.30492,1.273545 1.13328,3.521153 1.88165,5.023253 0.74838,1.5021 1.41658,2.25864 2.63247,3.69773 1.21589,1.43908 2.9794,3.56062 3.81369,3.21972 z"
       id="path1549"
       inkscape:path-effect="#path-effect1551"
       inkscape:original-d="m 118.47175,112.30425 c -0.0945,-2.80308 -0.18918,-5.60643 -0.28416,-8.41004 -2.00443,-1.50115 -4.00904,-3.0025 -6.01395,-4.504134 -0.94181,-1.119926 -1.88383,-2.240071 -2.82615,-3.360502 -0.21846,0.299371 -0.43717,0.598469 -0.65616,0.897305 0.82867,2.247977 1.65703,4.495591 2.48515,6.743001 0.66849,0.75683 1.3367,1.51337 2.00465,2.26965 1.76384,2.12188 3.52735,4.24341 5.29062,6.36472 z" />
    <path
       style="fill:#c5c8c6;fill-opacity:1;stroke:none;stroke-width:0.264583px;stroke-linecap:butt;stroke-linejoin:miter;stroke-opacity:1"
       d="m 124.81638,109.31323 c 0.45294,-1.77408 0.90582,-3.54795 -0.008,-5.45106 -0.91349,-1.90312 -3.19361,-3.935181 -4.68687,-6.042098 -1.49327,-2.106918 -2.19935,-4.288529 -2.21062,-6.103067 -0.0113,-1.814538 0.67242,-3.261617 0.0293,-3.795394 -0.64313,-0.533776 -2.61327,-0.154045 -4.17461,1.534396 -1.56135,1.688441 -2.71345,4.6852 -2.68919,6.81348 0.0243,2.12828 1.2246,3.387687 2.17261,5.229273 0.94802,1.84159 1.64378,4.26516 2.01229,6.10228 0.36851,1.83712 0.40984,3.08747 0.45117,4.33813 1.91509,0.12463 3.83047,0.24927 5.34761,-0.18841 1.51714,-0.43768 2.63654,-1.43759 3.75598,-2.43753 z"
       id="path1685"
       inkscape:path-effect="#path-effect1687"
       inkscape:original-d="m 124.81638,109.31323 c 0,0 0.90613,-3.54787 1.35881,-5.32225 -2.27998,-2.03191 -4.5601,-4.063974 -6.84061,-6.096416 -0.70585,-2.181462 -1.41193,-4.363072 -2.1183,-6.54506 0.68399,-1.446886 1.36768,-2.893966 2.05114,-4.341379 -1.96997,0.380014 -3.94011,0.759745 -5.91062,1.139232 -1.15192,2.997212 -2.30403,5.993971 -3.45647,8.990655 1.20067,1.259748 2.401,2.519154 3.60114,3.778378 0.69605,2.42391 1.39181,4.84748 2.08732,7.27081 0.0416,1.25095 0.124,3.75197 0.124,3.75197 0,0 3.83045,0.24952 5.74528,0.37388 1.11972,-0.99969 3.35831,-2.99982 3.35831,-2.99982 z"
       sodipodi:nodetypes="cccccccccccc" />
    <path
       style="fill:#282a2e;fill-opacity:1;stroke:none;stroke-width:0.264583px;stroke-linecap:butt;stroke-linejoin:miter;stroke-opacity:1"
       d="m 101.82991,174.90323 c -2.180316,4.55398 -4.360685,9.10807 -4.248643,15.30142 0.112043,6.19336 2.516193,14.02557 7.510783,20.03398 4.99459,6.0084 12.57904,10.19282 12.74773,13.68076 0.16869,3.48794 -7.07821,6.2795 -11.49411,10.93246 -4.41591,4.65297 -6.00023,11.16659 -7.953219,15.70498 -1.952985,4.53839 -4.274461,7.10122 -6.595995,9.66412 1.718762,0.63046 3.437844,1.26104 4.755284,2.28162 1.31744,1.02058 2.23343,2.4307 3.149643,3.84117 4.047187,-4.90586 8.094357,-9.81168 13.688187,-15.04019 5.59384,-5.22851 12.73396,-10.77938 16.43152,-15.52973 3.69756,-4.75035 3.95244,-8.70018 2.67287,-15.47989 -1.27957,-6.77971 -4.0936,-16.38891 -9.46,-24.42572 -5.36641,-8.03682 -13.28529,-14.50095 -21.20405,-20.96498 z"
       id="path8794"
       inkscape:path-effect="#path-effect8796"
       inkscape:original-d="m 101.82991,174.90323 c 0,0 -4.360369,9.10822 -6.540949,13.66194 2.404515,7.83279 4.808669,15.665 7.212609,23.4971 7.58502,4.18485 15.16947,8.36927 22.7538,12.5535 -7.24678,2.79188 -14.49368,5.58344 -21.74114,8.37485 -1.58416,6.51427 -3.16849,13.02789 -4.753171,19.54164 -2.321318,2.56321 -6.964603,7.68869 -6.964603,7.68869 0,0 3.43779,1.26119 5.156287,1.89139 0.916501,1.41077 2.74864,4.2314 2.74864,4.2314 0,0 8.094637,-9.81145 12.141567,-14.71757 7.14068,-5.55084 14.28081,-11.10171 21.42082,-16.65296 0.25516,-3.94972 0.51004,-7.89955 0.76467,-11.84972 -2.81388,-9.60932 -5.62791,-19.21852 -8.44226,-28.82818 -7.91865,-6.46389 -23.75627,-19.39208 -23.75627,-19.39208 z"
       sodipodi:nodetypes="cccccccccccccc" />
    <path
       style="fill:#b4b7b4;fill-opacity:1;stroke:none;stroke-width:0.264583px;stroke-linecap:butt;stroke-linejoin:miter;stroke-opacity:1"
       d="m 91.314243,260.1526 c -1.584595,0.5366 -2.869361,2.05264 -4.498496,3.10533 -1.629134,1.05269 -3.602917,1.64214 -5.576568,2.23154 1.109103,2.62741 2.21834,5.25514 5.223735,7.5819 3.005394,2.32677 7.906375,4.35287 12.807775,6.37914 3.620081,0 7.240431,0 9.201881,-0.66264 1.96144,-0.66263 2.26454,-1.98803 0.81287,-3.20209 -1.45167,-1.21405 -4.65868,-2.31671 -7.86543,-3.41928 -0.54077,-1.92657 -1.08146,-3.85284 -1.873649,-5.79702 -0.792187,-1.94419 -1.835818,-3.9059 -3.299643,-5.1083 -1.463825,-1.2024 -3.347881,-1.64518 -4.932475,-1.10858 z"
       id="path9898"
       inkscape:path-effect="#path-effect9900"
       inkscape:original-d="m 91.014432,259.17314 c -1.284501,1.5163 -2.569268,3.03234 -3.854299,4.54812 -1.973426,0.58968 -5.920954,1.76821 -5.920954,1.76821 0,0 2.21847,5.25508 3.32731,7.88223 4.901763,2.02658 14.7042,6.07881 14.7042,6.07881 0,0 7.240431,2.6e-4 10.860251,0 0.30338,-1.3252 0.60648,-2.6506 0.90933,-3.9763 -3.20655,-1.10233 -9.62026,-3.30771 -9.62026,-3.30771 0,0 -1.08128,-3.85289 -1.622324,-5.77972 -1.043413,-1.96154 -2.087049,-3.92325 -3.13097,-5.88528 -1.883868,-0.44253 -3.767924,-0.88531 -5.652284,-1.32836 z" />
    <path
       style="fill:#969896;fill-opacity:1;stroke:none;stroke-width:0.264583px;stroke-linecap:butt;stroke-linejoin:miter;stroke-opacity:1"
       d="m 70.453725,242.96624 c -2.316438,-0.15406 -5.00326,0.57908 -7.689904,1.31217 3.048309,1.08791 6.096938,2.17594 5.810833,5.5834 -0.286104,3.40745 -3.906109,9.13427 -5.859092,12.84234 -1.952983,3.70808 -2.238866,5.3971 -1.679016,6.09634 0.55985,0.69924 1.965145,0.40895 3.850866,-1.71701 1.885722,-2.12596 4.251982,-6.08751 6.268724,-8.93637 2.016742,-2.84886 3.683806,-4.58479 4.543187,-6.5567 0.85938,-1.97192 0.911044,-4.17996 -0.03603,-5.80455 -0.947074,-1.62458 -2.89313,-2.66556 -5.209568,-2.81962 z"
       id="path10619"
       inkscape:path-effect="#path-effect10621"
       inkscape:original-d="m 70.823752,242.07914 c -2.686378,0.73336 -8.059931,2.19927 -8.059931,2.19927 0,0 6.096881,2.1761 9.144926,3.26374 -3.619888,5.72731 -7.239896,11.45412 -10.86024,17.18079 -0.285629,1.68934 -0.571511,3.37836 -0.857661,5.06714 1.405613,-0.29004 2.810907,-0.58034 4.215964,-0.8709 2.366626,-3.96148 4.732893,-7.92303 7.09894,-11.88493 1.667396,-1.73574 3.334462,-3.47167 5.001294,-5.2079 0.05193,-2.20785 0.103593,-4.41589 0.154993,-6.62423 -1.945867,-1.04075 -3.891925,-2.08172 -5.838285,-3.12298 z" />
    <path
       style="fill:#b4b7b4;fill-opacity:1;stroke:none;stroke-width:0.264583px;stroke-linecap:butt;stroke-linejoin:miter;stroke-opacity:1"
       d="m 64.023086,244.17329 c 1.484702,0.088 3.665019,1.09677 4.591392,3.0586 0.926373,1.96183 0.599161,4.87656 -0.785533,8.66223 -1.384693,3.78568 -3.826731,8.44219 -5.35085,11.01236 -1.524119,2.57017 -2.130321,3.05399 -3.804201,2.38991 -1.67388,-0.66409 -4.415572,-2.47625 -5.18212,-4.41757 -0.766548,-1.94132 0.442409,-4.01152 2.02172,-6.02906 1.579311,-2.01754 3.528807,-3.98219 4.498414,-6.15643 0.969607,-2.17425 0.959273,-4.55822 1.348497,-6.16676 0.389223,-1.60855 1.177979,-2.44132 2.662681,-2.35328 z"
       id="path10788"
       inkscape:path-effect="#path-effect10790"
       inkscape:original-d="m 63.327157,243.25245 c 2.18058,1.00899 4.360894,2.01773 6.540945,3.0262 -0.326962,2.9151 -0.654172,5.82983 -0.981655,8.74434 -2.441876,4.65698 -4.883917,9.31349 -7.326273,13.96984 -0.605967,0.48411 -1.212172,0.96793 -1.818653,1.45151 -2.741546,-1.81198 -5.483246,-3.62413 -8.225266,-5.43661 1.209278,-2.07005 2.418244,-4.14025 3.626967,-6.21078 1.949847,-1.96447 3.899347,-3.92911 5.848625,-5.89407 -0.01008,-2.3838 -0.0204,-4.76777 -0.031,-7.15205 0.789051,-0.83255 1.577805,-1.66533 2.36631,-2.49838 z" />
    <path
       style="fill:#c5c8c6;fill-opacity:1;stroke:none;stroke-width:0.264583px;stroke-linecap:butt;stroke-linejoin:miter;stroke-opacity:1"
       d="m 84.197759,267.84301 c 0.347959,-0.77423 2.559267,0.31075 4.689631,1.91338 2.130364,1.60263 4.179739,3.72268 6.778611,5.37795 2.598872,1.65526 5.747009,2.84578 6.335949,3.48644 0.58895,0.64066 -1.38122,0.73157 -4.327926,-0.14955 -2.946703,-0.88112 -6.869815,-2.73435 -9.589264,-4.97756 -2.719449,-2.24321 -4.234959,-4.87643 -3.887001,-5.65066 z"
       id="path10891"
       inkscape:path-effect="#path-effect10893"
       inkscape:original-d="m 82.334075,265.98364 c 2.211581,1.08527 4.422894,2.17024 6.633946,3.25495 2.049729,2.12043 4.099112,4.24048 6.148271,6.36032 3.148525,1.19084 6.296658,2.38136 9.444598,3.57164 -1.96998,0.0912 -3.94015,0.18206 -5.910617,0.27271 -3.923006,-1.85304 -7.846121,-3.70626 -11.769577,-5.5598 -1.515306,-2.63305 -3.030815,-5.26627 -4.546621,-7.89982 z" />
    <path
       style="fill:#1d1f21;fill-opacity:1;stroke:none;stroke-width:0.348189px;stroke-linecap:butt;stroke-linejoin:miter;stroke-opacity:1"
       d="m 136.98625,130.19335 c -0.30638,4.34376 -0.61278,8.68796 -0.68621,11.78526 -0.0734,3.0973 0.086,4.94801 -0.0159,6.3255 -0.10193,1.37749 -0.46507,2.28189 -0.63195,5.65964 -0.16687,3.37775 -0.1376,9.22846 -0.32257,13.33841 -0.18497,4.10996 -0.58409,6.479 -0.53272,6.49382 0.0514,0.0148 0.55323,-2.32448 0.81392,-6.37403 0.26069,-4.04955 0.28013,-9.80915 0.45315,-13.14357 0.17302,-3.33441 0.49973,-4.24339 0.55571,-5.79099 0.056,-1.54761 -0.15896,-3.73389 -0.14304,-6.88934 0.0159,-3.15545 0.26277,-7.28025 0.50961,-11.4047 z"
       id="path13168"
       inkscape:path-effect="#path-effect13170"
       inkscape:original-d="m 136.98625,130.19335 c 0,0 -0.6125,8.68798 -0.91913,13.03128 0.15971,1.85126 0.31916,3.70197 0.47836,5.55224 -0.3629,0.90488 -0.72603,1.80928 -1.08943,2.71322 0.0295,5.85141 0.0588,11.70212 0.0878,17.55249 -0.39889,2.36959 -0.798,4.73863 -1.19738,7.10725 0.50214,-2.33895 1.00399,-4.67826 1.50561,-7.01809 0.0197,-5.75934 0.0391,-11.51894 0.0583,-17.27909 0.32698,-0.90855 0.6537,-1.81752 0.98016,-2.72697 -0.21469,-2.18592 -0.42961,-4.3722 -0.6448,-6.55899 0.24709,-4.12407 0.74051,-12.37334 0.74051,-12.37334 z" />
    <path
       style="fill:#1d1f21;fill-opacity:1;stroke:none;stroke-width:0.264583px;stroke-linecap:butt;stroke-linejoin:miter;stroke-opacity:1"
       d="m 51.613884,281.41136 c 2.507618,-2.08418 5.467808,-4.54452 6.990624,-5.48527 1.522815,-0.94074 3.119126,-1.22028 3.213457,3.88929 0.09433,5.10957 -0.996213,18.45655 5.220806,19.33521 6.21702,0.87866 18.704655,-9.13787 31.678352,-19.54427 0,0 8.212727,0.14929 8.212727,0.14929 13.55638,5.51966 27.11309,11.03945 41.2687,11.98277 14.15561,0.94332 31.84787,-3.41272 41.54932,-0.79628 9.70145,2.61643 20.79821,14.5264 33.47475,20.15349 12.67654,5.62708 27.45712,6.39138 42.65737,7.17739 0,0 -232.499849,-0.15395 -232.499849,-0.15395 0,0 18.233743,-36.70767 18.233743,-36.70767 z"
       id="path916"
       inkscape:path-effect="#path-effect918"
       inkscape:original-d="m 51.613884,281.41136 c 0,0 5.468048,-4.54423 7.522853,-6.25255 0.990639,-0.17316 2.586949,-0.4527 3.625394,-0.63485 -0.849551,10.40101 -1.940095,23.74799 -2.966099,36.30157 13.459993,-10.79599 38.921091,-31.21921 38.921091,-31.21921 l 8.212727,0.14929 c 0,0 27.11303,11.03959 40.66915,16.55898 14.75524,-3.63258 32.4475,-7.98861 44.26403,-10.89831 7.5863,8.14224 18.68305,20.05222 28.41621,30.49868 15.61991,0.80796 45.60075,2.35802 45.60075,2.35802 L 33.380141,318.11903 Z"
       sodipodi:nodetypes="cccccccccccc" />
  </g>
</svg>
