<?xml version="1.0" encoding="UTF-8" standalone="no"?>
<!-- Created with Inkscape (http://www.inkscape.org/) -->

<svg
   width="172.62253mm"
   height="118.08704mm"
   viewBox="0 0 172.62253 118.08704"
   version="1.1"
   id="svg15205"
   inkscape:version="1.1 (c68e22c387, 2021-05-23)"
   sodipodi:docname="spaceman-and-the-energy-box.svg"
   xmlns:inkscape="http://www.inkscape.org/namespaces/inkscape"
   xmlns:sodipodi="http://sodipodi.sourceforge.net/DTD/sodipodi-0.dtd"
   xmlns="http://www.w3.org/2000/svg"
   xmlns:svg="http://www.w3.org/2000/svg">
  <sodipodi:namedview
     id="namedview15207"
     pagecolor="#000000"
     bordercolor="#666666"
     borderopacity="1.0"
     inkscape:pageshadow="2"
     inkscape:pageopacity="0"
     inkscape:pagecheckerboard="0"
     inkscape:document-units="mm"
     showgrid="false"
     inkscape:snap-nodes="false"
     inkscape:zoom="1.0973349"
     inkscape:cx="234.65945"
     inkscape:cy="-2.7338965"
     inkscape:window-width="1918"
     inkscape:window-height="1055"
     inkscape:window-x="0"
     inkscape:window-y="0"
     inkscape:window-maximized="1"
     inkscape:current-layer="layer1"
     fit-margin-top="0"
     fit-margin-left="0"
     fit-margin-right="0"
     fit-margin-bottom="0" />
  <defs
     id="defs15202">
    <inkscape:path-effect
       effect="bspline"
       id="path-effect24072"
       is_visible="true"
       lpeversion="1"
       weight="33.333333"
       steps="2"
       helper_size="0"
       apply_no_weight="true"
       apply_with_weight="true"
       only_selected="false" />
    <inkscape:path-effect
       effect="bspline"
       id="path-effect23714"
       is_visible="true"
       lpeversion="1"
       weight="33.333333"
       steps="2"
       helper_size="0"
       apply_no_weight="true"
       apply_with_weight="true"
       only_selected="false" />
    <inkscape:path-effect
       effect="bspline"
       id="path-effect22159"
       is_visible="true"
       lpeversion="1"
       weight="33.333333"
       steps="2"
       helper_size="0"
       apply_no_weight="true"
       apply_with_weight="true"
       only_selected="false" />
    <inkscape:path-effect
       effect="bspline"
       id="path-effect21863"
       is_visible="true"
       lpeversion="1"
       weight="33.333333"
       steps="2"
       helper_size="0"
       apply_no_weight="true"
       apply_with_weight="true"
       only_selected="false" />
    <inkscape:path-effect
       effect="bspline"
       id="path-effect21498"
       is_visible="true"
       lpeversion="1"
       weight="33.333333"
       steps="2"
       helper_size="0"
       apply_no_weight="true"
       apply_with_weight="true"
       only_selected="false" />
    <inkscape:path-effect
       effect="bspline"
       id="path-effect21249"
       is_visible="true"
       lpeversion="1"
       weight="33.333333"
       steps="2"
       helper_size="0"
       apply_no_weight="true"
       apply_with_weight="true"
       only_selected="false" />
    <inkscape:path-effect
       effect="bspline"
       id="path-effect21078"
       is_visible="true"
       lpeversion="1"
       weight="33.333333"
       steps="2"
       helper_size="0"
       apply_no_weight="true"
       apply_with_weight="true"
       only_selected="false" />
    <inkscape:path-effect
       effect="bspline"
       id="path-effect20862"
       is_visible="true"
       lpeversion="1"
       weight="33.333333"
       steps="2"
       helper_size="0"
       apply_no_weight="true"
       apply_with_weight="true"
       only_selected="false" />
    <inkscape:path-effect
       effect="bspline"
       id="path-effect17060"
       is_visible="true"
       lpeversion="1"
       weight="33.333333"
       steps="2"
       helper_size="0"
       apply_no_weight="true"
       apply_with_weight="true"
       only_selected="false" />
    <inkscape:path-effect
       effect="bspline"
       id="path-effect16735"
       is_visible="true"
       lpeversion="1"
       weight="33.333333"
       steps="2"
       helper_size="0"
       apply_no_weight="true"
       apply_with_weight="true"
       only_selected="false" />
    <inkscape:path-effect
       effect="bspline"
       id="path-effect16581"
       is_visible="true"
       lpeversion="1"
       weight="33.333333"
       steps="2"
       helper_size="0"
       apply_no_weight="true"
       apply_with_weight="true"
       only_selected="false" />
    <inkscape:path-effect
       effect="bspline"
       id="path-effect16398"
       is_visible="true"
       lpeversion="1"
       weight="33.333333"
       steps="2"
       helper_size="0"
       apply_no_weight="true"
       apply_with_weight="true"
       only_selected="false" />
    <inkscape:path-effect
       effect="bspline"
       id="path-effect16262"
       is_visible="true"
       lpeversion="1"
       weight="33.333333"
       steps="2"
       helper_size="0"
       apply_no_weight="true"
       apply_with_weight="true"
       only_selected="false" />
    <inkscape:path-effect
       effect="bspline"
       id="path-effect16061"
       is_visible="true"
       lpeversion="1"
       weight="33.333333"
       steps="2"
       helper_size="0"
       apply_no_weight="true"
       apply_with_weight="true"
       only_selected="false" />
    <inkscape:path-effect
       effect="bspline"
       id="path-effect15991"
       is_visible="true"
       lpeversion="1"
       weight="33.333333"
       steps="2"
       helper_size="0"
       apply_no_weight="true"
       apply_with_weight="true"
       only_selected="false" />
    <inkscape:path-effect
       effect="bspline"
       id="path-effect15921"
       is_visible="true"
       lpeversion="1"
       weight="33.333333"
       steps="2"
       helper_size="0"
       apply_no_weight="true"
       apply_with_weight="true"
       only_selected="false" />
    <inkscape:path-effect
       effect="bspline"
       id="path-effect15818"
       is_visible="true"
       lpeversion="1"
       weight="33.333333"
       steps="2"
       helper_size="0"
       apply_no_weight="true"
       apply_with_weight="true"
       only_selected="false" />
    <inkscape:path-effect
       effect="bspline"
       id="path-effect15559"
       is_visible="true"
       lpeversion="1"
       weight="33.333333"
       steps="2"
       helper_size="0"
       apply_no_weight="true"
       apply_with_weight="true"
       only_selected="false" />
    <inkscape:path-effect
       effect="bspline"
       id="path-effect15343"
       is_visible="true"
       lpeversion="1"
       weight="33.333333"
       steps="2"
       helper_size="0"
       apply_no_weight="true"
       apply_with_weight="true"
       only_selected="false" />
    <inkscape:path-effect
       effect="bspline"
       id="path-effect15306"
       is_visible="true"
       lpeversion="1"
       weight="33.333333"
       steps="2"
       helper_size="0"
       apply_no_weight="true"
       apply_with_weight="true"
       only_selected="false" />
  </defs>
  <g
     inkscape:label="Layer 1"
     inkscape:groupmode="layer"
     id="layer1"
     transform="translate(-0.40019141,-107.46121)">
    <path
       style="fill:#282a2e;fill-opacity:1;stroke:none;stroke-width:0.264583px;stroke-linecap:butt;stroke-linejoin:miter;stroke-opacity:1"
       d="m 0.42274571,203.37856 c 0.11931237,-4.8355 0.73307509,-5.83908 3.30508169,-9.99445 2.5720066,-4.15537 7.1020766,-11.46224 21.0193346,-12.04069 13.917258,-0.57844 37.220004,5.57136 60.523531,11.72136 -1.700025,1.99886 -3.400067,3.99773 -3.645986,6.74945 -0.245919,2.75172 0.961987,6.25556 2.170025,9.75978 C 60.5935,201.64493 37.393041,193.71612 23.602393,196.37857 9.8117453,199.04103 5.4327303,212.29443 1.0535769,225.54826 0.67849911,216.88103 0.30343334,208.21407 0.42274571,203.37856 Z"
       id="path23712"
       inkscape:path-effect="#path-effect23714"
       inkscape:original-d="m -0.07165646,199.54656 c 0.61402728,-1.00331 1.22778996,-2.00689 1.84128806,-3.01074 4.5305158,-7.30689 9.0605854,-14.61376 13.5904814,-21.92105 23.304259,6.15039 69.91058,18.45001 69.91058,18.45001 0,0 -3.399787,3.99797 -5.100076,5.99657 1.208327,3.50455 3.624115,10.51266 3.624115,10.51266 0,0 -46.401742,-15.85774 -69.603695,-23.78723 -4.3789748,13.25435 -13.1374601,39.76148 -13.1374601,39.76148 0,0 -0.74989101,-17.3342 -1.12523336,-26.0017 z"
       sodipodi:nodetypes="ccccccccc" />
    <path
       style="fill:#282a2e;fill-opacity:1;stroke:none;stroke-width:0.264583px;stroke-linecap:butt;stroke-linejoin:miter;stroke-opacity:1"
       d="m 89.886879,131.64134 c 0,0 0,19.67235 0,19.67235 2.062927,-6.2796 4.125762,-12.55891 6.739356,-14.60496 2.613593,-2.04604 5.777655,0.14167 8.323265,1.60135 2.54562,1.45967 4.4735,2.19185 6.13861,3.96315 1.6651,1.77131 3.06696,4.58064 4.47904,7.38779 1.41208,2.80714 2.83355,5.61046 4.25531,8.41436 0.57967,-3.97594 1.1593,-7.95158 3.34966,-10.1113 2.19036,-2.15971 5.99092,-2.50287 9.10047,-3.93204 3.10955,-1.42918 5.52798,-3.94423 7.25738,-4.48632 1.7294,-0.54208 2.76915,0.88831 3.80914,2.31902 0,0 -0.24843,-11.93715 -0.24843,-11.93715 0,0 -53.203801,1.71375 -53.203801,1.71375 z"
       id="path22157"
       inkscape:path-effect="#path-effect22159"
       inkscape:original-d="m 89.886879,131.64134 v 19.67235 c 0,0 4.12608,-12.55881 6.188781,-18.83879 3.164132,2.18784 6.32819,4.37556 9.49143,6.56262 1.92797,0.73238 3.85586,1.46455 5.78369,2.19654 1.40254,2.81043 2.8044,5.61976 4.20639,8.42963 1.42216,2.80442 4.26529,8.41169 4.26529,8.41169 0,0 1.15959,-7.95154 1.73901,-11.92782 3.80104,-0.34291 7.6016,-0.68606 11.40211,-1.0295 2.41883,-2.51494 4.83726,-5.02999 7.25557,-7.54546 1.04027,1.431 3.11996,4.29214 3.11996,4.29214 l -0.24843,-11.93715 z"
       sodipodi:nodetypes="ccccccccccccc" />
    <path
       style="fill:#373b41;fill-opacity:1;stroke:none;stroke-width:0.264583px;stroke-linecap:butt;stroke-linejoin:miter;stroke-opacity:1"
       d="m 104.60492,105.86105 c 0,0 -14.951483,23.38609 -14.951483,23.38609 0,0 1.424808,1.56135 1.424808,1.56135 0,0 -1.4175,0.67803 -1.4175,0.67803 0,0 30.341105,11.16892 30.341105,11.16892 0,0 23.39609,-12.55609 23.39609,-12.55609 0,0 -22.63984,-7.92492 -22.63984,-7.92492 0,0 14.66287,-19.22147 14.66287,-19.22147 0,0 -1.3079,-1.21299 -1.3079,-1.21299 0,0 -29.50815,4.12108 -29.50815,4.12108 z"
       id="path21496"
       inkscape:path-effect="#path-effect21498"
       inkscape:original-d="m 104.60492,105.86105 -14.951483,23.38609 1.424808,1.56135 -1.4175,0.67803 30.341105,11.16892 23.39609,-12.55609 -22.63984,-7.92492 14.66287,-19.22147 -1.3079,-1.21299 z"
       sodipodi:nodetypes="cccccccccc" />
    <path
       style="fill:#c5c8c6;fill-opacity:1;stroke:none;stroke-width:0.264583px;stroke-linecap:butt;stroke-linejoin:miter;stroke-opacity:1"
       d="m 131.9718,125.44538 c 0.19128,-0.0425 0.57368,-0.12754 1.38539,-0.12595 0.81171,0.002 2.0526,0.0897 3.0457,0.55483 0.99309,0.46512 1.73836,1.30695 2.76317,1.82365 1.0248,0.5167 2.32872,0.70845 3.63297,0.90025 0,0 -0.004,1.19123 -0.004,1.19123 -0.85854,-0.24156 -1.71676,-0.48304 -3.5526,-1.19994 -1.83583,-0.7169 -4.64885,-1.90914 -6.05556,-2.50534 -1.4067,-0.5962 -1.40636,-0.5962 -1.21507,-0.63873 z"
       id="path21247"
       inkscape:path-effect="#path-effect21249"
       inkscape:original-d="m 131.78051,125.48791 c 0.38265,-0.0847 0.76504,-0.16976 1.14716,-0.25504 1.24121,0.0884 2.4821,0.17651 3.72276,0.26437 0.74557,0.84213 1.49084,1.68395 2.23586,2.52553 1.30454,0.19207 3.91274,0.57539 3.91274,0.57539 0,0 -0.004,1.19123 -0.004,1.19123 0,0 -1.71681,-0.48286 -2.57561,-0.72469 -2.81288,-1.19202 -5.6259,-2.38426 -8.43925,-3.57679 z" />
    <path
       style="fill:#e0e0e0;stroke:none;stroke-width:0.264583px;stroke-linecap:butt;stroke-linejoin:miter;stroke-opacity:1"
       d="m 105.5475,107.62257 c 0,0 29.86982,-4.51609 29.86982,-4.51609 0,0 -14.94384,19.58708 -14.94384,19.58708 0,0 -29.767552,8.28571 -29.767552,8.28571 0,0 14.841572,-23.3567 14.841572,-23.3567 z"
       id="path15304"
       inkscape:path-effect="#path-effect15306"
       inkscape:original-d="m 105.5475,107.62257 29.86982,-4.51609 -14.94384,19.58708 -29.767552,8.28571 z"
       sodipodi:nodetypes="ccccc" />
    <path
       style="fill:#e0e0e0;stroke:none;stroke-width:0.264583px;stroke-linecap:butt;stroke-linejoin:miter;stroke-opacity:1"
       d="m 90.705926,130.97927 c 0,0 29.288394,10.3644 29.288394,10.3644 0,0 22.25781,-11.26912 22.25781,-11.26912 0,0 -21.77865,-7.38099 -21.77865,-7.38099 0,0 -29.767554,8.28571 -29.767554,8.28571 z"
       id="path15341"
       inkscape:path-effect="#path-effect15343"
       inkscape:original-d="m 90.705926,130.97927 c 0,0 29.288394,10.3644 29.288394,10.3644 0,0 22.25781,-11.26912 22.25781,-11.26912 0,0 -21.77865,-7.38099 -21.77865,-7.38099 0,0 -29.767554,8.28571 -29.767554,8.28571 z" />
    <g
       id="g17023">
      <path
         style="fill:#282a2e;fill-opacity:1;stroke:none;stroke-width:0.264583px;stroke-linecap:butt;stroke-linejoin:miter;stroke-opacity:1"
         d="m 143.19165,109.55668 c 3.3343,-1.07615 6.66876,-2.15235 8.14704,-2.09313 1.47828,0.0592 1.10077,1.25353 2.03258,2.27471 0.93181,1.02119 3.1725,1.86923 3.98945,4.23622 0.81695,2.36699 0.2105,6.25265 0.0924,9.55788 -0.11809,3.30523 0.25211,6.02976 -1.56963,7.52149 -1.82175,1.49174 -5.83549,1.75092 -8.3575,1.49288 -2.52202,-0.25804 -3.55254,-1.03374 -4.58279,-1.80923 -0.10229,-5.62956 -0.20458,-11.25885 -0.16319,-14.78902 0.0414,-3.53017 0.22652,-4.96108 0.41162,-6.3918 z"
         id="path16260"
         inkscape:path-effect="#path-effect16262"
         inkscape:original-d="m 143.19165,109.55668 c 0,0 6.66886,-2.15203 10.00289,-3.22844 -0.37726,1.19462 -0.75476,2.38894 -1.13254,3.58301 2.24103,0.84834 4.48171,1.69639 6.72217,2.54418 -0.60621,3.88609 -1.21265,7.77175 -1.81937,11.65723 0.37048,2.7249 0.74068,5.44943 1.11062,8.17375 -4.01364,0.25946 -8.02738,0.51864 -12.04146,0.77756 -1.03,-0.77524 -3.09074,-2.32647 -3.09074,-2.32647 0,0 -0.20432,-11.25885 -0.30688,-16.88867 0.18538,-1.43048 0.55531,-4.29215 0.55531,-4.29215 z" />
      <path
         style="fill:#969896;fill-opacity:1;stroke:none;stroke-width:0.264583px;stroke-linecap:butt;stroke-linejoin:miter;stroke-opacity:1"
         d="m 143.22346,110.41299 c 2.34565,1.02633 4.69161,2.0528 6.73412,2.39433 2.0425,0.34153 3.78189,-0.002 4.7359,2.57768 0.954,2.57923 1.12278,8.08026 -0.40136,11.66347 -1.52414,3.58321 -4.74117,5.24877 -7.05628,5.40853 -2.31511,0.15976 -3.62316,-1.08634 -4.98371,-2.38245 -0.78877,-3.3429 -1.57747,-6.6855 -1.41563,-9.96254 0.16184,-3.27703 1.27441,-6.48807 2.38696,-9.69902 z"
         id="path15557"
         inkscape:path-effect="#path-effect15559"
         inkscape:original-d="m 143.22346,110.41299 c 0,0 4.69156,2.05292 7.03695,3.07899 1.73973,-0.34283 3.47912,-0.68591 5.21828,-1.02926 0.16905,5.5015 0.33782,11.00253 0.50634,16.50339 -3.21689,1.66589 -6.43391,3.33145 -9.65126,4.99677 -1.25698,-1.50994 -4.08164,-3.88833 -4.08164,-3.88833 0,0 -1.57727,-6.68555 -2.36631,-10.02871 1.11284,-3.21075 3.33764,-9.63285 3.33764,-9.63285 z" />
      <path
         style="fill:#e0e0e0;fill-opacity:1;stroke:none;stroke-width:0.264583px;stroke-linecap:butt;stroke-linejoin:miter;stroke-opacity:1"
         d="m 143.56968,111.67365 c -1.07774,3.10092 -2.15554,6.202 -2.3363,9.17654 -0.18077,2.97455 0.53519,5.82213 1.25125,8.67009 -0.30445,-2.74843 -0.60886,-5.49656 -0.42805,-8.47108 0.18081,-2.97451 0.84697,-6.1751 1.5131,-9.37555 z"
         id="path15816"
         inkscape:path-effect="#path-effect15818"
         inkscape:original-d="m 143.56968,111.67365 c 0,0 -2.15522,6.20211 -3.23322,9.30276 0.71633,2.84828 2.14817,8.54387 2.14817,8.54387 0,0 -0.60862,-5.49659 -0.91334,-8.24528 0.66641,-3.20025 1.99839,-9.60135 1.99839,-9.60135 z" />
      <path
         style="fill:#e0e0e0;fill-opacity:1;stroke:none;stroke-width:0.264583px;stroke-linecap:butt;stroke-linejoin:miter;stroke-opacity:1"
         d="m 150.89369,113.80935 c 0.13759,-0.14102 2.06777,-0.37325 2.99926,1.13021 0.93149,1.50346 0.86452,4.74195 0.79754,7.98076 -0.20824,-2.95681 -0.41646,-5.91334 -1.34796,-7.41677 -0.93149,-1.50343 -2.58643,-1.55319 -2.44884,-1.6942 z"
         id="path15919"
         inkscape:path-effect="#path-effect15921"
         inkscape:original-d="m 149.10086,113.90059 c 1.93045,-0.23197 3.86064,-0.4642 5.79056,-0.6967 -0.0667,3.23914 -0.20093,9.71643 -0.20093,9.71643 0,0 -0.41622,-5.91336 -0.62472,-8.87044 -1.65474,-0.0495 -3.30968,-0.0993 -4.96491,-0.14929 z" />
      <path
         style="fill:#e0e0e0;fill-opacity:1;stroke:none;stroke-width:0.264583px;stroke-linecap:butt;stroke-linejoin:miter;stroke-opacity:1"
         d="m 142.85726,123.48858 c 0.0585,-0.48117 0.0585,-0.48117 0.39473,-0.24676 0.33627,0.23442 1.00847,0.70302 2.01856,0.66504 1.01008,-0.038 2.358,-0.58221 3.70609,-1.1265 -0.6576,1.75004 -1.31526,3.50022 -2.27779,4.43632 -0.96253,0.9361 -2.23045,1.05846 -3.49816,1.18079 -0.2119,-0.83458 -0.42371,-1.66885 -0.47126,-2.56725 -0.0476,-0.8984 0.0694,-1.86048 0.12783,-2.34164 z"
         id="path15989"
         inkscape:path-effect="#path-effect15991"
         inkscape:original-d="m 142.91573,123.00741 c 2.6e-4,2.6e-4 2.6e-4,2.6e-4 0,0 0.67249,0.46888 1.3447,0.93748 2.01665,1.40583 1.34838,-0.54404 4.04426,-1.63288 4.04426,-1.63288 0,0 -1.31494,3.50034 -1.97281,5.25011 -1.26748,0.1226 -3.80314,0.367 -3.80314,0.367 0,0 -0.42353,-1.6689 -0.63569,-2.50375 0.11718,-0.96186 0.23408,-1.92394 0.35073,-2.88631 z" />
      <path
         style="fill:#e0e0e0;fill-opacity:1;stroke:none;stroke-width:0.264583px;stroke-linecap:butt;stroke-linejoin:miter;stroke-opacity:1"
         d="m 145.41298,118.39719 c -0.21994,0.34533 -0.0543,1.25871 -0.25225,2.09732 -0.19794,0.8386 -0.7593,1.60263 -1.3207,2.36672 0.68683,0.37634 1.37398,0.75285 2.20744,0.64232 0.83346,-0.11053 1.81369,-0.70764 2.794,-1.30481 -0.0889,-0.8408 -0.17776,-1.68132 -0.0658,-2.40662 0.11199,-0.72531 0.42501,-1.33501 0.73798,-1.94462 -0.8902,0.21668 -1.78022,0.43332 -2.52788,0.43028 -0.74766,-0.003 -1.35289,-0.22592 -1.57283,0.11941 z"
         id="path16059"
         inkscape:path-effect="#path-effect16061"
         inkscape:original-d="m 145.02737,117.82884 c 0.16588,0.91364 0.3315,1.82702 0.49686,2.74013 -0.56115,0.76436 -1.6842,2.29226 -1.6842,2.29226 0,0 1.37393,0.75294 2.0605,1.12902 0.98059,-0.59692 2.94094,-1.79151 2.94094,-1.79151 0,0 -0.17753,-1.68134 -0.26669,-2.52241 0.31324,-0.60936 0.93891,-1.82883 0.93891,-1.82883 0,0 -1.78014,0.43363 -2.6706,0.65004 -0.60499,-0.22264 -1.21022,-0.44554 -1.81572,-0.6687 z" />
      <path
         style="fill:#282a2e;fill-opacity:1;stroke:none;stroke-width:0.264583px;stroke-linecap:butt;stroke-linejoin:miter;stroke-opacity:1"
         d="m 150.34401,134.00212 c -0.0841,0.50293 0.8999,1.86315 0.33228,3.7074 -0.56762,1.84426 -2.68653,4.17276 -2.63519,5.6678 0.0513,1.49504 2.27253,2.15648 4.26468,1.47527 1.99214,-0.6812 3.75546,-2.7049 3.78845,-4.7026 0.033,-1.99771 -1.66456,-3.96957 -3.08934,-5.1329 -1.42479,-1.16334 -2.5768,-1.5179 -2.66088,-1.01497 z"
         id="path16396"
         inkscape:path-effect="#path-effect16398"
         inkscape:original-d="m 149.27575,133.14453 c 0.98424,1.36048 1.96821,2.7207 2.95191,4.08065 -2.11872,2.32885 -4.23762,4.65735 -6.35683,6.98563 2.22155,0.66172 4.44275,1.32316 6.66372,1.98434 1.76365,-2.02352 3.52697,-4.04721 5.29006,-6.07122 -1.69736,-1.97167 -3.39492,-3.94353 -5.09278,-5.9157 -1.15178,-0.35431 -2.30379,-0.70887 -3.45608,-1.0637 z" />
      <path
         style="fill:#282a2e;fill-opacity:1;stroke:none;stroke-width:0.264583px;stroke-linecap:butt;stroke-linejoin:miter;stroke-opacity:1"
         d="m 170.57317,119.76293 c -0.80186,-0.26615 -0.99647,0.25875 -0.90328,0.60697 0.0932,0.34822 0.47379,0.51976 0.64412,0.90836 0.17033,0.38859 0.13072,0.99411 0.29874,1.59749 0.16802,0.60338 0.54346,1.2045 0.49342,1.72557 -0.05,0.52108 -0.52536,0.96239 -0.57262,1.48305 -0.0473,0.52066 0.33334,1.12032 0.32464,1.56661 -0.009,0.44628 -0.40651,0.73951 -0.51929,1.2206 -0.11279,0.48109 0.0594,1.14966 0.74912,0.0594 0.68969,-1.09023 1.89693,-3.93898 1.79634,-5.8919 -0.10059,-1.95293 -1.50933,-3.01003 -2.31119,-3.27618 z"
         id="path16579"
         inkscape:path-effect="#path-effect16581"
         inkscape:original-d="m 169.96597,118.97174 c -0.19434,0.52516 -0.38895,1.05006 -0.58383,1.57469 0.38088,0.17181 0.76149,0.34335 1.14183,0.51463 -0.0393,0.60581 -0.079,1.21133 -0.11884,1.81661 0.37572,0.60141 0.75115,1.20253 1.12633,1.80341 -0.47507,0.44159 -0.9504,0.8829 -1.42599,1.32396 0.38088,0.59995 0.76148,1.19961 1.14183,1.79901 -0.39758,0.29351 -0.7954,0.58674 -1.19349,0.87971 0.17248,0.66886 0.3447,1.33743 0.51666,2.00575 1.20755,-2.8486 2.4148,-5.69734 3.6218,-8.54641 -1.40853,-1.05688 -2.81727,-2.11398 -4.2263,-3.17136 z" />
    </g>
    <path
       style="fill:#c5c8c6;fill-opacity:1;stroke:none;stroke-width:0.19156px;stroke-linecap:butt;stroke-linejoin:miter;stroke-opacity:1"
       d="m 32.904719,184.43376 c 0.509389,-1.13743 1.528165,-3.41229 2.611698,-5.29216 1.083532,-1.87987 2.231727,-3.36447 3.379888,-4.84903 0,0 6.293268,1.0524 6.293268,1.0524 0.476332,1.72953 0.95273,3.45929 0.875394,6.81285 -0.07734,3.35355 -0.708224,8.33098 -0.755727,11.83226 -0.0475,3.50128 0.488213,5.52594 1.024006,7.55089 1.512358,-5.24548 3.324661,-11.53129 4.198645,-12.6027 0.873983,-1.07142 1.792338,2.46501 2.614169,1.42694 0.82183,-1.03807 2.384231,-7.02992 2.446834,-5.49562 0.0626,1.53431 -1.140226,9.69574 -2.343094,17.85744 1.009613,-1.91934 2.019111,-3.83845 3.021018,-6.47173 1.001906,-2.63328 1.995997,-5.9803 2.530084,-6.9474 0.534087,-0.96709 0.608088,0.44572 1.014264,-0.49924 0.406176,-0.94495 1.144554,-4.24752 1.138151,-2.94859 -0.0064,1.29894 -0.757586,7.19919 -0.446591,6.71285 0.310995,-0.48634 1.684182,-7.35932 3.057357,-14.23223 0,0 1.725605,0.28983 1.725605,0.28983 0,0 -1.587108,25.99643 -1.587108,25.99643 0,0 6.990281,1.1987 6.990281,1.1987 1.121005,-3.57089 2.241898,-7.14143 3.078649,-10.81827 0.836751,-3.67685 1.389172,-7.45954 1.941575,-11.2421 -0.687139,3.78334 -1.374314,7.56687 -2.250525,11.18799 -0.876211,3.62112 -1.941392,7.07977 -3.006642,10.53864 0,0 -6.344481,-1.15108 -6.344481,-1.15108 0,0 1.451557,-25.95199 1.451557,-25.95199 0,0 -2.289542,-0.39261 -2.289542,-0.39261 -0.902224,5.07689 -1.804482,10.15397 -2.10147,10.6998 -0.296988,0.54582 0.01122,-3.4392 -0.110256,-4.00717 -0.121478,-0.56796 -0.67262,2.28122 -1.023437,3.26726 -0.350816,0.98604 -0.501343,0.10896 -1.147558,1.15132 -0.646215,1.04236 -1.787943,4.00435 -2.828206,6.54013 -1.040262,2.53579 -1.9789,4.64502 -2.917635,6.75447 1.040419,-7.46476 2.077264,-14.90389 2.002186,-16.11092 -0.07508,-1.20704 -1.486505,4.79293 -2.161289,5.55169 -0.674785,0.75875 -1.334682,-3.66838 -2.136063,-2.84862 -0.80138,0.81975 -2.634153,7.10116 -4.161827,12.33692 -0.565752,-1.79434 -1.131377,-3.58828 -1.114066,-7.02913 0.01731,-3.44084 0.617811,-8.52778 0.689847,-12.01245 0.07203,-3.48467 -0.384531,-5.36718 -0.841047,-7.24949 0,0 -6.69165,-1.14749 -6.69165,-1.14749 -1.246761,1.72269 -2.493574,3.44546 -3.549533,5.392 -1.055959,1.94655 -1.921084,4.1168 -2.353628,5.20188 -0.432545,1.08508 -0.432489,1.08476 0.0769,-0.0527 z"
       id="path17058"
       inkscape:path-effect="#path-effect17060"
       inkscape:original-d="m 32.395331,185.57119 c 1.019068,-2.27473 2.037848,-4.54959 3.05649,-6.82494 1.148408,-1.4843 3.444484,-4.45368 3.444484,-4.45368 l 6.293268,1.0524 c 0,0 0.952855,3.45926 1.428995,5.18858 -0.630756,4.97784 -1.261644,9.95527 -1.8927,14.93257 0.535995,2.02521 1.607378,6.07485 1.607378,6.07485 0,0 3.324943,-11.53121 4.537075,-15.73644 0.535684,2.06229 1.454036,5.59872 2.003924,7.71677 1.093922,-4.19409 2.656324,-10.18594 3.98416,-15.27937 -1.202653,8.16201 -3.608605,24.4851 -3.608605,24.4851 0,0 2.019405,-3.8383 3.028839,-5.75801 0.994367,-3.34692 1.988459,-6.69394 2.982336,-10.04128 0.07416,1.41306 0.148159,2.82587 0.222004,4.23847 0.738561,-3.30246 1.476936,-6.60503 2.215172,-9.90788 -0.751054,5.9007 -1.502237,11.80095 -2.253593,17.7011 1.37343,-6.8728 4.119525,-20.61874 4.119525,-20.61874 l 1.725605,0.28983 -1.587108,25.99643 6.990281,1.1987 c 0,0 2.242182,-7.14134 3.363015,-10.71268 0.552642,-3.7824 1.657209,-11.34769 1.657209,-11.34769 0,0 -1.37412,7.56691 -2.061418,11.35002 -1.065035,3.45918 -3.195749,10.37661 -3.195749,10.37661 l -6.344481,-1.15108 1.451557,-25.95199 -2.289542,-0.39261 c 0,0 -1.804217,10.15402 -2.706671,15.23067 0.308451,-3.98503 0.616661,-7.97005 0.924662,-11.95546 -0.550926,2.84951 -1.102071,5.69869 -1.653458,8.54771 -0.150352,-0.87702 -0.300878,-1.7541 -0.451643,-2.6316 -1.141535,2.96236 -2.283263,5.92435 -3.425247,8.88614 -0.938537,2.1098 -2.816205,6.32835 -2.816205,6.32835 0,0 2.077517,-14.90385 3.121257,-22.39429 -1.193878,5.07639 -2.605304,11.07636 -3.570148,15.17669 -0.38483,-2.5829 -1.044727,-7.01003 -1.42508,-9.5606 -1.222294,4.19018 -4.583022,15.70727 -4.583022,15.70727 0,0 -1.131265,-3.58832 -1.697255,-5.38303 0.60075,-5.08691 1.201249,-10.17385 1.801536,-15.26112 -0.456368,-1.88212 -1.369547,-5.64692 -1.369547,-5.64692 l -6.69165,-1.14749 c 0,0 -2.493365,3.44561 -3.740282,5.16808 -0.865001,2.17055 -1.730126,4.3408 -2.595424,6.51088 z"
       sodipodi:nodetypes="sccccccscccccccccccccccccccccccccccsccccccss" />
    <path
       style="fill:#969896;fill-opacity:1;stroke:none;stroke-width:0.264583px;stroke-linecap:butt;stroke-linejoin:miter;stroke-opacity:1"
       d="m 147.43898,142.89654 c -0.0792,0.8294 -0.15834,1.65904 0.34966,2.18044 0.50799,0.5214 1.60276,0.73496 1.10093,1.23929 -0.50183,0.50433 -2.60003,1.29951 -4.14916,2.44156 -1.54913,1.14206 -2.54887,2.63074 -3.54867,4.11951 0.71241,-2.63749 1.42476,-5.27481 2.46606,-6.9384 1.0413,-1.66359 2.41117,-2.35296 3.78118,-3.0424 z"
       id="path20860"
       inkscape:path-effect="#path-effect20862"
       inkscape:original-d="m 147.43898,142.89654 c 0,0 -0.15804,1.65907 -0.23747,2.48821 1.09508,0.21383 2.18985,0.4274 3.28437,0.6407 -2.09802,0.79547 -4.19622,1.59065 -6.29473,2.38557 -0.99956,1.48907 -2.99941,4.46632 -2.99941,4.46632 0,0 1.42508,-5.27472 2.13722,-7.91248 1.3703,-0.68919 4.11002,-2.06832 4.11002,-2.06832 z" />
    <path
       style="fill:#969896;fill-opacity:1;stroke:none;stroke-width:0.264583px;stroke-linecap:butt;stroke-linejoin:miter;stroke-opacity:1"
       d="m 145.97946,151.25012 c -0.86027,-0.60193 -3.68066,0.6681 -4.37593,2.03626 -0.69527,1.36817 0.73437,2.83411 0.75265,3.16323 0.0183,0.32911 -1.37515,-0.47868 -2.7683,-1.28631 -3.03594,0.98802 -6.0717,1.97599 -9.32802,2.00145 -3.25632,0.0255 -6.73303,-0.91174 -8.50021,-1.14597 -1.76717,-0.23422 -1.8244,0.23437 -2.11471,0.19914 -0.2903,-0.0352 -0.81394,-0.57433 -1.94169,-2.98791 -1.12776,-2.41358 -2.85941,-6.70148 -4.13195,-9.32812 -1.27253,-2.62664 -2.086,-3.59184 -2.85805,-4.31294 -0.77205,-0.72111 -1.5027,-1.198 -2.47026,-1.46351 -0.96756,-0.2655 -2.17192,-0.31941 -2.68772,-0.14611 -0.5158,0.17329 -0.34288,0.57347 -0.91822,0.24528 -0.57534,-0.32819 -1.89905,-1.38461 -2.97923,-1.97254 -1.08018,-0.58794 -1.916777,-0.70716 -2.388842,-0.59202 -0.472065,0.11514 -0.579229,0.46452 0.830572,1.33281 1.4098,0.86828 4.33607,2.25542 6.36307,3.00494 2.027,0.74951 3.15465,0.86148 4.1288,2.06272 0.97415,1.20124 1.79492,3.49138 1.9855,4.74204 0.19058,1.25065 -0.24903,1.46214 -0.0815,1.68979 0.16755,0.22765 0.94205,0.47128 1.69149,1.76631 0.74945,1.29503 1.47402,3.64115 1.97391,5.35128 0.4999,1.71014 0.77511,2.78419 1.65622,3.00794 0.8811,0.22375 2.36799,-0.40244 4.59483,0.007 2.22684,0.40963 5.19331,1.85483 8.17072,1.86197 2.97742,0.007 5.9658,-1.42355 8.31071,-2.27782 2.34491,-0.85428 4.04613,-1.13213 5.44646,-2.50784 1.40032,-1.37571 2.49996,-3.84935 1.63968,-4.45127 z"
       id="path21076"
       inkscape:path-effect="#path-effect21078"
       inkscape:original-d="m 147.93945,149.37823 c -2.82012,1.27028 -5.64051,2.5403 -8.46116,3.81006 1.42997,1.46626 2.85962,2.93219 4.28903,4.3979 -1.39291,-0.80739 -4.17944,-2.42289 -4.17944,-2.42289 0,0 -6.0716,1.97631 -9.10781,2.96407 -3.47658,-0.93698 -6.95329,-1.87418 -10.43033,-2.81167 -0.057,0.46889 -0.1142,0.93749 -0.1717,1.40584 -0.5234,-0.53886 -1.04703,-1.07796 -1.57095,-1.61734 -1.73146,-4.28782 -3.46311,-8.57573 -5.19507,-12.864 -0.81323,-0.96497 -1.62669,-1.93017 -2.44044,-2.89565 -0.73042,-0.47665 -1.46107,-0.95354 -2.19201,-1.43071 -1.20415,-0.0537 -2.40851,-0.10756 -3.61317,-0.16173 0.1732,0.40045 0.34612,0.80063 0.51878,1.20055 -1.3235,-1.0562 -2.6472,-2.11263 -3.9712,-3.16934 -0.83637,-0.11897 -1.672968,-0.23819 -2.50985,-0.35768 -0.106902,0.34965 -0.214066,0.69903 -0.321495,1.04815 2.926655,1.38747 5.852935,2.77461 8.779015,4.16152 1.12795,0.11223 2.2556,0.2242 3.383,0.33591 0.82107,2.29049 1.64184,4.58063 2.46236,6.87054 -0.43936,0.21177 -0.87897,0.42326 -1.31886,0.6345 0.77479,0.2439 1.54929,0.48753 2.32354,0.73091 0.72486,2.34647 1.44942,4.69259 2.17374,7.0385 0.27549,1.07436 0.5507,2.14841 0.82566,3.22222 1.48721,-0.62594 2.97409,-1.25213 4.46074,-1.87859 2.96685,1.44552 5.93332,2.89072 8.89958,4.33569 2.98877,-1.43048 5.97715,-2.86117 8.96533,-4.29215 1.70154,-0.27759 3.40276,-0.55543 5.10374,-0.83355 1.09994,-2.47347 2.19958,-4.94711 3.29897,-7.42106 z" />
    <path
       style="fill:#969896;fill-opacity:1;stroke:none;stroke-width:0.27258px;stroke-linecap:butt;stroke-linejoin:miter;stroke-opacity:1"
       d="m 86.71284,194.28328 c 2.542907,-0.72406 6.286375,-0.21789 9.512286,-0.0573 3.225911,0.16063 5.934214,-0.0242 7.492904,0.7044 1.55868,0.72864 1.96785,2.37036 1.81802,3.50798 -0.14983,1.13762 -0.85857,1.77141 -0.95342,2.34045 -0.0948,0.56903 0.42392,1.073 0.28739,1.65606 -0.13653,0.58306 -0.92806,1.24547 -0.94621,2.0412 -0.0182,0.79574 0.73686,1.72443 0.68927,2.45711 -0.0476,0.73268 -0.89759,1.26966 -0.93892,2.12153 -0.0413,0.85188 0.72587,2.01825 -0.37868,2.78724 -1.10456,0.76899 -4.080764,1.14091 -5.348507,1.77931 -1.267742,0.6384 -0.826913,1.54288 -1.7195,1.82113 -0.892587,0.27825 -3.118655,-0.0695 -5.35334,-1.59557 -2.234684,-1.52612 -4.478045,-4.23107 -6.721204,-6.93578 -0.888983,-2.6651 -1.777854,-5.32986 -1.55141,-7.63969 0.226444,-2.30983 1.568413,-4.26404 4.111321,-4.9881 z"
       id="path24070"
       inkscape:path-effect="#path-effect24072"
       inkscape:original-d="m 85.51198,193.05301 c 3.743733,0.50646 7.487203,1.01262 11.230406,1.51851 2.708672,-0.18458 5.416974,-0.36944 8.125054,-0.55459 0.40946,1.64207 0.81863,3.28379 1.22754,4.92525 -0.7085,0.63412 -1.41724,1.26791 -2.12626,1.90145 0.51905,0.50425 1.03782,1.00822 1.55633,1.51191 -0.79131,0.66272 -1.58285,1.32512 -2.37467,1.98727 0.7553,0.92901 1.51031,1.8577 2.26507,2.78613 -0.84976,0.53727 -1.69976,1.07425 -2.55004,1.61095 0.76749,1.16669 1.53468,2.33306 2.30162,3.49917 -2.97607,0.37222 -5.952276,0.74413 -8.92881,1.11578 0.441116,0.9048 0.881946,1.80928 1.322523,2.71351 -2.225892,-0.34745 -4.451962,-0.69515 -6.678338,-1.04315 -2.242939,-2.70448 -6.729476,-8.11413 -6.729476,-8.11413 0,0 -1.777701,-5.32991 -2.666949,-7.99529 1.342292,-1.95402 2.684264,-3.90823 4.026,-5.86277 z" />
  </g>
</svg>
