<?xml version="1.0" encoding="UTF-8" standalone="no"?>
<svg
   xmlns:dc="http://purl.org/dc/elements/1.1/"
   xmlns:cc="http://creativecommons.org/ns#"
   xmlns:rdf="http://www.w3.org/1999/02/22-rdf-syntax-ns#"
   xmlns:svg="http://www.w3.org/2000/svg"
   xmlns="http://www.w3.org/2000/svg"
   xmlns:sodipodi="http://sodipodi.sourceforge.net/DTD/sodipodi-0.dtd"
   xmlns:inkscape="http://www.inkscape.org/namespaces/inkscape"
   width="204.77283mm"
   height="78.013596mm"
   viewBox="0 0 204.77283 78.013596"
   version="1.1"
   id="svg36404"
   inkscape:version="1.0.2 (e86c870879, 2021-01-15)"
   sodipodi:docname="surprised-leaner-with-thumb-in-mouth.svg">
  <defs
     id="defs36398" />
  <sodipodi:namedview
     id="base"
     pagecolor="#1d1f21"
     bordercolor="#666666"
     borderopacity="1.0"
     inkscape:pageopacity="0"
     inkscape:pageshadow="2"
     inkscape:zoom="0.49497475"
     inkscape:cx="-94.979448"
     inkscape:cy="322.63514"
     inkscape:document-units="mm"
     inkscape:current-layer="layer1"
     inkscape:document-rotation="0"
     showgrid="false"
     inkscape:snap-nodes="false"
     inkscape:window-width="2558"
     inkscape:window-height="1394"
     inkscape:window-x="0"
     inkscape:window-y="22"
     inkscape:window-maximized="0"
     fit-margin-top="0"
     fit-margin-left="0"
     fit-margin-right="0"
     fit-margin-bottom="0" />
  <metadata
     id="metadata36401">
    <rdf:RDF>
      <cc:Work
         rdf:about="">
        <dc:format>image/svg+xml</dc:format>
        <dc:type
           rdf:resource="http://purl.org/dc/dcmitype/StillImage" />
        <dc:title></dc:title>
      </cc:Work>
    </rdf:RDF>
  </metadata>
  <g
     inkscape:label="Layer 1"
     inkscape:groupmode="layer"
     id="layer1"
     transform="translate(-2.5942637,-130.3949)">
    <path
       style="fill:#b4b7b4;stroke:none;stroke-width:0.279876px;stroke-linecap:butt;stroke-linejoin:miter;stroke-opacity:1"
       d="m 83.981228,139.25945 c -14.065679,-0.0291 -10.828007,-4.8155 -18.525186,-4.80096 -7.697179,0.0146 -9.239689,3.81166 -11.790135,1.09112 -2.550448,-2.72053 -5.666003,-6.37214 -11.454156,-4.75728 -5.788154,1.61484 -38.2350072,-2.38903 -38.1281252,26.24208 0.106882,28.6311 8.0636962,41.85552 23.7482602,43.04849 15.684565,1.19297 99.178694,1.27209 56.149342,-60.82345 z"
       id="path36987" />
    <path
       style="fill:#969896;fill-opacity:1;stroke:none;stroke-width:0.279876px;stroke-linecap:butt;stroke-linejoin:miter;stroke-opacity:1"
       d="m 53.573137,139.94572 c -1.114878,-1.61123 -0.901065,-2.78601 0.526888,-3.43704 1.427951,-0.65105 -2.000647,-2.17863 -3.111707,-1.26572 -1.111059,0.91291 -9.900204,5.25923 2.584819,4.70276 z"
       id="path37021" />
    <path
       style="fill:#969896;fill-opacity:1;stroke:none;stroke-width:0.279876px;stroke-linecap:butt;stroke-linejoin:miter;stroke-opacity:1"
       d="m 58.46406,135.91219 c 0.316891,1.5203 -3.989869,3.40795 -2.302288,3.04787 1.687579,-0.36007 4.249494,-3.43704 2.302288,-3.04787 z"
       id="path37023" />
    <path
       style="fill:#969896;fill-opacity:1;stroke:none;stroke-width:0.279876px;stroke-linecap:butt;stroke-linejoin:miter;stroke-opacity:1"
       d="m 47.778555,150.09944 c 5.383464,2.32047 7.19321,7.01957 4.971109,9.5146 -5.557994,6.24065 -1.206514,0.0509 -2.329017,-3.64435 -1.122502,-3.69527 -2.580984,-5.56473 -4.24566,-4.55362 -1.664676,1.01111 -4.176951,7.24506 -2.924631,9.27455 1.25232,2.0295 -6.803774,-1.00381 -2.611555,-6.24122 4.19222,-5.2374 4.887098,-5.4629 7.139754,-4.34996 z"
       id="path37019"
       sodipodi:nodetypes="csssssc" />
    <path
       style="fill:#c5c8c6;fill-opacity:1;stroke:none;stroke-width:0.279876px;stroke-linecap:butt;stroke-linejoin:miter;stroke-opacity:1"
       d="m 37.908848,132.50161 c -9.300764,1.45483 -17.608827,3.4625 -17.395031,18.14176 0.213796,14.67927 -1.275223,26.88531 8.017907,24.14295 9.293129,-2.74236 14.019888,-4.45906 16.616158,-2.00767 2.596269,2.45139 13.638086,4.38632 12.06504,0.47282 -1.573048,-3.9135 -14.730036,-2.68416 -18.013565,-6.40125 -3.28353,-3.71711 -8.002654,4.52452 -10.32402,1.89854 -2.321366,-2.62597 -5.704175,-35.20695 9.033511,-36.24715 z"
       id="path37017" />
    <path
       style="fill:#c5c8c6;fill-opacity:1;stroke:none;stroke-width:0.279876px;stroke-linecap:butt;stroke-linejoin:miter;stroke-opacity:1"
       d="m 61.77033,151.46098 c -0.539948,-6.1106 -4.416835,-7.6434 -9.567984,-7.42736 -5.151147,0.21603 -6.684646,-0.27776 -9.524796,-1.65625 -2.840151,-1.37849 -8.412485,0.14402 -10.021537,4.89671 -1.609052,4.7527 3.59608,17.21054 -0.205183,14.1758 -3.801263,-3.03474 -6.133854,-27.5286 10.410333,-27.83722 -4.341236,4.11489 -5.863891,6.94389 -1.447079,6.49124 4.416813,-0.45264 12.602521,2.36604 17.289319,0.68924 4.6868,-1.67681 6.495635,0.31378 4.605802,3.2662 -1.492688,2.33198 -0.642564,10.59067 -1.538875,7.40164 z"
       id="path36995"
       sodipodi:nodetypes="csssscsssc" />
    <path
       style="fill:#969896;fill-opacity:1;stroke:none;stroke-width:0.279876px;stroke-linecap:butt;stroke-linejoin:miter;stroke-opacity:1"
       d="m 44.516299,189.07838 c -17.232632,-5.35997 -27.235519,-0.0849 -32.892111,-10.44564 -4.4477492,-8.14656 -5.0126212,-33.39181 2.633115,-38.42226 7.645735,-5.03045 15.809591,-8.53997 10.485909,-7.34508 -5.322376,1.19461 -22.1292272,3.68746 -22.1489102,25.3683 -0.0202,22.25398 7.9860052,37.66461 16.3174092,39.89383 35.689909,9.54951 43.558802,-4.04128 25.604588,-9.04915 z"
       id="path36993"
       sodipodi:nodetypes="csssssc" />
    <path
       style="fill:#373b41;fill-opacity:1;stroke:none;stroke-width:0.264583px;stroke-linecap:butt;stroke-linejoin:miter;stroke-opacity:1"
       d="m 108.66007,155.93244 c 10.11021,8.12616 9.42399,11.46743 29.1404,7.90492 19.71642,-3.56251 -46.33586,25.52264 -40.471328,14.61408 5.864528,-10.90856 11.330928,-22.519 11.330928,-22.519 z"
       id="path36983"
       sodipodi:nodetypes="cssc" />
    <path
       style="fill:#b4b7b4;fill-opacity:1;stroke:none;stroke-width:0.279876px;stroke-linecap:butt;stroke-linejoin:miter;stroke-opacity:1"
       d="m 112.1306,159.47166 c 0.79875,-7.29067 -2.74214,-12.91898 -7.16028,-15.5394 -6.817454,-4.04345 -3.10529,-1.51599 -11.886857,-3.81446 -8.782552,-2.29873 -22.279814,-1.55464 -25.242997,4.37375 -3.413525,6.82939 -9.184035,14.68371 -1.437528,19.50005 28.268402,17.57569 44.142312,9.9504 45.727662,-4.51994 z"
       id="path36981"
       sodipodi:nodetypes="ssssss" />
    <path
       style="fill:#969896;stroke:none;stroke-width:0.279876px;stroke-linecap:butt;stroke-linejoin:miter;stroke-opacity:1"
       d="m 78.636769,158.09136 c -1.960036,-3.86285 -2.16521,-7.90059 -0.799129,-9.40252 1.366081,-1.50193 -0.0594,-2.43294 2.159809,-3.12732 2.219214,-0.69438 11.533431,-2.71067 10.005354,-2.14488 -1.528077,0.5658 -7.618767,2.54094 -8.704064,3.94515 -1.085297,1.4042 -4.190037,5.86371 -1.015108,8.53325 3.174928,2.66954 -1.646862,2.19632 -1.646862,2.19632 z"
       id="path37049" />
    <path
       style="fill:#373b41;fill-opacity:1;stroke:none;stroke-width:0.279876px;stroke-linecap:butt;stroke-linejoin:miter;stroke-opacity:1"
       d="m 77.974373,160.79942 c -1.875445,12.87878 3.24261,20.25739 -6.409439,20.51924 -9.652042,0.26187 -26.16132,-14.98478 -29.780812,-13.34082 -3.619493,1.64397 6.261617,24.4412 37.890349,24.52848 31.628729,0.0873 0.828554,-49.07129 -1.440935,-33.48659 z"
       id="path36985"
       sodipodi:nodetypes="ssssss" />
    <path
       style="fill:#373b41;fill-opacity:1;stroke:none;stroke-width:0.279876px;stroke-linecap:butt;stroke-linejoin:miter;stroke-opacity:1"
       d="m 80.387688,155.35826 c -2.162371,-3.69346 -1.115642,-7.92411 8.320811,-11.23473 4.593637,-1.6116 6.472703,9.75978 0.741647,16.46048 -5.731055,6.70068 -9.062458,-5.22575 -9.062458,-5.22575 z"
       id="path36971"
       sodipodi:nodetypes="cssc" />
    <path
       style="fill:#e0e0e0;fill-opacity:1;stroke:none;stroke-width:0.279876px;stroke-linecap:butt;stroke-linejoin:miter;stroke-opacity:1"
       d="m 81.609244,156.48382 c 0.807254,-5.15363 -0.09984,-4.91377 1.0294,-5.93831 1.510465,-1.37042 1.809728,-2.74224 6.699649,-6.66275 -9.567181,1.05231 -13.464774,10.62873 -7.729049,12.60106 z"
       id="path36973"
       sodipodi:nodetypes="cscc" />
    <path
       style="fill:#c5c8c6;stroke:none;stroke-width:0.272209px;stroke-linecap:butt;stroke-linejoin:miter;stroke-opacity:1"
       d="m 126.45347,192.99896 c -5.53737,5.92806 -36.577463,16.86722 -42.727465,15.24788 -5.669186,-1.49275 -17.037244,-0.72811 -19.013928,-2.66886 -1.976693,-1.94075 -13.104912,-0.35808 -15.589803,-2.15211 -2.48488,-1.79401 -18.05356,-5.45043 -16.952638,-9.82356 1.100924,-4.37313 12.630117,-1.99047 15.776782,-0.2521 3.146664,1.73836 12.578205,0.79554 14.414853,1.53183 1.836638,0.73628 64.092199,-1.88308 64.092199,-1.88308 z"
       id="path36969"
       sodipodi:nodetypes="cssssssc" />
    <path
       style="fill:#e0e0e0;fill-opacity:1;stroke:none;stroke-width:0.264583px;stroke-linecap:butt;stroke-linejoin:miter;stroke-opacity:1"
       d="m 82.707607,155.55747 c -5.143231,7.29265 -3.646513,14.0147 -1.495647,18.35534 2.150866,4.34065 3.118101,15.43561 -2.276099,15.64787 -5.3942,0.21226 -7.344261,-0.52291 -11.05757,0.12182 -3.853587,0.66909 -13.094968,-6.1903 -16.656115,-6.60622 -3.443335,-0.40217 -13.719199,-17.07883 -13.416905,-7.72442 0.277921,8.6002 6.168017,10.3291 7.563824,13.40219 1.558888,3.43213 11.969341,5.76311 15.768854,9.11848 3.799513,3.35536 15.357447,0.44116 21.795672,3.49428 6.438224,3.05313 20.093929,1.31204 23.909559,-2.58372 3.81563,-3.89577 12.346,0.7909 20.02386,-4.52806 7.67787,-5.31897 71.61623,-9.61516 78.35129,-18.63143 6.73507,-9.01628 2.13426,-52.23458 -81.23969,-6.21738 -8.26319,2.98554 -14.14501,10.52027 -21.88836,6.69851 -7.743343,-3.82175 -9.276471,-4.64543 -12.514443,-9.79447 -3.237972,-5.14905 -0.325908,-9.97562 -6.86823,-10.75279 z"
       id="path36967"
       sodipodi:nodetypes="cssssssssssscssc" />
    <path
       style="fill:#373b41;fill-opacity:1;stroke:none;stroke-width:0.279876px;stroke-linecap:butt;stroke-linejoin:miter;stroke-opacity:1"
       d="m 90.892892,161.18253 c 7.353041,-7.95592 1.799713,-15.60705 2.9569,-15.18648 1.157186,0.42058 5.890423,11.13804 -2.9569,15.18648 z"
       id="path36977"
       sodipodi:nodetypes="csc" />
    <path
       style="fill:#c5c8c6;fill-opacity:1;stroke:none;stroke-width:0.279876px;stroke-linecap:butt;stroke-linejoin:miter;stroke-opacity:1"
       d="m 64.982693,152.08225 c -0.535484,-8.96188 0.291987,-9.41875 4.591003,-10.30745 3.617961,-0.7479 0.862239,-1.22415 -4.591003,10.30745 z"
       id="path36979"
       sodipodi:nodetypes="csc" />
    <path
       style="fill:#282a2e;fill-opacity:1;stroke:none;stroke-width:0.279876px;stroke-linecap:butt;stroke-linejoin:miter;stroke-opacity:1"
       d="m 48.491707,131.13556 c 2.507933,1.23361 -3.284394,3.71381 -4.970398,5.38934 -1.686004,1.67554 -3.104869,3.66195 -4.454335,0.32948 -0.900305,-2.22328 -0.488217,-2.7673 3.881068,-4.6542 1.913349,-0.82629 2.141442,-2.73813 5.543665,-1.06462 z"
       id="path36989"
       sodipodi:nodetypes="sssss" />
    <path
       style="fill:#282a2e;fill-opacity:1;stroke:none;stroke-width:0.279876px;stroke-linecap:butt;stroke-linejoin:miter;stroke-opacity:1"
       d="m 31.790061,146.16706 c 0.844033,-1.82398 5.401777,-2.95329 5.115954,-0.83951 -0.249947,1.84847 0.128227,17.26429 -1.383208,18.59934 -3.610571,3.18923 -3.584004,3.22966 -3.764395,-4.26732 -0.277894,-11.54915 -2.184683,-8.70298 0.03165,-13.49251 z"
       id="path36991"
       sodipodi:nodetypes="sssss" />
    <path
       style="fill:#e0e0e0;fill-opacity:1;stroke:none;stroke-width:0.279876px;stroke-linecap:butt;stroke-linejoin:miter;stroke-opacity:1"
       d="m 47.61882,152.33714 c 1.592869,3.43079 2.694361,5.85343 0.583148,9.83458 -2.111213,3.98116 -7.688946,-9.37165 -0.583148,-9.83458 z"
       id="path36997" />
    <path
       style="fill:#373b41;fill-opacity:1;stroke:none;stroke-width:0.279876px;stroke-linecap:butt;stroke-linejoin:miter;stroke-opacity:1"
       d="m 44.924448,150.60374 c -4.335826,3.19419 -6.430855,8.20921 -3.331515,11.25422 3.09934,3.04502 -2.521591,-4.95845 3.331515,-11.25422 z"
       id="path36999" />
    <path
       style="fill:#c5c8c6;fill-opacity:1;stroke:none;stroke-width:0.279876px;stroke-linecap:butt;stroke-linejoin:miter;stroke-opacity:1"
       d="m 52.181434,153.56132 c 4.622006,4.5418 -3.142527,13.53285 0.572352,14.60785 3.714876,1.07501 9.092824,-13.82603 -0.572352,-14.60785 z"
       id="path37001" />
    <path
       style="fill:#373b41;fill-opacity:1;stroke:none;stroke-width:0.279876px;stroke-linecap:butt;stroke-linejoin:miter;stroke-opacity:1"
       d="m 50.232206,152.85664 c 2.143614,5.01502 -0.25378,8.8573 -0.25378,8.8573 0,0 4.254838,-6.71241 0.25378,-8.8573 z"
       id="path37003" />
    <path
       style="fill:#373b41;fill-opacity:1;stroke:none;stroke-width:0.279876px;stroke-linecap:butt;stroke-linejoin:miter;stroke-opacity:1"
       d="m 59.573402,151.437 c 0.566952,2.57695 4.481616,1.20361 4.481616,1.20361 0,0 -4.541009,3.24047 -4.481616,-1.20361 z"
       id="path37005" />
    <path
       style="fill:#373b41;fill-opacity:1;stroke:none;stroke-width:0.279876px;stroke-linecap:butt;stroke-linejoin:miter;stroke-opacity:1"
       d="m 48.17485,154.77235 c -0.890923,-3.50281 -3.434119,-1.01331 -2.678178,0.76639 0.755941,1.77969 3.201932,0.77154 2.678178,-0.76639 z"
       id="path37007" />
    <path
       style="fill:#373b41;fill-opacity:1;stroke:none;stroke-width:0.279876px;stroke-linecap:butt;stroke-linejoin:miter;stroke-opacity:1"
       d="m 54.002082,136.49918 c -2.405378,1.09111 -0.893437,2.72781 -1.954848,2.02221 -1.061412,-0.7056 1.405057,-3.21517 1.954848,-2.02221 z"
       id="path37009" />
    <path
       style="fill:#e0e0e0;fill-opacity:1;stroke:none;stroke-width:0.279876px;stroke-linecap:butt;stroke-linejoin:miter;stroke-opacity:1"
       d="m 55.101666,136.27366 c 0,0 -1.947198,0.74925 -1.489038,2.19681 0.458163,1.44755 4.238043,-2.15316 4.238043,-2.15316 0,0 -1.290524,-1.09112 -2.749005,-0.0436 z"
       id="path37011" />
    <path
       style="fill:#c5c8c6;fill-opacity:1;stroke:none;stroke-width:0.279876px;stroke-linecap:butt;stroke-linejoin:miter;stroke-opacity:1"
       d="m 66.571092,134.77519 c -3.810402,-0.37098 -4.749647,0.10182 -6.124152,2.43685 -1.374502,2.33501 6.124152,-2.43685 6.124152,-2.43685 z"
       id="path37013" />
    <path
       style="fill:#373b41;fill-opacity:1;stroke:none;stroke-width:0.279876px;stroke-linecap:butt;stroke-linejoin:miter;stroke-opacity:1"
       d="m 54.916499,136.2119 c -0.748337,0.7347 1.673611,1.37539 2.201107,0.11996 0.387416,-0.92204 -1.309509,-0.52398 -2.201107,-0.11996 z"
       id="path37015"
       sodipodi:nodetypes="csc" />
    <path
       style="fill:#373b41;fill-opacity:1;stroke:none;stroke-width:0.279876px;stroke-linecap:butt;stroke-linejoin:miter;stroke-opacity:1"
       d="m 64.588205,151.7672 c 2.559937,-3.62818 2.227114,-5.08498 1.160315,-3.6589 -1.066795,1.42608 -0.08164,1.70774 -1.160315,3.6589 z"
       id="path37027" />
    <path
       style="fill:#373b41;fill-opacity:1;stroke:none;stroke-width:0.221614px;stroke-linecap:butt;stroke-linejoin:miter;stroke-opacity:1"
       d="m 69.88211,142.76688 c -1.026353,2.82761 -2.393369,3.57785 -2.032473,2.44929 0.36088,-1.12855 1.271389,-1.01299 2.032473,-2.44929 z"
       id="path37027-1" />
  </g>
</svg>
