<?xml version="1.0" encoding="UTF-8" standalone="no"?>
<!-- Created with Inkscape (http://www.inkscape.org/) -->

<svg
   width="96.484535mm"
   height="109.51556mm"
   viewBox="0 0 96.484535 109.51556"
   version="1.1"
   id="svg1233"
   inkscape:version="1.1 (c68e22c387, 2021-05-23)"
   sodipodi:docname="temporal-cascade-owl.svg"
   xmlns:inkscape="http://www.inkscape.org/namespaces/inkscape"
   xmlns:sodipodi="http://sodipodi.sourceforge.net/DTD/sodipodi-0.dtd"
   xmlns="http://www.w3.org/2000/svg"
   xmlns:svg="http://www.w3.org/2000/svg">
  <sodipodi:namedview
     id="namedview1235"
     pagecolor="#ffffff"
     bordercolor="#666666"
     borderopacity="1.0"
     inkscape:pageshadow="2"
     inkscape:pageopacity="0.0"
     inkscape:pagecheckerboard="0"
     inkscape:document-units="mm"
     showgrid="false"
     fit-margin-top="0"
     fit-margin-left="0"
     fit-margin-right="0"
     fit-margin-bottom="0"
     inkscape:zoom="1.5554293"
     inkscape:cx="305.38193"
     inkscape:cy="115.08077"
     inkscape:window-width="851"
     inkscape:window-height="1415"
     inkscape:window-x="854"
     inkscape:window-y="0"
     inkscape:window-maximized="1"
     inkscape:current-layer="g9305" />
  <defs
     id="defs1230" />
  <g
     inkscape:label="Layer 1"
     inkscape:groupmode="layer"
     id="layer1"
     transform="translate(-27.623706,-137.79892)">
    <g
       id="g9329"
       transform="translate(-174.98098,95.960259)">
      <g
         id="g9315"
         style="display:inline">
        <path
           style="display:inline;fill:#373b41;stroke:none;stroke-width:0.264583px;stroke-linecap:butt;stroke-linejoin:miter;stroke-opacity:1"
           d="m 205.66004,103.46064 c -1.90513,8.68876 -3.46031,11.254 -2.79935,14.19991 0.66095,2.94591 10.48781,17.2865 11.39177,24.60987 6.00696,5.93318 13.25804,9.33419 15.38671,9.0694 2.12868,-0.26479 17.00022,-18.37879 16.57253,-32.94279 -0.42768,-14.56401 -4.85028,-12.04014 -4.71419,-19.959315 0.13609,-7.919178 -10.07958,-1.481228 -10.07958,-1.481228 l -23.11407,4.418853 z"
           id="path10127" />
        <path
           style="fill:#b4b7b4;stroke:none;stroke-width:0.264583px;stroke-linecap:butt;stroke-linejoin:miter;stroke-opacity:1"
           d="m 202.97732,93.878187 c 4.26707,-0.984726 3.52835,-1.357109 9.07844,3.922347 5.55009,5.279456 22.37535,-10.848525 26.13697,-11.005753 3.76162,-0.157229 9.39425,4.490749 13.49608,6.683618 -4.75307,0.04965 -10.38566,-3.597036 -13.97234,1.492092 -3.58668,5.089129 -15.35757,7.290279 -16.82527,12.387679 -1.4677,5.0974 4.0338,26.52138 7.54269,30.92369 -4.23789,1.15023 -5.22934,1.11712 -7.28025,1.31573 -3.59637,-12.30493 -4.71419,-33.35655 -8.04813,-34.95362 -3.33393,-1.59708 -5.04466,-1.2247 -6.83313,-5.900082 -1.78847,-4.675383 -4.70445,3.268632 -3.29506,-4.865701 z"
           id="path8683"
           sodipodi:nodetypes="csscssccssc" />
        <path
           style="fill:#282a2e;fill-opacity:1;stroke:none;stroke-width:0.264583px;stroke-linecap:butt;stroke-linejoin:miter;stroke-opacity:1"
           d="m 208.58574,107.30852 c -1.68155,4.17888 -3.26591,16.59966 6.48321,15.10189 0.25272,-4.54298 0.0389,-14.57228 -6.48321,-15.10189 z"
           id="path8868" />
        <path
           style="fill:#282a2e;fill-opacity:1;stroke:none;stroke-width:0.264583px;stroke-linecap:butt;stroke-linejoin:miter;stroke-opacity:1"
           d="m 223.62252,117.32955 c 2.40082,5.18015 11.0127,5.93318 13.81205,0.0414 2.79935,-5.8918 1.05947,-13.12416 -4.5781,-13.71996 -3.63527,2.16806 -8.74793,6.62828 -9.23395,13.67859 z"
           id="path8870" />
        <path
           style="fill:#282a2e;fill-opacity:1;stroke:none;stroke-width:0.264583px;stroke-linecap:butt;stroke-linejoin:miter;stroke-opacity:1"
           d="m 223.02959,133.06861 c -2.67297,6.58691 -3.7422,7.57992 5.91945,17.6837 1.0206,-7.853 1.7496,-12.95866 -5.91945,-17.6837 z"
           id="path9366" />
      </g>
      <g
         id="g9305">
        <path
           style="fill:#b4b7b4;fill-opacity:1;stroke:none;stroke-width:0.264583px;stroke-linecap:butt;stroke-linejoin:miter;stroke-opacity:1"
           d="m 267.97087,57.650181 c -2.34252,3.98028 -2.09465,16.980307 2.5758,21.341238 4.67042,4.360934 14.0599,7.488889 19.62459,17.960906 5.56467,10.472015 7.96065,-0.124126 8.27167,-3.297592 0.31105,-3.173462 -2.74149,-18.973154 -1.76903,-21.837739 0.93435,-2.752322 1.51082,-6.108864 -0.48113,-11.684311 -2.24615,-6.286985 -2.95972,-13.678584 -2.95972,-13.678584 l -7.65448,7.699894 -15.69286,-2.718343 z"
           id="path12165"
           sodipodi:nodetypes="cssssscccc" />
        <path
           style="fill:#c5c8c6;stroke:none;stroke-width:0.264583px;stroke-linecap:butt;stroke-linejoin:miter;stroke-opacity:1"
           d="m 292.47869,83.79095 c -3.47001,-9.309385 -0.31104,-20.786817 -7.75652,-25.561493 -7.44548,-4.774676 -12.92752,-9.17698 -14.56047,-3.599625 -1.63298,5.577354 -4.47117,0.07448 -8.53413,-8.506708 -4.06296,-8.581184 4.81136,5.304282 6.88173,4.27818 2.07033,-1.026099 8.29111,-1.630172 14.25916,0.761302 5.96805,2.391473 1.45799,-1.067486 5.22933,-5.486334 3.77137,-4.418849 5.81255,-0.753026 5.99723,-3.218977 0.18468,-2.465948 1.62327,3.127949 -0.91366,4.749853 -2.53693,1.621901 -2.27449,5.147061 -0.69014,13.868916 1.58435,8.721852 1.96342,20.124801 4.70445,23.765811 -1.78847,-0.388919 -4.61698,-1.050925 -4.61698,-1.050925 z"
           id="path8687" />
        <path
           style="display:inline;fill:#282a2e;fill-opacity:1;stroke:none;stroke-width:0.264583px;stroke-linecap:butt;stroke-linejoin:miter;stroke-opacity:1"
           d="m 279.14293,59.371409 c -7.0567,0.124124 -5.25852,9.72312 -1.99261,12.81798 3.26591,3.094861 8.30088,0.844048 9.86579,-1.307449 -1.81766,-4.923626 0.16523,-8.514982 -7.87318,-11.510531 z"
           id="path8876" />
        <path
           style="display:inline;fill:#282a2e;fill-opacity:1;stroke:none;stroke-width:0.264583px;stroke-linecap:butt;stroke-linejoin:miter;stroke-opacity:1"
           d="m 292.86752,55.924866 c 4.66556,2.813503 5.02036,10.261018 1.90997,11.129888 -1.53577,-3.268628 -1.72529,-6.694485 -1.90997,-11.129888 z"
           id="path8878"
           sodipodi:nodetypes="ccc" />
        <path
           style="fill:#282a2e;fill-opacity:1;stroke:none;stroke-width:0.264583px;stroke-linecap:butt;stroke-linejoin:miter;stroke-opacity:1"
           d="m 294.13108,80.985725 c 5.2585,5.775945 7.22192,9.996193 1.44829,17.650583 -0.0389,-5.577356 -4.4712,-14.588832 -1.44829,-17.650583 z"
           id="path9734"
           sodipodi:nodetypes="ccc" />
      </g>
      <g
         id="g9310">
        <path
           id="path10127-7-7-0-8"
           style="display:inline;fill:#969896;fill-rule:evenodd;stroke:none;stroke-width:0.257384px;stroke-linecap:butt;stroke-linejoin:miter;stroke-opacity:1"
           d="m 287.21902,71.356993 c -1.20476,0.0182 -10.65716,5.074253 -15.94919,7.905447 4.37171,3.852595 12.48072,6.853453 17.78574,15.571212 0.34048,-11.13286 0.10443,-22.997943 -1.76862,-23.470666 -0.0184,-0.0046 -0.0413,-0.0064 -0.0679,-0.006 z m -48.10359,15.848135 c -0.0605,2.63e-4 -0.1208,0.002 -0.18073,0.0047 -2.42747,0.09894 -10.18838,6.551319 -16.99529,9.948955 0.29753,0.331409 0.30493,0.985759 0.43465,1.357797 4.2277,-0.384235 12.12103,-3.863028 16.12125,-4.210558 3.62637,-3.700345 8.67666,-0.781616 13.1935,-0.827623 -4.05123,-2.111881 -8.62319,-6.161689 -12.39164,-6.270626 v -5.25e-4 c -0.0606,-0.0018 -0.12131,-0.0023 -0.18174,-0.002 z m -0.48242,7.063172 c -4.23017,0.628099 -10.44086,3.135008 -16.26361,4.248319 0.31752,2.484171 0.92625,4.986391 1.8495,7.457951 2.66013,7.12119 10.78088,19.06262 18.7818,26.80766 2.13411,-4.75307 3.61491,-9.86732 3.47576,-14.60582 -0.42769,-14.56401 -4.85002,-12.04034 -4.71393,-19.959516 0.051,-2.969691 -1.35374,-3.920231 -3.12952,-3.948594 z m -9.15908,-19.977053 c -7.35802,7.894357 -9.84632,20.091715 -5.54038,31.618793 4.30595,11.52708 22.91969,35.69838 32.17308,34.22543 9.25338,-1.47295 31.25939,-17.95678 32.29941,-29.04528 1.04005,-11.0885 2.0111,-39.222771 -0.94281,-39.968275 -1.21756,-0.307285 -20.24846,10.240532 -20.28558,10.120333 z" />
        <path
           id="path8683-6"
           style="fill:#282a2e;stroke:none;stroke-width:0.264583px;stroke-linecap:butt;stroke-linejoin:miter;stroke-opacity:1"
           d="m 239.4343,87.068006 c -0.11923,-0.0035 -0.23798,-0.0034 -0.35553,0.0016 -0.81395,0.03402 -2.24113,0.818007 -4.0318,1.968873 0.26679,2.27624 1.17644,4.573225 2.68821,6.306592 0.054,-0.07129 0.10659,-0.143091 0.15761,-0.215492 3.58668,-5.089125 8.94274,-1.704763 13.69581,-1.754412 -3.97365,-2.124343 -8.45803,-6.197529 -12.1543,-6.307109 z m 16.37101,4.600751 c -2.12867,8.266726 -6.4249,9.342473 -14.96873,6.462776 -8.54384,-2.879698 -8.93264,-19.082155 1.02059,-17.418883 7.28026,3.045203 11.99443,6.429676 13.94814,10.956107 z" />
        <path
           id="path10127-7-7-0-9"
           style="display:inline;fill:#282a2e;fill-rule:evenodd;stroke:none;stroke-width:0.256702px;stroke-linecap:butt;stroke-linejoin:miter;stroke-opacity:1"
           d="m 282.15585,78.550798 c -2.66809,0.975312 -4.76708,1.850488 -6.65343,3.971639 3.18166,2.082787 6.92226,4.425575 10.22667,8.070763 0.14144,-0.209036 0.23912,-0.391246 0.28635,-0.534864 0.59009,-1.794314 1.59212,-9.322468 -3.85959,-11.507538 z m -11.71229,13.424133 c 6.46377,8.233639 15.11456,0.173789 15.72691,-1.688095 0.61233,-1.861883 1.65238,-9.673481 -4.00463,-11.940833 -5.1613,1.886696 -8.27169,3.409296 -11.72228,13.628928 z" />
        <path
           id="path8685-3"
           style="display:inline;fill:#373b41;stroke:none;stroke-width:0.264583px;stroke-linecap:butt;stroke-linejoin:miter;stroke-opacity:1"
           d="m 285.51045,65.240279 c -2.46554,2.128239 -3.46487,-2.564757 -9.19683,5.234823 -0.0919,0.125106 -0.18434,0.245986 -0.277,0.365869 0.26483,0.372351 0.54679,0.704289 0.84077,0.982885 1.77758,1.684477 4.07913,1.785101 6.0601,1.18029 1.178,-0.740455 2.26814,-1.427787 3.06699,-2.024166 0.24009,-0.179218 0.46734,-0.386971 0.68628,-0.609782 -0.67437,-1.894168 -0.80219,-3.589568 -1.18031,-5.129919 z m -25.96297,54.472471 c 2.92572,-8.25018 3.66442,-34.184056 -1.05947,-38.122953 -4.72389,-3.9389 -11.6737,-3.35965 -19.99397,-5.171877 -8.32026,-1.812223 -19.15802,-1.324004 -20.06199,-13.728234 1.49688,-2.714201 0.50543,-1.655008 6.86229,3.566528 6.35685,5.221534 25.70932,3.127949 30.54984,5.81733 4.84053,2.689381 13.82177,8.183978 20.7424,-1.232979 6.9206,-9.416955 6.94004,-0.612355 10.97383,-7.604731 4.03378,-6.992374 3.2173,4.749858 -1.28305,8.109508 -4.50032,3.35965 -16.73775,8.66394 -17.32094,19.760716 -0.5832,11.096782 4.08236,23.178282 2.20641,27.075812 -1.87595,3.89754 -11.61535,1.53088 -11.61535,1.53088 z" />
        <path
           style="fill:#282a2e;fill-opacity:1;stroke:none;stroke-width:0.264583px;stroke-linecap:butt;stroke-linejoin:miter;stroke-opacity:1"
           d="m 266.31259,111.68599 c -6.84285,7.60473 -7.32887,3.77341 -8.47582,21.16747 10.77945,-4.4023 16.28095,-16.59966 8.47582,-21.16747 z"
           id="path9553" />
      </g>
    </g>
  </g>
</svg>
