<?xml version="1.0" encoding="UTF-8" standalone="no"?>
<!-- Created with Inkscape (http://www.inkscape.org/) -->

<svg
   width="144.91583mm"
   height="150.62296mm"
   viewBox="0 0 144.91583 150.62296"
   version="1.1"
   id="svg5"
   inkscape:version="1.1 (c68e22c387, 2021-05-23)"
   sodipodi:docname="temporal-cascade-hands.svg"
   xmlns:inkscape="http://www.inkscape.org/namespaces/inkscape"
   xmlns:sodipodi="http://sodipodi.sourceforge.net/DTD/sodipodi-0.dtd"
   xmlns="http://www.w3.org/2000/svg"
   xmlns:svg="http://www.w3.org/2000/svg">
  <sodipodi:namedview
     id="namedview7"
     pagecolor="#ffffff"
     bordercolor="#666666"
     borderopacity="1.0"
     inkscape:pageshadow="2"
     inkscape:pageopacity="0.0"
     inkscape:pagecheckerboard="0"
     inkscape:document-units="mm"
     showgrid="false"
     inkscape:snap-nodes="false"
     inkscape:zoom="1.0998546"
     inkscape:cx="264.58043"
     inkscape:cy="443.69501"
     inkscape:window-width="851"
     inkscape:window-height="1415"
     inkscape:window-x="854"
     inkscape:window-y="0"
     inkscape:window-maximized="1"
     inkscape:current-layer="g8648"
     fit-margin-top="0"
     fit-margin-left="0"
     fit-margin-right="0"
     fit-margin-bottom="0" />
  <defs
     id="defs2" />
  <g
     inkscape:label="Layer 1"
     inkscape:groupmode="layer"
     id="layer1"
     transform="translate(-62.240932,-21.020501)">
    <g
       id="g8648"
       inkscape:label="hands">
      <g
         id="g1736"
         style="display:inline;opacity:1;fill:#282a2e;fill-opacity:1;stroke:none;stroke-opacity:1">
        <path
           id="path4834"
           style="fill:#282a2e;fill-opacity:1;stroke:none;stroke-width:0.264583px;stroke-linecap:butt;stroke-linejoin:miter;stroke-opacity:1"
           d="m 134.96566,58.95564 c 0,0 0.97202,-4.650554 5.54039,-5.718029 -1.75932,-1.497772 -1.71073,-2.457675 -4.07268,-2.614898 -1.03031,2.92935 -3.10066,5.858697 -1.46771,8.332927 z M 111.56,42.984882 c 0,0 4.81138,-10.120336 6.74565,-11.684309 -1.78847,0.223427 -2.15783,0.496501 -4.63642,-0.364101 -0.75815,1.67155 -3.52834,9.259731 -2.10923,12.04841 z m -14.570226,1.448123 c 0,0 5.890296,-17.55128 9.583886,-20.803361 3.69358,-3.25208 7.10529,-1.282631 9.95324,-2.20943 2.84795,-0.926799 3.66441,-0.77785 12.5193,6.446231 3.95603,-0.239977 9.13679,-2.863149 12.0236,5.080855 2.22586,2.242524 5.0641,5.353928 -0.068,9.152157 -4.55867,-1.026102 -5.16131,-1.249529 -7.69821,-5.304282 -2.89655,0.67855 -3.43116,1.580526 -7.16362,0.893702 -1.02059,3.657552 -4.07266,7.083406 -1.64267,11.676033 3.00347,-2.772127 5.99723,-7.265453 8.96181,-7.52198 2.96458,-0.256524 11.66395,1.323999 12.88866,4.269902 1.22472,2.945899 1.73015,3.649284 4.6267,5.370483 1.7496,0.984721 5.67646,3.012104 5.75422,4.965001 0.0778,1.9529 -2.80904,6.694472 -3.0229,9.458325 -0.21385,2.763854 -3.73247,8.092969 -6.73593,5.643563 -3.00347,-2.449404 -2.27449,-4.509881 -0.78733,-8.051583 -0.70955,-1.141947 -1.62323,-0.537864 -1.97315,1.671555 -0.34993,2.209419 -2.60494,9.872083 -5.44318,11.949107 -2.57579,5.155327 -2.10923,16.301752 -6.60956,21.821185 -4.50034,5.519432 -9.95325,12.718682 -9.95325,12.718682 0,0 -37.32465,-32.330442 -25.213576,-67.226145 z" />
        <path
           style="fill:#373b41;fill-opacity:1;stroke:none;stroke-width:0.264583px;stroke-linecap:butt;stroke-linejoin:miter;stroke-opacity:1"
           d="m 76.052984,171.14817 c 0,0 19.60516,-71.471226 21.004836,-81.632936 -2.89655,-2.350097 -10.432265,-1.418795 -12.101356,-4.22852 -3.858819,-6.495884 2.190512,-9.165241 1.234441,-21.663965 -0.180944,-2.365487 7.437463,-6.48993 7.834295,-13.703416 0.359631,-6.537252 9.94351,-10.352039 4.840536,10.128605 -5.102979,20.480644 2.925714,0.273074 5.666734,2.548702 2.74102,2.275626 21.60746,13.339305 14.86181,29.765196 8.22309,6.520709 0.14581,51.942224 3.25619,78.835994 -19.71207,0.13239 -46.597486,-0.0497 -46.597486,-0.0497 z"
           id="path952"
           sodipodi:nodetypes="ccsssssccc" />
      </g>
      <g
         id="g1744"
         style="display:inline;opacity:1;stroke:none;stroke-opacity:1"
         transform="translate(0.10692699,0.09102135)">
        <path
           id="path4834-6-2"
           style="display:inline;fill:#b4b7b4;fill-opacity:1;fill-rule:evenodd;stroke:none;stroke-width:0.264583px;stroke-linecap:butt;stroke-linejoin:miter;stroke-opacity:1"
           d="m 143.88923,43.915323 c -0.20833,0.159631 -0.4251,0.326594 -0.63097,0.48369 -6.65817,5.080857 -13.03451,7.016986 -16.66978,12.263334 -2.51747,8.457057 -8.30055,21.316807 -14.23944,31.701941 -1.6276,2.246482 -2.99061,4.776798 -4.1305,7.501869 6.92591,9.641313 13.86995,15.659513 13.86995,15.659513 0,0 5.45306,-7.19918 9.9534,-12.718609 4.50033,-5.519433 4.03363,-16.665561 6.60942,-21.820888 2.83824,-2.077024 5.09314,-9.739723 5.44307,-11.949142 0.34992,-2.209419 1.26346,-2.813679 1.97301,-1.671732 -1.48716,3.541702 -2.21592,5.6023 0.78755,8.051704 3.00346,2.449407 6.52217,-2.87973 6.73602,-5.643583 0.21386,-2.763854 3.10036,-7.505438 3.02256,-9.458338 -0.0778,-1.952895 -4.00457,-3.98035 -5.75417,-4.965071 -2.89655,-1.721199 -3.40188,-2.424832 -4.62659,-5.370732 -0.32822,-0.789495 -1.19587,-1.479671 -2.34353,-2.063956 z m 23.52165,16.852541 c -3.08122,-1.117121 -3.45058,-0.761299 -7.09557,3.012104 0.30132,0.463405 2.98403,-0.132403 7.09557,-3.012104 z m -54.94693,27.729545 c 5.9389,-10.385134 11.72227,-23.244492 14.23974,-31.701547 3.63527,-5.246351 10.01156,-7.182701 16.66973,-12.263556 6.65817,-5.080852 14.67714,-11.642934 19.27468,-9.607283 4.59754,2.035652 10.58506,2.887978 14.36611,3.285178 3.78106,0.397201 16.41701,3.922353 16.14485,7.745407 -0.27216,3.823052 -3.18815,4.038203 -7.8926,3.310001 2.27446,2.068751 2.76046,2.929348 3.8491,6.628278 2.6341,2.805229 7.25108,10.525805 2.08006,11.245731 -5.17101,0.719929 5.83199,6.148329 -0.41794,10.881635 -6.24994,4.733309 -0.65124,3.889261 -4.66559,5.726311 -4.01434,1.83705 -8.94235,-6.653104 -8.9132,-10.451333 -2.40083,-0.819232 -7.38717,-0.397203 -9.52556,-1.373655 -2.61467,1.423304 -12.30546,7.960553 -14.91041,7.852981 -0.85538,2.267352 -3.52838,7.646093 -5.90976,9.003202 -0.95255,3.235531 -10.50726,9.499724 -14.93956,18.097451 -4.43231,8.59772 -8.53412,7.62953 -13.71486,19.15662 -5.18075,11.52709 -13.16084,29.45076 -13.16084,29.45076 0,0 -7.844,-45.90974 7.42605,-66.986181 z"
           sodipodi:nodetypes="ccccccscscssscsccccccssssccsssccccsscc" />
        <path
           style="display:inline;fill:#c5c8c6;fill-opacity:1;stroke:none;stroke-width:0.264583px;stroke-linecap:butt;stroke-linejoin:miter;stroke-opacity:1"
           d="m 62.134005,171.18953 c 0,0 56.861765,-94.988774 62.071665,-98.538752 5.20989,-3.549978 10.28373,-1.084025 13.9773,-6.106957 1.72043,-2.077024 16.91274,-5.701474 19.81901,-4.336102 2.90626,1.365374 7.98977,6.404853 -2.83825,10.517531 -7.24136,4.170608 -12.33462,3.963736 -16.96132,8.564634 -3.13542,3.117932 -31.44788,57.851316 -37.27754,89.944556 -7.814038,0.64446 -23.498663,-0.14775 -38.790865,-0.0449 z"
           id="path1738"
           sodipodi:nodetypes="cscscscc" />
      </g>
      <g
         id="g3178"
         style="display:inline;opacity:1;fill:#c5c8c6;stroke:none;stroke-opacity:1"
         transform="translate(50.154996,-14.547469)">
        <path
           id="path1738-1-2"
           style="display:inline;fill:#c5c8c6;fill-opacity:1;stroke:none;stroke-width:0.264583px;stroke-linecap:butt;stroke-linejoin:miter;stroke-opacity:1"
           d="m 142.51418,90.337073 c -1.0307,0.321035 -2.03132,0.589574 -2.93367,0.71882 -3.70811,0.531117 -7.045,1.676339 -10.25932,2.979663 1.79712,2.93846 4.41719,5.330336 6.73757,4.268473 4.01435,-1.83705 -1.58459,-0.992958 4.66535,-5.726266 0.97297,-0.736862 1.52725,-1.490525 1.79007,-2.24069 z m -42.898675,9.961667 c -5.027645,1.24796 -10.139619,2.59228 -12.852961,5.47047 -0.411488,0.43648 -1.112039,1.03713 -1.942518,1.71204 -0.66294,2.2394 -1.538259,4.29641 -2.831351,5.88233 -3.625893,4.44696 -7.162925,9.06752 -8.675439,11.05152 -6.374328,13.60741 -13.352071,30.09208 -17.997352,44.88201 0.536413,-1.20467 7.833476,-17.59242 12.82919,-28.70781 5.18074,-11.52709 9.282615,-10.55873 13.714926,-19.15645 4.4323,-8.59772 13.987105,-14.86207 14.939655,-18.0976 0.936638,-0.53378 1.917325,-1.69247 2.81585,-3.03651 z M 66.51985,120.61843 c -4.611965,3.20843 -9.186974,6.40561 -12.801285,9.07283 -0.01415,0.12653 -0.03024,0.25274 -0.04392,0.37931 3.635576,-2.695 8.315777,-5.96456 13.033829,-9.2475 -0.06143,-0.0658 -0.126468,-0.13772 -0.188621,-0.20464 z m 12.79204,-8.77831 c -10.19698,7.33926 -26.82935,18.37423 -31.391884,22.69009 -6.211059,5.87526 -30.112374,50.99895 -30.112374,50.99895 l 28.181744,0.52452 c 1.888844,-0.0362 3.574354,-0.10465 4.993494,-0.22169 3.99621,-21.99983 18.55534,-54.63372 28.32902,-73.99187 z m -61.794849,73.5564 c 0,0 23.901368,-45.1236 30.112428,-50.99886 6.211061,-5.87525 34.836341,-24.22922 39.064521,-28.71426 4.22818,-4.48505 14.28835,-5.24635 20.76184,-7.720583 6.47349,-2.474229 13.55933,-5.072578 18.10827,-2.45768 4.37399,-1.886696 8.80629,-3.798228 13.94815,-4.534704 5.14186,-0.736476 13.40384,-5.883518 12.97615,-0.661995 -0.2609,3.185187 7.82521,7.34814 2.94343,8.639112 -11.01033,2.91165 -5.43732,4.94874 -10.63172,7.31668 -3.84329,1.75201 -11.18691,-0.91528 -12.08211,-0.58911 -4.65586,1.69637 -4.1893,3.7072 -8.75769,5.29601 -2.26757,0.78861 13.95602,-3.33615 14.12698,2.96726 0.0363,1.33879 -9.66191,2.55611 -15.68775,5.55327 -4.20424,2.09112 -11.59502,1.63487 -15.98374,4.07402 -6.0317,3.35228 -8.32031,7.37303 -5.16132,8.36603 3.15899,0.993 11.77088,-0.28134 15.79494,-2.69765 4.02406,-2.4163 14.11338,-2.14322 19.14833,-3.10312 5.03494,-0.9599 12.05275,6.61172 -0.37908,12.3463 -12.43183,5.73459 -12.218,7.61301 -20.09116,7.37303 -7.87317,-0.23997 -18.13744,11.72568 -27.06037,13.64548 -8.92293,1.91981 -16.93218,1.09232 -20.43136,7.38132 -3.49918,6.28899 -8.05784,19.31386 -8.05784,19.31386 z" />
      </g>
      <g
         id="g7323">
        <path
           style="fill:#e0e0e0;fill-opacity:1;stroke:none;stroke-width:0.264583px;stroke-linecap:butt;stroke-linejoin:miter;stroke-opacity:1"
           d="m 96.100139,45.641849 c 1.481143,1.064938 2.354022,3.235773 2.178757,5.801575 -1.024083,1.837314 -1.261208,2.284941 -2.209686,3.086571 -1.05845,-0.863071 -1.917579,-2.188393 -1.941635,-3.033909 0.305848,-1.571074 1.003462,-5.330544 1.972564,-5.854237 z"
           id="path6865" />
        <path
           style="fill:#e0e0e0;stroke:none;stroke-width:0.264583px;stroke-linecap:butt;stroke-linejoin:miter;stroke-opacity:1"
           d="m 124.11498,26.994884 c 1.94508,-1.170261 2.62207,-0.786999 3.55681,-0.430069 1.68733,1.869492 2.19594,2.960761 2.07566,4.107619 -1.2887,-0.08777 -2.82482,-0.157986 -3.89015,-0.740191 -0.62888,-1.149784 -1.74232,-2.937359 -1.74232,-2.937359 z"
           id="path6966" />
        <path
           style="fill:#e0e0e0;fill-opacity:1;stroke:none;stroke-width:0.264583px;stroke-linecap:butt;stroke-linejoin:miter;stroke-opacity:1"
           d="m 138.45904,34.543079 c 1.40554,-0.892326 1.73889,-0.8894 2.89355,-0.988872 1.33337,1.181965 2.63238,3.063157 3.00008,4.69275 -1.03095,0.257461 -5.83521,1.158563 -5.89363,-3.703878 z"
           id="path7034" />
        <path
           style="fill:#e0e0e0;fill-opacity:1;stroke:none;stroke-width:0.264583px;stroke-linecap:butt;stroke-linejoin:miter;stroke-opacity:1"
           d="m 149.23788,52.607143 c -1.93476,-1.345803 -2.409,0.04681 -2.99665,0.772374 1.25777,2.387333 0.5464,4.239276 2.73547,4.859515 2.18906,0.620239 2.27154,-0.187245 2.76297,-0.748972 -0.6392,-1.576924 -1.2131,-3.62781 -2.50179,-4.882917 z"
           id="path7102" />
        <path
           style="fill:#e0e0e0;fill-opacity:1;stroke:none;stroke-width:0.264583px;stroke-linecap:butt;stroke-linejoin:miter;stroke-opacity:1"
           d="m 153.69338,64.5675 c -1.44678,-1.98652 -2.24749,-1.57693 -3.34717,-1.489159 -1.06189,1.225851 -1.66671,3.978894 -0.98972,5.447572 1.19247,1.219996 1.45366,1.939705 2.37464,2.220571 1.0069,-1.720286 2.26123,-4.262675 1.96225,-6.178984 z"
           id="path7170" />
      </g>
      <g
         id="g7775">
        <path
           style="fill:#373b41;stroke:none;stroke-width:0.264583px;stroke-linecap:butt;stroke-linejoin:miter;stroke-opacity:1"
           d="m 184.60526,40.037297 c 2.81451,2.715009 3.90046,3.832609 4.196,4.645941 1.96569,-0.368631 4.76989,-0.795777 4.59807,1.781725 0.44674,-1.746615 0.56702,-3.060234 -8.79407,-6.427666 z"
           id="path7498" />
        <path
           style="fill:#373b41;stroke:none;stroke-width:0.264583px;stroke-linecap:butt;stroke-linejoin:miter;stroke-opacity:1"
           d="m 189.33048,55.926537 c -2.10659,1.097118 -0.59109,3.007577 1.1478,6.360377 1.77325,1.179039 3.43996,1.919229 3.13411,2.820331 0.28867,-1.813907 -0.50173,-4.432369 -4.28191,-9.180708 z"
           id="path7566" />
        <path
           style="fill:#373b41;fill-opacity:1;stroke:none;stroke-width:0.264583px;stroke-linecap:butt;stroke-linejoin:miter;stroke-opacity:1"
           d="m 188.7773,67.742622 c -2.49491,-0.02633 -0.89349,4.154432 -0.43987,5.95371 1.79043,1.026908 3.00697,2.042109 4.15476,1.474533 -0.37458,-3.112899 -0.84196,-4.432371 -3.71489,-7.428243 z"
           id="path7634" />
        <path
           style="fill:#373b41;fill-opacity:1;stroke:none;stroke-width:0.264583px;stroke-linecap:butt;stroke-linejoin:miter;stroke-opacity:1"
           d="m 184.63127,75.65687 c -1.80761,1.813907 0.38832,4.485034 1.16155,5.745991 1.81105,0.207722 1.83166,0.324747 2.09284,1.097121 0.38146,-1.957266 -0.18901,-2.911028 -0.34709,-3.703881 -0.92442,-0.529545 -2.02067,-1.287288 -2.9073,-3.139231 z"
           id="path7702" />
        <path
           id="path7364-0"
           style="display:inline;fill:#373b41;fill-opacity:1;fill-rule:evenodd;stroke:none;stroke-width:0.264583px;stroke-linecap:butt;stroke-linejoin:miter;stroke-opacity:1"
           d="m 153.48633,63.950915 c -1.47883,0.522176 -3.11808,1.539308 -4.29431,2.726965 -0.0121,0.618961 0.0742,1.198496 0.28422,1.654161 1.19247,1.219997 1.45407,1.939671 2.37505,2.220537 1.0069,-1.720286 2.26113,-4.262641 1.96215,-6.178952 -0.11286,-0.154972 -0.22166,-0.295614 -0.32711,-0.422711 z m 7.47564,5.313691 c -3.12724,0.991798 -11.83195,4.540615 -13.19282,1.521338 -1.36086,-3.019274 4.67367,-7.19419 7.68063,-7.10642 2.86263,1.416019 4.80084,2.557031 5.51219,5.585082 z" />
      </g>
      <g
         id="g8315">
        <path
           style="fill:#969896;stroke:none;stroke-width:0.264583px;stroke-linecap:butt;stroke-linejoin:miter;stroke-opacity:1"
           d="m 195.03254,74.636208 c 1.11294,2.263217 4.3837,2.197016 7.62045,1.381927 0.0972,-1.29504 0.95741,-4.720892 -7.62045,-1.381927 z"
           id="path7890" />
        <path
           style="fill:#969896;fill-opacity:1;stroke:none;stroke-width:0.264583px;stroke-linecap:butt;stroke-linejoin:miter;stroke-opacity:1"
           d="m 199.39011,80.571703 c 2.27566,2.06255 4.89395,3.020351 6.93155,0.925575 -0.99612,-1.543991 -0.80437,-2.31492 -2.86216,-2.634596 -1.1495,0.926326 -3.82309,1.806998 -4.06939,1.709021 z"
           id="path7958" />
        <path
           style="fill:#969896;fill-opacity:1;stroke:none;stroke-width:0.264583px;stroke-linecap:butt;stroke-linejoin:miter;stroke-opacity:1"
           d="m 192.49077,87.16457 c 2.29877,1.150226 5.24877,1.013688 6.12357,0.161362 -1.06919,-0.95163 1.06435,-1.617761 -6.12357,-0.161362 z"
           id="path8026" />
        <path
           style="fill:#969896;fill-opacity:1;stroke:none;stroke-width:0.264583px;stroke-linecap:butt;stroke-linejoin:miter;stroke-opacity:1"
           d="m 180.94346,96.825635 c 0.54431,1.290905 3.0958,0.947491 6.19647,0.08275 -0.28674,-1.199872 -1.5066,-2.155632 -3.69845,-1.563973 -2.19185,0.591658 -2.49802,1.481222 -2.49802,1.481223 z"
           id="path8094" />
        <path
           style="fill:#969896;fill-opacity:1;stroke:none;stroke-width:0.264583px;stroke-linecap:butt;stroke-linejoin:miter;stroke-opacity:1"
           d="m 183.24223,116.31328 c 0.89423,3.75271 2.24044,6.47105 7.88774,3.35551 5.6473,-3.11554 1.18583,-7.9109 -0.8991,-8.51498 -2.55634,1.09644 -7.58157,1.63018 -6.98864,5.15947 z"
           id="path8162" />
      </g>
    </g>
  </g>
</svg>
