<?xml version="1.0" encoding="UTF-8" standalone="no"?>
<svg
   xmlns:dc="http://purl.org/dc/elements/1.1/"
   xmlns:cc="http://creativecommons.org/ns#"
   xmlns:rdf="http://www.w3.org/1999/02/22-rdf-syntax-ns#"
   xmlns:svg="http://www.w3.org/2000/svg"
   xmlns="http://www.w3.org/2000/svg"
   xmlns:sodipodi="http://sodipodi.sourceforge.net/DTD/sodipodi-0.dtd"
   xmlns:inkscape="http://www.inkscape.org/namespaces/inkscape"
   width="687.09125mm"
   height="575.42969mm"
   viewBox="0 0 687.09124 575.42969"
   version="1.1"
   id="svg8"
   inkscape:version="1.0.2 (e86c870879, 2021-01-15)"
   sodipodi:docname="determinist-forces.svg">
  <defs
     id="defs2" />
  <sodipodi:namedview
     id="base"
     pagecolor="#e0e0e0"
     bordercolor="#666666"
     borderopacity="1.0"
     inkscape:pageopacity="0"
     inkscape:pageshadow="2"
     inkscape:zoom="0.24748738"
     inkscape:cx="1327.5781"
     inkscape:cy="1505.7104"
     inkscape:document-units="mm"
     inkscape:current-layer="layer1"
     inkscape:document-rotation="0"
     showgrid="false"
     inkscape:object-paths="true"
     inkscape:snap-intersection-paths="true"
     inkscape:snap-smooth-nodes="true"
     inkscape:snap-midpoints="true"
     inkscape:snap-nodes="true"
     inkscape:window-width="1278"
     inkscape:window-height="1415"
     inkscape:window-x="1280"
     inkscape:window-y="0"
     inkscape:window-maximized="0"
     fit-margin-top="0"
     fit-margin-left="0"
     fit-margin-right="0"
     fit-margin-bottom="0" />
  <metadata
     id="metadata5">
    <rdf:RDF>
      <cc:Work
         rdf:about="">
        <dc:format>image/svg+xml</dc:format>
        <dc:type
           rdf:resource="http://purl.org/dc/dcmitype/StillImage" />
        <dc:title />
      </cc:Work>
    </rdf:RDF>
  </metadata>
  <g
     inkscape:label="Layer 1"
     inkscape:groupmode="layer"
     id="layer1"
     transform="translate(6.294512,110.26996)">
    <path
       style="fill:#373b41;fill-opacity:1;stroke:none;stroke-width:0.264583px;stroke-linecap:butt;stroke-linejoin:miter;stroke-opacity:1"
       d="m 203.42395,-11.462916 c -39.39504,-18.626447 -75.034,-71.667937 -42.82915,-78.918758 29.0226,-6.534347 57.04624,-10.482226 -5.74512,-8.881118 -27.55918,0.702728 19.27985,-21.345038 -35.71421,5.889941 -10.1735,5.038273 44.60833,30.155862 -24.095573,45.031172 -18.044123,3.906793 -17.672451,-59.803611 -24.543485,-10.370902 -2.241413,16.125542 20.621805,23.105589 26.522535,43.79881 5.900733,20.6932213 -0.102809,117.529821 -0.102809,117.529821 0,0 83.842232,-125.02544 106.507812,-114.078966 z"
       id="path951"
       sodipodi:nodetypes="csssssscc" />
    <path
       style="fill:#1d1f21;fill-opacity:1;stroke:none;stroke-width:0.264583px;stroke-linecap:butt;stroke-linejoin:miter;stroke-opacity:1"
       d="m 134.65624,-68.932418 c 0,0 -3.73531,-11.37625 10.505,-18.170329 23.98828,-11.444856 41.98682,-11.161155 49.48138,13.330882 7.25863,23.721012 -4.77564,27.749072 -6.56707,53.692473 -1.79143,25.9434005 19.59812,46.776517 19.59812,46.776517 l 2.90927,58.69423 -65.93671,5.556488 -33.85885,7.250742 -15.090003,-29.957048 c 0,0 1.000723,-51.753621 28.081693,-57.486494 27.08097,-5.7328725 28.09277,-16.8093441 28.09277,-16.8093441 z"
       id="path953"
       sodipodi:nodetypes="cssscccccscc" />
    <path
       style="fill:#1d1f21;fill-opacity:1;stroke:none;stroke-width:0.264583px;stroke-linecap:butt;stroke-linejoin:miter;stroke-opacity:1"
       d="M 109.01494,85.187376 C 82.707805,78.382114 101.42002,37.836956 112.75141,21.16241 98.914792,-10.168758 87.603508,7.1683297 75.070157,0.95374528 L 39.836034,25.814431 C 34.891427,69.744248 55.26222,75.321682 52.756398,89.7427 c -10.023427,6.525302 -19.444303,17.4956 -27.050672,34.35858 -28.116743,48.80116 49.135954,40.72191 10.956835,172.53928 -4.142585,28.52109 -4.880453,55.56635 21.965782,70.65482 l 77.410547,17.7701 C 338.10763,286.0622 113.55519,155.86825 109.01494,85.187376 Z"
       id="path911"
       sodipodi:nodetypes="cccccccccc" />
    <path
       style="fill:#373b41;fill-opacity:1;stroke:none;stroke-width:0.264583px;stroke-linecap:butt;stroke-linejoin:miter;stroke-opacity:1"
       d="m 195.13963,303.23067 c 0,0 -34.051,94.94351 -99.263312,61.47673 -65.212311,-33.46677 -74.589452,-0.104 -68.35839,21.24507 6.231065,21.34907 -7.910991,-44.15436 38.516502,-0.5461 46.42749,43.60825 -71.9320752,36.58729 -71.9320752,36.58729 l -0.3968668,43.74683 697.732222,2.07155 -10.64097,-577.76314 c -169.51791,-7.07936 -130.52675,74.619544 -180.99474,1.1707 27.78598,58.666709 -50.41491,99.1161616 -87.23618,59.78256 -26.25275,-28.043991 0.51922,-55.36193 19.02915,-50.75927 18.5099,4.602658 -44.56427,-41.31993 -75.56685,29.020153 -31.00258,70.34008198 36.01185,19.42478 14.90567,46.234619 -21.10618,26.8098377 -52.90291,-27.433917 -78.37696,-4.264601 -25.47403,23.1693193 29.47537,-3.58853 12.58429,20.6989524 C 288.25007,16.219495 229.14777,65.119485 210.2543,11.318317 Z"
       id="path921"
       sodipodi:nodetypes="cssscccccsssssscc" />
    <path
       style="fill:#b4b7b4;fill-opacity:1;stroke:none;stroke-width:0.264583px;stroke-linecap:butt;stroke-linejoin:miter;stroke-opacity:1"
       d="M 105.5035,125.74382 81.891689,110.16599 c -16.202289,9.50535 -8.034668,40.69802 -3.140939,67.1682 l 16.269103,-18.0954 z"
       id="path841"
       sodipodi:nodetypes="ccccc" />
    <path
       style="fill:#373b41;fill-opacity:1;stroke:none;stroke-width:0.264583px;stroke-linecap:butt;stroke-linejoin:miter;stroke-opacity:1"
       d="m 105.54093,128.47013 c 0,0 3.61263,-62.916202 36.66169,-72.706606 33.04906,-9.7904 22.29709,24.110378 50.07857,-12.011229 7.92256,-10.300953 -10.88801,31.854219 0.94587,29.979795 7.82274,-1.23908 17.02724,-62.413773 17.02724,-62.413773 l 1.28411,289.426283 c 0,0 -55.77404,13.35288 -80.11795,-15.65424 -24.34391,-29.00713 -21.57964,-2.34032 -30.94151,-1.72923 -9.36187,0.61108 9.0106,-3.43255 2.47411,-24.9636 -6.536492,-21.53106 -30.97203,-47.15777 -34.057016,-35.33906 -3.084986,11.81872 2.336636,-59.65253 28.039761,-64.45022 25.703125,-4.79769 8.605125,-30.13812 8.605125,-30.13812 z"
       id="path837"
       sodipodi:nodetypes="csssccsssssc" />
    <path
       style="fill:#c5c8c6;fill-opacity:1;stroke:none;stroke-width:0.264583px;stroke-linecap:butt;stroke-linejoin:miter;stroke-opacity:1"
       d="m 105.5035,128.72997 c 0,0 7.60554,-56.194051 45.3279,-68.246774 37.72235,-12.052723 10.04211,0.258836 -0.51924,17.539515 C 114.9638,135.86035 255.41294,24.97928 268.76385,51.318956 210.42278,49.29249 218.45467,100.31493 255.26082,85.089793 c -52.61491,38.254197 -48.29275,82.498107 -9.70175,71.134027 27.62901,18.83445 3.22144,55.01003 47.53336,46.64203 -44.05652,86.78059 -4.95413,63.39553 21.0108,64.25714 -24.33016,27.67449 -55.97211,33.84968 -67.628,-20.65591 -4.28113,113.08623 131.1566,100.0738 57.59808,127.50983 3.14605,-8.10851 16.81462,-25.19677 -29.44249,-24.03915 24.50562,-13.33518 -61.79784,-68.64507 -63.09241,-49.19316 0,0 -61.24155,-51.43538 -49.40558,-26.91384 11.83598,24.5215 -2.91699,-5.16176 -24.2828,-22.24619 -21.3658,-17.08444 26.34105,-9.71103 4.59693,-32.49165 -39.43015,-41.30969 -37.28436,-1.77933 -19.3804,14.69209 4.6767,4.3025 15.92893,10.53155 -26.649992,3.08146 -42.578919,-7.45009 -13.042474,-72.65442 0.519237,-78.25822 13.561715,-5.6038 8.567695,-29.87828 8.567695,-29.87828 z"
       id="path835"
       sodipodi:nodetypes="csscccccccccssssssc" />
    <path
       style="fill:#ffffff;fill-opacity:1;stroke:none;stroke-width:0.264583px;stroke-linecap:butt;stroke-linejoin:miter;stroke-opacity:1"
       d="m 96.935805,158.60825 c -7.582797,-21.32085 7.546675,-28.92017 8.567695,-29.87828 1.95882,-1.83814 24.71046,7.78812 17.13543,25.08059 -7.57503,17.29247 26.32928,-32.19259 25.03114,-46.96271 -1.29815,-14.770131 -17.04379,-29.930312 6.79612,-6.1499 23.83991,23.78042 15.37912,0.052 33.18651,-1.352185 17.80739,-1.404208 -3.35989,-2.470351 -11.02653,24.313485 -7.66664,26.78383 21.20208,46.52649 34.27509,52.06529 13.07301,5.53879 -35.57324,-12.77367 -50.02073,12.827 -14.4475,25.60066 17.4103,35.22206 -4.52058,46.0006 -21.93088,10.77854 15.51657,-7.6711 -18.99862,-29.78728 -34.51519,-22.11617 -29.13933,4.66766 -17.83792,4.49865 11.3014,-0.16902 -72.926961,15.74691 -26.833281,-34.37693 14.814041,-16.1093 4.245676,-16.27833 4.245676,-16.27833 z"
       id="path833"
       sodipodi:nodetypes="cssssssssssssc" />
    <path
       style="fill:#1d1f21;fill-opacity:1;stroke:none;stroke-width:0.264583px;stroke-linecap:butt;stroke-linejoin:miter;stroke-opacity:1"
       d="m 105.5035,128.72997 v -5.97231 c -11.68072,9.54011 -16.962014,20.51073 -12.399599,37.11166 l 3.831904,-1.26107 c -3.654362,-12.77364 -1.999958,-23.25244 8.567695,-29.87828 z"
       id="path839"
       sodipodi:nodetypes="ccccc" />
    <path
       style="fill:#b4b7b4;fill-opacity:1;stroke:none;stroke-width:0.264583px;stroke-linecap:butt;stroke-linejoin:miter;stroke-opacity:1"
       d="M 59.466922,27.14022 C 76.069917,29.529785 92.400647,27.007292 107.78599,17.008466 110.964,47.097555 116.40214,87.463067 91.582194,90.963056 63.032208,94.989038 65.693446,53.606154 59.466922,27.14022 Z"
       id="path843"
       sodipodi:nodetypes="ccsc" />
    <path
       id="path845"
       style="fill:#373b41;fill-opacity:1;stroke:none;stroke-width:0.317657px;stroke-linecap:butt;stroke-linejoin:miter;stroke-opacity:1"
       d="m 64.182898,37.773552 c 6.461357,-0.83027 16.104039,1.242202 20.684206,-1.304538 -0.661863,-2.15915 -0.296801,-7.623989 1.927588,-3.29959 -0.262858,5.776411 4.237496,1.915484 7.018388,1.063511 4.654315,-1.926176 9.30864,-3.852351 13.96296,-5.778525 -1.00502,4.770673 -6.97403,4.666032 -10.418831,7.000006 -3.045401,1.400046 -6.090802,2.800093 -9.136203,4.200138 1.252942,9.959149 2.505885,19.918296 3.758828,29.877445 3.395159,-1.178552 6.790321,-2.357105 10.185476,-3.535657 1.76992,4.595574 -4.749167,4.370854 -7.595653,5.804356 -2.98785,0.03993 -1.266358,3.169122 -1.419423,5.06863 1.290612,2.686524 -0.67253,7.747267 -2.57984,3.017256 0.285034,-4.241862 -1.435404,-8.655545 -6.402424,-6.098675 -5.204301,0.450732 -3.105794,-3.97615 0.875885,-2.749729 5.809489,1.026844 3.895881,-4.409036 3.455689,-7.785347 -1.058528,-7.769833 -2.117057,-15.539667 -3.175586,-23.3095 -7.043965,0.434478 -14.08793,0.868955 -21.131896,1.303433 -0.003,-1.157734 -0.0061,-2.315541 -0.0091,-3.473214 z" />
    <path
       style="fill:#e0e0e0;fill-opacity:1;stroke:none;stroke-width:0.264583px;stroke-linecap:butt;stroke-linejoin:miter;stroke-opacity:1"
       d="M 69.655832,76.318109 C 111.72207,103.8622 104.34651,52.186298 108.48683,23.568965 c 1.18855,12.222004 4.84372,37.719272 -1.1566,53.864773 C 95.581685,100.43486 74.04176,91.919334 69.655832,76.318109 Z"
       id="path853"
       sodipodi:nodetypes="cccc" />
    <path
       style="fill:#b4b7b4;fill-opacity:1;stroke:none;stroke-width:0.264583px;stroke-linecap:butt;stroke-linejoin:miter;stroke-opacity:1"
       d="m 76.963266,108.04292 c 0,0 -25.075456,-12.154095 -16.13382,-10.848572 8.941638,1.305523 33.736324,17.045152 39.006271,13.808962 5.269943,-3.23619 9.179223,-25.815934 9.179223,-25.815934 0,0 -7.25697,20.134194 -35.204996,7.575603 -27.948022,-12.558596 -34.513869,6.784954 3.153322,15.279941 z"
       id="path855" />
    <path
       style="fill:#b4b7b4;fill-opacity:1;stroke:none;stroke-width:0.264583px;stroke-linecap:butt;stroke-linejoin:miter;stroke-opacity:1"
       d="M 60.89425,60.39195 C 55.429917,57.560289 60.541339,37.353192 51.250661,31.459372 39.280407,23.865683 35.423186,21.074052 39.836034,25.814431 39.990369,25.980221 37.352245,22.68856 44.782012,14.046485 52.211779,5.4044094 57.157767,8.8980125 59.144796,1.487889 c 1.987026,-7.4101233 26.976088,-10.8485787 18.639203,-3.2178037 -8.336884,7.6307749 4.082057,-3.6223216 15.961039,-0.6435561 11.878982,2.9787656 13.347672,8.2743426 21.295792,8.1088511 7.94811,-0.1654914 -8.07772,-0.4597011 -5.78832,4.6887827 2.28941,5.148484 3.4989,10.738247 3.4989,10.738247 0,0 -4.44922,-11.7863213 -7.90492,-8.053679 -3.45571,3.732641 -41.360471,12.4299 -45.528915,11.528908 -4.168442,-0.900993 1.576675,35.754311 1.576675,35.754311 z"
       id="path859"
       sodipodi:nodetypes="csssssssscssc" />
    <path
       style="fill:#373b41;fill-opacity:1;stroke:none;stroke-width:0.264583px;stroke-linecap:butt;stroke-linejoin:miter;stroke-opacity:1"
       d="m 75.072411,0.95731951 c 0,0 -1.101193,-6.30745691 -9.775806,1.61067179 C 56.621991,10.48612 53.628639,8.2172981 50.665832,12.364894 47.703025,16.51249 43.793346,26.881468 48.474272,19.411901 53.155201,11.942335 72.772348,3.2505856 78.499424,3.2180823 84.226497,3.1855791 75.072411,0.95731951 75.072411,0.95731951 Z"
       id="path861" />
    <path
       style="fill:#373b41;fill-opacity:1;stroke:none;stroke-width:0.264583px;stroke-linecap:butt;stroke-linejoin:miter;stroke-opacity:1"
       d="m 102.91968,5.7794506 c 0,0 -8.124812,-1.1571714 -9.69785,-3.3219788 C 91.648789,0.29266454 88.159086,7.9182594 80.255725,9.9790519 72.352365,12.039844 57.293972,17.416115 61.455646,18.21573 65.617319,19.015344 102.91968,5.7794506 102.91968,5.7794506 Z"
       id="path863" />
    <path
       style="fill:#969896;fill-opacity:1;stroke:none;stroke-width:0.264583px;stroke-linecap:butt;stroke-linejoin:miter;stroke-opacity:1"
       d="m 43.079389,97.591098 c 0,0 -16.064559,22.630832 -16.028518,34.231742 0.0386,12.42598 -4.047177,35.38752 11.673808,41.56475 14.999561,5.89376 19.017175,5.5346 19.017175,5.5346 0,0 -28.039248,5.54634 -31.889897,-2.23085 C 13.730738,152.21 15.506366,143.20835 22.314971,130.05582 36.774861,101.32996 37.334479,105.61825 43.079389,97.591098 Z"
       id="path913"
       sodipodi:nodetypes="csscscc" />
    <path
       style="fill:#e0e0e0;fill-opacity:1;stroke:none;stroke-width:0.264583px;stroke-linecap:butt;stroke-linejoin:miter;stroke-opacity:1"
       d="m 68.204891,23.651182 c 13.023936,-2.940783 26.848453,-5.314915 36.641599,-10.542451 0,0 -0.79214,-1.951657 2.79314,-4.2868547 3.58528,-2.3351979 8.70406,-2.7305285 8.70406,-2.7305285 0,0 -7.04101,-1.4985704 -11.67382,1.2411514 -4.6328,2.7397218 -23.167814,6.0951448 -36.464979,16.3186828 z"
       id="path915"
       sodipodi:nodetypes="ccscsc" />
    <path
       style="fill:#ffffff;fill-opacity:1;stroke:none;stroke-width:0.264583px;stroke-linecap:butt;stroke-linejoin:miter;stroke-opacity:1"
       d="m 109.01494,85.187376 c 0,0 -3.21117,18.936434 -12.098802,17.428674 -8.887637,-1.50777 -22.094912,-4.330233 -22.094912,-4.330233 0,0 28.528024,24.203003 34.193714,-13.098441 z"
       id="path917" />
    <path
       style="fill:#b4b7b4;fill-opacity:1;stroke:none;stroke-width:0.264583px;stroke-linecap:butt;stroke-linejoin:miter;stroke-opacity:1"
       d="m 46.958577,219.21719 c 0,0 17.901693,55.32184 -10.296016,77.42337 8.535362,-28.85942 12.147322,-54.77482 10.296016,-77.42337 z"
       id="path919"
       sodipodi:nodetypes="ccc" />
    <path
       style="fill:#b4b7b4;fill-opacity:1;stroke:none;stroke-width:0.264583px;stroke-linecap:butt;stroke-linejoin:miter;stroke-opacity:1"
       d="m 182.97531,-58.800664 c -16.60299,2.389565 -32.93372,-0.132928 -48.31907,-10.131754 -3.17801,30.089089 -8.61615,70.4546003 16.2038,73.95459 0.43331,0.061103 0.85943,0.1117467 1.2785,0.1521412 27.19276,2.6211211 24.70475,-37.9107232 30.83677,-63.9749772 z"
       id="path843-7"
       sodipodi:nodetypes="ccssc" />
    <path
       id="path845-2"
       style="fill:#373b41;fill-opacity:1;stroke:none;stroke-width:0.317657px;stroke-linecap:butt;stroke-linejoin:miter;stroke-opacity:1"
       d="m 178.25934,-48.167332 c -6.46136,-0.83027 -16.10404,1.242202 -20.68421,-1.304538 0.66186,-2.15915 0.2968,-7.623989 -1.92759,-3.29959 0.26286,5.776411 -4.23749,1.915484 -7.01839,1.063511 -4.65431,-1.926176 -9.30864,-3.852351 -13.96296,-5.778525 1.00502,4.770673 6.97403,4.666032 10.41883,7.000006 3.04541,1.400046 6.09081,2.800093 9.13621,4.200138 -1.25295,9.959149 -2.50589,19.918296 -3.75883,29.877445 l -10.18548,-3.535657 c -1.76992,4.595574 4.74917,4.370854 7.59566,5.804356 2.98785,0.03993 1.26635,3.169122 1.41942,5.06863 -1.29061,2.686524 0.67253,7.747267 2.57984,3.017256 -0.28503,-4.241862 1.4354,-8.655545 6.40242,-6.098675 5.2043,0.450732 3.1058,-3.97615 -0.87588,-2.749729 -5.80949,1.026844 -3.89588,-4.409036 -3.45569,-7.785347 1.05853,-7.769833 2.11706,-15.539667 3.17558,-23.3095 l 21.1319,1.303433 0.009,-3.473214 z"
       sodipodi:nodetypes="ccccccccccccccccccc" />
    <path
       style="fill:#e0e0e0;fill-opacity:1;stroke:none;stroke-width:0.264583px;stroke-linecap:butt;stroke-linejoin:miter;stroke-opacity:1"
       d="m 134.22397,-11.151401 c 32.18048,38.034102 37.74313,-17.244464 47.38394,-44.50522 -1.21738,12.219167 -2.60396,37.939749 -11.63724,52.6053823 -16.00793,20.2688477 -34.48697,8.0568079 -35.7467,-8.1001623 z"
       id="path853-7"
       sodipodi:nodetypes="cccc" />
  </g>
</svg>
