<?xml version="1.0" encoding="UTF-8" standalone="no"?>
<svg
   xmlns:dc="http://purl.org/dc/elements/1.1/"
   xmlns:cc="http://creativecommons.org/ns#"
   xmlns:rdf="http://www.w3.org/1999/02/22-rdf-syntax-ns#"
   xmlns:svg="http://www.w3.org/2000/svg"
   xmlns="http://www.w3.org/2000/svg"
   xmlns:sodipodi="http://sodipodi.sourceforge.net/DTD/sodipodi-0.dtd"
   xmlns:inkscape="http://www.inkscape.org/namespaces/inkscape"
   width="321.73334mm"
   height="198.33578mm"
   viewBox="0 0 321.73334 198.33578"
   version="1.1"
   id="svg3123"
   inkscape:version="1.0.1 (unknown)"
   sodipodi:docname="door.svg">
  <style
     id="style839"></style>
  <defs
     id="defs3117" />
  <sodipodi:namedview
     id="base"
     pagecolor="#ffffff"
     bordercolor="#666666"
     borderopacity="1.0"
     inkscape:pageopacity="0.0"
     inkscape:pageshadow="2"
     inkscape:zoom="0.75674649"
     inkscape:cx="817.20106"
     inkscape:cy="427.43977"
     inkscape:document-units="mm"
     inkscape:current-layer="layer1"
     inkscape:document-rotation="0"
     showgrid="false"
     inkscape:window-width="2158"
     inkscape:window-height="1416"
     inkscape:window-x="0"
     inkscape:window-y="0"
     inkscape:window-maximized="1"
     fit-margin-top="0"
     fit-margin-left="0"
     fit-margin-right="0"
     fit-margin-bottom="0" />
  <metadata
     id="metadata3120">
    <rdf:RDF>
      <cc:Work
         rdf:about="">
        <dc:format>image/svg+xml</dc:format>
        <dc:type
           rdf:resource="http://purl.org/dc/dcmitype/StillImage" />
        <dc:title />
      </cc:Work>
    </rdf:RDF>
  </metadata>
  <g
     inkscape:label="Layer 1"
     inkscape:groupmode="layer"
     id="layer1"
     transform="translate(0.07914625,-37.703197)">
    <rect
       style="opacity:1;fill:#1d1f21;fill-opacity:1;stroke:none;stroke-width:0.273131"
       id="rect979-0-0-1"
       width="321.73334"
       height="198.33578"
       x="-0.079146251"
       y="37.703197" />
    <path
       id="path841"
       style="fill:#c5c8c6;fill-opacity:1;stroke:none;stroke-width:0.264583px;stroke-linecap:butt;stroke-linejoin:miter;stroke-opacity:1"
       d="m 124.70947,86.84567 c 0.41068,-8.651599 -1.36464,-17.605053 0.82538,-26.065607 0.1626,8.489312 1.80278,21.997528 -0.57122,27.530299 l -0.25418,-1.464692 z" />
    <path
       id="path841-0"
       style="fill:#c5c8c6;fill-opacity:1;stroke:none;stroke-width:0.264583px;stroke-linecap:butt;stroke-linejoin:miter;stroke-opacity:1"
       d="m 124.56207,196.46872 c 0.2283,-9.16892 -0.33327,-18.40615 1.10633,-27.50438 0.66159,8.26521 1.30344,25.05085 -0.80489,28.61482 -0.20171,0.72831 0.26763,-1.78614 -0.30144,-1.11044 z" />
    <path
       id="path841-6"
       style="fill:#c5c8c6;fill-opacity:1;stroke:none;stroke-width:0.370379px;stroke-linecap:butt;stroke-linejoin:miter;stroke-opacity:1"
       d="m 125.23065,153.07273 c -0.0416,-17.96017 -0.9101,-35.94304 0.2636,-53.885706 1.08825,19.444216 1.57816,38.999926 0.53793,58.436346 -0.67053,-1.41102 -0.62571,-3.03449 -0.80153,-4.55064 z" />
    <path
       id="path841-6-5"
       style="fill:#c5c8c6;fill-opacity:1;stroke:none;stroke-width:0.407196px;stroke-linecap:butt;stroke-linejoin:miter;stroke-opacity:1"
       d="m 131.16379,59.460733 c 21.70861,0.0939 43.44192,-0.564951 65.12672,0.764557 -23.39926,0.979525 -46.8649,1.097011 -70.25587,0.08615 -1.83247,-0.683941 4.77308,-0.632417 5.12915,-0.850705 z" />
    <path
       id="path841-6-58"
       style="fill:#c5c8c6;fill-opacity:1;stroke:none;stroke-width:0.569636px;stroke-linecap:butt;stroke-linejoin:miter;stroke-opacity:1"
       d="m 195.67057,188.26746 c -0.18723,-41.88395 -0.63522,-83.77199 0.043,-125.653939 1.00258,3.253183 0.45856,12.636484 0.72677,18.268516 0.46208,39.266343 1.02296,78.543283 0.12426,117.807843 -1.19263,-3.19021 -0.43267,-7.01745 -0.89403,-10.42242 z" />
    <path
       id="path841-6-5-0"
       style="fill:#c5c8c6;fill-opacity:1;stroke:none;stroke-width:0.407196px;stroke-linecap:butt;stroke-linejoin:miter;stroke-opacity:1"
       d="m 129.67177,198.02002 c 21.70861,0.0939 43.44192,-0.56495 65.12672,0.76455 -23.39926,0.97953 -46.8649,1.09702 -70.25587,0.0862 -1.83247,-0.68395 4.77308,-0.63242 5.12915,-0.85071 z" />
    <path
       id="path841-6-4"
       style="fill:#c5c8c6;fill-opacity:1;stroke:none;stroke-width:0.317973px;stroke-linecap:butt;stroke-linejoin:miter;stroke-opacity:1"
       inkscape:transform-center-x="-0.26550636"
       inkscape:transform-center-y="1.0808014"
       d="m 80.659749,233.40376 c 15.02364,-11.72852 29.315491,-24.38873 44.758401,-35.57938 -7.39801,8.92232 -17.5946,14.9408 -26.455664,22.29065 -6.84291,5.22908 -13.734691,10.39826 -20.798287,15.32693 l 1.227239,-1.04367 z" />
    <path
       id="path841-6-4-0"
       style="fill:#c5c8c6;fill-opacity:1;stroke:none;stroke-width:0.317974px;stroke-linecap:butt;stroke-linejoin:miter;stroke-opacity:1"
       inkscape:transform-center-x="0.26550831"
       inkscape:transform-center-y="1.0808014"
       d="m 239.70864,234.23333 c -15.02364,-11.72852 -29.31549,-24.38872 -44.7584,-35.57938 7.39801,8.92232 17.59459,14.9408 26.45566,22.29065 6.84291,5.22908 13.73469,10.39825 20.79829,15.32693 l -1.22724,-1.04367 z" />
  </g>
</svg>
