<?xml version="1.0" encoding="UTF-8" standalone="no"?>
<svg
   xmlns:dc="http://purl.org/dc/elements/1.1/"
   xmlns:cc="http://creativecommons.org/ns#"
   xmlns:rdf="http://www.w3.org/1999/02/22-rdf-syntax-ns#"
   xmlns:svg="http://www.w3.org/2000/svg"
   xmlns="http://www.w3.org/2000/svg"
   xmlns:sodipodi="http://sodipodi.sourceforge.net/DTD/sodipodi-0.dtd"
   xmlns:inkscape="http://www.inkscape.org/namespaces/inkscape"
   width="120.05186mm"
   height="226.9138mm"
   viewBox="0 0 120.05186 226.9138"
   version="1.1"
   id="svg963"
   inkscape:version="1.0.1 (unknown)"
   sodipodi:docname="fire.svg">
  <defs
     id="defs957" />
  <sodipodi:namedview
     id="base"
     pagecolor="#ffffff"
     bordercolor="#666666"
     borderopacity="1.0"
     inkscape:pageopacity="0.0"
     inkscape:pageshadow="2"
     inkscape:zoom="0.8275987"
     inkscape:cx="201.41847"
     inkscape:cy="470.55712"
     inkscape:document-units="mm"
     inkscape:current-layer="layer1"
     inkscape:document-rotation="0"
     showgrid="false"
     inkscape:window-width="1078"
     inkscape:window-height="1416"
     inkscape:window-x="1080"
     inkscape:window-y="0"
     inkscape:window-maximized="1"
     fit-margin-top="0"
     fit-margin-left="0"
     fit-margin-right="0"
     fit-margin-bottom="0" />
  <metadata
     id="metadata960">
    <rdf:RDF>
      <cc:Work
         rdf:about="">
        <dc:format>image/svg+xml</dc:format>
        <dc:type
           rdf:resource="http://purl.org/dc/dcmitype/StillImage" />
        <dc:title></dc:title>
      </cc:Work>
    </rdf:RDF>
  </metadata>
  <g
     inkscape:label="Layer 1"
     inkscape:groupmode="layer"
     id="layer1"
     transform="translate(-40.737901,-22.719048)">
    <path
       style="fill:#1d1f21;stroke-width:0.264999;paint-order:stroke markers fill"
       id="path1566"
       d="m 82.983746,219.98166 c -2.310712,-0.64944 -4.423944,-0.46539 -6.482474,-1.91694 -0.563591,-0.39741 -0.984422,-0.96651 -1.457473,-1.4683 -0.39855,-0.42277 -0.655823,-1.00916 -1.156306,-1.30427 -0.799428,-0.47139 -1.750486,-0.61722 -2.625728,-0.92582 -0.473649,-0.8727 -0.741947,-1.89359 -1.420944,-2.6181 -0.981856,-1.04766 -2.54962,-1.46075 -3.449947,-2.57925 -2.022486,-2.51259 -2.185517,-5.47459 -2.757493,-8.4557 -1.418582,-7.39358 -0.756047,-3.03649 -1.699501,-11.40437 3.801787,-7.53909 0.556207,-3.53205 7.029773,-7.63602 0.86469,-0.54818 1.580388,-1.30549 2.419921,-1.89147 1.05541,-0.73666 2.722719,-0.90148 3.258299,-2.07182 1.119291,-9.12978 -0.362783,-4.91992 4.368586,-12.65662 1.015801,-2.22226 2.274464,-4.34884 3.047404,-6.66678 1.003885,-3.01052 1.078754,-6.30282 2.259658,-9.24841 3.459068,-8.62811 4.804588,-7.0642 10.009587,-13.93599 4.537951,-5.99114 4.162428,-6.60099 6.535332,-13.46343 2.4278,-2.03911 -0.11267,-6.30223 1.59622,-8.70819 0.42186,-0.59392 1.5753,-1.27427 2.05986,-0.7303 0.94749,1.06366 0.66149,2.77108 0.99224,4.15662 14.173,-10.3702 -0.49266,-30.41385 -14.665666,-20.043657 v 0 c -2.480572,6.678187 -2.574179,6.249647 -4.147513,13.188787 -0.513318,2.26398 -1.27594,4.51435 -1.33586,6.83502 -0.03963,1.53471 0.695698,2.9906 1.043548,4.48591 0.422622,1.48086 1.034746,2.92035 1.267865,4.4426 0.759388,4.95869 0.711039,9.31667 -1.664137,13.98969 -3.371506,6.63325 -7.293686,8.42101 -12.33388,13.55898 -1.605515,1.63666 -2.966397,3.49655 -4.449595,5.24483 -1.67794,1.30823 -3.338764,2.63872 -5.033823,3.9247 -3.157116,2.39518 -5.572093,3.58202 -7.805285,6.90816 -1.045678,1.55744 -2.013365,3.22828 -2.508937,5.03756 -1.220021,4.45418 0.01064,9.36217 -1.726163,13.74677 -0.832599,2.65579 -1.963846,5.23581 -2.497794,7.96735 -0.698405,3.57286 -0.817898,10.48275 0.126902,14.18901 0.518935,2.03569 2.02496,3.74388 2.475709,5.79574 3.169632,14.42851 -2.85093,0.0186 2.421575,11.27703 0.896536,1.41962 1.663838,2.92963 2.689606,4.25888 8.128624,10.53361 -1.916573,-3.63009 5.610495,5.28053 0.693084,0.82047 1.096351,1.8484 1.594289,2.80003 0.399296,0.76311 0.503198,1.71469 1.095288,2.34015 0.425376,0.44934 1.158518,0.43504 1.737775,0.65256 15.807706,11.01573 31.38629,-11.33974 15.578587,-22.35547 z" />
    <path
       style="fill:#1d1f21;stroke-width:0.264999;paint-order:stroke markers fill"
       id="path1572"
       d="m 135.89815,79.064338 c -2.22381,-0.832987 -4.86864,-1.535972 -6.16452,-3.875825 -1.17328,-2.118479 -1.43202,-4.64307 -1.81907,-7.033623 -1.5799,-9.758158 -0.55616,-10.736616 -0.10637,-21.204271 0.16015,-3.727138 0.16759,-7.459276 0.25139,-11.188914 1.77576,-2.411532 3.55152,-4.823063 5.32728,-7.234598 -1.24706,-8.832353 -13.73789,-7.06875 -12.49083,1.763604 v 0 c 2.19285,1.817902 4.38571,3.635807 6.57857,5.453708 -0.26832,10.986532 0.5343,11.803555 -3.16117,22.516238 -1.0912,3.163247 -2.84017,6.060416 -4.19054,9.12201 -1.27288,2.885911 -2.71996,5.713246 -3.67823,8.718309 -1.65885,5.201991 -1.99708,9.705308 -2.6261,14.980909 8.49769,15.612625 30.57728,3.595082 22.07959,-12.017547 z" />
    <path
       style="fill:#1d1f21;stroke-width:0.264999;paint-order:stroke markers fill"
       id="path1576"
       d="m 106.26248,249.07408 c 9.12073,-10.81624 -1.55458,1.39819 9.05697,-9.27669 1.96112,-1.97282 3.7545,-4.10586 5.6001,-6.18716 1.89408,-2.13598 3.22259,-4.91151 5.61835,-6.46401 8.69727,-2.03371 4.89207,-0.27393 11.59525,-4.87214 1.75929,-2.30492 3.42219,-4.68673 5.27788,-6.91478 3.28644,-3.9459 9.88461,-8.37958 7.33931,-15.18581 -1.49148,-3.98829 -11.78171,-9.11767 -15.11913,-11.71855 -2.06219,-1.60709 -3.80404,-3.58759 -5.70606,-5.38138 -2.42533,-1.77795 -5.26227,-3.10042 -7.276,-5.33386 -4.25802,-4.7226 -4.32827,-7.96342 -4.55619,-13.7504 -0.0676,-1.71544 -0.18682,-3.4638 0.14454,-5.14828 0.30365,-1.54359 1.15457,-2.92685 1.73185,-4.39027 0.44667,-2.50998 0.89334,-5.01995 1.34001,-7.52992 2.70516,-2.50118 5.41032,-5.00235 8.11547,-7.50353 0.50007,-0.36288 -0.0131,-1.07007 -0.51319,-0.70719 v 0 c -3.36152,2.07481 -6.72303,4.14963 -10.08455,6.22444 -3.47461,2.27774 -7.85217,3.57014 -10.4238,6.83321 -1.81695,2.30546 -1.75067,5.69283 -1.7614,8.6282 -0.0102,2.80351 0.47627,5.71458 1.69978,8.23704 1.11932,2.30766 3.3199,3.9144 5.09307,5.76752 9.37343,9.7961 3.677,1.77432 10.99822,14.20298 0.51236,0.60849 8.6566,10.1064 9.27521,11.45693 0.4189,0.91452 -0.94759,2.23013 -0.30309,3.00243 0.66665,0.79886 2.5683,-0.54233 3.10164,0.35106 3.55932,5.96221 -2.22693,6.42673 -5.77839,8.10386 -1.40449,1.50941 -2.97281,2.88151 -4.21347,4.52823 -1.40522,1.86514 -1.91506,4.43572 -3.6865,5.95736 -4.23865,3.64095 -9.4376,3.97269 -14.60107,4.56374 -1.5786,0.1807 -3.19521,0.63164 -4.75527,0.33024 -1.33441,-0.2578 -2.39019,-1.29439 -3.585288,-1.94159 -17.054232,4.50833 -10.678486,28.62665 6.375748,24.11832 z" />
    <path
       style="fill:#1d1f21;stroke-width:0.264999;paint-order:stroke markers fill"
       id="path1578"
       d="m 155.57941,123.1149 c -1.13918,-0.3777 -2.61557,-0.2402 -3.41752,-1.13309 -2.82168,-3.14164 -2.40691,-9.40553 -1.9091,-12.83433 0.45652,-3.14448 1.26239,-6.2528 2.35164,-9.237708 1.5487,-4.243954 5.78298,-11.478411 8.07226,-15.566319 1.21878,-6.37 -7.78976,-8.093612 -9.00854,-1.723609 v 0 c 0.67776,2.457833 2.25875,4.833921 2.03329,7.373503 -0.63218,7.120885 -5.66355,11.299873 -10.15,16.010953 -2.12712,2.23362 -4.31639,4.40825 -6.5323,6.55382 -8.2229,7.96186 -4.92397,3.03375 -9.22093,11.3763 0.57949,19.64428 28.36069,18.82475 27.7812,-0.81952 z" />
    <path
       style="fill:#1d1f21;stroke-width:0.264999;paint-order:stroke markers fill"
       id="path1584"
       d="m 106.3811,195.71204 c -1.13285,0.11604 -2.36834,0.83336 -3.39856,0.34811 -0.80061,-0.3771 -0.48252,-1.75716 -1.04443,-2.44085 -0.7454,-0.90693 -1.84846,-1.44788 -2.759821,-2.18785 -3.91055,-3.17511 -9.505429,-7.20568 -10.367547,-12.59084 -0.686361,-4.2873 1.654982,-8.52463 2.482471,-12.78695 7.742571,-17.45334 3.078787,-9.59809 13.586597,-23.8014 0.27633,-0.38508 -0.26825,-0.77586 -0.54458,-0.39079 v 0 c -10.43553,14.45384 -5.73913,6.50269 -13.710248,24.07326 -7.728485,45.10315 4.46134,-19.47121 -7.757308,25.12695 -0.342723,1.25094 0.120742,11.82655 0.675187,13.79755 3.519223,12.51046 1.678086,-4.64843 2.60132,9.38201 13.102124,14.30967 33.339049,-4.21954 20.236919,-18.5292 z" />
    <path
       style="fill:#1d1f21;stroke-width:0.264999;paint-order:stroke markers fill"
       id="path1592"
       d="m 51.138645,121.98545 c -1.935438,8.01207 1.907474,16.16349 0.722873,24.11908 -0.925449,6.21516 -5.015132,11.63731 -6.162333,17.81539 -1.383956,7.45307 -0.530164,15.16584 -1.361059,22.70064 -3.05077,27.66521 -5.882243,11.96386 -0.172982,31.58721 0.124542,0.47753 0.79988,0.30141 0.675338,-0.17613 v 0 c -2.625825,-11.45444 -5.019262,-19.14569 -3.75422,-32.03271 0.732136,-7.45828 3.417548,-14.59943 5.476607,-21.80513 1.717702,-6.01112 2.174915,-12.76068 5.846609,-17.8206 6.03917,-8.32251 10.56504,-5.85425 17.191405,-4.24721 14.241508,-13.05478 -4.220731,-33.19531 -18.462238,-20.14054 z" />
  </g>
</svg>
