<?xml version="1.0" encoding="UTF-8" standalone="no"?>
<svg
   xmlns:dc="http://purl.org/dc/elements/1.1/"
   xmlns:cc="http://creativecommons.org/ns#"
   xmlns:rdf="http://www.w3.org/1999/02/22-rdf-syntax-ns#"
   xmlns:svg="http://www.w3.org/2000/svg"
   xmlns="http://www.w3.org/2000/svg"
   xmlns:xlink="http://www.w3.org/1999/xlink"
   xmlns:sodipodi="http://sodipodi.sourceforge.net/DTD/sodipodi-0.dtd"
   xmlns:inkscape="http://www.inkscape.org/namespaces/inkscape"
   width="210mm"
   height="297mm"
   viewBox="0 0 210 297"
   version="1.1"
   id="svg1706"
   inkscape:version="1.0.1 (unknown)"
   sodipodi:docname="glass.svg">
  <defs
     id="defs1700">
    <linearGradient
       inkscape:collect="always"
       id="linearGradient2613">
      <stop
         style="stop-color:#969896;stop-opacity:1;"
         offset="0"
         id="stop2609" />
      <stop
         style="stop-color:#969896;stop-opacity:0;"
         offset="1"
         id="stop2611" />
    </linearGradient>
    <filter
       inkscape:label="Cracked Glass"
       inkscape:menu="Textures"
       inkscape:menu-tooltip="Under a cracked glass"
       style="color-interpolation-filters:sRGB;"
       id="filter2397">
      <feTurbulence
         baseFrequency="0.1"
         seed="50"
         numOctaves="5"
         result="result1"
         type="fractalNoise"
         id="feTurbulence2373" />
      <feGaussianBlur
         stdDeviation="4"
         result="result7"
         id="feGaussianBlur2375" />
      <feDisplacementMap
         result="result5"
         in="SourceGraphic"
         scale="20"
         xChannelSelector="G"
         in2="result7"
         id="feDisplacementMap2377" />
      <feComposite
         result="result2"
         operator="in"
         in2="result1"
         in="result5"
         id="feComposite2379" />
      <feGaussianBlur
         stdDeviation="1"
         result="result6"
         id="feGaussianBlur2381" />
      <feSpecularLighting
         surfaceScale="-3"
         result="result4"
         specularConstant="3.5"
         specularExponent="35"
         in="result6"
         id="feSpecularLighting2385">
        <feDistantLight
           elevation="45"
           azimuth="225"
           id="feDistantLight2383" />
      </feSpecularLighting>
      <feComposite
         k1="1.7"
         k3="0.7"
         in2="result2"
         in="result4"
         operator="arithmetic"
         result="result91"
         id="feComposite2387" />
      <feBlend
         result="fbSourceGraphic"
         mode="multiply"
         in2="result91"
         id="feBlend2389" />
      <feComposite
         in2="fbSourceGraphic"
         in="fbSourceGraphic"
         result="result2"
         operator="arithmetic"
         id="feComposite2391" />
      <feComposite
         in="result2"
         result="result4"
         operator="arithmetic"
         k2="2"
         k3="2"
         in2="fbSourceGraphic"
         id="feComposite2393" />
      <feBlend
         mode="screen"
         in="result4"
         in2="result4"
         id="feBlend2395" />
    </filter>
    <filter
       y="-0.2"
       width="1.2"
       height="1.4"
       x="-0.1"
       inkscape:label="Fire"
       inkscape:menu="Protrusions"
       inkscape:menu-tooltip="Edges of object are on fire"
       style="color-interpolation-filters:sRGB"
       id="filter2429">
      <feMorphology
         result="result1"
         radius="2.4"
         operator="dilate"
         id="feMorphology2403" />
      <feTurbulence
         baseFrequency="0.09 0.028"
         numOctaves="1"
         id="feTurbulence2405" />
      <feColorMatrix
         result="result2"
         values="2 0 0 0 0 0 2 0 0 0 0 0 0 0 0 0 0 0 1 0"
         id="feColorMatrix2407" />
      <feDisplacementMap
         result="result4"
         scale="10.31941"
         yChannelSelector="G"
         xChannelSelector="R"
         in="result1"
         in2="result2"
         id="feDisplacementMap2409" />
      <feFlood
         result="result3"
         flood-opacity="1"
         flood-color="rgb(255,159,54)"
         id="feFlood2411" />
      <feMorphology
         radius="3.8"
         result="result7"
         in="result4"
         id="feMorphology2413" />
      <feGaussianBlur
         result="result7"
         in="result7"
         stdDeviation="2.4"
         id="feGaussianBlur2415" />
      <feComposite
         result="result5"
         in2="result4"
         in="result3"
         operator="in"
         id="feComposite2417" />
      <feComposite
         operator="out"
         in2="result7"
         id="feComposite2419" />
      <feOffset
         result="result6"
         dy="-7"
         dx="-4.5"
         id="feOffset2421" />
      <feGaussianBlur
         result="result7"
         stdDeviation="4.8"
         id="feGaussianBlur2423" />
      <feComposite
         in="SourceGraphic"
         in2="result6"
         id="feComposite2425" />
      <feComposite
         in2="result7"
         id="feComposite2427" />
    </filter>
    <linearGradient
       inkscape:collect="always"
       xlink:href="#linearGradient2613"
       id="linearGradient2619"
       x1="95.935394"
       y1="143.17619"
       x2="149.27228"
       y2="143.17619"
       gradientUnits="userSpaceOnUse" />
  </defs>
  <sodipodi:namedview
     id="base"
     pagecolor="#ffffff"
     bordercolor="#666666"
     borderopacity="1.0"
     inkscape:pageopacity="0.0"
     inkscape:pageshadow="2"
     inkscape:zoom="1.4071848"
     inkscape:cx="290.55505"
     inkscape:cy="571.58484"
     inkscape:document-units="mm"
     inkscape:current-layer="layer1"
     inkscape:document-rotation="0"
     showgrid="false"
     inkscape:window-width="2158"
     inkscape:window-height="1416"
     inkscape:window-x="0"
     inkscape:window-y="0"
     inkscape:window-maximized="1" />
  <metadata
     id="metadata1703">
    <rdf:RDF>
      <cc:Work
         rdf:about="">
        <dc:format>image/svg+xml</dc:format>
        <dc:type
           rdf:resource="http://purl.org/dc/dcmitype/StillImage" />
        <dc:title></dc:title>
      </cc:Work>
    </rdf:RDF>
  </metadata>
  <g
     inkscape:label="Layer 1"
     inkscape:groupmode="layer"
     id="layer1">
    <path
       style="fill:url(#linearGradient2619);fill-opacity:1;stroke:none;stroke-width:0.264583px;stroke-linecap:butt;stroke-linejoin:miter;stroke-opacity:1"
       d="m 148.05209,73.251927 1.22019,136.336363 -53.336886,4.17461 16.231746,-25.08239 0.71843,-25.33723 c 0,0 8.96779,-27.03512 10.76043,-26.51968 1.79264,0.51544 -10.20368,-19.49103 -10.20368,-19.49103 l 16.60764,-26.642384 12.3585,-18.100702 z"
       id="path2595" />
    <path
       style="fill:#373b41;stroke-width:0.264999;paint-order:stroke markers fill;fill-opacity:1"
       id="path2437"
       d="m 128.40454,89.389991 c -0.52152,1.433783 -0.85135,2.952626 -1.56455,4.30135 -1.39508,2.638224 -3.17463,5.054658 -4.72978,7.601809 -0.7166,1.1737 -7.32518,12.20719 -8.76153,14.60439 -0.0323,0.0542 0.0444,0.0999 0.0767,0.0457 v 0 c 2.85171,-4.81686 5.83121,-9.87876 8.73302,-14.62044 1.55742,-2.544879 2.96447,-5.195263 4.74266,-7.591086 0.86973,-1.171824 2.09926,-2.027684 3.1489,-3.041528 0.91934,-1.163452 -0.72603,-2.463607 -1.64537,-1.300155 z" />
    <path
       style="fill:#373b41;stroke-width:0.264999;paint-order:stroke markers fill;fill-opacity:1"
       id="path2439"
       d="m 113.44232,117.33257 c 0.51757,1.26823 1.07516,2.52084 1.5527,3.80468 0.58551,1.57413 0.99525,3.21296 1.63518,4.76576 1.20551,2.92518 2.78948,5.91404 4.93735,8.27785 1.12,1.23258 2.4953,2.20639 3.74294,3.30958 0.10706,0.0906 0.2352,-0.0608 0.12815,-0.1514 v 0 c -1.28066,-1.06031 -2.69684,-1.97553 -3.84199,-3.18094 -2.38037,-2.50563 -3.65015,-5.08892 -4.80658,-8.30618 -0.56614,-1.57506 -1.00749,-3.19633 -1.37532,-4.82914 -0.29862,-1.32558 -0.41343,-2.68595 -0.62015,-4.02893 -0.23951,-0.95621 -1.59179,-0.61749 -1.35228,0.33872 z" />
    <path
       style="fill:#373b41;stroke-width:0.264999;paint-order:stroke markers fill;fill-opacity:1"
       id="path2441"
       d="m 123.646,136.8236 c -0.45197,0.36306 -1.08314,0.57763 -1.35591,1.08918 -0.54307,1.01845 -0.61049,2.2282 -0.99358,3.31696 -0.63182,1.79564 -1.35032,3.55972 -2.0491,5.33037 -1.35039,3.42177 -3.35547,8.49181 -5.03212,11.84908 -0.52013,1.04152 -1.18568,2.00383 -1.77852,3.00574 -0.28308,-0.0926 -0.56616,-0.18514 -0.84924,-0.27771 -1.10577,0.99974 0.30808,2.56353 1.41385,1.56379 v 0 c 0.0153,-0.32606 0.0307,-0.65212 0.046,-0.97817 1.58193,-4.11948 1.4975,-3.99046 3.58524,-8.86578 0.89455,-2.08898 1.7817,-4.18199 2.73978,-6.2426 1.35131,-2.90636 2.11571,-5.08585 4.28911,-7.24232 0.19026,-0.18878 0.49457,-0.20675 0.74185,-0.31012 1.58281,-0.53554 0.82545,-2.77396 -0.75736,-2.23842 z" />
    <path
       style="fill:#373b41;stroke-width:0.264999;paint-order:stroke markers fill;fill-opacity:1"
       id="path2443"
       d="m 110.76069,163.52062 c 0.77542,2.8112 1.40371,4.8384 1.81035,7.9084 0.42694,3.22329 0.49266,8.46167 0.54713,11.7017 0.0816,4.85444 0.48282,2.99108 -0.62624,6.21685 0.65018,0.0539 1.30035,0.10782 1.95053,0.16172 0.58604,-1.60889 -1.68928,-2.43767 -2.27532,-0.82878 v 0 c 0.63317,0.20684 1.26634,0.41368 1.89951,0.62052 -0.25292,-0.62734 -0.65456,-1.21369 -0.75876,-1.88201 -0.35452,-2.27392 -0.12507,-8.28355 -0.19423,-10.15787 -0.072,-1.95156 -0.36519,-3.89062 -0.4411,-5.84202 -0.14952,-3.84402 -0.0201,-4.75729 0.21301,-8.07585 -0.1254,-1.50251 -2.25028,-1.32517 -2.12488,0.17734 z" />
    <path
       style="fill:#373b41;stroke-width:0.264999;paint-order:stroke markers fill;fill-opacity:1"
       id="path2445"
       d="m 111.77816,189.97561 c -0.60386,0.97666 -1.36453,2.26822 -2.08125,3.14228 -0.44642,0.54441 -1.00896,0.986 -1.45734,1.52881 -0.48458,0.58663 -0.85723,1.25939 -1.33498,1.85159 -6.16859,7.64647 2.03317,-3.12665 -4.88396,6.10285 -1.83827,2.06139 -3.421199,4.33843 -5.241922,6.41441 -0.881567,1.00515 -2.294157,2.10656 -2.937761,3.38643 -0.186473,0.37082 -0.267359,0.79511 -0.297781,1.20906 -0.02214,0.30128 0.09544,0.59659 0.143159,0.89489 0.525401,1.59034 2.774471,0.84731 2.249069,-0.74303 v 0 c -0.09825,0.0793 -0.217011,0.33718 -0.294759,0.23774 -0.441844,-0.56515 0.09562,-1.97613 0.245745,-2.325 1.456386,-3.38447 4.11612,-6.03382 6.25814,-8.96652 0.9895,-1.03586 1.97899,-2.07173 2.96849,-3.10759 0.9443,-0.70705 1.97756,-1.30874 2.83291,-2.12115 0.56661,-0.53816 0.8858,-1.29068 1.38887,-1.88866 0.4714,-0.56033 1.02461,-1.04649 1.5279,-1.57837 2.83199,-2.9929 0.18596,-0.29515 2.72143,-2.85218 0.83832,-1.27701 -0.96764,-2.46257 -1.80596,-1.18556 z" />
    <path
       style="fill:#373b41;stroke-width:0.264999;paint-order:stroke markers fill;fill-opacity:1"
       id="path2447"
       d="m 125.37742,139.57846 c 0.69524,0.21122 1.37271,0.4937 2.08573,0.63366 2.01286,0.39511 4.96984,0.51758 6.93899,0.48638 1.18721,-0.0188 2.36974,-0.15377 3.55461,-0.23066 0.42078,-0.0318 0.37585,-0.62683 -0.0449,-0.59507 v 0 c -1.16091,0.12457 -2.3163,0.42535 -3.48273,0.37369 -1.08566,-0.0481 -5.03237,-0.92337 -6.27374,-1.50747 -0.56741,-0.26698 -1.00428,-0.75123 -1.50642,-1.12684 -1.39038,-0.8991 -2.66191,1.0672 -1.27152,1.96631 z" />
    <path
       style="fill:#373b41;stroke-width:0.264999;paint-order:stroke markers fill;fill-opacity:1"
       id="path2467"
       d="m 118.83567,116.79183 c 0.3219,-1.38814 1.07342,-4.70953 1.41452,-5.66505 0.71269,-1.99647 1.47309,-3.98723 2.44856,-5.86933 4.02583,-7.767536 6.97052,-11.51828 12.13422,-18.768424 1.63805,-2.29992 3.31058,-4.575093 4.96586,-6.862641 0.69699,-0.640302 1.39397,-1.280605 2.09096,-1.920907 0.42628,-0.584411 -0.4002,-1.187267 -0.82648,-0.602856 v 0 c -0.4372,0.82976 -0.87441,1.65952 -1.31161,2.489282 -3.95721,5.377336 -8.23421,11.049783 -11.80965,16.636892 -2.78343,4.349494 -5.77602,9.960274 -8.33561,14.640264 -0.59133,1.08122 -1.17027,2.16934 -1.77585,3.24263 -0.27554,0.48837 -0.57804,0.96102 -0.86706,1.44153 -0.87583,1.3238 0.99631,2.56241 1.87214,1.23861 z" />
    <path
       style="fill:#373b41;stroke-width:0.264999;paint-order:stroke markers fill;fill-opacity:1"
       id="path2469"
       d="m 117.47605,120.38064 c 0.30452,0.71834 0.57177,1.45363 0.91355,2.155 0.7485,1.53597 1.57016,3.03519 2.35524,4.55279 0.92487,2.30593 1.72527,4.66577 2.77462,6.91778 0.93645,2.00973 2.11522,3.89739 3.17283,5.84609 0.007,0.0123 0.0243,0.002 0.0174,-0.01 v 0 c -1.06971,-1.94291 -2.25583,-3.82613 -3.20914,-5.82873 -1.06868,-2.24494 -2.07942,-4.52938 -2.8474,-6.89413 -0.691,-2.1277 -0.98474,-4.84067 -1.28072,-7.15265 -0.2925,-1.34092 -2.18884,-0.92727 -1.89635,0.41364 z" />
    <path
       style="fill:#373b41;stroke-width:0.264999;paint-order:stroke markers fill;fill-opacity:1"
       id="path2481"
       d="m 117.15372,161.87295 c -0.51666,-1.6761 -0.38723,-0.78263 -0.25485,-2.87977 0.18153,-2.87605 0.0787,-3.8569 1.19901,-6.75697 0.51412,-1.33082 1.28865,-2.54578 1.93201,-3.81915 0.69015,-1.36599 1.37901,-2.73263 2.06851,-4.09894 0.74105,-0.90361 1.4821,-1.80723 2.22315,-2.71084 0.1863,-0.28444 -0.21596,-0.54791 -0.40226,-0.26347 v 0 c -0.56147,1.01852 -1.12294,2.03704 -1.68441,3.05556 -0.82882,1.29465 -1.71563,2.55396 -2.48645,3.88395 -1.49159,2.57364 -2.46883,4.76704 -3.50337,7.53644 -0.81491,2.18147 -1.4387,4.16996 -1.46598,6.49523 0.31257,1.67912 2.68721,1.23709 2.37464,-0.44204 z" />
    <path
       style="fill:#373b41;stroke-width:0.264999;paint-order:stroke markers fill;fill-opacity:1"
       id="path2485"
       d="m 114.53501,166.38223 c 0.27952,1.30128 0.82563,3.77061 0.9518,4.83492 0.22848,1.92756 0.39964,3.86428 0.47249,5.80396 0.09,2.39569 0.0104,4.79475 0.0156,7.19213 5.3e-4,0.0518 0.0739,0.051 0.0733,-8e-4 v 0 c -0.13769,-10.35689 -0.25811,-3.80981 0.33193,-13.00974 0.0685,-1.0686 0.0208,-2.14602 0.15144,-3.20883 0.0775,-0.63104 0.31333,-1.23237 0.47,-1.84856 -0.16758,-1.74411 -2.63412,-1.50712 -2.46654,0.23699 z" />
    <path
       style="fill:#373b41;stroke-width:0.264999;paint-order:stroke markers fill;fill-opacity:1"
       id="path2487"
       d="m 101.06593,213.64114 c 0.0632,-0.55316 0.0534,-1.1196 0.18949,-1.65947 0.46516,-1.84541 1.67076,-4.4296 2.47811,-6.00111 1.95686,-3.80901 3.28404,-5.91668 5.90567,-9.45508 0.81062,-1.09408 1.73814,-2.0965 2.60721,-3.14475 0.18772,-0.26082 -0.18115,-0.52629 -0.36886,-0.26547 v 0 c -2.97909,4.53419 -2.03485,3.16789 -5.7488,8.43051 -0.97566,1.3825 -2.00772,2.72568 -2.95017,4.13103 -0.73261,1.09245 -1.41805,2.21703 -2.0722,3.35819 -0.21408,0.37346 -1.803975,3.52581 -2.156411,4.22253 -0.271264,1.49621 1.844701,1.87983 2.115961,0.38362 z" />
    <path
       style="fill:#373b41;stroke-width:0.264999;paint-order:stroke markers fill;fill-opacity:1"
       id="path2493"
       d="m 131.66748,141.7363 c 1.05771,0.5042 2.00586,1.217 3.06277,1.72149 0.73314,0.34994 1.50373,0.6153 2.2556,0.92295 0.40318,0.21121 0.70187,-0.35898 0.29869,-0.57019 v 0 c -1.6385,-0.87282 -3.3726,-1.65412 -4.66137,-3.03558 -0.67975,-0.67578 -1.63545,0.28555 -0.95569,0.96133 z" />
    <path
       style="fill:#373b41;stroke-width:0.264999;paint-order:stroke markers fill;fill-opacity:1"
       id="path2495"
       d="m 137.08617,140.54745 c -0.10041,0.81234 -0.30178,1.6185 -0.30123,2.43703 0.001,1.60258 0.24452,3.19659 0.30604,4.79799 0.4962,12.91574 -0.32423,0.82415 0.62117,12.998 -0.002,-0.0295 -0.044,-0.0264 -0.0418,0.003 v 0 c -0.33207,-4.80471 -0.66914,-8.13198 -0.54786,-12.99985 0.0389,-1.56366 0.16348,-3.1295 0.40434,-4.675 0.11351,-0.7283 0.43566,-1.40835 0.65348,-2.11253 0.31735,-0.77371 -0.77684,-1.22251 -1.09419,-0.4488 z" />
    <path
       style="fill:#373b41;stroke-width:0.264999;paint-order:stroke markers fill;fill-opacity:1"
       id="path2499"
       d="m 137.59428,138.87275 c -1.29411,-1.13686 -2.58846,-2.37632 -3.50254,-3.85259 -0.62123,-1.00332 -1.06791,-2.10474 -1.60187,-3.15711 -0.13242,-0.2727 -0.51808,-0.0854 -0.38565,0.18728 v 0 c 0.33085,0.70452 2.23962,4.87566 2.83216,5.77987 0.0861,0.13134 1.62796,1.70579 1.91137,1.99663 0.67464,0.52788 1.42117,-0.42621 0.74653,-0.95408 z" />
    <path
       style="fill:#373b41;stroke-width:0.264999;paint-order:stroke markers fill;fill-opacity:1"
       id="path2503"
       d="m 137.70753,143.56441 c 1.87243,-3.70206 0.80088,-1.8914 3.239,-5.4175 0.14448,-0.20198 -0.14116,-0.4063 -0.28564,-0.20432 v 0 c -2.71646,3.41126 -1.39902,1.69599 -3.95515,5.14364 -0.33813,0.70838 0.66367,1.18656 1.00179,0.47818 z" />
    <path
       style="fill:#373b41;stroke-width:0.264999;paint-order:stroke markers fill;fill-opacity:1"
       id="path2505"
       d="m 138.84336,139.64398 c 1.32242,-2.38295 1.11845,-2.38085 3.40425,-4.53465 0.75392,-0.71038 1.62191,-1.289 2.43286,-1.93351 0.18859,-0.15013 -0.0237,-0.41683 -0.21232,-0.2667 v 0 c -0.83187,0.64237 -1.69396,1.2474 -2.4956,1.92711 -2.36327,2.0038 -2.4203,2.19908 -4.287,4.3044 -0.35592,0.8187 0.80189,1.32205 1.15781,0.50335 z" />
    <path
       style="fill:#373b41;stroke-width:0.264999;paint-order:stroke markers fill;fill-opacity:1"
       id="path2507"
       d="m 139.79254,139.63202 c 0.7321,0.18202 1.49098,0.27845 2.1963,0.54607 2.27818,0.86441 3.91121,1.96574 5.99413,3.20822 0.33489,0.20003 0.61777,-0.27357 0.28289,-0.4736 v 0 c -1.01611,-0.57464 -2.03486,-1.14463 -3.04832,-1.72391 -4.05258,-2.31642 -1.68661,-1.06332 -5.1871,-2.84384 -0.91009,-0.16822 -1.14799,1.11884 -0.2379,1.28706 z" />
    <path
       style="fill:#373b41;stroke-width:0.264999;paint-order:stroke markers fill;fill-opacity:1"
       id="path2511"
       d="m 116.97186,187.75895 c 0.63643,-2.74574 1.10723,-5.15489 2.22977,-7.82884 0.76123,-1.81331 1.70442,-3.54868 2.68401,-5.25395 0.8815,-1.5345 1.92785,-2.96823 2.89178,-4.45234 -0.0201,0.0302 0.0225,0.0586 0.0426,0.0285 v 0 c -0.98261,1.47232 -2.0581,2.88673 -2.94783,4.41698 -0.98864,1.70033 -1.82184,3.48713 -2.67759,5.25807 -1.21783,2.52024 -2.28108,5.05662 -3.38133,7.62198 -0.14824,0.81922 1.01032,1.02886 1.15855,0.20963 z" />
    <path
       style="fill:#373b41;stroke-width:0.264999;paint-order:stroke markers fill;fill-opacity:1"
       id="path2513"
       d="m 126.54728,170.68525 c 1.03032,0.43085 2.06064,0.86171 3.09097,1.29258 1.40651,0.67292 2.79032,1.39549 4.21952,2.01877 1.48391,0.64714 3.00977,1.19349 4.51466,1.79024 0.0626,0.0253 0.0983,-0.0633 0.0357,-0.0885 v 0 c -1.50499,-0.59028 -3.05079,-1.08554 -4.51496,-1.77085 -3.1784,-1.48767 -4.19851,-2.3315 -6.89098,-4.19282 -0.67218,-0.32169 -1.12712,0.62892 -0.45493,0.95061 z" />
    <path
       style="fill:#373b41;stroke-width:0.264999;paint-order:stroke markers fill;fill-opacity:1"
       id="path2517"
       d="m 126.52668,169.48745 c 0.44444,-0.23398 0.8998,-0.44828 1.33332,-0.70191 1.09236,-0.63911 2.16167,-1.31684 3.24251,-1.97525 2.26085,-1.32275 4.5217,-2.64549 6.78256,-3.96823 0.056,-0.0319 0.0109,-0.11121 -0.0452,-0.0793 v 0 c -2.28164,1.27502 -4.51065,2.64915 -6.84492,3.82505 -2.11325,1.06456 -3.13448,1.28287 -5.11236,1.82743 -0.75815,0.45541 -0.11411,1.5276 0.64405,1.07219 z" />
    <path
       style="fill:#373b41;stroke-width:0.264999;paint-order:stroke markers fill;fill-opacity:1"
       id="path2521"
       d="m 127.99712,168.55104 c 1.49086,3.44683 -0.32352,-0.48986 1.69861,3.05116 0.19773,0.34625 0.30942,0.73499 0.46412,1.10248 0.39433,0.66095 1.32905,0.10328 0.93472,-0.55767 v 0 c -0.80133,-1.36115 -1.69151,-2.68351 -2.12247,-4.22442 -0.44438,-0.68942 -1.41937,-0.061 -0.97498,0.62845 z" />
    <path
       style="fill:#373b41;stroke-width:0.264999;paint-order:stroke markers fill;fill-opacity:1"
       id="path2539"
       d="m 126.75497,168.74434 c -0.0948,-0.43607 -0.34236,-0.86573 -0.2844,-1.3082 0.0913,-0.69659 0.46799,-1.32495 0.71545,-1.98246 0.60194,-1.59941 1.41818,-3.77118 2.25427,-5.25466 0.99477,-1.76504 1.23552,-1.91682 2.37287,-3.11143 0.0528,-0.0566 -0.0273,-0.13123 -0.0801,-0.0746 v 0 c -0.27797,0.33111 -0.58305,0.64124 -0.83391,0.99332 -1.3359,1.87493 -1.78729,2.70972 -2.73852,4.86532 -0.37164,0.84217 -0.68119,1.71041 -1.01294,2.56908 -0.25396,0.65732 -0.45344,1.33681 -0.74414,1.97873 -0.18933,0.41807 -0.46079,0.79384 -0.69119,1.19075 -0.0949,0.73723 0.94774,0.87138 1.0426,0.13415 z" />
    <path
       style="fill:#373b41;stroke-width:0.264999;paint-order:stroke markers fill;fill-opacity:1"
       id="path2541"
       d="m 126.55173,171.51301 c 1.28974,2.74822 2.02557,5.71286 2.85704,8.61988 0.007,0.0242 0.041,0.0147 0.0343,-0.01 v 0 c -0.28995,-1.04589 -0.55307,-2.0996 -0.86984,-3.13769 -0.84967,-2.78438 -1.02672,-3.1504 -1.93589,-5.52526 -0.0372,-0.0605 -0.12275,-0.008 -0.0856,0.0526 z" />
    <path
       style="fill:#373b41;stroke-width:0.264999;paint-order:stroke markers fill;fill-opacity:1"
       id="path2543"
       d="m 127.30039,174.65781 c -0.0331,-0.73103 -0.13192,-0.93911 0.18717,-1.62389 0.23347,-0.50104 0.62246,-0.78448 0.98293,-1.18291 0.25469,-0.28153 0.4293,-0.64889 0.7422,-0.86386 0.27777,-0.19084 0.64204,-0.20515 0.96305,-0.30772 0.50517,-0.57703 -0.31087,-1.29144 -0.81604,-0.71441 v 0 c -0.0363,0.35265 0.0492,0.74061 -0.1088,1.05795 -0.16907,0.3395 -0.55001,0.52267 -0.81395,0.79503 -0.22369,0.23084 -0.82904,0.89736 -0.97205,1.20992 -0.26877,0.58745 -0.21015,1.0073 -0.22115,1.63217 0.002,0.0401 0.0583,0.0378 0.0566,-0.002 z" />
    <path
       style="fill:#373b41;stroke-width:0.264999;paint-order:stroke markers fill;fill-opacity:1"
       id="path2545"
       d="m 136.12948,136.95852 c 2.5564,-0.0514 1.14924,-0.0827 4.21887,0.17531 -5.3e-4,-4e-5 -5.3e-4,5.3e-4 -5e-5,5.3e-4 v 0 c -3.0722,-0.37568 -1.6604,-0.35249 -4.23084,-0.20816 -0.0228,0.009 -0.0108,0.0408 0.012,0.0323 z" />
    <path
       style="fill:#373b41;stroke-width:0.264999;paint-order:stroke markers fill;fill-opacity:1"
       id="path2547"
       d="m 117.37841,180.4471 c 0.6448,0.22938 1.2896,0.45876 1.93439,0.68815 0.0316,0.0121 0.0487,-0.0325 0.0172,-0.0446 v 0 c -0.64268,-0.22971 -1.28535,-0.45942 -1.92803,-0.68913 -0.0323,-0.0166 -0.0558,0.029 -0.0235,0.0456 z" />
    <path
       style="fill:#373b41;stroke-width:0.264999;paint-order:stroke markers fill;fill-opacity:1"
       id="path2555"
       d="m 115.74736,187.16024 c -0.71503,-0.0709 -1.42359,0.0849 -2.13614,0.0809 -0.16906,-0.001 -0.33522,-0.0444 -0.50328,-0.0628 -0.0247,-0.003 -0.0884,0.0203 -0.0745,-2.6e-4 0.0658,-0.0978 0.16384,-0.16948 0.24576,-0.25422 -6e-5,7e-5 5e-5,1.6e-4 1.1e-4,8e-5 v 0 c -0.0858,0.0899 -0.20949,0.15505 -0.25736,0.26973 -0.10683,0.2559 0.41858,-0.0154 0.58609,-0.0272 0.71267,-0.0502 1.43349,0.17797 2.14271,-0.0516 -0.0322,-0.002 -0.0355,0.0431 -0.003,0.0455 z" />
    <path
       style="fill:#373b41;stroke-width:0.264999;paint-order:stroke markers fill;fill-opacity:1"
       id="path2557"
       d="m 116.18519,179.83446 c -1.39192,0.12121 -0.39623,0.0834 -1.76251,0.0116 -0.26742,-0.0141 -0.53741,0.0122 -0.80307,-0.0214 -0.18817,-0.0238 -0.35929,-0.15168 -0.54896,-0.14982 -0.0882,8e-4 -0.17337,0.0784 -0.21291,0.15732 -0.0226,0.0451 0.099,-0.0193 0.14858,-0.029 0.0255,-0.005 0.0191,-0.0406 -0.006,-0.036 v 0 c -0.043,-0.0105 -0.13833,-0.0747 -0.12909,-0.0314 0.0216,0.10142 0.0759,0.2329 0.17701,0.25586 0.18692,0.0424 0.3768,-0.0844 0.56847,-0.0867 0.26993,-0.003 0.5369,0.0643 0.80678,0.0703 0.11513,0.003 1.66368,-0.0686 1.76259,-0.0731 0.0479,-2.6e-4 0.0474,-0.0681 -5.3e-4,-0.0677 z" />
  </g>
</svg>
