<?xml version="1.0" encoding="UTF-8" standalone="no"?>
<svg
   version="1.1"
   id="svg949"
   width="4698.5947"
   height="10822.554"
   viewBox="0 0 4698.5948 10822.554"
   sodipodi:docname="quiet-monk.svg"
   inkscape:version="1.1 (c68e22c387, 2021-05-23)"
   xmlns:inkscape="http://www.inkscape.org/namespaces/inkscape"
   xmlns:sodipodi="http://sodipodi.sourceforge.net/DTD/sodipodi-0.dtd"
   xmlns="http://www.w3.org/2000/svg"
   xmlns:svg="http://www.w3.org/2000/svg"
   xmlns:rdf="http://www.w3.org/1999/02/22-rdf-syntax-ns#"
   xmlns:cc="http://creativecommons.org/ns#"
   xmlns:dc="http://purl.org/dc/elements/1.1/">
  <metadata
     id="metadata955">
    <rdf:RDF>
      <cc:Work
         rdf:about="">
        <dc:format>image/svg+xml</dc:format>
        <dc:type
           rdf:resource="http://purl.org/dc/dcmitype/StillImage" />
      </cc:Work>
    </rdf:RDF>
  </metadata>
  <defs
     id="defs953" />
  <sodipodi:namedview
     pagecolor="#ffffff"
     bordercolor="#666666"
     borderopacity="1"
     objecttolerance="10"
     gridtolerance="10"
     guidetolerance="10"
     inkscape:pageopacity="0"
     inkscape:pageshadow="2"
     inkscape:window-width="958"
     inkscape:window-height="1055"
     id="namedview951"
     showgrid="false"
     inkscape:snap-nodes="false"
     inkscape:zoom="0.044194174"
     inkscape:cx="2285.3691"
     inkscape:cy="3824.0335"
     inkscape:window-x="960"
     inkscape:window-y="0"
     inkscape:window-maximized="1"
     inkscape:current-layer="g957"
     inkscape:object-paths="true"
     inkscape:snap-intersection-paths="true"
     inkscape:snap-smooth-nodes="true"
     inkscape:snap-midpoints="true"
     fit-margin-left="0"
     fit-margin-top="0"
     fit-margin-right="-20"
     fit-margin-bottom="0"
     inkscape:document-rotation="0"
     inkscape:pagecheckerboard="0" />
  <g
     inkscape:groupmode="layer"
     inkscape:label="Image"
     id="g957"
     transform="translate(865.96078,-631.3691)">
    <g
       id="g1536">
      <path
         style="fill:#e0e0e0;fill-opacity:1;stroke:none;stroke-width:1px;stroke-linecap:butt;stroke-linejoin:miter;stroke-opacity:1"
         d="m 3837.666,2840.5054 c 0,0 -1459.3392,53.3866 -1443.3074,-106.4623 14.0036,-139.6253 -40.9965,-254.2882 41.618,-418.9149 82.6145,-164.6267 -31.5361,-252.0537 -34.6355,-448.3222 31.6573,-194.3874 98.6798,-448.5438 3.4312,-732.5981 -106.3354,-317.11758 -354.6226,-345.00399 -354.6226,-345.00399 0,0 -49.2427,-109.70072 -734.9414,-152.40758 C 725.20143,600.04938 556.42629,1166.326 556.42629,1166.326 c 0,0 -67.82605,401.0486 -37.16993,590.2637 30.65612,189.2151 -17.12694,-128.955 -61.03085,21.6333 -43.90391,150.5883 -61.92527,552.3462 -61.92527,552.3462 C 269.39794,2125.5409 135.4407,2480.1467 5.0109265,2554.9355 L -12.304666,4107.0597 c 0,277.8716 24.356863,6901.1073 24.356863,7341.3473 321.998933,0 3472.577503,-6.483 3807.296603,-6.483 0,-349.39 8.074,-7203.4186 8.074,-7334.8643 -0.029,-178.1756 5.3738,-844.3695 10.2432,-1266.5543 z"
         id="path2498"
         sodipodi:nodetypes="csscscscssccccccc" />
      <path
         style="fill:#b4b7b4;fill-opacity:1;stroke:none;stroke-width:1px;stroke-linecap:butt;stroke-linejoin:miter;stroke-opacity:1"
         d="m 442.09797,2456.7809 c 99.57338,12.9038 38.03706,197.3682 119.61801,306.2838 81.58096,108.9156 545.27702,509.0782 639.26822,678.203 93.9912,169.1249 346.9422,251.7119 531.9265,170.2071 184.9843,-81.5048 371.0955,86.6594 434.297,-1.8603 63.2015,-88.5197 40.836,-235.1921 40.836,-235.1921 0,0 -536.7287,112.6989 -732.1149,35.5437 -92.3432,-36.465 -87.6247,48.0808 -414.8707,-351.0043 -327.24608,-399.0851 -362.89635,-145.2984 -528.82437,-579.0249 -34.55396,-90.3221 -90.13576,-23.156 -90.13576,-23.156 z"
         id="path2475"
         sodipodi:nodetypes="csssscsssc" />
      <path
         style="fill:#969896;fill-opacity:1;stroke:none;stroke-width:1px;stroke-linecap:butt;stroke-linejoin:miter;stroke-opacity:1"
         d="M 3852.6338,2840.5054 2389.5809,2748.047 c 0,0 -38.6623,80.2443 -71.962,205.9305 123.9322,105.1008 1531.4548,1001.0304 1531.4548,1001.0304 z"
         id="path2467"
         sodipodi:nodetypes="ccccc" />
      <path
         style="fill:#969896;fill-opacity:1;stroke:none;stroke-width:1px;stroke-linecap:butt;stroke-linejoin:miter;stroke-opacity:1"
         d="m 2308.2042,3010.1939 c 0,0 -51.5827,328.5239 -62.8001,338.6336 -11.2174,10.1097 1257.4622,1086.0608 1585.0231,1168.9501 10.4952,-734.2895 -1009.7674,-1199.3522 -1522.223,-1507.5837 z"
         id="path2469"
         sodipodi:nodetypes="cscc" />
      <path
         style="fill:#969896;fill-opacity:1;stroke:none;stroke-width:1px;stroke-linecap:butt;stroke-linejoin:miter;stroke-opacity:1"
         d="m 302.33877,2414.446 c 0,0 107.03359,368.7656 -203.751258,790.5547 C 12.862897,3139.913 120.04712,2686.1221 302.33877,2414.446 Z"
         id="path2465"
         sodipodi:nodetypes="ccc" />
      <path
         style="fill:#1d1f21;fill-opacity:1;stroke:none;stroke-width:1px;stroke-linecap:butt;stroke-linejoin:miter;stroke-opacity:1"
         d="M 408.81688,2394.67 C 313.51682,2335.712 269.8196,2344.7859 269.8196,2344.7859 l 31.59739,87.4412 c 0,0 -0.87493,85.3047 -43.84197,181.3449 -42.96703,96.0402 -178.261446,597.9456 -178.261446,597.9456 l 14.617018,39.0347 168.765638,-154.5307 c 0,0 139.81467,-526.0933 146.12065,-701.3516 z"
         id="path2454" />
      <path
         style="fill:#b4b7b4;fill-opacity:1;stroke:none;stroke-width:1px;stroke-linecap:butt;stroke-linejoin:miter;stroke-opacity:1"
         d="m 1555.0174,2931.7611 c 145.8287,-53.0557 251.3166,-124.0804 268.2822,-114.3383 16.9657,9.742 38.0238,22.8187 78.8233,22.8881 40.7995,0.069 84.9789,-62.9846 97.0007,-48.7015 12.0219,14.283 178.1034,63.4218 191.782,68.9589 -81.0431,62.1491 -231.7178,32.6791 -286.053,34.7811 -47.1509,1.8241 -373.168,74.5954 -349.8352,36.4117 z"
         id="path2437"
         sodipodi:nodetypes="cssscsc" />
      <path
         id="path1548"
         style="display:inline;fill:#c8c8c8;fill-opacity:1"
         d="M 544.99839,1241.1065 C 566.71858,1066.3466 709.65042,868.51317 894.58116,938.13782 1080.5523,983.57107 1165.236,1256.5306 1372.1007,1212.6058 1316.9768,1134.5365 1157.4604,1097.8654 1197.7447,1018.925 1148.0826,976.90562 1014.7478,897.8248 990.77966,897.51337 1178.5216,966.53524 676.44704,863.94786 816.472,856.90031 c -61.76051,-81.98278 272.4819,-46.1739 221.8854,-47.42901 84.7753,17.80967 46.2927,179.92016 140.1752,88.76964 49.6434,77.48901 108.812,293.45946 208.8282,231.31326 -46.1933,-7.4355 -153.9866,-167.18606 -51.7731,-102.6807 -61.0098,-144.76341 139.5097,113.409 107.0853,-63.20832 -24.636,-163.8251 -202.5453,-166.98633 -307.4719,-232.72994 -78.7209,-3.90027 -192.78605,-34.20377 -43.8487,-59.00495 251.404,-46.56001 510.5333,-3.54789 757.374,49.44765 151.2534,39.77393 301.8932,98.68104 421.328,202.39093 -162.4904,-172.10288 -217.7925,380.74013 -63.7637,171.99373 25.6216,-105.14445 -19.2704,185.449 71.7351,36.8859 49.4105,-126.7913 -99.3278,206.7666 46.6922,155.0501 -29.6457,-71.964 110.117,-250.4118 61.7128,-126.3427 -79.1856,17.5832 -32.9787,130.0725 6.9131,27.1176 7.3973,243.9411 -267.6338,28.4955 -382.6293,162.5113 -191.8391,110.4093 -323.7442,-121.8364 -495.8524,-122.3925 -145.2733,63.1357 -300.2026,48.4339 -368.5363,-109.0246 -141.3018,-141.96902 -309.39527,10.0039 -465.30443,25.7053 -79.77301,-34.9409 -121.41231,192.6352 -136.02308,95.8335 z m 1324.53521,157.8686 c 34.7219,-80.6514 -72.6875,-232.1161 -44.5074,-61.2111 7.1911,24.9313 25.0059,45.0126 44.5074,61.2111 z m 27.581,-13.227 c 164.2587,-3.1282 -52.3431,-123.1897 0,0 z m -143.6596,-71.7596 c 51.4462,-126.3386 -283.0393,-146.2169 -86.5416,-59.1257 30.7201,16.7166 60.4899,35.6457 86.5416,59.1257 z m 395.0089,-1.0538 c 216.4807,-123.7792 -292.0075,-160.8419 -80.7111,5.2778 27.2536,4.7117 53.5923,-5.4578 80.7111,-5.2778 z m -352.0307,-7.6962 c 58.1514,-118.4079 -68.9452,-292.211 -156.5636,-330.0614 51.3479,4.21947 255.8929,226.1674 155.0697,66.3448 -92.8438,-89.00383 -232.4716,-300.23382 -347.9613,-252.52934 -35.7704,149.34332 90.171,251.78604 141.3213,365.25914 62.746,58.7269 173.7605,62.4563 208.1339,150.9868 z m 80.2741,2.1268 c 189.071,12.7231 156.0045,-261.7466 133.6051,-385.57517 -12.1714,-91.36996 -172.832,-152.79847 -111.2964,-11.21489 16.6405,133.46156 -62.5236,264.23656 -22.3087,396.79006 z m -255.2434,-53.1268 c 13.9964,-7.6687 8.0228,-4.3957 0,0 z m -58.7026,-20 c 9.4258,-138.7879 -244.3236,6.9755 -57.3283,0.4368 19.122,1.0942 38.2108,0.3248 57.3283,-0.4368 z m -5.2267,-83.8856 c 47.454,-153.82446 -260.1653,-16.0812 -52.4497,-4.8072 17.3735,2.7455 34.9401,3.4117 52.4497,4.8072 z M 595.78634,1137.6556 C 714.27763,1160.899 969.24558,942.01265 939.65837,995.44771 821.82146,949.34754 627.15957,1003.7136 595.78634,1137.6556 Z m 1479.17756,-38.4171 c 156.8251,-50.5114 -59.314,-422.97583 -34.9972,-163.89294 -15.7613,55.94369 -49.9783,148.51174 34.9972,163.89294 z m -712.495,-10.9843 c 3.6065,-62.3524 -62.0824,2.0758 0,0 z m 487.0217,-66.7449 c -20.2044,-49.08452 -53.0052,-173.519 14.2978,-71.2029 94.9383,-125.29452 -140.7529,-264.65406 -259.1867,-242.1573 46.5867,91.01534 132.9713,204.86 206.9443,292.7541 19.0241,53.3919 24.8201,14.4966 37.9446,20.6061 z m -412.579,-57.0208 c 131.5694,-166.36706 -152.9432,-388.742 -299.8465,-276.74155 -5.0459,105.53051 166.4366,-15.34384 153.5664,27.08254 90.4666,45.98696 157.1287,146.08502 146.2801,249.65901 z m 301.0523,-10.09239 c 53.5005,-119.9467 -289.7593,-241.05713 -116.5785,-86.13493 30.5953,37.7684 68.5143,73.04546 116.5785,86.13493 z m 413.0298,-46.45514 c 37.3228,-76.06317 -89.365,-22.05803 0,0 z m -20.2401,-52.28404 c -29.0092,-45.55851 -61.0322,13.02588 0,0 z m -84.5645,-46.6935 c -29.3722,-44.0497 -70.5489,0.55877 0,0 z M 1819.5004,755.9885 c 44.6433,-50.81703 -67.4902,-3.77707 0,0 z m -379.5683,-50.63976 c -16.2908,-100.03058 -170.4733,9.6086 -34.3951,-3.50784 z M 1288.4639,654.2385 c -15.9561,-2.33307 -9.8425,-1.43916 0,0 z m -181.4021,377.5795 c -68.4199,-44.09401 63.1525,-8.1325 0,0 z"
         sodipodi:nodetypes="ccccccccccccccccccccccccccccccccccccccccccccccccccccccccccccccccccccccccccccccccccccccccc" />
      <path
         id="path1546"
         style="display:inline;fill:#aaaaaa;fill-opacity:1"
         d="m 692.15499,1433.262 c 30.07113,-33.4516 -258.88643,-22.9477 -87.20476,98.3969 107.08958,51.452 70.7818,166.9289 81.24536,106.7795 -6.28682,97.0017 -211.45465,-229.9001 -150.44165,-22.5027 -81.31623,205.36 466.45076,170.8599 139.2139,177.6567 -199.44994,240.5587 -261.05357,-567.4566 17.18715,-360.3304 z m 1189.82021,-10.8271 c -52.7165,-173.7131 -547.3,-204.352 -469.7086,-237.2228 53.0563,18.603 204.7992,41.4613 113.9337,-45.4564 55.0831,6.9315 264.4058,129.759 126.3341,24.3309 82.4359,48.6121 122.2241,134.95 173.9165,90.3301 29.8655,132.0389 74.1068,-34.2496 124.5264,79.7896 219.9045,-59.9519 71.2975,-318.6577 61.9333,-470.12166 -29.4384,-164.17358 -176.1375,-63.60629 -94.9729,48.63964 -43.7394,223.45072 -131.0263,75.06507 -169.7369,-60.65808 66.4531,198.2456 256.3279,14.70032 75.0302,-72.47019 -98.1862,-213.95785 394.4283,102.74749 313.5694,68.54811 165.9136,133.96219 -259.985,382.82648 12.1943,460.48348 91.517,-39.1092 138.3951,-188.8113 156.7093,-39.8316 68.0442,-56.5086 121.9375,-170.8891 51.1989,-13.3158 -125.4656,139.4019 -396.938,-41.4822 -474.9277,166.9547 z m 205.0307,-340.3579 c 165.1607,-60.9388 -93.89,-385.22013 -54.1009,-105.40564 -15.656,41.41214 -1.6209,108.16254 54.1009,105.40564 z M 604.52059,1316.8421 c -101.74669,-93.2388 -16.8895,13.1152 6.33436,-1.7396 z M 1309.116,1269.25 c -103.7024,-111.2355 -89.0477,-106.951 23.2126,-25.9586 l -4.5947,12.024 z M 1877,1195.4343 c -30.7445,-45.2214 32.9404,-79.5822 0,0 z m 315.624,-21.2337 c 1.6017,-128.4418 98.7654,-122.8204 0,0 z M 556.42629,1166.326 C 681.94805,1056.2647 1119.0379,1039.7962 1033.616,1046.4001 871.36824,1060.3963 716.6393,1133.2447 556.42629,1166.326 Z M 1814.75,1160.8374 c -5.7084,-84.3826 -47.5535,-168.55408 24.932,-45.6289 -5.0243,26.2057 -7.635,26.787 -24.932,45.6289 z m -477.5611,-24.5511 c -116.2367,-82.4586 -159.6412,-222.80899 -160.8814,-201.08228 84.3655,36.98372 112.1384,131.06588 160.8814,201.08228 z m 185.6244,-0.2696 c 4.0879,-19.3881 -17.5225,9.5795 0,0 z M 1422.5,1100.2311 c -72.1185,70.1447 -138.4346,-163.70574 -58.0361,-42.0406 -9.7132,-140.44283 -19.7262,-72.32538 32.2358,9.4044 z m 121.0139,-40.86 c -155.8114,-123.28923 4.0028,-466.30238 -325.7357,-405.12386 13.0065,-83.48569 377.2268,90.38686 279.5998,280.98332 -53.0302,75.22904 23.633,66.92514 46.1359,124.14054 z M 605,1044.441 C 695.18182,1095.83 829.41415,792.68136 812.91638,963.88587 750.93196,1006.4229 676.14948,1023.8327 605,1044.441 Z m 578.1901,12.2387 c -70.5215,-4.1094 -97.7418,-79.93109 0,0 z m 699.0956,-40.2987 c -16.7863,-16.43994 22.6526,-3.4449 0,0 z m -187.0988,-3.881 c -28.904,-14.18454 -49.5636,-24.32314 0,0 z M 978,984.5 971.04558,967.48791 Z m -60.44423,-19.40976 c -57.77316,19.37202 -9.92601,-60.83282 0,0 z M 1851,957.36133 c -38.8177,-49.78863 26.3603,-29.8964 0,0 z m -972.67506,-8.07808 c -46.3987,17.48556 3.77471,-39.83648 0,0 z M 1223,929.54923 c -36.707,0.10506 19.1703,-27.60828 0,0 z m -10.6113,-19.42269 c -60.0577,-57.23752 -8.776,-84.32384 0,0 z m -169.4226,-2.02565 c -29.1355,-41.15192 -91.35385,29.8719 0,0 z M 1435.5003,898 C 1430.4142,751.73164 1100.5665,658.98498 1085.9565,677.54 1233.39,639.44875 1428.9102,732.88041 1435.5003,898 Z m -129.3346,-11.69964 c -22.3998,-37.73954 42.6191,6.79408 0,0 z m -362.85083,-1.6785 c -23.44146,-46.48941 47.15504,15.78059 0,0 z m 867.85903,-34.49188 c -74.5387,-19.99712 10.5363,-80.2063 0,0 z m -719.9222,-2.84335 c -108.79386,-20.18853 -251.91138,-15.75605 -86.9155,-74.90112 42.9787,-9.12782 80.1386,36.47827 86.9155,74.90112 z m 504.1075,-40.52976 c -87.3349,-64.804 -69.8044,-123.4144 0,0 z M 869.84536,773.34325 c -170.35985,111.09717 12.75458,-33.92992 0,0 z m 793.58584,4.23867 c -53.7173,-30.78859 -61.0074,-75.18897 0,0 z m -654.1351,-79.06758 c -108.0791,78.23046 -126.63757,43.2186 0,0 z m 76.388,-37.26434 c 5.7122,-35.57402 32.7997,24.78459 0,0 z M 1429,654.51033 c -126.5256,-17.85501 84.2998,28.83612 0,0 z"
         sodipodi:nodetypes="cccccccccccccccccccccccccccccccccccccccccccccccccccccccccccccccccccccccccccccccccccccccccccccccccccccc" />
      <path
         id="path1544"
         style="display:inline;opacity:1;fill:#8c8c8c;fill-opacity:1"
         d="m 695,1851.9048 c -128.46241,5.2816 -30.35235,-210.6456 -143.69781,-237.6355 32.3783,210.2063 16.57018,169.1807 139.53352,164.2428 -103.27307,50.3895 50.49431,35.0547 4.16429,73.3927 z m 170.25,-15.5671 c -171.1117,-10.7017 -16.95418,-84.4609 0,0 z m -357.49702,-69.5788 c -1.24364,-130.5125 12.57024,-193.3684 0,0 z m 257.8084,-61.5655 c -78.5913,-52.4566 -315.588,-267.6582 -106.70216,-127.4542 41.75222,116.801 63.34911,51.7182 107.88434,109.4362 z M 521.69066,1512.2107 c -8.72962,-148.9776 20.23573,-105.0852 0,0 z M 606,1494.1327 c -57.36818,-72.3654 -81.36347,-231.8468 26.76998,-88.7121 112.64805,98.5377 201.41713,-72.9108 -34.82861,17.0807 -4.12066,24.2954 23.10808,49.6067 8.05863,71.6314 z m 1288.3595,-70.9054 c -113.0649,-161.4665 -332.504,-204.5376 -363.4598,-200.7623 58.9431,-95.8153 311.8818,181.2952 191.9066,-40.3928 116.5863,72.7353 87.6276,161.7841 108.5464,141.1491 67.6483,74.0014 40.7363,-138.2753 79.2236,-3.8566 184.5505,60.2017 204.7204,-342.46456 180.0083,-284.4738 52.4388,56.7348 -160.5745,260.2276 54.3111,278.1046 119.2064,9.0171 150.7689,-266.3148 142.4356,-35.7981 81.9455,6.0815 149.9912,-184.0885 60.2737,-12.7903 -122.9367,128.9424 -385.1793,-58.0822 -453.2455,158.8202 z M 619.80543,1314.3213 c -107.40936,-44.3823 -11.79902,-117.8519 0,0 z m 693.08167,-44.8627 c -77.3391,-62.4707 -14.4133,-79.3784 0,0 z m 40.5672,-19.9339 c 42.6132,-28.4031 91.0753,-23.0938 0,0 z M 1421,1191 c -45.4122,0.4499 -24.0784,-49.287 0,0 z m 406,-9.3083 c -20.5191,-20.4401 33.6133,-15.2382 0,0 z M 2187,1173 c 4.6399,-128.4232 83.7571,-53.6012 0,0 z m -956.5101,-5.0163 c -104.5246,-53.0419 -20.8594,-76.6978 0,0 z M 2014,1164.1064 c -42.0104,-45.008 46.8073,-55.4175 0,0 z m -197.5761,-3.4676 c -27.4334,-38.2296 46.9937,-24.7792 0,0 z m -500.4909,-2.2807 c 36.5045,-45.3682 59.3432,36.0132 0,0 z m 223.3233,1.1354 c -94.7252,10.2869 -53.2383,-87.9463 0,0 z M 1611,1146.5497 c -61.5261,-50.7041 -9.5561,-67.8866 0,0 z m -1035,-9.4331 c -5.09595,-122.8002 190.29088,35.7296 0,0 z m 256.80543,-6.7953 c -229.90205,-52.5025 278.86257,-143.65345 18.0838,-26.2699 z m 495.08617,-4.2023 c -4.2942,-36.0179 -35.3507,17.2931 0,0 z m -40.1416,-12.8061 c -88.2658,-139.18208 45.8003,-101.0053 0,0 z m 1015.1465,-6.0629 c -28.0557,-65.8479 61.2648,-73.4725 0,0 z m -471.0182,-1.0179 c -86.4182,-20.4689 32.6657,-81.6342 0,0 z m 58.9861,103.8419 c -31.689,-77.1369 4.8837,-165.0084 0,0 z m -463.9807,-112.8566 c -25.028,16.8745 -1.1133,-26.3857 0,0 z m -25.5221,-1.7174 c -129.8292,14.3663 -103.3416,-174.06013 0,0 z m -194.7482,-15.22 c -79.6779,-12.7341 20.1582,-50.1722 0,0 z m 674.242,7.0938 c -22.7354,-83.6758 -127.8909,-150.12297 -4.8188,-70.3589 11.7778,18.1127 21.1421,54.4634 4.8188,70.3589 z m -355.4686,-42.9687 -18.9947,-18.1664 z m -413.7276,28.0999 c -57.3585,-79.11249 -236.4581,-98.01403 0,0 z m -492.92474,-35.3941 c 12.43318,-40.94501 66.72546,6.763 0,0 z M 710,1030.1063 C 736.4643,955.97965 899.24639,865.41776 775.0281,992.13953 753.25925,1004.628 730.46956,1015.4404 710,1030.1063 Z m 1520.3958,-13.2753 c -23.2405,-51.09255 60.496,-19.47583 0,0 z M 1361,1008.1942 c -21.382,-18.96192 -9.5146,-135.14605 0,0 z m 421.6139,59.3039 c -115.8222,-90.83095 -153.2994,-87.1649 0,0 z m 103.5014,-66.1299 c -21.597,-30.64025 78.977,-72.92395 0,0 z m -406.5439,-6.93963 c -24.4335,14.38143 -1.2778,-26.51436 0,0 z M 2007.0153,989.95 c -12.299,-83.70177 79.7395,-65.87863 0,0 z m -784.7715,-2.61436 c -158.0808,-131.21455 -14.1677,-62.21857 0,0 z m 438.7619,10.98996 c -50.5913,-67.71788 -184.292,-64.5558 0,0 z M 950.00914,970.51101 c -62.63462,7.12144 33.09274,-19.31051 0,0 z m 491.59456,-3.10126 c -41.1775,-67.54955 -46.9946,-282.18755 0,0 z m -156.8672,-13.0832 c -47.7871,-14.53483 31.4101,-35.30462 0,0 z m 855.6035,-1.46306 c 64.5402,-75.62696 -172.9418,-110.16512 9.5646,-85.82264 45.7213,10.50414 26.5087,75.211 -9.5646,85.82264 z M 877.05536,946.20304 c -36.7872,36.54225 -8.62917,-28.60831 0,0 z m 585.00214,-4.3104 c -7.0551,-86.32304 86.4913,-71.52946 0,0 z m 457.7951,1.37786 c -54.2392,-66.55577 46.3143,-53.78825 0,0 z M 717,932.7992 c 28.57589,-48.93057 62.19093,34.93724 0,0 z m 629.25,-1.15911 c -31.2948,0.41406 -135.0408,-214.93676 0,0 z m -527.72068,-1.54771 -10.05848,-4.20858 z m 893.86848,-0.64349 c -68.1944,-13.48244 -21.8234,-45.86909 0,0 z m -489.7059,-2.23938 c -52.0452,-42.84745 -50.1466,-135.33275 0,0 z M 1117.25,925.23173 c -261.98137,-38.63076 -16.1495,-53.90457 0,0 z m 26.7366,-28.66859 c -39.0947,-34.34558 -17.3577,-84.7372 0,0 z m 703.9406,33.7133 c -28.4406,-8.83028 -49.1124,-161.20896 0,0 z M 1741,894.06739 c -39.637,-33.98036 2.8124,-18.73474 0,0 z M 947.57983,883.12916 c -42.31549,-25.98616 41.41528,-7.68338 0,0 z M 2051,876.40638 c -37.0977,-6.81619 10.9592,-49.40705 0,0 z m 175.2344,7.7692 c -40.8531,-20.94069 -68.7288,-69.75113 0,0 z M 1184.5,855.62312 c -57.1775,-49.62563 -57.9707,-116.78934 0,0 z m 625.698,-3.73199 c 25.4423,-40.96767 -51.9943,-57.47797 0,0 z M 1091,844.62244 c -83.5803,-44.88899 -356.3907,-24.98072 -113.65735,-33.04273 39.19265,5.56186 77.61565,16.65158 113.65735,33.04273 z m 793.9703,-5.67788 c -167.5406,-95.33742 3.5951,-91.43325 49.0275,-88.80266 -120.7778,-37.2378 -96.7048,18.21338 -49.0275,88.80266 z m -381.6402,-6.3623 c -42.577,-22.39418 -20.1775,-106.53011 0,0 z m 650.6442,5.25331 c -43.7584,-1.54072 -81.0119,-68.98409 0,0 z m -517.3776,17.66698 c -69.4156,-63.10255 -89.0608,-130.34261 0,0 z m -243.3602,-54.9082 c -44.3001,-21.20493 4.271,-62.46384 0,0 z m 290.6968,-4.17476 c -74.2903,-49.80912 -90.6597,-99.61193 0,0 z m -616.8895,22.50288 c -62.926,-14.747 -128.64363,-107.20232 0,0 z m -249.49824,-0.84126 c 76.04905,-71.7251 135.33289,-104.4302 0,0 z m 413.04064,-41.94169 c -71.2815,-24.81801 53.6536,-26.5347 0,0 z M 974.8612,762.5 c -53.5127,12.04531 3.26921,-43.84387 0,0 z m 387.8142,-0.90355 c -94.1807,30.81065 -159.5313,-183.26383 0,0 z m 181.5862,-15.19061 c -63.1838,-1.95862 -20.7095,-81.64966 0,0 z M 1211,744.15072 c -114.8264,-37.71762 -59.1803,-70.2356 0,0 z m 387.5,-20.33401 c -58.9675,-20.73612 -104.0441,-121.08944 0,0 z M 1425,721.58333 c -78.2267,-18.96695 5.3924,-74.57244 0,0 z M 987.55361,684.53565 c 37.52549,-32.30097 61.10359,25.85037 0,0 z M 1500,666.88337 c -25.2902,20.70652 -11.2898,-27.93689 0,0 z M 1325.7679,665 c -43.9311,17.37442 -24.2408,-57.80696 0,0 z M 1277,645 c -40.1535,10.87244 -61.3772,-25.8033 0,0 z"
         sodipodi:nodetypes="cccccccccccccccccccccccccccccccccccccccccccccccccccccccccccccccccccccccccccccccccccccccccccccccccccccccccccccccccccccccccccccccccccccccccccccccccccccccccccccccccccccccccccccccccccccccccccc" />
      <path
         id="path1542"
         style="display:inline;fill:#6e6e6e;fill-opacity:1"
         d="m 696.33817,1851.25 c -75.36085,-23.9934 -285.68722,-166.3382 -140.88856,-221.9461 -89.30842,125.3268 98.79885,139.3365 140.88856,221.9461 z M 865.25,1836.3377 c -112.33775,-4.777 24.74609,-78.9593 0,0 z M 753.09532,1704.9116 c -127.24516,-53.66 69.5633,-47.6988 0,0 z M 510.2732,1690.9998 c -25.94775,27.9274 -14.00552,-26.5907 0,0 z m 123.43523,-65.7 c -236.10701,-158.3815 218.79847,-78.2002 0,0 z M 519.43452,1555.894 c -30.88821,-17.4015 35.0537,-17.326 0,0 z M 608.25,1494.8341 c -94.07057,-109.4652 6.95725,-153.1386 89.81213,-61.4078 142.19663,93.9053 -173.26309,-118.5245 -89.81213,61.4078 z M 1895,1422.5 c -67.1552,-143.4251 -389.8775,-217.7866 -374.9409,-212.4883 190.8008,-118.3419 278.7179,188.8023 429.7944,131.5439 100.4777,-43.8167 72.101,-221.5864 109.2115,-59.0162 97.9164,88.1247 254.0313,-9.7766 295.7319,-35.4832 C 2226.9304,1413.2538 1987.02,1192.2529 1895,1422.5 Z M 544,1396 l -0.14091,-9.2512 z m 1336.7254,-73.875 c -23.4187,-32.2959 29.9491,-32.7407 0,0 z M 619,1312.6424 c -81.8658,-10.8276 21.3547,-87.8777 0,0 z M 1320,1266 c -72.0285,-43.3961 -25.6079,-55.7532 0,0 z m 941.3567,-7.6187 c -41.5105,-79.877 82.7478,-71.3202 0,0 z m -874.9502,-27.2645 c -30.051,-18.2602 -83.9369,37.7986 0,0 z M 1829,1222 c -33.3709,-45.1015 24.0822,-278.4345 0,0 z m -408,-31 c -58.4106,35.6738 -1.4479,-69.3042 0,0 z m 766,-17.941 c -32.719,-81.2193 90.9602,-3.1506 0,0 z m -173,-9.0079 c -37.9809,-36.9303 43.2395,-43.4983 0,0 z m -788.2089,-3.0811 c -89.1103,-25.8523 22.0539,-27.8553 0,0 z m 89.4589,-1.362 c 12.7744,-34.7534 28.9534,28.9556 0,0 z m 236.2992,-2.6532 c -103.2968,-69.2255 -38.9085,24.9872 0,0 z m 127.862,0.4086 c -59.4501,-6.0835 -120.0766,-95.8505 0,0 z M 576.13618,1137.25 c -17.5853,-61.2445 51.55119,26.8378 0,0 z m 257.16911,-6.9485 c -70.72219,9.8903 214.42611,-152.56899 0,0 z M 1287.75,1113.2837 c -67.4577,-57.2607 81.5412,4.6221 0,0 z m 1015.0317,-5.9655 c -39.4005,-55.7523 70.4883,-47.4102 0,0 z m -861.8046,-4.8784 c -51.6947,5.2149 10.4782,-16.3736 0,0 z m 638.3606,-3.8775 c -90.6753,-40.7817 88.9059,-59.2313 0,0 z m -677.1731,-2.4394 c -87.7062,46.0083 -83.7168,-133.92836 0,0 z M 1423,1095.0833 c -45.4578,23.0927 9.1863,-20.3688 0,0 z m 796.099,-6.6154 c -47.8731,-44.2739 58.8125,-42.0628 0,0 z m -327.196,128.3271 c -33.1656,-17.6186 13.3669,-141.0018 0,0 z m -79.2418,-140.1653 c -155.556,-68.4881 -5.922,-26.0548 0,0 z m 60.7549,-28.3485 c -87.4256,-20.6848 54.1398,-72.26397 0,0 z M 1531,1045.7143 c -79.4291,21.4378 8.4874,-85.31789 0,0 z M 1354,1044 c 16.0325,-12.502 9.8614,-7.6898 0,0 z m -79.1184,-2.75 c -9.537,-18.2813 -6.3127,-12.1006 0,0 z m -282.64244,-24.5741 c 5.64603,-52.88822 153.61574,110.7802 0,0 z m -374.69514,18.9799 c 15.82362,-52.53528 65.42145,19.2642 0,0 z M 710,1029.2709 c 43.41122,-86.5002 167.85451,-116.29681 39.73077,-30.23024 l -21.70633,12.38264 z m 553.25,0.067 c -28.3043,-18.6332 21.626,-32.27247 0,0 z m -467.10259,-7.9175 c -53.98847,26.2795 2.6547,-21.60302 0,0 z m 54.46098,-4.8421 c -18.24814,-33.21565 -20.00325,33.5913 0,0 z m 1381.01571,-2.2168 c -21.407,-36.49435 47.2378,-16.49859 0,0 z m -870.0105,-8.1115 c -27.2869,-2.331 3.4456,-107.78682 0,0 z m 529.7962,-16.2833 c -2.8952,-22.82669 15.5247,16.8295 0,0 z M 2015,986 c -27.6062,-49.70201 58.3049,-40.59516 0,0 z m -359.5747,7.23117 c -83.5865,-56.60435 -60.5158,0.49547 0,0 z M 1900,976.01831 c -10.4156,-29.1222 33.4499,-0.009 0,0 z M 950.36163,970.5 c -56.43889,33.6965 6.22617,-23.43159 0,0 z m 496.69647,-3.93817 c -63.1666,-4.65949 45.4992,-33.51372 0,0 z m 349.1717,7.69176 c -58.824,-25.09166 -57.5127,-77.60912 0,0 z M 877.07846,945.95148 c -6.54255,27.16772 -18.46227,-17.62409 0,0 z m 1041.42724,-3.9422 c -60.9089,-36.4097 54.6554,-61.88209 0,0 z m -456.4705,-3.94354 c -9.8289,-35.79658 49.4844,-20.10059 0,0 z m -118.0632,-7.67377 c -19.942,-0.88701 -46.8593,-81.80538 0,0 z M 819,930.53518 c -27.35623,20.35585 -9.60124,-37.10853 0,0 z M 1222.5,926 c -35.4191,10.47927 10.5775,-37.18403 0,0 z m 934.6468,-0.88814 c -29.2613,-62.93598 72.0317,-18.52183 0,0 z m -291.6342,32.71684 c -69.6581,-92.93593 -34.7091,-120.76909 0,0 z m -772.1717,-37.94251 c -60.3146,-45.55287 -67.5177,-1.99319 0,0 z m 643.4095,7.06247 c -95.1276,-51.64034 -108.9488,-19.09482 0,0 z m 410.6582,-37.09657 c -55.5214,-10.6581 28.1883,-59.8448 0,0 z m -848.2392,-8.83164 c -34.5196,-69.27676 12.7214,-42.20136 0,0 z m 743.2757,35.04953 c -43.6514,-9.81816 51.7475,-147.80266 0,0 z M 1502.6702,869.8467 c -43.3564,-42.93875 50.0873,-8.7408 0,0 z m 118.3972,-22.75198 c -165.4714,8.45685 -23.4432,-22.77207 0,0 z M 2123.2,848.8 c -52.9681,-9.71629 15.528,-59.64193 0,0 z m -1031.9717,-4.21403 c -70.8254,44.41669 -15.8075,-83.11617 0,0 z M 1419,842.09418 c -36.8094,0.30161 21.8302,-32.26974 0,0 z M 2016.875,829.5 c -53.2718,-1.69065 -35.9327,-100.52533 0,0 z m -118.9722,34.13415 c -68.7115,-19.35138 -95.337,-155.46669 0,0 z M 980.25,826.65861 c -53.62444,35.13372 -33.2356,-58.14166 0,0 z M 1505.5,827 c -15.6432,-50.88695 50.2831,-54.901 0,0 z M 812,823.8673 c 13.059,-33.36423 123.98888,-99.09026 0,0 z m 201.405,71.84387 c -124.84576,-53.3488 -93.73422,-8.40757 0,0 z m 389.257,-75.4701 c -31.2803,-10.25354 20.9815,-32.3718 0,0 z m 87.4534,-12.60197 c -69.4545,-2.79044 26.3763,-68.83341 0,0 z m -96.6796,-3.74295 c -2.0282,-20.22743 -1.2468,-12.43459 0,0 z M 2077,801.99687 c 24.7107,-68.4572 -74.9743,10.2995 0,0 z m -692.8064,-15.76566 c -30.0899,12.91352 9.7512,-28.10347 0,0 z m -340.3565,14.32142 c -4.2978,-32.29459 -99.6028,-51.05356 0,0 z m 926.927,-23.77711 c -81.5699,3.4994 21.6791,-75.44338 0,0 z M 973.80165,761.054 c -46.04976,19.62207 1.76355,-45.3834 0,0 z m 389.08765,0.696 c -87.0405,21.75857 -9.1472,-94.85638 0,0 z M 1844,752.5 c 59.4633,6.41771 -14.2788,-65.80636 0,0 z m -633,-8.24769 c -41.8844,7.80181 -35.0583,-65.84636 0,0 z m 410,-3.80285 c 65.0925,69.48015 0.4303,-26.90186 0,0 z m 273.0723,-13.53027 c -48.7833,28.07992 -5.1497,-24.09628 0,0 z M 1517.5,722.29504 c 69.5759,105.22336 15.2647,-50.75802 0,0 z m 81,0.75368 c 14.3823,-10.72539 -102.7409,-77.76971 0,0 z m -296.9411,-5.58052 c -53.9029,14.3315 -22.7325,-65.12247 0,0 z m 112.8872,-4.55533 c -56.8243,-8.89087 43.1252,-26.02849 0,0 z M 988.49545,684.3617 c 39.44675,-56.94034 53.63525,49.59885 0,0 z m 369.14665,-11.16573 c -34.7558,33.0857 -111.3695,-108.87715 0,0 z M 1399.5,644.9294 c -26.2507,-25.30426 -150.4504,2.15008 0,0 z"
         sodipodi:nodetypes="ccccccccccccccccccccccccccccccccccccccccccccccccccccccccccccccccccccccccccccccccccccccccccccccccccccccccccccccccccccccccccccccccccccccccccccccccccccccccccccccccccccccccccccccccccccccccccccccccccccccccc" />
      <path
         id="path1540"
         style="display:inline;fill:#515151;fill-opacity:1"
         d="m 698.77426,1851.4409 c -65.61656,-0.2858 -210.28064,-33.3684 -179.5179,-94.8512 -18.24167,-123.1591 114.34338,117.7407 163.37504,7.5707 69.56761,-11.2312 -116.00481,72.919 23.12854,71.9023 2.04099,7.1553 -2.57002,10.0682 -6.98568,15.3782 z M 865.25,1835.5042 c -125.36272,-65.767 -119.23638,-34.4372 4.39295,-29.2225 l 9.56407,23.2771 z M 739,1786.107 c -42.69515,-15.1531 20.12051,-8.153 0,0 z m -211.76409,-76.7958 c -0.55208,-59.8403 -3.76856,-29.6837 0,0 z m 80.84893,-10.1241 c -26.32895,-48.3767 -57.9793,-57.8694 20.19014,-10.6652 -10.68235,11.0486 -6.34364,11.6797 -20.19016,10.6657 z m -63.90274,-8.7721 c -38.59554,-94.6791 52.94021,3.2541 0,0 z M 514,1673.7226 c 7.33814,-34.5973 31.45137,-13.0122 0,0 z M 531,1651 c -42.33022,-90.679 15.40631,-72.7922 36.42531,-6.1543 C 514.75201,1572.1922 546.91651,1611.7469 531,1651 Z m 128.10517,-7.7524 c -30.38501,-19.4482 -18.58855,-33.1205 0,0 z M 622.25,1614.5259 c -62.32204,-53.5899 -97.42885,-164.3144 -41.30806,-48.3898 63.09361,39.0934 116.76761,2.3844 112.14846,21.1624 156.01207,-13.5748 -119.95008,19.4697 -63.61644,25.8296 -2.40785,0.4655 -4.81679,0.9332 -7.22396,1.3978 z m -65.36598,-102.6187 -9.7269,-22.8057 z m -17.36656,-16.879 c -12.43207,-80.1391 27.87397,-24.8133 0,0 z m 68.73254,-0.1717 c -91.68142,-126.2728 35.52748,-54.6078 0,0 z m 187.17706,-3.6218 c -74.51411,-63.5343 -293.89866,-79.6244 -243.30614,-185.1939 6.01766,96.1034 176.96097,144.3605 264.65144,175.2697 l -4.01195,6.0864 z m -207.87027,-69.5221 c -32.60498,-33.9788 -20.03036,-57.5284 0,0 z m 1301.19321,0.5981 c -12.2246,-62.4686 -163.231,-115.2632 -54.1023,-97.6251 -26.3198,-50.1635 25.3016,-156.9108 -9.4426,-31.6791 21.2083,125.7078 66.5963,89.6893 70.4035,70.4184 138.5826,3.3329 93.0173,-188.3031 179.3795,-215.65 5.9582,-42.477 -64.8145,160.11 -60.8698,164.0323 -56.9154,20.6479 -82.388,72.0035 -125.3683,110.5035 z M 1881.0412,1323 c -30.4691,-29.1216 23.0148,-20.9295 0,0 z M 1771,1321 c -112.7242,-83.59 26.8648,-31.9823 0,0 z m 576.5,-2 c -135.8439,-16.6055 -4.9818,-37.1584 0,0 z M 619,1312.5038 c -69.71535,-57.63 -66.80546,-103.6426 -9.25,-26.7407 13.1815,-1.7789 27.30731,21.8876 9.25,26.7407 z m -77,-0.3788 c 21.56778,-60.1473 16.94678,-13.246 0,0 z m 1691.0789,-2.7363 c -100.8966,-14.2884 -123.3808,-6.0454 -4.7998,-14.2276 18.5724,-31.4653 50.281,23.1522 4.7998,14.2276 z M 2039.25,1304.75 c 44.4104,-20.2238 153.4912,3.3799 0,0 z m -165.6394,-15.3224 c 2.7709,-64.7242 29.5039,-127.0235 0,0 z m 464.5846,-5.1724 c 27.6089,-119.6543 36.7443,-71.115 0,0 z M 1771,1283.1224 c -72.6777,-115.4443 16.6801,-54.2188 0,0 z m 478.7484,-6.5644 c -17.4765,-19.4382 33.6416,-27.6434 0,0 z m -537.3476,-6.8878 c -70.4054,-32.3469 -144.9232,-80.7558 -39.4008,-33.0799 8.0856,13.2504 36.0221,14.7085 39.4008,33.0799 z m -392.9504,-4.4855 c -94.6418,-82.2469 -49.3852,-72.8883 1.9816,-1.8359 l 0.5611,2.5427 z m 942.9667,-4.3188 c -19.5751,-94.9936 21.2702,-41.7704 35.9068,-136.0121 -20.1681,90.8826 -22.5716,111.1858 -35.9068,136.0121 z m -795.582,-20.5988 c -54.6945,-24.3035 64.1607,-26.7703 0,0 z m 297.8904,-7.8749 c 26.2726,-16.5739 16.2828,-57.2261 0,0 z m -263.0414,-4.1422 c 48.8627,-16.392 50.9336,-5.0824 0,0 z m 44.3037,-6.3106 c 14.4367,-14.2918 111.2478,14.9921 0,0 z m 283.0122,0.092 c -14.8427,-94.3286 3.8382,-149.9758 0,0 z m -118,-16.8792 c -108.5197,-76.8674 -16.8724,-31.8538 0,0 z m 647,-15.0932 c -1.1324,-70.7965 109.0811,-72.3205 6.9499,-17.1784 3.6243,5.8448 -1.1926,14.6195 -6.9499,17.1784 z m -907.1546,28.2639 c -12.0148,7.637 -163.3898,-146.8723 0,0 z M 2192,1172 c 5.5796,-84.0951 70.2254,-74.8529 0,0 z m -328,-1.845 c -25.3552,-23.5934 23.4706,-14.4287 0,0 z m 150.9916,-7.1287 c -30.7867,-75.1416 21.4093,-88.6614 0,0 z m -398.9253,49.6339 c -37.5983,-14.8991 -188.914,-134.9183 0,0 z M 1508.2618,1146.75 c -147.2339,-35.2473 27.0378,-8.0045 0,0 z M 1612,1146 c -64.6059,-31.2676 33.05,-21.7729 0,0 z m -145,-10.2857 c -23.5062,-37.5744 10.55,-15.4706 0,0 z m -858.96747,-2.1287 c -95.19517,-75.5076 65.16406,19.3433 0,0 z M 832,1128.8602 c -208.83185,-66.0813 -33.97545,-50.2981 0,0 z m -183.39982,-11.3926 c 110.00437,-61.2578 4.78742,-30.161 0,0 z m 1238.91612,32.7183 c -14.4708,-68.0607 4.8084,-52.9649 0,0 z M 1453,1113.9686 c -18.7511,-12.1587 13.5805,-14.9649 0,0 z m -164.8304,-0.698 c -34.7081,-40.214 -76.0415,-22.4009 -0.038,-27.1644 -32.6968,-46.4322 58.3574,45.657 0.038,27.1644 z M 1831,1100.9686 c 60.312,-71.9166 22.9867,-38.2768 0,0 z m 248.497,-3.0673 c -121.4679,-100.12355 -50.1306,-79.9954 0,0 z M 1402.5,1096 c -95.7483,-12.4115 -90.9982,-53.0306 -85.3168,-80.926 55.5019,138.5624 57.5737,-10.5146 85.3168,80.926 z m 817.6878,-1.8628 c 27.3045,-35.6572 -10.2513,-46.9322 0,0 z m -642.9378,-4.1524 c -142.3818,-117.06519 -13.9593,-27.4035 0,0 z m -725.601,22.4366 c 20.62222,-33.9412 50.06233,-32.5501 0,0 z m 357.5879,18.9038 c -184.1453,-123.1879 7.8711,-12.4525 0,0 z m -7.5653,-53.3958 c -28.2145,-30.0699 -21.2907,-64.8485 0,0 z m -306.66383,-0.9149 c 54.3706,-11.5195 35.29026,-11.228 0,0 z M 2305.74,1077.75 c 24.9031,-97.22004 24.25,-18.2648 0,0 z m -1028.3204,-7.099 c -29.4757,-17.4497 19.6471,-22.042 0,0 z m 819.7932,3.0143 c -11.1248,-32.4654 50.1958,-68.4632 0,0 z M 940.37763,1058.5417 c -47.06508,-44.2373 -109.88451,-54.4605 -0.85587,-21.4901 -25.26355,29.5734 12.89548,13.31 0.85587,21.4901 z m 929.54797,-22.8665 c -232.4307,-160.69581 46.0329,7.3576 0,0 z M 617.75,1035.8881 c 18.57251,-33.7694 92.79205,-31.9053 0,0 z m 358.46057,-1.489 c 42.18813,-72.41741 111.61563,-37.61227 23.60364,-3.197 -25.14686,16.5901 10.30129,-28.811 -23.60364,3.197 z m -265.77482,-5.0923 c -53.13064,-12.1956 117.41179,-86.74054 26.13752,-15.3122 l -9.54088,12.9788 z m 656.44585,-1.0568 c -13.2032,-37.53942 -5.3143,-131.3544 0,0 z m 752.3246,-5.9191 c 10.6763,-63.85525 56.9875,-110.77526 0,0 z M 796.25,1021.3256 c -59.07017,-28.36707 44.26445,-2.9696 0,0 z m 1524.3583,-4.2208 c -10.4288,-55.6662 30.8633,10.3832 0,0 z M 850.56598,1014.5 c -62.40243,-11.9487 48.6682,-0.836 0,0 z m 272.35662,11.8843 c -46.6935,-11.2272 -3.2819,-32.28337 0,0 z m 1111.2698,-16.2107 c -8.3142,-39.44503 38.0074,-34.26284 0,0 z M 2015,986 c -45.1162,13.84874 -18.2053,54.1967 5.4735,-11.23203 z m -383.9454,-3.89789 c -43.2929,-7.57244 -69.3028,-42.68379 0,0 z m -857.39678,-9.42079 c 80.69132,-77.14842 99.50283,-34.1665 0,0 z m 1132.90838,-0.78845 c 4.0948,-36.15949 43.815,-100.52437 0,0 z m -434.4252,25.18896 c -62.1578,-49.39585 0.9809,-40.30288 0,0 z m 292.1226,-39.21826 c -32.4209,-34.0883 6.5811,-47.2341 0,0 z M 1167.75,949.78823 c -53.9161,-7.16973 -7.6111,-24.46449 0,0 z M 2025,942.20225 c 51.8674,-101.32762 50.8515,-27.93593 0,0 z m -562.3242,-2.85977 c -10.0529,-25.90815 31.1001,-29.0358 0,0 z m -748.93684,-7.30379 c -3.11931,-58.87266 62.80109,7.60644 0,0 z m 104.97261,-2.03364 c -75.78033,-9.09409 -6.59156,-15.38638 0,0 z M 2151,924 c -64.4553,1.52121 81.9454,-107.54377 0,0 z m -675.0144,-6.04536 c 13.9793,-50.90206 35.2432,-50.57145 0,0 z m -648.76144,-3.90722 c -18.58801,-23.03897 18.11246,4.81524 0,0 z M 816.5544,904.5 c -60.1759,-46.48531 -73.57526,-4.45595 -1.29773,-28.55717 5.96467,11.33274 3.35396,16.18342 1.29773,28.55717 z m 833.7957,1.03473 c -24.7057,-48.47233 48.1011,-2.96065 0,0 z m -435.8912,-1.60126 c -29.2993,-30.92863 -0.3407,-32.43628 0,0 z m 700.8718,-9.00277 c -29.9651,-24.26843 -54.1414,-122.09728 0,0 z M 1303,883.5 c -13.4928,-62.87462 37.5747,13.75712 0,0 z m -361.2043,-2.85498 c -16.06713,-30.66191 31.39487,5.12433 0,0 z m 1202.0001,-2.79204 c -34.9783,-30.75373 22.2999,-6.48508 0,0 z M 1503,870.02681 c -7.1386,-73.56966 53.3478,-11.98437 0,0 z m 615.034,-26.48585 c -92.8635,-88.71253 9.8752,-13.37939 0,0 z m -1038.152,-6.65899 c -120.66799,-4.76453 23.7749,37.50419 8.4956,-1.20451 z m 937.4717,-8.86323 c -34.8015,-20.68472 15.0168,-8.07672 0,0 z M 1159,828.88337 c -14.9066,-26.02546 24.0185,-23.70849 0,0 z M 984,827 c -150.72556,-3.08401 71.4778,-20.81965 0,0 z m 800.9134,-2.77673 c -2.5672,-41.06464 38.6515,14.51852 0,0 z m -965.13317,-7.2673 c 5.24099,-11.98961 19.62581,7.65841 0,0 z M 922.36163,816.5 c -177.41151,-2.16229 19.47204,-7.57726 0,0 z M 1403,815.72224 c -32.442,-56.29311 4.2783,-22.7242 0,0 z M 1866.5,809 c -51.6345,-67.69105 22.0689,7.48973 0,0 z m 137.6043,4.07459 c -29.0793,-22.59107 -28.6602,-65.54372 0,0 z M 1040.015,796.02798 c -33.079,-6.84454 -1.537,-15.44299 0,0 z M 2068.4856,791.75 c -39.9648,-52.84419 -10.075,1.91618 0,0 z m -684.4136,-6.07804 c -24.9894,-45.52977 15.6443,-7.46506 0,0 z m -378.3963,-4.80404 c -90.13459,-81.87393 -53.10082,-64.24921 0,0 z M 1241.5833,776.25 c -45.4455,-21.3506 20.7462,-27.42561 0,0 z m 595.5954,-1.60459 c -60.8909,-82.48011 10.0607,-10.94427 0,0 z M 1963.4356,764.5 c -58.7078,-74.03318 13.7883,11.92997 0,0 z m -990.26235,-4.2567 c -49.40642,-6.08744 8.25124,-47.09124 0,0 z M 1363,758.93785 c -90.9566,-54.83228 -19.4839,-55.57455 0,0 z m -88.633,-6.72271 c -10.7782,-20.09762 92.8014,-25.29284 0,0 z m 570.0325,-11.81392 c 16.9542,-43.94443 23.6416,-1.54918 0,0 z m -638.1791,-0.58083 c -124.4226,-59.79332 -106.4795,-77.99863 0,0 z M 1537,735.93979 c -40.3916,-4.10951 10.0443,-24.2378 0,0 z M 1790.3616,724.5 c -38.4612,-16.41329 -6.6061,-29.64584 0,0 z m -488.8027,-7.0318 c -61.1667,-33.78026 29.1248,1.3684 0,0 z m 209.1911,-0.13048 c -59.1281,-57.15137 22.1196,0.11886 0,0 z m -100.5005,-14.8626 c -49.7368,1.67274 -22.3736,-40.73136 0,0 z m -144.7837,-3.32384 c -7.9707,-17.99469 15.0477,1.90787 0,0 z M 1784.2304,699 c -24.1094,-13.48524 43.9574,9.66186 0,0 z m -31.0642,-1.87949 c -69.222,-16.56372 0.2,-18.78082 0,0 z M 1258.3616,694.5 c -38.2633,-12.00124 3.2896,-14.74555 0,0 z M 1094,687 c -52.1448,-3.53 -3.9929,-20.8093 0,0 z m 142.8723,-2.16667 c -74.9093,-27.36309 29.0966,-2.60329 0,0 z m -234.6384,-2.03515 c 41.9604,-25.42158 95.3622,3.49564 0,0 z m 365.3761,-4.22417 c -99.0836,-53.06714 18.2149,-2.78811 0,0 z M 1277,645 c -83.0212,-12.03725 10.7872,-20.29747 0,0 z"
         sodipodi:nodetypes="cccccccccccccsccsccccccccccccccccccccccccccccccccccccccccccccccccccccccccccccccccccccccccccccccccccccccccccccccccccccccccccccccccccccccccccccccccccccccccccccccccccccccccccccccccccccccccccccccccccccccccccccccccccccccccccccccccccccccccccccccccccccccccccccccccccccccccccccccccccccccccccccccccccccccccccccccc" />
      <path
         id="path1538"
         style="display:inline;fill:#333333;fill-opacity:1"
         d="m 693.29641,1850.1994 c -49.63332,-7.5919 29.74611,12.7358 0,0 z m 9.20833,-7.2071 c 1.25145,-15.9909 -23.1247,-4.7509 0,0 z m -101.29687,-7.0311 c -5.83259,-25.5332 10.41781,-5.5396 0,0 z m 264.70436,-0.243 c -144.06841,-35.3632 41.06746,-42.577 0,0 z M 658.75,1824.7917 c -33.29415,-15.9438 -20.64949,-23.6067 0,0 z M 626.9465,1817.1 c 23.17268,-69.6033 102.26792,-25.3429 10.95331,-12.4562 z m -10.40373,-13.3509 c -61.27869,-23.4612 9.43974,-25.2905 0,0 z m 171.74391,-0.4444 c -45.61379,-8.241 18.61367,-10.1121 0,0 z M 764,1795.8315 l -12.28594,-7.6118 z m -24.51422,-8.8545 c -11.19812,-9.4094 10.22438,-14.9645 0,0 z m -181.37358,-8.2417 c -15.71225,-22.1415 15.77967,-9.7512 0,0 z m 146.43196,-9.8327 c -79.17081,-27.5301 28.57446,-18.3558 0,0 z M 584.25,1768.5042 c -102.40631,-68.4869 -59.28899,-66.1234 0,0 z m 175.53848,-64.6388 c -130.92092,-71.5305 32.23281,-39.8755 0,0 z m -151.30032,-3.8846 c -81.5231,-82.7697 -26.65614,26.4049 -8e-5,2e-4 z m -63.13583,-8.9741 c -19.79948,-81.8755 -9.21174,5.0411 0,0 z m 143.37389,-35.1876 c -56.32885,-23.9037 27.35022,0.2353 0,0 z M 531.116,1651.25 c -27.53226,-99.4687 -12.41851,-94.57 10.88405,-4.4165 z m 102.46693,-27.3842 c -12.67973,-18.4131 29.41399,7.0253 0,0 z M 621.75,1614.3107 c -85.34716,-51.1723 138.31746,-9.1673 -4.22128,-6.7767 z M 751,1594.756 c -36.68017,-25.8212 44.25662,-10.5892 0,0 z m -60,-0.5083 c 48.67606,-19.3585 50.57368,3.7072 0,0 z M 575,1557 c -48.30663,-50.1163 9.02069,-28.2958 0,0 z m -21.61662,-35.5567 c -28.76487,-29.8369 8.99731,-14.0735 0,0 z M 611.64286,1494.5 c -64.01177,-32.3664 40.52927,-27.4376 0,0 z M 795.2,1490.8 c -176.98167,-87.2842 70.7826,23.7171 0,0 z m -258.53333,-5.4667 c -10.89229,-19.5843 17.00677,-35.7952 0,0 z m 62.22798,-18.9843 c -29.13275,-45.7074 5.28195,-7.6963 0,0 z M 721,1459 c -179.34208,-72.2457 -70.76476,-51.5192 0,0 z m 1168.9845,-37.1222 c -109.2342,-50.0455 106.4888,-82.0284 0,0 z M 573,1402.7992 c -11.1358,-18.9024 -5.40193,19.3623 0,0 z m 44.27993,-0.161 c -102.74996,-56.5684 -45.64191,-73.9117 0,0 z m 1245.23617,-24.6071 c -88.2154,-45.3624 -20.5131,-60.674 0,0 z m 64.4992,-17.6741 c 48.5522,-77.0307 164.4132,-89.9997 47.2876,-23.4092 -2.1185,-24.075 -37.5388,45.4857 -47.2876,23.4092 z M 556.29999,1339.2553 c -22.26422,-34.2395 7.67849,-22.2752 0,0 z M 1806.3616,1337.5 c -53.5349,-35.7886 17.9203,-16.5841 0,0 z m -37.6116,-17.2163 c 5.6657,-6.9004 22.8204,-17.9587 0,0 z m 58.2653,-0.8787 c -22.1683,-33.5937 15.7994,-15.6372 0,0 z m 499.6115,-0.1115 c -74.6515,-34.9485 78.9393,-6.1567 0,0 z m -1707.97663,-7.5512 c -152.99245,-108.8449 36.44468,-107.4572 0,0 z M 2238,1308.5314 c -41.3444,-19.7074 44.15,-21.1868 0,0 z m -180.25,-4.2606 c 5.8688,-41.7958 94.053,14.8186 0,0 z m 146.7361,-2.2946 c -24.7157,-8.3658 46.91,-3.2016 0,0 z M 551.2034,1293 c -15.04038,-14.685 19.00937,-8.8997 0,0 z m 1269.257,-1.1248 c -3.6085,-26.5447 15.4258,2.1767 0,0 z M 1743,1290.5833 c -53.7026,-31.8308 20.3568,-6.1264 0,0 z m 595.4273,-4.0169 c -4.4746,-121.2472 41.1069,-128.7905 0,0 z m -567.3113,-3.33 c -14.7629,-36.2325 7.9849,-10.6243 0,0 z m 55.5745,-0.8793 c -4.9544,-72.0542 24.3019,-28.7428 0,0 z m 182.9762,-5.0238 c 14.6965,-73.0247 40.276,-33.9917 0,0 z m -703.9456,-13.716 c -69.4382,-85.0831 54.0309,12.3075 0,0 z m 396.4435,0.5056 c -26.2446,-12.595 4.3498,-19.0691 0,0 z m 63.6076,-8.9025 c -60.2678,-43.4611 15.8724,-30.5539 0,0 z M 2260,1247.0795 c 5.6358,-54.9468 43.7415,-26.3496 0,0 z m -584.8671,-3.7236 c -67.6174,-24.0793 26.1909,-2.4525 0,0 z M 1473.3616,1237.5 c -51.7785,-7.7089 -8.7717,0.964 0,0 z M 1636,1230.0227 c -37.0332,-21.9213 24.6421,-31.6092 0,0 z m -133.3333,-1.6894 c 10.5359,-15.5696 34.5301,-2.3148 0,0 z M 1767,1225 c -20.7133,-45.8977 29.6648,-29.5543 0,0 z m -231.6508,-1.4712 c -33.2516,-5.7252 36.3588,-4.2383 0,0 z m 491.8324,-3.9587 c -4.3485,-24.2086 15.4977,-1.0455 0,0 z m -409.8712,-7.6491 c -36.3844,-17.5252 -27.1177,-28.2533 0,0 z m 408.1243,-2.4973 c 21.7522,-40.813 108.1133,-115.3631 14.3245,-13.6446 z m -776.1739,-11.715 c -59.5187,-105.796 13.7015,4.6728 0,0 z m 331.9174,-6.5542 c -40.0747,-11.3543 15.5517,-11.5083 0,0 z M 2355,1188.2 c -5.759,-21.9551 27.2668,-25.9887 0,0 z m -163.2778,-17.2114 c -28.5838,-21.5149 36.5702,-13.0375 0,0 z m -645.6432,-3.2533 c -12.1809,-14.0937 11.5491,-8.3363 0,0 z m 658.4215,-13.4853 c 16.1258,-54.1959 12.667,7.0824 0,0 z M 2366,1156.666 c 32.1988,-31.1123 87.1033,-31.5181 0,0 z m -362.473,-0.622 c 45.9633,-65.9879 32.3891,-70.0352 9.0072,-63.4095 21.4999,16.8726 9.6882,47.6115 -9.0072,63.4095 z m 277.5278,11.8499 c 21.1294,-115.4803 29.358,-40.0149 0,0 z M 1534.5,1153 l -14.2734,-7.0052 z m -26.2202,-6.3482 c -22.5197,-11.0276 26.0657,21.7961 0,0 z m 92.7506,-3.3082 c -44.9737,-2.3173 18.2106,-18.0275 0,0 z m -398.1411,-6.0936 c -29.1859,-23.6046 12.029,-10.6489 0,0 z m -595.35281,-5.5889 c -94.71194,-29.512 67.74087,3.5119 0,0 z M 2082,1132 c -5.7988,-40.9932 16.6529,-26.5344 0,0 z M 648.25265,1116.8527 c -34.46122,7.063 21.30218,10.4699 0,0 z m 1570.22405,-8.3526 c -5.7758,-29.8352 9.9351,6.6029 0,0 z M 1280,1108.0038 c -104.6862,-59.1053 7.4467,-29.4837 0,0 z m 551.0153,-6.6948 c -12.6377,-33.9753 28.7589,-20.0967 0,0 z m 249.6897,-3.9826 c -55.2588,-38.3662 33.9226,-14.9496 0,0 z M 725.88158,1097.25 c -5.39763,-8.1449 1.95411,-19.5243 0,0 z m 675.26962,-4.5678 c -60.2017,17.262 -29.1344,-88.0403 0,0 z m -708.32424,-1.8333 c -22.80582,-17.0096 33.98398,10.9701 0,0 z m 1611.83624,-3.5867 c -51.6072,1.4886 26.233,-12.6515 0,0 z M 895.23241,1077.0005 c 38.93843,-26.7732 35.97393,-4.3076 0,0 z m 317.60299,1.1224 c -13.9457,-20.3649 22.4922,-1.4574 0,0 z M 1334,1075.0675 c -78.7589,-13.1931 18.5972,-52.8056 0,0 z m 880.25,-0.3267 c -12.7016,-11.6435 20.4773,-5.8234 0,0 z M 940,1058.0422 c -142.85746,-90.72238 -11.48992,-15.0431 14.66913,-7.5315 -18.91275,-33.3671 -7.87949,16.2009 -14.66913,7.5315 z m 1155.5585,14.9456 c 8.0541,-41.2102 33.5486,-74.03523 0,0 z m -64.0454,-24.6019 c -64.6509,-12.9576 6.1513,-9.4637 0,0 z m -708.4698,-6.8338 c -26.7391,-9.843 8.2254,-28.9754 0,0 z m 545.8947,-7.9605 c -32.1465,-44.67311 30.6849,-19.1243 0,0 z M 617,1033.6084 c 54.38437,-38.60174 37.38339,-8.5349 0,0 z m 921.0133,20.4229 c -32.2119,-18.035 -106.9494,-108.81974 0,0 z M 959,1031.9713 c 12.24527,-10.9967 21.68208,8.098 0,0 z m 29.8,-0.1713 c -30.82888,-16.7548 62.081,-23.8702 0,0 z m -278.10927,-3.4364 c -45.46666,-43.0366 79.07198,-13.0018 0,0 z m 85.39665,-7.7706 c -5.72209,-49.77186 36.24856,-0.1077 0,0 z m 1523.95772,-6.6923 c -0.1706,-55.39922 25.9573,9.4215 0,0 z m -1266.2933,1.1885 c -57.70773,-4.88 -37.1298,-40.91663 0,0 z m 71.7856,-7.1497 c -45.706,-14.81538 21.1256,-13.47683 0,0 z m 1110.3442,-5.6958 c -11.0901,-24.61759 28.5504,-13.30771 0,0 z M 743.19273,994.49343 c 48.55457,-44.62892 7.35034,4.19029 0,0 z m 1271.51477,-9.61391 c -5.7434,-50.48372 33.7313,-27.16522 0,0 z M 774,972.98736 c 14.5851,-22.28686 69.2892,-35.9733 0,0 z m 821,-0.60086 c -15.4541,-34.74181 29.9672,-7.54191 0,0 z m -146.9157,-4.70217 c -3.5672,-8.39901 56.7689,-101.44876 0,0 z M 1753.9847,955.25 c 16.0425,-27.95426 17.0605,-8.10897 0,0 z m -950.98405,-4 c 35.5868,-90.66319 69.83387,25.09801 0,0 z M 1918.4736,937.67899 c 1.5001,-55.96762 18.5536,-36.85146 0,0 z M 716.0801,931.25 c 17.5013,11.75153 -5.18148,-13.06626 0,0 z m 88.71682,-6.62232 c -48.94469,4.9031 -10.86782,-10.94422 0,0 z m 1232.58508,0.18134 c 34.4786,-62.47168 38.0421,-18.778 0,0 z M 2157.434,921.5 c -1.482,-37.66718 -6.3587,-45.216 8.9173,-5.06454 z m -681.1788,-3.64482 c -6.7667,-14.71809 22.1395,-28.05167 0,0 z M 817.75,905.76485 c -102.84599,-33.73321 1.55067,-56.96368 0,0 z m 833.777,-3.72118 c -11.8782,-23.50558 29.0756,-12.51425 0,0 z m -439.7845,-3.46381 c -33.5806,-32.65727 7.6296,-16.09878 0,0 z m 698.9023,-7.063 c -22.0832,-52.70644 -13.0664,-72.66277 0,0 z M 941.5482,880.41159 c -5.29481,-37.57213 55.10614,14.10239 0,0 z M 1504.2556,869.5 c -10.557,-26.45211 42.3578,-29.10519 0,0 z m 666.431,-7.25 c -11.914,-21.74953 19.7801,-1.94472 0,0 z m -52.3005,-19.5 c 7.2796,15.2272 61.5521,70.84988 0,0 z m -1044.8574,-6.48195 c -148.98063,-36.63357 57.0149,-9.11459 13.6729,-0.56144 z m 85.8739,-7.42557 c -85.9691,33.2483 74.4296,-20.22061 16.5806,-10.00394 z M 976,825 c -107.73562,-0.47819 -73.87924,33.12739 6.81028,-3.05452 l -0.93763,2.77773 z m 817.25,0.29427 c 12.6876,9.18151 5.7002,-15.10784 0,0 z m -972.58333,-5.96094 c -1.64868,-10.47655 22.80445,-6.58731 0,0 z M 1158.53,819.04856 c -14.1001,-14.91648 22.6837,-12.62288 0,0 z m 951.0999,12.53891 c -70.726,-53.55317 -42.3579,-54.06145 0,0 z m -218.9175,3.76532 c -98.2988,-94.37777 13.7052,-0.24671 0,0 z M 1384.072,785.67196 c -29.0877,-28.15259 18.1304,-10.768 0,0 z m 679.4743,2.72494 c -70.9107,-22.03942 -26.3008,-23.89531 0,0 z M 999,775 c -25.56805,-4.83791 -8.24873,-23.99821 0,0 z m 248,-2.80701 c -68.5644,-54.46881 -12.5479,-8.0218 0,0 z m 591.5288,-3.14642 c -58.078,-28.12668 0.028,-107.26547 0,0 z M 957.70192,756.62788 c -18.7441,-37.30089 39.13709,-4.46228 0,0 z m 316.50638,-5.37929 c 6.7572,-15.33775 38.2177,-11.42315 0,0 z M 1948.2897,749 c -41.2726,-19.11944 -22.9352,13.06365 0,0 z M 1297,742.60695 c 9.6921,-13.86496 32.2765,7.46713 0,0 z m 35.8318,-1.73209 c -69.9281,-41.10858 55.7771,-12.99018 0,0 z m -127.3156,-2.82371 c -63.1607,-31.13796 -15.1718,-28.56347 0,0 z m 332.8405,-1.43824 -12.572,-9.3381 z M 1303,717.5 c -55.3837,-31.41159 15.695,-0.77034 0,0 z m -137.1563,-0.82353 c -15.0898,-4.80193 8.0225,-18.90611 0,0 z m 345.8186,-0.23874 c -47.6768,-30.45683 -4.6316,-25.78173 0,0 z M 1153,710.23713 c -56.2823,-14.59462 -11.7168,-22.80391 0,0 z m 253.2598,-13.3597 c -46.4148,-16.95523 -11.6192,-22.87355 0,0 z m -295.4826,-1.3109 c -30.9221,-1.69064 15.4037,-11.65265 0,0 z M 1258.4106,693.5 c -26.4624,-5.0526 -0.7692,-11.34361 0,0 z M 1451,694.71938 c -54.3355,-8.28786 29.7784,-5.03181 0,0 z m -213.4238,-8.90137 c -48.4638,-17.15101 8.0426,-24.09883 0,0 z M 1079.75,682.69727 c -26.5748,-9.48842 6.9354,-10.59372 0,0 z m -46.5,-2.12628 c -42.01393,-9.33814 87.0513,-12.76383 0,0 z m 228.895,-41.08827 c -19.5172,-7.67613 30.8354,2.24571 0,0 z"
         sodipodi:nodetypes="ccccccccccccccccccccccccccccccsssccccccccccccccccccccccccccccccccccccccccccccccccccccccccccccccccccccccccccccccccccccccccccccccccccccccccccccccccccccccccccccccccccccccccccccccccccccccccccccccccccccccccccccccccccccccccccccccccccccccccccccccccccccccccccccccccccccccccccccccccccccccccccccccccccccccccccccccccccccccccccccccccccccccccccccc" />
      <path
         style="fill:#1d1f21;fill-opacity:1;stroke:none;stroke-width:1px;stroke-linecap:butt;stroke-linejoin:miter;stroke-opacity:1"
         d="m 1308.0233,1822.2135 c 77.8621,47.7897 105.4286,26.4655 113.4526,40.4308 8.0239,13.9653 3.5553,33.3954 23.6866,13.0936 20.1313,-20.3018 23.5404,18.0549 33.588,1.8714 10.0475,-16.1835 10.4541,44.6291 17.592,18.8919 7.1378,-25.7372 27.159,-29.013 36.0093,-19.1289 8.8503,9.8842 5.268,-37.0356 26.6849,-26.3891 21.4169,10.6464 11.5161,4.161 60.1735,-9.1457 48.6574,-13.3067 79.664,-36.0939 79.664,-36.0939 0,0 -60.6428,10.7255 -98.4208,20.5998 -37.7781,9.8743 -74.0915,58.2875 -292.4301,-4.1299 z"
         id="path2328"
         sodipodi:nodetypes="cssssssscsc" />
      <path
         id="path2328-8"
         style="fill:#1d1f21;fill-opacity:1;stroke:none;stroke-width:0.886341px;stroke-linecap:butt;stroke-linejoin:miter;stroke-opacity:1"
         d="m 2340.5832,1836.3593 c -28.4856,27.2323 -67.0409,33.4626 -94.7557,48.2174 -14.7863,32.089 -31.2725,0.9551 -51.401,20.1927 -7.5073,2.3575 -13.2269,30.4895 -18.6769,7.7452 -8.0136,-15.3459 -33.314,-4.8213 -36.2566,-27.406 -32.8633,5.5995 -72.9327,-22.1676 -80.0514,-14.0858 -13.4706,-4.6188 -28.397,-18.6683 -4.4089,-14.4021 32.6302,-0.6884 61.5235,11.8261 90.7852,21.5976 62.3768,11.4036 130.657,-16.8951 194.7653,-41.859 z"
         sodipodi:nodetypes="ccccccccc" />
      <path
         style="fill:#b4b7b4;fill-opacity:1;stroke:none;stroke-width:1px;stroke-linecap:butt;stroke-linejoin:miter;stroke-opacity:1"
         d="m 1718.5634,1773.8958 c -86.554,-76.7249 -276.7808,-55.9851 -360.0137,-31.8825 -31.8967,9.2367 -38.525,-74.4117 77.2473,-95.5733 110.0277,-20.1115 274.601,9.3985 282.7664,127.4558 z"
         id="path2355"
         sodipodi:nodetypes="cssc" />
      <path
         style="fill:#b4b7b4;fill-opacity:1;stroke:none;stroke-width:1px;stroke-linecap:butt;stroke-linejoin:miter;stroke-opacity:1"
         d="m 1710.1257,1850.8181 c -95.721,45.2071 -272.5818,125.3051 -359.208,54.3022 -86.6262,-71.0029 118.715,112.5917 184.9471,84.2599 57.7529,-24.7047 139.5442,-61.1736 174.2609,-138.5621 z"
         id="path2357"
         sodipodi:nodetypes="cssc" />
      <path
         style="fill:#b4b7b4;fill-opacity:1;stroke:none;stroke-width:0.939667px;stroke-linecap:butt;stroke-linejoin:miter;stroke-opacity:1"
         d="m 2015.2332,1813.2267 c 104.0495,-74.2719 287.9645,-98.3868 334.3461,-38.9861 18.4815,23.6692 48.0618,-48.2124 -52.7205,-81.4416 -99.2444,-32.7222 -281.5921,-79.5076 -281.6256,120.4277 z"
         id="path2355-4"
         sodipodi:nodetypes="cssc" />
      <path
         style="fill:#b4b7b4;fill-opacity:1;stroke:none;stroke-width:0.939667px;stroke-linecap:butt;stroke-linejoin:miter;stroke-opacity:1"
         d="m 2015.6118,1869.4976 c 88.9618,35.6786 199.1846,119.8257 282.1796,56.5503 12.5282,-9.5514 36.7078,70.7501 -46.6017,76.6166 -87.3927,6.154 -192.2636,17.8092 -235.5779,-133.1669 z"
         id="path2357-7"
         sodipodi:nodetypes="cssc" />
      <path
         style="fill:#969896;fill-opacity:1;stroke:none;stroke-width:1px;stroke-linecap:butt;stroke-linejoin:miter;stroke-opacity:1"
         d="m 1714.675,1761.8217 c -80.7686,-57.83 -261.1809,-78.262 -319.8445,-55.1932 -58.6635,23.0688 -45.6664,-53.3378 98.1939,-31.7802 143.8604,21.5576 195.4365,40.5882 221.6506,86.9734 z"
         id="path2383"
         sodipodi:nodetypes="cssc" />
      <path
         style="fill:#969896;fill-opacity:1;stroke:none;stroke-width:1px;stroke-linecap:butt;stroke-linejoin:miter;stroke-opacity:1"
         d="m 2020.7467,1807.9759 c 80.7686,-57.83 185.3157,-118.68 307.1328,-64.2431 57.5513,25.7182 24.7201,-40.814 -130.1226,-45.4709 -145.4009,-4.373 -150.7961,63.3288 -177.0102,109.714 z"
         id="path2383-7"
         sodipodi:nodetypes="cssc" />
      <path
         style="fill:#969896;fill-opacity:1;stroke:none;stroke-width:1px;stroke-linecap:butt;stroke-linejoin:miter;stroke-opacity:1"
         d="m 1718.6575,1844.7597 c -70.6123,50.5262 -154.6841,109.1223 -237.1766,105.767 -82.4925,-3.3554 72.0129,74.1349 237.1766,-105.767 z"
         id="path2405"
         sodipodi:nodetypes="csc" />
      <path
         style="fill:#969896;fill-opacity:1;stroke:none;stroke-width:1px;stroke-linecap:butt;stroke-linejoin:miter;stroke-opacity:1"
         d="m 2012.508,1881.836 c 70.6123,50.5262 130.7321,86.2904 213.2246,82.9351 82.4926,-3.3554 -48.0608,96.9668 -213.2246,-82.9351 z"
         id="path2405-1"
         sodipodi:nodetypes="csc" />
      <path
         style="fill:#1d1f21;fill-opacity:1;stroke:none;stroke-width:1px;stroke-linecap:butt;stroke-linejoin:miter;stroke-opacity:1"
         d="m 2095.3633,2525.4239 c -79.6608,0.5548 -86.1154,-26.3407 -86.1154,-26.3407 0,0 -37.0755,42.5703 -58.7874,42.2353 -21.7119,-0.3351 -104.1004,-2.1331 -119.7062,-27.7256 -15.6057,-25.5924 -24.0265,21.8334 -53.8634,23.0999 -29.837,1.2664 -140.4927,5.5126 -125.8287,-17.6463 14.6641,-23.1589 12.965,-60.8236 -16.6843,-0.2053 -16.2793,33.2831 192.3059,24.6315 200.299,41.7919 25.4628,54.6662 81.6583,-40.9683 113.5665,4.0625 21.9367,30.9583 40.7355,-12.066 70.0106,-9.1224 36.7452,3.6947 77.1093,-30.1493 77.1093,-30.1493 z"
         id="path2427"
         sodipodi:nodetypes="ccssssssssc" />
      <path
         style="fill:#1d1f21;fill-opacity:1;stroke:none;stroke-width:1px;stroke-linecap:butt;stroke-linejoin:miter;stroke-opacity:1"
         d="m 1535.502,2945.0125 c 63.2368,-41.039 296.6412,-81.4635 407.5003,-81.8165 110.8591,-0.3529 239.7146,-8.9569 263.481,9.4885 23.7664,18.4454 -32.6436,9.5635 -109.1746,4.9368 -136.9752,-8.2808 -306.8077,10.0796 -420.0905,31.7247 -106.5439,20.3574 -137.5497,62.9363 -141.7162,35.6665 z"
         id="path2431"
         sodipodi:nodetypes="cssssc" />
      <path
         style="fill:#b4b7b4;fill-opacity:1;stroke:none;stroke-width:1px;stroke-linecap:butt;stroke-linejoin:miter;stroke-opacity:1"
         d="m 2435.9766,2315.1282 c -77.1958,108.3174 -113.393,160.896 -141.0672,323.9587 -27.6619,162.99 26.2633,86.0598 77.3403,-30.5368 29.1035,-66.4366 -8.3996,-149.6241 63.7269,-293.4219 z"
         id="path2433"
         sodipodi:nodetypes="cssc" />
      <path
         style="fill:#1d1f21;fill-opacity:1;stroke:none;stroke-width:1px;stroke-linecap:butt;stroke-linejoin:miter;stroke-opacity:1"
         d="m 512.73565,1809.739 c -71.12542,6.1559 -66.43807,164.8761 -66.43807,164.8761 0,0 35.08484,-158.852 74.98212,-125.3186 39.89728,33.5333 63.09701,68.9046 63.09701,68.9046 0,0 -8.7876,-90.2502 -71.64106,-108.4621 z"
         id="path2439" />
      <path
         style="fill:#1d1f21;fill-opacity:1;stroke:none;stroke-width:1px;stroke-linecap:butt;stroke-linejoin:miter;stroke-opacity:1"
         d="m 521.15348,1851.1443 c -34.21645,42.297 -39.56262,126.7153 -39.56262,126.7153 0,0 21.82911,-53.0796 39.88739,-17.9362 18.05828,35.1433 39.14931,78.4792 5.17433,136.4425 -33.97498,57.9633 9.11495,110.2954 9.11495,110.2954 0,0 -16.49737,-64.4196 12.78322,-121.0509 29.2806,-56.6314 -17.30747,-98.1865 1.36173,-139.8056 18.6692,-41.6192 -28.759,-94.6605 -28.759,-94.6605 z"
         id="path2441" />
      <path
         style="fill:#1d1f21;fill-opacity:1;stroke:none;stroke-width:1px;stroke-linecap:butt;stroke-linejoin:miter;stroke-opacity:1"
         d="m 457.66426,2160.816 c 0,0 -17.70625,51.7443 5.57123,92.7592 23.27748,41.0149 -5.57123,-92.7592 -5.57123,-92.7592 z"
         id="path2445" />
      <path
         style="fill:#1d1f21;fill-opacity:1;stroke:none;stroke-width:1px;stroke-linecap:butt;stroke-linejoin:miter;stroke-opacity:1"
         d="m 467.77962,2416.77 c 63.85574,-66.04 89.75245,-111.8934 89.75245,-111.8934 0,0 -27.04565,223.4112 7.42733,282.7903 34.47298,59.379 127.76136,178.1972 282.40465,246.5267 154.64335,68.3295 370.86875,457.3562 531.76935,530.1043 160.9006,72.7481 454.3432,97.0249 470.9423,4.4091 16.599,-92.6157 7.007,12.1101 68.6225,27.395 61.6155,15.285 326.1433,-13.3601 335.7342,-100.2805 9.5909,-86.9205 46.7678,-268.8183 46.7678,-268.8183 0,0 0.046,257.835 -43.5497,301.3361 -43.5956,43.5011 -21.308,60.8668 -368.4089,98.6097 -347.1008,37.7428 -534.4903,14.0548 -689.0485,-191.0723 C 1045.6348,3030.7496 622.90627,2728.3428 578.85107,2648.5668 534.79586,2568.7909 541.36546,2436.608 467.77962,2416.77 Z"
         id="path2447" />
      <path
         style="fill:#b4b7b4;fill-opacity:1;stroke:none;stroke-width:1px;stroke-linecap:butt;stroke-linejoin:miter;stroke-opacity:1"
         d="m 1768.7794,2973.0909 c 146.8006,17.5388 384.8865,-66.4439 276.1003,-24.3862 -108.7863,42.0577 -142.9703,79.3442 -276.1003,24.3862 z"
         id="path2452" />
      <path
         style="fill:#1d1f21;fill-opacity:1;stroke:none;stroke-width:1px;stroke-linecap:butt;stroke-linejoin:miter;stroke-opacity:1"
         d="m 2321.7581,2950.8318 c 0,0 -20.0392,49.5432 -15.1267,64.7106 4.9125,15.1674 164.7566,290.2956 276.9195,315.9265 112.1629,25.6308 482.294,538.9169 847.1623,728.5994 154.9687,80.5629 411.9134,-137.4588 411.9134,-137.4588 0,0 -1284.3159,-786.83 -1520.8685,-971.7777 z"
         id="path2457"
         sodipodi:nodetypes="cssscc" />
      <path
         style="fill:#373b41;fill-opacity:1;stroke:none;stroke-width:1px;stroke-linecap:butt;stroke-linejoin:miter;stroke-opacity:1"
         d="m 293.51693,2428.9743 c -115.07945,100.3895 -115.77705,258.2093 -171.55113,310.273 -55.774089,52.0637 -66.25686,198.3995 -57.495811,318.1659 8.76105,119.7663 157.196271,-564.6458 229.046941,-628.4389 z"
         id="path2459" />
      <path
         style="fill:#373b41;fill-opacity:1;stroke:none;stroke-width:1px;stroke-linecap:butt;stroke-linejoin:miter;stroke-opacity:1"
         d="m 2228.7987,3354.1794 c 0,0 677.8336,679.8675 799.4371,745.1876 -1.7583,-46.5653 -675.6853,-871.4026 -799.4371,-745.1876 z"
         id="path2461"
         sodipodi:nodetypes="ccc" />
      <path
         style="fill:#969896;fill-opacity:1;stroke:none;stroke-width:1px;stroke-linecap:butt;stroke-linejoin:miter;stroke-opacity:1"
         d="m 396.30024,2330.5692 c 0,0 -71.789,-120.587 -154.53126,-47.095 -82.74227,73.492 -260.632431,289.3322 -260.632431,289.3322 -831.428519,745.6177 -847.097329,2861.0913 -847.097329,8872.7326 l 1221.37703,8.384 c 0,0 -324.310961,-8260.7795 -329.266203,-8469.134 -4.955241,-208.3544 68.923693,-210.9037 142.969893,-414.2063 74.04621,-203.3026 126.82025,-116.4125 89.68541,-172.3797 -37.13483,-55.9671 4.43682,-186.1405 137.49489,-67.6338 z"
         id="path2463"
         sodipodi:nodetypes="cscccsssc" />
      <path
         style="fill:#1d1f21;fill-opacity:1;stroke:none;stroke-width:1px;stroke-linecap:butt;stroke-linejoin:miter;stroke-opacity:1"
         d="m 466.22551,1778.223 c -54.62869,124.8602 -45.11386,203.0771 -66.03358,313.8453 -20.91972,110.7682 6.83021,293.2642 6.83021,293.2642 0,0 -13.63397,-208.7689 9.55975,-303.4781 20.25336,-82.7025 -2.32966,-84.0319 26.13809,-192.8798 20.54964,-78.5726 23.50553,-110.7516 23.50553,-110.7516 z"
         id="path2471"
         sodipodi:nodetypes="cscssc" />
      <path
         style="fill:#b4b7b4;fill-opacity:1;stroke:none;stroke-width:1.636px;stroke-linecap:butt;stroke-linejoin:miter;stroke-opacity:1"
         d="m 926.98488,2255.4507 c 200.71592,126.8753 275.35632,133.6813 349.45022,296.6677 74.0939,162.9864 -39.4883,86.5918 -202.9288,-25.0982 -163.4408,-111.69 -4.0451,-158.8937 -146.52142,-271.5695 z"
         id="path2433-0"
         sodipodi:nodetypes="cssc" />
      <g
         id="g2803"
         transform="matrix(1.0472745,0,0,1.0472745,-83.447831,-194.15942)">
        <path
           id="path2700"
           style="fill:#c5c8c6;fill-opacity:1;stroke:none;stroke-width:1px;stroke-linecap:butt;stroke-linejoin:miter;stroke-opacity:1"
           d="m 604.4023,4102.0019 c 50.42246,-173.8995 215.91449,-292.2566 302.48199,-451.5974 21.60325,-66.8297 80.19584,-107.8014 145.61631,-122.3582 64.4513,-37.2525 112.9353,-96.6371 159.0341,-153.7536 31.8923,-60.8634 95.2777,-87.4938 152.0324,-119.1104 60.859,-40.1849 97.8524,-105.7911 165.7564,-139.016 43.9701,-29.5343 68.9755,-121.4159 135.2881,-96.2589 14.4993,42.7956 -12.802,88.8197 -22.7334,131.1213 -18.9481,48.8039 -41.8337,103.0776 -91.7234,127.0077 -72.4681,51.935 -124.9428,125.6375 -193.3718,182.366 -35.3067,35.0028 -75.2304,71.3538 -87.679,120.7239 -22.361,27.6248 -69.0963,99.3808 2.648,86.1293 69.9259,-1.1192 144.7255,-22.7479 211.361,5.8951 65.5423,44.4104 114.0251,112.4119 187.9972,144.5105 26.7973,56.9391 86.1956,103.4101 94.0641,164.4505 -10.5902,36.5308 -10.7064,191.2949 -55.7134,194.7212 -431.3307,111.7051 -39.1286,6581.0321 -39.4096,6919.0341 -204.0242,-0.178 -787.21099,-17.662 -1052.05581,-17.662 0,-438.734 -71.40203,-6776.8291 -13.59319,-6976.2031 z"
           sodipodi:nodetypes="scccccccccccccccccs" />
        <path
           style="fill:#e0e0e0;fill-opacity:1;stroke:none;stroke-width:1.23782px;stroke-linecap:butt;stroke-linejoin:miter;stroke-opacity:1"
           d="m 1594.0167,3111.5921 c -69.0714,-39.7535 21.5093,-108.4462 48.5931,-71.8134 1.7605,20.7145 -21.9613,47.0362 -48.5931,71.8134 z"
           id="path2706"
           sodipodi:nodetypes="ccc" />
        <path
           style="fill:#373b41;fill-opacity:1;stroke:none;stroke-width:1px;stroke-linecap:butt;stroke-linejoin:miter;stroke-opacity:1"
           d="m 1664.6116,3019.9074 c -58.1073,127.8733 -89.6479,206.5128 -152.0843,239.1321 -62.4364,32.6192 -126.2205,148.614 -180.2561,181.8382 -54.0356,33.2241 -96.8729,197.7369 -96.8729,197.7369 49.6556,-79.0394 64.9392,-147.2683 199.0061,-252.8565 79.1408,-84.9973 116.3185,-109.1441 164.1015,-148.6697 91.154,-156.3462 62.5332,-167.2177 66.1057,-217.181 z"
           id="path2704"
           sodipodi:nodetypes="csscccc" />
        <path
           style="fill:#969896;fill-opacity:1;stroke:none;stroke-width:1.3731px;stroke-linecap:butt;stroke-linejoin:miter;stroke-opacity:1"
           d="m 1499.9109,3143.119 c 54.6555,41.5017 45.4526,81.3878 0,0 z"
           id="path2708" />
        <path
           style="fill:#969896;fill-opacity:1;stroke:none;stroke-width:1.3731px;stroke-linecap:butt;stroke-linejoin:miter;stroke-opacity:1"
           d="m 1283.6691,3306.8768 c 54.6555,41.5017 45.4526,81.3878 0,0 z"
           id="path2708-6" />
        <path
           style="fill:#969896;fill-opacity:1;stroke:none;stroke-width:1.12324px;stroke-linecap:butt;stroke-linejoin:miter;stroke-opacity:1"
           d="m 1272.2508,3322.9328 c 44.7101,33.9498 37.1818,66.578 0,0 z"
           id="path2708-1" />
        <path
           style="fill:#969896;fill-opacity:1;stroke:none;stroke-width:0.741969px;stroke-linecap:butt;stroke-linejoin:miter;stroke-opacity:1"
           d="m 1490.6483,3156.2128 c 29.5337,22.4259 24.5608,43.9788 0,0 z"
           id="path2708-7" />
        <path
           style="fill:#373b41;fill-opacity:1;stroke:none;stroke-width:1px;stroke-linecap:butt;stroke-linejoin:miter;stroke-opacity:1"
           d="m 1571.2292,3747.5708 c 0,0 -193.6961,-33.0253 -255.6922,6.4769 -61.9962,39.5022 -96.0595,21.368 255.6922,-6.4769 z"
           id="path2748" />
        <path
           style="fill:#373b41;fill-opacity:1;stroke:none;stroke-width:1px;stroke-linecap:butt;stroke-linejoin:miter;stroke-opacity:1"
           d="m 1671.1102,3817.6612 c 0,0 -196.4913,-0.135 -251,49.1878 -54.5088,49.3228 -91.1271,37.1466 251,-49.1878 z"
           id="path2748-5" />
        <path
           style="fill:#373b41;fill-opacity:1;stroke:none;stroke-width:1px;stroke-linecap:butt;stroke-linejoin:miter;stroke-opacity:1"
           d="m 1723.0885,3895.4054 c 0,0 -191.5786,43.6632 -233.7228,103.8944 -42.1444,60.2313 -80.5554,56.523 233.7228,-103.8944 z"
           id="path2748-5-5" />
        <path
           style="fill:#969896;fill-opacity:1;stroke:none;stroke-width:0.889301px;stroke-linecap:butt;stroke-linejoin:miter;stroke-opacity:1"
           d="m 944.30722,3735.9007 c 87.84288,79.6049 114.53638,29.0855 167.95798,102.9727 53.4216,73.8872 76.0883,36.1002 83.753,95.4973 7.6649,59.3969 60.4697,41.0926 123.6371,106.8908 21.0558,21.9327 134.1848,41.7243 57.6119,90.4327 -457.9382,291.2969 -49.9105,6740.9768 -49.9105,6981.5118 -161.9488,0 -462.67924,-6.404 -621.25319,-6.404 0,-253.196 162.75464,-6420.9496 -15.53037,-7004.2402 -44.44101,-145.3965 165.45386,-216.3179 253.73408,-366.6611 z"
           id="path2790"
           sodipodi:nodetypes="cssssccsc" />
      </g>
    </g>
    <g
       id="g2694"
       style="display:inline">
      <path
         style="fill:#c5c8c6;fill-opacity:1;stroke:none;stroke-width:0.582413px;stroke-linecap:butt;stroke-linejoin:miter;stroke-opacity:1"
         d="m 2397.7956,1418.6439 c -240.7742,-19.0929 -280.5678,6.3559 -346.8094,4.7831 -66.2416,-1.5729 199.6289,-40.3472 346.8094,-4.7831 z"
         id="path2500-32-8" />
      <path
         style="fill:#c5c8c6;fill-opacity:1;stroke:none;stroke-width:0.582413px;stroke-linecap:butt;stroke-linejoin:miter;stroke-opacity:1"
         d="m 1286.4523,1410.6355 c 240.7742,-19.0929 280.5678,6.3559 346.8094,4.7831 66.2416,-1.5729 -199.6289,-40.3472 -346.8094,-4.7831 z"
         id="path2500-32" />
      <path
         style="fill:#969896;fill-opacity:1;stroke:none;stroke-width:0.901614px;stroke-linecap:butt;stroke-linejoin:miter;stroke-opacity:1"
         d="m 2438.741,1381.3208 c -307.3959,-46.2222 -358.2003,-0.1678 -442.7709,-5.9764 -84.5705,-5.8087 254.8658,-67.1281 442.7709,5.9764 z"
         id="path2500-3" />
      <path
         style="display:inline;fill:#969896;fill-opacity:1;stroke:none;stroke-width:1px;stroke-linecap:butt;stroke-linejoin:miter;stroke-opacity:1"
         d="m 1246.7699,1344.5946 c 307.3959,-30.3134 358.2003,30.728 442.7709,30.8861 84.5705,0.158 -254.8658,-104.5882 -442.7709,-30.8861 z"
         id="path2500" />
    </g>
  </g>
</svg>
