<?xml version="1.0" encoding="UTF-8" standalone="no"?>
<svg
   xmlns:dc="http://purl.org/dc/elements/1.1/"
   xmlns:cc="http://creativecommons.org/ns#"
   xmlns:rdf="http://www.w3.org/1999/02/22-rdf-syntax-ns#"
   xmlns:svg="http://www.w3.org/2000/svg"
   xmlns="http://www.w3.org/2000/svg"
   xmlns:sodipodi="http://sodipodi.sourceforge.net/DTD/sodipodi-0.dtd"
   xmlns:inkscape="http://www.inkscape.org/namespaces/inkscape"
   version="1.1"
   id="svg885"
   width="290.30402"
   height="184.479"
   viewBox="0 0 290.30401 184.47901"
   sodipodi:docname="southern-dog-celebrates.svg"
   inkscape:version="1.0.2 (e86c870879, 2021-01-15)">
  <metadata
     id="metadata891">
    <rdf:RDF>
      <cc:Work
         rdf:about="">
        <dc:format>image/svg+xml</dc:format>
        <dc:type
           rdf:resource="http://purl.org/dc/dcmitype/StillImage" />
        <dc:title />
      </cc:Work>
    </rdf:RDF>
  </metadata>
  <defs
     id="defs889" />
  <sodipodi:namedview
     pagecolor="#ffffff"
     bordercolor="#666666"
     borderopacity="1"
     objecttolerance="10"
     gridtolerance="10"
     guidetolerance="10"
     inkscape:pageopacity="0"
     inkscape:pageshadow="2"
     inkscape:window-width="2560"
     inkscape:window-height="1440"
     id="namedview887"
     showgrid="false"
     inkscape:zoom="4.1451086"
     inkscape:cx="114.61023"
     inkscape:cy="104.49305"
     inkscape:window-x="0"
     inkscape:window-y="0"
     inkscape:window-maximized="0"
     inkscape:current-layer="g897"
     fit-margin-top="0"
     fit-margin-left="0"
     fit-margin-right="0"
     fit-margin-bottom="0"
     inkscape:document-rotation="0" />
  <g
     inkscape:groupmode="layer"
     inkscape:label="Image"
     id="g893"
     transform="translate(-167.32447,-116.16134)">
    <g
       id="g897"
       transform="translate(50.115379,4.7339275)">
      <path
         id="path907"
         style="display:inline;fill:#e0e0e0;stroke-width:0.156497"
         d="m 130.11957,295.24367 c -3.2169,-15.92693 15.73053,-25.65848 16.85106,-41.32205 6.9427,-12.50977 -3.28314,-20.55389 -14.86015,-19.08912 -13.62406,-5.35189 -20.55745,-25.38379 -9.03923,-36.18854 12.23514,-14.7193 25.03675,-28.96717 38.3509,-42.71791 16.72568,-3.2099 8.2391,-25.90085 21.01237,-31.92998 26.69653,-0.0903 23.87267,-7.32601 35.56442,-8.20932 5.19487,11.07718 19.89807,-12.33886 24.2512,1.93315 0.94918,11.79023 -3.88556,31.71488 15.31898,29.79637 21.55478,-0.45267 43.31737,-0.51241 64.65662,3.03627 16.56715,13.98288 21.74746,36.68167 36.7949,52.06166 11.98948,13.18869 26.33739,25.90416 30.13604,44.15644 3.67098,13.0683 8.05968,26.18476 16.45106,37.0628 9.05489,16.63943 -20.15871,9.52358 -23.21507,-0.81517 -6.84456,-14.66723 -20.75801,-26.74003 -37.68082,-19.55845 -48.27607,5.37888 -96.87851,-0.52452 -145.13362,-3.42695 -11.77238,-1.85994 -26.98625,-3.87736 -32.5004,9.49782 -8.53407,12.22362 -19.26444,30.04004 -36.95826,25.71298 z m 80.4036,-147.90897 c 11.46227,7.84818 32.83495,-11.94639 13.47908,-15.42179 -5.10969,0.157 -22.5519,10.77191 -13.47908,15.42179 z"
         sodipodi:nodetypes="ccccccccccccccccccccc" />
      <path
         id="path905"
         style="display:inline;fill:#b4b7b4;stroke-width:0.156497"
         d="m 138.21914,294.99182 c -18.02351,-1.20474 0.50465,-20.99813 4.52225,-28.89338 4.6816,-8.71336 13.97214,-26.13938 0.0158,-30.78896 -14.93445,1.35816 -31.07778,-15.02673 -22.80526,-29.62441 9.32739,-15.39987 22.73432,-27.75734 34.20781,-41.47037 9.00644,-8.13664 22.83915,-16.39266 20.4998,-30.51923 3.93747,-16.82819 27.24242,-7.08116 36.86296,-17.81854 7.13383,10.50444 16.02853,-0.012 23.76377,-3.94393 14.38048,5.3504 -2.13992,30.6608 15.02495,35.4095 11.85516,0.64792 23.75278,-0.47017 35.6774,0.64288 11.78935,0.4984 24.10278,-0.17594 35.39223,3.47605 18.42016,29.30514 43.16685,59.8976 63.78759,84.84534 5.63774,14.00023 6.98432,30.02386 16.91167,42.01425 9.4013,8.83339 -0.0611,19.91043 -10.23503,12.94439 -11.82133,-6.16284 -14.59515,-20.84517 -24.91158,-28.63703 -15.82169,-3.52725 -31.62044,3.39779 -47.59856,2.18463 -43.01309,1.59869 -85.87703,-3.08433 -128.72472,-6.06983 -12.01945,-4.3269 -22.8091,4.03045 -27.66285,14.64236 -5.74697,8.96071 -12.79216,21.42707 -24.72825,21.60628 z m 7.17921,-3.00329 c 12.82749,-9.58637 18.62833,-25.04964 27.33319,-37.92855 13.16217,-0.78212 25.80053,5.26491 39.12052,3.72723 22.05577,-1.42136 57.10861,7.6215 71.25258,1.42412 21.92745,5.63018 30.4393,-4.74161 52.51207,2.10431 13.65791,2.1223 24.33699,-7.76259 34.12629,-13.74493 -7.74911,-14.31773 -14.67975,17.42319 -25.75107,8.08577 -6.79262,-10.28468 8.47154,-7.64612 6.82371,-5.57587 5.1179,-2.21529 9.98805,0.29232 4.27469,-7.35655 -4.25645,-3.08439 -6.85089,5.08787 -12.0841,-0.36276 -13.20242,-5.02054 -0.43356,22.99627 -7.64814,10.41203 1.34869,-3.22674 -2.41226,-12.50738 -4.09713,-4.62096 -5.36417,-10.05705 -20.51642,-2.44403 -26.21304,-6.13691 -3.91936,1.02055 -8.16662,-5.53332 -9.40377,2.52161 -2.98288,-5.30989 -8.60827,1.72827 -7.75524,-1.99552 -6.15453,23.82538 -1.05601,-14.4243 -6.96731,2.83876 -4.878,-9.70097 -17.81882,8.53407 -26.10897,0.56511 -1.67014,-4.05337 0.41913,6.80687 -6.08914,3.33175 -7.98314,0.17584 -14.08406,-4.76884 -15.90454,-8.46115 -12.83749,-1.92903 -25.36215,2.4776 -38.04417,2.83812 -11.72469,-5.22342 -14.11732,-21.63619 -24.52144,-29.9072 -5.28594,-5.21295 -4.43674,-5.58209 -3.25143,1.2239 -4.73353,6.47631 -7.6753,13.37438 -3.43009,17.1261 1.74487,6.18659 12.55701,-2.13868 5.7671,7.96855 -6.22983,4.91148 -13.05707,4.71495 -14.52638,14.57503 -4.35537,11.63356 -8.4347,23.6076 -15.15222,34.03722 -0.37273,2.95616 3.33486,4.62043 5.73803,3.31079 z m 18.25022,-51.51656 c -1.62002,-4.64278 -3.19529,4.26196 0,0 z m -7.27351,-0.75882 c -0.41826,-8.57794 -8.96606,0.70103 0,0 z m -21.75311,-6.33289 c -0.7844,-3.50326 -3.02469,1.08009 0,0 z m 56.49774,-1.8062 c 1.09617,-2.76428 1.11507,-18.66079 -1.41342,-9.21145 -11.03635,-11.78324 -12.35681,-4.48531 1.41342,9.21145 z m -39.38636,-1.0911 c 1.61843,-6.33562 -2.71948,1.28789 0,0 z m -10.32414,0.11738 c -0.8787,-2.94313 -2.22857,2.16094 0,0 z m 207.95071,-0.0782 c 11.56869,-7.07415 -10.85642,-8.64461 -15.57607,-11.33718 -8.94857,-0.80784 5.12914,12.33807 11.16271,10.79017 1.45849,0.26964 2.93279,0.45619 4.41336,0.54701 z m -219.87269,-1.40848 c 2.91778,-4.82518 -4.30835,0.96872 0,0 z m 27.42643,-0.0865 c -0.005,-3.42124 -1.91413,2.21879 0,0 z m -18.64959,-2.3007 c 18.6424,2.67283 8.24324,-33.55534 -5.17426,-19.84733 -0.92515,2.94271 -4.5997,6.35668 -3.1212,0.78428 -11.05346,5.42086 3.08033,21.59441 8.29546,19.06305 z m -10.83547,-12.35237 c -2.17134,-3.08309 2.47587,-2.30517 0,0 z m 4.06924,-2.97286 c 1.05501,-4.96275 5.71647,-1.40432 0,0 z m 90.18937,11.04982 c 4.27878,-10.16011 22.91904,-13.80225 17.67285,-27.28156 -5.34332,-7.35923 -8.74264,11.41163 -9.48177,0.44882 -3.6782,-7.11675 -9.07575,8.36608 -8.69415,-3.72502 2.95446,-10.23033 -6.53133,-22.42099 8.07635,-27.12236 11.14701,-1.86941 17.25736,-18.73359 8.17168,-24.53063 -1.24819,11.58138 -11.75688,17.52104 -20.76883,22.97408 -12.65801,8.34041 -5.50026,25.03784 -7.58471,37.52395 -0.49298,9.53982 -2.05584,22.71693 12.60858,21.71272 z m 0.3328,-9.66138 c -5.08274,0.24243 -3.91931,-5.53105 0,0 z m -5.44565,-46.88784 c -0.32889,-2.95606 3.02154,0.81696 0,0 z m -91.60836,56.39041 c -0.28031,-2.96554 -2.45894,1.77687 0,0 z m 67.91071,-8.95374 c -9.82167,-14.381 -23.31825,-8.85562 0,0 z m -38.10572,1.26028 c 2.71661,-3.52826 -2.9646,-1.46153 0,0 z m 8.8848,-0.2463 c 0.37555,-7.54188 -6.21577,0.4632 0,0 z m 142.92535,-0.80249 c 5.94436,-3.71173 -10.55413,-7.76535 -12.24195,-9.04698 -11.16125,2.92253 -4.45928,10.33773 3.67543,6.69911 2.95894,-0.42346 6.68864,-0.46634 8.56652,2.34787 z m -184.79195,-1.22068 c 1.48756,-3.06439 -2.64003,1.13414 0,0 z m 51.25696,-0.74336 c 2.98811,-4.13433 -3.76531,-3.92452 0,0 z m 26.85966,-0.253 c 6.12118,-16.26804 -11.8845,-24.67709 -16.43539,-36.961 -6.74813,-13.74825 -21.5921,-9.37066 -29.22544,9.6e-4 -11.18213,1.09099 -14.95913,16.65164 -1.11767,14.86026 0.0549,-5.72102 -8.446,-8.47187 1.2337,-6.17333 11.6653,-2.03881 27.10081,0.0923 27.68506,14.15765 5.65629,5.05864 14.736,6.47465 17.85974,14.11546 z M 160.14108,178.3496 c 4.23164,-8.10663 8.17637,-0.2156 0,0 z m 7.91911,-1.96251 c -1.81494,-3.00481 3.3592,-1.22855 0,0 z m -10.96854,30.14896 c 10.10828,-6.87331 -12.10874,-8.77149 -1.83626,-1.51552 0.49789,0.52028 0.25888,6.04382 1.83626,1.51552 z m 15.70194,-4.81846 c 3.46789,-9.44021 -8.05262,-0.53407 -0.20826,4.67229 z m 104.19997,0.43938 c 3.8437,-4.60752 -4.87106,2.0953 0,0 z m 8.13806,-0.34418 c -0.56517,-3.17289 -1.88962,2.66515 0,0 z m -17.22814,-0.0471 c 7.21093,0.18434 -5.71835,-2.91224 0,0 z m 43.55267,-0.18228 c 2.91692,-4.5521 -9.09254,-10.11365 -4.31582,-2.93977 -6.59834,-1.75615 -9.14473,1.57695 -0.91803,2.53421 1.72001,0.33723 3.47494,0.56777 5.23385,0.40556 z m -26.65813,-3.09193 c -5.8465,-4.74041 10.43762,-6.3787 0.48002,-10.36858 -7.18984,-5.2793 -5.83337,10.59167 -0.48002,10.36858 z m 33.1375,-0.69109 c 3.45459,-2.63969 -2.20715,-2.1732 0,0 z m -47.78696,-1.66856 c 12.27204,-9.84394 -15.85579,-3.67596 -0.85635,0.31767 l 0.64048,-0.23759 z m 55.94419,-0.062 c 7.83716,-5.5316 -11.65263,-13.38299 -3.95714,-1.90314 0.81971,1.30161 2.39986,2.16132 3.95714,1.90314 z m -10.59129,0.10897 c 3.11227,-2.81657 -3.24255,-1.392 0,0 z m -14.88765,-0.53499 c 3.3237,-6.72326 -5.57586,-1.69715 0,0 z m -143.03788,-0.47584 c -1.75974,-9.69245 -10.514,3.0382 0,0 z m 14.41756,0.38484 c 0.87615,-3.69516 -3.85481,0.89755 0,0 z m 122.03539,-1.18156 c 0.83952,-5.40523 -5.1135,-4.38227 0,0 z m -36.93144,0.19256 c 4.86578,-8.62974 -12.08593,-8.52853 -2.20339,-0.82556 0.68083,0.51355 1.39291,0.6574 2.20339,0.82556 z m -33.05356,-0.5838 c 4.73774,-4.17069 -2.2197,-6.17826 0,0 z m -86.66281,-0.0696 c 5.76552,-4.35663 -4.44441,-0.29292 0,0 z m 112.1881,0.0665 c -2.23547,-5.11273 -6.16791,1.50339 0,0 z m 66.78479,-2.00156 c 0.92087,-3.31626 -2.73583,1.07683 0,0 z m -83.95759,-2.0396 c -0.0936,-9.07576 -7.41852,-0.0942 0,0 z m 68.16339,-0.11167 c 0.98701,-5.09314 -4.40696,-5.4788 0,0 z m -60.88747,-0.94994 c 8.39003,-9.45106 -13.44526,3.16093 0,0 z m 66.62688,-0.76281 c 1.392,-6.36302 -2.93823,-0.23717 0,0 z m -14.11068,-0.50989 c 0.8488,-3.90632 -2.90358,0.78201 0,0 z m -16.00962,-2.87998 c -0.36413,-6.64217 -1.86516,4.19724 0,0 z m -76.52681,0.28106 c 1.6726,-4.27991 -5.09536,-0.55851 0,0 z m 3.33387,-1.50785 c 5.35212,-4.06675 -3.39559,-12.06643 -0.35111,-3.01684 -0.26942,0.0462 -1.81819,4.45719 0.35111,3.01684 z m 76.63071,0.28877 c 1.62519,-3.35479 -3.73795,0.99412 0,0 z m 11.74362,-0.81874 c 1.23768,-9.22459 -7.47696,-3.3211 0,0 z m -65.12592,-0.93043 c 10.43358,-3.03405 -7.43224,-16.62047 -2.90056,-4.1553 0.67368,1.43924 1.14116,3.55405 2.90056,4.1553 z m 10.05307,-0.85473 c 17.03942,-2.96364 -10.29632,-15.99844 -1.26813,0.0168 0.27,0.58398 0.84592,-0.0131 1.26813,-0.0168 z m 61.40466,0.4365 c 5.17133,-5.93664 -11.30327,-14.93741 -3.29916,-4.73945 0.47798,1.86729 1.26716,4.06453 3.29916,4.73945 z M 197.63601,181.4152 c 0.25506,-5.07544 -5.81301,-4.7669 0,0 z m 82.93672,-1.14182 c 0.88242,-6.36712 -2.71836,1.1305 0,0 z m -27.3011,-0.38369 c 7.73858,-11.37073 -11.90553,-2.66072 0,0 z m -65.54299,0.54083 c 14.54483,-3.46783 -12.771,-24.90381 -1.93258,-7.49194 0.79389,2.46188 0.98825,5.07209 1.93258,7.49194 z m 98.13398,-0.90757 c 0.48073,-4.75453 -4.26758,-4.99495 0,0 z m 22.87653,-0.0929 c 8.90119,-4.71668 -2.68413,-10.42076 0,0 z M 200.64234,179.0345 c 3.3166,-7.78557 -7.07498,-9.84087 -1.25078,-1.63694 z m 65.37474,-0.37518 c 9.75432,2.47251 7.97159,-18.92321 0.0525,-7.86057 -5.45374,0.63591 -4.48353,6.38591 -0.0525,7.86057 z m 56.3088,-0.27812 c 6.64139,-7.25147 -5.28567,-7.79514 0,0 z m 12.33867,-2.91822 c 1.26551,-4.08112 -2.6027,2.25992 0,0 z m -47.32125,-1.10356 c 2.64361,-5.50666 -5.89465,0.48821 0,0 z m -80.41963,-0.84144 c 3.01742,-7.55144 -12.2037,-10.68511 -2.18126,-3.24318 0.66511,1.10093 0.599,2.89419 2.18126,3.24318 z m 97.81328,-0.22364 c -0.28875,-6.27938 -2.17726,1.44102 0,0 z m -152.69417,-0.90658 c 5.20503,-1.48821 -0.92414,-3.01687 -0.26953,0.003 z m 43.11204,-0.36534 c 0.40925,-5.15834 -4.80945,-0.38327 0,0 z m -38.99225,-0.47276 c 2.36302,-3.15958 -4.62017,3.00216 0,0 z m 93.16363,-1.592 c 1.68095,-5.33124 -3.44165,1.48309 0,0 z m 35.66404,-0.96108 c 5.47463,-7.04813 -12.30967,-13.8782 -5.30353,-3.82577 1.87185,1.08303 4.28831,1.69524 5.30353,3.82577 z m -91.62847,-0.32997 c 3.76464,-6.00729 -1.87121,-16.4628 -4.69244,-16.64023 -10.89358,4.34904 1.95144,17.33118 4.6924,16.64023 z m 73.07502,-0.35212 c 6.12309,-6.85656 -9.62479,-7.9081 -1.89278,-1.41195 z m 43.54953,-0.0341 c 6.06924,-0.47813 0.36388,-6.40147 0,0 z m 14.64361,-0.14362 c 0.62199,-6.95346 -6.75387,-1.03924 0,0 z M 294.9889,168.0207 c 0.77611,-6.26274 -6.78092,-1.73966 0,0 z m -135.18128,-0.28756 c 4.53361,-2.95256 -4.19491,0.008 0,0 z m 128.655,-0.2505 c 3.18119,-3.1128 -0.34235,-2.58363 -0.69621,0.0843 z m 10.01894,-0.23204 c 4.92,-7.06099 -11.97061,-10.84466 -2.23336,-2.88125 0.29217,1.09835 0.44144,3.24737 2.23336,2.88125 z m -46.41084,-0.71673 c 8.03186,-4.33487 -1.99009,-10.22588 -1.93489,-2.36511 l 0.69679,1.13848 z m -16.03856,-0.52481 c 7.55741,4.89342 7.50943,-13.56864 1.73048,-3.33957 0.0239,-0.0153 -4.70053,3.43558 -1.73048,3.33957 z m -76.78177,-1.18136 c 0.89111,-4.01887 -3.1031,1.46421 0,0 z m 149.68939,-0.28414 c 1.96327,-4.21974 -5.2633,-2.63722 0,0 z m -101.85961,-1.98042 c -3.66418,-8.51726 -8.63795,1.60042 0,0 z m 6.20255,-1.89089 c 5.09347,-6.15596 -5.01832,0.70755 0,0 z m -49.41782,-1.08599 c 4.86471,-2.09924 2.80079,-3.71094 0,0 z m 34.02309,-7.43336 c 12.46969,-0.79181 1.31468,-20.43538 -6.93426,-14.61426 -2.36024,4.77299 0.93276,14.46756 6.93426,14.61426 z m 12.21011,-2.55898 c 12.07926,7.83265 34.48505,-13.94294 14.16134,-17.87672 -5.81816,1.39291 -21.98897,10.18052 -14.16134,17.87672 z m -3.15845,-15.1154 c 6.73384,-3.19715 -4.36879,-1.38539 0,0 z m -7.1788,-0.1331 c 6.24362,-2.63371 -3.92216,-0.0639 0,0 z m 35.87931,-3.65162 c 5.7732,-12.4788 -11.10507,1.76304 0,0 z m -15.95551,-1.45648 c 16.77462,-9.35359 0.29834,-13.74159 0,0 z"
         sodipodi:nodetypes="scccccccccccccccccssccccccccccccccccccccccccccccccccccccccccccccccccccccccccccccccccccccccccccccccccccccccccccccccccccccccccccccccccccccccccccccccccccccccccccccccccccccccccccccccccccccccccccccccccccccccccccccccccccccccccccccccccccccccccccccccccccccccccccccccccccccccccccccccccccccccccccccc" />
      <path
         id="path903"
         style="display:inline;fill:#969896;stroke-width:0.156497"
         d="m 151.01475,239.95136 c -2.99017,-10.20429 -18.14632,0.029 -23.38432,-10.6099 -2.91453,-6.95331 -15.76826,-12.41161 -7.91669,-22.22932 5.85197,-8.45793 14.39852,-19.99095 21.02644,-25.17284 -0.0329,8.32351 14.09543,13.84841 14.17119,4.15805 -7.49102,-9.18179 7.74357,3.7344 11.92275,-3.09351 6.05309,-5.0442 10.17125,7.52363 10.16611,3.13682 -1.43943,14.5657 18.56796,13.64405 20.55356,26.03216 11.0506,-10.3767 -1.46808,-26.14402 -11.92727,-30.43098 -2.63116,-6.25783 -3.39908,-15.90129 -11.1797,-15.18819 -31.32096,-9.8501 3.02589,-8.11464 0.1182,-29.23294 -0.58393,-17.49196 17.64043,-12.98763 28.70834,-16.51724 6.29855,-2.93515 14.05178,-10.17063 17.63637,-0.23123 5.38369,-6.34707 22.64046,-15.37871 20.28949,0.6398 0.042,10.86193 -1.34996,30.78021 15.43134,25.97797 30.2542,3.13728 63.48526,-8.90012 77.54672,22.70376 1.94255,4.00152 0.50551,-6.93642 4.01808,2.41057 2.94953,6.93377 -0.34231,3.64994 5.74324,9.26347 5.72613,7.43431 4.73116,13.41344 11.96091,18.19641 7.07941,9.67532 16.13982,17.44886 23.81129,26.85365 7.87067,10.67514 9.7761,24.55638 13.28954,37.11337 0.40403,0.89881 -6.21672,-6.05281 -2.52847,1.79538 5.17001,8.24871 10.4699,11.83038 13.66431,21.35934 -5.99454,-13.78507 11.29131,6.97318 -1.763,6.44949 -17.48436,-0.54881 -24.3662,-18.7478 -33.71143,-30.14575 -12.1927,-4.24858 -25.42441,1.14515 -38.01369,0.94227 -22.65846,1.79051 -45.41871,-0.12693 -68.10821,-0.10744 -15.10839,-3.7131 14.58106,-1.61517 20.56345,-1.64848 21.82162,0.01 43.82185,2.39314 65.43028,-1.87768 8.95213,-0.42838 21.6281,-4.6417 25.97279,6.11339 6.2604,7.80516 14.03551,28.98633 25.41206,21.66399 -2.16714,-5.78906 -6.82712,-11.72153 -11.11239,-14.05115 -1.15592,-12.03952 -12.02458,-22.32279 -7.99884,-35.13507 -0.80112,-8.37621 -8.1258,3.72381 -9.7081,-2.66857 -6.92976,0.27182 1.88471,6.47495 -6.1645,2.95503 -5.55996,-1.44289 -8.43081,2.66793 -3.88195,-4.66618 -0.55425,-8.4054 -12.58624,4.46762 -17.7892,-3.15926 -6.87905,-5.89692 -17.47905,-4.74814 -9.13583,5.04103 0.78491,8.58722 -7.14169,3.06136 -1.55288,-2.17107 -4.08966,-4.28009 -11.35029,-3.91804 -3.10593,1.03501 -1.73238,0.27453 -6.62373,8.31393 -4.19932,1.14537 -5.781,0.51606 -16.27841,-3.06364 -8.46435,3.44661 -7.93632,0.86489 -11.97819,-7.03586 -21.126,-4.51788 -5.75928,-2.59255 5.29808,5.14929 -4.12454,3.42152 -10.04823,0.14995 -20.42572,-2.49273 -25.71155,6.3021 -7.94158,-0.63705 -16.33271,-1.38631 -23.73337,0.75473 -4.58307,-3.57379 2.07574,-4.43198 -5.64722,-5.78148 -3.51492,-0.64412 -7.61802,-6.0106 -7.87214,-2.74246 -6.84852,-6.76521 -11.89087,-16.56459 0.15879,-20.46409 8.20175,-7.55701 23.76425,-17.27982 6.75916,-24.91707 -10.67813,3.91575 -18.32996,-13.53469 -12.88689,-21.86626 -4.81737,5.80024 6.70956,17.93327 8.8155,6.59363 -1.04905,-4.553 -8.76951,-10.90256 1.30008,-12.26106 9.98192,-5.04885 13.30548,-20.20179 5.74031,-28.33948 -7.01173,11.78261 -4.61759,-11.70681 -14.85133,-4.68448 -8.11263,2.36933 -26.5548,14.22456 -10.60904,19.69758 5.25766,3.16603 22.9689,-4.70662 8.31474,-2.69369 -5.54811,0.22988 -13.50263,-0.43584 -3.73493,-1.43514 5.56298,-1.62401 18.01558,5.06952 16.55843,-5.38993 2.27064,14.18907 -14.49785,18.39527 -24.0499,23.18219 -2.54119,9.54597 0.98016,19.81472 -2.36615,29.43127 4.81398,10.41745 -5.3316,22.77696 7.6472,29.34886 6.55913,6.70488 -1.18846,5.32074 -4.67273,0.9537 -4.21327,4.26239 -7.348,14.4817 -16.77705,12.36486 -3.99929,5.45488 5.22645,-14.12941 -0.81469,-3.71037 -9.01956,10.52161 1.57858,-11.02813 0.0157,-15.66796 2.72099,-13.05967 -17.00946,-10.95747 -17.33404,-23.96445 -3.21177,-7.13278 -9.25047,-10.08285 -15.11889,-6.65576 0.9872,10.08871 5.8403,20.38234 4.18548,30.95331 -7.77169,1.45827 -6.28016,23.75538 4.19293,15.34107 8.77285,4.75931 -10.58136,9.24527 -11.95805,13.42197 -4.16564,11.98991 -6.63238,24.76826 -15.49242,34.51195 -8.7502,7.21801 1.22634,17.08682 7.67992,7.14824 12.27747,-8.04988 14.83155,-25.98483 25.72295,-33.26203 10.87173,2.39781 22.31588,1.77492 32.93743,4.14012 -12.41767,4.69609 -30.65573,-9.31132 -38.56281,5.14099 -8.63302,11.08336 -15.47324,27.79514 -30.59693,30.58633 -22.38815,-12.22945 14.04332,-3.31673 12.22166,-55.03697 z m -14.41653,46.45515 c -0.14934,-3.32907 -2.45,1.93203 0,0 z m 3.672,-7.50065 c 4.41585,-2.03475 0.12865,-3.96157 0,0 z m 8.67951,-13.53316 c 0.49916,-2.66683 -2.24457,1.22029 0,0 z m 238.11897,-6.33762 c 2.47673,-3.66217 -3.97574,0.81474 0,0 z m -1.26868,-3.24794 c 4.09151,-5.58099 -5.48909,2.08325 0,0 z m -232.43688,-2.65119 c 2.30818,-4.17417 -3.38263,-0.92519 0,0 z m 231.77607,-0.2045 c 4.02615,-4.19952 -3.3387,0.9446 0,0 z m 2.17837,-1.04748 c 0.78985,-4.12508 -3.44889,-3.19298 0,0 z m -1.30585,-4.59216 c 1.56782,-5.76097 -3.28634,-3.84302 0,0 z M 266.8342,236.85043 c 17.56303,2.02874 30.33693,-3.98003 3.60779,-3.46168 -0.75278,0.55724 -5.53993,1.7083 -3.60779,3.46168 z m 43.84714,-0.63615 c -1.61406,-3.42899 -1.85693,2.55602 0,0 z m 57.39869,0.24103 c 2.49034,-3.89985 -5.12668,-22.13674 1.27187,-13.88236 0.37113,11.11116 8.04433,-6.59062 -1.70782,-5.60639 -10.68613,1.11007 -4.6332,-14.3141 -16.15222,-9.05765 -5.62145,-1.13265 -6.46284,3.048 -11.05928,-1.52747 -8.02148,2.29064 -0.002,4.73011 1.06636,8.21283 2.57962,-2.85511 12.52052,-3.42336 6.15987,-0.31056 -8.2141,0.41046 3.13755,10.04162 2.32344,3.78878 2.87483,4.88315 19.969,6.93053 10.72033,9.25231 -1.26359,3.38888 3.34594,10.38882 7.37745,9.13051 z m -1.64967,-2.14653 c -2.93577,-5.03852 -1.74187,-8.555 0.90396,-1.43331 0.3525,0.51146 -0.10625,1.82088 -0.90396,1.43331 z m -8.89168,-12.99831 c -3.20844,-9.44286 9.38362,2.53974 0,0 z m -1.3531,-5.02383 c -4.53616,-2.6498 1.72732,-2.62837 0,0 z m 2.48186,-5.60569 c -3.6813,-3.83549 2.61777,-4.8677 0,0 z m -16.48829,-0.26875 c -2.72773,-3.47438 2.85541,0.42094 0,0 z m 8.52823,-0.73186 c -3.76387,-1.19644 6.70619,-2.46535 0,0 z m 28.14474,25.58992 c 0.87915,-3.83532 -2.76607,0.36371 0,0 z m 2.12783,-1.26686 c 0.14433,-4.09657 -10.16485,-12.44512 -5.94391,-4.29707 -10.08843,7.37661 7.53943,-2.11662 5.94391,4.29707 z m -65.15429,-0.60102 c 1.39046,-3.0564 -2.9868,0.83972 0,0 z m 5.46091,-0.61107 c 4.37344,-5.50424 -3.06191,-0.48046 0,0 z m -1.68488,-0.59949 c -1.6459,-3.91104 -3.50673,3.13496 0,0 z m -163.22663,7.52133 c 0.92377,-4.3394 -3.68168,-21.05873 -5.57659,-11.79051 0.0566,0.52435 -4.4713,9.84485 5.57659,11.79051 z m 133.44974,-7.99162 c 1.9399,-5.41208 -9.59369,0.84615 0,0 z m -141.47585,-6.70857 c 1.25956,-5.28703 10.52011,-16.92703 3.35011,-11.95951 -2.07087,-5.31641 -6.06817,-18.71075 -17.12152,-11.29073 -10.82686,4.48985 -11.57516,20.89611 -1.10391,26.08777 9.05771,3.93953 13.9029,0.0155 14.87532,-2.83753 z m 201.28642,5.61196 c 14.26163,-2.04133 -4.6355,-13.77154 -11.24605,-10.23603 -5.89754,-2.84005 5.48602,-2.10493 -2.55365,-4.9061 -15.99206,-0.95667 -2.30183,13.69938 6.25489,14.33703 2.38882,0.75114 5.04752,1.6112 7.54481,0.8051 z m -192.28521,-1.12006 c -0.43543,-4.67133 -2.55712,2.34478 0,0 z m -27.44387,-0.0391 c 2.90723,-5.70838 -6.07349,1.43456 0,0 z m 26.1949,-11.30432 c 1.80646,-5.03521 -4.09639,2.18975 0,0 z m 164.56701,-2.82635 c -4.26988,-5.08424 -7.34594,2.58546 0,0 z m 2.97112,0.0928 c 8.04041,-3.33241 -6.99337,-4.01097 0,0 z M 164.39169,214.8402 c -1.47028,-8.66118 -7.14474,0.99037 0,0 z m 147.61988,0.23015 c -1.27873,-7.12397 -13.97814,-7.33025 -17.49188,-14.19571 -2.49271,3.33905 0.0809,8.02363 -5.89497,4.274 -10.01308,6.89406 4.96298,9.02948 10.44809,6.65334 4.44789,0.47623 8.67392,2.01438 12.93876,3.26837 z m 20.96821,-1.79798 c 8.86858,-9.01814 -21.06931,-4.27323 -4.44971,-1.16547 5.59031,-3.61012 -3.87103,4.06883 4.44971,1.16547 z m -210.94817,-0.85879 c 0.76674,-4.59255 -3.68011,2.11378 0,0 z m 191.91823,-0.69588 c 0.68095,-2.97239 -3.35383,0.14895 0,0 z m 7.65536,-1.21174 c 1.86658,-5.9654 -5.63903,3.34137 0,0 z m -3.70171,-0.69308 c 0.57873,-2.21814 -3.12068,0.95339 0,0 z m -2.82994,-1.08853 c 1.11089,-3.40322 -3.56522,1.1773 0,0 z m 10.67824,0.0175 c 2.56107,-3.63438 -3.87033,0.0625 0,0 z m -169.42127,-0.6771 c 11.42493,-4.40013 -2.48377,-23.87941 -4.06341,-14.35179 -2.04128,6.01861 -0.10364,10.32784 3.6617,12.62778 -1.88364,2.31255 -0.49088,1.80286 0.40171,1.72401 z m -30.8801,-2.8152 c 1.40038,-5.6502 -3.25873,3.52893 0,0 z M 316.7565,205.0929 c -3.97972,-3.67157 -6.9623,1.44622 0,0 z m 5.51592,0.032 c 0.11467,-2.36585 -3.25079,1.30004 0,0 z m -15.90984,-0.38135 c 13.07486,0.28741 -5.60468,-25.0426 -0.89662,-13.86283 1.01833,7.03196 -5.28946,9.17764 -3.73262,1.12495 -4.34903,-19.21463 -5.32961,14.38869 4.62924,12.73788 z m -0.43808,-6.52322 c -0.32809,-3.19425 2.36407,1.96962 0,0 z m 27.37487,6.59032 c -1.47244,-5.20383 -6.52318,0.85439 0,0 z m 5.5952,-1.16997 c 3.45382,-3.40676 -5.33906,1.25373 0,0 z m -20.33756,-0.13837 c -1.68608,-5.70554 -6.83117,-0.8348 0,0 z m -48.99899,-0.54644 c 9.51344,-2.49079 -9.94204,-3.35413 0,0 z m 8.67342,-0.50888 c -2.09187,-5.83239 -6.52577,3.03544 0,0 z m 69.22676,1.04296 c -2.05934,-2.40051 -4.66334,0.68125 0,0 z m -22.8799,-0.42527 c 1.17399,-4.39723 -4.02304,1.08379 0,0 z m -39.45173,-0.44813 c 6.95325,-1.6953 -6.89404,-1.08717 0,0 z m 53.41017,-1.08348 c -0.73771,-2.35922 -2.70209,1.88669 0,0 z m 14.82935,-0.57536 c 1.16711,-3.46877 -3.48687,-4.80754 0,0 z m -223.11427,0.0194 c 2.83553,-3.70439 -6.66124,3.36523 0,0 z m 203.40201,0.22072 c -0.94955,-2.48194 -3.15622,1.37674 0,0 z m -53.54294,-0.88249 c 2.21011,-3.3822 -3.40324,-0.0793 0,0 z m 69.17606,-1.00263 c 1.54354,-3.63185 -3.54505,1.12316 0,0 z m -32.0884,-0.26388 c 2.28741,-4.09042 -4.32385,-1.57654 -0.28195,-8.56711 -0.91327,-10.93469 -6.05129,9.84526 0.28195,8.56711 z m -46.84426,-0.80432 c 7.21039,-4.04048 7.49801,-18.08812 -0.0975,-11.66316 -0.0242,4.11013 -9.15228,-4.90551 -7.04065,3.74189 0.68595,3.42311 2.89914,8.38692 7.13818,7.92127 z m 14.6349,0.26149 c -2.04544,-3.94592 8.73387,-1.21971 2.62908,-7.2241 -5.77656,-16.31105 -12.21117,5.30525 -2.62908,7.2241 z m 41.15742,-0.89953 c 11.12158,-5.09284 -9.53354,-20.85754 -4.82466,-5.72018 0.57221,2.27485 1.754,6.25168 4.82466,5.72018 z m -31.20998,-0.39199 c -1.59,-10.47774 -6.57258,-21.87335 -8.70046,-30.91027 8.98033,-3.19978 -8.45182,-16.35392 -9.75459,-4.41369 9.41086,6.75738 8.86135,17.09888 14.20349,26.63072 1.11291,3.02984 2.26068,6.10676 4.25156,8.69324 z m -8.80775,-19.0773 c -5.15,-5.14803 3.78808,-3.64585 0,0 z m 53.61485,18.86157 c 6.98085,-3.65216 -5.62303,-17.35673 -3.07945,-4.84255 -0.0646,2.01931 0.89026,4.36205 3.07945,4.84255 z m -42.45526,-0.76723 c -0.44116,-5.68235 -2.48668,2.05017 0,0 z m -38.78876,0.16739 c 6.74484,-8.50421 -11.67475,-16.52286 -5.70634,-3.77208 1.67541,1.62794 4.11968,2.02379 5.70634,3.77208 z m 88.45417,-0.27573 c -1.36391,-4.09078 -1.50056,-11.24989 -2.76944,-2.21151 0.50833,1.12423 1.59149,1.91623 2.76944,2.21151 z m -44.09672,-0.30493 c 2.84428,-5.54564 -3.34326,0.84916 0,0 z m -167.01535,-0.32444 c 11.53084,1.66275 -0.70156,-16.71278 -2.41041,-2.98128 -1.16113,1.84076 0.38756,4.08363 2.41041,2.98128 z m 98.99971,-3.21059 c 7.92543,-1.53659 10.00856,-11.15226 0.3269,-5.88262 -6.74176,-1.49028 -12.49221,0.14971 -3.06913,2.99021 2.98188,-0.25479 0.40854,3.52206 2.74223,2.89241 z m 11.40259,-3.56604 c 0.69266,-5.73368 -2.42709,2.56862 0,0 z m 66.79584,-0.87026 c 1.66867,-6.13392 -4.09583,1.71449 0,0 z m 31.79692,-1.2443 c 0.2534,-4.07391 -4.59387,-4.13169 0,0 z m -43.32179,-0.96706 c 4.66683,-5.27896 -4.11655,-1.15263 0,0 z m 29.15703,0.0503 c 2.48642,-4.17176 -2.99361,0.13638 0,0 z m -130.93235,-0.44107 c 1.2075,-6.32868 -9.24442,-11.74625 -3.09774,-2.93157 0.81675,0.84739 1.3239,3.33427 3.09774,2.93157 z m 126.98,-0.93074 c -2.2509,-4.43201 -3.59179,2.15399 0,0 z m -13.49978,-0.15408 c 7.1199,-0.35554 -7.15759,0.009 0,0 z m -110.24732,0.27387 c 6.18014,-3.69295 -4.12366,-18.93563 -0.32737,-6.01659 0.39561,1.64926 -3.36513,6.3159 0.32737,6.01659 z m 137.48509,-0.20126 c 0.94697,-7.83653 -7.67276,-1.6599 0,0 z m -77.7632,-0.58123 c 1.47984,-3.80373 -3.09906,0.24163 0,0 z m 20.39755,-1.14122 c -1.6979,-10.24983 -7.67488,-1.58433 0,0 z m -44.42154,-0.1264 c 14.03848,-1.18586 -2.5078,-22.20253 -5.68488,-6.3284 -0.545,3.16136 2.47798,6.56782 5.68488,6.3284 z m 81.46868,0.21514 c 0.85423,-2.68504 -2.86638,0.84704 0,0 z m -19.05345,-0.65714 c -0.84869,-6.74549 -14.43063,-18.53772 -7.53628,-5.6943 0.78577,3.36665 3.33172,7.82545 7.53628,5.6943 z m -48.0556,-0.59871 c 11.01567,-2.97502 -5.04908,-17.52511 -2.82916,-3.92599 -0.40965,1.72268 0.34643,4.92306 2.82916,3.92599 z m -64.94631,-0.93898 c 14.84594,-4.74752 -13.36464,-27.20023 -4.57357,-9.45649 1.39544,2.95686 0.0478,9.09033 4.57357,9.45649 z m 121.03158,-0.51861 c 10.84439,-3.3663 -1.17767,-12.8961 -2.55181,-1.63858 -0.87894,1.99989 1.27819,3.40768 2.55181,1.63858 z m -43.98599,0.21159 c 13.79262,2.36167 9.68472,-18.69353 5.47786,-17.90944 10.06188,-1.84432 -17.03293,-10.22635 -8.29276,1.81482 1.63712,8.68111 9.77255,-4.60998 7.9772,5.65239 -7.3619,0.15538 -12.0633,5.19013 -5.1623,10.44223 z m -64.49931,-0.2016 c 4.37954,-8.72876 -14.72321,-28.02685 0.6051,-27.34505 11.29239,-12.65009 -12.67283,-26.53066 -18.54633,-18.73661 7.39763,21.7789 -4.70233,13.13485 17.94123,46.08166 z m -5.60361,-9.11998 c -0.78261,-4.32857 3.26829,0.33345 0,0 z m 0.81712,-2.60949 c -1.41498,-2.8432 2.40104,-0.0152 0,0 z m 127.14841,11.52333 c 5.38688,-1.53031 2.10829,-5.94288 4.07358,-9.10057 -4.45287,-0.3104 -10.1632,6.57161 -4.07358,9.10057 z m 6.49875,-1.08791 c -0.20881,-3.31025 -2.48008,1.22026 0,0 z m -24.19064,-2.36052 c 0.84752,-9.4305 -9.50035,-0.73859 0,0 z m -98.04836,-1.97933 c 4.61303,-6.28816 -12.27653,-16.21282 -6.02174,-5.02664 3.03289,0.24947 3.67905,3.70974 6.02174,5.02664 z m 70.87809,-0.98558 c -0.57177,-3.97785 -2.00669,1.63462 0,0 z m 28.95959,-1.02396 c 0.73836,-3.87719 -2.42282,1.42938 0,0 z M 249.6915,170.3436 c 2.90654,-7.6106 -6.13266,1.35716 0,0 z m 51.47486,-0.0535 c 6.71658,-12.35749 -17.16584,-17.32714 -7.17191,-3.05207 -0.30646,-11.23154 2.80332,4.90017 7.17191,3.05207 z m 20.53687,-0.14785 c 0.70811,-2.49317 -3.45154,1.88537 0,0 z m -60.25661,-1.02815 c -0.009,-4.11603 -2.33051,-0.24299 -0.53514,0.76854 z m -30.05141,-0.2062 c -0.89635,-4.08857 -1.69163,3.03004 0,0 z m 78.84077,-0.4713 c 10.36411,-3.59917 -0.95441,-18.11605 -3.03118,-5.29145 0.0611,2.08706 0.99968,4.38176 3.03118,5.29145 z m 15.15611,-0.14198 c -1.8464,-9.81272 -7.51752,-0.53529 0,0 z m -45.00971,-0.032 c 0.0736,-3.50803 -3.16853,0.37007 0,0 z m -45.6022,-0.44258 c 0.3419,-5.66779 -5.20803,0.0349 0,0 z m 5.5096,-0.045 c 7.73388,-3.28344 2.70925,-16.77192 -2.97992,-6.57978 -4.13542,3.53383 -1.52303,6.43706 2.97992,6.57978 z m 13.66417,-0.15086 c 9.07853,-7.22149 -7.93999,-13.75662 -3.86663,-2.61608 0.49732,1.58543 2.03346,3.21001 3.86663,2.61608 z m -7.0874,-2.28318 c 3.90807,-3.80299 -3.16673,-0.5919 0,0 z m 11.25852,-1.00237 c 1.40797,-3.29114 -2.80675,0.69104 0,0 z m -50.83006,-1.50159 c 1.43243,-8.94487 -14.59246,-2.13049 -2.32525,-0.17999 0.77508,0.06 1.55017,0.11999 2.32525,0.17999 z m 5.85566,-1.83532 c 4.20041,-3.13107 -3.91359,-1.25072 0,0 z m 1.82143,-2.44041 c 0.54951,-2.65687 -3.85491,0.007 0,0 z m 106.2517,-1.01741 c -0.0143,-9.1729 -9.40345,-0.074 0,0 z m -102.12116,-0.81972 c -1.23478,-3.23859 -2.59686,2.5778 0,0 z m -9.98484,-4.02631 c -0.82848,-3.47076 -3.05146,2.23747 0,0 z m -2.26839,-13.27967 c 5.16875,-3.19369 6.83773,-9.43711 0.58807,-2.7292 -0.76736,0.35477 -3.82726,3.63705 -0.58807,2.7292 z m 30.93806,-5.34439 c 2.47309,-2.05152 -2.73703,-14.88211 -1.91297,-9.98556 -6.26129,4.72374 -2.7869,8.51974 1.91297,9.98556 z m -21.26641,-1.75994 c 4.91091,-1.99831 9.16795,-1.69281 6.67275,-5.44994 10.3993,-5.09932 -3.03951,-9.11937 -4.91764,-0.36638 0.16022,1.88443 -6.48608,6.70104 -1.75511,5.81632 z m 23.08854,-5.30643 c 2.31558,-8.25371 -3.30854,3.54675 0,0 z m -10.38534,0.34421 c 4.44609,-1.86311 13.74586,-16.12467 6.77311,-10.78887 -0.60964,4.52985 -6.20255,6.25231 -6.77311,10.78887 z m 2.26948,-6.26032 c 3.87893,-2.62394 -3.08388,0.20012 0,0 z m 0.89668,-4.93202 c 5.8245,-2.83884 -2.50606,-3.07539 0,0 z m 160.97693,172.3408 c -6.01233,-3.92968 4.98134,-6.54253 0,0 z m -10.79324,-14.03433 c -7.77457,-8.03133 11.29747,-5.44797 0,0 z M 252.69912,263.19532 c -5.60095,-1.28657 -28.96485,-1.44758 -11.37709,-3.19577 3.90186,-0.29362 8.83866,-0.41966 11.37709,3.19577 z m -25.35733,-1.73554 c -8.44118,-3.89411 9.45021,0.53743 0,0 z m -4.4772,-0.32021 c -6.43612,-1.57032 5.43613,-1.29918 0,0 z m -8.47227,-0.87734 c -5.57335,-4.82606 12.66292,1.33296 0,0 z m 33.53363,-11.80653 c -9.09425,-1.65762 7.55378,-1.06723 0,0 z m 90.80751,-8.12481 c -2.71257,-5.54117 -0.52558,-11.2628 1.02726,-2.47968 0.48909,0.7477 0.86426,3.92625 -1.02726,2.47968 z m -117.88538,-4.29674 c -1.80744,-4.93374 3.63003,0.2056 0,0 z m -9.69909,-0.50398 c -6.24583,-3.59642 18.7703,-3.41502 0,0 z m 122.76939,-4.37239 c -4.95183,-6.87748 6.14085,-1.00507 0,0 z M 230.54581,198.07151 c -3.61672,-5.14774 3.58986,-5.55878 0,0 z m -8.77394,-1.02345 c -3.00047,-5.62829 2.8438,-5.15319 0,0 z M 142.16853,179.2805 c 3.66301,-4.46491 16.19774,-20.43717 8.76267,-7.13972 2.63808,3.88509 11.22623,-4.0941 3.62466,1.67481 -3.85278,2.3868 -8.10748,4.02584 -12.38733,5.46491 z"
         sodipodi:nodetypes="cccccccccccccccccccccccccccccccccccccccccccccccccccccccccccccccccccccccccccccccccccccccccccccccccccccccccccccccccccccccccccccccccccccccccccccccccccccccccccccccccccccccccccccccccccccccccccccccccccccccccccccccccccccccccccccccccccccccccccccccccccccccccccccccccccccccccccccccccccccccccccccccccccccccccccccccccccccccccccccccccccccccccccccccccccccccccccccccccccccccccccccccccccccccccccccccccccccccccccccccccccccccccccccccccccccccccccccccc" />
      <path
         id="path901"
         style="display:inline;fill:#373b41;stroke-width:0.156497"
         d="m 140.35457,294.62387 c -10.01495,-1.72078 10.65003,-1.86 0.48996,0.15503 z m -8.8642,-0.72039 c 0.74555,-1.99797 18.50607,-36.59218 11.09778,-14.30299 -4.23985,3.32855 -6.45544,15.23502 -11.09778,14.30299 z m 261.38823,-1.29389 c -0.53668,-4.94332 13.07297,0.89513 2.09253,-0.16974 -0.69794,0.0578 -1.39258,0.61324 -2.09253,0.16974 z m 10.90771,-0.68719 c -7.74295,-3.30692 -1.74144,-9.6242 2.29593,-2.77311 -5.74806,-10.42317 5.93388,2.66563 -0.64536,3.27695 z M 146.8952,290.9949 c 12.22804,-16.47065 21.85466,-20.7942 0,0 z m 243.13025,-1.27772 c -10.06049,-7.77082 -15.38706,-22.26283 -24.30964,-28.72438 -7.29207,0.78945 -7.52575,-0.28413 -0.38997,-1.56448 10.2462,3.31337 11.15261,18.06064 20.41517,23.98206 1.54311,1.98329 3.56077,3.81876 4.28444,6.3068 z m 7.4405,-5.97937 c -6.55009,-11.49358 -14.86182,-22.44123 -16.69178,-35.86002 -2.4551,-5.36862 1.52154,-9.15904 2.09395,-10.06669 2.25812,-7.83974 -12.5041,-16.17287 -11.03335,-18.67379 9.00758,7.02374 15.28001,17.99777 16.16682,29.42022 -0.008,9.30939 -3.14401,-14.26058 -3.13441,-0.68169 -0.67067,7.68694 -0.34481,8.04503 2.6509,5.93004 -0.35207,8.95889 6.28456,17.75594 11.93875,23.83099 -3.89497,-2.32192 -7.89523,-7.63806 -3.8236,0.57705 0.90492,2.83456 9.83079,3.90743 1.83272,5.52389 z m -13.57457,-41.4778 c -0.848,-3.46312 -1.73224,2.4527 0,0 z m -243.8442,35.0678 c -0.35016,-3.49404 2.2928,0.20282 0,0 z m 5.9242,-3.70802 c -0.0397,-8.92678 3.54751,-15.19373 7.99248,-23.56591 -5.93336,2.79553 6.36,-16.05859 -3.57634,-17.3319 5.44413,-1.35423 7.96243,-7.57245 5.2309,-20.09878 -4.93383,-8.74943 -14.13011,-19.73419 -24.37203,-9.56589 -8.09909,6.72443 -7.54333,21.07613 2.67422,25.56447 6.47126,5.86051 -2.09518,2.04072 -4.30517,-0.35154 -2.04978,6.78197 -7.02596,-20.72247 -7.11018,-6.28949 -7.42225,-6.296 0.84712,-23.39857 9.40721,-29.7729 6.05211,-6.74758 -10.09607,13.97182 -1.07446,7.34622 -3.81966,-1.93953 5.83311,-5.29996 4.17749,-1.8703 3.24347,-5.73002 15.34623,4.06366 12.73734,-6.50934 8.25831,-3.67841 5.6169,-1.53752 2.75565,2.68148 6.47625,-0.76315 -7.62503,10.56193 0.37501,7.32844 1.7085,5.64285 7.23468,10.1877 10.35657,0.48549 0.6406,-5.73146 -8.71267,-20.21644 -7.6747,-18.98256 9.05512,2.56918 22.26166,-5.33613 25.43892,10.46042 5.03942,9.7603 15.31692,10.36299 18.8095,19.18879 4.42386,8.14019 2.78908,-10.93299 4.28766,-14.815 -1.25569,-7.4517 -10.76127,-8.44136 -12.1278,-16.13945 -3.57075,5.68305 -7.63219,-6.71813 -1.63519,-0.90707 7.0447,-11.77189 9.25233,13.71671 16.12105,1.55365 2.89533,-4.90469 -4.55853,-13.77916 3.17818,-7.88113 5.66083,2.80621 -2.56662,18.62804 0.80421,25.75939 0.36863,9.2106 0.77899,18.88248 -1.09684,27.86509 -2.90129,7.70188 -11.39669,10.36983 -12.3436,1.53475 -2.30395,4.56179 -9.63671,13.41167 -4.17463,2.13057 5.22745,-9.77288 6.07571,-25.53514 -7.69886,-28.21005 -5.84388,-6.63631 -8.99901,-26.47853 -22.85585,-16.62837 -0.62832,6.48093 4.33915,14.40522 2.60605,19.53621 4.04173,6.54116 2.93739,12.44382 -3.38141,14.57801 0.56056,28.13623 -6.29248,22.831 -7.20486,40.37532 -1.86812,3.95615 -3.17714,9.9897 -6.32052,12.53138 z m 49.94568,-50.37482 c 4.3857,-1.73603 4.46005,-10.8013 0.72008,-6.29929 -0.12955,2.05973 -1.56111,4.21216 -0.72008,6.29929 z m -74.88949,-5.1644 c 4.10361,-21.70213 -1.39837,-4.35417 0,0 z m 37.92188,-1.94488 c 11.98232,10e-4 -0.33763,-9.36771 0,0 z m -33.3892,-9.42109 c 3.3548,-8.19269 -5.78915,-1.18114 0,0 z m 38.8962,64.1799 c 1.42243,-5.61851 9.69384,-13.75819 3.11155,-4.13066 -0.91432,1.44086 -1.52797,3.24234 -3.11155,4.13066 z m 229.2585,-4.92578 c -4.42371,-4.19897 -4.96428,-18.08645 -1.1436,-5.29579 0.10611,1.03344 3.36121,5.59359 1.1436,5.29579 z m -76.18527,-0.95355 c -11.98764,-2.20249 15.66086,-1.57908 0,0 z m -14.67935,-0.0969 c -7.20737,-2.28846 -27.00663,1.19728 -26.70619,-2.18817 10.65098,0.47583 21.97907,-0.68702 32.23634,1.21135 -1.5333,1.16618 -3.73544,1.09168 -5.53015,0.97682 z m 20.67385,-0.61704 c 5.21713,-3.09343 17.97074,-1.05474 5.00055,-0.23294 -1.66701,0.0631 -3.3515,-0.11338 -5.00055,0.23294 z m 19.81431,-1.7682 c 3.95137,-4.03812 19.9545,-0.25142 5.69901,-0.51194 -1.82753,0.49995 -3.80255,1.20803 -5.69901,0.51194 z m -97.75147,-0.32025 c 16.26418,-1.28053 36.20706,3.079 0,0 z m -14.15796,-0.84701 c -0.16748,-2.50833 25.49135,3.96509 0,0 z m -16.48447,-0.6101 c -5.41712,-0.50689 -40.6016,-3.88371 -25.17915,-3.28949 1.53453,0.63587 28.8921,0.92687 25.17915,3.28949 z m -42.9198,-1.93576 c -3.38458,-7.21759 14.98744,0.0666 2.78948,-1.48215 -1.32772,0.0948 -1.88344,0.60785 -2.78948,1.48215 z m 75.62729,-10.67298 c -2.35014,-3.39101 5.93214,1.55099 0,0 z m 13.31706,-2.41243 c -3.67464,-5.46938 -17.39689,-1.28989 -23.55581,-8.0825 -7.67296,-0.25876 -16.08625,-11.78558 -12.2295,-15.99295 5.30926,6.71176 -0.40617,-9.22114 4.41407,-0.0544 13.96849,-23.99311 18.66802,-7.83684 19.97127,-27.62774 -2.63162,-6.17035 -19.1695,-2.59603 -3.94646,-4.41766 5.78182,-10.15944 -11.92674,-2.43202 -15.68474,-4.62775 1.33929,-6.63167 3.20703,-13.38977 -2.81763,-16.47634 3.43132,-3.78568 5.54521,-2.69353 3.66872,0.97199 3.95712,-3.51042 14.29356,-1.15248 18.38705,1.72943 -0.49289,2.16702 -3.26402,3.19588 1.35002,6.09495 -4.00141,9.41468 16.57743,4.75942 6.60157,-1.94194 -0.81804,-5.25318 5.40985,4.80565 2.35834,-3.58583 -5.08673,0.48255 -10.48755,-2.73369 -13.4256,-8.80845 -4.9396,9.46221 3.27178,-8.61915 -3.31445,-9.48713 -2.6724,-7.72236 5.165,-6.5457 10.18861,-5.49639 -10.28845,-2.03115 7.47491,9.02388 4.7416,5.00119 5.42695,1.88446 3.40918,19.48828 11.41342,16.50051 -13.54883,-0.52729 -5.18749,19.49409 5.22024,10.25135 0.0805,4.43635 -6.4088,8.72119 -9.75138,5.71176 -6.32518,6.57087 6.27259,20.33952 11.39346,8.83186 4.67099,7.07305 2.38186,-0.89051 0.16526,-5.63387 6.42834,-6.93292 -7.22519,-33.17889 3.40035,-20.32851 9.95668,0.86025 0.53258,10.78813 7.91115,14.49294 -0.10192,-1.05743 6.51122,21.29811 9.78459,13.4193 -6.15624,-8.21416 -7.73506,-23.03279 -10.53125,-29.12062 5.77624,3.82847 8.44442,17.70194 11.90695,16.47829 -2.24437,10.9107 0.71063,23.8687 14.71095,22.27274 8.61054,0.0843 2.43372,-7.2095 -2.4199,-7.28821 -4.2666,-9.98699 -10.25339,-21.13718 -17.03298,-27.49899 -6.49061,-4.84681 -4.15156,-20.47282 -16.57838,-12.31566 -1.76394,5.85102 -7.33605,-4.91231 -11.1408,-1.35288 -8.29293,-2.66888 -6.21271,-10.22302 -0.67192,-3.49204 -0.88267,-4.32299 6.23622,2.52283 9.12201,-2.09344 4.63453,0.49805 -3.62108,3.98057 3.31234,1.18942 5.48026,-4.67079 5.77686,0.65358 2.25514,0.67713 6.11003,2.27795 19.71242,-0.93671 6.38043,-1.53867 5.16689,-3.34295 18.62173,6.55685 15.69939,-1.4792 6.76455,3.88731 12.79568,3.48867 16.98386,6.53863 4.58677,1.37327 -1.00377,-7.69196 3.83574,-0.61673 5.75402,3.04983 11.7521,18.38679 13.31914,13.76077 6.34363,5.95113 -0.64262,8.02445 -4.0065,2.60313 1.29659,5.22249 8.22362,10.19881 3.3582,13.89626 -1.27017,9.75924 6.45151,11.20267 9.21307,8.11757 2.8654,6.25182 0.93774,-11.65572 2.37503,-3.41388 3.26339,4.19988 7.71239,9.07825 6.21156,15.34348 -11.01344,-1.21598 -22.40915,0.89395 -33.44007,0.67196 -5.97425,0.37682 -8.2543,-0.70549 -2.88114,4.16156 -7.52611,10.08601 26.42592,-1.05094 11.40983,4.33681 -7.02238,3.30565 9.22038,9.34965 1.83652,12.64107 -11.3184,1.81246 -23.92231,8.92796 -36.59428,5.31419 -11.93321,-2.03843 -26.39752,-4.73761 -33.86982,7.47777 3.92103,-4.68977 16.91978,-0.41639 6.53025,1.72694 0.0504,4.94192 -2.7214,-0.32503 -5.53752,2.55875 z m -8.02836,-6.9963 c 8.23986,-4.30247 -25.50306,-37.9623 -1.84076,-1.9434 z m 55.67128,-4.7429 c 0.9954,-4.42469 -3.19137,1.6664 0,0 z m -18.72569,-2.1173 c 9.96263,0.43465 -6.98166,-4.42289 1.02373,-5.704 1.59527,-0.81816 7.42666,-3.74556 1.83855,-3.68438 -5.15729,7.88333 -10.93878,-7.45508 -11.51792,3.61024 -8.3828,-1.27473 6.19442,6.37621 8.65564,5.77814 z m -46.04475,0.17282 c -3.75291,-24.84389 -19.29619,-15.34346 0,0 z m 31.31485,-7.10735 c -2.20852,-3.89587 -4.01243,-5.95463 -4.45959,-8.34653 -5.49968,-19.40931 -10.85659,-2.38846 4.45959,8.34653 z m 7.19224,-7.78896 c -4.45469,-6.4308 -10.40654,-3.13085 -2.92012,0.11243 -0.6406,-0.84458 3.29849,1.47176 2.92012,-0.11243 z m 31.50258,-1.73444 c 1.27059,-8.39126 -13.53848,-5.73387 -16.83347,-13.66614 -5.72289,-4.93935 -5.63887,5.67704 -12.61497,4.82515 -2.71282,13.14149 17.13596,0.714 23.73261,8.27357 1.83004,0.59844 3.79873,0.89639 5.71583,0.56742 z m -0.83919,-2.53945 c -3.97834,-3.19678 3.68537,0.3706 0,0 z m -20.53084,-6.90264 c 0.42978,-6.97249 1.9511,4.11393 0,0 z m -12.16378,2.50397 c 5.27448,-1.67296 -4.06439,-0.44238 0,0 z m 31.36512,-0.41725 c 0.20066,-3.17956 -3.45546,1.1894 0,0 z m 11.75327,-2.68872 c 7.20211,-7.86097 -9.49155,0.90849 0,0 z m 10.69443,-0.30193 c -1.01173,-6.13787 -3.17573,-4.66804 -4.60786,-2.93242 -8.32075,-3.13033 -0.40249,5.67158 4.60786,2.93242 z m -49.74049,-0.65714 c 9.25855,-8.00312 -10.1678,-1.40883 0,0 z m -5.62528,-0.83068 c 1.7079,-7.68454 -20.57333,-0.68308 -7.9187,-0.22884 2.55187,0.19082 5.5452,-1.109 7.9187,0.22884 z m 62.13042,0.16137 c 15.2136,0.68035 -12.26043,-7.60483 -2.19507,0.49263 z m -23.69967,-4.40728 c 5.98083,-5.49062 -3.17617,-23.3541 -6.53825,-12.28574 1.21989,4.04688 3.81473,10.34966 6.53825,12.28574 z m -2.53266,-12.91295 c -0.75025,-3.81788 2.95018,2.12697 0,0 z m -1.65438,-0.7821 c -1.74589,-2.37109 2.80639,0.33765 0,0 z m -27.98216,13.37656 c 8.99627,-4.2609 -2.74142,-17.09757 -5.92022,-23.02471 4.69142,6.7722 -3.40885,20.37258 5.92022,23.02471 z m 0.14621,-1.86928 c -3.31766,-1.67813 0.64787,-2.26646 0,0 z m 41.34989,1.22672 c 3.43231,1.83176 5.36926,-7.28187 5.14942,0.23069 3.15589,-2.04794 1.50185,-13.47002 0.72979,-4.33564 -0.42272,-4.84763 -6.40271,-5.41785 -1.25134,-7.08772 3.45337,-7.73897 -13.07864,-1.37208 -2.9034,-7.91723 3.12354,-3.25174 -2.84278,-14.6761 -7.31646,-4.4664 3.12906,7.27711 -5.13388,18.18659 4.35967,23.6759 l 1.23252,-0.0997 z m -67.09368,-1.2299 c 4.99469,-0.55974 -2.89601,-8.07192 1.24911,-9.3272 -6.04058,-10.62053 -15.22551,3.44626 -4.83429,7.51317 l 1.8901,1.13482 z m 2.11271,-5.57521 c 2.56956,-1.79098 -2.49406,0.27548 0,0 z m 71.43869,-5.21615 c 1.65185,-3.64567 -2.34986,-0.45231 -0.93183,0.60412 z m -83.07656,-1.50166 c 1.48332,-3.89868 -3.13189,1.06363 0,0 z m -11.07152,-2.05885 c 7.94629,1.8382 9.54627,-5.21445 6.16565,-8.21474 1.56704,-12.96094 -21.69536,1.35228 -8.26998,8.32574 0.55738,0.0951 1.70862,0.78661 2.10433,-0.111 z m 96.88908,0.11062 c -0.0368,-3.49274 -4.50401,1.58699 0,0 z m -15.48545,-0.0823 c 1.67404,-4.62028 -4.94275,0.72044 0,0 z m -8.23668,-0.79521 c 0.90187,-3.98313 12.04668,-5.27007 3.48265,-6.49558 -0.69303,-4.11687 6.93364,-1.77115 -0.19835,-3.97491 -5.85968,-2.48027 -10.14424,10.82084 -10.59212,-0.0155 -7.00585,-1.66714 7.20215,-3.61629 9.59007,-4.42339 5.24104,-7.87969 -5.81425,-11.61123 -8.84001,-12.71902 2.3571,3.37055 2.29345,11.96106 -1.37133,13.83264 -1.2993,-1.3188 -4.48424,-18.30301 -12.51858,-8.9889 -3.41743,6.16045 6.88989,16.47011 2.76545,5.13465 6.60477,4.52371 8.24504,17.62057 17.68222,17.65001 z m -2.24505,-0.94334 c -1.32851,-4.0695 3.10682,1.10164 0,0 z m 22.37803,-0.53214 c 1.50459,-3.25137 -2.87676,0.25946 0,0 z m -0.51107,-8.78964 c 1.79822,-9.89582 -8.75573,-2.21132 -7.97043,-8.66238 8.9615,6.03951 -4.20905,-11.00726 -2.58263,-0.1742 -0.42385,10.86479 8.64135,0.81165 10.55306,8.83658 z m -9.78202,-1.5074 c 0.1326,-2.91637 -3.10055,1.66791 0,0 z m -4.5013,-1.07074 c 1.93101,-6.64771 -2.14252,-8.73657 -1.058,-0.49101 l 0.25813,0.65045 z m -60.37517,-1.21547 c 10.21146,-5.17567 -10.30113,-17.77536 -7.21594,-3.44826 0.79571,3.11458 4.34591,4.39619 7.21594,3.44826 z m 63.17444,-5.97291 c 1.46917,-4.37073 -3.11555,-1.03094 0,0 z m -77.68537,83.43304 c -5.08331,-5.83191 12.6433,0.0718 0.99034,-0.003 -0.29917,-0.22656 -0.74376,0.61653 -0.99034,0.003 z m 24.26085,-6.32927 c 2.64395,-5.32653 7.0882,0.9352 0,0 z m -128.24686,-3.29265 c 4.71717,-5.18444 10.52999,-5.81897 3.45781,-1.47044 -0.3359,1.3034 -2.24666,2.67341 -3.45781,1.47044 z m 0.77336,-2.14399 c -5.85426,-5.64401 6.13961,-1.01949 0,0 z m 211.68519,-1.18542 c -14.10173,-0.28713 20.66032,-7.26691 5.7597,-0.98496 -1.89085,0.64664 -3.78916,0.85216 -5.7597,0.98496 z m 5.84836,-5.32304 c -3.32218,-7.63075 -19.0648,-6.27998 -20.57014,-14.21185 6.33517,7.334 17.49213,5.82392 23.806,12.70453 -0.9786,0.79449 -2.06105,1.13657 -3.23586,1.50732 z m 11.16113,-11.58895 c -2.15949,-6.64509 -16.9163,-11.78298 -13.50252,-16.17267 3.35515,6.19435 12.57492,8.82378 13.50252,16.17267 z m -6.37075,-0.94636 c -3.28585,-5.31837 3.40005,-1.10626 0,0 z m -45.95153,-10.80788 c -1.05032,-2.2702 3.11363,1.48431 0,0 z m -72.82435,-6.28124 c -4.95476,-8.2076 6.04331,-0.31192 0,0 z m -10.65374,-4.59562 c -8.63404,-3.60954 1.8162,-3.03329 0.32563,0.30307 z m 70.89856,-0.15544 c -5.73057,-11.27463 5.82168,-6.92247 0,0 z m -157.70434,-0.34804 c -6.34749,-0.11318 -8.8857,-11.14554 -6.5569,-10.29661 0.31456,3.96137 5.44892,8.65729 6.5569,10.29661 z m 197.3159,-0.73661 c 2.44663,-4.69775 -6.14541,-5.36497 -2.34789,-11.49773 5.028,-1.0114 6.77371,8.60422 2.48014,4.2508 1.49837,2.62756 4.67435,5.7539 -0.13225,7.24693 z m -117.13532,-3.40645 c -3.64053,-4.90623 -3.95342,-12.25225 1.30789,-4.52184 -2.81453,0.9142 1.25588,7.63915 -1.30789,4.52184 z m -26.09592,-6.14422 c -5.46817,-9.16409 -0.21576,-2.30318 1.21727,-3.16522 0.18272,-10.24645 3.71896,5.58652 -1.21727,3.16522 z m -56.92863,-3.33853 c 2.74714,-1.75936 15.45382,-19.35104 8.95174,-8.64498 -3.58836,2.38674 -4.90119,7.28004 0.55823,4.02697 -3.03258,1.74246 -5.78251,4.54256 -9.50997,4.61801 z m 50.59712,-4.90709 c -3.68435,-4.76559 2.50991,-0.31839 0,0 z m -10.37457,-0.68904 c -1.62601,-5.07585 3.2484,2.3943 0,0 z m 17.31376,-2.07113 c -0.36439,-5.80764 -6.44528,-17.38695 -4.31255,-18.11732 6.36412,0.14304 12.98042,-4.05495 6.41275,-9.84515 -1.69467,-5.90123 8.96297,-11.29951 2.99167,-3.33305 4.24587,-2.9379 20.24927,-11.72333 8.81551,-3.65754 -8.3119,1.6344 -11.12757,15.39302 -3.965,17.57984 5.17477,-4.61484 16.49408,-3.58578 22.11083,-3.16193 -5.9075,9.28818 -22.19479,11.27399 -25.45879,17.87719 -1.67225,-5.88891 -10.03863,-8.85197 -5.60612,-0.24911 0.30768,0.29472 0.60251,3.48622 -0.9883,2.90707 z m 7.65811,-8.20936 c 5.99319,-0.32637 20.58042,-11.30194 7.01782,-5.93858 -5.93335,7.64388 -13.1118,-5.14563 -16.13683,1.745 2.00876,2.66596 5.75546,4.54985 9.11901,4.19358 z m -18.27802,5.22654 c -4.03786,-3.98066 -7.60415,-9.07557 -0.8511,-2.89584 0.0629,0.22223 3.44437,3.66704 0.8511,2.89584 z m -14.84986,-1.62044 c -5.91817,-4.81463 -0.8676,-9.05403 4.20166,-7.82167 7.55786,-7.28394 -1.96225,-20.1829 1.06726,-25.37094 3.18972,-2.13622 2.38156,9.56179 9.06763,9.92237 1.35482,3.80037 1.32687,8.30708 -2.38862,2.95896 -2.23681,4.06246 -0.62226,-9.65764 -3.7388,-1.45728 3.35069,16.40341 -8.33608,20.89055 -8.20913,21.76856 z m -1.74579,0.96261 c -20.21336,-6.94146 -2.21141,-13.21508 -1.99883,-11.85577 6.5309,-10.52691 -0.26284,-31.0765 16.9315,-33.29156 11.7191,-0.87658 4.12755,3.32602 21.15379,-3.0318 1.32715,13.35291 -23.84962,25.57086 -29.26414,16.40925 -6.24473,-7.50334 11.33628,-15.32398 4.23571,-9.981 -10.77141,1.98583 10.30384,24.17444 -11.05803,41.75088 z m 150.89899,-13.20734 c -6.55952,-1.75499 -10.30772,-6.10446 -1.44996,-3.04232 0.058,-0.11009 4.90397,4.3678 1.44996,3.04232 z m -11.02385,-3.17115 c -13.35029,-1.08112 5.70274,-2.09858 0,0 z m -7.11953,-0.90863 c -4.15616,-2.57537 7.63476,1.28654 0,0 z M 274.6866,149.87 c -4.47314,0.49289 -16.58825,-3.00389 -5.13587,-1.78261 5.48843,1.03504 21.15378,-1.44485 19.57081,0.77456 -4.83228,-0.19071 -9.65903,0.31711 -14.43494,1.00805 z m 25.64187,-0.21518 c -8.1094,0.55819 -4.24877,-2.59604 1.15496,-0.47528 l -0.2011,0.45509 z m -42.04949,-1.64318 c -7.07417,-0.45867 -0.63487,-0.93886 2.66311,-0.34184 z m -16.83582,-6.75795 c 3.2125,-9.91911 -13.78184,-0.98628 -10.28201,-10.12533 2.66038,1.69379 12.29427,5.57106 8.32742,-1.0772 5.58845,0.58796 1.14088,7.98977 1.95459,11.20253 z m -7.18502,-1.64319 c -1.10533,-4.35779 2.72231,-0.62506 0,0 z m -44.64151,-0.96434 c 25.62899,-35.22786 29.65015,-20.8143 29.31231,-17.77662 -3.71678,12.44038 -23.80564,15.69232 -29.31231,17.77662 z m 47.67849,-8.57701 c -1.76743,-6.96148 6.31268,-19.65421 2.85861,-6.05931 -4.72007,-3.27129 1.40708,6.11526 -2.85861,6.05931 z m -17.68494,3.06711 c 3.0852,-4.97649 20.82395,-11.04885 11.10823,-4.91767 -1.25796,0.92113 -9.41745,5.06609 -11.10823,4.91767 z m 20.21666,-4.63463 c -1.58413,-3.67405 2.44881,-0.18791 0,0 z m -11.23579,-4.50771 c 0.13657,-9.16029 -15.42891,3.3711 -5.29198,-5.66795 6.28501,-4.77008 10.51971,8.70747 6.84195,-2.45656 -3.05889,-8.53969 15.13718,-1.84483 3.96635,-3.4353 -7.48231,1.9834 5.65221,11.86551 -5.51632,11.55981 z"
         sodipodi:nodetypes="ccccccccccccccccccccccccccccccccccccccccccccccccccccccccccccccccccccccccccccccccccccccccccccccccccccccccccsccccccccccccccccccccccccccccccccccccccccccccccccccccssccccccccccccccccccccccccccccccccccccccccccccccccccccccccccccccccccccccccccccccccccccccccccccccccccccccccccccccccccccccccccccccccccccccccccccccccccccccccccccccccccccccccccccccccccccccccccccccccccccccccccccccccccccccccccccccccccccccccccccc" />
      <path
         id="path899"
         style="display:inline;fill:#1d1f21;stroke-width:0.156497"
         d="m 131.59624,293.43399 c -0.11662,-5.28866 4.32957,-1.9037 0,0 z m 263.70913,-1.39435 c 0.97188,-2.76503 7.04587,1.23914 0,0 z m 1.69857,-9.2025 c -2.84728,-4.13205 -7.03246,-14.63004 -1.02699,-4.34251 0.33859,0.56715 3.61081,6.90934 1.02699,4.34251 z m -16.47446,-4.09643 c -21.16297,-35.62141 2.37474,-1.67774 0,0 z m 10.83162,-6.14651 c -4.56208,-4.55209 5.0491,0.68597 0,0 z m -254.16367,12.66542 c -2.62448,-6.54131 24.85772,-36.17795 0,0 z m 252.1629,-15.65799 c -1.49397,-3.90425 -2.15826,-11.92396 0.73442,-3.01786 1.03869,0.0173 -0.16257,4.70206 -0.73442,3.01786 z m -4.81229,-8.70948 c -2.62086,-4.96045 -5.68077,-21.13588 -2.50769,-21.04844 0.47863,5.13516 5.37485,9.67333 0.52079,9.57068 -1.54309,3.45482 5.88999,12.25351 1.9869,11.47776 z m -23.28985,0.0818 c 3.52553,-2.60285 7.40592,0.23648 0,0 z M 253.4816,242.856 c -5.84529,-3.20905 -19.32854,-5.03402 -21.2355,-8.2935 -0.46062,-2.80795 -12.23165,-7.84165 -4.60722,-10.80895 4.57319,3.90597 5.72127,9.42762 11.36671,6.82858 3.49706,1.3322 2.99768,2.26535 5.4128,4.0448 -0.25631,-7.33049 6.26758,6.23211 9.42653,6.87086 7.09977,-1.12675 -2.00646,-4.6159 5.50617,-4.36549 2.453,-2.8007 -2.34295,-6.47799 1.35102,-8.96636 0.26909,-2.14665 -5.56507,-6.07956 -2.30117,-0.0845 -1.14823,7.26503 -4.95186,-3.29112 -9.01244,-5.03523 -9.14316,-3.94028 -11.28234,-8.82616 0.0564,-5.46694 4.40862,-0.21434 5.58577,4.52341 9.0183,1.04823 3.3615,1.63693 4.36158,4.58263 6.28703,6.14393 -0.95025,-5.79378 4.88043,1.25039 8.43756,1.08526 2.36593,1.27787 10.38318,2.64591 13.67407,6.52127 -8.33719,-1.36801 -16.23947,-2.65419 -22.64695,4.15899 -4.63871,3.12391 -4.40279,7.57618 -10.73335,6.31908 z m 130.51596,-1.2935 c 1.1994,-7.80129 2.68762,-0.58189 0,0 z m -82.08006,-6.87681 c -8.06597,-0.0225 -1.93177,-2.43774 -3.57327,-2.74891 -4.97943,0.13477 -3.43116,-7.88594 -0.84178,-4.91548 3.65702,-2.51753 6.52315,-6.85401 10.16628,-3.8222 10.06776,6.53033 7.20029,0.0863 12.88874,-2.12353 -1.41724,-4.1158 -11.97029,-3.67858 -14.87534,-2.67331 -6.98797,5.24972 1.09106,-5.56042 -4.65362,-2.15453 -8.49759,-1.89399 -17.11799,5.87036 -12.97533,1.79356 0.94576,-5.08942 -4.48578,5.10334 -7.10214,-2.37306 -6.44632,-5.05048 -12.60229,-10.20347 -19.54279,-13.88273 -3.68483,-2.568 -12.42286,-11.72617 -3.13456,-4.44334 3.68589,0.1334 8.71769,6.22613 4.29332,-0.47145 7.0646,-1.49093 1.50181,10.4369 9.28612,6.79397 5.02751,0.77018 7.69574,1.27079 9.42289,0.52658 0.24305,6.97881 -4.82107,0.1741 -8.58391,0.81281 5.0937,12.31898 20.69247,3.69234 26.40818,8.04045 7.38598,2.04019 16.98675,3.25063 25.30745,3.43589 5.5108,3.3993 8.42971,11.8828 0.11776,13.28798 -4.82331,-0.36451 -11.9082,2.98917 -14.4132,3.09015 -2.6506,-7.63642 -2.30056,5.89932 -8.19506,1.82703 z m 24.2386,-7.51447 c 8.08423,-3.25405 -8.61213,-13.52608 -3.44034,-7.08001 3.6189,0.49803 -2.83547,3.32083 1.62463,4.75007 -3.90585,1.43133 -3.08733,1.67023 1.81571,2.32994 z m -126.23568,7.35915 c -6.00848,0.22713 -4.02653,-15.44231 1.53718,-15.78468 -2.16676,-6.91847 1.04091,-12.85578 1.11384,-20.71131 2.63817,-7.26217 -11.15475,-6.18065 -10.06339,-14.13924 -2.54318,-14.1478 4.71084,4.33671 9.28711,1.89936 6.23244,-1.88016 1.85404,-15.58906 7.07251,-9.75754 1.58494,8.60407 -2.82206,14.71656 -1.61738,23.01682 2.14799,7.21072 0.0701,15.86566 0.89461,24.71202 -1.80222,4.20912 -3.91731,5.38176 -5.56895,10.30819 -0.83096,0.27298 -1.76026,0.76916 -2.65553,0.45638 z m 150.46252,-2.72995 c 1.60551,-2.75757 10.98199,-0.37014 1.22243,0.16635 l -1.22243,-0.16633 z m -216.63392,-0.89187 c -5.22366,-5.09918 -5.26123,-6.01279 0.65509,-1.33991 2.50851,0.47349 0.78237,3.29238 -0.65509,1.33991 z m 59.23602,-2.02966 c -1.0189,-5.25057 4.43181,-3.832 0,0 z m -67.41568,-7.99125 c -3.01428,-5.63977 -1.94621,-16.10135 4.49744,-19.32942 3.58882,-4.39667 1.82358,-6.5725 4.89927,-2.45877 11.91076,-2.91152 -5.76226,2.2375 -6.578,6.90581 -3.25492,4.27497 -3.04642,10.74266 -2.81871,14.88238 z m 69.14146,-0.90185 c -0.7905,-4.40817 2.71159,1.85005 0,0 z m 3.49792,-4.80597 c -2.019,-2.9497 2.2295,-0.63226 0,0 z m -2.64753,-2.10134 c -4.8131,-6.37531 3.61382,0.3472 0,0 z m 119.97155,-0.24059 c -2.13412,-1.87556 2.5667,-1.25955 0,0 z m -32.39324,-0.27179 c -0.29032,-3.10373 3.21394,0.70987 0,0 z m 30.20228,-2.74073 c -7.56663,-1.19805 4.48958,-1.25502 0,0 z m -120.49152,-0.72535 c -16.26195,-15.97673 4.20645,0.70127 0,0 z m 116.26609,0.0533 c -1.34769,-2.43805 3.78632,0.80033 0,0 z m -2.45528,-1.56958 c -6.07514,0.40993 -17.15252,-14.20685 -6.30856,-5.27141 1.04221,5.30045 22.08955,3.09 9.70945,4.10852 -2.61469,-1.77376 -1.29413,2.99096 -3.40089,1.16289 z m -23.26243,-0.0537 c 0.40498,-4.2628 4.26232,-1.20935 0,0 z m 50.44428,-0.0523 c -3.78862,-1.71701 -18.45752,-0.30698 -6.18164,-2.42581 8.1603,2.77333 6.56333,-3.01896 4.93218,-6.55265 4.80101,-4.30568 -1.77617,-9.82887 -0.14511,-10.86822 2.70071,-2.80761 -2.55068,-5.98999 0.30283,-9.65169 -5.22287,3.15077 -3.10378,-10.45288 -0.96417,-1.50236 5.82527,3.00338 0.32847,7.98952 4.1989,14.63187 4.33473,6.06585 -1.14424,8.63871 0.43715,13.9546 6.11355,-2.16366 12.65889,1.12273 2.42828,1.3306 -2.0891,-0.74632 -3.16525,1.71801 -5.00842,1.08366 z m -182.20342,-0.79569 c -8.32732,-8.54826 2.46768,-3.32072 0,0 z m 166.85036,-0.2605 c -1.4152,-3.37356 -0.20283,-15.01164 2.77556,-9.25533 5.36637,2.86702 -1.33888,7.83622 -2.77556,9.25533 z m 33.74148,-0.2205 c -9.10933,0.8392 -2.5704,-2.88388 -4.77316,-7.24778 -0.76191,3.53616 11.73285,7.68937 4.77316,7.24778 z m 4.89054,-1.03276 c -9.07082,-7.17769 5.38416,-0.42173 0,0 z m -70.07164,-0.81658 c -5.08668,-1.47272 4.51703,-1.13416 0,0 z m -125.35392,-1.17724 c -3.52124,-7.66463 2.43775,-11.74283 0,0 z m 126.71024,-0.65252 c 0.80955,-2.76078 -7.77026,-3.75518 1.17507,-2.58737 2.9123,-1.65289 0.19768,3.10218 -1.17507,2.58737 z m -9.34971,-0.66611 c 1.31399,-3.88019 8.28637,-3.38198 1.0426,0.45745 z m 71.94225,-0.7189 c -7.3154,-9.35628 2.78027,-4.43207 0,0 z m -79.74816,-0.85361 c -2.29109,-2.44073 8.63534,1.26419 0,0 z m -123.62915,-0.1412 c -0.68866,-13.59759 2.52084,-3.99702 0,0 z m 165.92099,-0.87788 c -7.70787,-4.01011 -6.06753,-15.98082 -13.57986,-20.89641 -1.49633,-4.50469 -10.13623,-21.85403 -2.22925,-9.04898 5.3566,6.24806 9.78999,13.25013 13.7444,20.30586 0.3724,1.62119 4.92026,10.62856 2.06471,9.63953 z m 25.09869,0.26014 c 1.82744,-5.36442 9.26926,2.10668 0,0 z m -46.06591,-0.28526 c -2.00923,-2.66274 -8.6174,-14.27833 -2.63447,-9.03756 0.60791,2.34921 5.98495,7.63892 2.63447,9.03756 z m 4.79794,-4.05944 c -5.13248,-6.73395 -4.43903,-14.31586 -8.61289,-22.05314 -3.75197,-4.70119 -4.16282,-9.66184 0.48574,-3.10573 3.49682,6.5313 6.2097,13.71563 9.73206,19.64598 -2.76801,0.61568 0.87231,7.90987 -1.60491,5.51289 z m -18.22235,0.15365 c -0.86441,-6.35355 0.81351,-10.93464 1.40988,-1.49042 0.29753,0.56068 -0.52483,2.8251 -1.40988,1.49042 z m -16.57755,0.0463 c -2.63882,-7.02506 3.4421,-0.70759 0,0 z M 251.38738,193.929 c -9.8204,-4.53462 4.10527,-5.23584 0,0 z m 68.6838,-0.1834 c -5.59686,-3.4425 4.4672,-5.74812 0,0 z m -159.58365,0.59363 c -2.34742,-9.10321 -7.09976,-12.59457 0,0 z m 142.68195,-5.15236 c 1.23003,-3.07465 1.12856,2.30777 0,0 z m -53.7786,-0.72375 c -3.90277,-2.40202 5.19738,-6.38252 -1.00028,-4.52862 -6.69409,-0.73299 9.43784,-4.08043 2.0823,3.04553 -0.49015,0.0803 -0.15325,2.27182 -1.08202,1.48309 z m 36.07295,-0.89533 c -2.25333,-8.06878 -7.59577,-15.10589 -11.27661,-21.65048 2.59664,-2.95913 11.56799,9.37954 11.22281,15.23011 0.69499,1.20329 3.12308,8.08224 0.0538,6.42037 z m -52.90105,-0.51743 c -2.87811,-3.77009 2.29393,-0.89106 1.70908,-4.83141 2.02877,0.59498 -0.13676,5.77801 -1.70908,4.83141 z m 86.95287,-0.72411 c -6.46253,-4.2874 -4.11029,-4.00577 0.15067,-9.12733 -1.13949,-11.58537 6.23702,13.61109 -0.9009,3.63022 -2.59211,0.98379 4.50227,6.64744 0.75023,5.49711 z m -59.29984,-0.0929 c -1.88524,-11.73237 3.76987,-1.87105 0,0 z m 17.07478,-0.92033 c -106.721,-49.25707 -53.3605,-24.62854 0,0 z m -13.65986,-0.53482 c -1.2686,-4.81924 6.71144,-2.14101 10.27396,-3.27722 1.0951,4.19758 -8.05532,1.10076 -10.27396,3.27722 z m -9.48401,-0.78875 c -0.55826,-2.98534 12.33163,-0.57256 0,0 z m 72.81034,-0.8468 c -7.02071,-2.36669 8.76754,-2.62871 0,0 z m -96.40927,-0.24787 c 3.22852,-2.42049 1.64602,-12.27222 2.71707,-2.6445 1.24545,1.69546 -1.31245,3.76519 -2.71707,2.6445 z m 110.94745,-1.0707 c -6.46898,-4.70694 5.87445,1.21199 0,0 z m -80.26874,-2.71134 c 0.26971,-5.47602 -4.32404,-9.30647 1.70487,-10.09991 -4.47898,-2.6163 -1.48303,-14.74037 -9.27413,-10.98805 -6.73841,-8.14104 -2.74564,11.54419 -6.82703,3.09392 -3.36091,-7.22296 6.97476,-7.54768 12.20554,-5.55871 2.19558,1.14456 2.97225,13.05887 5.16613,14.04563 -5.18859,0.21833 0.6631,10.62772 -2.97538,9.50712 z m 16.69476,-0.84769 c -0.50851,-3.61801 2.28219,0.13071 0,0 z m -29.46453,-0.27468 c -3.9184,-5.98957 4.70048,-2.74166 0,0 z m 88.09176,-1.53808 c -2.90376,-7.86474 3.61199,2.07777 0,0 z m -29.38923,-2.62231 c -1.07121,-2.50722 -1.26276,-8.99819 2.10967,-2.53167 0.0649,0.72044 -0.94698,3.47425 -2.10967,2.53167 z m -59.44197,-1.19883 c -0.92345,-3.42405 2.52046,0.0562 0,0 z m 86.19577,-0.53013 c -4.51599,-1.84681 -2.25196,-8.312 0.10102,-0.90196 1.00729,0.17715 1.18147,2.30489 -0.10102,0.90196 z m -14.29942,-0.21186 c -4.0969,-0.48458 -15.20803,-1.35757 -5.05368,-2.43903 4.13122,-0.48226 7.96467,-1.70336 5.05368,2.43903 z m -35.5641,-0.27808 c -2.71398,-2.52786 4.98085,0.44345 0,0 z m 18.06358,-0.0426 c -1.47965,-2.87823 4.52342,0.70548 0,0 z m -8.84139,-0.69628 c -4.22846,-2.79191 6.33608,0.15476 0,0 z m 29.1526,-0.39903 c -2.64394,-5.32198 7.91058,1.13027 0,0 z m -69.49047,-0.12089 c -7.7025,-2.56315 7.59347,-2.52189 5e-5,0 z m -25.97575,-0.66509 c -0.12211,-2.88178 2.95309,0.97406 0,0 z m 6.63705,0.0237 c 3.55387,-3.41792 23.22697,0.20742 0,0 z m 15.21761,-2.71355 c -0.92808,-3.94156 2.96507,0.31175 0,0 z m 40.67143,-0.0913 c 4.86718,-11.339 -5.84492,-9.40315 -11.11954,-11.54161 4.45613,-0.6022 9.36323,-1.14271 13.5693,0.58254 -1.71001,2.946 0.67897,10.16813 -2.44976,10.95907 z m 30.70318,-0.6969 c -2.00439,-8.50295 3.32546,0.72523 0,0 z m -14.82852,-0.36028 c -5.69756,-6.03698 3.76773,-1.10249 0,0 z m -100.20882,-0.4165 c -2.5439,-3.48513 -0.5481,-2.60394 3.42128,-1.45652 -1.4719,-1.05437 -2.20238,1.93083 -3.42128,1.45652 z m 122.90233,-1.79251 c -1.90217,-5.16281 3.42845,2.43811 0,0 z m -115.3383,-1.6001 c 3.18799,-3.89747 6.35895,0.26745 0,0 z m -14.70524,-0.5617 c -0.59905,-3.44908 3.76294,1.41606 0,0 z m 119.26573,-0.47272 c -3.16594,-8.12467 4.4217,2.54701 0,0 z m -41.02261,0.002 c -4.18403,-4.31313 3.80035,-9.59045 0.65568,0.21248 l -0.2897,0.23435 -0.366,-0.44683 z m 26.44804,-0.0815 c 1.04311,-6.82071 -5.08408,-1.9727 -7.9916,-5.40131 4.19133,-1.25504 12.44525,-2.43739 11.57022,5.22003 -1.76045,0.70959 -2.02492,-1.10459 -3.57862,0.18128 z m -92.71709,-0.65606 c 3.93549,-6.27483 -8.83466,-1.63178 -10.17138,-5.5404 3.26982,-5.36345 -1.17127,2.25732 5.65404,0.36657 2.23308,-2.80283 3.54926,1.02274 7.914,-1.77615 3.15935,2.65218 7.91614,-1.45024 10.44604,1.19865 4.41954,-2.13924 9.58536,-4.95853 2.6503,0.98025 -5.53061,0.0326 -1.3228,5.51549 -5.5711,-0.0803 -5.53353,0.0779 -9.33622,1.4068 -10.9219,4.85136 z m 115.49457,0.25358 c -9.80668,-6.07079 4.7457,-0.68605 0,0 z m -145.51299,-1.67717 c 0.14252,-4.17656 3.38528,-1.75616 0,0 z m 89.5543,-2.81694 c -0.8187,-4.97562 9.04476,0.55462 0.92692,0.18327 l -0.69091,0.21566 -0.23601,-0.39937 z m -87.19576,-0.93706 c -0.28363,-6.09805 -1.00678,-14.34118 1.14759,-4.69196 -1.61702,1.24588 1.45338,4.38931 -1.14759,4.69196 z m 63.16946,0.12514 c -3.40896,-4.34456 2.20775,-7.66228 0,0 z m 76.30017,-2.47325 c -8.12858,-4.30203 4.70437,-0.73466 0,0 z m -17.0582,-0.17985 c -5.41171,-2.70838 4.4059,0.23741 0,0 z m -89.01107,-1.13914 c -0.0885,-2.36403 3.37416,0.32864 0,0 z m 60.58789,-2.50045 c 5.7136,-1.88278 14.82293,1.88869 0,0 z m -70.96534,-0.79819 c -3.31249,-8.42507 3.53177,2.76896 0,0 z M 187.3029,145.2675 c -0.77051,-2.46635 2.80812,0.98106 0,0 z m -6.20871,-1.65846 c -3.89835,-17.79986 5.63113,-0.65162 0,0 z m 21.46292,-0.64522 c -2.7478,-9.38454 6.77374,-0.2502 0,0 z m 7.02702,-4.63915 c 13.98739,-14.09601 11.92114,-6.8224 0,0 z m -32.70793,-5.29653 c 0.51637,-2.90967 4.08888,-11.3644 4.52723,-6.53403 9.674,-7.2587 -4.23504,4.27892 -4.52723,6.53403 z m 12.56875,-0.059 c -6.70096,-4.78711 10.61064,-8.09864 3.32249,-0.92294 -1.01415,0.69907 -2.09001,1.51956 -3.32249,0.92294 z m 14.33677,0.86372 c 0.40322,-3.4653 13.81285,-7.83907 7.99257,-3.64997 -1.83898,1.59965 -5.77012,4.29415 -7.99257,3.64997 z m 10.36965,-5.94383 c -0.50076,-2.99132 8.94175,-12.4466 4.89932,-8.85938 1.03779,1.80905 0.95343,6.4493 -4.89932,8.85938 z m -12.75727,-3.92852 c 3.61741,-3.04789 14.4056,-13.70681 17.20152,-5.9905 -3.93292,6.91934 -5.71935,-4.68024 -9.70524,1.35125 -2.25313,1.94896 -4.62156,3.97981 -7.49628,4.63925 z m -9.96365,-0.75641 c -3.13219,-1.19004 4.92961,0.61991 0,0 z m 36.689,-1.13548 c -11.6563,-8.28985 7.25406,-4.99962 0,0 z"
         sodipodi:nodetypes="ccccccccccccccccccccccscccccccccccccccsscccccccccccccccccccccccccccccccccccccsccscccccccccccccccccccccccccccccccccccccccccccccccccccccccccccccccccccccccccccccccccccccccccccccccccccccccccccccccccccccccccccccccccccccccccccccccccccccccccccccccssscccccccccccccccccccccccccscccscccccccccccsccccccccccccccccccccccccccccccccccccccccccccccccccccc" />
    </g>
  </g>
</svg>
