<?xml version="1.0" encoding="UTF-8" standalone="no"?>
<svg
   xmlns:dc="http://purl.org/dc/elements/1.1/"
   xmlns:cc="http://creativecommons.org/ns#"
   xmlns:rdf="http://www.w3.org/1999/02/22-rdf-syntax-ns#"
   xmlns:svg="http://www.w3.org/2000/svg"
   xmlns="http://www.w3.org/2000/svg"
   xmlns:sodipodi="http://sodipodi.sourceforge.net/DTD/sodipodi-0.dtd"
   xmlns:inkscape="http://www.inkscape.org/namespaces/inkscape"
   version="1.1"
   id="svg885"
   width="290.30402"
   height="184.479"
   viewBox="0 0 290.30401 184.47901"
   sodipodi:docname="southern-dog-celebrates.png.svg"
   inkscape:version="1.0.1 (unknown)">
  <metadata
     id="metadata891">
    <rdf:RDF>
      <cc:Work
         rdf:about="">
        <dc:format>image/svg+xml</dc:format>
        <dc:type
           rdf:resource="http://purl.org/dc/dcmitype/StillImage" />
        <dc:title></dc:title>
      </cc:Work>
    </rdf:RDF>
  </metadata>
  <defs
     id="defs889" />
  <sodipodi:namedview
     pagecolor="#ffffff"
     bordercolor="#666666"
     borderopacity="1"
     objecttolerance="10"
     gridtolerance="10"
     guidetolerance="10"
     inkscape:pageopacity="0"
     inkscape:pageshadow="2"
     inkscape:window-width="1278"
     inkscape:window-height="1415"
     id="namedview887"
     showgrid="false"
     inkscape:zoom="2.9310344"
     inkscape:cx="148.99554"
     inkscape:cy="92.638664"
     inkscape:window-x="0"
     inkscape:window-y="0"
     inkscape:window-maximized="0"
     inkscape:current-layer="g897"
     fit-margin-top="0"
     fit-margin-left="0"
     fit-margin-right="0"
     fit-margin-bottom="0" />
  <g
     inkscape:groupmode="layer"
     inkscape:label="Image"
     id="g893"
     transform="translate(-167.32447,-116.16134)">
    <g
       id="g897"
       transform="translate(50.115379,4.7339275)">
      <path
         id="path907"
         style="display:inline;fill:#e0e0e0;stroke-width:0.156497"
         d="m 130.11957,295.24367 c -3.2169,-15.92693 15.73053,-25.65848 16.85106,-41.32205 6.9427,-12.50977 -3.28314,-20.55389 -14.86015,-19.08912 -13.62406,-5.35189 -20.55745,-25.38379 -9.03923,-36.18854 12.23514,-14.7193 25.03675,-28.96717 38.3509,-42.71791 16.72568,-3.2099 8.2391,-25.90085 21.01237,-31.92998 26.69653,-0.0903 23.87267,-7.32601 35.56442,-8.20932 5.19487,11.07718 19.89807,-12.33886 24.2512,1.93315 0.94918,11.79023 -3.88556,31.71488 15.31898,29.79637 21.55478,-0.45267 43.31737,-0.51241 64.65662,3.03627 16.56715,13.98288 21.74746,36.68167 36.7949,52.06166 11.98948,13.18869 26.33739,25.90416 30.13604,44.15644 3.67098,13.0683 8.05968,26.18476 16.45106,37.0628 9.05489,16.63943 -20.15871,9.52358 -23.21507,-0.81517 -6.84456,-14.66723 -20.75801,-26.74003 -37.68082,-19.55845 -48.27607,5.37888 -96.87851,-0.52452 -145.13362,-3.42695 -11.77238,-1.85994 -26.98625,-3.87736 -32.5004,9.49782 -8.53407,12.22362 -19.26444,30.04004 -36.95826,25.71298 z m 30.95041,-27.25776 c 2.73134,-7.26687 -2.44816,1.31981 0,0 z M 210.52317,147.3347 c 11.46227,7.84818 32.83495,-11.94639 13.47908,-15.42179 -5.10969,0.157 -22.5519,10.77191 -13.47908,15.42179 z"
         sodipodi:nodetypes="ccccccccccccccccccccccc" />
      <path
         id="path905"
         style="display:inline;fill:#b4b7b4;stroke-width:0.156497"
         d="m 138.21914,294.99182 c -18.02351,-1.20474 0.50465,-20.99813 4.52225,-28.89338 4.6816,-8.71336 13.97214,-26.13938 0.0158,-30.78896 -14.93445,1.35816 -31.07778,-15.02673 -22.80526,-29.62441 9.32739,-15.39987 22.73432,-27.75734 34.20781,-41.47037 9.00644,-8.13664 22.83915,-16.39266 20.4998,-30.51923 3.93747,-16.82819 26.86226,-6.96498 36.4828,-17.70236 7.13383,10.50444 16.40869,-0.12822 24.14393,-4.06011 14.38048,5.3504 -2.13992,30.6608 15.02495,35.4095 11.85516,0.64792 23.75278,-0.47017 35.6774,0.64288 11.78935,0.4984 24.10278,-0.17594 35.39223,3.47605 12.91263,8.33127 17.79172,23.85521 26.20453,35.9405 9.44902,18.63243 29.37961,29.58749 37.58306,48.90484 5.63774,14.00023 6.98432,30.02386 16.91167,42.01425 9.4013,8.83339 -0.0611,19.91043 -10.23503,12.94439 -11.82133,-6.16284 -14.59515,-20.84517 -24.91158,-28.63703 -15.82169,-3.52725 -31.62044,3.39779 -47.59856,2.18463 -43.01309,1.59869 -85.87703,-3.08433 -128.72472,-6.06983 -12.01945,-4.3269 -22.8091,4.03045 -27.66285,14.64236 -5.74697,8.96071 -12.79216,21.42707 -24.72825,21.60628 z m 7.17921,-3.00329 c 12.82749,-9.58637 18.62833,-25.04964 27.33319,-37.92855 13.16217,-0.78212 25.80053,5.26491 39.12052,3.72723 13.99592,2.52023 28.26778,2.91795 42.21653,1.39242 10.60905,-4.65326 18.54428,5.11887 29.03605,0.0317 7.07586,5.40934 16.8562,3.06731 22.03015,-4.46311 -2.70758,17.00567 21.37502,2.97108 30.48192,6.56742 13.65791,2.1223 24.33699,-7.76259 34.12629,-13.74493 -7.74911,-14.31773 -14.67975,17.42319 -25.75107,8.08577 -6.79262,-10.28468 8.47154,-7.64612 6.82371,-5.57587 5.1179,-2.21529 9.98805,0.29232 4.27469,-7.35655 -4.25645,-3.08439 -6.85089,5.08787 -12.0841,-0.36276 -13.20242,-5.02054 -0.43356,22.99627 -7.64814,10.41203 1.34869,-3.22674 -2.41226,-12.50738 -4.09713,-4.62096 -5.36417,-10.05705 -20.51642,-2.44403 -26.21304,-6.13691 -3.91936,1.02055 -8.16662,-5.53332 -9.40377,2.52161 -2.98288,-5.30989 -8.60827,1.72827 -7.75524,-1.99552 1.45161,2.38726 -2.3923,10.28466 -1.87638,3.3715 -4.29893,12.22045 -0.60341,-14.217 -5.09093,-0.53274 -4.878,-9.70097 -17.81882,8.53407 -26.10897,0.56511 -1.67014,-4.05337 0.41913,6.80687 -6.08914,3.33175 -7.98314,0.17584 -14.08406,-4.76884 -15.90454,-8.46115 -12.83749,-1.92903 -25.36215,2.4776 -38.04417,2.83812 -11.72469,-5.22342 -14.11732,-21.63619 -24.52144,-29.9072 -5.28594,-5.21295 -4.43674,-5.58209 -3.25143,1.2239 -4.73353,6.47631 -7.6753,13.37438 -3.43009,17.1261 1.74487,6.18659 12.55701,-2.13868 5.7671,7.96855 -6.22983,4.91148 -13.05707,4.71495 -14.52638,14.57503 -4.35537,11.63356 -8.4347,23.6076 -15.15222,34.03722 -0.37273,2.95616 3.33486,4.62043 5.73803,3.31079 z m 107.84851,-33.10887 c 0.97205,-4.83986 1.25196,3.16564 0,0 z m 52.9522,-0.46314 c 1.20984,-3.86688 5.1231,0.0306 0,0 z m -29.2067,-1.75752 c -12.50332,-4.14199 12.87081,-6.76969 1.11382,-0.92514 z m 11.6663,-0.47997 c -1.46751,-4.50896 2.75681,1.64642 0,0 z m -20.58369,-0.20349 c -1.12098,-4.40044 3.92749,1.99783 0,0 z m 64.20299,-0.61163 c -8.33723,-6.16307 7.29152,-6.95501 0,0 z m -13.99861,-0.4134 c -6.17498,-10.17038 5.93774,-6.69726 0.84664,0.0136 z m 21.86157,-0.46892 c -3.2739,-4.98983 5.0565,-3.25727 0,0 z m -26.45483,-0.39883 c -1.09023,-3.12885 3.13617,0.86144 0,0 z m -55.17804,-0.4082 c -3.69555,-2.43555 1.52624,-4.20205 0,0 z m -53.68021,-0.99238 c -0.75357,-3.92373 3.72707,0.99758 0,0 z m 63.20556,-0.25047 c -3.21074,-2.92439 2.43149,-1.32463 0,0 z m 8.92556,-0.34906 c -4.22117,-7.27103 4.07553,-7.72951 0,0 z m 18.61417,-0.10989 c -5.64687,-4.30253 3.90871,-4.46307 0,0 z m -78.59426,-0.4729 c -1.19509,-3.13996 2.61048,2.26491 0,0 z m 3.70249,0.2201 c -2.17087,-3.56023 2.72751,-1.23167 0,0 z m 41.85139,-0.0421 c 0.70083,-2.45919 2.30565,1.92284 0,0 z m 65.78234,-0.0138 c -5.26113,-0.78319 2.66833,-5.00562 0,0 z m -147.93307,-1.61647 c -1.3546,-7.48919 2.17054,3.10724 0,0 z m 90.89027,0.73184 c -5.39927,-1.64757 1.66949,-4.38241 0,0 z m 49.43111,-0.64847 c -1.83416,-3.23445 2.91624,-1.43508 0,0 z m -96.7689,-1.14212 c -4.30091,-0.84201 1.07559,-3.36161 0,0 z m 99.14143,-0.22692 c 0.55211,-5.71988 6.33229,-2.06188 0,0 z M 171.44385,248.5343 c -3.39529,-1.88121 2.94488,-2.22526 0,0 z m 167.28963,-0.94028 c -0.99883,-2.75384 3.2055,0.86611 0,0 z m -179.69082,-0.43548 c -1.08568,-2.5322 2.81976,1.01495 0,0 z m 113.12263,-1.29971 c -0.0571,-4.85813 3.18569,3.26859 0,0 z m -65.55208,0.0468 c -0.24593,-3.78332 2.70152,-0.3633 0,0 z m 85.45493,-0.21835 c -1.81027,-3.55368 2.55803,0.92497 0,0 z m -17.53597,-1.82174 c -0.82977,-2.94539 2.37861,1.38932 0,0 z m -104.291,-15.75532 c -2.2825,-3.55443 2.12935,-5.05567 0,0 z m -5.59419,-3.79561 c -2.68694,-4.10355 5.00198,-0.90579 0,0 z m 3.661,-0.58484 c -2.06635,-2.89369 1.24988,-4.47898 0,0 z m 1.05635,-3.24974 c -1.32966,-4.69243 3.24674,-1.67182 0,0 z m -38.3027,70.22725 c 0.44552,-3.25212 -2.41939,2.24307 0,0 z m 262.37538,-0.69197 c -0.53109,-4.33101 -1.37233,3.05752 0,0 z m 3.31782,-0.35902 c -0.82219,-3.3768 -2.99798,2.2174 0,0 z m 7.12818,-4.1665 c -2.45162,-6.21457 -0.0483,3.73749 0,0 z m -7.43089,-0.86426 c 2.17525,-6.74786 -7.01747,-1.31579 0,0 z M 135.42245,283.4041 c 6.65226,-3.61461 1.2129,-9.04035 0,0 z m 251.59623,-0.60683 c 1.08376,-8.43877 -7.0748,-0.73331 0,0 z m 11.14847,-4.19601 c 0.43254,-3.73419 -3.66467,0.9674 0,0 z m -5.82207,-2.08751 c 0.52737,-3.72123 -2.60576,1.709 0,0 z M 141.7191,274.09802 c 7.68379,-4.14387 0.46341,-10.30334 0,0 z m 247.78028,-1.83028 c 1.0935,-5.23146 -3.17767,1.39614 0,0 z m 6.83679,-0.65022 c 1.51596,-10.61201 -8.05311,-2.27885 0,0 z m -3.26224,-4.19766 c 1.07384,-9.74888 -9.53824,-5.90867 0,0 z m -17.00186,-3.5321 c 2.25482,-2.75707 -2.40733,-1.99232 0,0 z m -227.00822,-4.30409 c 4.54813,-5.19913 -3.17783,-2.7716 -0.46119,0.46116 z m 224.12697,1.63984 c 0.76929,-2.71058 -2.63534,0.89798 0,0 z m -106.47492,-0.0726 c 1.25018,-2.56509 -2.98622,0.61064 0,0 z m -2.04474,-0.30748 c 1.27506,-3.66558 -3.29881,1.57266 0,0 z m -6.00569,-0.27627 c 1.39436,-4.41242 -4.34569,0.83405 0,0 z m 102.66086,-0.66744 c 1.25319,-5.20728 -7.15655,3.97942 0,0 z m 17.49298,0.1221 c 0.2651,-3.02547 -2.28255,1.89645 0,0 z m 3.87399,-0.96658 c 1.93078,-3.85944 -3.28903,1.66608 0,0 z m -16.15618,-1.15347 c 0.98162,-4.2205 -1.79937,-2.13242 -0.56248,0.35868 z m 9.54937,0.61418 c 3.57836,-3.05121 -2.83241,-2.27658 0,0 z m 2.71864,-1.6632 c 4.1387,-3.75739 -4.41932,-0.12697 0,0 z m 2.72947,-1.67497 c 1.59181,-6.87928 -5.51353,-2.91582 0,0 z m -15.22151,-0.65524 c 1.89737,-4.24138 -3.66285,1.27174 0,0 z m 4.31448,-2.05573 c 1.86418,-3.89862 -3.62412,1.50097 0,0 z m -23.63472,-1.64694 c 1.66627,-4.42877 -2.94602,1.96701 0,0 z m 29.34565,-0.0586 c 2.76757,-3.55712 -3.24575,0.35455 0,0 z m -4.09845,-1.08375 c 3.10003,-2.74074 -1.903,-2.69423 0,0 z m 6.33806,-0.48604 c 1.54072,-3.88583 -3.09095,-0.23944 0,0 z M 151.68015,248.3585 c 6.29112,-2.6856 -1.46386,-7.64113 0,0 z m 228.88759,-0.54346 c 2.60248,-8.41834 -7.35301,-2.77919 0,0 z m -4.93212,-0.36055 c 0.6307,-2.82888 -2.45779,1.38026 0,0 z m -123.99374,-0.41455 c -0.80761,-2.80066 -2.59218,1.86959 0,0 z m -4.29251,-0.45895 c 0.73439,-2.69515 -3.54181,2.19506 0,0 z m 84.09662,-1.2699 c 6.33074,-3.19248 -4.16462,-0.84693 0,0 z m 44.42658,-1.82607 c 4.00804,-7.04796 -3.33457,2.52193 0,0 z m -36.55466,-0.16797 c 1.78162,-6.21248 -6.97794,0.30246 0,0 z M 199.59849,241.6334 c -0.71305,-3.09144 -2.67202,2.16832 0,0 z m 122.62683,-1.36102 c 0.54118,-3.63374 -2.2651,2.29924 0,0 z m -158.57675,0.19959 c -1.62002,-4.64278 -3.19529,4.26196 0,0 z m 216.02267,-0.0906 c 0.30013,-4.77735 -4.56013,1.58123 0,0 z m -173.38725,-1.1383 c 2.66679,-6.62882 -2.97724,2.7458 0,0 z m -49.90893,0.47008 c -0.41826,-8.57794 -8.96606,0.70103 0,0 z m 60.17319,-1.09237 c 6.47131,-2.75323 -3.50653,-1.37208 0,0 z m 6.58018,-0.0944 c 1.34535,-2.40151 -3.06023,0.94739 0,0 z m 4.46258,-0.15287 c 0.97211,-7.85895 -6.8275,2.62591 0,0 z m 123.14854,0.0125 c 1.80597,-4.90181 -3.08335,0.54277 0,0 z m -148.81536,-0.0401 c 5.32146,-0.99063 -0.48238,-3.34025 0,0 z m 105.39246,-0.90097 c -1.97807,-3.6928 -2.57025,1.15687 0,0 z m 11.65736,0.16067 c 1.23521,-3.20379 -2.79181,0.52388 0,0 z m -19.59235,-0.80244 c -2.36011,-2.92109 -2.22449,2.30702 0,0 z M 189.05123,234.9996 c 1.61699,-6.99477 -2.28801,1.63055 0,0 z m 33.58367,-0.38225 c 7.51969,-2.56185 -2.92153,-5.43483 0,0 z m 146.25553,-1.21529 c 0.96878,-4.31516 -2.43231,2.54143 0,0 z m -234.26848,-0.0218 c -0.7844,-3.50326 -3.02469,1.08009 0,0 z m 74.96218,-0.76664 c 7.006,-0.44217 -0.15841,-4.69607 0,0 z m -1.81008,-0.29659 c -0.87287,-2.75525 -1.36528,2.49174 0,0 z m -16.65436,-0.74297 c 1.09617,-2.76428 1.11507,-18.66079 -1.41342,-9.21145 -4.85748,-7.20189 -1.54103,9.20905 1.41342,9.21145 z m 26.99636,0.37938 c 4.66615,-3.54364 -7.34319,-0.0215 0,0 z m -66.38272,-1.47048 c 1.61843,-6.33562 -2.71948,1.28789 0,0 z m 138.52149,0.7865 c -1.84963,-4.07683 -3.54673,3.15828 0,0 z m -148.84563,-0.66912 c -0.8787,-2.94313 -2.22857,2.16094 0,0 z m 207.95071,-0.0782 c 11.56869,-7.07415 -10.85642,-8.64461 -15.57607,-11.33718 -8.94857,-0.80784 5.12914,12.33807 11.16271,10.79017 1.45849,0.26964 2.93279,0.45619 4.41336,0.54701 z m -126.69065,-0.52181 c 1.73268,-4.96386 -4.43294,1.61461 0,0 z m -93.18204,-0.88667 c 2.91778,-4.82518 -4.30835,0.96872 0,0 z m 27.42643,-0.0865 c -0.005,-3.42124 -1.91413,2.21879 0,0 z m 29.62694,-0.10911 c 3.33708,-6.06999 -3.33082,-15.6571 -1.54435,-3.76492 -0.28655,1.25541 -0.44843,3.88218 1.54435,3.76492 z m 23.13796,-0.31491 c 4.06521,-5.70691 -2.72377,0.092 0,0 z m -71.41449,-1.87668 c 18.6424,2.67283 8.24324,-33.55534 -5.17426,-19.84733 -0.92515,2.94271 -4.5997,6.35668 -3.1212,0.78428 -11.05346,5.42086 3.08033,21.59441 8.29546,19.06305 z m -10.83547,-12.35237 c -2.17134,-3.08309 2.47587,-2.30517 0,0 z m 4.06924,-2.97286 c 1.05501,-4.96275 5.71647,-1.40432 0,0 z m 88.87326,16.32199 c -0.70826,-5.72025 -6.35521,1.95599 0,0 z m -94.29183,-0.3129 c 0.0956,-8.36914 -9.34403,-0.74221 0,0 z m 57.99582,-2.09076 c -0.27144,-4.50946 -3.0493,-16.16638 -3.41737,-4.91619 -0.006,2.01188 0.81975,5.06416 3.41737,4.91619 z m 37.61212,-2.86851 c 4.27878,-10.16011 22.91904,-13.80225 17.67285,-27.28156 -5.34332,-7.35923 -8.74264,11.41163 -9.48177,0.44882 -3.6782,-7.11675 -9.07575,8.36608 -8.69415,-3.72502 2.95446,-10.23033 -6.53133,-22.42099 8.07635,-27.12236 11.14701,-1.86941 17.25736,-18.73359 8.17168,-24.53063 -1.24819,11.58138 -11.75688,17.52104 -20.76883,22.97408 -12.65801,8.34041 -5.50026,25.03784 -7.58471,37.52395 -0.49298,9.53982 -2.05584,22.71693 12.60858,21.71272 z m 0.3328,-9.66138 c -5.08274,0.24243 -3.91931,-5.53105 0,0 z m -5.44565,-46.88784 c -0.32889,-2.95606 3.02154,0.81696 0,0 z m 143.94735,56.45111 c 1.3919,-3.41898 -2.42415,1.65999 0,0 z m -235.55571,-0.0607 c -0.28031,-2.96554 -2.45894,1.77687 0,0 z m 51.56869,-2.02904 c -0.32073,-4.35693 -2.94482,0.1996 0,0 z m 189.66,-0.0657 c 0.70715,-3.66706 -2.98707,0.21284 0,0 z m -12.32178,-0.90203 c 0.82155,-3.66149 -4.10264,0.4105 0,0 z m -6.2894,-0.40667 c -0.5972,-2.88053 -1.74181,2.39691 0,0 z m 15.79742,-0.33134 c -1.45994,-5.86274 -6.89084,0.28059 0,0 z m -184.9657,-1.77995 c 4.58443,-5.56979 -3.20409,0.0654 0,0 z m -1.57615,-0.53446 c -1.94399,-5.67023 2.06926,-6.91432 2.55358,-5.30821 -1.15339,-15.99068 -11.14191,6.0574 -2.55358,5.30821 z m 16.03763,-2.90455 c -2.01893,-8.92325 -5.72961,3.44705 0,0 z m -38.10572,1.26028 c 2.71661,-3.52826 -2.9646,-1.46153 0,0 z m -2.9603,-0.13744 c 0.62445,-4.75019 -4.97418,-4.42535 0,0 z m 11.8451,-0.10886 c 0.37555,-7.54188 -6.21577,0.4632 0,0 z m 142.92535,-0.80249 c 5.94436,-3.71173 -10.55413,-7.76535 -12.24195,-9.04698 -11.16125,2.92253 -4.45928,10.33773 3.67543,6.69911 2.95894,-0.42346 6.68864,-0.46634 8.56652,2.34787 z m 50.27131,-0.28991 c -0.0287,-3.37537 -2.13658,2.13984 0,0 z m -235.06326,-0.93077 c 1.48756,-3.06439 -2.64003,1.13414 0,0 z m 51.25696,-0.74336 c 2.98811,-4.13433 -3.76531,-3.92452 0,0 z m 26.85966,-0.253 c 6.12118,-16.26804 -11.8845,-24.67709 -16.43539,-36.961 -6.74813,-13.74825 -21.5921,-9.37066 -29.22544,9.6e-4 -11.18213,1.09099 -14.95913,16.65164 -1.11767,14.86026 0.0549,-5.72102 -8.446,-8.47187 1.2337,-6.17333 11.6653,-2.03881 27.10081,0.0923 27.68506,14.15765 5.65629,5.05864 14.736,6.47465 17.85974,14.11546 z M 160.14108,178.3496 c 4.23164,-8.10663 8.17637,-0.2156 0,0 z m 7.91911,-1.96251 c -1.81494,-3.00481 3.3592,-1.22855 0,0 z m 163.43292,33.23712 c 0.76992,-3.45675 -2.72864,0.62207 0,0 z m -142.11244,-0.13522 c 3.74708,-5.58113 -3.25237,0.6879 0,0 z m 147.97654,-0.66152 c 1.16888,-3.23899 -2.64322,1.55315 0,0 z m -150.52718,-0.44973 c 2.08016,-3.32862 -2.71206,-0.89441 0,0 z m -36.09126,-0.313 c -1.17312,-4.76648 -3.13241,0.19643 0,0 z m 6.35288,-1.52869 c 10.10828,-6.87331 -12.10874,-8.77149 -1.83626,-1.51552 0.49789,0.52028 0.25888,6.04382 1.83626,1.51552 z m 27.13992,0.23759 c -0.62014,-3.22862 -1.51403,3.28003 0,0 z m -11.33809,-1.5264 c 3.46789,-9.44021 -8.15251,-4.06372 -0.30815,1.14264 z m -47.78772,0.2353 c 2.92653,-3.21194 -2.38988,-1.96264 0,0 z m 21.64472,-1.13461 c -1.7363,-5.41237 -4.60368,2.21949 0,0 z m 96.11784,-1.48516 c 3.30536,-1.43356 -1.39082,-2.47412 0,0 z m 34.12524,-0.7058 c 3.8437,-4.60752 -4.87106,2.0953 0,0 z m -132.51229,-0.14913 c -0.98736,-3.96164 -2.80964,0.59912 0,0 z m 140.65035,-0.19505 c -0.56517,-3.17289 -1.88962,2.66515 0,0 z m -17.22814,-0.0471 c 7.21093,0.18434 -5.71835,-2.91224 0,0 z m 43.55267,-0.18228 c 2.91692,-4.5521 -9.09254,-10.11365 -4.31582,-2.93977 -6.59834,-1.75615 -9.14473,1.57695 -0.91803,2.53421 1.72001,0.33723 3.47494,0.56777 5.23385,0.40556 z m -136.01972,-1.80524 c 2.35724,-3.29087 -3.0707,0.13554 0,0 z m 109.36159,-1.28669 c -5.8465,-4.74041 10.43762,-6.3787 0.48002,-10.36858 -7.18984,-5.2793 -5.83337,10.59167 -0.48002,10.36858 z M 174.48874,198.2128 c 1.07488,-3.90678 -2.86198,1.88325 0,0 z m 143.44678,-0.41241 c 3.45459,-2.63969 -2.20715,-2.1732 0,0 z m -189.74273,-1.33491 c 1.81496,-3.95366 -2.56895,1.89426 0,0 z m 211.55061,0.10921 c 5.18989,-10.24002 -9.36132,-9.00221 0,0 z m -69.59484,-0.44286 c 12.27204,-9.84394 -15.85579,-3.67596 -0.85635,0.31767 l 0.64048,-0.23759 z m 55.94419,-0.062 c 7.83716,-5.5316 -11.65263,-13.38299 -3.95714,-1.90314 0.81971,1.30161 2.39986,2.16132 3.95714,1.90314 z m -10.59129,0.10897 c 3.11227,-2.81657 -3.24255,-1.392 0,0 z m -14.88765,-0.53499 c 3.3237,-6.72326 -5.57586,-1.69715 0,0 z m -143.03788,-0.47584 c -1.75974,-9.69245 -10.514,3.0382 0,0 z m 14.41756,0.38484 c 0.87615,-3.69516 -3.85481,0.89755 0,0 z m 122.03539,-1.18156 c 0.83952,-5.40523 -5.1135,-4.38227 0,0 z m 56.20192,0.95685 c 2.63508,-5.29713 -5.07116,-1.81027 0,0 z m -185.93266,-0.40911 c 2.92358,-3.01367 -2.5158,-1.31424 0,0 z m 92.7993,-0.35518 c 4.86578,-8.62974 -12.08593,-8.52853 -2.20339,-0.82556 l 1.03833,0.58383 z m 88.76448,-0.10648 c 1.67904,-3.6607 -3.45183,0.6865 0,0 z m -121.81804,-0.47732 c 4.73774,-4.17069 -2.2197,-6.17826 0,0 z m -89.03471,-0.1096 c 2.24952,-3.64955 -1.77214,-1.93796 -0.83411,0.27663 z m 2.3719,0.04 c 5.76552,-4.35663 -4.44441,-0.29292 0,0 z m 3.12007,-0.22464 c 1.60454,-3.52815 -2.87352,0.8646 0,0 z m 4.28598,0.26376 c 0.86795,-3.00337 -2.51115,1.61599 0,0 z m 104.78205,0.0274 c -2.23547,-5.11273 -6.16791,1.50339 0,0 z m -83.24214,-0.50553 c 4.15135,-3.02555 -4.0497,-0.12382 0,0 z m 150.02693,-1.49603 c 0.92087,-3.31626 -2.73583,1.07683 0,0 z m 28.40108,-0.30368 c 7.56279,-0.55992 -2.71729,-2.27669 0,0 z m -172.07713,-0.94363 c -0.17518,-3.7626 -1.7679,2.55163 0,0 z m -4.57321,0.0921 c -0.4367,-7.36753 -7.51279,0.0937 0,0 z m -30.19631,-1.73392 c -2.17116,-2.41286 0.14012,3.14582 0,0 z m 94.48798,0.84953 c -0.0936,-9.07576 -7.41852,-0.0942 0,0 z m 68.16339,-0.11167 c 0.98701,-5.09314 -4.40696,-5.4788 0,0 z m -138.86379,-0.513 c -1.65576,-3.93513 -2.79394,0.55705 0,0 z m 77.97632,-0.43694 c 8.39003,-9.45106 -13.44526,3.16093 0,0 z m 66.62688,-0.76281 c 1.392,-6.36302 -2.93823,-0.23717 0,0 z m -14.11068,-0.50989 c 0.8488,-3.90632 -2.90358,0.78201 0,0 z m -16.00962,-2.87998 c -0.36413,-6.64217 -1.86516,4.19724 0,0 z m -76.52681,0.28106 c 1.6726,-4.27991 -5.09536,-0.55851 0,0 z m 141.12241,-1.32713 c -0.8593,-3.22853 -1.29848,3.024 0,0 z m -137.78854,-0.18072 c 5.35212,-4.06675 -3.39559,-12.06643 -0.35111,-3.01684 -0.26942,0.0462 -1.81819,4.45719 0.35111,3.01684 z m 76.63071,0.28877 c 1.62519,-3.35479 -3.73795,0.99412 0,0 z m 11.74362,-0.81874 c 1.23768,-9.22459 -7.47696,-3.3211 0,0 z m 47.31167,-0.82795 c 2.35263,-3.82591 -4.12348,0.9534 0,0 z m -112.43759,-0.10248 c 10.43358,-3.03405 -7.43224,-16.62047 -2.90056,-4.1553 0.67368,1.43924 1.14116,3.55405 2.90056,4.1553 z m 10.05307,-0.85473 c 17.03942,-2.96364 -10.29632,-15.99844 -1.26813,0.0168 0.27,0.58398 0.84592,-0.0131 1.26813,-0.0168 z m 61.40466,0.4365 c 5.17133,-5.93664 -11.30327,-14.93741 -3.29916,-4.73945 0.47798,1.86729 1.26716,4.06453 3.29916,4.73945 z M 197.63601,181.4152 c 0.25506,-5.07544 -5.81301,-4.7669 0,0 z m 82.93672,-1.14182 c 0.88242,-6.36712 -2.71836,1.1305 0,0 z m -27.3011,-0.38369 c 7.73858,-11.37073 -11.90553,-2.66072 0,0 z m -65.54299,0.54083 c 14.54483,-3.46783 -12.771,-24.90381 -1.93258,-7.49194 0.79389,2.46188 0.98825,5.07209 1.93258,7.49194 z m 98.13398,-0.90757 c 0.48073,-4.75453 -4.26758,-4.99495 0,0 z m 22.87653,-0.0929 c 8.90119,-4.71668 -2.68413,-10.42076 0,0 z M 200.64234,179.0345 c 3.3166,-7.78557 -7.07498,-9.84087 -1.25078,-1.63694 z m 65.37474,-0.37518 c 9.75432,2.47251 7.97159,-18.92321 0.0525,-7.86057 -5.45374,0.63591 -4.48353,6.38591 -0.0525,7.86057 z m 56.3088,-0.27812 c 6.64139,-7.25147 -5.28567,-7.79514 0,0 z m 14.03129,0.45218 c 2.47458,-3.03401 -2.84124,-0.91507 0,0 z m 3.40601,-0.73786 c 1.00398,-3.96175 -3.28765,0.44619 0,0 z m -5.09863,-2.63254 c 1.26551,-4.08112 -2.6027,2.25992 0,0 z m -47.32125,-1.10356 c 2.64361,-5.50666 -5.89465,0.48821 0,0 z m -80.41963,-0.84144 c 3.01742,-7.55144 -12.2037,-10.68511 -2.18126,-3.24318 0.66511,1.10093 0.599,2.89419 2.18126,3.24318 z m 97.81328,-0.22364 c -0.28875,-6.27938 -2.17726,1.44102 0,0 z m -152.69417,-0.90658 c 5.20503,-1.48821 -0.92414,-3.01687 -0.26953,0.003 z m 43.11204,-0.36534 c 0.40925,-5.15834 -4.80945,-0.38327 0,0 z m -38.99225,-0.47276 c 2.36302,-3.15958 -4.62017,3.00216 0,0 z m 93.16363,-1.592 c 1.68095,-5.33124 -3.44165,1.48309 0,0 z m 35.66404,-0.96108 c 5.47463,-7.04813 -12.30967,-13.8782 -5.30353,-3.82577 1.87185,1.08303 4.28831,1.69524 5.30353,3.82577 z m 45.37494,0.0524 c 2.81301,-4.68438 -4.86632,1.27764 0,0 z m -137.00341,-0.38237 c 6.14696,-3.18946 -0.19352,-15.56556 -1.62361,-5.29654 -0.44143,-4.7759 1.75653,-11.29265 -3.06883,-11.34369 -4.58813,-5.64548 -8.51347,14.25401 -0.0649,9.52008 1.48597,2.19205 0.33559,8.45927 4.7573,7.12015 z m 73.07502,-0.35212 c 6.12309,-6.85656 -9.62479,-7.9081 -1.89278,-1.41195 z m 43.54953,-0.0341 c 6.06924,-0.47813 0.36388,-6.40147 0,0 z m 14.64361,-0.14362 c 0.62199,-6.95346 -6.75387,-1.03924 0,0 z M 294.9889,168.0207 c 0.77611,-6.26274 -6.78092,-1.73966 0,0 z m -135.18128,-0.28756 c 4.53361,-2.95256 -4.19491,0.008 0,0 z m 128.655,-0.2505 c 3.18119,-3.1128 -0.34235,-2.58363 -0.69621,0.0843 z m 10.01894,-0.23204 c 4.92,-7.06099 -11.97061,-10.84466 -2.23336,-2.88125 0.29217,1.09835 0.44144,3.24737 2.23336,2.88125 z m 29.89887,-0.66313 c 3.48408,-3.68832 -3.85321,0.99588 0,0 z m -76.30971,-0.0536 c 8.03186,-4.33487 -1.99009,-10.22588 -1.93489,-2.36511 l 0.69679,1.13848 z m -16.03856,-0.52481 c 7.55741,4.89342 7.50943,-13.56864 1.73048,-3.33957 0.0239,-0.0153 -4.70053,3.43558 -1.73048,3.33957 z m -76.78177,-1.18136 c 0.89111,-4.01887 -3.1031,1.46421 0,0 z m 149.68939,-0.28414 c 1.96327,-4.21974 -5.2633,-2.63722 0,0 z m 17.55993,-0.19169 c -0.49944,-3.00465 -2.21097,2.3169 0,0 z m -119.41954,-1.78873 c -3.66418,-8.51726 -8.63795,1.60042 0,0 z m 117.8033,-0.79855 c -0.0148,-3.02588 -2.51799,1.8428 0,0 z m -15.45066,-1.1883 c 2.57307,-3.91281 -2.34424,-1.19398 -1.09229,0.4982 z m 2.495,0.43217 c 2.9583,-3.65266 -3.15455,0.076 0,0 z m -98.64509,-0.33621 c 5.09347,-6.15596 -5.01832,0.70755 0,0 z m -49.41782,-1.08599 c 4.86471,-2.09924 2.80079,-3.71094 0,0 z m 157.26195,-2.22665 c 0.55192,-6.79893 -6.92003,-0.1366 0,0 z m 3.48275,-1.36238 c 0.33343,-5.0401 -2.87554,0.87074 0,0 z m -8.56643,-2.63237 c -5.9663,-7.31925 -13.0551,3.15503 0,0 z M 197.88799,152.1529 c 12.46969,-0.79181 1.31468,-20.43538 -6.93426,-14.61426 -2.36024,4.77299 0.93276,14.46756 6.93426,14.61426 z m 77.37066,-0.4615 c 0.29211,-3.69552 -3.65853,1.65044 0,0 z m 10.85767,-0.39603 c 8.84248,-2.90926 -10.95529,-1.1257 -0.85815,-0.0748 l 0.68055,0.0593 z m -13.79542,-0.21492 c 0.19706,-3.02812 -2.90273,2.42845 0,0 z m 24.66694,-0.0981 c -3.03482,-4.85603 -5.59242,3.13031 0,0 z m -31.85086,-0.10697 c 6.08393,-4.77048 -8.58784,1.50482 0,0 z m -51.81896,-0.20946 c 5.86743,2.23412 11.63769,-3.53519 2.54525,-2.26686 -3.19417,-0.9634 -9.72594,2.45568 -2.54525,2.26686 z m 41.33903,-0.81817 c -1.27136,-4.54306 -4.47889,2.67218 0,0 z m 6.25817,0.0288 c 0.003,-4.12433 -2.29009,2.27724 0,0 z m -3.91243,-0.3027 c 3.93249,-1.20437 -5.66361,-0.25098 0,0 z m -6.38959,-0.10251 c 1.31363,-2.68696 -2.72379,0.99131 0,0 z m -23.14344,-0.23454 c 5.04742,0.005 -2.63258,-1.11037 0,0 z m -17.77143,-1.45022 c 12.07926,7.83265 34.88482,-12.1356 14.56111,-16.06938 -5.81816,1.39291 -22.38874,8.37318 -14.56111,16.06938 z m -21.54404,-7.92107 c 1.23618,-5.012 -5.07335,1.42634 0,0 z m 18.78536,-5.38699 c 6.73384,-3.19715 -4.36879,-1.38539 0,0 z m -7.1788,-0.1331 c 6.24362,-2.63371 -3.92216,-0.0639 0,0 z m 38.24481,-0.54106 c 3.88483,-1.6805 -2.21074,-1.74413 0,0 z M 216.0108,132.3537 c 1.50743,-3.96449 -3.48813,0.46879 0,0 z m 19.13223,-1.0956 c 5.7732,-12.4788 -11.10507,1.76304 0,0 z m -54.45654,-0.98496 c 2.76293,-3.98809 -2.94069,1.94756 0,0 z m 43.31657,0.23475 c 2.90445,-3.60426 -3.10005,1.63651 0,0 z m -19.70072,-0.86463 c 2.37936,-4.56575 -3.57833,2.14794 0,0 z m 32.64125,-3.66132 c 3.39206,-3.03887 -2.92164,-0.58761 0,0 z m -15.59208,-0.58687 c 8.90826,-3.04665 -0.34501,-9.41801 0,0 z m 16.29025,-3.42031 c 1.98547,-5.27756 -2.47207,2.01266 0,0 z m 1.74213,-6.78564 c -3.90898,-2.39873 1.01905,4.59167 0,0 z"
         sodipodi:nodetypes="sccccccccccccccccccsscccccccccccccccccccccccccccccccccccccccccccccccccccccccccccccccccccccccccccccccccccccccccccccccccccccccccccccccccccccccccccccccccccccccccccccccccccccccccccccccccccccccccccccccccccccccccccccccccccccccccccccccccccccccccccccccccccccccccccccccccccccccccccccccccccccccccccccccccccccccccccccccccccccccccccccccccccccccccccccccccccccccccccccccccccccccccccccccccccccccccccccccccccccccccccccccccccccccccccccccccccccccccccccccccccccccccccccccccccccccccccccccccccccccccccccccccccccccccccccccccccccccccccccccccccccccccccccscccsscccccccccccccccccccccccccccccccccccccccccccccccccccccccccccccccccccccccccccccccccccccccccccccccccccccccccccc" />
      <path
         id="path903"
         style="display:inline;fill:#969896;stroke-width:0.156497"
         d="m 130.0494,294.19045 c -1.56624,-8.92569 11.15252,-20.60606 15.04002,-31.39296 2.51561,-5.47798 5.12188,-10.45081 2.04725,-1.68019 -1.79226,6.9006 -13.86927,21.72015 -11.54443,22.05599 11.16649,-11.71938 16.06127,-28.27135 15.18555,-44.13783 -2.99017,-10.20429 -17.90936,0.94491 -23.14736,-9.694 -2.91453,-6.95331 -15.76826,-12.41161 -7.91669,-22.22932 5.85197,-8.45793 14.39852,-19.99095 21.02644,-25.17284 -0.0329,8.32351 14.09543,13.84841 14.17119,4.15805 -7.49102,-9.18179 7.74357,3.7344 11.92275,-3.09351 6.05309,-5.0442 10.17125,7.52363 10.16611,3.13682 -1.43943,14.5657 18.56796,13.64405 20.55356,26.03216 11.0506,-10.3767 -1.46808,-26.14402 -11.92727,-30.43098 -2.63116,-6.25783 -3.39908,-15.90129 -11.1797,-15.18819 -3.13878,-10.09784 -13.43441,3.78507 -17.14378,-5.02114 7.15259,-7.88262 19.60608,-10.71616 17.26198,-24.2118 -0.58393,-17.49196 17.64043,-12.98763 28.70834,-16.51724 6.29855,-2.93515 14.05178,-10.17063 17.63637,-0.23123 5.38369,-6.34707 22.64046,-15.37871 20.28949,0.6398 0.042,10.86193 -1.34996,30.78021 15.43134,25.97797 19.3076,0.76193 38.61421,0.54658 57.8455,2.67233 12.23136,-1.72337 16.24565,12.41551 19.70122,20.03143 1.94255,4.00152 0.50551,-6.93642 4.01808,2.41057 2.94953,6.93377 -0.34231,3.64994 5.74324,9.26347 5.72613,7.43431 4.73116,13.41344 11.96091,18.19641 7.07941,9.67532 16.13982,17.44886 23.81129,26.85365 7.87067,10.67514 9.7761,24.55638 13.28954,37.11337 0.40403,0.89881 -6.21672,-6.05281 -2.52847,1.79538 5.17001,8.24871 10.4699,11.83038 13.66431,21.35934 -5.99454,-13.78507 11.29131,6.97318 -1.763,6.44949 -17.48436,-0.54881 -24.3662,-18.7478 -33.71143,-30.14575 -12.1927,-4.24858 -25.42441,1.14515 -38.01369,0.94227 -22.65846,1.79051 -45.41871,-0.12693 -68.10821,-0.10744 -15.10839,-3.7131 14.58106,-1.61517 20.56345,-1.64848 21.82162,0.01 43.82185,2.39314 65.43028,-1.87768 8.95213,-0.42838 21.6281,-4.6417 25.97279,6.11339 6.2604,7.80516 14.03551,28.98633 25.41206,21.66399 -2.16714,-5.78906 -6.82712,-11.72153 -11.11239,-14.05115 -1.15592,-12.03952 -12.02458,-22.32279 -7.99884,-35.13507 -0.80112,-8.37621 -8.1258,3.72381 -9.7081,-2.66857 -6.92976,0.27182 1.88471,6.47495 -6.1645,2.95503 -5.55996,-1.44289 -8.43081,2.66793 -3.88195,-4.66618 -0.55425,-8.4054 -12.58624,4.46762 -17.7892,-3.15926 -6.87905,-5.89692 -17.47905,-4.74814 -9.13583,5.04103 0.78491,8.58722 -7.14169,3.06136 -1.55288,-2.17107 -4.08966,-4.28009 -11.35029,-3.91804 -3.10593,1.03501 -1.73238,0.27453 -6.62373,8.31393 -4.19932,1.14537 -5.781,0.51606 -16.27841,-3.06364 -8.46435,3.44661 -7.93632,0.86489 -11.97819,-7.03586 -21.126,-4.51788 -5.75928,-2.59255 5.29808,5.14929 -4.12454,3.42152 -10.04823,0.14995 -20.42572,-2.49273 -25.71155,6.3021 -7.94158,-0.63705 -16.33271,-1.38631 -23.73337,0.75473 -4.58307,-3.57379 2.07574,-4.43198 -5.64722,-5.78148 -3.51492,-0.64412 -7.61802,-6.0106 -7.87214,-2.74246 -6.84852,-6.76521 -11.89087,-16.56459 0.15879,-20.46409 8.20175,-7.55701 23.76425,-17.27982 6.75916,-24.91707 -10.67813,3.91575 -18.32996,-13.53469 -12.88689,-21.86626 -4.81737,5.80024 6.70956,17.93327 8.8155,6.59363 -1.04905,-4.553 -8.76951,-10.90256 1.30008,-12.26106 9.98192,-5.04885 13.30548,-20.20179 5.74031,-28.33948 -7.01173,11.78261 -4.61759,-11.70681 -14.85133,-4.68448 -8.11263,2.36933 -26.5548,14.22456 -10.60904,19.69758 5.25766,3.16603 22.9689,-4.70662 8.31474,-2.69369 -5.54811,0.22988 -13.50263,-0.43584 -3.73493,-1.43514 5.56298,-1.62401 18.01558,5.06952 16.55843,-5.38993 2.27064,14.18907 -14.49785,18.39527 -24.0499,23.18219 -2.54119,9.54597 0.98016,19.81472 -2.36615,29.43127 4.81398,10.41745 -5.3316,22.77696 7.6472,29.34886 6.55913,6.70488 -1.18846,5.32074 -4.67273,0.9537 -4.21327,4.26239 -7.348,14.4817 -16.77705,12.36486 -3.99929,5.45488 5.22645,-14.12941 -0.81469,-3.71037 -9.01956,10.52161 1.57858,-11.02813 0.0157,-15.66796 2.72099,-13.05967 -17.00946,-10.95747 -17.33404,-23.96445 -3.21177,-7.13278 -9.25047,-10.08285 -15.11889,-6.65576 0.9872,10.08871 5.8403,20.38234 4.18548,30.95331 -7.77169,1.45827 -6.28016,23.75538 4.19293,15.34107 8.77285,4.75931 -10.58136,9.24527 -11.95805,13.42197 -4.16564,11.98991 -6.63238,24.76826 -15.49242,34.51195 -8.7502,7.21801 1.22634,17.08682 7.67992,7.14824 12.27747,-8.04988 14.83155,-25.98483 25.72295,-33.26203 10.87173,2.39781 22.31588,1.77492 32.93743,4.14012 -12.41767,4.69609 -30.65573,-9.31132 -38.56281,5.14099 -8.63302,11.08336 -15.47324,27.79514 -30.59693,30.58633 -2.93717,0.0858 -5.84504,-0.39958 -8.74369,-0.79788 z m 6.54882,-7.78394 c -0.14934,-3.32907 -2.45,1.93203 0,0 z m 262.50299,-4.98168 c 0.24188,-5.74936 -7.88316,-8.06127 -1.47653,-2.13514 -0.22685,0.35989 0.0308,3.6268 1.47653,2.13514 z m -258.83099,-2.51897 c 4.41585,-2.03475 0.12865,-3.96157 0,0 z m 8.67951,-13.53316 c 0.49916,-2.66683 -2.24457,1.22029 0,0 z m 238.11897,-6.33762 c 2.47673,-3.66217 -3.97574,0.81474 0,0 z m -1.26868,-3.24794 c 4.09151,-5.58099 -5.48909,2.08325 0,0 z m -232.43688,-2.65119 c 2.30818,-4.17417 -3.38263,-0.92519 0,0 z m 231.77607,-0.2045 c 4.02615,-4.19952 -3.3387,0.9446 0,0 z m 2.17837,-1.04748 c 0.78985,-4.12508 -3.44889,-3.19298 0,0 z m -235.67287,-2.81695 c 6.93548,-6.57873 -2.45229,-10.05123 0,0 z m 234.36702,-1.77521 c 1.56782,-5.76097 -3.28634,-3.84302 0,0 z m -135.50267,-3.03854 c -1.71912,-3.92928 -4.70754,-0.69215 0,0 z m -4.77407,-1.7791 c -1.94974,-2.59136 -5.21474,1.9593 0,0 z m -81.77947,-2.05362 c 8.33257,-5.4076 -9.98381,2.29014 0,0 z m -6.85213,-0.47583 c -3.65088,-9.99291 -10.39033,-1.53786 0,0 z m 95.83739,-1.20652 c 1.67318,-2.84604 -3.07332,0.81447 0,0 z m -14.48291,-0.27601 c -1.72518,-3.3452 -2.20958,1.65772 0,0 z m -3.23631,-0.29842 c -0.48655,-4.19939 -1.91499,2.24282 0,0 z m 31.61264,-1.31334 c 6.54132,-0.71164 15.9329,-7.00289 3.60779,-3.46168 -0.75278,0.55724 -5.53993,1.7083 -3.60779,3.46168 z m 15.55967,0.15536 c 2.46011,-4.14574 -5.36796,1.15524 0,0 z m 8.83498,-0.45855 c 1.51682,-4.48869 -4.42595,2.01163 0,0 z m 19.45249,-0.33296 c -1.61406,-3.42899 -1.85693,2.55602 0,0 z m 57.39869,0.24103 c 2.49034,-3.89985 -5.12668,-22.13674 1.27187,-13.88236 0.37113,11.11116 8.04433,-6.59062 -1.70782,-5.60639 -10.68613,1.11007 -4.6332,-14.3141 -16.15222,-9.05765 -5.62145,-1.13265 -6.46284,3.048 -11.05928,-1.52747 -8.02148,2.29064 -0.002,4.73011 1.06636,8.21283 2.57962,-2.85511 12.52052,-3.42336 6.15987,-0.31056 -8.2141,0.41046 3.13755,10.04162 2.32344,3.78878 2.87483,4.88315 19.969,6.93053 10.72033,9.25231 -1.26359,3.38888 3.34594,10.38882 7.37745,9.13051 z m -1.64967,-2.14653 c -2.93577,-5.03852 -1.74187,-8.555 0.90396,-1.43331 0.3525,0.51146 -0.10625,1.82088 -0.90396,1.43331 z m -2.6036,-12.6163 c -2.56935,-5.31481 2.88791,0.006 0,0 z m -6.28808,-0.38201 c -3.20844,-9.44286 9.38362,2.53974 0,0 z m -1.3531,-5.02383 c -4.53616,-2.6498 1.72732,-2.62837 0,0 z m 2.48186,-5.60569 c -3.6813,-3.83549 2.61777,-4.8677 0,0 z m -16.48829,-0.26875 c -2.72773,-3.47438 2.85541,0.42094 0,0 z m 8.52823,-0.73186 c -3.76387,-1.19644 6.70619,-2.46535 0,0 z m -63.90944,25.61492 c -1.25683,-2.99952 -3.20495,1.75616 0,0 z m 92.05418,-0.025 c 0.87915,-3.83532 -2.76607,0.36371 0,0 z m -240.34598,-0.66234 c -0.32298,-3.78691 -3.43502,1.22216 0,0 z m 242.47381,-0.60452 c 0.14433,-4.09657 -10.16485,-12.44512 -5.94391,-4.29707 -10.08843,7.37661 7.53943,-2.11662 5.94391,4.29707 z m -65.15429,-0.60102 c 1.39046,-3.0564 -2.9868,0.83972 0,0 z m 5.46091,-0.61107 c 4.37344,-5.50424 -3.06191,-0.48046 0,0 z m -1.68488,-0.59949 c -1.6459,-3.91104 -3.50673,3.13496 0,0 z m -167.79987,-0.231 c 0.92377,-4.3394 0.89156,-13.3064 -1.00335,-4.03818 0.0566,0.52435 -1.18691,4.63923 1.00335,4.03818 z m 138.02298,-0.23929 c 1.9399,-5.41208 -9.59369,0.84615 0,0 z m -147.37799,-0.30162 c -1.31257,-3.37842 0.54351,-8.53848 2.55231,-2.44182 4.279,-7.3896 1.60103,6.94779 3.34983,-3.96513 1.25956,-5.28703 10.52011,-16.92703 3.35011,-11.95951 -2.07087,-5.31641 -6.06817,-18.71075 -17.12152,-11.29073 -10.82686,4.48985 -11.57516,20.89611 -1.10391,26.08777 3.54635,-0.27376 4.80515,5.49089 8.97318,3.56942 z m -2.91907,-2.42176 c -2.2191,-4.32914 3.09268,0.29649 0,0 z m 9.94091,-13.48504 c -3.14375,-3.80231 2.62178,-5.46354 0,0 z m -6.58623,-11.75204 c -6.02272,-2.34617 1.99381,-3.76584 0,0 z m 206.75295,26.86385 c 14.26163,-2.04133 -4.6355,-13.77154 -11.24605,-10.23603 -5.89754,-2.84005 5.48602,-2.10493 -2.55365,-4.9061 -15.99206,-0.95667 -2.30183,13.69938 6.25489,14.33703 2.38882,0.75114 5.04752,1.6112 7.54481,0.8051 z m -192.28521,-1.12006 c -0.43543,-4.67133 -2.55712,2.34478 0,0 z m -27.44387,-0.0391 c 2.90723,-5.70838 -6.07349,1.43456 0,0 z m 242.46178,-0.18075 c 1.02874,-3.13925 -2.99779,1.03684 0,0 z M 285.303,228.08386 c 1.13737,-9.31509 -10.94445,2.79741 0,0 z m -53.05491,-0.95303 c 4.97874,-3.71665 -3.56836,0.41519 0,0 z m 18.33831,-1.17816 c -1.2087,-3.79668 -1.50913,2.31418 0,0 z m 43.30489,-3.42766 c -1.68389,-4.33515 -0.10297,3.65408 0,0 z m -168.74102,-0.16856 c -0.27553,-4.91622 -4.60906,2.0459 0,0 z m 84.46934,-0.5982 c 1.86389,-3.2762 -3.3897,0.69516 0,0 z m 96.18649,0.0678 c 1.28174,-4.71846 -2.92864,-1.06422 0,0 z m -182.82781,-1.3887 c 3.76544,-3.93461 -3.53905,0.96328 0,0 z m 33.1229,-2.27591 c 1.80646,-5.03521 -4.09639,2.18975 0,0 z m 107.04412,-0.47581 c 0.86054,-3.58976 -3.24506,1.50965 0,0 z m 3.33597,-1.14246 c 3.42519,-6.1723 -4.67719,-0.43623 0,0 z m 14.21238,-0.11512 c -1.48024,-4.78287 -4.56398,0.45319 0,0 z m 39.97454,-1.09296 c -4.26988,-5.08424 -7.34594,2.58546 0,0 z m 2.97112,0.0928 c 8.04041,-3.33241 -6.99337,-4.01097 0,0 z M 164.39169,214.8402 c -1.47028,-8.66118 -7.14474,0.99037 0,0 z m 147.61988,0.23015 c -1.27873,-7.12397 -13.97814,-7.33025 -17.49188,-14.19571 -2.49271,3.33905 0.0809,8.02363 -5.89497,4.274 -10.01308,6.89406 4.96298,9.02948 10.44809,6.65334 4.44789,0.47623 8.67392,2.01438 12.93876,3.26837 z m 20.96821,-1.79798 c 8.86858,-9.01814 -21.06931,-4.27323 -4.44971,-1.16547 5.59031,-3.61012 -3.87103,4.06883 4.44971,1.16547 z m -79.73292,0.30499 c -4.14468,-8.26045 -5.87191,0.28914 0,0 z m -5.24683,-0.71852 c -1.01988,-4.07001 -5.15315,1.04154 0,0 z m -125.96842,-0.44526 c 0.76674,-4.59255 -3.68011,2.11378 0,0 z m 118.65025,0.24993 c 3.85067,-3.25035 -4.00385,0.53539 0,0 z m 16.16893,-1.08888 c 1.4249,-5.52617 -4.65442,-0.69446 0,0 z m 57.09905,0.14307 c 0.68095,-2.97239 -3.35383,0.14895 0,0 z m 7.65536,-1.21174 c 1.86658,-5.9654 -5.63903,3.34137 0,0 z m -62.70932,-1.15012 c 2.06958,-8.02217 -2.79455,3.78616 0,0 z m 59.00761,0.45704 c 0.57873,-2.21814 -3.12068,0.95339 0,0 z m -69.75684,-1.67723 c -1.0129,-6.7502 -5.72041,-1.1617 0,0 z m 66.9269,0.5887 c 1.11089,-3.40322 -3.56522,1.1773 0,0 z m 10.67824,0.0175 c 2.56107,-3.63438 -3.87033,0.0625 0,0 z m -169.42127,-0.6771 c 11.42493,-4.40013 -2.48377,-23.87941 -4.06341,-14.35179 -2.04128,6.01861 -0.10364,10.32784 3.6617,12.62778 -1.88364,2.31255 -0.49088,1.80286 0.40171,1.72401 z m -30.8801,-2.8152 c 1.40038,-5.6502 -3.25873,3.52893 0,0 z M 316.7565,205.0929 c -3.97972,-3.67157 -6.9623,1.44622 0,0 z m 5.51592,0.032 c 0.11467,-2.36585 -3.25079,1.30004 0,0 z m -15.90984,-0.38135 c 13.07486,0.28741 -5.60468,-25.0426 -0.89662,-13.86283 1.01833,7.03196 -5.28946,9.17764 -3.73262,1.12495 -4.34903,-19.21463 -5.32961,14.38869 4.62924,12.73788 z m -0.43808,-6.52322 c -0.32809,-3.19425 2.36407,1.96962 0,0 z m 27.37487,6.59032 c -1.47244,-5.20383 -6.52318,0.85439 0,0 z m 5.5952,-1.16997 c 3.45382,-3.40676 -5.33906,1.25373 0,0 z m -83.19042,-0.17937 c 0.85658,-4.28189 -2.88439,-0.69131 0,0 z m 62.85286,0.041 c -1.68608,-5.70554 -6.83117,-0.8348 0,0 z m -48.99899,-0.54644 c 9.51344,-2.49079 -9.94204,-3.35413 0,0 z m 8.67342,-0.50888 c -2.09187,-5.83239 -6.52577,3.03544 0,0 z m 69.22676,1.04296 c -2.05934,-2.40051 -4.66334,0.68125 0,0 z m -22.8799,-0.42527 c 1.17399,-4.39723 -4.02304,1.08379 0,0 z m -39.45173,-0.44813 c 6.95325,-1.6953 -6.89404,-1.08717 0,0 z m 53.41017,-1.08348 c -0.73771,-2.35922 -2.70209,1.88669 0,0 z m 14.82935,-0.57536 c 1.16711,-3.46877 -3.48687,-4.80754 0,0 z m -223.11427,0.0194 c 2.83553,-3.70439 -6.66124,3.36523 0,0 z m 203.40201,0.22072 c -0.94955,-2.48194 -3.15622,1.37674 0,0 z m -83.72899,-0.35553 c 6.68263,-8.42303 -15.69337,-11.88189 -2.84501,-3.94759 1.33283,0.99591 2.11318,2.50258 2.84501,3.94759 z m 30.18605,-0.52696 c 2.21011,-3.3822 -3.40324,-0.0793 0,0 z m 69.17606,-1.00263 c 1.54354,-3.63185 -3.54505,1.12316 0,0 z m -32.0884,-0.26388 c 2.28741,-4.09042 -4.32385,-1.57654 -0.28195,-8.56711 -0.91327,-10.93469 -6.05129,9.84526 0.28195,8.56711 z m -46.84426,-0.80432 c 7.21039,-4.04048 7.49801,-18.08812 -0.0975,-11.66316 -0.0242,4.11013 -9.15228,-4.90551 -7.04065,3.74189 0.68595,3.42311 2.89914,8.38692 7.13818,7.92127 z m 14.6349,0.26149 c -2.04544,-3.94592 8.73387,-1.21971 2.62908,-7.2241 -5.77656,-16.31105 -12.21117,5.30525 -2.62908,7.2241 z m -149.41797,-0.42349 c 0.87981,-3.36289 -3.34565,1.1771 0,0 z m 190.57539,-0.47604 c 11.12158,-5.09284 -9.53354,-20.85754 -4.82466,-5.72018 0.57221,2.27485 1.754,6.25168 4.82466,5.72018 z m -71.57968,0.17976 c -0.11938,-3.97107 -4.30795,-1.97317 0,0 z m 40.3697,-0.57175 c -1.59,-10.47774 -6.57258,-21.87335 -8.70046,-30.91027 8.98033,-3.19978 -8.45182,-16.35392 -9.75459,-4.41369 9.41086,6.75738 8.86135,17.09888 14.20349,26.63072 1.11291,3.02984 2.26068,6.10676 4.25156,8.69324 z m -8.80775,-19.0773 c -5.15,-5.14803 3.78808,-3.64585 0,0 z m -140.01454,18.86657 c 0.10161,-3.81028 -3.59855,1.60631 0,0 z m 193.62939,-0.005 c 6.98085,-3.65216 -5.62303,-17.35673 -3.07945,-4.84255 -0.0646,2.01931 0.89026,4.36205 3.07945,4.84255 z m -42.45526,-0.76723 c -0.44116,-5.68235 -2.48668,2.05017 0,0 z m -38.78876,0.16739 c 6.74484,-8.50421 -11.67475,-16.52286 -5.70634,-3.77208 1.67541,1.62794 4.11968,2.02379 5.70634,3.77208 z m 88.45417,-0.27573 c -1.36391,-4.09078 -1.50056,-11.24989 -2.76944,-2.21151 0.50833,1.12423 1.59149,1.91623 2.76944,2.21151 z m -44.09672,-0.30493 c 2.84428,-5.54564 -3.34326,0.84916 0,0 z m -167.01535,-0.32444 c 11.53084,1.66275 -0.70156,-16.71278 -2.41041,-2.98128 -1.16113,1.84076 0.38756,4.08363 2.41041,2.98128 z m 8.78477,-0.92094 c 2.36904,-6.03052 -5.64707,-0.55316 0,0 z m 90.21494,-2.28965 c 7.92543,-1.53659 10.00856,-11.15226 0.3269,-5.88262 -6.74176,-1.49028 -12.49221,0.14971 -3.06913,2.99021 2.98188,-0.25479 0.40854,3.52206 2.74223,2.89241 z m -59.85005,-1.38118 c 2.35475,-6.18717 -3.00418,-0.26216 0,0 z m 168.56976,-1.12467 c 1.23613,-3.1605 -2.87367,1.47283 0,0 z m -97.31712,-1.06019 c 0.69266,-5.73368 -2.42709,2.56862 0,0 z m 66.79584,-0.87026 c 1.66867,-6.13392 -4.09583,1.71449 0,0 z m 29.60596,0.54066 c 0.98957,-2.96048 -2.97594,0.74264 0,0 z m 2.19096,-1.78496 c 0.2534,-4.07391 -4.59387,-4.13169 0,0 z m -43.32179,-0.96706 c 4.66683,-5.27896 -4.11655,-1.15263 0,0 z m 29.15703,0.0503 c 2.48642,-4.17176 -2.99361,0.13638 0,0 z m -189.16429,-0.45717 c -1.7099,-3.55169 -4.22209,1.40652 0,0 z m 58.23194,0.0161 c 1.2075,-6.32868 -9.24442,-11.74625 -3.09774,-2.93157 0.81675,0.84739 1.3239,3.33427 3.09774,2.93157 z m 126.98,-0.93074 c -2.2509,-4.43201 -3.59179,2.15399 0,0 z m -13.49978,-0.15408 c 7.1199,-0.35554 -7.15759,0.009 0,0 z m -110.24732,0.27387 c 6.18014,-3.69295 -4.12366,-18.93563 -0.32737,-6.01659 0.39561,1.64926 -3.36513,6.3159 0.32737,6.01659 z m 137.48509,-0.20126 c 0.94697,-7.83653 -7.67276,-1.6599 0,0 z m -60.45542,-0.22911 c 1.46441,-4.31781 -5.07643,0.40937 0,0 z m -17.30778,-0.35212 c 1.47984,-3.80373 -3.09906,0.24163 0,0 z m 20.39755,-1.14122 c -1.6979,-10.24983 -7.67488,-1.58433 0,0 z m -44.42154,-0.1264 c 14.03848,-1.18586 -2.5078,-22.20253 -5.68488,-6.3284 -0.545,3.16136 2.47798,6.56782 5.68488,6.3284 z m 81.46868,0.21514 c 0.85423,-2.68504 -2.86638,0.84704 0,0 z m -19.05345,-0.65714 c -0.84869,-6.74549 -14.43063,-18.53772 -7.53628,-5.6943 0.78577,3.36665 3.33172,7.82545 7.53628,5.6943 z m -48.0556,-0.59871 c 11.01567,-2.97502 -5.04908,-17.52511 -2.82916,-3.92599 -0.40965,1.72268 0.34643,4.92306 2.82916,3.92599 z m -64.94631,-0.93898 c 14.84594,-4.74752 -13.36464,-27.20023 -4.57357,-9.45649 1.39544,2.95686 0.0478,9.09033 4.57357,9.45649 z m -3.06982,-4.5036 c -1.30138,-4.99787 3.03112,-2.43198 0,0 z m 124.1014,3.98499 c 10.84439,-3.3663 -1.17767,-12.8961 -2.55181,-1.63858 -0.87894,1.99989 1.27819,3.40768 2.55181,1.63858 z m -43.98599,0.21159 c 13.79262,2.36167 9.68472,-18.69353 5.47786,-17.90944 10.06188,-1.84432 -17.03293,-10.22635 -8.29276,1.81482 1.63712,8.68111 9.77255,-4.60998 7.9772,5.65239 -7.3619,0.15538 -12.0633,5.19013 -5.1623,10.44223 z m -64.49931,-0.2016 c 4.37954,-8.72876 -14.72321,-28.02685 0.6051,-27.34505 4.26035,-3.33627 2.62636,-17.44168 -3.05149,-15.74185 2.19899,-3.68222 16.98343,-15.90784 4.45638,-11.2111 -1.94274,4.64069 -4.84375,8.60589 -6.55605,7.72911 -2.23881,5.39174 -11.37039,-3.92015 -13.39517,0.48723 -2.37597,7.30321 12.8825,5.34339 7.72932,14.07825 5.58959,6.35917 -7.17754,-5.04839 -5.53002,2.89964 0.41729,-5.74603 -1.18089,-12.50686 -1.05462,-2.81079 -3.72781,13.8982 9.92647,21.48994 16.79655,31.91456 z m -5.60361,-9.11998 c -0.78261,-4.32857 3.26829,0.33345 0,0 z m 0.81712,-2.60949 c -1.41498,-2.8432 2.40104,-0.0152 0,0 z m -4.51161,-5.09398 c -2.18394,-4.96384 2.97812,-4.52484 0,0 z m 13.20503,-35.49877 c -1.18162,-2.83974 4.3397,-2.63519 0,0 z m 118.45499,52.11608 c 5.38688,-1.53031 2.10829,-5.94288 4.07358,-9.10057 -4.45287,-0.3104 -10.1632,6.57161 -4.07358,9.10057 z m 14.1768,-0.98396 c -1.31815,-5.93199 -4.71472,2.20117 0,0 z m -7.67805,-0.10395 c -0.20881,-3.31025 -2.48008,1.22026 0,0 z m -24.19064,-2.36052 c 0.84752,-9.4305 -9.50035,-0.73859 0,0 z m 29.5543,-0.59634 c 1.48194,-4.29781 -3.84831,2.01637 0,0 z m -127.60266,-1.38299 c 4.61303,-6.28816 -12.27653,-16.21282 -6.02174,-5.02664 3.03289,0.24947 3.67905,3.70974 6.02174,5.02664 z M 332.67517,173.665 c 3.81512,-2.47624 -3.43498,-0.28907 0,0 z m -54.54525,-0.38906 c -0.57177,-3.97785 -2.00669,1.63462 0,0 z m 28.95959,-1.02396 c 0.73836,-3.87719 -2.42282,1.42938 0,0 z m 24.56247,-1.15386 c -1.11104,-3.38751 -1.74651,2.65353 0,0 z M 249.6915,170.3436 c 2.90654,-7.6106 -6.13266,1.35716 0,0 z m 51.47486,-0.0535 c 6.71658,-12.35749 -17.16584,-17.32714 -7.17191,-3.05207 -0.30646,-11.23154 2.80332,4.90017 7.17191,3.05207 z m 20.53687,-0.14785 c 0.70811,-2.49317 -3.45154,1.88537 0,0 z m 8.77744,-0.7262 c 2.68497,-5.33874 -4.10346,0.46146 0,0 z m -69.03405,-0.30195 c -0.009,-4.11603 -2.33051,-0.24299 -0.53514,0.76854 z m -30.05141,-0.2062 c -0.89635,-4.08857 -1.69163,3.03004 0,0 z m 78.84077,-0.4713 c 10.36411,-3.59917 -0.95441,-18.11605 -3.03118,-5.29145 0.0611,2.08706 0.99968,4.38176 3.03118,5.29145 z m -1.16554,-2.84143 c 0.85521,-4.36805 4.22656,-0.96089 0,0 z m 16.32165,2.69945 c -1.8464,-9.81272 -7.51752,-0.53529 0,0 z m -45.00971,-0.032 c 0.0736,-3.50803 -3.16853,0.37007 0,0 z m -45.6022,-0.44258 c 0.3419,-5.66779 -5.20803,0.0349 0,0 z m 5.5096,-0.045 c 7.73388,-3.28344 2.70925,-16.77192 -2.97992,-6.57978 -4.13542,3.53383 -1.52303,6.43706 2.97992,6.57978 z m 13.66417,-0.15086 c 9.07853,-7.22149 -7.93999,-13.75662 -3.86663,-2.61608 0.49732,1.58543 2.03346,3.21001 3.86663,2.61608 z m 74.14549,-0.62503 c 4.60055,-3.4978 -4.64155,-0.54139 0,0 z M 246.86655,165.341 c 3.90807,-3.80299 -3.16673,-0.5919 0,0 z m 79.30802,-0.43401 c 0.58954,-7.99587 -6.19717,-1.41014 0,0 z m -68.0495,-0.56836 c 1.40797,-3.29114 -2.80675,0.69104 0,0 z m -50.83006,-1.50159 c 1.43243,-8.94487 -14.59246,-2.13049 -2.32525,-0.17999 0.77508,0.06 1.55017,0.11999 2.32525,0.17999 z m -39.0813,-1.17613 c 4.60284,-3.2316 -2.85815,-1.50264 0,0 z m 44.93696,-0.65919 c 4.20041,-3.13107 -3.91359,-1.25072 0,0 z m 115.65655,-0.29743 c -1.56749,-6.11431 -10.23961,-6.98995 -2.2527,-1.61888 0.42592,0.52893 1.23568,3.10851 2.2527,1.61888 z m -165.89623,-0.48858 c 6.75333,-1.39553 2.30324,-7.58574 0,0 z m 14.45933,-0.89986 c 3.55221,-4.12911 -1.45445,-2.4881 0,0 z m 37.60178,-0.75454 c 0.54951,-2.65687 -3.85491,0.007 0,0 z m 106.2517,-1.01741 c -0.0143,-9.1729 -9.40345,-0.074 0,0 z m -146.69506,-0.32116 c 4.09293,-5.42805 -3.09336,-3.58471 0,0 z m 44.5739,-0.49856 c -1.23478,-3.23859 -2.59686,2.5778 0,0 z m -38.04434,-1.66861 c 6.44788,-6.72817 -7.51205,-1.3095 -0.54121,-3.00121 0.75152,0.13468 -1.45658,3.60499 0.54121,3.00121 z m 126.4618,-0.19206 c 0.64996,-3.45999 -3.12498,0.82315 0,0 z m 2.50327,-0.15009 c 10.12515,-0.68989 7.99191,-4.3787 -0.59721,-3.80837 -8.65083,-1.3755 -2.66301,1.16256 0.59721,3.80837 z m -28.32726,-0.87497 c 0.76632,-3.77198 -2.71167,1.35323 0,0 z m 16.53669,0.17666 c 1.3929,-5.28181 -5.28576,1.455 0,0 z m -49.31533,-0.28347 c 1.05065,-4.32282 -5.30528,-1.11781 0,0 z m 28.96381,-0.0735 c 1.86788,-3.66934 -3.04929,0.81594 0,0 z m 12.20029,-0.0545 c 1.34552,-5.29273 -2.6222,1.6875 0,0 z m 1.94871,-0.16652 c -0.26854,-3.10114 -1.64997,2.10678 0,0 z m 11.36205,0.12471 c 0.74912,-2.94414 -2.79347,1.24885 0,0 z m -37.40375,0.14244 c -0.70433,-3.34054 -3.58743,1.69629 0,0 z m 34.9802,-0.62207 c -2.66034,-10.10125 -29.57515,0.004 -11.06351,-2.4729 3.87529,-0.68539 7.63029,0.8651 11.06351,2.4729 z m -30.38203,0.21627 c 2.18761,-3.83602 -2.81774,0.17175 0,0 z m -61.46895,-0.6006 c -0.82848,-3.47076 -3.05146,2.23747 0,0 z m 41.7832,0.0822 c 7.74161,1.92435 -2.49093,-2.60287 0,0 z m 24.81449,-1.25185 c -4.62121,-3.61063 -20.21919,-3.35704 -23.94107,-1.89071 7.92341,1.12212 15.96605,1.34838 23.94107,1.89071 z m -97.71837,-0.33035 c 0.69962,-4.42999 -2.05715,2.67109 0,0 z m 2.8874,-5.77124 c -1.18648,-6.57357 -1.21625,6.96012 0,0 z m -2.14334,-1.69618 c 2.98669,-6.43597 -4.68148,-12.19585 -2.63464,-2.97661 0.60954,0.88843 1.01251,3.48435 2.63464,2.97661 z m 28.10823,-4.31225 c 5.16875,-3.19369 6.83773,-9.43711 0.58807,-2.7292 -0.76736,0.35477 -3.82726,3.63705 -0.58807,2.7292 z m -1.90123,-3.10753 c 8.68879,-2.85625 -0.325,-7.02017 0,0 z m 32.83929,-2.23686 c 2.47309,-2.05152 -2.73703,-14.88211 -1.91297,-9.98556 -6.26129,4.72374 -2.7869,8.51974 1.91297,9.98556 z m -21.26641,-1.75994 c 4.91091,-1.99831 9.16795,-1.69281 6.67275,-5.44994 10.3993,-5.09932 -3.03951,-9.11937 -4.91764,-0.36638 0.16022,1.88443 -6.48608,6.70104 -1.75511,5.81632 z m 3.01548,-3.7585 c -1.44654,-5.8524 5.26818,-0.50621 0,0 z m -38.84055,2.63001 c 11.96009,-7.67153 -6.77839,-2.00692 0,0 z m 17.21874,-2.90295 c 8.71819,-11.52848 -11.38707,0.52124 0,0 z m 14.56123,0.0469 c 6.33361,-4.51282 -4.33686,0.50236 0,0 z m 27.13364,-1.32189 c 2.31558,-8.25371 -3.30854,3.54675 0,0 z m -10.38534,0.34421 c 4.44609,-1.86311 13.74586,-16.12467 6.77311,-10.78887 -0.60964,4.52985 -6.20255,6.25231 -6.77311,10.78887 z m -36.61647,-1.68517 c 3.39941,-2.5288 -2.72218,-1.04479 0,0 z m 17.75895,-3.13679 c 3.8027,-5.47252 -6.7615,0.40474 -0.75113,-0.24081 l 0.29376,0.60889 z m 21.127,-1.43836 c 3.87893,-2.62394 -3.08388,0.20012 0,0 z m -16.31133,-0.97811 c 2.03959,-6.34177 -5.89783,-0.47091 0,0 z m 17.20801,-3.95391 c 5.8245,-2.83884 -2.50606,-3.07539 0,0 z m 160.97693,172.3408 c -6.01233,-3.92968 4.98134,-6.54253 0,0 z M 388.8499,285.88 c -1.01475,-5.24048 1.64701,-3.6819 0,0 z m 1.81961,-3.06938 c -2.11142,-6.50543 4.47118,-1.6827 0,0 z m -8.0954,-8.34484 c -7.77457,-8.03133 11.29747,-5.44797 0,0 z m 0.10392,-6.64871 c -1.13558,-3.58512 2.62228,0.62656 0,0 z m -2.20086,-3.02268 c -5.79566,-1.20956 1.77485,-3.45503 0,0 z m -127.77805,-1.59907 c -5.60095,-1.28657 -28.96485,-1.44758 -11.37709,-3.19577 3.90186,-0.29362 8.83866,-0.41966 11.37709,3.19577 z m -25.35733,-1.73554 c -8.44118,-3.89411 9.45021,0.53743 0,0 z m -4.4772,-0.32021 c -6.43612,-1.57032 5.43613,-1.29918 0,0 z m -8.47227,-0.87734 c -5.57335,-4.82606 12.66292,1.33296 0,0 z m 142.7349,-1.69579 c -0.79376,-3.49813 3.078,-0.43932 0,0 z m 17.04307,-3.82017 c -3.6233,-3.99617 2.47839,-2.20222 0,0 z M 247.92595,248.4557 c -9.09425,-1.65762 7.55378,-1.06723 0,0 z m 115.88394,-4.86608 c -3.31982,-6.37362 4.32019,-3.17039 0,0 z m -2.66977,-0.98169 c -1.61056,-5.87878 4.15027,-1.17674 0,0 z m -3.61175,-0.47174 c 0.52386,-2.43075 2.57818,1.71248 0,0 z m -162.09163,-0.73754 c 0.9815,-7.54084 15.29653,1.43225 3.81157,-1.03072 -1.13086,0.0556 -3.20431,-0.48107 -3.81157,1.03072 z m -4.84577,-0.63122 c -1.294,-4.01053 2.30467,2.28476 0,0 z m 16.50196,0.14326 c -0.91554,-2.48155 2.83542,1.78391 0,0 z m 131.64053,-0.5798 c -2.71257,-5.54117 -0.52558,-11.2628 1.02726,-2.47968 0.48909,0.7477 0.86426,3.92625 -1.02726,2.47968 z m -127.87491,3.1e-4 c -1.32406,-2.56518 2.84671,0.41326 0,0 z m 115.85541,-0.002 c 0.65444,-6.56889 5.26948,-1.49459 0,0 z m -19.8252,-0.61304 c -1.59445,-2.59818 3.68462,1.44289 0,0 z m -82.98514,0.0421 c -2.52198,-2.90495 3.82836,1.01951 0,0 z m 79.46148,-0.45812 c -0.4409,-2.46568 3.63999,1.60012 0,0 z m -3.44496,-0.4887 c -1.26071,-2.54421 4.20396,1.84817 0,0 z m -92.14311,-0.81569 c -5.6619,-4.81841 6.06202,-5.10784 0,0 z m 133.45247,-1.04571 c -2.59087,-4.89317 5.52901,-0.2782 0,0 z m 3.56824,-0.36321 c -1.03865,-3.42944 3.28661,1.11421 0,0 z m 2.42142,-0.31773 c 0.57245,-4.57294 2.20784,-0.77373 0,0 z m -126.37108,-0.23464 c -1.80744,-4.93374 3.63003,0.2056 0,0 z m -7.03853,-0.38661 c -8.02308,-2.8247 5.33612,-2.49913 0,0 z m 143.42803,-0.003 c -0.58465,-4.63825 4.71746,-0.67644 0,0 z m -139.33015,-0.38748 c -6.54118,-4.98723 9.89725,1.40643 0,0 z m -31.00152,-0.72642 c -4.81657,-2.63508 -5.1151,-11.49325 -0.77251,-3.33847 -0.2876,-0.19638 3.22441,4.17008 0.77251,3.33847 z m 147.01247,-3.37286 c -4.95183,-6.87748 6.14085,-1.00507 0,0 z m -146.648,-1.05569 c -1.52082,-2.88409 2.26467,-0.85152 0,0 z m -9.70554,-9.22152 c -5.86415,-3.99068 1.37931,-4.91242 0,0 z m -4.40545,-3.69427 c -5.82571,-5.18751 -9.94048,-22.01565 -5.92488,-21.9105 0.69474,6.8212 5.9027,17.44224 5.92488,21.9105 z m 10.71008,-0.85966 c -1.10013,-4.08998 2.39862,-1.23249 0,0 z m -4.25731,-1.02846 c -2.30543,-4.87131 2.68313,-1.16187 0,0 z m 6.27151,-4.25581 c -4.27202,-2.83601 1.50363,-2.55705 0,0 z m 55.55166,-10.75571 c -1.52283,-5.20295 2.57295,1.58536 0,0 z m -10.88952,-2.21546 c -3.61672,-5.14774 3.58986,-5.55878 0,0 z m -8.77394,-1.02345 c -3.00047,-5.62829 2.8438,-5.15319 0,0 z m 2.85238,-0.19836 c -1.44669,-3.27642 2.57809,-0.46945 0,0 z m -51.78538,-0.57741 c -1.0108,-3.60952 2.35138,-0.35237 0,0 z m -9.58625,-6.10905 c -1.49197,-2.80286 2.05976,-5.56751 0,0 z m 7.40964,-0.29219 c -2.9131,-5.07079 4.43378,-1.14244 0,0 z M 142.16853,179.2805 c 3.66301,-4.46491 16.19774,-20.43717 8.76267,-7.13972 2.63808,3.88509 11.22623,-4.0941 3.62466,1.67481 -3.85278,2.3868 -8.10748,4.02584 -12.38733,5.46491 z m 20.17581,-11.37928 c -0.2587,-3.42469 4.05724,0.59016 0,0 z" />
      <path
         id="path901"
         style="fill:#373b41;stroke-width:0.156497"
         d="m 140.35457,294.62387 c -10.01495,-1.72078 10.65003,-1.86 0.48996,0.15503 z m -8.8642,-0.72039 c -7.62358,-1.81237 4.23216,-6.42824 5.08624,-9.91671 3.50616,-2.11672 10.83925,-18.69741 6.01154,-4.38628 -4.23985,3.32855 -6.45544,15.23502 -11.09778,14.30299 z m 5.34016,-7.19887 c 0.0382,-4.4664 -3.46278,1.61151 0,0 z m 256.04807,5.90498 c -0.53668,-4.94332 13.07297,0.89513 2.09253,-0.16974 -0.69794,0.0578 -1.39258,0.61324 -2.09253,0.16974 z m 10.90771,-0.68719 c -7.74295,-3.30692 -1.74144,-9.6242 2.29593,-2.77311 -5.74806,-10.42317 5.93388,2.66563 -0.64536,3.27695 z m 0.63688,-1.75755 c -1.14897,-4.77835 -4.36279,-0.90131 0,0 z M 146.8952,290.9949 c 6.02624,-8.26873 9.27269,-4.15446 0,0 z m 243.13025,-1.27772 c -10.06049,-7.77082 -15.38706,-22.26283 -24.30964,-28.72438 -7.29207,0.78945 -7.52575,-0.28413 -0.38997,-1.56448 10.2462,3.31337 11.15261,18.06064 20.41517,23.98206 1.54311,1.98329 3.56077,3.81876 4.28444,6.3068 z m -258.93097,-2.43587 c -0.46574,-3.31582 4.17651,-0.70488 0,0 z m 266.37147,-3.5435 c -6.55009,-11.49358 -14.86182,-22.44123 -16.69178,-35.86002 -2.4551,-5.36862 1.52154,-9.15904 2.09395,-10.06669 2.25812,-7.83974 -12.5041,-16.17287 -11.03335,-18.67379 9.00758,7.02374 15.28001,17.99777 16.16682,29.42022 -0.008,9.30939 -3.14401,-14.26058 -3.13441,-0.68169 -0.67067,7.68694 -0.34481,8.04503 2.6509,5.93004 -0.35207,8.95889 6.28456,17.75594 11.93875,23.83099 -3.89497,-2.32192 -7.89523,-7.63806 -3.8236,0.57705 0.90492,2.83456 9.83079,3.90743 1.83272,5.52389 z m -10.18958,-24.4831 c 3.08813,-6.2415 -5.703,0.32634 0,0 z m -3.38499,-16.9947 c -0.848,-3.46312 -1.73224,2.4527 0,0 z m 18.87952,40.52977 c -2.66329,-2.34462 1.70123,-1.10757 0,0 z m -246.23934,-1.33475 c 1.27912,-5.03418 3.79493,-2.39539 0,0 z m -20.25023,-2.43176 c 4.07943,-9.32205 5.53857,-4.18676 0,0 z m 3.76585,-1.69546 c -0.35016,-3.49404 2.2928,0.20282 0,0 z m 5.9242,-3.70802 c -0.0397,-8.92678 3.54751,-15.19373 7.99248,-23.56591 -5.93336,2.79553 6.98723,-8.82921 -2.94911,-10.10252 -8.4625,-8.68426 -0.71135,-19.04307 4.60367,-27.32816 -4.93383,-8.74943 -14.13011,-19.73419 -24.37203,-9.56589 -8.09909,6.72443 -7.54333,21.07613 2.67422,25.56447 6.47126,5.86051 -2.09518,2.04072 -4.30517,-0.35154 -2.04978,6.78197 -7.02596,-20.72247 -7.11018,-6.28949 -7.42225,-6.296 0.84712,-23.39857 9.40721,-29.7729 6.05211,-6.74758 -10.09607,13.97182 -1.07446,7.34622 -3.81966,-1.93953 5.83311,-5.29996 4.17749,-1.8703 3.24347,-5.73002 15.34623,4.06366 12.73734,-6.50934 8.25831,-3.67841 5.6169,-1.53752 2.75565,2.68148 6.47625,-0.76315 -7.62503,10.56193 0.37501,7.32844 1.7085,5.64285 7.23468,10.1877 10.35657,0.48549 0.6406,-5.73146 -8.71267,-20.21644 -7.6747,-18.98256 9.10385,5.11685 22.26166,-5.33613 25.43892,10.46042 5.03942,9.7603 15.31692,10.36299 18.8095,19.18879 4.42386,8.14019 2.78908,-10.93299 4.28766,-14.815 -1.25569,-7.4517 -10.76127,-8.44136 -12.1278,-16.13945 -3.57075,5.68305 -7.63219,-6.71813 -1.63519,-0.90707 7.0447,-11.77189 9.25233,13.71671 16.12105,1.55365 2.89533,-4.90469 -4.55853,-13.77916 3.17818,-7.88113 5.66083,2.80621 -2.56662,18.62804 0.80421,25.75939 0.36863,9.2106 0.77899,18.88248 -1.09684,27.86509 -2.90129,7.70188 -11.39669,10.36983 -12.3436,1.53475 -2.30395,4.56179 -9.63671,13.41167 -4.17463,2.13057 5.22745,-9.77288 6.07571,-25.53514 -7.69886,-28.21005 -5.84388,-6.63631 -8.99901,-26.47853 -22.85585,-16.62837 -0.62832,6.48093 4.33915,14.40522 2.60605,19.53621 4.04173,6.54116 2.93739,12.44382 -3.38141,14.57801 -1.55737,2.84569 2.88111,9.1752 1.04613,14.90884 8.00972,-0.1865 3.09754,3.32506 -1.4351,4.89308 6.43991,4.87736 11.03918,-14.92654 12.62995,-5.67661 -9.29443,7.17186 -18.92035,12.33552 -19.44584,26.25001 -1.86812,3.95615 -3.17714,9.9897 -6.32052,12.53138 z m 4.0465,-10.25136 c 2.76047,-4.06073 -2.31005,-2.09664 0,0 z m 7.30225,-23.2682 c -8.67145,-4.54485 -3.89447,-19.04883 -2.30261,-21.96725 -6.29221,4.69891 -7.50927,22.03079 2.30261,21.96725 z m 0.43243,-9.57813 c 2.68098,-8.40838 -6.23336,-1.08642 0,0 z m 38.1645,-7.27713 c 4.3857,-1.73603 4.46005,-10.8013 0.72008,-6.29929 -0.12955,2.05973 -1.56111,4.21216 -0.72008,6.29929 z m -74.88949,-5.1644 c 1.80022,-4.03951 -1.96067,-0.82678 0,0 z m 37.92188,-1.94488 c 11.98232,10e-4 -0.33763,-9.36771 0,0 z m -36.5176,-1.26808 c 1.73196,-9.08919 -5.45787,-1.6207 0,0 z m 0.92616,-5.519 c 0.43196,-3.7772 -3.15766,2.03136 0,0 z m 2.20224,-2.63401 c 3.3548,-8.19269 -5.78915,-1.18114 0,0 z m 1.68623,-4.17638 c 0.75777,-3.92963 -3.99364,1.80685 0,0 z m 37.20997,68.35628 c 1.42243,-5.61851 9.69384,-13.75819 3.11155,-4.13066 -0.91432,1.44086 -1.52797,3.24234 -3.11155,4.13066 z m 229.2585,-4.92578 c -4.42371,-4.19897 -4.96428,-18.08645 -1.1436,-5.29579 0.10611,1.03344 3.36121,5.59359 1.1436,5.29579 z M 144.32477,265.8044 c 0.56155,-5.48668 2.88236,-2.52237 0,0 z m 173.20491,-0.78923 c -11.98764,-2.20249 15.66086,-1.57908 0,0 z m -14.67935,-0.0969 c -7.20737,-2.28846 -27.00663,1.19728 -26.70619,-2.18817 10.65098,0.47583 21.97907,-0.68702 32.23634,1.21135 -1.5333,1.16618 -3.73544,1.09168 -5.53015,0.97682 z m 8.37875,-0.7212 c -3.11498,-1.60951 4.18035,0.10016 0,0 z m 12.2951,0.10416 c 5.21713,-3.09343 17.97074,-1.05474 5.00055,-0.23294 -1.66701,0.0631 -3.3515,-0.11338 -5.00055,0.23294 z m -62.0258,-0.41931 c -9.58229,0.35189 6.52144,-3.178 0,0 z m 4.22555,-0.22154 c -4.01361,-2.82312 3.54074,-0.51697 0,0 z m 2.10847,-0.3443 c -0.96344,-2.65476 2.58892,0.50432 0,0 z m -16.58901,-0.48661 c -2.50156,-3.23244 2.16194,-0.85653 0,0 z m 92.0951,-0.29644 c 3.95137,-4.03812 19.9545,-0.25142 5.69901,-0.51194 -1.82753,0.49995 -3.80255,1.20803 -5.69901,0.51194 z m -3.58778,0.23699 c 0.60319,-2.58348 4.6106,0.94832 0,0 z m -94.16369,-0.55724 c -3.32363,-3.36063 4.27521,-0.31196 0,0 z m -8.25899,-0.34168 c -7.80356,-0.27131 1.09251,-1.96108 2.35281,-0.44735 z m -9.74507,-0.63444 c -0.16748,-2.50833 3.55894,1.31278 0,0 z m -2.24765,-0.18744 c 0.21288,-2.33192 2.94354,-0.23755 0,0 z m -79.05006,-0.3554 c 0.1394,-3.8437 2.25603,0.43546 0,0 z m 53.90904,-1.05307 c -5.41712,-0.50689 -25.8513,-2.76879 -10.42885,-2.17457 1.53453,0.63587 14.1418,-0.18805 10.42885,2.17457 z m 4.14718,-0.0302 c -1.86464,-2.50782 3.96602,0.42637 0,0 z m 2.24246,-0.40654 c 2.37483,-3.22025 3.84137,2.67603 0,0 z m -34.55914,-0.3841 c -3.38458,-7.21759 14.98744,0.0666 2.78948,-1.48215 l -1.63086,0.36411 z m 75.62729,-10.67298 c -2.35014,-3.39101 5.93214,1.55099 0,0 z m 13.31706,-2.41243 c -3.67464,-5.46938 -17.39689,-1.28989 -23.55581,-8.0825 -7.67296,-0.25876 -16.08625,-11.78558 -12.2295,-15.99295 5.30926,6.71176 -0.40617,-9.22114 4.41407,-0.0544 3.80883,0.0207 4.71146,-17.1778 7.42686,-7.58747 5.96699,-0.84889 14.24836,-2.23522 16.36672,3.49502 -1.00946,-7.2998 13.09371,-5.3747 7.67995,-11.83997 7.5265,2.89369 -4.37494,-6.85181 -6.92915,-9.6839 -2.63162,-6.17035 -23.74261,-4.60745 -8.51957,-6.42908 5.78182,-10.15944 -11.92674,-2.43202 -15.68474,-4.62775 1.33929,-6.63167 3.20703,-13.38977 -2.81763,-16.47634 3.43132,-3.78568 5.54521,-2.69353 3.66872,0.97199 3.95712,-3.51042 14.29356,-1.15248 18.38705,1.72943 -0.49289,2.16702 -3.26402,3.19588 1.35002,6.09495 -4.00141,9.41468 16.57743,4.75942 6.60157,-1.94194 -0.81804,-5.25318 5.40985,4.80565 2.35834,-3.58583 -5.08673,0.48255 -10.48755,-2.73369 -13.4256,-8.80845 -4.9396,9.46221 3.27178,-8.61915 -3.31445,-9.48713 -2.6724,-7.72236 5.165,-6.5457 10.18861,-5.49639 -10.28845,-2.03115 7.47491,9.02388 4.7416,5.00119 5.42695,1.88446 3.40918,19.48828 11.41342,16.50051 -13.54883,-0.52729 -5.18749,19.49409 5.22024,10.25135 0.0805,4.43635 -6.4088,8.72119 -9.75138,5.71176 -6.32518,6.57087 6.27259,20.33952 11.39346,8.83186 4.67099,7.07305 2.38186,-0.89051 0.16526,-5.63387 3.76799,-1.63785 -3.4227,-10.2214 1.68516,-13.86075 -2.92651,-5.13308 -5.85703,-15.89456 1.71519,-6.46776 9.95668,0.86025 0.53258,10.78813 7.91115,14.49294 -0.10192,-1.05743 6.51122,21.29811 9.78459,13.4193 -6.15624,-8.21416 -7.73506,-23.03279 -10.53125,-29.12062 5.77624,3.82847 8.44442,17.70194 11.90695,16.47829 -2.24437,10.9107 0.71063,23.8687 14.71095,22.27274 8.61054,0.0843 2.43372,-7.2095 -2.4199,-7.28821 -4.2666,-9.98699 -10.25339,-21.13718 -17.03298,-27.49899 -6.49061,-4.84681 -4.15156,-20.47282 -16.57838,-12.31566 -1.76394,5.85102 -7.33605,-4.91231 -11.1408,-1.35288 -8.29293,-2.66888 -6.21271,-10.22302 -0.67192,-3.49204 -0.88267,-4.32299 6.23622,2.52283 9.12201,-2.09344 4.63453,0.49805 -3.62108,3.98057 3.31234,1.18942 5.48026,-4.67079 5.77686,0.65358 2.25514,0.67713 6.11003,2.27795 19.71242,-0.93671 6.38043,-1.53867 5.16689,-3.34295 18.62173,6.55685 15.69939,-1.4792 6.76455,3.88731 12.79568,3.48867 16.98386,6.53863 4.58677,1.37327 -1.00377,-7.69196 3.83574,-0.61673 5.75402,3.04983 11.7521,18.38679 13.31914,13.76077 6.34363,5.95113 -0.64262,8.02445 -4.0065,2.60313 1.29659,5.22249 8.22362,10.19881 3.3582,13.89626 -1.27017,9.75924 6.45151,11.20267 9.21307,8.11757 2.8654,6.25182 0.93774,-11.65572 2.37503,-3.41388 3.26339,4.19988 7.71239,9.07825 6.21156,15.34348 -11.01344,-1.21598 -22.40915,0.89395 -33.44007,0.67196 -5.97425,0.37682 -8.2543,-0.70549 -2.88114,4.16156 -7.52611,10.08601 26.42592,-1.05094 11.40983,4.33681 -7.02238,3.30565 9.22038,9.34965 1.83652,12.64107 -11.3184,1.81246 -23.92231,8.92796 -36.59428,5.31419 -11.93321,-2.03843 -26.39752,-4.73761 -33.86982,7.47777 3.92103,-4.68977 16.91978,-0.41639 6.53025,1.72694 0.0504,4.94192 -2.7214,-0.32503 -5.53752,2.55875 z m -7.73456,-6.76154 c -2.20998,-9.32644 -5.39366,-6.90045 -1.29367,-0.007 z m 3.92892,-3.99068 c 2.28939,-6.34177 -5.06413,-0.9978 0,0 z m -9.22136,-1.56863 c -1.56165,-4.34074 -1.76435,3.41515 0,0 z m 60.66992,0.58165 c 0.9954,-4.42469 -3.19137,1.6664 0,0 z m -18.72569,-2.1173 c 9.96263,0.43465 -6.98166,-4.42289 1.02373,-5.704 1.59527,-0.81816 7.42666,-3.74556 1.83855,-3.68438 -5.15729,7.88333 -10.93878,-7.45508 -11.51792,3.61024 -8.3828,-1.27473 6.19442,6.37621 8.65564,5.77814 z m -46.16305,-1.1809 c 6.01876,0.0147 -4.59307,-3.53186 0,0 z m 51.08283,-1.32462 c -2.11966,-2.26509 -4.55591,1.20842 0,-6e-5 z m -62.26845,-1.7227 c 6.7509,-3.3119 -7.29246,-4.84195 0,0 z m 9.34285,-0.17557 c -0.58257,-2.7892 -3.80045,-0.17078 0,0 z m 8.67467,-0.5166 c 0.74319,-4.70627 -3.16946,0.48717 -3e-5,0 z m -12.57229,-0.40327 c 3.87025,-5.19094 -4.75371,-2.03574 0,0 z m 37.17354,-1.6109 c -2.20852,-3.89587 -4.01243,-5.95463 -4.45959,-8.34653 -5.6857,-1.74326 -4.07698,-9.91178 -0.77052,-7.06039 -1.93151,-10.57324 -13.05048,5.22727 -5.53831,5.40058 1.57783,5.51929 -6.22749,-4.82719 -7.14236,1.35338 6.05663,2.70059 14.0485,7.13338 17.91078,8.65296 z m -8.33348,-6.13101 c -2.15004,-5.16036 5.88089,0.84635 0,0 z m -31.40653,6.81363 c 0.84065,-3.83911 -2.96066,-1.2798 0,0 z m 62.5831,-0.1407 c 2.34582,-7.23616 -3.05117,-0.44206 0,0 z m -19.7933,-1.4248 c 0.79096,-4.08238 -4.14683,-1.88663 0,0 z m 31.96647,-1.3699 c 2.67429,-9.29722 -4.65738,-2.65043 0,0 z m -4.30859,-0.6194 c 2.40972,-5.6693 -6.73715,0.79399 0,0 z m -73.25832,-0.52177 c 1.82569,-4.72484 -4.66715,1.01989 0,0 z m 56.92796,-0.21383 c 3.26482,-5.24147 -2.44922,0.44075 0,0 z m 8.28349,0.35218 c -0.0362,-4.56287 -4.80381,-0.081 0,0 z m -52.23878,-0.47209 c -0.91893,-3.76714 -4.032,-1.06019 0,0 z m 54.83687,-0.63029 c 0.22364,-5.67317 -3.54496,2.5808 0,0 z m -25.00361,-1.18716 c -0.24905,-5.60866 -1.64853,4.67603 0,0 z m 49.24502,0.3255 c -1.14013,-4.42184 -5.44762,-0.65972 0,0 z M 295.101,219.33685 c -0.28144,-7.45117 -4.05564,0.57605 0,0 z m -57.73424,-0.79465 c -5.29599,-4.99345 -5.64962,1.51584 0,0 z m 4.11114,0.0382 c 0.0319,-4.48144 -2.13374,2.09849 0,0 z m 40.87081,-1.42589 c -4.45469,-6.4308 -10.40654,-3.13085 -2.92012,0.11243 -0.6406,-0.84458 3.29849,1.47176 2.92012,-0.11243 z m -8.13288,-0.67609 c -1.38717,-2.97342 -4.1973,0.75838 0,0 z m 39.63546,-1.05835 c 1.27059,-8.39126 -13.53848,-5.73387 -16.83347,-13.66614 -5.72289,-4.93935 -5.63887,5.67704 -12.61497,4.82515 -2.71282,13.14149 17.13596,0.714 23.73261,8.27357 1.83004,0.59844 3.79873,0.89639 5.71583,0.56742 z m -0.83919,-2.53945 c -3.97834,-3.19678 3.68537,0.3706 0,0 z m -20.53084,-6.90264 c 0.42978,-6.97249 1.9511,4.11393 0,0 z m -12.16378,2.50397 c 5.27448,-1.67296 -4.06439,-0.44238 0,0 z m 31.36512,-0.41725 c 0.20066,-3.17956 -3.45546,1.1894 0,0 z m 11.75327,-2.68872 c 7.20211,-7.86097 -9.49155,0.90849 0,0 z m 10.69443,-0.30193 c -1.01173,-6.13787 -3.17573,-4.66804 -4.60786,-2.93242 -8.32075,-3.13033 -0.40249,5.67158 4.60786,2.93242 z m -49.74049,-0.65714 c 9.25855,-8.00312 -10.1678,-1.40883 0,0 z m -5.62528,-0.83068 c 1.7079,-7.68454 -20.57333,-0.68308 -7.9187,-0.22884 2.55187,0.19082 5.5452,-1.109 7.9187,0.22884 z m 62.13042,0.16137 c 15.2136,0.68035 -12.26043,-7.60483 -2.19507,0.49263 z m 11.19023,-0.0424 c -2.04833,-4.96923 -2.90027,-0.0691 0,0 z m -5.22684,-3.49774 c -6.03414,-4.86497 -2.20293,2.71844 0,0 z m 3.33856,0.2326 c -0.57012,-6.92127 -4.57793,0.39625 0,0 z m -69.5947,-0.35674 c 5.3787,-4.42085 -5.88123,0.81653 0,0 z m -16.2118,-0.002 c -0.74163,-4.78223 -4.85673,1.16532 0,0 z m 52.80488,-0.741 c 5.98083,-5.49062 -3.17617,-23.3541 -6.53825,-12.28574 1.21989,4.04688 3.81473,10.34966 6.53825,12.28574 z m -2.53266,-12.91295 c -0.75025,-3.81788 2.95018,2.12697 0,0 z m -1.65438,-0.7821 c -1.74589,-2.37109 2.80639,0.33765 0,0 z m -38.03957,13.35076 c 0.43499,-4.02532 -3.37314,0.25375 0,0 z m 10.05741,0.0258 c 8.99627,-4.2609 -2.74142,-17.09757 -5.92022,-23.02471 4.69142,6.7722 -3.40885,20.37258 5.92022,23.02471 z m 0.14621,-1.86928 c -3.31766,-1.67813 0.64787,-2.26646 0,0 z m 50.61569,1.47237 c 0.76772,-3.30852 -3.67961,1.43546 0,0 z m -9.2658,-0.24565 c 3.43231,1.83176 5.36926,-7.28187 5.14942,0.23069 3.15589,-2.04794 1.50185,-13.47002 0.72979,-4.33564 -0.42272,-4.84763 -6.40271,-5.41785 -1.25134,-7.08772 3.45337,-7.73897 -13.07864,-1.37208 -2.9034,-7.91723 3.12354,-3.25174 -2.84278,-14.6761 -7.31646,-4.4664 3.12906,7.27711 -5.13388,18.18659 4.35967,23.6759 l 1.23252,-0.0997 z m -1.43256,-11.06956 c -2.25379,-4.02548 3.35078,-0.2069 -1.4e-4,0 z m 2.67277,-1.16907 c 0.0259,-4.35239 4.42182,1.22577 0,0 z m -4.1653,-5.79191 c -1.80524,-4.16527 2.66974,-1.88647 0,0 z m -64.16859,16.80064 c 4.99469,-0.55974 -2.89601,-8.07192 1.24911,-9.3272 -6.04058,-10.62053 -15.22551,3.44626 -4.83429,7.51317 l 1.8901,1.13482 z m 2.11271,-5.57521 c 2.56956,-1.79098 -2.49406,0.27548 0,0 z m 71.43869,-5.21615 c 1.65185,-3.64567 -2.34986,-0.45231 -0.93183,0.60412 z m -99.32032,-1.50104 c 0.0358,-3.96874 -3.67027,1.04777 0,0 z m 16.24376,-6.2e-4 c 1.48332,-3.89868 -3.13189,1.06363 0,0 z m 13.34836,-1.03599 c 0.45258,-7.66278 -4.87626,1.9199 0,0 z m 17.25266,0.35114 c 0.64968,-5.31704 -6.36218,0.83929 0,0 z m -41.67254,-1.374 c 7.94629,1.8382 9.54627,-5.21445 6.16565,-8.21474 1.56704,-12.96094 -21.69536,1.35228 -8.26998,8.32574 0.55738,0.0951 1.70862,0.78661 2.10433,-0.111 z m 6.08246,-2.85931 c -1.8898,-3.41884 3.052,0.25786 0,0 z m 90.80662,2.96993 c -0.0368,-3.49274 -4.50401,1.58699 0,0 z m -15.48545,-0.0823 c 1.67404,-4.62028 -4.94275,0.72044 0,0 z m -8.23668,-0.79521 c 0.90187,-3.98313 12.04668,-5.27007 3.48265,-6.49558 -0.69303,-4.11687 6.93364,-1.77115 -0.19835,-3.97491 -5.85968,-2.48027 -10.14424,10.82084 -10.59212,-0.0155 -7.00585,-1.66714 7.20215,-3.61629 9.59007,-4.42339 5.24104,-7.87969 -5.81425,-11.61123 -8.84001,-12.71902 2.3571,3.37055 2.29345,11.96106 -1.37133,13.83264 -1.2993,-1.3188 -4.48424,-18.30301 -12.51858,-8.9889 -3.41743,6.16045 6.88989,16.47011 2.76545,5.13465 6.60477,4.52371 8.24504,17.62057 17.68222,17.65001 z m -2.24505,-0.94334 c -1.32851,-4.0695 3.10682,1.10164 0,0 z m 22.37803,-0.53214 c 1.50459,-3.25137 -2.87676,0.25946 0,0 z m -24.89885,-7.96557 c 0.89132,-4.03604 -2.93039,0.33142 0,0 z m 24.38778,-0.82407 c 1.79822,-9.89582 -8.75573,-2.21132 -7.97043,-8.66238 8.9615,6.03951 -4.20905,-11.00726 -2.58263,-0.1742 -0.42385,10.86479 8.64135,0.81165 10.55306,8.83658 z m -9.78202,-1.5074 c 0.1326,-2.91637 -3.10055,1.66791 0,0 z m -60.29745,-0.33927 c 0.88381,-5.3279 -4.0949,0.019 0,0 z m 55.79615,-0.73147 c 1.93101,-6.64771 -2.14252,-8.73657 -1.058,-0.49101 l 0.25813,0.65045 z m -60.37517,-1.21547 c 10.21146,-5.17567 -10.30113,-17.77536 -7.21594,-3.44826 0.79571,3.11458 4.34591,4.39619 7.21594,3.44826 z m -2.53254,-1.5273 c -0.40844,-3.57487 2.40083,1.87665 0,0 z m 65.70698,-4.44561 c 1.46917,-4.37073 -3.11555,-1.03094 0,0 z m -70.86871,-8.28159 c 11.04949,0.29704 -8.34463,-6.36576 -1.184,0.51597 l 0.71711,0.0115 z m -3.84424,-1.48608 c 0.73339,-6.44648 -2.90623,3.97834 0,0 z m -2.97242,93.20071 c -5.08331,-5.83191 12.6433,0.0718 0.99034,-0.003 -0.29917,-0.22656 -0.74376,0.61653 -0.99034,0.003 z m 24.26085,-6.32927 c 2.64395,-5.32653 7.0882,0.9352 0,0 z m 95.84813,-1.05163 c 1.6603,-5.07168 6.63409,2.3406 0,0 z m -224.09499,-2.24102 c 4.71717,-5.18444 10.52999,-5.81897 3.45781,-1.47044 -0.3359,1.3034 -2.24666,2.67341 -3.45781,1.47044 z m -2.51308,-0.81898 c -2.52718,-3.17462 3.45158,0.12099 0,0 z m 185.22699,-0.19092 c -1.12702,-2.90888 2.94451,1.09249 0,0 z M 139.23861,233.6661 c -5.85426,-5.64401 6.13961,-1.01949 0,0 z m 183.4105,-0.24857 c -5.07152,-5.71975 3.67639,1.56977 0,0 z m 53.53952,0.25182 c 0.71866,-3.27648 2.50069,1.13978 0,0 z m -25.26483,-1.18867 c -14.10173,-0.28713 18.71658,-6.62631 3.81596,-0.34436 l -1.37606,0.17993 z m -11.35623,-1.1466 c -0.30667,-3.11687 2.55686,1.02881 0,0 z m 29.67318,-2.40637 c -0.94432,-3.2298 2.99059,2.90881 0,0 z m -32.23835,-0.32857 c -0.80214,-2.48415 3.09552,1.55498 0,0 z m 19.76976,-1.4415 c -3.32218,-7.63075 -19.0648,-6.27998 -20.57014,-14.21185 6.33517,7.334 17.49213,5.82392 23.806,12.70453 l -1.55648,0.97734 z m -141.88657,-1.33023 c -6.35922,-5.6465 3.06437,-3.0365 0,0 z m 152.50683,-3.24086 c 0.0308,-3.35954 2.45011,0.22543 0,0 z m 0.54087,-7.01786 c -2.15949,-6.64509 -16.9163,-11.78298 -13.50252,-16.17267 3.35515,6.19435 12.57492,8.82378 13.50252,16.17267 z m -6.37075,-0.94636 c -3.28585,-5.31837 3.40005,-1.10626 0,0 z M 248.58676,212.0859 c -1.62958,-3.37396 2.89297,-0.0543 0,0 z m -96.64442,-0.91501 c -0.13966,-3.87744 2.64168,0.44142 0,0 z m 100.48547,-0.17259 c -3.32929,-6.30459 4.68626,1.39389 0,0 z m -11.54424,-0.0566 c -5.66795,-3.79509 4.42441,-0.57116 0,0 z m 3.87331,-1.12863 c -5.12178,-5.39421 2.09405,-4.92837 0,0 z m 5.59745,-0.66566 c 1.13187,-2.85219 -8.31506,-6.15638 -0.66284,-8.34449 1.70559,4.4032 13.02053,1.25093 7.21635,5.4381 -3.27142,2.56517 -5.78225,-1.28155 -6.55351,2.90639 z m 65.25668,-5.33296 c -1.05032,-2.2702 3.11363,1.48431 0,0 z m -62.5856,-1.21621 c -1.05844,-3.18667 3.19597,1.05731 0,0 z m -0.11604,-1.64589 c -2.0215,-4.60015 3.51775,-2.40747 0,0 z m -7.77448,-1.67842 c -2.62499,-2.78729 4.51916,0.96721 0,0 z m -2.34823,-1.74072 c -4.95476,-8.2076 6.04331,-0.31192 0,0 z m -10.65374,-4.59562 c -8.63404,-3.60954 1.8162,-3.03329 0.32563,0.30307 z m 70.89856,-0.15544 c -5.73057,-11.27463 5.82168,-6.92247 0,0 z m -157.70434,-0.34804 c -6.34749,-0.11318 -8.8857,-11.14554 -6.5569,-10.29661 0.31456,3.96137 5.44892,8.65729 6.5569,10.29661 z m 197.3159,-0.73661 c 2.44663,-4.69775 -6.14541,-5.36497 -2.34789,-11.49773 5.028,-1.0114 6.77371,8.60422 2.48014,4.2508 1.49837,2.62756 4.67435,5.7539 -0.13225,7.24693 z m -1.53236,-1.34814 c -0.45116,-3.93071 2.6257,0.89024 0,0 z m -168.0924,-0.79556 c -0.90322,-2.88302 2.27086,-1.1125 0,0 z m 52.48944,-1.26275 c -3.64053,-4.90623 -3.95342,-12.25225 1.30789,-4.52184 -2.81453,0.9142 1.25588,7.63915 -1.30789,4.52184 z m -90.10329,-0.50097 c 1.63894,-3.58831 2.43513,0.37143 0,0 z m 41.31527,-0.78624 c -3.551,-2.74269 1.74711,-3.10365 0,0 z m 22.6921,-4.85701 c -5.46817,-9.16409 -0.21576,-2.30318 1.21727,-3.16522 0.18272,-10.24645 3.71896,5.58652 -1.21727,3.16522 z m 56.81186,-1.16467 c -2.87348,-4.57184 5.69861,0.70696 0,0 z M 142.48317,178.8083 c 2.74714,-1.75936 15.45382,-19.35104 8.95174,-8.64498 -3.58836,2.38674 -4.90119,7.28004 0.55823,4.02697 -3.03258,1.74246 -5.78251,4.54256 -9.50997,4.61801 z m 134.0042,-2.98172 c -2.73406,-4.34662 2.6825,-1.40832 0,0 z m -83.40708,-1.92537 c -3.68435,-4.76559 2.50991,-0.31839 0,0 z m -10.37457,-0.68904 c -1.62601,-5.07585 3.2484,2.3943 0,0 z m 17.31376,-2.07113 c -0.36439,-5.80764 -6.44528,-17.38695 -4.31255,-18.11732 6.36412,0.14304 12.98042,-4.05495 6.41275,-9.84515 -1.69467,-5.90123 8.96297,-11.29951 2.99167,-3.33305 4.24587,-2.9379 20.24927,-11.72333 8.81551,-3.65754 -8.3119,1.6344 -11.12757,15.39302 -3.965,17.57984 5.17477,-4.61484 16.49408,-3.58578 22.11083,-3.16193 -5.9075,9.28818 -22.19479,11.27399 -25.45879,17.87719 -1.67225,-5.88891 -10.03863,-8.85197 -5.60612,-0.24911 0.30768,0.29472 0.60251,3.48622 -0.9883,2.90707 z m 7.65811,-8.20936 c 5.99319,-0.32637 20.58042,-11.30194 7.01782,-5.93858 -5.93335,7.64388 -13.1118,-5.14563 -16.13683,1.745 2.00876,2.66596 5.75546,4.54985 9.11901,4.19358 z m -0.002,-1.73759 c -1.18644,-3.00435 2.68574,1.17623 0,0 z m -2.31727,-7.22125 c -1.64265,-2.94469 -3.30532,2.47356 0,0 z m 11.74692,-1.12185 c 0.72129,-2.72194 -2.57721,0.9596 0,0 z m 11.97732,-1.32139 c -0.45415,-3.04417 -5.5877,1.85337 0,0 z m -39.68299,16.62862 c -4.03786,-3.98066 -7.60415,-9.07557 -0.8511,-2.89584 0.0629,0.22223 3.44437,3.66704 0.8511,2.89584 z m -12.67168,-0.78515 c 0.45137,-3.91681 -3.13289,-6.63122 -2.17818,-0.83529 -5.91817,-4.81463 -0.8676,-9.05403 4.20166,-7.82167 7.55786,-7.28394 -1.96225,-20.1829 1.06726,-25.37094 3.18972,-2.13622 2.38156,9.56179 9.06763,9.92237 1.35482,3.80037 1.32687,8.30708 -2.38862,2.95896 -2.23681,4.06246 -0.62226,-9.65764 -3.7388,-1.45728 1.49814,7.07117 -0.26008,18.47824 -6.03095,22.60385 z m -10.85515,-1.54709 c 0.71669,-5.44569 6.86813,-3.93945 0,0 z m 166.31359,-0.95421 c -3.35124,-4.95214 3.75335,2.63218 0,0 z m -169.7247,-1.35472 c -12.06549,-0.26477 9.9083,-13.39267 -0.4106,-4.231 1.19858,9.64862 7.19043,-16.00308 8.75406,-3.64143 6.5309,-10.52691 -0.26284,-31.0765 16.9315,-33.29156 7.10995,-1.27085 13.28244,3.29145 2.6045,0.96739 -5.40107,4.48354 -1.20949,6.94487 2.40689,2.60909 4.85582,9.2451 -3.74968,8.04161 -8.61833,3.6434 -3.14592,4.16522 7.19098,-7.85439 -0.2677,-3.82343 -9.20597,5.73873 -9.92808,16.83549 -4.31324,23.84214 -7.05676,0.0198 -7.41376,10.21668 -12.51114,10.66737 -0.81302,1.64854 -2.24879,4.3221 -4.57594,3.25803 z m 15.6942,-16.52509 c -1.62868,-3.01018 -1.01853,4.81798 0,0 z m 149.74306,11.58549 c -4.09395,-2.99659 0.69271,-2.69626 0.97366,0.029 z m -152.84522,-2.0093 c -0.50033,-9.15162 4.45845,0.7599 0,0 z m 148.64924,-2.2751 c -6.55952,-1.75499 -10.30772,-6.10446 -1.44996,-3.04232 0.058,-0.11009 4.90397,4.3678 1.44996,3.04232 z m -11.02385,-3.17115 c -13.35029,-1.08112 5.70274,-2.09858 0,0 z m -7.11953,-0.90863 c -4.15616,-2.57537 7.63476,1.28654 0,0 z M 274.6866,149.87 c -4.47314,0.49289 -16.58825,-3.00389 -5.13587,-1.78261 5.48843,1.03504 21.15378,-1.44485 19.57081,0.77456 -4.83228,-0.19071 -9.65903,0.31711 -14.43494,1.00805 z m 25.64187,-0.21518 c -8.1094,0.55819 -4.24877,-2.59604 1.15496,-0.47528 l -0.2011,0.45509 z m -66.45062,-1.2017 c -2.54788,-3.73291 2.38375,-1.49165 0,0 z m -8.48334,-0.40878 c 0.63249,-2.81556 5.28793,1.79761 0,0 z m 32.88447,-0.0327 c -7.07417,-0.45867 -0.63487,-0.93886 2.66311,-0.34184 z m -69.38748,-5.82921 c -4.01921,-5.09848 4.49857,1.23516 0,0 z m 52.55166,-0.92874 c 3.2125,-9.91911 -13.78184,-0.98628 -10.28201,-10.12533 2.66038,1.69379 12.29427,5.57106 8.32742,-1.0772 5.58845,0.58796 1.14088,7.98977 1.95459,11.20253 z m -7.18502,-1.64319 c -1.10533,-4.35779 2.72231,-0.62506 0,0 z m -35.91043,-2.74345 c 2.54163,-6.63967 12.73998,-6.72762 11.99997,-14.59404 11.94718,-6.39359 -2.01393,-4.8121 -5.88713,0.61713 -8.47035,2.85268 17.04773,-17.57867 14.46839,-2.0206 -1.64817,13.80636 -12.27357,10.16099 -20.58123,15.99751 z m 13.90505,-8.19559 c 9.59867,-1.25952 -4.78188,-8.605 0,0 z m -17.92163,5.31473 c -0.49479,-4.22887 3.54462,0.37174 0,0 z m 29.81995,-2.47168 c 0.50511,-3.18999 3.03843,0.91226 0,0 z m 13.14404,-1.44536 c -1.76743,-6.96148 6.31268,-19.65421 2.85861,-6.05931 -4.72007,-3.27129 1.40708,6.11526 -2.85861,6.05931 z m -40.20242,-0.15874 c 3.08704,-4.41218 3.50684,0.24598 0,0 z m 29.31363,0.25669 c 3.0852,-4.97649 14.0278,-8.07964 4.31208,-1.94846 -1.25796,0.92113 -2.6213,2.09688 -4.31208,1.94846 z m 13.42051,-1.66542 c -1.58413,-3.67405 2.44881,-0.18791 0,0 z m -11.23579,-4.50771 c 0.13657,-9.16029 -15.42891,3.3711 -5.29198,-5.66795 6.28501,-4.77008 10.51971,8.70747 6.84195,-2.45656 -3.05889,-8.53969 15.13718,-1.84483 3.96635,-3.4353 -7.48231,1.9834 5.65221,11.86551 -5.51632,11.55981 z"
         sodipodi:nodetypes="cccccccccccccccccccccccccccccccccccccccccccccccccccccccccccccccccccccccccccccccccccccccccccccccccccccccccccccccccccccccccccccccccccccccccccccccccccccccccccccccccccsccccccccccccccccccccccccccccccccccccccccccccccccccccccccssccccccccccccccccsssccccsssccccccccccccccccccccccccccccccccccccccccccccccccccccccccccccccccccccccccccccccccccccccccccccccccccccccccccccccccccccccccccccccccccccccccccccccccccccccccccccccccccccccccccccccccccccccccccccccccccccccccccccccccccccccccccccccccccccccccccccccccccccccccccccccccccccccccccccccccccccccccccccccccccccccccccccccccccccccccccccccccccccccccccccccccccccccccccccccccccccccccccccccccccccccccccccccccccccccccccccccc" />
      <path
         id="path899"
         style="fill:#1d1f21;stroke-width:0.156497"
         d="m 131.59624,293.43399 c -0.11662,-5.28866 4.32957,-1.9037 0,0 z m -3.53932,-0.89039 c -0.60087,-3.01423 2.73802,0.60858 0,0 z m 267.24845,-0.50396 c 0.97188,-2.76503 7.04587,1.23914 0,0 z m 8.80982,-0.30382 c -5.67709,-2.32588 2.72979,-1.53556 1.31901,0.23363 l -1.31901,-0.23362 z m -3.98073,-4.42875 c -1.1024,-2.95409 2.73184,1.74356 0,0 z m -261.05234,-3.92803 c -0.68493,-3.97866 4.09426,-1.84118 0,0 z m 257.92182,-0.5419 c -2.84728,-4.13205 -7.03246,-14.63004 -1.02699,-4.34251 0.33859,0.56715 3.61081,6.90934 1.02699,4.34251 z m -16.47446,-4.09643 c -3.77793,-3.52292 2.41316,-1.6068 0,0 z m -5.35991,-6.25934 c -0.89011,-2.81697 2.30608,1.4511 0,0 z m 16.19153,0.11283 c -4.56208,-4.55209 5.0491,0.68597 0,0 z m -244.87237,0.0375 c -2.85778,-6.2043 5.97898,-8.90646 0,0 z m 242.8716,-3.03007 c -1.49397,-3.90425 -2.15826,-11.92396 0.73442,-3.01786 1.03869,0.0173 -0.16257,4.70206 -0.73442,3.01786 z m -16.11516,-0.84398 c -3.19369,-5.5361 3.11422,2.21634 0,0 z m -2.11467,-3.17331 c -2.49357,-4.39507 2.71679,1.61388 0,0 z m 15.30208,-1.59866 c -0.93705,-3.773 2.19189,0.1764 0,0 z m -111.02221,0.033 c -4.5509,-1.61271 7.08975,-0.69582 0,-1e-5 z M 150.5325,262.77356 c 0.58551,-5.87232 4.26639,-2.5314 0,0 z m 234.01554,-1.88141 c -2.62086,-4.96045 -5.68077,-21.13588 -2.50769,-21.04844 0.47863,5.13516 5.37485,9.67333 0.52079,9.57068 -1.54309,3.45482 5.88999,12.25351 1.9869,11.47776 z m -23.28985,0.0818 c 3.52553,-2.60285 7.40592,0.23648 0,0 z m 26.60759,-4.54375 c -0.57993,-3.32096 2.42548,0.9377 0,0 z M 243.28694,244.47735 c 0.84075,-3.79796 6.88969,1.72356 -2e-5,3e-5 z m 18.91156,-1.03641 c -3.19768,-4.5586 11.98681,-3.54678 3.8224,-0.53057 -1.20168,0.0403 -2.76628,0.77777 -3.8224,0.53057 z m -108.0054,-0.34909 c -7.12615,-6.54161 12.33542,-1.34122 0.73018,0.0961 l -0.73015,-0.0962 z m 99.2885,-0.23585 c -5.84529,-3.20905 -19.32854,-5.03402 -21.2355,-8.2935 -0.46062,-2.80795 -12.23165,-7.84165 -4.60722,-10.80895 4.57319,3.90597 5.72127,9.42762 11.36671,6.82858 3.49706,1.3322 2.99768,2.26535 5.4128,4.0448 -0.25631,-7.33049 6.26758,6.23211 9.42653,6.87086 7.09977,-1.12675 -2.00646,-4.6159 5.50617,-4.36549 2.453,-2.8007 -2.34295,-6.47799 1.35102,-8.96636 0.26909,-2.14665 -5.56507,-6.07956 -2.30117,-0.0845 -1.14823,7.26503 -4.95186,-3.29112 -9.01244,-5.03523 -2.8092,-1.3662 -6.12215,-5.45212 -7.30539,-2.91869 -2.2646,-7.09911 1.72117,-4.16291 7.36183,-2.54825 4.40862,-0.21434 5.58577,4.52341 9.0183,1.04823 3.3615,1.63693 4.36158,4.58263 6.28703,6.14393 -0.95025,-5.79378 4.88043,1.25039 8.43756,1.08526 2.36593,1.27787 10.38318,2.64591 13.67407,6.52127 -8.33719,-1.36801 -16.23947,-2.65419 -22.64695,4.15899 -4.63871,3.12391 -4.40279,7.57618 -10.73335,6.31908 z m -11.50255,-6.80602 c -1.41023,-2.39742 -2.78689,0.80385 0,0 z m 21.21716,-3.88264 c -4.04982,-2.19855 -4.63088,1.67758 0,0 z m 3.8224,-1.69617 c -4.03288,-3.87685 -7.04187,0.81817 0,0 z m -105.89349,11.75941 c 0.12156,-1.70818 12.70038,-5.29871 3.72612,-0.60888 l -2.16865,0.62901 z m 222.87244,-0.66809 c 1.1994,-7.80129 2.68762,-0.58189 0,0 z m -226.16109,-2.2195 c -0.7737,-2.20483 2.75338,0.93681 0,0 z m 2.59138,-0.63204 c -4.36743,-2.81961 -8.80934,-10.5228 -4.48599,-2.21998 -6.34269,-4.13919 -2.56997,-8.73474 -0.74347,-13.01624 -1.97249,-4.71615 10.91399,-9.3961 2.81685,-2.98241 -2.11846,4.7932 5.52457,5.41242 1.41221,12.97125 -4.5696,3.30341 5.77922,3.51621 1.0004,5.24738 z m -2.20612,-5.12933 c 0.0954,-3.46182 -4.62398,0.23434 0,0 z m 0.55615,-2.34686 c 0.10448,-11.77919 -7.99166,-0.36749 0,0 z m 5.70008,6.9758 c -4.30623,-2.98196 2.45747,-3.57551 0,0 z m -13.71171,-0.4876 c -5.26874,-6.98548 -1.23262,-18.6371 5.34598,-23.52901 0.13588,-4.32578 4.40175,-13.84856 8.27325,-3.42969 3.29503,5.12266 -1.52304,9.80815 0.21578,3.2153 -4.11518,-6.92603 -12.51759,6.50477 -14.31424,11.67055 -0.75624,3.38929 1.54468,10.0844 0.47923,12.07285 z m 18.98744,-1.29615 c 0.15823,-5.5632 3.46688,-1.77649 0,0 z m 87.73505,-0.68134 c 0.34686,-2.16207 2.88168,1.04742 0,0 z m 44.42876,-1.05979 c -8.06597,-0.0225 -1.93177,-2.43774 -3.57327,-2.74891 -4.97943,0.13477 -3.43116,-7.88594 -0.84178,-4.91548 3.65702,-2.51753 6.52315,-6.85401 10.16628,-3.8222 2.21177,1.66342 6.46601,4.84281 6.99361,1.63134 2.16089,2.14904 3.61286,-3.03521 5.89513,-3.75487 -1.41724,-4.1158 -11.97029,-3.67858 -14.87534,-2.67331 -6.98797,5.24972 1.09106,-5.56042 -4.65362,-2.15453 -3.72774,-2.94599 -12.59676,-0.61428 -9.28354,4.2913 -1.33702,-3.66107 -8.53271,2.21506 -3.69179,-2.49774 0.94576,-5.08942 -4.48578,5.10334 -7.10214,-2.37306 -6.44632,-5.05048 -12.60229,-10.20347 -19.54279,-13.88273 -3.68483,-2.568 -12.42286,-11.72617 -3.13456,-4.44334 3.68589,0.1334 8.71769,6.22613 4.29332,-0.47145 7.0646,-1.49093 1.50181,10.4369 9.28612,6.79397 5.02751,0.77018 7.69574,1.27079 9.42289,0.52658 0.24305,6.97881 -4.82107,0.1741 -8.58391,0.81281 1.06125,5.04641 7.60788,5.21467 9.80847,5.28527 -3.14112,7.63252 13.14254,-0.62518 16.59971,2.75518 7.38598,2.04019 16.98675,3.25063 25.30745,3.43589 5.5108,3.3993 8.42971,11.8828 0.11776,13.28798 -4.82331,-0.36451 -11.9082,2.98917 -14.4132,3.09015 -2.6506,-7.63642 -2.30056,5.89932 -8.19506,1.82703 z m 4.34516,-2.67686 c 2.20864,-4.27851 -2.91127,0.32076 0,0 z m 19.89344,-4.83761 c 8.08423,-3.25405 -8.61213,-13.52608 -3.44034,-7.08001 3.6189,0.49803 -2.83547,3.32083 1.62463,4.75007 -3.90585,1.43133 -3.08733,1.67023 1.81571,2.32994 z m -19.80812,-0.47325 c 0.12839,-2.72632 -3.99933,1.05146 -4e-5,-1e-5 z m -106.42756,7.8324 c -6.00848,0.22713 -4.02653,-15.44231 1.53718,-15.78468 -2.16676,-6.91847 1.04091,-12.85578 1.11384,-20.71131 2.63817,-7.26217 -11.15475,-6.18065 -10.06339,-14.13924 -2.54318,-14.1478 4.71084,4.33671 9.28711,1.89936 6.23244,-1.88016 1.85404,-15.58906 7.07251,-9.75754 1.58494,8.60407 -2.82206,14.71656 -1.61738,23.01682 2.14799,7.21072 0.0701,15.86566 0.89461,24.71202 -1.80222,4.20912 -3.91731,5.38176 -5.56895,10.30819 -0.83096,0.27298 -1.76026,0.76916 -2.65553,0.45638 z m -0.67714,-5.10067 c 2.91692,-6.3394 -3.57208,2.02196 0,0 z m 1.10751,-5.65654 c -1.1721,-4.28832 -3.15729,1.51943 0,0 z m 4.71852,-16.20781 c 0.0501,-4.9085 -1.46188,3.45147 0,0 z m -11.29244,-26.49637 c -1.66426,-5.51157 -1.46685,0.64095 0,0 z m 59.95837,52.20133 c -2.39725,-1.30427 -6.86898,-6.37871 -0.42401,-5.13305 0.19059,0.95959 3.52561,6.66317 0.42401,5.13305 z m 34.8168,0.29472 c 1.85121,-4.58588 12.60826,2.06112 1.92335,-1.07643 -0.79556,-0.0175 -1.06171,1.76182 -1.92335,1.07643 z m 61.8309,-1.76461 c 1.60551,-2.75757 10.98199,-0.37014 1.22243,0.16635 l -1.22243,-0.16633 z m -216.63392,-0.89187 c -5.22366,-5.09918 -5.26123,-6.01279 0.65509,-1.33991 2.50851,0.47349 0.78237,3.29238 -0.65509,1.33991 z m 107.37846,-0.51701 c -1.0273,-3.54284 2.02242,-1.25023 0,0 z m -5.04473,-1.20915 c -3.61147,-4.90507 9.0322,-0.30537 0,0 z m 11.06622,0.0589 c -0.7253,-4.0155 2.68894,0.79697 0,0 z m -54.16393,-0.3624 c -1.0189,-5.25057 4.43181,-3.832 0,0 z m 98.21603,-1.05235 c -0.28037,-2.60233 2.63592,1.06543 0,0 z m -47.04838,-0.0762 c -1.60794,-1.46014 2.5753,-2.95164 0.0721,-6.92256 0.39509,2.12576 5.39621,7.96143 -0.0721,6.92256 z m -14.22747,-2.2819 c -0.92056,-4.55103 2.99936,1.86911 0,0 z m 125.65445,-0.65848 c -1.08592,-5.89025 2.53568,-0.66515 0,0 z m -42.06753,-1.37731 c -2.08005,-3.28812 4.15036,1.00028 0,0 z m -23.5738,-0.37617 c -1.30299,-3.23776 2.53217,1.20195 0,0 z m -51.62824,-1.20696 c -1.71811,-5.75122 3.84455,-3.03794 0,0 z m 41.85428,-0.20127 c 2.51496,-4.71355 4.12649,-0.17076 0,0 z m 37.12509,-0.44049 c -1.46857,-3.02867 2.89207,1.25944 0,0 z m 35.25489,-0.0697 c -1.13695,-1.82965 3.85017,0.58737 0,0 z m -226.975,-0.25042 c -3.01428,-5.63977 -1.94621,-16.10135 4.49744,-19.32942 3.58882,-4.39667 1.82358,-6.5725 4.89927,-2.45877 11.91076,-2.91152 -5.76226,2.2375 -6.578,6.90581 -3.25492,4.27497 -3.04642,10.74266 -2.81871,14.88238 z m 69.14146,-0.90185 c -0.7905,-4.40817 2.71159,1.85005 0,0 z m 102.98686,0.12926 c -2.24833,-3.87387 3.24692,1.01773 0,0 z m -18.11705,-0.0709 c -4.01729,-2.84827 4.652,-2.83421 0,0 z m -3.3678,-1.09057 c -2.12896,-4.08727 2.72475,-0.81932 -6e-5,0 z m 65.77544,-1.06064 c -0.53613,-2.58265 2.39767,1.34583 0,0 z m -102.84022,-0.12534 c -2.23201,-3.65012 3.01084,1.0496 0,0 z m 8.12022,-1.54543 c -0.87876,-4.08944 4.96334,0.64691 0,4e-5 z m -49.05953,-1.04235 c -2.019,-2.9497 2.2295,-0.63226 0,0 z m -2.64753,-2.10134 c -4.8131,-6.37531 3.61382,0.3472 0,0 z m 119.97155,-0.24059 c -2.13412,-1.87556 2.5667,-1.25955 0,0 z m -32.39324,-0.27179 c -0.29032,-3.10373 3.21394,0.70987 0,0 z m 81.40818,-1.20706 c -1.43307,-3.66104 3.06705,1.16645 0,0 z m -244.29024,-1.09352 c -0.39866,-3.63602 2.78404,-1.26505 0,0 z m 193.08434,-0.44015 c -7.56663,-1.19805 4.48958,-1.25502 0,0 z m -120.49152,-0.72535 c -6.84801,-8.51147 4.30094,0.7762 0,0 z m 116.26609,0.0533 c -1.34769,-2.43805 3.78632,0.80033 0,0 z m -2.45528,-1.56958 c -6.07514,0.40993 -17.15252,-14.20685 -6.30856,-5.27141 1.04221,5.30045 22.08955,3.09 9.70945,4.10852 -2.61469,-1.77376 -1.29413,2.99096 -3.40089,1.16289 z m -23.26243,-0.0537 c 0.40498,-4.2628 4.26232,-1.20935 0,0 z m 50.44428,-0.0523 c -3.78862,-1.71701 -18.45752,-0.30698 -6.18164,-2.42581 8.1603,2.77333 6.56333,-3.01896 4.93218,-6.55265 4.80101,-4.30568 -1.77617,-9.82887 -0.14511,-10.86822 2.70071,-2.80761 -2.55068,-5.98999 0.30283,-9.65169 -5.22287,3.15077 -3.10378,-10.45288 -0.96417,-1.50236 5.82527,3.00338 0.32847,7.98952 4.1989,14.63187 4.33473,6.06585 -1.14424,8.63871 0.43715,13.9546 6.11355,-2.16366 12.65889,1.12273 2.42828,1.3306 -2.0891,-0.74632 -3.16525,1.71801 -5.00842,1.08366 z m 1.42425,-8.31635 c 3.80861,-3.43064 -4.3023,-1.13387 0,0 z m -183.62767,7.52066 c -8.32732,-8.54826 2.46768,-3.32072 0,0 z m 166.85036,-0.2605 c -1.4152,-3.37356 -0.20283,-15.01164 2.77556,-9.25533 5.36637,2.86702 -1.33888,7.83622 -2.77556,9.25533 z m 1.45161,-5.77553 c 1.52698,-5.01565 -3.7007,0.90993 0,0 z m 32.28987,5.55503 c -9.10933,0.8392 -2.5704,-2.88388 -4.77316,-7.24778 -0.76191,3.53616 11.73285,7.68937 4.77316,7.24778 z m 4.89054,-1.03276 c -9.07082,-7.17769 5.38416,-0.42173 0,0 z m -233.94238,-0.60742 c -1.80563,-5.18232 8.193,-5.40856 0.77985,-1.57821 -0.65985,-0.6696 0.15523,2.75653 -0.77985,1.57821 z m 63.79867,-0.20416 c -4.56463,-3.01479 3.41717,0.85598 0,0 z m 100.07207,-0.005 c -5.08668,-1.47272 4.51703,-1.13416 0,0 z m -125.35392,-1.17724 c -3.52124,-7.66463 2.43775,-11.74283 0,0 z m 126.71024,-0.65252 c 0.80955,-2.76078 -7.77026,-3.75518 1.17507,-2.58737 2.9123,-1.65289 0.19768,3.10218 -1.17507,2.58737 z m -9.34971,-0.66611 c 1.31399,-3.88019 8.28637,-3.38198 1.0426,0.45745 z m -96.33643,-0.20766 c -3.79048,-6.57089 3.74364,0.91924 0,0 z m 168.27868,-0.51124 c -7.3154,-9.35628 2.78027,-4.43207 0,0 z m -79.74816,-0.85361 c -2.29109,-2.44073 8.63534,1.26419 0,0 z m -123.62915,-0.1412 c -0.2786,-2.7435 2.65049,-0.56533 0,0 z m 180.43624,-0.47901 c -0.24571,-3.3374 3.07094,1.20798 0,0 z m -14.51525,-0.39887 c -7.70787,-4.01011 -6.06753,-15.98082 -13.57986,-20.89641 -1.49633,-4.50469 -10.13623,-21.85403 -2.22925,-9.04898 5.3566,6.24806 9.78999,13.25013 13.7444,20.30586 0.3724,1.62119 4.92026,10.62856 2.06471,9.63953 z m 25.09869,0.26014 c 1.82744,-5.36442 9.26926,2.10668 0,0 z m -46.06591,-0.28526 c -2.00923,-2.66274 -8.6174,-14.27833 -2.63447,-9.03756 0.60791,2.34921 5.98495,7.63892 2.63447,9.03756 z m 37.69908,-0.15105 c -0.46488,-5.02639 2.5246,-0.64992 0,0 z m -199.82857,-0.47079 c 0.0109,-3.04762 2.48481,1.1862 0,0 z m 10.78559,-0.21569 c -0.99489,-2.51074 3.01383,0.85356 0,0 z m 8.0395,-1.03077 c -0.19405,-3.9101 3.07435,0.99145 0,0 z m 148.10234,-2.19114 c -5.13248,-6.73395 -4.43903,-14.31586 -8.61289,-22.05314 -3.75197,-4.70119 -4.16282,-9.66184 0.48574,-3.10573 3.49682,6.5313 6.2097,13.71563 9.73206,19.64598 -2.76801,0.61568 0.87231,7.90987 -1.60491,5.51289 z m -18.22235,0.15365 c -0.86441,-6.35355 0.81351,-10.93464 1.40988,-1.49042 0.29753,0.56068 -0.52483,2.8251 -1.40988,1.49042 z m -16.57755,0.0463 c -2.63882,-7.02506 3.4421,-0.70759 0,0 z m -111.8018,-0.29714 c -6.61538,-1.18931 4.38792,-0.94204 0,0 z m 196.37338,-0.59404 c -0.82609,-3.98346 3.01685,1.13435 0,0 z m -95.75782,-0.55946 c -9.8204,-4.53462 4.10527,-5.23584 0,0 z m -72.96726,-0.94048 c -4.6807,-5.69039 2.86441,0.96266 -3e-5,0 z m 141.65106,0.75708 c -5.59686,-3.4425 4.4672,-5.74812 0,0 z m -161.50393,-1.83787 c -5.58222,-1.46873 2.07207,-2.76299 0,0 z m 71.1193,-0.65032 c -4.59901,-2.89382 4.69347,0.5165 0,0 z M 150.164,190.94719 c 1.23711,-2.88303 3.85544,-0.17604 0,0 z m 153.00548,-1.76033 c 1.23003,-3.07465 1.12856,2.30777 0,0 z m -53.7786,-0.72375 c -3.90277,-2.40202 5.19738,-6.38252 -1.00028,-4.52862 -6.69409,-0.73299 9.43784,-4.08043 2.0823,3.04553 -0.49015,0.0803 -0.15325,2.27182 -1.08202,1.48309 z m 36.07295,-0.89533 c -2.25333,-8.06878 -7.59577,-15.10589 -11.27661,-21.65048 2.59664,-2.95913 11.56799,9.37954 11.22281,15.23011 0.69499,1.20329 3.12308,8.08224 0.0538,6.42037 z m -127.93413,0.0835 c -3.17561,-4.30183 3.91823,0.64217 0,0 z m 75.03308,-0.60093 c -2.87811,-3.77009 2.29393,-0.89106 1.70908,-4.83141 2.02877,0.59498 -0.13676,5.77801 -1.70908,4.83141 z m 86.95287,-0.72411 c -6.46253,-4.2874 -4.11029,-4.00577 0.15067,-9.12733 -1.13949,-11.58537 6.23702,13.61109 -0.9009,3.63022 -2.59211,0.98379 4.50227,6.64744 0.75023,5.49711 z m -59.29984,-0.0929 c -1.88524,-11.73237 3.76987,-1.87105 0,0 z m 17.07478,-0.92033 c -2.79174,-4.69109 1.80688,-7.55181 0.59661,-1.21174 3.21845,0.18691 0.78206,2.84286 -0.59661,1.21174 z m -13.65986,-0.53482 c -1.2686,-4.81924 6.71144,-2.14101 10.27396,-3.27722 1.0951,4.19758 -8.05532,1.10076 -10.27396,3.27722 z m -9.48401,-0.78875 c -0.62073,-2.9812 3.5171,0.0114 0,0 z m 2.38823,-0.21894 c 0.57107,-2.03859 3.78104,1.12523 3e-5,2e-5 z m -13.77341,-0.1282 c -2.60433,-2.77084 3.92674,0.56602 0,0 z m -55.57417,-0.56086 c -0.13716,-3.00856 4.34903,-0.76335 0,0 z m 139.76969,0.0612 c -7.02071,-2.36669 8.76754,-2.62871 0,0 z m -96.40927,-0.24787 c 3.22852,-2.42049 1.64602,-12.27222 2.71707,-2.6445 1.24545,1.69546 -1.31245,3.76519 -2.71707,2.6445 z m 81.33666,0.21059 c -1.93147,-2.01791 4.19951,0.0446 0,0 z m 29.61079,-1.28129 c -6.46898,-4.70694 5.87445,1.21199 0,0 z m -80.26874,-2.71134 c 0.26971,-5.47602 -4.32404,-9.30647 1.70487,-10.09991 -4.47898,-2.6163 -1.48303,-14.74037 -9.27413,-10.98805 -6.73841,-8.14104 -2.74564,11.54419 -6.82703,3.09392 -3.36091,-7.22296 6.97476,-7.54768 12.20554,-5.55871 2.19558,1.14456 2.97225,13.05887 5.16613,14.04563 -5.18859,0.21833 0.6631,10.62772 -2.97538,9.50712 z m 16.69476,-0.84769 c -0.50851,-3.61801 2.28219,0.13071 0,0 z m -29.46453,-0.27468 c -3.9184,-5.98957 4.70048,-2.74166 0,0 z m 88.09176,-1.53808 c -2.90376,-7.86474 3.61199,2.07777 0,0 z m -29.38923,-2.62231 c -1.07121,-2.50722 -1.26276,-8.99819 2.10967,-2.53167 0.0649,0.72044 -0.94698,3.47425 -2.10967,2.53167 z m -59.44197,-1.19883 c -0.92345,-3.42405 2.52046,0.0562 0,0 z m 86.19577,-0.53013 c -4.51599,-1.84681 -2.25196,-8.312 0.10102,-0.90196 1.00729,0.17715 1.18147,2.30489 -0.10102,0.90196 z m -14.29942,-0.21186 c -4.0969,-0.48458 -15.20803,-1.35757 -5.05368,-2.43903 4.13122,-0.48226 7.96467,-1.70336 5.05368,2.43903 z m -35.5641,-0.27808 c -2.71398,-2.52786 4.98085,0.44345 0,0 z m 18.06358,-0.0426 c -1.47965,-2.87823 4.52342,0.70548 0,0 z m -8.84139,-0.69628 c -4.22846,-2.79191 6.33608,0.15476 0,0 z m 29.1526,-0.39903 c -2.64394,-5.32198 7.91058,1.13027 0,0 z m -82.94732,-0.29997 c -2.81986,-3.05137 3.67023,0.63673 0,0 z m 13.45685,0.17908 c -7.7025,-2.56315 7.59347,-2.52189 5e-5,0 z m -25.97575,-0.66509 c -0.12211,-2.88178 2.95309,0.97406 0,0 z m 6.63705,0.0237 c 0.30381,-3.15955 6.7029,1.52101 0,0 z m 15.21761,-2.71355 c -0.92808,-3.94156 2.96507,0.31175 0,0 z m 40.67143,-0.0913 c 4.86718,-11.339 -5.84492,-9.40315 -11.11954,-11.54161 4.45613,-0.6022 9.36323,-1.14271 13.5693,0.58254 -1.71001,2.946 0.67897,10.16813 -2.44976,10.95907 z m 30.70318,-0.6969 c -2.00439,-8.50295 3.32546,0.72523 0,0 z m -14.82852,-0.36028 c -5.69756,-6.03698 3.76773,-1.10249 0,0 z m -100.20882,-0.4165 c -2.5439,-3.48513 -0.5481,-2.60394 3.42128,-1.45652 -1.4719,-1.05437 -2.20238,1.93083 -3.42128,1.45652 z m 122.90233,-1.79251 c -1.90217,-5.16281 3.42845,2.43811 0,0 z m -160.7225,-0.29412 c 1.89758,-2.10647 0.97265,0.0146 0,0 z m 45.3842,-1.30598 c 3.18799,-3.89747 6.35895,0.26745 0,0 z m -14.70524,-0.5617 c -0.59905,-3.44908 3.76294,1.41606 0,0 z m 119.26573,-0.47272 c -3.16594,-8.12467 4.4217,2.54701 0,0 z m -152.48777,0.44989 c -0.19263,-5.02897 6.54854,-0.59854 0,0 z m 111.46516,-0.44768 c -4.18403,-4.31313 3.80035,-9.59045 0.65568,0.21248 l -0.2897,0.23435 -0.366,-0.44683 z m 26.44804,-0.0815 c 1.04311,-6.82071 -5.08408,-1.9727 -7.9916,-5.40131 4.19133,-1.25504 12.44525,-2.43739 11.57022,5.22003 -1.76045,0.70959 -2.02492,-1.10459 -3.57862,0.18128 z m -92.71709,-0.65606 c 3.93549,-6.27483 -8.83466,-1.63178 -10.17138,-5.5404 3.26982,-5.36345 -1.17127,2.25732 5.65404,0.36657 2.23308,-2.80283 3.54926,1.02274 7.914,-1.77615 3.15935,2.65218 7.91614,-1.45024 10.44604,1.19865 4.41954,-2.13924 9.58536,-4.95853 2.6503,0.98025 -5.53061,0.0326 -1.3228,5.51549 -5.5711,-0.0803 -5.53353,0.0779 -9.33622,1.4068 -10.9219,4.85136 z m 115.49457,0.25358 c -9.80668,-6.07079 4.7457,-0.68605 0,0 z m -145.51299,-1.67717 c 0.14252,-4.17656 3.38528,-1.75616 0,0 z m 138.63115,0.028 c -0.85789,-3.26216 3.65004,1.56727 0,5e-5 z m -5.44401,-1.92371 c -4.35512,-1.19139 3.72118,0.319 0,0 z m -145.33593,0.0937 c -2.14698,-3.49043 5.40376,-0.80225 0,0 z m 97.57369,-0.81931 c -6.07328,-2.6984 6.78631,-1.51134 0,0 z m 4.1294,-0.19562 c -0.8187,-4.97562 9.04476,0.55462 0.92692,0.18327 l -0.69091,0.21566 -0.23601,-0.39937 z m -24.09679,-0.95476 c -1.06872,-10.05663 1.68154,2.77085 0,0 z m 68.97616,0.2038 c -1.33412,-2.18544 3.05108,0.92607 0,0 z m -52.27008,-0.0832 c -1.67249,-5.26293 4.01359,1.54492 0,0 z m -79.80505,-0.1029 c -0.28363,-6.09805 -1.00678,-14.34118 1.14759,-4.69196 -1.61702,1.24588 1.45338,4.38931 -1.14759,4.69196 z m 61.47386,-0.16826 c -3.40896,-4.34456 2.20775,-7.66228 0,0 z m -49.57114,-0.34505 c -1.67321,-3.07621 2.63191,-0.0502 0,0 z m 127.56691,-1.8348 c -8.12858,-4.30203 4.70437,-0.73466 0,0 z M 203.9742,152.50872 c -1.44379,-3.02693 5.88857,-2.45699 0,0 z m 100.76025,0.0555 c -5.41171,-2.70838 4.4059,0.23741 0,0 z m -89.01107,-1.13914 c -0.0885,-2.36403 3.37416,0.32864 0,0 z m 58.83707,-1.95932 c 2.30975,-2.18412 0.61162,-0.0505 0,0 z m 2.37117,-0.44725 c 1.80626,-2.16588 3.91394,1.09829 0,0 z m -71.58569,-0.89207 c -3.31249,-8.42507 3.53177,2.76896 0,0 z M 187.3029,145.2675 c -0.77051,-2.46635 2.80812,0.98106 0,0 z m -6.20871,-1.65846 c -2.63114,-11.16097 5.63113,-0.65162 0,0 z m 21.46292,-0.64522 c -2.7478,-9.38454 6.77374,-0.2502 0,0 z m 7.02702,-4.63915 c 6.63698,-7.55672 4.56719,-0.27997 0,0 z m -10.55657,-2.18749 c 3.9879,-6.16596 4.47165,0.057 0,0 z m -19.85169,-0.90449 c -0.54145,-4.27606 4.99704,-1.38718 0,0 z m 35.82415,-0.77358 c 0.3553,-2.1846 3.61341,-0.72908 0,0 z m 17.11584,-0.31038 c -3.73701,-8.91716 6.32585,1.7087 0,0 z m -55.23966,-1.12059 c 0.51637,-2.90967 4.08888,-11.3644 4.52723,-6.53403 9.674,-7.2587 -4.23504,4.27892 -4.52723,6.53403 z m 12.56875,-0.059 c -6.70096,-4.78711 10.61064,-8.09864 3.32249,-0.92294 -1.18991,-0.0491 -2.09001,1.51956 -3.32249,0.92294 z m 13.71987,-0.30401 c 0.40322,-3.4653 14.79162,-4.96669 8.2545,-2.68175 -2.44208,0.9307 -6.03205,3.32593 -8.2545,2.68175 z m 14.85951,0.0573 c 0.54097,-3.18791 2.0901,1.8789 0,0 z m -2.53923,-4.21726 c -0.50076,-2.99132 1.73893,-8.42115 -2.3035,-4.83393 1.3135,-9.02035 8.15625,2.42385 2.3035,4.83393 z m -5.87585,-0.92651 c -1.10111,-7.85747 3.29916,0.3734 0,0 z m 24.47837,-2.40543 c -0.43804,-3.7087 3.11399,0.96509 0,0 z m -32.69352,-1.21272 c 3.61741,-3.04789 14.4056,-13.70681 17.20152,-5.9905 -3.23331,2.56822 -5.71935,-4.68024 -9.70524,1.35125 -2.25313,1.94896 -4.62156,3.97981 -7.49628,4.63925 z m -14.24779,-0.56627 c 0.34083,-2.06915 2.71552,0.33651 0,0 z m 4.28414,-0.19014 c -3.13219,-1.19004 4.92961,0.61991 0,0 z m 19.74995,-0.10954 c -0.53215,-3.58371 2.70255,0.51049 0,0 z m 15.84732,-2.20434 c -5.96364,-4.47249 6.245,-1.27816 0,0 z" />
    </g>
  </g>
</svg>
