<?xml version="1.0" encoding="UTF-8" standalone="no"?>
<svg
   xmlns:dc="http://purl.org/dc/elements/1.1/"
   xmlns:cc="http://creativecommons.org/ns#"
   xmlns:rdf="http://www.w3.org/1999/02/22-rdf-syntax-ns#"
   xmlns:svg="http://www.w3.org/2000/svg"
   xmlns="http://www.w3.org/2000/svg"
   xmlns:sodipodi="http://sodipodi.sourceforge.net/DTD/sodipodi-0.dtd"
   xmlns:inkscape="http://www.inkscape.org/namespaces/inkscape"
   version="1.1"
   id="svg851"
   width="692.79724"
   height="1007.8163"
   viewBox="0 0 692.79724 1007.8163"
   sodipodi:docname="southern-dog-shouts.svg"
   inkscape:version="1.0.1 (unknown)"
   inkscape:export-filename="/home/inivekin/code/amonac/1/southern-dog-shouts.png"
   inkscape:export-xdpi="201.14999"
   inkscape:export-ydpi="201.14999">
  <metadata
     id="metadata857">
    <rdf:RDF>
      <cc:Work
         rdf:about="">
        <dc:format>image/svg+xml</dc:format>
        <dc:type
           rdf:resource="http://purl.org/dc/dcmitype/StillImage" />
        <dc:title />
      </cc:Work>
    </rdf:RDF>
  </metadata>
  <defs
     id="defs855" />
  <sodipodi:namedview
     pagecolor="#ffffff"
     bordercolor="#666666"
     borderopacity="1"
     objecttolerance="10"
     gridtolerance="10"
     guidetolerance="10"
     inkscape:pageopacity="0"
     inkscape:pageshadow="2"
     inkscape:window-width="1278"
     inkscape:window-height="1415"
     id="namedview853"
     showgrid="false"
     inkscape:zoom="1"
     inkscape:cx="338.39769"
     inkscape:cy="540.79724"
     inkscape:window-x="1280"
     inkscape:window-y="0"
     inkscape:window-maximized="1"
     inkscape:current-layer="g996"
     inkscape:document-rotation="0"
     fit-margin-top="0"
     fit-margin-left="0"
     fit-margin-right="0"
     fit-margin-bottom="0" />
  <g
     inkscape:groupmode="layer"
     inkscape:label="Image"
     id="g859"
     transform="translate(-20.376266,10.816118)">
    <g
       id="g996"
       transform="translate(717.31734,5.2098476)">
      <path
         id="path1004"
         style="fill:#c3c6c4;stroke-width:0.477612"
         d="m -612.7003,984.85488 c -41.83526,-41.09119 -61.43778,-99.37223 -75.60808,-154.96476 -14.17306,-80.01323 -6.28385,-161.86027 -7.32497,-242.67652 -6.24835,-43.6248 10.93601,-82.89814 29.42454,-121.39137 18.56013,-45.32809 57.28841,-85.53929 102.95372,-104.08133 47.87631,-10.49773 117.13128,-7.23961 141.9624,-55.93678 -8.28387,-47.08471 -32.31771,-91.88416 -13.50527,-140.3813 2.43021,-50.64489 37.41328,-88.356367 67.8916,-125.230504 30.14515,-51.975535 105.32548,-52.505472 155.00152,-56.218282 48.4088,0.556655 83.35184,2.473205 130.372845,17.0588098 26.883653,23.8710282 52.47064,59.5391092 52.451976,97.4366942 19.5472377,38.603942 -3.267857,82.751282 -16.788528,119.418262 2.296756,26.87413 13.037346,56.54426 -6.78432,68.25376 2.091445,31.48915 -11.827357,49.65544 -31.118925,65.22093 -31.611988,40.21543 -13.720902,83.94716 27.505128,110.08612 47.8569001,30.22109 60.8006363,80.85742 46.7974815,133.63752 -3.0993825,51.33276 0.748082,103.04955 -7.6682005,154.03472 -3.367363,56.94438 -19.969969,114.37516 -24.50906,170.95467 5.281284,39.76114 -3.279214,74.95893 -47.593703,61.38534 l -35.107974,2.54124 c -175.00833,-6.77568 -325.4236,0.79698 -488.35218,0.85278 z M -8.10325,541.56851 c 5.9521964,-18.12189 -8.123611,6.78362 0,0 z M -56.31058,265.92953 c 4.620915,-17.35536 -10.265248,2.32891 0,0 z M -32.548909,96.377289 c -1.102832,-27.94272 -15.239589,2.098362 0.106567,1.993005 z"
         sodipodi:nodetypes="cccccccccccccccccccccccccccc" />
      <path
         id="path1002"
         style="fill:#979998;stroke-width:0.477612"
         d="m -104.4712,986.7829 c -54.7192,-6.0682 -109.59237,-2.44066 -164.61979,-3.39286 -43.17236,0.80257 -86.42123,2.58743 -129.54556,-0.49749 2.69661,-30.09753 -4.64327,0.37741 -21.90455,-18.59263 -30.10845,-9.49256 -24.63829,-49.00412 -57.21599,-33.86162 4.34928,24.17739 -25.61065,51.84016 -13.36792,13.427 0.4371,-21.41136 8.55301,-70.83801 -0.71583,-58.11507 -13.65846,2.38458 -49.64672,51.41668 -30.37388,12.80639 10.51162,-15.23632 49.03964,-42.48624 57.11219,-32.55809 -35.9546,14.76139 22.04269,74.04844 7.88181,34.8394 22.46338,-5.11135 61.39156,26.3383 83.0453,-10.99605 36.45301,-49.63855 73.73199,-99.09051 112.80798,-146.46225 28.44963,-49.07843 33.74625,-106.31775 46.26527,-160.5131 -4.11468,-53.95702 -31.61839,46.86332 -60.77196,36.10527 -13.47955,-18.90233 -14.2773,-75.76395 -24.02116,-78.3746 -1.18404,51.43155 -27.5238,96.92297 -33.36043,147.42295 -10.79666,35.44171 2.05805,-36.18996 3.77265,-50.17254 10.12938,-33.18446 0.48436,-50.91121 -18.45223,-73.72911 -3.39409,-15.62513 -13.24681,-56.71799 -18.2789,-59.29827 23.98706,-2.00045 1.76942,-57.01299 19.89705,-77.00033 -2.33153,-55.44578 -2.36013,52.72221 -30.78988,26.96261 10.50239,-30.62752 -56.99252,-45.52678 -25.91905,-3.73601 20.7047,41.05235 -47.90213,-22.41526 -52.84365,-39.06004 -8.28789,-17.92731 -62.5062,-44.20485 -33.72994,-59.38934 28.31625,12.02874 50.11307,84.11437 84.07834,51.38252 -23.95898,-5.13107 -33.5261,-52.58388 -54.67013,-44.26104 9.83347,-32.66912 67.6112,-56.89388 29.16852,-94.95551 -18.06689,-53.30883 -6.62294,-117.11246 19.94394,-165.442105 24.32673,-36.328213 52.76496,-71.595006 87.06196,-98.60645504 21.21265,-7.82830256 55.21551,-14.50922096 62.69623,8.18646604 -2.9403,-25.834266 29.13553,-19.599332 63.27157,-19.432756 44.37094,1.4322324 110.058315,-10.047422 137.360097,34.452937 24.639613,28.826903 34.999762,67.313938 37.319192,104.394503 2.860385,43.49487 -31.313895,78.53922 -19.053708,122.78188 0.380564,10.7067 1.491573,36.69278 -8.742488,22.88777 -2.698522,26.04668 -3.686307,63.72518 -30.365316,65.83968 -11.396032,24.80647 -29.789937,78.45597 -22.826807,86.81999 -19.31641,13.27929 9.926334,73.12821 -5.52452,100.92038 -7.19412,25.36448 39.186005,-14.17469 19.008425,-32.20197 -10.198705,-25.23266 -3.625574,-66.50039 23.845636,-32.86225 28.060782,18.72416 71.0041448,42.59114 59.5299487,79.84006 2.3604081,42.19819 -10.3493377,84.10146 -2.7077807,126.13418 -0.290192,54.56501 -11.608321,108.36782 -13.736533,162.8698 -5.98394,44.71797 -13.681651,89.43054 -15.785214,134.44589 -9.962336,24.68457 -42.761234,21.55535 -64.742892,20.99181 z m -177.284,-9.15 c 25.67578,-32.31759 70.43289,-26.3478 103.26037,-44.34204 22.68801,-11.51634 96.37672,-67.37397 36.06498,-67.43491 -21.1372,2.40379 -68.50534,41.23726 -33.99611,2.64859 19.43818,-37.54246 -35.08548,-8.1792 -38.10034,14.37611 -21.42564,38.22079 -78.71026,26.53812 -105.69354,28.2809 -25.12333,0.67983 10.39439,17.39623 -12.03989,28.20616 -15.07321,27.76713 32.55052,41.06874 50.50453,38.26519 z m 69.73029,-79.38975 c 4.87856,-28.71876 31.67525,-12.59782 0,0 z m -114.95944,32.72731 c -6.40189,-27.17583 -54.86588,-5.02372 -13.03083,-1.29594 3.0511,0.48485 11.81657,8.36705 13.03083,1.29594 z m -44.67988,-22.17524 c 2.39478,-13.34196 -14.88464,4.18062 0,0 z m 142.48696,-16.96401 c 7.74588,-14.97864 -3.17483,-4.63387 -7.19375,4.29644 z m 71.65762,-38.78453 c 14.04377,-21.72109 -20.462,-5.05236 0,0 z m -36.82374,-24.47752 c 7.17882,-13.10542 1.40633,5.49482 -3.93357,2.29587 z m 20.13669,-7.57946 c 33.47663,-21.29956 14.17611,-93.84346 42.06447,-101.03042 16.60291,22.80359 -27.19308,67.95664 -10.10655,71.80166 34.97014,-33.95564 51.271933,-79.84447 63.118623,-125.70736 16.757173,-37.70113 26.496039,-78.89887 23.377634,-119.88873 -8.476736,-26.80193 26.742192,-38.62613 -2.963895,-55.19871 -15.943464,-36.88146 -32.922717,-2.58528 -18.850106,15.89219 14.055236,-23.96356 2.536756,24.82343 -9.742315,31.36259 10.768258,39.44835 -65.750171,19.25928 -45.810651,68.12595 -15.52006,23.44181 6.09491,80.01162 -19.87613,84.75479 -6.34808,-13.1834 4.50202,-50.9066 -14.30514,-18.8035 -13.12188,41.06336 -17.89015,87.29055 -13.80912,130.75984 1.40515,6.26673 3.58527,12.40857 6.90318,17.9317 z m 38.12208,-147.45452 c 5.57158,-9.90748 11.53284,6.42478 0,0 z m 13.06025,-91.0892 c -1.70744,-15.67447 18.24739,-6.85108 0,0 z m -73.48866,227.14566 c 20.9507,-33.17671 -13.85896,-18.73309 0,0 z m -8.52165,-18.09844 c 12.41076,-17.92244 13.47759,-97.96362 0.88029,-41.82473 -2.54774,13.34028 -8.25932,29.17084 -0.88029,41.82473 z m 14.44547,-82.23527 c 37.12299,-30.92449 -25.21988,-7.265 0,0 z m 7.6745,-28.4482 c 11.47701,-46.97026 -15.94496,-2.5109 0,0 z m -6.34178,-13.37256 c 5.27745,-19.15726 -10.21505,-3.63103 0,0 z m 32.88722,-24.5524 c 4.51358,-22.66253 29.7877,-81.3144 -2.68415,-70.32937 -14.42678,-16.41028 -3.2177,36.48726 1.61263,29.19494 -1.96737,3.9488 -10.55284,58.96598 1.07152,41.13443 z m -27.64008,-1.91628 c 12.99976,-10.91177 12.80957,-36.06754 5.59564,-12.89222 -4.19089,-0.67077 -16.50835,16.91182 -5.59564,12.89222 z m 124.159141,-6.17003 c 1.078283,-24.54731 48.92313,-76.14342 23.220262,-81.90296 -7.458314,27.37987 -15.876384,54.49471 -23.220262,81.90296 z M -327.62366,557.03402 c 0.60977,-20.17704 -16.81739,-18.31888 0,0 z m 289.955993,-18.24139 c 31.6279162,-6.61204 10.937122,-52.08104 -1.352969,-13.89547 -0.691852,2.96528 -6.520568,14.84177 1.352969,13.89547 z m 26.331366,-11.72876 c 1.8809826,-16.09739 -11.582446,-0.24759 0,0 z M -324.48347,498.38871 c 42.73947,-8.68835 -15.29442,-114.9052 -9.19899,-40.86725 0.12232,9.89381 -9.55618,43.51664 9.19899,40.86725 z m 0.97988,-4.18903 c -3.68091,-14.6777 15.32624,2.66028 0,0 z m 106.22494,-8.30238 c 17.3202,2.41954 59.04216,-4.59925 17.91045,-8.54586 -4.25817,-6.39902 -38.5864,9.22249 -17.91045,8.54586 z m -13.64679,-5.34419 c -32.9588,-30.9212 -36.309,-80.7708 -29.22705,-121.39505 -17.38906,-11.55022 -20.97337,46.23127 -23.03819,63.17102 5.55343,23.09587 28.66698,53.70324 52.26524,58.22403 z m 20.81097,-17.02697 c -3.12124,-11.82389 -13.97278,4.48188 0,0 z m 33.19403,-2.64191 c 26.0288,-6.17566 -31.30325,2.74175 0,0 z m 36.50632,-2.64218 c 10.87131,-10.90647 26.68255,-65.19007 2.14084,-29.23734 -6.69853,-13.70586 -15.97846,42.49256 -2.14084,29.23734 z m -41.52812,-4.50527 c 24.10065,7.16008 26.69312,-44.45481 10.3104,-8.01766 -16.06193,15.00556 -86.31511,-6.11636 -32.8514,8.86092 7.51949,0.25035 15.06657,0.066 22.541,-0.84326 z m 65.26935,-9.78119 c 4.95195,-18.77096 -8.6533,5.29385 0,0 z m -65.26247,-4.64505 c 31.16749,-15.75623 -57.54093,2.89507 -7.11046,0.72464 2.37015,-0.24155 4.74031,-0.48309 7.11046,-0.72464 z m -67.34328,-20.63047 c -2.21977,-18.48714 -5.32939,13.5086 0,0 z m -94.08273,-17.95794 c 4.25585,-26.94687 -30.14145,0.20085 0,0 z m 229.09664,-2.64241 c 6.78305,-20.80802 -12.7375,6.36729 0,0 z m -294.5363,-3.34394 c -5.8794,-24.87853 -22.54612,6.89479 0,0 z m 273.52477,-18.47789 c 14.99732,-41.18834 -61.15769,-12.57937 -15.44006,-10.61635 5.43936,1.02612 10.68336,12.35312 15.44006,10.61635 z m -211.17347,-1.06869 c 6.21491,-8.92006 -17.49375,7.86572 0,0 z m 101.91222,-3.60804 c 14.03121,-10.19432 76.09125,-4.75018 30.68366,-22.13851 -17.20177,-43.15968 -48.15109,29.53159 -30.68366,22.13851 z m -85.97277,-1.12832 c 39.4521,-3.30383 9.87718,-45.0116 -13.66172,-19.89407 -30.92012,11.40832 -69.04613,-43.35659 -46.93338,-63.71845 26.22473,-20.04976 66.78916,-47.96799 57.57729,-83.08017 -8.83845,17.2566 -35.68057,38.84792 -17.07559,7.1282 26.86116,-40.6803 38.63156,-88.2912 65.69567,-129.485384 22.75003,-50.493291 -37.90786,11.441062 -39.03287,33.252834 4.75809,19.88473 -34.62299,39.65693 -21.33648,22.25501 1.01666,-34.4873 49.81964,-60.23097 42.02916,-86.949845 -20.05848,17.465908 -39.16735,48.137245 -56.89529,70.791585 -9.79638,14.82528 -24.45556,71.36284 0.768,33.98123 28.83921,19.60339 -19.65462,47.22397 -16.95034,76.54988 -13.91469,38.51605 -54.08887,88.90485 -3.0207,118.84665 17.91893,16.53197 45.55114,6.9417 48.83625,20.32253 z m -19.54448,-179.10392 c 0.43064,-28.37714 23.07266,-17.91904 0,0 z m 9.71492,-25.86345 c -2.06499,-16.9434 8.10722,-4.67025 0,0 z m -15.43596,-17.38743 c -5.3826,-14.06329 10.3707,-3.5639 0,0 z m 32.67578,-12.48624 c -4.86324,-17.63492 8.49793,-9.42606 0,0 z m 5.93315,-22.71862 c -7.63481,-24.992843 26.8154,-10.84642 0,0 z m 69.28748,225.75277 c 21.70888,-24.57558 42.37171,-67.58495 54.46727,-86.56578 15.27771,16.35643 -1.16923,96.02557 32.9308,60.96593 3.78681,-29.49824 8.55441,-91.19696 -23.35651,-97.32404 -21.16311,15.66991 -15.79931,36.39494 -29.68282,6.39789 -16.66668,3.62357 -40.93623,16.11852 -7.31333,13.02947 -2.18877,23.97417 -62.01333,23.33549 -73.23368,-8.74228 -11.40487,38.107 29.6308,68.1602 39.87281,102.8757 1.7863,3.13464 2.56042,7.75718 6.31546,9.36311 z m 180.74407,-11.57417 c 0.686527,-15.50677 -8.86217,9.30455 0,0 z M -200.80834,324.437 c 5.49227,-15.95885 -10.43312,10.67843 0,0 z m 68.04671,-16.73931 c 19.82124,-9.31522 64.872053,-51.55119 49.449937,-50.27532 -3.845943,28.07665 -17.190027,-10.40661 -35.493367,0.23882 -23.87846,-11.63757 -45.31557,-11.86867 -28.9408,19.85099 -1.9e-4,7.77467 0.90219,53.73614 14.98423,30.18551 z m 78.587456,-38.78308 c 3.470285,-21.08706 -17.736901,-5.91417 0,0 z m -59.030446,-29.6677 c 1.69868,-10.00976 -15.59485,2.8489 0,0 z m -142.09527,-2.61017 c 1.65078,-12.02527 -12.25747,3.53748 0,0 z m 175.549263,-3.65241 c 14.642558,-23.92669 -25.564253,14.79857 0,0 z M -415.45954,218.76535 c 11.27368,-13.53569 -6.13507,-11.97249 0,0 z m 25.33983,-10.0047 c 19.39737,-49.43129 -16.16812,5.41427 0,0 z m 211.31696,1.18407 c 26.00595,-4.17531 26.62671,-27.09606 10.68227,-37.48704 -13.70494,-10.25663 -6.32553,-14.09135 -5.07943,-32.77108 -25.91018,-10.50066 0.40253,-30.92446 8.0993,0.30417 -2.36121,26.44647 90.836531,3.64796 37.54573,-10.31451 -27.69898,-25.49611 -70.41555,-28.11022 -90.64372,-62.477589 -53.17656,-18.865158 -14.40288,62.078479 -53.88252,60.157309 8.21067,-57.551289 -74.04264,45.89306 -22.39762,33.85551 3.99285,15.79039 -7.19783,49.27145 11.18685,17.0766 33.53436,-36.42807 87.98938,-1.85933 97.839,30.55866 z m 2.28938,-4.54931 c -5.53841,-12.41122 15.17862,1.10983 0,0 z m -2.24185,-15.1355 c -12.15129,-12.55904 -28.08531,-62.50708 -8.24167,-25.08137 2.38742,7.51545 20.24291,20.58328 8.24167,25.08137 z m -62.8656,-48.67122 c -20.34537,-42.199257 24.76359,-13.126 0,0 z m 169.188593,66.63443 c 4.234746,-10.45991 -10.117553,4.0439 0,0 z m -292.429313,-8.7011 c -0.40296,-12.20542 -8.04661,9.47753 0,0 z m 85.64636,-0.88332 c 34.04058,-13.5629 -4.4492,-14.43606 -9.93163,-0.206 l 3.5724,0.44234 z m -114.24073,-11.03753 c 13.91271,-17.63733 -9.37208,-3.91894 0,0 z m 242.80733,-13.37313 c 15.37475,-20.76941 -13.12592,6.51216 0,0 z m -241.10873,-8.09728 c 10.19446,-28.98645 -9.2007,-13.62725 0,0 z m 34.57467,0.97151 c 4.1412,-22.65569 -11.51833,6.49099 0,0 z m 241.63533,-2.01554 c 30.353385,4.59124 20.239574,-33.40239 -2.22549,-10.03038 -13.76103,3.24009 -11.57692,18.43969 2.22549,10.03038 z m -21.47262,-5.18705 c 5.87694,-20.53877 -11.20533,8.74395 0,0 z m 105.242412,-58.90474 c 5.082299,-35.093971 -26.719909,-12.143483 0,0 z M -75.960298,77.9138 c 0.847266,-12.888511 -11.403489,0.87918 0,0 z M -338.10823,59.841551 c 12.83416,-21.300077 -9.78249,5.396277 0,0 z m 291.512277,0.459482 c 7.497196,-15.935189 -7.28349,-7.170246 0,0 z m -34.622089,-5.803329 c 5.082269,-20.046524 -11.074413,1.132747 0,0 z m -54.377118,0.17685 c -0.72142,-12.642164 -12.06913,6.7924 0,0 z m 47.749346,-6.329982 c -2.979414,-24.077594 -18.047616,0.805381 0,0 z m -54.240046,-1.03009 c 6.77506,-12.502759 -11.64088,1.54364 0,0 z m -125.53549,-2.31765 c 20.96606,-16.856546 11.37079,-25.98037 -3.3045,-6.042122 -4.25472,3.16018 -2.10221,12.765231 3.3045,6.042122 z m 151.11882,0.920315 c -1.47293,-25.352506 -82.86064,-41.6275063 -34.69543,-14.712284 11.05053,5.957762 22.25841,12.201555 34.69543,14.712284 z m -66.86806,-16.405531 c -8.99922,-20.5117672 -22.64713,2.487151 0,0 z m -8.53812,-14.089553 c 3.59766,-21.3522882 -12.39861,4.305204 0,0 z M -438.24066,971.71954 c 1.84855,-9.47643 12.43939,6.03187 0,0 z m -103.69172,-1.50089 c -20.80592,-34.6655 77.61928,-51.65115 27.50728,-12.62885 -7.58396,6.59707 -16.92993,13.16197 -27.50728,12.62885 z m -88.9476,-4.80831 c -37.10153,-58.60153 -61.76944,-126.31895 -62.21405,-196.14162 -0.83474,-27.65214 -5.27347,-74.30594 -1.99333,-88.03868 25.97121,81.01832 22.86123,169.22033 56.07357,248.27963 3.1523,11.64556 9.45526,23.55077 8.13381,35.90067 z m 169.57172,-3.92043 c -13.37017,-17.87939 18.12021,-2.90063 0,0 z m 8.11813,-1.15625 c -4.96419,-15.17439 10.57905,-1.8715 0,0 z m -14.83478,-66.55069 c -1.66012,-20.02068 13.57651,-7.42125 0,0 z m -119.30432,-18.39355 c -2.66451,-14.47337 16.00685,3.74884 0,0 z m 156.55805,-6.53331 c -9.12762,-9.41823 14.85247,6.15169 0,0 z m -144.31403,0.23785 c -34.2741,-14.98068 19.10261,-8.91566 0,0 z m -25.47065,-2.2622 c -14.31607,-20.77245 11.82252,-0.97716 0,0 z m 187.39179,-5.40428 c -19.44865,-45.45477 16.28138,-91.59142 11.8402,-138.61439 -0.8426,-39.20202 8.12192,-77.94569 1.35793,-116.72007 -0.57523,-21.83463 -7.53545,-83.45309 2.8984,-84.59447 10.70959,44.19742 39.73593,83.61912 30.46267,131.62197 -4.94413,31.91498 -1.60798,78.36073 -10.08186,95.93365 -12.7214,34.53287 -9.2858,79.73808 -28.25432,111.72001 z m -32.76188,0.17772 c -26.79583,-40.7832 2.21102,-102.72142 -45.33149,-137.57889 -25.15617,-39.1818 -50.13968,-78.78283 -66.9181,-122.84346 -21.45369,-14.59397 -10.17129,-66.56048 8.99299,-29.0595 24.4717,62.30142 61.45471,118.76697 84.88746,181.39743 14.61602,32.80339 13.78967,71.91135 25.76123,103.64654 9.20531,5.21057 -4.83041,7.92675 -7.39209,4.43788 z m -95.18434,-12.43205 c 0.27207,-15.94613 12.44362,6.29302 0,0 z m 16.06186,0.71733 c 4.57337,-49.32629 -48.743,-37.48737 -75.21664,-64.06688 -9.0048,-55.18298 58.59065,-13.92538 69.51274,13.61312 6.57338,14.62094 11.55056,25.41493 29.31692,34.79931 -3.23345,20.22538 -20.99609,-1.85743 -23.61302,15.65445 z m 150.63546,-14.11067 c 3.19089,-21.87178 25.97932,-38.34376 8.6862,-7.34065 -1.46982,1.35569 -4.24308,10.79921 -8.6862,7.34065 z m -121.99972,-27.4634 c -21.38536,-11.84149 -73.29814,-64.02439 -28.207,-70.67551 17.94449,16.90246 32.36335,46.286 28.207,70.67551 z m 147.14625,-36.36007 c -2.4658,-16.0677 14.64491,-55.81775 5.46094,-16.96803 -2.22355,5.32608 -0.76147,12.62063 -5.46094,16.96803 z m -85.03193,-4.32602 c -0.12569,-41.92244 1.18131,-83.94852 -8.43556,-124.41674 -2.29791,-19.26207 -0.22497,-95.93564 4.68787,-43.96784 -1.02283,51.45913 18.76208,102.09197 7.33065,153.0556 l -1.6642,7.73752 z m 73.79953,-41.23888 c -10.27573,-24.89161 9.09679,-7.08548 0,0 z m -236.03797,-95.03346 c -6.56074,-18.16736 9.03692,-2.26203 0,0 z m -1.23076,-17.26538 c -12.5927,-13.35244 1.31317,9.33768 4.18928,0.98006 z m -6.53781,-13.77615 c -11.11177,-24.43455 12.61143,-0.71467 0,0 z m 110.96844,-15.19116 c -24.39175,-14.5749 12.10717,-12.42047 0,0 z m -14.67567,-15.26749 c -11.20174,-11.33807 22.04546,8.84087 0,0 z m 65.15926,-7.11259 c -3.74015,-12.28472 12.03336,6.57195 0,0 z m -19.94959,-4.51716 c -14.23076,-11.68424 -10.50093,-61.57988 -2.24685,-20.15794 1.76373,3.42303 15.53053,26.00755 2.24685,20.15794 z m -35.78701,-17.18195 c -4.369,-17.98133 18.46484,2.57064 0,0 z m -164.17371,-12.0383 c -2.8639,-35.32564 28.54759,-92.98659 46.11094,-101.52282 1.69965,32.68724 -12.04563,71.73908 -27.87562,97.24198 -5.58882,2.86297 -11.75166,5.34002 -18.23532,4.28084 z m 32.28225,-53.00906 c 13.94626,-31.11523 -16.52294,3.84297 0,0 z m 6.92174,-27.06966 c 17.1366,-22.75852 -12.33149,3.2398 0,0 z m 180.53002,74.19449 c -9.77796,-11.22692 -33.04726,-63.10138 -1.13012,-38.41178 5.65287,11.54462 8.02045,26.8754 1.13012,38.41178 z M -92.188979,442.6724 c -10.606521,-11.36905 -3.072473,-10.74301 1.333816,-0.0689 z M -466.06604,356.13713 c -6.50025,-13.39103 13.07244,-5.84078 0,0 z"
         sodipodi:nodetypes="ccccccccccccccccccccccccccccccccccccccccccccccccccccccccccccccccccccccccccccccccccccccccccccccccccccccccccccccccccccccccccccccccccccccccccccccccccccccccccccccccccccccccccccccccccccccccccccccccccccccccccccccccccccccccccccccccccccccccccccccccccccccccccccccccccccccccccccccccccccccccccccccccccccccccccccccccccccccccccccccccccccccccccccccccccccccccccccccccccccccccccccccccccccc" />
      <path
         id="path1000"
         style="fill:#363a40;stroke-width:0.477612"
         d="m -98.830889,989.14397 c -25.522251,3.62009 -83.265971,-11.02755 -37.861921,-37.6402 51.539077,-19.95831 61.176538,-74.47693 59.971459,-122.72128 15.932939,-44.53533 28.861428,-89.70995 37.806143,-136.20843 4.546391,-25.28818 31.1340141,-82.84002 29.6051435,-28.17557 0.9244153,53.90381 -11.2263655,89.9393 -12.2545525,143.82621 -4.865812,45.17607 -17.227285,108.73696 -17.863039,154.31365 -6.053684,25.70223 -38.479454,26.06698 -59.403233,26.60562 z M -375.12939,941.62574 c -31.75042,-8.69986 -67.32245,-6.20432 -93.43362,-26.09568 39.20043,2.91762 83.13224,6.74191 118.18026,25.44852 -8.24646,0.16826 -16.51933,2.45238 -24.74664,0.64716 z m -135.23827,-1.44841 c -1.01004,-13.12745 11.63619,0.99115 0,0 z m 190.99348,-65.3898 c -0.79649,-36.94924 42.7899,-110.11496 79.91228,-79.54861 1.08677,34.264 -48.28492,73.15871 -79.91228,79.54861 z m -81.76869,-45.72203 c -5.30493,-58.27624 7.70574,-115.95726 10.84599,-173.95214 26.89396,-20.01133 -15.45623,-73.14816 5.2619,-78.06927 16.19809,38.23899 2.11308,80.2002 2.61774,120.20452 -3.54938,43.498 -7.88139,86.96567 -12.52995,130.33805 -1.10341,1.65364 -4.64299,4.65114 -6.19568,1.47884 z m 168.18584,-14.85708 c 5.80823,-21.10001 1.66894,-55.19079 -28.45257,-39.78184 8.62245,-19.69814 33.66817,-27.93662 33.94388,-13.31824 5.79044,-14.30855 21.9409,-84.1532 15.98706,-32.66271 -6.03515,28.74064 -5.92796,59.90828 -21.47837,85.76279 z m -313.17132,-11.4293 c -20.48003,-2.79198 -47.01691,-41.9382 -10.29656,-24.82474 5.69451,1.49395 30.71163,33.8885 10.29656,24.82474 z m 40.02892,-5.66854 c -23.08064,-12.05211 -20.69359,-73.42957 -3.13765,-22.07356 0.95475,5.03435 14.36628,22.27045 3.13765,22.07356 z m 275.98609,-62.27486 c -4.83772,-20.91227 21.77383,1.46801 0,0 z m -14.38919,-14.38013 c 13.60033,-19.53914 16.43771,-73.15873 29.31463,-73.06991 -7.06591,25.11605 -8.92014,54.28596 -29.31463,73.06991 z m 35.5116,-30.70835 c 4.02334,-31.00459 20.66621,-9.52685 0,0 z m 10.33915,-33.6704 c 5.21851,-23.26357 6.74866,-76.85258 18.13432,-79.46897 -2.19037,27.12816 -6.70981,54.55647 -18.13432,79.46897 z m -128.29129,-21.55028 c 21.35941,-43.08996 -17.608,-94.3683 0.59151,-131.8033 45.8383,1.51567 20.63466,54.51813 17.07939,81.69349 -3.32534,17.36584 -6.84534,35.62038 -17.6709,50.10981 z m 115.18256,-9.74964 c -13.04183,-19.72203 37.12406,-62.69815 13.75722,-21.37808 -4.67782,7.04698 -7.17108,15.70112 -13.75722,21.37808 z m -66.3362,-2.31007 c -4.54298,-67.25278 -17.99738,-134.02261 -43.32553,-196.57474 -6.42047,-23.39609 -13.3396,-74.5841 26.79146,-50.07037 12.75532,15.67451 8.72459,40.63449 -14.82006,31.79064 4.46302,39.24076 55.80261,75.02894 95.39193,84.42228 38.82128,8.51184 77.72807,-22.17712 90.25014,-46.54881 -0.90941,31.52389 19.96721,57.83083 -0.57187,82.53428 8.34499,17.13073 40.34398,27.00537 1.11991,32.17631 -27.00308,1.48142 7.54122,-64.99607 -31.5308,-35.62848 -20.5891,30.52511 -40.83594,-18.59491 -11.33615,-10.25339 1.36365,-27.73357 -51.73779,-1.23029 -33.36256,23.71548 -4.50953,33.28463 -22.99474,-16.27566 -31.69325,22.03162 -8.52045,27.79313 -36.28082,40.29927 -46.91322,62.40518 z m 68.44013,-93.22603 c 8.69675,-13.35241 -10.88266,-0.60476 0,0 z m -129.5818,45.46484 c -12.61411,-17.81485 -7.43009,-74.54002 -1.919,-23.50121 0.32839,7.4818 5.66103,16.56404 1.919,23.50121 z m 168.07976,-25.36526 c -1.22863,-12.75836 11.66293,5.30946 0,0 z m -17.76636,-6.98808 c -9.68458,-5.96504 11.89295,-5.27702 0,0 z m -119.58278,-47.64666 c -0.61632,-10.96556 10.67845,6.62434 0,0 z m -36.2985,-1.43284 c -2.58516,-11.67722 10.34736,3.42166 0,0 z m -2.4316,-11.95878 c -13.49175,-18.43739 15.45064,-29.06422 3.65606,-2.55422 l -0.35917,3.11266 z m 123.27265,-1.63778 c -20.30614,-7.22776 -41.84588,-60.68245 -10.27946,-23.14962 26.27839,31.12567 116.90338,-7.35223 65.03169,-34.15175 -8.52762,23.14242 -69.40708,-10.24511 -39.21412,15.6943 17.42459,5.86047 59.14818,0.84842 17.53016,10.79974 -47.49276,17.46935 -80.54395,-56.74808 -36.68579,-80.61851 35.99172,-13.47747 108.06398,-3.66814 85.53033,50.6157 -1.17612,52.49291 -35.98487,65.92425 -81.91281,60.81014 z m 31.35278,-20.7182 c 20.68577,-13.17055 43.40947,-5.15671 7.84051,0.26637 l -4.01806,0.7103 z m -153.72484,-11.77479 c -6.65106,-10.99989 12.56415,1.68806 0,0 z m 2.80006,-10.50746 c -5.36953,-17.48654 17.29557,0.33488 0,0 z m 95.86521,-5.01493 c -14.55267,-14.73826 11.1163,2.03349 0,0 z m -126.93645,-0.97537 c -14.34433,-34.2743 -55.89384,-57.73559 -49.69401,-100.0295 25.53854,-19.91542 24.47579,42.38031 54.25449,44.90094 17.39623,13.55762 5.42383,38.30219 -4.56048,55.12856 z m -62.20819,-7.90556 c -13.76669,-12.56652 -53.872,-57.54362 -41.82736,-52.9826 15.34759,16.10917 34.3301,31.42811 41.82736,52.9826 z m 303.28567,-13.79306 c 13.04231,-30.79351 -9.74689,-89.38158 -43.34485,-46.49726 -27.78669,11.7293 -70.90276,-53.82054 -20.67572,-32.79728 31.6023,-7.62385 75.75471,-6.25218 79.58464,31.6494 27.579865,-1.63674 17.29875,-73.15391 3.61495,-20.7495 -5.9458,-40.42277 57.585288,-40.91659 39.001749,-88.84863 12.732754,-45.01651 21.631441,-107.28429 -38.482899,-118.53972 -45.58659,-15.9329 -74.40083,-65.925066 -123.93696,-68.811358 -29.12813,-2.568139 -10.35777,69.744658 -23.06414,23.654633 -12.51035,-41.38469 33.31884,-90.6679655 42.10836,-52.501869 18.73623,2.499551 42.62736,5.880614 60.68861,8.548464 1.49078,14.90283 -3.52994,8.953557 -11.46314,17.82671 20.02935,15.863447 59.3309,61.06728 64.18451,7.588956 -16.09848,-10.702405 -42.20727,-30.614849 -4.43849,-17.761085 25.279469,12.647697 61.33752,20.696989 28.255412,-10.506835 -17.002553,-20.48049 -21.583252,-7.544393 -23.838162,6.132921 -12.10432,-10.924949 -40.70416,-47.79408289 -34.44062,-42.3398291 35.84122,-24.3745829 90.509624,5.0745961 91.66892,48.3966631 -12.711901,43.226105 31.935755,75.055989 17.648196,118.660479 -20.010595,29.36896 -27.307044,60.30525 -13.395497,95.17037 -33.633987,-43.44677 0.670279,42.81481 -18.898416,58.35882 -7.917772,5.6675 2.858827,-74.50774 -9.050749,-20.15146 -4.099116,26.14842 -24.87525,74.18708 -33.996804,80.45334 -3.12217,-50.53391 -14.0553,28.99425 -27.7289,23.06407 z m 68.006062,-140.55326 c -4.327771,-26.24686 -4.744919,16.03369 0,0 z m 21.59508,-89.14887 c 5.010756,-13.62763 -11.544786,2.31968 0,0 z m 8.874221,-33.23583 c 0.758648,-17.86016 -19.990157,-51.788594 -27.443581,-18.42727 11.759246,-2.02162 21.735702,17.76832 27.443581,18.42727 z m -40.151211,-28.71228 c 38.523966,-13.43928 -28.627672,-71.699791 -10.319273,-39.734844 29.347779,11.928262 -21.744979,26.468354 4.520246,42.489824 z m 17.940011,-14.42329 c 4.382553,-19.732522 -10.762453,1.99518 0,0 z m -45.511213,-1.67089 c 15.862646,-20.112082 -26.34367,1.8663 0,0 z m 55.043344,-21.730499 c -6.430461,-16.287056 -5.578007,9.740372 0,0 z m -8.191426,-14.979182 c -1.621697,-14.330021 -6.953215,-7.356516 -1.117501,1.151746 z M -239.70595,38.879095 c 9.02808,-12.871103 -14.30245,8.652168 0,0 z m -53.86252,308.244465 c -24.82514,-24.20824 -84.0461,15.25226 -81.62287,-44.18532 1.10775,-44.71291 58.57923,-59.9375 51.93137,-109.19847 9.41783,-45.30766 6.18281,37.43876 12.86173,52.56615 15.23985,30.23612 29.69155,66.63501 16.82977,100.81764 z m -123.30248,-33.09124 c -3.72804,-12.71978 12.95182,5.03888 0,0 z m 207.42514,-3.02636 c -16.34091,-13.03448 10.44874,9.4e-4 0,0 z m 6.49944,-4.24061 c -2.90709,-24.06604 28.2149,6.84611 0,0 z M -418.8427,285.83874 c -4.44931,-15.27224 10.08165,-3.10286 0,0 z m 5.63365,-23.62957 c -24.00586,-19.97069 14.11846,-46.35169 24.84006,-36.19033 29.57823,-34.54186 -1.62422,18.19064 -13.5218,26.99645 -3.44498,3.16014 -6.20486,8.36241 -11.31826,9.19388 z m 300.73115,-11.9944 c -61.76887,-4.67108 -49.84886,-79.87542 -1.56569,-81.44309 22.786616,-17.53541 72.241176,39.60352 21.652686,15.79727 12.816481,16.63738 43.848065,11.15042 -10.046986,38.96706 -25.12594,1.93599 -36.95413,9.00152 -10.04001,26.67876 z m -21.0492,-16.44037 c 14.19458,-13.94496 -19.38238,0.52559 0,0 z m -122.43811,15.84681 c -47.42258,-14.79252 28.45216,-12.28185 16.86848,-0.15816 -5.27284,2.37619 -11.53933,2.45325 -16.86848,0.15816 z m 158.630237,-5.27413 c -1.097218,-13.59972 11.582968,0.68042 0,0 z m -336.928367,-9.04801 c -9.30013,-19.47881 16.25562,-89.35168 10.28051,-31.89491 -1.66821,4.11986 -3.60911,40.83081 -10.28051,31.89491 z m 199.79066,-7.78331 c -70.49866,-24.42813 -87.45182,-15.85504 -34.33953,-32.89686 18.85778,-7.20917 39.67654,-23.11288 9.11836,-14.55002 -53.59912,25.72608 10.78771,-44.12733 33.77342,-11.83144 24.01122,6.74929 39.6622,50.34502 2.87978,47.20104 9.89681,12.01954 -5.30975,7.71409 -11.43203,12.07728 z m -0.2388,-7.35227 c 3.71915,-10.56419 -16.86362,6.92766 0,0 z m -21.70763,-10.24622 c -6.31752,-12.40192 -19.14615,8.6038 0,0 z m -145.22956,3.80206 c -3.20788,-14.31117 13.15505,3.33894 0,0 z m 30.31146,-19.47817 c 0.39533,-41.61307 19.12625,-23.71911 0,0 z m -20.80486,-4.01312 c 1.77135,-14.8462 9.85577,2.08809 0,0 z m -22.84363,-8.0776 c -2.72828,-15.33439 16.36682,1.63748 0,0 z m -4.46872,-6.23133 c 14.37622,-17.94256 -0.26362,-29.06121 -9.20722,-6.38074 -10.845,-52.40179 37.79823,-89.562832 63.11352,-129.150625 30.98916,-11.709339 -14.98155,35.989032 -13.76984,52.116924 -42.37824,-4.364877 2.97859,77.379231 -40.13646,83.414441 z m 33.08828,-2.16868 c -5.87343,-24.37204 21.4008,-4.02445 0,0 z m 0.26717,-36.29851 c 4.76829,-16.4871 61.34009,-88.269748 48.18062,-66.271394 -12.62421,24.154285 -26.08546,49.409024 -48.18062,66.271394 z m 117.51116,-7.79531 c -5.71208,-16.93895 8.79748,-0.37403 0,0 z m -37.24329,-1.56542 c 2.0441,-27.1904 28.69949,-2.36378 0,0 z m -82.00965,-6.63927 c -7.82497,-24.662429 17.73252,-0.66173 0,0 z m 93.01239,-10.26866 c -3.41773,-21.737252 21.44815,-4.97107 0,0 z m -73.85327,-17.810074 c 4.07744,-15.90019 15.65559,0.844134 0,0 z m 239.49463,-8.12052 c 9.41428,-28.6974 25.4482,-2.042088 0,0 z m -2.1215,-18.036662 c -4.12568,-10.443637 14.63924,5.827002 0,0 z m -196.4577,-2.56011 c -5.82147,-26.443529 17.12567,-20.135303 0,0 z m -18.765,-14.229058 c 0.41826,-12.105926 14.38702,1.96449 0,0 z m 9.24261,-11.841728 c -42.9096,-24.697731 67.88903,-55.734782 14.52577,-23.255843 -9.92276,0.831543 -9.756,31.260516 -14.52577,23.255843 z"
         sodipodi:nodetypes="ccccccccccccccccccccccccccccccccccccccccccccccccccccccccccccccccccccccccccccccccccccccccccccccccccccccccccccccccccccccccccccccccccccccccccccccccccccccccccccccccccccccccccccccccccccccccccccccccccccccccccccccccccccccccccccccccccccccccc" />
      <path
         id="path998"
         style="fill:#202225;stroke-width:0.477612"
         d="m -104.4712,986.7829 c -9.4262,-34.93475 67.827146,-36.13157 61.539963,-81.1539 5.979619,-27.0851 -1.952621,-104.48004 21.36662,-97.4043 1.500134,204.8396 -10.469146,108.56901 -11.604219,160.43063 -11.176929,23.33947 -42.432658,25.52332 -71.302364,18.12757 z M -270.70399,593.33253 c -12.59254,-45.18521 -27.26753,-95.22512 -28.12753,-140.22227 31.4036,15.00379 59.51348,43.47245 89.23535,51.48984 -23.46847,26.76097 -22.68297,74.22092 -61.10782,88.73243 z m -47.03051,-17.03461 c 5.48575,-16.19666 -16.473,-80.37653 10.25049,-60.63021 -1.60825,19.86657 -10.39921,24.37251 -0.78816,49.73505 l -2.82834,5.56866 z m 10.51691,-33.59226 c -6.68265,-13.44443 10.38091,0.37581 0,0 z m 102.38451,-1.88084 c -3.93839,-17.46245 11.37162,-7.57521 0,0 z m 5.87591,-40.50851 c 5.75991,-11.82601 18.29517,5.18215 0,0 z m 19.15688,-3.60373 c 10.65383,-8.91386 21.48829,2.11596 1.90456,0.28946 z m -35.40576,-20.7808 c 12.76986,-24.77005 81.06855,1.32431 25.63991,-1.19395 -8.55001,-0.37488 -17.21132,-0.55386 -25.63991,1.19395 z m 23.71845,-27.91132 c 23.10257,-23.17963 33.48066,5.18929 0,0 z m -114.89125,-1.10057 c -21.98092,-16.48022 12.70644,1.88872 0,0 z m 79.7668,-6.02231 c -47.79958,-25.38875 -6.85618,-80.96582 32.97065,-64.34945 17.25481,1.04409 12.68121,-11.6659 36.47333,3.26242 31.94061,39.59412 -21.30946,52.24557 -52.39906,44.00964 -30.8974,-12.34835 -10.24483,21.53597 -17.04492,17.07739 z m 79.13175,-31.60036 c 2.3215,-17.78029 -7.47139,12.62727 0,0 z m -242.49105,-20.61761 c -10.66875,-14.64715 16.2759,9.45639 0,0 z m 2.80681,-7.44781 c -23.53213,-9.92689 -43.09183,-57.7998 -8.49578,-21.88209 2.89001,2.98849 30.60989,34.03004 8.49578,21.88209 z m 259.31749,0.27982 c -18.63619,-34.05803 16.66897,-29.30546 0,0 z m 27.83445,-12.75227 c -4.67522,-21.39585 26.991899,-44.23956 9.088538,-11.66467 -2.656363,2.36631 -3.405046,13.87587 -9.088538,11.66467 z M -196.00581,356.437 c -33.71398,-20.55702 -12.75836,-26.6388 15.23447,-23.32627 25.63422,-9.03449 43.53744,16.7682 9.08655,22.18759 -7.97241,1.44796 -16.24919,2.90486 -24.32102,1.13868 z m -151.72306,-18.61183 c -12.8161,-21.94464 24.97588,-0.94788 0,0 z m -72.8938,-5.98519 c -3.26804,-16.25056 18.42023,5.38449 0,0 z m 86.17883,-1.43853 c -12.72542,-15.49737 19.78334,-0.79176 0,0 z m -17.68344,-7.75407 c -52.57106,-7.29308 15.80736,-98.70843 24.48513,-52.99233 8.82188,24.08545 4.23179,52.99914 -24.48513,52.99233 z m 286.371017,-60.52465 c -7.683004,-21.72301 10.369456,-16.68929 0,0 z M -326.80823,236.21231 c -13.73802,-23.40633 22.97436,-8.61972 0,0 z m 262.22331,-7.0589 c -17.688324,-24.01994 17.705394,4.65112 0,0 z m -170.14334,-4.68386 c 3.46862,-16.51182 20.09971,4.97801 0,0 z m 117.50931,-0.94267 c -16.87805,-11.46327 -44.06669,-41.01987 -7.59706,-50.56628 17.24974,-17.06993 73.068468,17.39949 29.956124,4.79186 -32.374894,0.77955 -22.085424,22.81422 3.721417,17.92265 26.22812,8.9475 -12.823521,35.02423 -26.080481,27.85177 z m 24.976622,-10.51269 c 6.511877,-19.4819 -11.923342,7.01403 0,0 z m -167.373452,3.79718 c 15.71786,-16.07308 -38.4834,-7.10593 1.22002,-19.89624 27.91281,-2.16142 26.73925,-30.13924 -1.09042,-18.31728 -47.95588,13.62787 28.74316,-33.96571 41.9547,-3.10175 33.34217,29.26526 -16.92248,47.31137 -42.0843,41.31527 z m 197.36218,-3.2351 c -5.595281,-27.08317 28.232313,-17.47049 0,0 z m 0.198829,-22.26355 c 21.139446,-21.02392 -56.572559,-73.92318 -5.035808,-55.85774 -5.995033,21.03304 27.046192,37.06489 5.035808,55.85774 z m 12.774161,-3.99361 c -5.919493,-17.66503 18.140034,13.38582 0,0 z m 5.101421,-25.84 c -23.406923,-20.62496 19.808433,-9.45154 0,0 z M -107.80803,135.6958 c -43.26747,-12.63177 20.610345,-25.83623 9.769646,1.65015 -3.006346,1.68012 -6.601826,-1.41307 -9.769646,-1.65015 z m -28.49056,-14.48269 c -14.1057,-26.734197 -75.36597,-43.495441 -75.37572,-58.362568 23.37342,12.422942 90.02018,24.178311 75.37572,58.362568 z m 73.899605,-34.865672 c -11.889017,-13.933815 14.071359,-2.172915 0,0 z M -195.06769,66.413386 c -2.47033,-14.638164 11.29746,-1.193886 0,0 z M -51.959392,60.80231 C -58.385369,39.466147 -86.510739,42.0801 -85.859129,16.662083 -107.20702,-29.976022 -31.27934,43.744347 -51.959392,60.80231 Z M -229.33835,55.837334 c -5.91671,-10.806199 10.46778,4.125713 0,0 z m -19.63521,-0.746995 c 6.07347,-22.878847 29.63677,-0.09987 0,0 z"
         sodipodi:nodetypes="cccccccccccccccccccccccccccccccccccccccccccccccccccccccccccccccccccccccccccccccccccccccccccccccccccccccccc" />
    </g>
  </g>
</svg>
