<?xml version="1.0" encoding="UTF-8" standalone="no"?>
<svg
   xmlns:dc="http://purl.org/dc/elements/1.1/"
   xmlns:cc="http://creativecommons.org/ns#"
   xmlns:rdf="http://www.w3.org/1999/02/22-rdf-syntax-ns#"
   xmlns:svg="http://www.w3.org/2000/svg"
   xmlns="http://www.w3.org/2000/svg"
   xmlns:sodipodi="http://sodipodi.sourceforge.net/DTD/sodipodi-0.dtd"
   xmlns:inkscape="http://www.inkscape.org/namespaces/inkscape"
   version="1.1"
   id="svg1567"
   width="843.84003"
   height="928.96002"
   viewBox="0 0 843.84003 928.96002"
   sodipodi:docname="young-deer-horns-and-hands.svg"
   inkscape:version="1.0.2 (e86c870879, 2021-01-15)">
  <metadata
     id="metadata1573">
    <rdf:RDF>
      <cc:Work
         rdf:about="">
        <dc:format>image/svg+xml</dc:format>
        <dc:type
           rdf:resource="http://purl.org/dc/dcmitype/StillImage" />
      </cc:Work>
    </rdf:RDF>
  </metadata>
  <defs
     id="defs1571" />
  <sodipodi:namedview
     pagecolor="#ffffff"
     bordercolor="#666666"
     borderopacity="1"
     objecttolerance="10"
     gridtolerance="10"
     guidetolerance="10"
     inkscape:pageopacity="0"
     inkscape:pageshadow="2"
     inkscape:window-width="2560"
     inkscape:window-height="1440"
     id="namedview1569"
     showgrid="false"
     inkscape:zoom="1.1630927"
     inkscape:cx="366.21508"
     inkscape:cy="508.37178"
     inkscape:window-x="0"
     inkscape:window-y="0"
     inkscape:window-maximized="0"
     inkscape:current-layer="g1607"
     inkscape:document-rotation="0" />
  <g
     inkscape:groupmode="layer"
     inkscape:label="Image"
     id="g1575">
    <g
       id="g1607"
       transform="translate(13.954144,2.293334)">
      <path
         id="path1619"
         style="display:inline;fill:#b4b7b4;fill-opacity:1;stroke-width:0.32"
         d="m 292.04603,928.71448 c 31.97492,-43.52392 48.41749,-96.28354 78.68425,-140.47531 -0.66022,-32.31071 28.05944,-84.98528 -10.86987,-102.42131 -43.26285,-1.74104 -85.57398,-18.59591 -128.90287,-13.51845 -51.02333,-14.51086 -67.73871,-75.3533 -101.32639,-111.46086 -7.74463,-11.93113 -40.670866,-43.04217 -41.611844,-52.28625 23.529814,11.05879 53.195444,-50.34488 72.831904,-4.26844 34.85056,32.25939 53.85709,108.0389 113.71665,89.64183 46.94611,-3.73664 100.18505,-5.68563 130.39529,-47.65862 39.49365,-35.99948 -36.23987,-40.76245 -23.56104,-81.81004 6.39427,-24.6911 -31.22003,4.79269 -19.20604,-31.53045 18.14209,-30.68753 19.44891,-62.55784 -17.41536,-81.93796 -15.93563,-7.26737 -46.83405,-54.90979 -16.52531,-22.94891 22.13454,17.41762 42.7376,55.63034 66.19498,61.00528 -15.37757,-39.67812 -52.20981,-43.6521 -71.11002,-77.3188 -17.46615,-17.38211 -42.1092,-67.39204 -60.09643,-40.57978 -45.34137,-17.4449 -37.15925,-74.66485 -58.92296,-108.53597 -24.1022,-21.97355 -21.54582,-86.978395 -7.06568,-97.11695 3.36002,26.570509 -5.58357,64.09471 17.98819,81.85857 -5.68874,-20.04234 29.87034,-83.794046 16.0129,-31.97726 -15.25387,46.27295 -6.89774,112.24935 46.43491,127.8843 13.77689,-25.60027 -13.21607,-82.11672 34.4601,-82.81423 -23.76982,34.44469 -16.62369,82.20526 0.16838,118.71121 10.11841,14.22341 62.38105,76.17553 49.18641,24.66275 -25.23697,-2.20436 31.83512,-47.33122 2.36054,-24.16987 11.76051,-29.44773 19.08924,8.13117 7.60667,22.52857 -2.92205,18.60337 24.83477,71.47359 24.4394,24.62483 6.98965,-33.65102 68.68845,-26.9524 70.72036,-37.66251 -20.95948,-16.34995 -15.84067,-71.75425 -11.59097,-22.93812 1.10993,24.22885 59.31004,40.14527 21.1479,14.15241 -32.25826,-12.20544 -10.48224,-93.68483 -2.69208,-34.86932 2.67921,25.15351 27.37354,54.15529 40.67919,17.40802 16.68209,-19.54623 40.58923,-36.79844 45.24092,-64.36273 -13.78947,16.38127 -46.21314,41.06741 -16.38273,7.30189 -10.37386,-17.26206 -34.79636,-39.71433 -46.9669,-53.10878 -6.04475,11.67084 22.65606,31.09869 -2.95801,9.20655 -19.33333,-8.97389 -49.37055,-33.17304 -9.2552,-24.56285 36.46088,2.1482 63.82718,37.56674 80.29121,63.04435 21.3885,-27.44166 20.25019,-71.08476 36.30308,-103.601888 23.66016,-30.015593 5.42386,-71.85893 9.99046,-97.41388116 C 649.35643,24.478874 621.44985,78.24156 608.18093,112.0633 593.21052,160.549 586.9325,213.24171 547.96184,250.74694 c -30.52477,30.0665 -40.37835,81.50036 -18.1161,119.13765 -3.52631,41.00782 -30.57753,83.33421 -20.86407,123.22979 51.6838,43.15894 73.54788,-44.59996 106.85482,-68.47794 29.93949,-42.18703 70.4294,-88.61419 89.45307,-135.68741 -3.29007,-19.85895 -14.30069,-124.95227 16.41735,-36.25262 6.9207,-51.08794 2.83011,-161.676528 24.4182,-33.39803 69.38295,-185.448841 -16.37427,90.29004 61.51211,-50.48274 18.11456,-0.29491 -51.10939,108.85926 12.89855,60.12295 24.28008,6.71166 -26.92444,41.21367 -37.954,50.73879 -40.04826,49.43958 -69.53365,106.27954 -97.37408,163.10225 -28.5997,31.36552 -50.32891,70.57387 -62.63564,112.27662 -16.83975,27.66701 -31.56582,59.5458 -33.51194,93.60211 -2.49089,38.69079 -22.38474,73.32619 -16.09134,112.43385 -0.68873,49.05424 -11.77702,98.29186 -0.0831,146.81604 -2.65719,46.63001 -70.5494,9.4248 -101.33274,21.01226 -59.83568,0.0539 -119.67168,0.0534 -179.50694,-0.20603 z M 569.96536,793.28293 c 9.27836,-11.98055 -10.91958,0.6001 0,0 z m -6.4351,-4.56291 c 14.55173,-22.07857 -20.03173,-7.63187 0,0 z m -25.45024,-4.61274 c -11.55862,-13.18917 -14.79985,1.72517 0,0 z m 8.16,-0.12474 c 34.16041,-27.00155 -18.14817,-26.76262 0,0 z m 1.14339,-7.76585 c -3.31527,-4.92948 6.22164,1.76006 0,0 z m 3.37619,-3.33456 c -9.13847,-5.1941 11.6602,-7.33848 0,0 z m -34.43696,8.53405 c 12.9135,-10.4982 -15.92746,-6.38704 0,0 z m 6.6009,-0.14858 c 7.19016,-6.4632 -6.53217,-2.27203 0,0 z m -22.84352,-1.04128 c 0.64673,-22.90803 -29.48497,1.94414 0,0 z m -20.53488,-2.55648 c 10.69305,-15.40109 -7.17108,-16.53868 0,0 z m -10.84004,-1.52918 c 27.87086,-16.64469 -16.42732,-21.81673 0,0 z m 3.08842,-6.48205 c -2.79607,-5.26037 6.62903,-0.52816 0,0 z m -11.16157,1.59648 c 10.61243,-26.80926 -8.64002,9.22243 0,0 z m -7.54422,3.33657 c 10.12643,-10.94594 -8.81784,-7.47545 0,0 z m 82.64711,-1.04124 c 18.1721,-13.07623 6.42147,-24.78048 0,0 z m 24.03878,-1.37821 c 5.65338,-2.6077 -1.48109,-4.66067 0,0 z m -115.16535,-0.53123 c 11.49307,-13.15942 -10.40851,-2.14366 0,0 z m -7.29037,-0.61757 c 8.08002,-8.49682 -7.06832,-4.69331 0,0 z m 88.04055,-0.59747 c 45.9957,-36.96375 -35.45723,-9.4244 0,0 z m -7.91843,-2.50996 c -1.35577,-5.07989 6.84783,0.90553 0,0 z m 5.90851,-6.29891 c 0.15576,-6.7606 4.3676,3.15817 0,0 z m 10.59434,-11.0799 c -1.31667,-6.26657 6.17899,2.67954 0,0 z M 429.5205,768.98885 c 3.23952,-13.04461 -9.24055,3.53166 0,0 z m -10.3529,-0.70547 c 9.34752,-7.32666 -8.17671,-2.43246 0,0 z m 86.75242,-1.72 c -2.74856,-5.83668 -3.06945,5.64829 0,0 z m -9.91674,-1.09959 c 5.13908,-15.57907 -20.08748,-2.07549 0,0 z m 14.87904,-2.58003 c 10.14626,0.68182 2.6231,-11.16513 0,0 z m -70.13914,-1.39389 c 32.81743,-17.6779 -30.79286,-28.55846 0,0 z m 123.37364,-0.0765 c 16.3279,-4.03396 -4.42443,-5.77353 0,0 z m -56.20819,-0.46989 c 32.63925,-24.55274 2.10935,-23.56191 0,0 z m -82.97527,-0.28301 c 13.13538,-25.48443 -25.06354,-12.51689 0,0 z m -26.85335,-0.35401 c 27.84236,-10.75157 -21.30598,-16.29239 0,0 z m 1.44416,-8.89024 c -6.32366,-4.22047 7.52075,0.6835 0,0 z m 13.63946,8.39689 c 7.2545,-15.38959 -10.85973,-12.66269 0,0 z m 18.19639,0.13421 c 4.70248,-18.38953 -9.17735,-13.47661 0,0 z m -43.77943,-2.52982 c 9.90465,-15.18077 -8.97249,-0.36271 0,0 z m 67.85943,0.43942 c 0.53396,-13.43005 31.01081,0.0436 7.45027,-21.58767 -14.68093,-8.9241 -19.3794,17.24627 -7.45027,21.58767 z m 10.16,-5.88947 c 3.55066,-6.86296 8.38983,4.51617 0,0 z m -0.10666,-4.02074 c 0.52051,-7.90738 7.74225,2.2972 0,0 z m 18.3057,9.95411 c 6.87987,-5.83913 -6.41742,-2.99537 0,0 z m 72.07478,0.22301 c 24.22973,-13.54369 2.52076,-24.60304 0,0 z M 380.80001,757.7387 c 6.81314,-5.69437 -8.13978,-7.06789 0,0 z m 139.27207,-0.92246 c 15.012,-8.61391 3.77156,-14.47615 0,0 z m -24.52297,-3.05622 c 24.62691,-15.33571 11.58985,-31.29732 4.35195,-36.49245 -7.333,-3.24675 -26.41134,32.56928 -4.71687,14.8899 -9.30954,7.37056 -18.68354,20.08759 0.36492,21.60255 z m -4.6784,-3.93719 c -4.81242,-8.27069 6.91999,4.00662 0,0 z m 3.22972,-3.02489 c -5.81696,-7.42582 7.3813,1.9401 0,0 z m 4.08599,-2.42042 c -8.1458,-6.69558 10.82117,-6.45846 0,0 z m 4.49827,-7.48266 c -13.60472,-15.82299 8.43286,-3.79377 0,0 z m 2.91533,15.65293 c 16.89654,-14.32612 14.57691,-26.92253 0,0 z m 43.56426,-0.35273 c 21.15896,-18.23756 12.24271,-28.88759 0,0 z m -69.3193,-2.45072 c -0.32909,-9.3684 -6.6149,3.05194 0,0 z m 65.20432,-1.94471 c 31.3155,-10.48674 -12.22846,-46.93203 -15.57349,-12.82208 21.66751,-16.17055 0.58472,8.58747 13.17216,13.39526 z m -5.1465,-8.69485 c -2.67267,-5.6018 7.096,4.13712 0,0 z m 8.61037,-3.2759 c -15.89633,-9.20035 7.92917,-1.95027 0,0 z m 2.79351,-6.1625 c -8.10023,-1.49524 3.68286,-4.48655 0,0 z m -157.98241,14.27565 c 10.6761,-23.19442 -13.56252,-16.32839 0,0 z m 11.59437,-0.97821 c 14.87755,-32.15574 -22.68579,-11.87065 0,0 z M 385.9908,740.3075 c 9.07659,-16.61711 -7.73617,-13.88521 0,0 z m 29.85469,1.21252 c 36.67564,-7.62328 -16.22567,-43.65903 0,0 z m 5.83452,-7.74778 c -1.76261,-7.8081 10.1283,2.42452 0,0 z m -5.82547,-0.30874 c 1.28293,-4.81636 1.09049,-4.09392 0,0 z m 5.71629,-6.90582 c -0.037,-8.05854 5.50095,3.24918 0,0 z m -11.32902,13.92138 c 4.00565,-13.31904 -5.96038,-19.43198 0,0 z m 24.7224,-4.32551 c 8.67671,-5.68345 5.24405,-29.13633 -3.58061,-11.29589 l 1.36721,7.39399 z m 40.08928,-1.77536 c 31.24704,-5.45971 7.87482,-56.22501 -4.89132,-18.33481 -6.98483,5.3803 -6.13274,20.06682 4.89132,18.33481 z m -7.10074,-6.71331 c -3.96767,-4.74203 6.73753,-1.03766 0,0 z m 7.09203,-0.95261 c -4.09667,-7.25196 7.64065,0.0816 0,0 z m -1.26678,-9.14 c -1.01529,-7.34092 6.96964,3.70762 0,0 z m -23.28368,14.75859 c 7.80099,-11.55741 -11.53688,-0.69415 0,0 z m 72.8657,-3.80486 c 35.48267,-13.37902 -14.54405,-30.03696 -4.7322,-1.79372 z m 2.88,-6.99779 c -0.43093,-5.34886 6.7033,2.00484 0,0 z m -74.79741,1.14317 c -0.43512,-16.05476 -9.40908,-5.18635 0,0 z m 11.63577,-1.12068 c 19.22954,-23.72464 12.47014,-29.43109 -0.71516,-2.58423 z m 50.68154,-3.47033 c 13.52606,-11.50877 -8.48866,0.50525 0,0 z m -108.61706,0 c 31.14409,0.777 -9.62633,-21.94977 0,0 z m 1.84823,-5.25959 c 3.69085,-2.587 2.22481,-1.55942 0,0 z m 53.46646,1.03444 c 17.96451,-14.42418 14.65211,-40.23709 0.54992,-13.60608 1.81485,3.47318 -11.53121,18.63353 -0.54992,13.60608 z m -65.39386,1.43974 c -5.44823,-0.0684 -12.53889,-0.15742 0,0 z M 552.626,714.7117 c 7.54907,-20.97956 -24.82938,-2.78877 0,0 z m -3.90211,-4.81412 c -2.08136,-7.5107 6.44736,1.67039 0,0 z m -39.60387,4.52551 c 27.30005,-10.48993 6.88325,-20.31064 0,0 z m 60.09056,-0.93571 c 8.7209,-15.83152 -11.83467,3.61971 0,0 z m -6.89056,-0.27536 c 9.02157,-15.61411 -9.61934,-9.89181 0,0 z m -130.56,-0.77063 c 0.83969,-8.99574 -11.28507,1.57946 0,0 z m -8.52954,-0.20518 c 2.25066,-6.62581 -6.57051,1.97521 0,0 z m 98.04343,-0.86631 c 20.87574,-6.61872 -6.50093,-5.03463 0,0 z m -76.29105,-3.55065 c -0.67534,-6.60203 -4.74794,4.52053 0,0 z m 57.80653,-0.37923 c 27.34586,-13.19146 4.17229,-20.8642 0,0 z m 25.9794,-1.17239 c 7.21057,-6.07995 -8.79829,0.70941 0,0 z m -122.28471,-1.45785 c 32.38977,-3.73934 -22.2406,-26.29427 -6.02393,0.3867 z m 34.66211,0.47024 c 3.59577,-6.87941 -8.81717,0.59507 0,0 z m 129.31252,-0.24 c 7.65694,-15.4083 -12.39508,0.0681 0,0 z M 449.42635,704.2979 c 30.94021,-29.02913 2.34078,-38.40981 0,0 z m 48.06612,-1.73942 c 49.00013,-33.01031 -31.00045,-22.42017 0,0 z m -0.13367,-4.36768 c -1.37525,-15.78095 14.28294,-14.691 0,0 z m 75.16679,1.96922 c 12.0301,-4.24605 -1.42077,-12.57759 0,0 z m -135.12481,-0.70349 c 3.61098,-5.87707 -7.49111,1.47842 0,0 z m 107.95956,-0.46208 c 8.12177,-20.58904 -16.84102,-6.31144 0,0 z m 5.10896,-1.07443 c 3.5639,-17.57421 -11.15304,-19.33302 0,0 z m 4.25072,-1.09789 c 32.08435,-19.2379 -22.87732,-38.05068 0,0 z m 4.704,-8.88612 c -1.37634,-5.13245 5.78694,1.6957 0,0 z m -4.2889,-0.67145 c -5.12737,-6.19131 6.46916,-0.072 0,0 z m 3.86164,-4.62 c -5.32077,-5.60917 7.87304,-1.97107 0,0 z m -5.63674,-2.25136 c -3.60557,-4.57897 5.55748,-1.11991 0,0 z m -21.08429,16.08681 c 8.58686,-15.85988 -6.90468,-8.48573 0,0 z m -87.85629,-0.08 c 36.21806,-17.02302 -9.48722,-65.10546 -8.25949,-26.74545 20.36179,-16.63337 -13.95824,22.62182 8.25949,26.74545 z m -3.53942,-10.6462 c -3.82016,-15.82929 11.1697,4.02689 0,0 z m 7.08019,-11.10231 c -11.84987,-13.98168 7.58646,1.92314 0,0 z m 3.87981,-1.46262 c -9.44497,-5.87392 5.41132,-4.92669 0,0 z m -22.27117,17.96073 c 9.42789,-8.02561 -8.96272,-6.82681 0,0 z m 56.33286,-1.90121 c 29.97688,-19.0051 1.32496,-32.80484 0,0 z m 84.65831,-1.58727 c 2.42146,-20.61421 -10.30551,-15.89145 0,0 z m -186.82321,-1.34204 c -1.90512,-7.09681 -7.61243,3.90685 0,0 z m 192.90321,-3.75725 c 2.53854,-11.42228 -6.05932,4.96377 0,0 z M 384.4971,681.43761 c -8.7953,-30.59855 0.40958,-111.37113 -48.00592,-87.17471 -18.23141,9.41393 -14.14328,6.25092 -35.95264,3.43453 -21.11964,19.39478 -76.02781,-13.15247 -62.22245,31.00701 2.6753,31.16426 -64.54841,-38.24616 -48.02813,3.81203 26.58179,32.33146 70.33681,22.26583 103.47723,23.6977 19.44477,15.6181 62.16151,-6.31775 59.27688,12.28384 10.85241,3.44325 20.27535,10.42433 31.45503,12.9396 z m -16.25395,-8.57177 c -1.09802,-5.59497 6.80351,3.84223 0,0 z m -4.64314,-14.83776 c 3.74338,-7.25775 7.42695,3.0093 0,0 z m -55.79893,-1.14807 c -4.38745,-7.16785 6.36976,-0.76953 0,0 z m 0.32001,-16.42083 c -12.7455,-24.36446 29.11986,-6.83812 0,0 z m -36.60905,-1.74797 c -45.10859,-31.78062 44.13402,-11.38967 0,0 z m 73.14813,-9.57875 c -12.41052,-6.24692 13.24404,-4.66449 0,0 z m 83.75511,52.64186 c -0.39822,-5.34953 -4.92724,4.89831 0,0 z m -16.46362,-0.276 c 19.1508,-22.5544 -9.84313,-39.98165 -22.83926,-34.85977 10.29344,-28.22578 -8.63897,-53.23962 2.13988,-49.85009 26.71839,-30.60537 -5.28608,-14.25015 -14.20159,-2.8052 -4.45893,22.20917 8.78824,72.00269 34.90097,87.51506 z m -32.51165,-68.27888 c 0.21584,-10.7009 0.2455,-12.17183 0,0 z m 13.2,-24.33268 c -3.81511,-4.4198 6.1379,-1.27522 0,0 z m 6.45136,-6.34182 c -1.42148,-6.06795 4.83157,2.81103 0,0 z m 80.46138,99.14115 c 28.94298,-15.53333 6.56602,-46.68433 -10.09678,-13.61953 -0.31667,6.16341 8.51052,8.54785 10.09678,13.61953 z m 2.8418,-12.11315 c -2.61753,-7.47705 7.63489,0.43988 0,0 z m -6.51809,-0.56899 c -4.58707,-6.8806 6.69618,-0.0544 0,0 z m 60.49806,11.46557 c 22.06756,-19.5146 -17.35097,-9.56176 0,0 z m 1.8471,-9.62387 c -0.72362,-5.52696 4.42238,2.75191 0,0 z m -10.11869,3.89216 c 9.55988,-8.19315 -7.33183,0.20885 0,0 z m 54.27511,-0.0298 c 2.12876,-17.06545 -17.23148,-3.61042 0,0 z m -58.55645,-0.6114 c 10.63902,-9.38932 -10.59847,-2.44018 0,0 z m -6.58957,-3.45664 c 7.252,-3.71218 8.63784,-21.88676 2.04282,-6.85304 z m -3.52519,-3.22342 c 16.38768,-26.56674 -19.83123,-11.53901 -2.94105,1.1827 z m 2.01037,-10.46035 c -9.82598,-2.21355 5.50648,-6.18439 0,0 z m 13.87571,9.11142 c 8.29841,-13.054 -10.27824,3.89158 0,0 z m -62.23113,-1.1096 c 27.0355,-14.82468 21.07222,-35.87564 0,0 z m -138.64666,-1.07824 c 1.14,-5.26361 -5.76852,3.0416 0,0 z m 97.36051,-0.67491 c 34.89562,-11.38526 -0.60839,-45.53132 -8.26335,-11.18898 l 1.67374,4.39644 z m 0.37578,-8.24774 c -2.52396,-5.39791 5.22211,1.44537 0,0 z m -6.37821,-1.11716 c -3.18563,-5.60844 5.34437,-0.28701 0,0 z m 5.1465,-4.79337 c -4.822,-4.87066 6.36296,-2.45339 0,0 z m 7.74032,-0.64592 c -4.98087,-1.99189 5.84957,-2.42277 0,0 z m 5.34214,-4.31655 c -5.70848,-6.37863 6.75549,0.63069 0,0 z m -5.3441,-1.52537 c -8.03325,-2.81611 7.31451,-3.545 0,0 z m 129.31326,17.15469 c 3.45638,-11.84231 -7.81819,5.89949 0,0 z m -98.77831,-0.0785 c 21.2534,-7.9519 26.46275,-36.75509 1.15737,-11.12713 -3.7228,1.63952 -8.59794,10.80554 -1.15737,11.12713 z m 39.08163,-4.91498 c 13.80265,-16.22076 -0.53113,-11.38447 -2.89688,1.04916 z m 31.96029,-1.32678 c 4.76245,-22.50255 -43.97398,-17.96762 -6.26685,-3.34054 z m -77.5433,-3.82707 c 16.85371,-11.29094 23.03948,-30.63307 2.82152,-8.02409 -5.07856,-5.40343 -8.91238,12.41935 -2.82152,8.02409 z m 41.47584,-3.9921 c 19.48424,-19.8682 -14.4879,4.00029 0,0 z m 87.68909,-2.05405 c -5.05109,-35.27455 22.28008,-80.27851 -3.48326,-105.54307 9.82499,11.9371 -22.49464,-37.79116 -27.74598,-18.22338 -21.65384,-7.46398 -40.87175,9.18385 -36.07114,21.1706 -17.5826,-21.65765 -46.05954,23.81728 -73.27389,5.9343 55.53737,76.32464 185.50156,9.21304 125.6746,93.81926 l 5.27705,2.05323 z M 457.9861,557.16084 c 1.27485,-7.65166 4.28431,4.14839 0,0 z m 84.65907,-7.40684 c -14.71717,-18.0809 29.79849,-9.35064 0,0 z m 20.62186,-1.8593 c 0.72319,-6.07833 5.31672,1.34318 0,0 z m -1.4049,-13.34614 c -14.96603,-7.92881 13.52071,-9.02067 0,0 z m -27.22211,-2.41418 c -3.48984,-14.34325 15.71543,-0.52795 0,0 z m 34.80205,-6.33715 c 1.36663,-8.51296 8.40736,4.49219 0,0 z M 416.32001,644.62875 c 17.72473,-7.76604 23.30548,-26.06011 3.44804,-4.27898 z m 34.84282,-1.3761 c 46.51584,-13.2211 1.14457,-66.05318 -7.73637,-17.68452 19.61482,-3.05743 -2.95615,11.10608 7.73637,17.68452 z m 5.65363,-12.12521 c -6.1893,-12.58006 10.97173,-4.68214 0,0 z m 8.09268,-6.7024 c -9.39997,-6.29024 6.05545,-6.18248 0,0 z m -13.06612,-3.69703 c 0.54438,-18.43627 19.29862,-0.65042 0,0 z m 104.43764,22.0712 c 3.69907,-7.37808 -6.21813,1.51359 0,0 z m -145.53953,-0.91417 c 20.68132,-8.43977 22.99428,-29.65122 0.69518,-7.38125 l -1.64036,3.74773 z m 85.70708,-3.16503 c 2.86298,-12.22114 -12.46403,-0.68463 0,0 z m 68.19181,-0.64 c 14.51808,-4.2741 -10.17068,-3.46637 0,0 z m -117.35767,-4.40492 c 1.08202,-7.85628 -6.74633,4.32269 0,0 z m -41.04234,-3.59508 c 20.6996,-11.9022 21.32073,-20.42272 -2.15195,-6.22539 -1.49393,1.70159 -1.41109,7.19566 2.15195,6.22539 z m -3.6,-6.20544 c 39.22786,-5.72196 2.37826,-52.37312 -7.76909,-25.06715 33.04297,-10.86976 -16.97046,14.79974 7.76909,25.06715 z m -2.99964,-6.51456 c -7.83588,-12.39013 9.85286,-5.05815 0,0 z m 6.68169,-4.42464 c -8.92986,-15.54377 8.72196,1.23543 0,0 z m 7.0081,-2.64572 c -7.22948,-14.78978 13.11845,1.43668 0,0 z m 23.89933,8.12665 c 26.94977,-7.1136 29.75881,-48.49421 0.41408,-19.98206 -6.31965,4.74941 -8.50089,15.76458 -0.41408,19.98206 z m -4.10947,-8.61587 c -5.49044,-6.67594 8.12421,-0.17221 0,0 z m 6.1847,-7.38781 c -1.64108,-6.68036 6.76467,2.04465 0,0 z m 6.82787,-0.26925 c -2.47147,-7.5815 6.8876,2.01335 0,0 z m 8.24295,-3.81209 c -4.5535,-10.2012 7.85717,-0.14831 0,0 z m -6.47034,-3.05924 c -1.81351,-7.1388 6.60356,1.26494 0,0 z m 10.32922,-5.04105 c -1.91962,-7.3708 6.06807,2.69038 0,0 z m -232.52514,25.29405 c 3.16115,-28.63786 -39.69725,-36.61329 -16.84407,-5.32161 5.34651,3.99128 10.46931,4.57114 16.84407,5.32161 z m 206.84075,-14.52125 c 13.11167,-22.32675 30.18478,-5.68583 17.62504,-23.0927 1.49329,-12.75371 -44.23832,37.1711 -9.08813,9.65219 1.0217,3.09661 -19.01389,16.81697 -8.53691,13.44051 z M 162.6453,597.68001 c -1.88005,-11.95617 -10.98239,-2.9657 0,0 z m 258.359,-7.44 c 16.52249,-9.31753 32.61381,-34.57501 6.24786,-11.71002 -2.31845,2.4268 -11.41254,7.52346 -6.24786,11.71002 z m -40.10118,-5.64723 c 12.45197,-6.50291 -6.80012,-0.0663 0,0 z m -4.42442,-0.83699 c 21.80507,-9.30872 -7.44763,-7.81488 0,0 z m 40.16131,-0.21677 c 44.89673,-19.77324 -1.58197,-42.18808 -4.00888,-4.77306 0.61477,1.96561 2.90829,3.06362 4.00888,4.77306 z m 2.43287,-12.49894 c -2.14458,-16.08673 17.54025,-2.66559 0,0 z m -233.65573,9.89708 c 0.15116,-52.6036 -43.21026,-4.96598 0,0 z m 417.93042,-2.07206 c 9.95111,-27.01457 8.32382,-74.12976 6.44071,-85.2153 19.06278,-0.5456 7.49702,32.5533 19.61793,1.8244 -21.75648,-18.82987 -7.75377,-28.77917 11.14094,-37.46778 17.65253,-40.46488 -39.6678,-21.77064 -34.37027,3.47089 -22.69007,4.8585 -25.20204,13.87314 -19.79032,25.80674 -30.16693,-10.12365 -39.54864,34.45051 -3.16151,32.99382 1.97835,28.08169 21.13427,27.21296 22.65836,18.32149 1.09547,13.47002 -11.89784,27.67938 -2.53584,40.26574 z m -9.99152,-52.33962 c -6.49151,-15.35847 13.74148,2.87357 0,0 z m 12.59405,-7.32326 c -7.18474,-1.5411 8.6436,-6.68631 0,0 z m -35.76723,-9.84221 c -13.63742,-9.67922 10.75703,-5.89125 0,0 z m -182.23361,64.02426 c 1.30499,-6.30559 -5.94646,3.00592 0,0 z m 16.0736,-6.65511 c 24.47552,-14.34278 18.29691,-28.38437 0,0 z m -6.56672,-5.15929 c 11.44837,-3.696 -5.40721,-3.12223 0,0 z m 5.88515,-4.16016 c 3.93285,-4.2211 -5.64662,-0.88696 0,0 z m -274.76726,-4.0497 c 4.03658,-4.02948 -6.39576,-2.36115 0,0 z m 63.09279,-4.38115 c -1.19179,-12.33204 -5.18891,4.14098 0,0 z m 224.04862,-7.77885 c 5.16774,-7.41348 -6.94112,-0.28981 0,0 z m 5.75981,-1.73805 c 26.50888,4.17754 103.05927,-7.97538 87.32442,-26.2836 -13.67906,7.82678 -56.16052,20.66666 -22.83876,-0.25004 17.5816,15.36027 33.66713,-31.88756 4.32718,-11.37932 -20.2936,14.76645 -60.42563,11.51058 -68.81284,37.91296 z m 27.03526,-7.68806 c -2.37481,-9.49524 18.17434,1.30204 0,0 z m 40.52647,-19.44954 c 3.44444,-10.02593 13.35572,0.80191 0,0 z m -334.95787,25.58903 c -7.22899,-27.20267 -20.09214,14.98257 0,0 z m 15.06594,-16.45242 c -2.87128,-15.78556 -10.23849,4.69726 0,0 z m 256.48895,1.19306 c 5.99335,-7.89816 -6.08003,-0.0293 0,0 z m 57.35981,-0.62042 c 7.78546,-7.86886 -8.06647,0.38964 0,0 z m 36.04621,-15.1536 c -1.90829,-6.55315 -5.88462,3.75254 0,0 z m 121.91002,-22.6241 c 29.6852,-34.53895 -10.88545,-38.06479 1.85329,-10.46993 1.08516,2.03048 -5.96236,16.90655 -1.85329,10.46993 z m -269.80132,-32.7504 c 21.99714,-23.34284 56.04429,-59.30093 9.37631,-56.53368 -0.004,19.60077 -21.90074,36.17575 -9.37631,56.53368 z m 308.2993,-14.19084 c 19.51503,-12.73842 -1.00568,-21.79688 0,0 z m -10.328,-11.04068 c 10.93489,-8.78938 -5.97607,-7.9331 0,0 z m -16.88,-3.99942 c 20.29943,-17.67115 -15.31072,-15.05975 0,0 z m 37.53434,-21.63456 c 13.53823,-8.11242 -4.94211,-8.57761 0,0 z m -27.39834,-7.76 c 17.74652,-9.36568 -5.83366,-23.66356 0,0 z m 48.73946,-34.09363 c 2.35398,-6.11437 -7.16524,-0.97588 0,0 z m -19.73494,-5.16858 c -2.34766,-14.63395 -10.66586,4.63535 0,0 z m -328.35768,-7.45946 c -3.01781,-4.64164 -3.72576,3.94341 0,0 z m 372.97717,-4.2496 c 34.93033,-28.2448 -62.23374,-41.75131 -9.59714,-14.49271 4.34031,3.82944 9.02696,8.30536 9.59714,14.49271 z M 503.76002,315.44001 c 11.15626,-23.40253 2.71936,-44.15053 -9.53169,-12.10243 1.96137,5.18121 10.71173,5.4905 9.53169,12.10243 z m -233.06313,-46.72 c -7.31453,-16.12744 -56.85877,-63.80777 -31.86523,-22.23165 7.0493,10.97566 17.90474,21.98245 31.86523,22.23165 z m 266.51913,-25.584 c 5.88655,-6.61469 -6.4954,-1.08507 0,0 z M 83.443491,492.13771 c -25.243125,0.4235 -103.403256,-89.95223 -63.446716,-109.42292 9.247508,-41.88259 16.799794,4.55756 50.136266,17.43971 41.506429,18.95289 42.803409,36.66583 42.518409,72.81258 -12.48229,13.15369 -25.852965,11.02127 -29.207959,19.17063 z M 134.88,483.76107 c -22.07791,-12.04352 -3.89297,7.87437 0.46184,0.0771 z M 358.89601,320.02593 c -9.55962,-0.80823 7.64778,-11.36585 0,0 z m 169.62967,-77.62955 c -4.43345,-3.82466 4.52021,-2.58681 0,0 z m -72.50042,-10.49526 c -4.81781,-8.7397 8.14138,-4.32622 0,0 z m 84.83297,-7.41038 c -7.46568,-7.92179 8.93806,2.03341 0,0 z m -272.13995,-1.69083 c -4.46984,-7.80416 4.92847,-5.02875 0,0 z m 3.28173,-7.69354 c -5.66717,-14.20126 5.33128,-19.07775 0,0 z M 528.39736,205.36 c -11.43652,-13.28332 3.98745,-9.55753 0,0 z m -6.36163,-7.44 c -14.6905,-7.96828 -6.38,-22.25043 0,0 z M 206.41276,186.37771 c -7.60061,-3.44103 -13.29514,-22.01875 -3.54589,-6.91713 z m -13.45275,-20.82832 c -12.52792,-2.37718 8.44519,-5.12737 0,0 z m 5.99358,-0.66939 c -3.43248,-5.37855 6.43967,0.23099 0,0 z m 379.59379,-28.66236 c 13.2364,-36.480311 -19.90455,-79.356839 -25.87986,-102.233366 39.03415,13.291184 60.6647,60.061107 29.7843,95.454206 z M 217.65147,113.68 c -5.98256,-9.62692 7.49541,0.8128 0,0 z M 182.54286,99.200002 c 0.8954,-6.920048 5.86078,2.614608 0,0 z m 46.61846,-6 c -5.09691,-7.024025 5.58889,-1.131594 0,0 z m 373.7187,-23.139888 c -7.4662,-14.43525 6.69056,-69.41712524 1.13011,-23.722295 0.88248,7.777932 3.5355,16.537485 -1.13011,23.722295 z"
         sodipodi:nodetypes="sccccccccccccccccccccccccccccccccccccccccccccccccccccccccsscccccccccccccccccccccccccccccccccccccccccccccccccccccccccccccccccccccccccccccccccccccccccccccccccccccccccccccccccccccccccccccccccccccccccccccccccccccccccccccccccccccccccccccccccccccccccccccccccccccccccccccccccccccccccccccccccccccccccccccccccccccccccccccccccccccccccccccccccccccccccccccccccccccccccccccccccccccccccccccccccccccccccccccccccccccccccccccccccccccccccccccccccccccccccccccccccccccccccccccccccccccccccccccccccccccccccccccccccccccccccccccccccccccccccccccccccccccccccccccccccccccccccccccccccccccccccccccccccccccccccccccccccccccccccccccccccccccccccccc" />
      <path
         id="path1617"
         style="display:inline;fill:#969896;fill-opacity:1;stroke-width:0.32"
         d="m 292.69327,928.50341 c 31.63211,-38.44212 44.19962,-88.30462 71.80259,-129.39809 12.23694,-34.39553 40.40321,-106.13493 -12.03252,-115.22805 -48.73795,-9.83572 -100.01365,-7.59882 -147.30328,-22.42158 -32.95805,-32.62852 -53.85039,-77.67214 -84.58687,-113.70604 -48.455034,-17.01132 -5.98051,-76.52838 29.49917,-53.83215 38.98396,28.66291 51.65238,98.98171 105.41392,102.28712 26.31023,0.26147 113.98625,-14.34765 102.36974,-11.93159 -29.48686,22.06616 -60.96584,15.05224 -102.57374,18.67027 -35.6789,-13.30133 -3.24934,53.95648 -37.22266,28.04935 -20.55791,-32.44811 -50.36449,6.20419 -12.77158,13.40265 33.64042,21.67482 70.7684,8.03373 105.90069,17.8033 31.87605,-8.67843 48.05736,19.90566 72.82399,19.94289 7.96468,-38.18785 -40.50339,-97.67729 8.24385,-126.10137 83.29756,-58.07385 -28.10276,-47.08739 -11.40686,-110.77969 -31.78535,38.10396 -13.87436,-50.45522 -3.16242,-42.97461 -11.71454,21.8684 -15.56348,68.50283 13.63959,27.33027 22.55893,-8.37688 19.85591,-55.23837 -0.9896,-29.95882 11.18579,-40.03186 -46.63188,-61.15344 -69.23044,-88.91399 -9.67986,-25.61607 -43.25323,-71.16082 -57.4173,-40.83006 14.17751,-10.94551 -38.4063,-41.59488 -43.71439,-70.3329 -13.39611,-40.8937 -44.4528,-79.22143 -30.30585,-124.596432 14.1273,-22.278858 1.89275,49.715372 14.05368,62.393062 13.90527,44.22601 26.73852,-79.095897 28.34773,-23.11761 -17.92059,43.95488 -9.67639,108.74897 39.70583,127.54227 34.63522,-4.82391 -13.14617,-66.8425 34.79454,-80.16127 -11.9394,32.14006 -16.43954,89.68009 9.70071,124.58569 12.6086,16.44976 65.18486,71.81789 45.01942,15.86314 3.95646,-25.54679 22.79165,-35.07751 11.26979,-3.32113 -10.05242,24.01971 28.44383,77.39142 23.06411,28.83707 17.39414,-38.92646 69.30247,-27.0905 96.35522,-29.12425 -20.81961,-15.49595 -44.26105,-67.95769 -25.11796,-73.08586 1.6555,31.04648 33.33807,58.31722 32.99916,85.43614 18.75755,-31.73115 29.06041,-73.85386 61.70841,-101.14842 29.25213,-39.01168 24.1643,-92.37267 49.52127,-133.462706 12.25832,-19.447977 -9.27376,-103.714424 16.43563,-56.319061 7.24335,52.019835 -26.99746,97.797737 -35.3859,147.706297 -7.12677,54.6441 -59.8119,84.55918 -73.08084,136.3194 -5.4094,57.81013 -8.13628,119.77063 -18.86254,192.02589 -22.29241,14.24518 -78.29632,25.89879 -80.79288,42.65969 31.00898,3.26173 95.53149,0.54356 98.65601,-29.58596 -26.24306,-15.27726 44.3993,15.36888 40.92851,-14.70987 34.11884,-44.05655 75.35038,-82.7622 101.74722,-132.45753 27.39182,-33.34992 48.00956,-61.42163 36.7982,-113.08097 4.80335,-32.36957 -7.69566,-67.12437 23.50852,-4.38959 9.56436,-36.03229 -12.52032,-94.32381 15.69082,-86.70175 8.9238,16.2089 7.95994,82.83145 19.27264,28.73634 -2.84327,-26.77651 40.54957,-63.72175 25.95315,-14.89162 -11.65076,19.63479 -13.71968,63.65334 6.45999,21.47934 3.90024,-24.55164 44.8007,-39.95048 23.36498,-3.77472 -15.80017,17.69856 -32.41199,69.19196 8.75105,39.70269 26.7136,7.90351 -32.43259,41.64563 -40.96836,55.33483 -37.83922,57.60789 -29.05008,39.79048 -73.70599,26.6068 17.33374,18.02437 49.74434,42.14935 12.9471,64.57869 -15.86389,26.14712 -37.03411,85.25119 -58.24341,86.77829 12.33353,-32.19789 -21.91604,26.23917 -7.5743,-7.1208 -9.01345,-42.88105 -46.07795,-13.70484 -50.98238,8.09524 -23.31114,1.84454 -22.88337,16.08653 -15.13431,23.6123 -32.83704,-11.59371 -43.73317,38.86149 -3.35311,36.02797 15.34545,12.53182 13.2269,87.77248 28.05621,40.11154 -13.38238,-36.69865 53.09974,-57.29263 4.92496,-84.12453 -0.24602,-25.08946 26.03146,-8.54786 21.83472,9.56873 20.44347,-12.53168 1.02126,-8.5297 10.06222,2.18327 -0.87293,8.16436 -30.73968,60.48975 -30.29072,74.2885 -34.17665,42.42874 -25.82013,100.74082 -44.70298,148.48627 -1.64121,22.41801 3.81046,64.12975 -16.86944,61.87889 -4.65258,27.82651 21.66683,-8.25225 13.02158,23.16826 -10.52585,42.83736 11.32812,95.09466 -7.55443,131.8119 -87.15064,-3.01872 -175.03394,-0.47642 -262.48375,-1.74614 10.31698,-13.22995 -2.74441,-0.005 -6.82611,0.0248 z m 267.53811,-1.16045 c 7.53777,-7.22038 -6.73782,-2.95242 0,0 z m -6.03434,-8.54294 c 5.63865,-7.9444 -5.72933,-1.51687 0,0 z M 514.4724,833.70287 c 4.5101,-6.54604 -7.57547,-2.60732 0,0 z m 53.63949,-47.78349 c 7.49788,-8.97445 -4.94714,0.0205 0,0 z m -26.27353,-0.15936 c -15.42435,-17.89171 -25.55917,0.48836 0,0 z m 4.82054,-1.11562 c 24.57136,-12.14053 -9.49098,-41.12992 -12.50268,-11.78019 17.94098,-16.63839 -1.31039,11.65278 12.50268,11.78019 z m 3.77517,-12.36854 c -4.491,-6.646 8.83866,-3.57337 0,0 z m -32.94333,9.3704 c 12.37697,-16.75949 -17.9458,-3.08916 0,0 z m 5.88893,-0.13114 c 8.70446,-12.34193 -9.01351,-0.78236 0,0 z m -22.97021,-1.4639 c -6.79643,-13.87091 -7.67964,-33.29711 -16.81886,-11.03919 -17.17979,-10.70153 1.27881,20.18852 16.81886,11.03919 z m -27.01712,-2.66327 c 23.87023,-38.55035 -31.2135,-5.58822 0,0 z m -14.35232,-2.2367 c 8.95875,-9.41471 -1.00079,-16.68893 0,0 z m -4.95284,-0.83123 c 16.95162,-23.69178 -13.96464,-6.68481 0,0 z m -11.36137,-0.55063 c 11.38925,-7.75048 -4.8968,-10.79102 0,0 z m -6.38045,-1.69408 c 2.98864,-15.32048 -16.24815,1.37832 0,0 z m 88.05767,-0.94416 c 11.10031,-15.37048 49.37326,-36.61237 28.11247,-32.60544 22.61834,-37.55731 -47.37054,0.37554 -11.73644,-9.41208 4.0132,13.82654 -43.94447,36.53036 -16.37603,42.01752 z m 14.55008,-26.81174 c -7.24466,-4.16945 5.6633,-2.18043 0,0 z m 4.40691,-8.33411 c -8.32538,-3.92418 5.83128,-1.65162 0,0 z M 419.2395,768.5108 c 14.57042,-6.59257 -10.4328,-3.81861 0,0 z m 86.57575,-0.70362 c 3.60474,-8.27398 -7.5445,1.79789 0,0 z M 413.3852,765.7491 c -0.96905,-5.86193 -3.48294,4.75082 0,0 z m 99.18343,-2.54908 c 30.50519,-25.14951 3.12932,-15.6972 0,0 z m 51.56208,-0.54932 c 19.84916,-13.78368 -12.31179,0.58615 0,0 z m -157.93252,-0.57708 c 6.63813,-29.81832 -37.24354,1.72764 -4.84694,-0.0152 l 1.42332,1.07397 z m 35.04483,-0.006 c 25.28031,-25.88668 -32.34838,-20.42307 0,0 z m 66.6129,-0.95584 c 18.00749,-7.52781 18.30167,-33.33443 1.7022,-9.49963 26.84869,-32.42949 -25.62273,7.74565 -2.03221,5.28039 z m 53.00944,-0.78432 c 5.65162,-8.30384 7.14849,-10.50317 0,0 z m -135.83514,0.45555 c 13.00225,-24.6779 -25.83188,-14.99505 0,0 z m -13.08355,-0.46791 c 8.11265,-13.04941 -9.01389,-17.62968 0,0 z m 20.16685,-0.48086 c 4.48265,-15.39094 -9.82201,-16.13223 0,0 z m -51.52727,-0.66176 c 9.4768,-11.38331 -8.01702,-6.38213 0,0 z m 74.73799,-0.31459 c 6.68198,-11.01755 29.29364,-4.62726 7.82331,-25.98416 -8.11838,-2.46935 -23.33238,18.39318 -7.82331,25.98416 z m 11.56272,-6.84493 c 1.37318,-5.86912 5.09547,2.80538 0,0 z m -0.9263,-4.26032 c -1.51985,-6.64941 6.21519,1.53823 0,0 z m 91.9049,9.94438 c 23.66745,-17.38826 -8.20697,-15.7214 3e-5,0 z m -74.01386,0.3713 c 10.51277,-11.98819 -8.12091,-2.3427 0,0 z M 571.11333,755.6 c 2.98065,-7.98616 -5.34733,3.16901 0,0 z m -76.01997,-1.32893 c 15.26131,-1.34424 25.52485,-43.26329 3.106,-28.2798 4.86285,-29.30052 -20.27533,21.25524 -10.71527,15.11469 -5.19083,6.26795 -0.31216,15.02344 7.60927,13.16511 z m 1.97501,-11.51481 c -8.60997,-4.58228 5.43233,-1.59588 0,0 z m -17.03498,7.65568 c 1.21823,-10.48697 -7.99169,1.25863 0,0 z m -87.17597,-5.66064 c 28.08714,-11.39977 10.00139,-20.9555 -2.40468,-15.00277 -0.35523,3.66809 -4.86164,14.37651 2.40468,15.00277 z m -7.89741,-1.40455 c 12.94795,-26.49657 -13.44318,-18.32924 0,0 z m 32.496,-0.56208 c 34.20274,-11.96967 -22.33041,-37.3639 -7.51602,-3.61015 1.82134,-22.49387 -0.79089,3.41862 7.51602,3.61015 z m -1.776,-10.05315 c -5.0775,-5.9172 8.27289,-1.22238 0,0 z m 19.20001,5.34858 c 43.37986,-12.18166 -13.79307,-40.4979 -1.35405,-3.28965 l 0.9476,2.30218 z m 1.3062,-7.36 c -8.10988,-18.00948 10.83589,-2.47173 0,0 z m 8.44653,-3.27716 c -2.64469,-8.09708 11.40485,-0.0178 0,0 z m 29.86835,7.69248 c 18.76143,-13.86089 55.3147,-63.16884 18.15558,-62.90461 4.15009,20.82669 -41.85932,44.96952 -18.15558,62.90461 z m -0.45523,-17.73305 c -2.06894,-8.09299 6.60632,3.83314 0,0 z m 23.46506,-19.97863 c -6.78843,-4.64325 6.50866,0.39149 0,0 z m 2.4113,-3.82419 c -8.78622,-3.9218 5.74163,-2.17377 0,0 z m -8.48221,-7.57139 c -3.00799,-10.63109 13.25649,-1.20552 0,0 z m 31.45376,42.77075 c 42.26901,-14.16633 -32.08642,-38.48084 -7.20003,-9.62626 l 1.33691,4.45743 z m -6.80615,-17.176 c 1.25179,-10.44003 8.31928,0.37967 0,0 z m -53.04761,10.61719 c 15.89477,-16.13488 19.06398,-40.11297 2.68419,-9.18254 -3.93036,-7.63482 -8.39878,12.21875 -2.68419,9.18254 z m -57.14609,-3.71533 c 27.85767,-8.33982 -21.73497,-12.4301 0,0 z m 1.60996,-5.65683 c -3.72202,-6.01429 5.68471,0.13166 0,0 z m -12.97952,4.92096 c 10.90281,-11.80101 -7.94203,-8.69392 0,0 z m 63.46889,-0.7856 c 15.66628,-27.78784 50.48563,-63.08626 22.63636,-72.50548 17.61631,-28.28429 -43.29778,30.52938 -5.80439,6.41913 -11.67662,14.56481 12.15891,32.26781 -17.08597,53.12797 l -1.97498,6.34683 z m 93.03604,-1.4698 c 13.48009,-19.29405 -24.13459,-5.81117 0,0 z m 18.20819,-1.64585 c 34.25975,-45.84545 -33.64578,-2.00055 0,0 z m 3.04493,-15.49943 c -0.13599,-5.37939 6.08606,1.87458 0,0 z m -186.40893,14.4544 c 2.54447,-7.57732 -4.72002,3.24004 0,0 z m 36.20653,0.37408 c 12.74813,-1.52296 -9.7579,-7.0505 0,0 z m 8.10083,-0.21132 c 8.891,-7.52915 -10.92036,-3.35787 0,0 z m 13.93126,-4.05738 c -1.54296,-15.39105 -12.49084,2.51042 0,0 z m 57.4537,-0.61318 c 33.1826,-15.60699 5.97627,-24.91811 0,0 z m -86.5258,-3.18237 c 15.52291,-43.00849 -43.01328,12.12835 0,0 z m 35.44033,-0.56218 c 18.02522,-14.67179 16.04387,-44.14448 -0.282,-12.55104 -1.37465,2.8426 -6.64769,12.14887 0.282,12.55104 z m 84.08074,-2.1919 c 5.32528,-19.13032 -9.93354,-14.14374 0,0 z m 6.33955,0.10563 c 2.34319,-5.66657 -6.23043,3.04914 0,0 z M 438.6036,700.32184 c 2.26884,-9.50342 -13.5689,3.47191 0,0 z m 106.3576,0.0669 c 8.33537,-24.54665 -17.98367,-8.60516 0,0 z m 5.11882,-2.20208 c 30.84439,1.30334 -3.71363,-43.98031 1.705,-5.84879 -4.90694,-19.72904 -10.05855,-5.39505 -1.705,5.84879 z m 8.44339,-16.51923 c -1.37738,-6.90975 5.14747,3.26846 0,0 z m -113.77184,14.66163 c 30.67437,-14.32103 7.07319,-63.73312 -11.01266,-30.90137 -5.44627,10.15886 3.59042,24.04967 11.01266,30.90137 z m 7.32845,-23.40208 c -6.26354,-4.98432 6.08217,-1.55145 0,0 z m -14.26669,-1.37296 c -4.55457,-18.57111 21.75579,0.49318 0,0 z m 16.50669,-5.02813 c -4.48982,-6.34317 6.40633,1.81183 0,0 z m 71.39603,26.40349 c 1.85524,-10.02793 -15.72933,-9.08051 0,0 z m -94.83603,-1.01427 c 7.17124,-11.55303 -9.49376,-4.21237 0,0 z m 140.05875,-0.69063 c 21.83318,-11.53416 -2.1761,-37.91594 2.8207,-6.08223 -8.89716,-24.40126 -10.27119,-6.8806 -2.8207,6.08223 z m 5.98839,-13.356 c 3.52731,-2.93032 2.35216,-1.95407 0,0 z m -0.0706,-3.87724 c -0.94321,-6.21932 6.51899,2.20537 0,0 z m -1.74531,-1.84938 c -0.6387,-7.0958 7.14843,0.34847 0,0 z m -160.89687,7.49686 C 437.00827,651.55669 375.07728,634.7376 389.3,645.70656 c 13.54051,-24.44353 -12.19058,-44.0485 13.14999,-58.66741 8.56275,-28.76908 -54.7061,14.04486 -22.01969,33.15383 4.02159,19.1365 -0.36005,49.05818 21.40223,48.88083 1.45082,2.4096 7.30217,20.77065 12.38185,10.56491 z m 12.84151,3.2544 c 9.60606,-2.46475 -7.5192,-3.64752 0,0 z m 108.46416,-2.11817 c 22.43454,-34.18987 -36.78519,-6.52923 0,0 z m -9.04,-8.98688 c 2.33661,-7.24514 6.61375,-2.60629 0,0 z m 23.45133,2.62969 c 5.63973,-4.37387 -4.42406,-5.66536 0,0 z m -124.85719,-0.51888 c 3.03634,-6.98059 -6.65964,1.09549 0,0 z m 92.54141,-3.44131 c 16.32183,-18.15847 5.86299,7.0223 -0.29319,0.10435 z m -5.15638,-1.32963 c 33.05484,-37.20854 -28.08397,-13.9285 0,0 z m 0.89779,-9.02813 c -8.01054,-3.42557 4.88941,-0.59308 0,0 z M 571.46063,666.8 c 3.61894,-8.23448 -5.42648,3.55081 0,0 z m -144.26058,-4.76908 c 33.15238,-20.4505 0.9414,-32.50619 12.84367,-35.95507 12.48718,9.81128 16.01098,22.78047 33.4235,2.70641 7.94336,-20.63646 -16.19242,-36.16484 -27.23542,-8.78408 -5.86978,14.71674 -47.31221,33.04226 -19.03175,42.03274 z m -1.52199,-22.58624 c -2.05196,-6.68789 8.1825,0.20256 0,0 z m 26.64525,-8.3546 c -14.05622,-5.9401 6.54164,-5.15348 0,0 z m 4.86352,-0.5208 c -10.78757,-7.67861 7.47149,-4.27942 0,0 z M 460.41141,626 c -4.38131,-5.74702 5.49647,1.07998 0,0 z m 3.68649,-2.60867 c -9.55558,-10.32452 7.44226,-1.78698 0,0 z m -11.94096,-2.59325 c -0.0586,-13.6709 15.03869,0.15576 0,0 z m 15.73658,-0.4311 c -6.67211,-5.98098 7.30077,-2.20579 0,0 z M 583.598,663.86871 c 4.24092,-9.99816 -7.05877,1.16135 0,0 z m -22.31795,-1.90269 c 3.47948,-23.59943 44.03936,-24.70326 26.73277,-54.20894 12.2797,-21.42672 3.41541,-80.15378 -7.14122,-73.83099 -18.5918,-44.14468 -66.40112,-3.6812 -95.36657,9.00584 -13.72257,16.30332 -84.11428,-15.60892 -40.15335,14.57432 19.88935,33.39309 47.76587,66.27597 70.9763,87.68748 24.84113,9.25644 19.03221,-0.51086 10.8213,-12.34872 20.60547,-16.07398 -13.37063,-57.95003 10.20335,-55.1112 20.75691,17.41104 4.10672,62.19392 31.75288,23.36958 21.54089,3.42677 6.85516,45.94419 -13.74858,31.44739 0.61548,9.95834 0.90162,20.4691 5.92312,29.41524 z m -0.10394,-20.00061 c 0.44511,-8.37893 3.21932,6.03949 0,0 z m -3.20844,-2.86723 c -9.05456,-3.66328 4.02428,-7.56728 0,0 z m 3.31238,-1.35706 c -9.60427,-6.88843 5.14111,-5.11283 0,0 z M 521.68005,622 c -1.21074,-7.51692 10.97106,-1.64293 0,0 z m -20.42855,-0.59155 c 1.32949,-8.01164 8.35891,2.7354 0,0 z m -3.97145,-17.58733 c -22.66878,-12.80474 21.83654,-17.96561 0,0 z m 58.79421,-26.42384 c -18.44052,-13.97536 19.50628,-14.74448 0,0 z m 24.34086,-0.21145 c -4.44276,-7.04804 9.34541,2.67948 0,0 z m -93.85526,-0.94522 c -10.92627,-9.31783 15.44435,-5.5505 0,0 z m 52.60639,-8.20096 c -14.18151,-3.705 4.76973,-5.08685 0,0 z m 38.00496,-3.66736 c -23.93148,-9.07252 15.82226,-17.5538 0,0 z m -58.9312,-3.30611 c -5.35273,-11.95817 14.59958,-2.92641 0,0 z m 25.03402,-12.19677 c -16.30423,-9.90751 17.03889,-10.33352 0,0 z m -30.12321,-10.67926 c 1.90682,-6.18138 7.14537,3.61783 0,0 z m 47.30922,-4.36356 c -9.05307,-9.27087 12.73813,-2.28986 0,0 z m -8.14003,-11.89254 c -8.63417,-3.34231 5.56405,-5.2407 0,0 z M 501.8929,656.329 c 17.69721,-18.035 -4.04861,-17.27242 0,0 z m -44.90685,-6.71335 c 33.4112,-21.71607 3.75936,-23.58851 -1.9538,-0.30996 z m 40.13885,-1.0456 c 19.86853,-15.96039 -26.33763,-24.88347 0,0 z M 411.77076,642.8 c 36.34321,-18.99904 9.45479,-34.13005 0,0 z m -5.52816,-12.60832 c 19.05287,-8.81517 25.18417,-24.85574 1.03891,-6.51862 l -2.23783,3.35493 z m 148.46711,-1.26086 c 10.36654,-11.42018 -11.37139,-1.43988 0,0 z m -67.09514,-2.70138 c -0.73798,-7.64369 -4.32301,3.91158 0,0 z m -85.989,-0.4782 c 41.68461,-5.78536 3.29495,-63.86489 -7.61093,-23.88279 38.79609,-21.31416 -23.27129,17.41754 7.61093,23.88279 z m -1.164,-9.08138 c -6.84853,-7.49617 11.38966,-8.78105 0,0 z m 5.81245,-4.20778 c -8.11481,-3.32403 2.74498,-3.84585 0,0 z m 8.90742,-2.89212 c -11.79425,-0.76341 6.45193,-4.64019 0,0 z m 22.01857,9.34652 c 20.58434,-9.76488 32.5963,-32.74787 17.77632,-37.88184 -10.44549,0.91195 -3.25066,-16.14596 -20.49151,2.13587 -21.55218,21.10059 8.12634,5.33984 -3.26297,15.74165 27.93855,-12.53992 -4.78688,-2.0805 2.04493,18.48741 z m 17.16739,-21.39021 c -2.86976,-6.4903 6.71734,0.40537 0,0 z m -228.38384,18.21818 c 2.86377,-26.42393 -36.07944,-40.31025 -22.34014,-6.74743 5.96655,5.52563 14.87042,5.14213 22.34014,6.74743 z m 318.32727,-2.612 c 5.00907,-8.55156 -7.22614,-5.74681 0,0 z m -381.41485,-14.7623 c -5.19661,-19.81 -12.20737,-1.40575 0,0 z m 257.97756,-7.85975 c 11.58608,-5.52199 39.28415,-36.30297 11.16079,-17.58818 32.04379,-38.63544 -56.28507,8.18547 -9.15327,5.6442 21.25234,-14.86247 -10.30166,7.24119 -2.00752,11.94398 z M 411.12,575.14861 c -2.92509,-5.94772 6.26149,2.19484 0,0 z m 4.45095,-1.31165 c -11.56851,-3.04139 5.89015,-3.54112 0,0 z m 3.35888,-2.97811 c -6.53845,-3.90601 6.60973,-1.36575 0,0 z m 11.99987,-7.71421 c -4.06188,-1.7366 2.13567,-4.04195 0,0 z m 1.11271,-3.83929 c -1.08186,-5.44348 4.49798,1.51904 0,0 z m -52.15655,27.55011 c 17.02066,-13.03616 -15.56464,-9.26681 0,0 z M 152.04941,581.2848 c 1.61166,-5.60421 -4.52651,1.70398 0,0 z m 32.89353,0.0752 c 8.6876,-50.8893 -48.5471,-9.39731 0,0 z m 202.22826,-6.4 c 16.08516,-4.04432 -11.01156,-5.03443 0,0 z m 10.27936,-2.94144 c 12.31009,-3.55564 -5.66214,-2.5233 0,0 z m 6.92861,-5.35421 c 20.3483,-7.40819 22.38332,-32.18336 3.42395,-5.54056 z m -9.32995,-2.89308 c 19.11091,-7.73955 1.76119,-11.37406 0,0 z m -264.65758,-9.89466 c -0.40193,-15.02268 -6.42158,4.90629 0,0 z m 61.94939,-3.48787 c 1.67587,-11.18437 -10.72603,0.1449 0,0 z M 155.2,540.83991 c 0.48497,-31.29266 -32.61418,7.49228 0,0 z M 181.6832,536.4 c 1.54681,-7.2072 -6.39535,0.62127 0,0 z M 159.04,533.44 c 6.36914,-4.29565 -6.33901,-3.4889 0,0 z m 11.05631,-9.73629 c -1.21832,-16.98067 -16.00817,-0.49745 0,0 z m 510.46322,-85.6914 c 30.88238,-34.94373 -14.78609,-9.07851 0,0 z m -4.99859,-9.05709 c 17.70492,-7.45658 -7.42304,-2.74722 0,0 z m -6.59769,-1.44045 c 12.90495,-10.84066 -10.68085,-10.76442 0,0 z m -23.91393,-1.54275 c 34.72315,-15.24503 -9.08991,-25.99594 0,0 z m 38.75492,-5.67414 c 8.10802,-4.43413 -1.05931,-7.2528 0,0 z m 1.18515,-8.53789 c 7.74245,-6.29874 -4.69643,-4.80564 0,0 z m 5.57062,-10.73885 c 16.19114,-7.15013 -8.55629,-9.85555 0,0 z m -25.10934,-8.00368 c 34.39509,-21.66862 -28.03598,-17.07553 0,0 z m 46.72321,-33.0611 c 3.25834,-12.079 -12.3287,0.15433 0,0 z m -21.57568,-4.20787 c 5.12185,-16.36066 -16.25897,-3.06849 0,0 z M 372.36024,336.36714 c 3.03492,-8.44279 -7.54912,0.45146 0,0 z m 373.3675,-15.94381 c 10.16399,-37.95714 98.29526,-85.93114 74.85957,-88.54209 -29.00783,27.99541 -50.24876,8.03788 -27.72689,-25.22308 15.96522,-9.71837 26.66142,-59.74043 6.96943,-23.28898 -4.27453,22.528 -40.73288,71.10705 -33.01646,17.57072 7.76264,-14.89254 12.48436,-67.46633 -2.58165,-25.57743 4.03852,17.51367 -16.50852,70.51031 -24.35463,31.16429 4.88717,-22.48943 -14.02419,-73.39586 -11.03202,-15.67313 3.56193,19.43387 0.38495,81.51097 -14.52885,59.09909 -3.32647,-21.02973 -14.53612,-52.59799 -10.56942,-13.41197 -8.14354,41.10986 11.434,65.794 41.98092,83.88258 z m 22.6303,-45.65751 c -1.36062,-5.93867 6.43268,1.56467 0,0 z m 5.72199,-4.3847 c -10.44916,-6.49067 8.14794,-3.96326 0,0 z m -54.99002,-0.81191 c -4.65733,-7.71745 5.95498,-2.97734 0,0 z m 35.63002,-2.99964 c -5.60466,-7.81422 11.89107,-3.86123 0,0 z m -16.67844,-2.12877 c -0.75844,-19.25665 13.1834,-32.26527 0,0 z m 39.62583,-0.63307 c -10.29028,-1.26468 1.94201,-7.33914 0,0 z m -18.52051,-4.04772 c -9.80854,-7.38663 9.45952,-3.85408 0,0 z m -0.68381,-6.20293 c -2.30346,-6.47332 5.6126,0.9181 0,0 z m 47.42131,-5.10691 c -2.07845,-7.97181 5.7244,3.03222 0,0 z m -38.81318,-75.42696 c 0.47471,-6.516 7.46796,3.26105 0,0 z m -70.1265,144.59308 c 1.27105,-4.93104 -4.81541,3.33051 0,0 z M 369.122,315.79181 c 0.0333,-17.78986 -7.48338,4.81855 0,0 z m -2.57251,-7.91866 c 1.78276,-6.18759 -5.20539,1.80659 0,0 z M 217.28001,160.26667 c 5.89679,-5.42692 -5.42504,-0.0552 0,0 z m 134.01815,504.42099 c -18.23975,-5.81966 14.40665,-11.70794 0,0 z m -39.05815,-25.17725 c -20.9706,-13.42354 21.32872,-14.07657 0,0 z m -41.59426,-1.7504 c -35.11582,-29.10581 38.5304,-5.77522 0,0 z m 71.30249,-9.00646 c -3.35206,-11.83793 12.50729,2.6624 0,0 z m 263.20045,-62.86979 c -0.92548,-8.26719 12.26433,3.65811 0,0 z m -5.30867,-13.10772 c 2.21379,-15.09814 7.6555,-1.10162 0,0 z m 4.48701,-11.64828 c -7.23961,-10.36728 7.48226,-7.77454 0,0 z m -155.78996,-9.71882 c -3.54506,-6.13302 7.58795,1.22882 0,0 z m 25.19888,-3.04995 c -7.78258,-7.8914 18.42459,-1.93496 0,0 z m 119.19361,-2.56685 c -3.41576,-10.00094 11.58405,2.81165 0,0 z m -112.4874,-9.4889 c 0.40065,-6.92088 8.10868,2.52346 0,0 z M 88.942138,513.81921 c -13.736532,-9.36628 6.853549,-3.0775 0,0 z m 524.457632,-5.5792 c -33.17249,-9.68233 12.73636,-27.37072 0,0 z M 568.5564,507.9899 c -7.17021,-10.92514 13.69913,1.93916 0,0 z M 86.168009,507.92 c -2.989976,-7.52841 -5.907833,-14.87523 0,0 z m 532.392011,-6.49599 c -5.40381,-6.59916 7.48061,-3.21389 0,0 z m -538.240017,-9.908 c -23.873798,-1.10554 -61.0584,-73.08371 -29.734984,-28.66274 5.795755,13.22894 26.518572,14.44846 29.734984,28.66274 z m 4.647693,-0.50995 c -0.947314,-9.46069 10.695836,-0.52686 0,0 z m 50.188034,-7.64605 c -17.93113,-4.07043 -1.53214,-10.39935 0,0 z m -43.45716,-1.08995 c -3.478649,-4.11202 9.14848,-0.63796 0,0 z m 565.54395,-3.30013 c 2.50679,-13.34272 6.53672,0.39436 0,0 z M 100.71801,478.6674 c -10.585402,-0.4059 -0.87549,-5.58125 0,0 z m -30.804881,-0.59853 c -10.514795,-5.54308 6.421833,-1.07005 0,0 z m 42.738321,-5.10179 c -3.36694,-9.33743 11.21225,1.86128 0,0 z m 0.54885,-7.45337 c -10.19179,-24.66209 -6.9475,-49.52199 -0.23144,-9.47362 z M 24.999043,439.56027 C 0.19040418,420.42889 4.0375911,393.96851 17.633207,377.81438 c -0.350824,-14.08208 19.325942,-28.44359 19.747511,-5.0972 -32.9877979,-21.4956 3.362474,49.06811 8.407912,57.5121 -27.405258,1.39944 -24.35742,-68.8512 -32.440721,-21.27339 2.040983,10.28084 2.711679,23.72116 11.651134,30.60438 z m 48.693772,-3.80026 c -12.195131,-12.14436 2.401469,-22.68483 0,0 z m 26.345555,-12.30829 c -13.470192,-6.34476 1.55502,-9.06704 0,0 z m -34.690694,-1.88377 c -14.396749,-11.19637 11.162267,-11.55044 0,0 z m 27.09435,-5.30129 c -8.235748,-7.1952 7.551153,0.55253 0,0 z m -4.699264,-3.69475 c -9.084592,-9.14526 9.738718,0.39497 0,0 z M 58.805679,411.2809 c -32.086717,-24.2825 3.203905,-24.22127 0,0 z m 23.890983,-0.97244 c -23.333571,-7.57162 7.480335,-9.90007 0,0 z m -13.363325,-8.2818 c -4.061584,-9.86545 8.377324,-1.32069 0,0 z M 58.58046,393.92641 c -24.315269,-15.21856 15.236601,-8.54596 0,0 z m 325.76387,-1.55875 c -19.65403,-13.11445 -6.22908,-25.83669 0,0 z M 43.457854,390.80001 c -11.02392,-15.68576 1.267419,-13.14158 1.994287,-0.2039 z M 373.15077,376.86417 c -33.33355,-30.60991 -3.81256,-15.1233 0,0 z m -28.89339,-26.61181 c -26.23051,-18.89783 -12.30225,-20.94033 0,0 z m 6.41172,-4.14701 c -8.73791,-3.94891 4.47179,-5.57457 0,0 z m 386.19531,-0.38761 c -1.25528,-16.13055 18.24572,-22.38828 0,0 z m -410.7844,-16.16103 c -19.09192,-12.43571 -8.05012,-18.46894 0,0 z m -25.31789,-27.05782 c -24.58034,-28.42509 3.39777,-9.68962 0,0 z m 53.98727,-0.76724 c -3.34993,-7.68964 6.77677,2.47299 0,0 z m 0.58675,-4.08852 c -3.47104,-13.82046 5.25857,-4.33787 0,0 z m 117.62388,-1.8675 c -16.76212,-13.94965 -11.50662,-28.53432 0,0 z m -113.07745,-4.81562 c -3.86303,-4.2415 3.90533,-3.78427 0,0 z m 138.67745,-1.15084 c 0.51668,-15.65234 9.80337,-4.74097 0,0 z m -211.45016,-6.46594 c -17.03837,-9.40291 3.77029,-11.63917 0,0 z m 220.77857,-5.18322 c -9.52369,-16.66542 9.10652,-4.6647 0,0 z m -143.08842,-2.05334 c -4.2566,-8.7374 13.02536,-6.77751 0,0 z m 88.41242,-6.60278 c -7.23787,-7.06944 6.23967,-2.94446 0,0 z m 57.02759,-3.85751 c -3.82272,-6.49569 6.68101,-1.85063 0,0 z m -60.24,-3.47546 c -4.77443,-17.51284 9.09946,-12.57975 0,0 z m 65.28461,-5.37967 c -0.72661,-7.82325 5.75149,-4.78094 0,0 z m -268.30021,2.80317 c -23.47204,-15.5548 -5.44487,-13.28778 0,0 z m -15.6922,-16.26594 c -11.86002,-22.57063 1.47628,-19.28465 0,0 z m 301.52729,-21.4597 c -3.71125,-13.80029 6.34692,-16.36837 0,0 z m 4.51853,-3.27291 c -3.89565,-12.68115 8.68114,-4.09144 0,0 z m 2.46694,-7.32805 c 0.66431,-10.96365 8.09938,2.49287 0,0 z m 6.79376,-2.91557 c -13.05326,-20.43374 -32.25963,-40.08445 -46.23813,-56.33162 -23.01523,7.70355 -40.46193,-23.60862 -7.57685,-11.8629 26.82687,5.09869 75.14963,39.35649 53.81498,68.19452 z M 213.76001,197.44319 c -10.31974,-8.51327 7.78232,-1.82781 0,0 z m 345.37063,-2.90258 c -1.73634,-9.21902 7.18995,1.56069 0,0 z M 202.15242,180.933 c -6.74497,-1.90087 4.08532,-2.48313 0,0 z m 370.38091,-18.58053 c -5.38338,-7.86537 8.67199,-3.03057 0,0 z M 182.29029,138.98363 c -9.8817,-24.7643 9.11345,-22.28354 0,0 z M 584.64002,122.24 C 587.87558,89.768341 559.65504,56.374396 556.83846,33.846797 589.85427,57.555893 610.37039,83.920945 584.64002,122.24 Z m 27.02144,-53.15004 c -5.60594,-3.149977 5.88012,-1.916976 0,0 z m -8.58336,-5.393133 c -6.03683,-11.317644 9.45604,-14.843329 0,0 z m 0.76192,-26.435713 c -9.26281,-17.578526 6.4413,-14.953147 0,0 z m 2.61043,-29.9220182 c -5.86955,-4.4406422 6.03337,-3.060622 0,0 z"
         sodipodi:nodetypes="sccccccccccccccccccccccccccccccccccccccccccccccccccccccccccccccccccccsscccccccccccccccccccccccccccccccccccccccccccccccccccccccccccccccccccccccccccccssscccccccccccccccccccccccccccccccccccccccccccccccccccccccccccccccccccccccccccccccccccccccccccccccccccccccccccccccccccccccccccccccccccccccccccccccccccccccccccccccccccccccccccccccccccccccccccccccccccccccccccccccccccccccccccccccccccccccccccccccccccccccccccccccccccccccccccccccccccccccccccccccccccccccccccccccccccccccccccccccccccccccccccccccccccccccccccccccccccccccccccccccccccccccccccccccccccccccccccccccccccccccccccccccccccccccccccccccccccccccccccccccccccccccccccccccccccccccccccccccccccccccccccccccccccccc" />
      <path
         id="path1611"
         style="display:inline;fill:#373b41;fill-opacity:1;stroke-width:0.32"
         d="m 562.24002,779.04002 c -5.61859,-2.60165 5.92688,-3.08734 0,0 z m -29.10474,-0.78378 c -5.08195,-3.82939 4.6546,-1.98176 0,0 z m -9.31766,-2.28134 c -2.3149,-11.68595 15.69832,-0.93508 0,0 z m 14.53059,-3.36903 c 2.36702,-11.98255 8.02188,2.37661 0,0 z m 18.66858,-2.08448 c -2.53919,-12.12525 7.89407,-0.1062 0,0 z m -73.21696,-0.30621 c -6.73786,-9.29078 9.42621,-6.9847 0,0 z m 82.44019,0.12247 c -7.47729,-12.97837 9.92561,-6.98724 0,0 z m -66.48019,-3.19824 c -3.20914,-18.01025 11.4167,-9.73912 0,0 z m -114.35297,-2.04112 c -13.28914,-5.17879 9.00308,-4.99329 0,0 z m 62.79504,-0.3225 c -3.47936,-14.21944 13.17467,1.39407 0,0 z m 87.95127,-0.62333 c 0.21067,-7.48393 3.3443,0.70873 0,0 z m -146.14154,-0.7648 c -9.74464,-7.86517 12.47108,-6.32394 0,0 z m 159.26298,-4.59254 c -4.49596,-8.63863 7.36828,-3.4504 0,0 z m -8.44237,-0.91395 c -0.89318,-8.07339 6.3854,0.76341 0,0 z m -133.61872,-0.4193 c -4.26046,-9.18151 6.55552,-2.3573 0,0 z m 87.92784,-0.53929 c -0.11855,-8.01126 5.0475,2.50908 0,0 z m -38.2281,-0.38157 c -0.24401,-15.53834 10.0799,-0.48279 0,0 z m 95.99399,-2.83632 c -4.69889,-5.36784 8.96385,-3.79761 0,0 z m -144.58724,-1.70042 c -8.25063,-6.29279 6.48408,-14.40344 0,0 z m 7.68,-0.312 c -8.99322,-4.73945 7.47277,-3.73797 0,0 z m -25.6,-0.35113 c -28.48919,-13.12713 15.70511,-4.8175 0,0 z m 120.88001,-0.86055 c -3.85129,-4.73807 6.77029,-1.42229 0,0 z m -8.57258,-1.53571 c -1.62207,-5.28766 10.61033,-1.56588 0,0 z m 54.19338,-1.45021 c -3.29599,-5.2459 7.84498,-1.118 0,0 z m -158.93133,-1.17465 c -9.92356,-2.61355 7.79039,-9.57081 0,0 z m 79.24547,-1.76 c 4.53274,-10.62682 14.75287,2.84221 0,0 z m -23.0217,-0.61572 c -10.61035,-10.05714 8.58667,-3.07167 0,0 z m 18.43405,-0.11961 c -5.50891,-11.52643 11.49582,-5.14609 0,0 z m -47.19469,-0.70957 c -4.56195,-6.87939 6.16958,-0.35097 0,0 z m 92.6474,-0.2351 c -4.26467,-5.02934 11.43286,-2.6601 0,0 z m -89.19226,-0.43648 c -7.66038,-13.6569 11.90026,-3.48392 0,0 z m 80.20899,-0.72698 c 3.56226,-20.68304 20.63971,-8.35988 0,0 z m -74.47712,-0.86435 c 2.30329,-16.64448 14.49731,3.07699 0,0 z m 9.2441,-0.96787 c -2.68971,-5.70093 5.62544,0.80821 0,0 z m 84.81302,-0.23031 c -1.65248,-6.46963 7.20125,3.0643 0,0 z m -39.81884,-1.97401 c 0.95884,-12.496 10.95248,-1.40571 0,0 z m -37.27453,-3.37162 c -6.99266,-15.75625 10.08982,-52.02922 1.30352,-20.23902 5.38908,3.36863 6.92498,22.34588 -1.30352,20.23902 z m 28.33664,0.28618 c -1.83242,-7.1922 5.57506,0.30939 0,0 z m -85.08458,-1.1889 c -2.9278,-6.11287 4.99645,-1.02154 0,0 z m 141.74154,-0.50323 c -0.22534,-8.71834 11.14947,0.1135 0,0 z m -52.73696,-0.76131 c -4.10754,-4.64505 6.61549,-2.4577 0,0 z M 379.24136,730.0172 c -9.25659,-7.26476 11.29919,-0.0448 0,0 z m 185.92909,-0.43808 c -21.58433,-3.8702 -10.65279,-51.37363 -2.28034,-15.75006 9.90101,0.8441 12.57131,12.88099 2.28034,15.75006 z m -128.71491,-0.3791 c 0.18398,-10.56899 3.12221,-2.37957 0,0 z m 24.4943,-0.97216 c -3.32104,-6.66468 4.90715,-0.1126 0,0 z m 68.48365,0.17008 c 0.91723,-10.36892 13.18246,-6.22381 0,0 z m -99.03347,-0.71792 c -6.42178,-12.67058 0.0577,-13.75484 0,0 z m 66.96134,-1.12749 c -1.28444,-9.8585 13.5946,-4.33583 0,0 z M 396.56001,726.3356 c -17.73641,-4.72811 13.33888,-8.00007 5e-5,5e-5 z m -16.64582,-2.01974 c 2.79837,-14.40178 19.10978,-5.51734 0,0 z m 39.28582,-5.20288 c -1.74553,-19.11151 -9.76369,-59.47416 13.09679,-29.54222 -1.37265,-16.20354 -28.21194,-34.88895 -2.25755,-26.11266 7.78316,-18.29122 25.87194,-16.75389 2.76633,-0.63175 -0.61588,22.78249 19.57313,43.56012 4.17885,40.07505 3.21681,9.87275 -21.80529,-7.40419 -17.78442,16.21158 z m 75.80212,-1.27296 c -6.41564,-5.22009 6.97082,-7.01272 0,0 z m 52.91789,-0.26701 c -4.51224,-3.29383 4.71909,-1.39474 0,0 z m -114.64148,-0.37299 c -4.27985,-9.42475 14.42989,-1.83007 0,0 z m -9.59852,-1.07424 c -2.85543,-3.7357 6.05423,-2.97055 0,0 z m 78.58937,-1.80749 c -5.78964,-9.62287 7.14335,-1.16028 0,0 z m -114.75814,-1.45776 c -4.55727,-20.40226 -3.13258,-24.81994 4.53108,-47.27216 33.75244,4.16752 -0.26151,41.28226 -4.53108,47.27216 z M 564.6397,710.7195 c -5.99984,-4.58337 7.89941,-5.30905 0,0 z m -58.31968,-1.11657 c -4.62082,-7.39496 7.93581,0.0496 0,0 z m 31.28573,-0.39962 c -9.11544,-7.13979 8.7942,-2.98003 0,0 z M 396.0235,707.23803 c -10.15561,-1.3763 5.20059,-4.17356 0,0 z m 118.56519,-4.15776 c 15.32881,-15.89042 9.35845,-12.86076 -7.8026,-30.57766 11.36797,-12.02892 44.51483,35.10971 7.8026,30.57766 z m -45.10067,-0.44025 0.56247,-2.67287 z m 66.832,-0.46701 c -7.17588,-5.65525 8.11605,-4.1277 0,0 z m 27.00406,-2.18291 c -5.80268,-17.7481 7.3147,-79.58283 21.92616,-45.57205 -28.62593,16.44418 -13.51332,19.25484 -21.92616,45.57205 z m -102.77926,-5.58372 c -2.76581,-14.77602 13.97239,2.96334 0,0 z m 24.85149,-0.85904 c 1.16701,-12.33451 10.64982,3.48798 0,0 z m 86.48928,-0.62342 c -2.83634,-8.75176 7.20073,0.66094 0,0 z m -36.99763,-1.28167 c -7.5281,-18.89132 5.65676,-5.35583 0,0 z m -162.72795,-0.9359 c -10.0137,-12.76596 -49.54094,-24.28021 -36.10103,-10.43853 -38.02903,-0.93344 -22.79056,-25.17627 3.60193,-11.70844 7.27887,5.55129 45.60118,14.37554 32.4991,22.14697 z m -43.89686,-15.92842 c 0.59942,-6.21039 -5.95901,2.34482 0,0 z m 5.04544,-3.89801 c -4.21974,-3.39719 -0.57748,5.25977 0,0 z m 43.01235,16.6552 c -19.67982,-3.73387 8.68084,-2.0357 0,0 z m 88.84746,-1.46128 c -0.3193,-16.89713 18.51656,0.10187 0,0 z m 26.16365,-1.09907 c -1.48278,-9.03536 11.42495,-0.32012 0,0 z m -9.61632,-1.93476 c -2.82656,-4.0237 5.27557,-2.75281 0,0 z m 90.12429,-2.37414 c -3.46571,-5.34347 6.10189,-0.85981 0,0 z m -31.04,-0.80544 c -1.37704,-6.34683 6.74404,1.99357 0,0 z m -41.3904,-3.6456 c -1.91316,-7.65337 15.67033,-0.44315 0,0 z m -193.90356,-1.45418 c -5.53284,-14.08782 7.19734,0.19361 0,0 z m 238.17396,-0.18416 c 0.19772,-17.08814 -38.42976,-22.96733 -7.77432,-22.16616 16.07665,-22.62352 30.08961,28.87801 12.06562,18.77678 z m -258.88001,-2.96931 c -16.55596,-2.44839 -29.56566,-20.86184 -1.90383,-15.16443 3.26215,4.74689 9.01636,15.81907 1.90383,15.16443 z m 13.92,-0.16342 c -23.21444,-7.35964 13.40363,-12.43491 0,0 z m 139.76001,-1.10727 c 1.93674,-13.16082 9.35977,0.47713 0,0 z m -188.11049,-1.85497 c -13.57576,-7.36581 7.22293,-3.91462 0,0 z m 272.087,-0.24151 c -1.87793,-7.79151 8.37268,0.59082 0,0 z M 223.27709,667.5996 c -14.76368,-10.36408 -6.58538,-12.5223 -16.01825,-4.29461 -4.24955,-10.77073 -36.46186,-51.89415 -10.20781,-17.48735 9.49364,-2.84852 66.09068,21.79114 26.22606,21.78196 z m 277.04507,-2.45523 c -6.52137,-6.1012 8.30573,2.10805 0,0 z m -259.09988,-0.3057 c -3.28086,-7.26574 7.24272,-0.56299 0,0 z m 11.17773,-2.02787 c -7.65972,-3.57358 7.8631,-2.15604 0,0 z m 96.72,-1.86976 c -4.67702,-6.82397 10.31371,-1.16382 0,0 z m 154.81092,-1.5361 c -7.67471,-6.97998 9.92047,-5.48058 0,0 z m -47.20352,-1.52553 c -11.69239,0.0259 5.65948,-10.93651 0,0 z m 39.82781,-3.009 c 8.1724,-9.32472 -5.69987,-45.47463 12.64638,-21.23823 -0.53481,8.56752 -6.90095,15.47546 -12.64638,21.23823 z M 394.60497,651.618 c -18.67715,-23.1084 20.37549,-24.0952 23.76724,-25.31331 -10.97367,2.69187 -13.10794,25.2116 -23.76724,25.31331 z m 64.67137,-0.31114 c -1.55301,-11.67054 13.54963,0.5016 0,0 z m 48.94966,-0.34685 c -3.66402,-12.39744 7.82073,-3.2966 0,0 z m -58.09171,-3.58732 c 0.8507,-7.52703 5.89849,3.12187 0,0 z m 17.22573,-2.94218 c 3.0496,-23.00552 36.40564,-16.15517 0,0 z m 23.44,-1.51635 c -6.09204,-9.32659 6.85886,-0.80612 0,0 z m 40.81494,-1.50323 c -20.17519,-29.40237 35.28776,-33.32565 9.51878,-0.92369 l -4.70256,-0.14076 z m -219.77011,-3.27405 c -21.13018,-13.71153 25.37554,-10.51743 0,0 z m -38.72477,-0.96352 c -36.00804,-17.64751 31.13912,-15.14377 0,0 z m -48.01781,-2.11597 c -23.00865,-30.28387 -59.45008,-1.20166 -64.85297,-43.61818 -15.26945,-14.06043 8.01373,-28.4326 6.14359,-3.70749 19.43404,-6.31805 26.59443,-13.35376 14.08824,-35.33313 8.49696,-29.99668 3.22911,10.70119 21.81276,9.88934 10.19776,12.02582 56.19364,59.91361 17.72734,37.44029 -14.70939,-47.96329 -36.32763,30.69473 7.19407,16.73704 2.25736,-10.394 24.52376,27.72055 -2.11303,18.59213 z m -2.18108,-6.8736 c 5.46977,-8.41735 -7.63616,0.8167 0,0 z m 1.19942,-4.33104 c 8.20344,-3.10927 -4.75302,-6.06259 0,0 z m -56.48855,-27.69274 c 3.14797,-10.88734 -5.49561,-1.73118 0,0 z m 18.45927,-4.88 c 0.95255,-12.30442 -7.18931,-1.11003 0,0 z m 12.15993,-7.7968 c 2.56546,-5.25896 -5.80628,1.84667 0,0 z m 1.4213,-5.48758 c 5.87117,-9.68152 -5.11999,-3.74913 0,0 z m 5.79362,-0.71562 c 2.04927,-5.71092 -5.47416,0.38588 0,0 z m -12.89017,-7.744 c 4.93956,-15.75127 -7.43989,3.08657 0,0 z m 4.63626,-9.02057 c 0.10558,-7.95146 -3.83319,5.53537 0,0 z m 374.86074,73.59187 c -27.71543,-15.10186 4.80029,-51.37548 6.90058,-13.93331 -1.07869,5.12141 -3.43481,10.00061 -6.90058,13.93331 z m -390.36535,-2.86816 c -3.33915,-10.10942 5.84755,1.08864 0,0 z m 259.01037,-0.0917 c -0.13919,-13.13561 13.36377,-2.92141 0,0 z m -97.91335,-3.36535 c -3.14435,-9.39736 10.74383,1.55766 0,0 z m -164.66115,-2.93821 c -3.70545,-8.3575 10.43788,6.99871 0,0 z m 303.72071,1.45901 c -2.70985,-6.81778 8.07347,0.89006 0,0 z m -54.98422,-4.22413 c -5.68937,-7.21836 10.27816,-1.49387 0,0 z m 11.31849,-0.47145 c 6.39133,-14.10742 20.14295,-17.39592 0,0 z m 14.50528,-1.82672 c 0.91374,-12.57514 12.77956,-0.25902 0,0 z m 138.52074,-4.78019 c -18.72066,-30.18502 23.76216,-31.77215 0,0 z m -199.73872,-4.3402 c -5.24892,-9.91365 12.10184,-4.3305 0,0 z m 73.91609,-0.27625 c 1.74805,-9.27171 12.67669,0.15283 0,0 z m -186.21897,-4.03773 c -37.69584,-7.48583 -3.39979,-17.93421 13.8499,-10.39099 -3.61182,3.33986 -8.54772,11.32725 -13.8499,10.39099 z m 39.55438,-1.90899 c -5.19455,-17.80902 16.99329,-3.06419 0,0 z m 139.82271,-0.43719 c 7.21896,-15.48113 9.99939,0.12877 0,0 z m -217.04001,-0.28544 c -3.34944,-12.00081 6.43764,-0.15052 0,0 z m 144.89357,-0.53651 c 2.5939,-10.54466 10.22638,-3.27263 0,0 z m 109.16071,-2.09251 c -14.56542,-16.38022 21.52289,-5.05189 0,0 z m -94.2866,-0.34845 c -1.42164,-17.53479 16.15288,1.76522 0,0 z m 69.52285,-1.8031 c -3.82999,-0.47629 0.48303,-3.16448 0,0 z m 69.47678,0.18112 c -7.05416,-13.28809 6.84441,-5.08382 0,0 z m -196.47716,-2.43738 c -3.20554,-8.84901 8.8476,1.95693 0,0 z m -27.47036,-2.2872 c -2.1292,-6.75884 8.09593,2.1355 0,0 z m 106.57599,0.25856 c -11.18053,-4.98707 14.06859,-7.57752 0,0 z m -10.29894,-1.52131 c -4.17821,-8.79817 12.38757,-3.10034 0,0 z M 151.8807,592.24001 c -7.51094,-10.18724 6.32683,0.0585 0,0 z m 176.44952,0.29834 c 10.50735,-12.44992 20.74012,2.23404 0,0 z m 200.4698,-0.85834 c -12.05365,-19.60029 25.72458,-2.63191 0,0 z m -161.13444,-3.54697 c -1.79412,-9.98382 9.57577,1.31608 0,0 z m 60.19322,-1.52765 c 4.67376,-13.72269 11.00364,4.36598 0,0 z m -280.52687,-3.17267 c -14.24906,-21.42568 13.74047,-35.11416 7.85085,-1.9676 -2.35129,-5.98682 -6.93536,-2.87429 -7.85085,1.9676 z m 222.46226,-4.00944 c 3.36243,-15.26262 14.37708,0.79878 0,0 z m 68.9896,0.39507 c -3.69212,-11.19261 10.71297,-0.34833 0,0 z m 19.94679,-3.11501 c -12.8168,-6.59072 12.73431,-9.96999 0,0 z m 94.4311,-1.12522 c -8.65652,-25.57895 20.91002,-1.7783 0,0 z m -387.96167,-0.37676 c -1.38904,-6.44658 5.88074,0.95829 0,0 z m 215.28,-0.0214 c -7.99679,-5.5141 12.61456,-3.9539 0,0 z m 106.37025,-0.188 c -8.32666,-7.06339 10.78593,-4.06871 0,0 z m -83.59597,-3.39191 c -2.18461,-7.84621 8.0577,0.83641 0,0 z m 47.81315,0.51879 c -11.09556,-5.37652 9.97822,-2.59194 0,0 z m -63.62503,-1.95879 c -5.89333,-12.75577 10.57613,-1.98768 0,0 z m 8.83255,-2.08169 c 2.74936,-14.83318 13.95172,-5.24961 0,0 z m 11.28403,-2.25527 c 4.95152,-14.24055 17.80595,-1.98923 0,0 z m -273.9595,-1.44704 c -14.88344,-25.41601 20.46115,-25.79377 31.97473,-15.02397 -5.27345,-29.92419 14.04276,-8.19331 1.38855,5.28612 -11.42565,2.64328 -21.94015,-13.22286 -23.7696,0.38885 -12.77737,-4.6253 0.71555,13.08241 -9.59368,9.349 z m 5.23597,-0.64985 c -1.82898,-6.99622 5.41865,0.67104 0,0 z m 437.98629,-0.2321 c -19.4863,-14.29531 12.25512,-11.62993 0,0 z m -57.78173,-2.81962 c -8.0756,-7.07454 8.55696,-3.65448 0,0 z m -111.07341,-3.64582 c -7.04631,-31.86442 32.23743,-8.86486 0,0 z m 12.07299,-0.71472 c 8.61764,-24.05145 17.41556,-0.67496 0,0 z m 190.52042,-0.7865 c -8.36014,-8.52899 11.29974,-3.83409 0,0 z M 124.32,551.10971 c -14.53478,-10.51756 -15.84103,-40.87672 -8.73633,-23.09217 10.38309,-18.07288 4.79541,16.05841 14.97684,-8.65773 13.0505,14.89958 4.19788,-21.25959 16.5368,-3.84231 -3.91967,-25.1112 22.55159,30.1067 -4.07652,9.97035 -9.28488,6.33931 -12.63977,18.18454 -18.70079,25.62186 z m 1.12323,-8.5536 c 4.82381,-8.80392 -6.63698,-0.80125 0,0 z m -4.07882,-7.80432 c -4.82109,-6.10046 -3.16472,0.74731 0,0 z m 53.4268,12.59008 c -0.88756,-9.67954 15.7364,-5.97883 0,0 z m 368.24881,-0.62186 c -8.38849,-9.44628 9.82159,-3.94888 0,0 z m -78.22695,-1.78771 c -25.30489,-11.48407 45.52799,-2.71319 0,0 z m -15.49184,-0.67018 c 0.48231,-5.17027 4.43873,2.99608 0,0 z m -7.40121,-0.50777 c -11.56388,-2.89766 6.81883,-5.04498 0,0 z m 7.71548,-2.01475 c -9.29139,-1.12743 7.31255,-2.9857 0,0 z m 37.72717,-2.53652 c -9.56905,-4.8063 8.48727,-3.43648 0,0 z m 135.54439,-4.52678 c 1.29788,-18.07895 25.71467,-23.94574 2.92896,-0.31639 l -2.92899,0.31629 z m -122.94602,-0.7425 c 4.57446,-15.07867 26.29314,-11.23118 0,0 z m -84.5496,-1.40236 c -2.73528,-6.61268 4.61588,1.00766 0,0 z m 144.31428,-0.26458 c -0.96717,-11.35675 10.10027,4.12295 0,0 z M 160.328,529.45758 c -4.39871,-19.48085 8.90561,3.93701 0,0 z m 13.30535,0.91392 c -10.56117,-6.50663 5.5397,-7.80619 0,0 z m 250.05156,-2.3463 c -1.32503,-8.89136 16.7088,-4.01707 0,0 z m -318.9384,-1.70519 c -12.866276,-18.85455 23.84264,-10.71225 0,0 z m 488.61214,-0.92937 c -1.96087,-8.76421 8.58226,1.83063 0,0 z m -163.17467,-1.96128 c 10.27762,-16.50784 22.61626,-10.71707 0,0 z m 96.32781,-7.73913 c -2.47201,-9.68122 7.63959,0.48143 0,0 z M 424.5148,514.82372 c 0.97482,-27.49602 -30.73252,5.28024 -39.50896,-29.47867 -6.29509,-24.63009 0.70611,-28.58144 19.76713,-32.28673 2.52936,-24.26817 -0.53236,-26.0531 0.98866,-34.16833 12.36283,-10.7564 -8.44705,-56.24812 -7.81285,-30.76607 -10.62477,-35.08202 -42.404,-54.8519 -64.03846,-69.99938 17.29314,-12.19367 54.95985,55.57946 65.57805,26.41952 21.11942,-80.9514 119.59929,-28.21211 126.08825,29.61159 -20.36846,17.80805 -5.73965,59.54567 -23.78669,74.2522 -1.47274,22.57779 -20.32547,36.87221 -30.99037,47.80053 14.74027,-11.18408 -17.76554,-16.82305 -14.48952,2.55605 -19.11438,-60.3251 -13.97758,3.19424 -31.79524,16.05929 z m -38.09584,-47.52976 c -2.88154,-4.01369 -1.95244,5.71665 0,0 z m 113.21786,-19.45673 c 0.57927,-6.34975 -5.28481,3.17861 0,0 z m 32.20342,66.66563 c -3.68794,-9.58396 9.94305,1.2044 0,0 z m -372.64023,-0.6069 c -11.11579,-12.92116 10.94076,-1.16737 0,0 z m 290.40001,-0.32861 c -4.94932,-4.29454 6.07897,-2.66744 0,0 z m -336.25051,-2.80589 c 7.5114,-22.82237 32.30737,-3.84778 0,0 z m 343.88116,-0.17878 c -2.01037,-10.58765 9.30665,1.16858 0,0 z m -330.17332,-0.003 c -1.49993,-7.52278 7.03611,2.16677 0,0 z m 336.16068,-2.13005 c 2.96775,-8.60911 13.69879,0.70831 0,0 z m -328.46234,-0.56218 c -12.62583,-29.60973 20.55662,-15.43205 0,0 z m 416.28433,-0.45741 c -1.55088,-8.4376 10.54938,2.7901 0,0 z m 18.20838,0.15354 c -2.84599,-7.17723 6.8183,0.0324 0,0 z m 69.54769,-0.73786 c -10.31812,-18.34309 19.59781,-17.96293 0,0 z M 151.8429,506.00519 c -10.12275,-10.7944 7.58328,-2.1658 0,0 z m 321.29068,0.12429 c 4.80974,-13.97338 25.65807,-1.11701 0,0 z m -329.77357,-1.19232 c -0.60954,-14.20281 13.67986,-9.13528 0,0 z m 468.13476,-0.47235 c -25.43767,-4.01948 10.34212,-20.65783 0,0 z M 469.85272,493.01998 c -3.35052,-8.51488 8.71706,0.23477 0,0 z m 110.46333,-4.01063 c -11.68587,-15.21417 22.87436,-4.08752 0,0 z m -12.95603,-1.96934 c -3.65015,-4.54445 10.60584,-3.26278 0,0 z m 55.2,-0.75418 c -28.3697,-32.41418 39.16532,-20.43629 0,0 z m -28,-20.99132 c -10.98362,-40.41796 48.37103,-6.01077 0,0 z m 76.8,-6.39831 c 0.32293,-25.96198 -30.79167,2.55424 -30.16509,-28.58746 -51.51979,19.63425 5.29992,-35.81259 13.01952,-54.58623 1.74801,49.17574 36.58036,-15.76387 12.69937,-4.28077 -18.7589,-1.00832 13.55724,-21.96303 13.63201,-28.9096 10.7316,-5.93401 10.00879,-22.37225 20.38398,-18.80197 9.31247,-21.17852 2.13953,41.71763 11.05008,5.30702 30.4668,-13.42793 -25.74265,48.14847 6.41256,28.94348 -21.05974,-11.40307 20.66785,-34.06448 10.27235,0.97395 -11.98063,5.88482 -37.5136,89.76888 -40.38079,47.15859 -28.12129,2.3283 -3.24618,2.0816 -23.48036,20.52175 7.70304,17.2738 33.33527,7.34629 6.55637,32.26124 z m -24.09686,-32.2527 c 32.22873,-0.86984 -4.78856,-42.36739 -5.18189,-6.57919 l 3.0304,7.27085 2.152,-0.69177 z m 34.41088,-22.589 c 0.16142,-5.1883 -9.7685,2.62666 0,0 z m 10.32598,-2.16771 c 28.66233,-16.24768 -14.86246,-13.5882 -2.3618,0.452 l 0.0856,0.0812 2.27638,-0.53322 z m -8.2294,-1.96678 c 5.4224,-8.62716 -6.49857,-1.62803 0,0 z m 4.8054,-41.264 c 19.90415,-7.60278 -21.05968,-25.43997 0,0 z m 32.22401,-7.296 c 4.1309,-14.55263 -6.82378,-10.44794 0,0 z m -27.9426,-10.58695 c 4.80179,-9.18623 -1.74803,-6.64081 0,0 z m 8.82259,-4.05433 c 8.97455,-12.19888 -9.94409,0.074 0,0 z m -302.773,118.49658 c -8.86965,-4.53053 10.56727,-3.93718 0,0 z M 39.062149,426.1067 c -30.3007823,-41.79657 3.488259,-9.37973 0,0 z M 732.21363,346.88519 c -2.07686,-8.07542 5.04516,1.24039 0,0 z m -2.6136,-2.46201 c -6.59446,-5.987 6.84081,-12.09802 0,0 z m -354.48002,-5.77696 c -14.55084,-19.47682 -2.36494,-77.09559 -2.87081,-24.51626 1.53795,7.97878 6.39741,16.2427 2.87081,24.51626 z m -23.02,-0.70621 -2.6958,-4.36679 z m 161.0779,-8.5488 c -7.71087,-21.31787 14.68492,-22.65533 0,0 z m 185.94211,-2.25178 c -7.01106,-7.90366 7.17682,-1.42662 0,0 z m -191.67101,-6.31776 c -0.35603,-8.46221 5.314,4.24402 0,0 z m 243.36372,-5.94166 c 1.7036,-9.59363 10.98142,0.0757 0,0 z m -55.86829,-0.8525 c 1.53034,-5.37007 5.6188,0.52057 0,0 z m -370.40468,-4.04664 c -15.97902,-21.55978 -14.80187,-37.4618 4.28668,-9.24367 15.55651,15.073 2.44314,6.4108 -4.28668,9.24367 z m 3.42448,-3.28298 c 2.95973,-6.10008 -5.38968,-2.12982 0,0 z m 431.84273,0.73078 c 4.65229,-17.81548 15.26344,-7.94329 0,0 z m -247.11473,-0.74009 c 0.57594,-15.67636 18.54141,-51.93214 9.30162,-13.10082 -0.71684,4.55283 -1.78649,15.71964 -9.30162,13.10082 z m 197.28875,-0.59334 c -3.21591,-4.31131 6.4951,0.42467 0,0 z m 0.099,-10.4626 c -3.68857,-4.30268 8.29348,-5.87966 0,0 z m 59.88294,-4.30004 c 8.7464,-25.0339 16.58847,-12.03887 0,0 z m -277.79806,-7.09259 c -14.13398,-6.78307 -32.49812,-35.21072 -7.49357,-12.23096 4.51468,1.56165 9.87353,6.93127 7.49357,12.23096 z m 33.77796,-10.50286 c 3.71516,-28.47224 27.37602,-38.08393 40.99878,-66.28979 22.22415,-41.01295 11.83564,15.71413 -10.3264,28.08757 -10.7674,12.51792 -17.46782,27.67562 -30.67238,38.20222 z M 299.86746,268.4752 c -17.86939,-18.46658 -42.01206,-11.02351 -59.77789,-44.747 -15.18793,-1.85881 -8.40082,-42.60692 -2.62108,-6.49049 14.92281,30.1669 76.60653,45.58387 52.75799,-3.94116 -15.36836,-20.67952 21.39432,-61.58872 2.3517,-21.65613 6.58385,24.70247 4.55782,59.10999 7.28928,76.83478 z m 485.42531,4.47646 c 17.57745,-19.08831 8.79084,-2.72184 0,0 z m 15.99705,-12.38031 c 1.85576,-9.11588 30.01234,-15.85412 0,0 z m -331.5098,-4.55134 c -17.53204,-22.35709 8.59292,-36.85073 0,0 z m -6.88967,-15.39673 0.73369,-0.98338 z m 340.43127,-41.30547 c 5.07117,-16.17161 21.68888,-26.18389 0,0 z m -11.96126,31.13577 c 15.81058,-58.32834 7.6275,-2.39792 0,0 z m -20.5398,-14.29375 c -3.71164,-34.89155 8.69213,1.38356 0,0 z m -49.77742,28.22848 c -27.78454,-38.89013 4.04818,-10.03966 0,0 z m 22.94092,-32.00029 c -10.09554,-73.65678 7.9549,-0.5132 0,0 z M 545.93589,195.85587 c 2.32951,-4.23615 5.00912,2.69304 0,0 z m -1.71257,-4.69925 c -8.34306,-21.79874 17.15767,-4.20024 0,0 z m -319.18634,-1.39227 c -12.06528,-26.45075 1.99407,-13.35986 0,0 z M 536.29554,190 c 4.79004,-18.60698 -23.16053,-15.16074 -23.4044,-43.02227 8.52505,11.13864 42.4815,27.1191 23.4044,43.02227 z m 48.07056,-1.79229 c -8.53777,-9.21019 8.86087,-9.32994 0,0 z m 2.07728,-8.53006 c -6.96863,-18.02579 22.45195,-82.099275 10.888,-33.05441 -5.15811,10.24806 -2.66382,24.77297 -10.888,33.05441 z m -369.35197,-9.5028 c -16.40249,-5.29732 6.74195,-10.35498 0,0 z m -7.51588,-8.39523 c -17.20751,-14.06093 -22.15592,-67.321213 -13.95293,-61.10983 -3.9154,19.90587 19.00094,50.71281 13.95293,61.10983 z m 570.3797,6.90971 c -8.09439,-25.4112 8.85746,-5.86276 0,0 z M 218.93161,157.02218 c -2.5131,-22.22901 19.48733,-40.05702 0,0 z m 268.45052,-7.24549 c -1.47801,-6.98952 8.46375,-0.31705 0,0 z m -6.10211,-3.58106 c -13.51056,-6.45662 4.27454,-6.29824 0,0 z M 226.03128,132.08116 c -7.72493,-13.29931 9.92644,-6.28638 0,0 z m -0.83334,-10.39504 c -6.81139,-9.10264 6.5993,-0.45525 0,0 z m 377.80285,-1.45893 c -2.18562,-14.88407 19.39901,-66.15325 18.0185,-60.034905 -1.11892,-50.9776026 10.86324,20.488318 -7.34846,36.526221 -3.38688,7.912744 -7.10211,15.677624 -10.67004,23.508684 z m -373.98745,-2.68052 c -7.89658,-13.69542 6.30753,-5.77102 0,0 z m 1.23882,-10.007 c -5.67345,-7.47818 8.67359,-7.47669 0,0 z m 355.51608,-2.24378 c 5.75042,-20.707969 -30.42191,-67.87026 -22.40106,-64.386401 17.85544,10.441696 37.192,48.111496 22.40106,64.386401 z M 192.80407,85.91596 c -4.14805,-12.682353 8.04829,1.151092 0,0 z m -1.88337,-8.235958 c -4.35893,-11.25448 8.32436,1.304377 0,0 z M 624.00453,35.763006 c -8.24441,-6.778671 -12.11465,-58.221887 1.34269,-18.36456 -1.11987,5.87706 6.80126,14.776133 -1.34269,18.36456 z"
         sodipodi:nodetypes="ccccccccccccccccccccccccccccccccccccccccccccccccccccccccccccccccccccccccccccccccccccccccccccccccccssscccccccccccccccccccccccccccccccccccccccccccccccccccccccccccccccccccccccccccccccccccccccccccccccccccccccccccccccccccccccccccccccccccccccccccccccccccccccccccccccccccccccccccccccccccccccccccccccccccccccccccccccccccccccccccccccccccccccccccccccccccccccccccccccccccccccccccccccccccccccccccsccsccccccccccccccccccccccccccccccccccccccccccccccccccccccccccccccccccccccccccccccccccccccccccccccccccccccccccccccccccccccccccccccccccccccccccccccccccccccccccccccccccccccccccccccccccccccccccccccccccccccccccccccccccccccccccccccccccccccc" />
      <path
         id="path1609"
         style="display:inline;fill:#1d1f21;fill-opacity:1;stroke-width:0.32"
         d="m 299.51938,928.4786 c 23.97754,-65.84688 51.04665,-91.41557 75.06376,-158.98078 54.51005,-7.61163 157.86492,35.62064 188.94712,19.2222 38.32659,230.29558 -47.41114,110.32431 -215.52736,140.3552 -43.17321,10.46705 -29.67305,11.57072 -48.48352,-0.59662 z M 547.41672,787.30987 c -0.84688,-6.01602 5.85499,0.97831 0,0 z m -45.12269,-10.47782 c -0.28183,-11.22411 5.68456,5.48206 0,0 z m 7.53264,-2.58503 c -4.48751,-6.97267 8.1428,-1.86751 0,0 z m -62.47414,-0.47315 c -6.56819,-4.03293 11.36292,-8.90753 0,0 z m 36.06672,-5.56851 c -3.4763,-9.60326 6.8522,2.30802 0,0 z m 18.34077,-2.46438 c -4.86321,-7.13631 6.83089,-11.3802 0,0 z m -52.72,-1.41978 c -2.13667,-9.94891 10.73221,1.54674 0,0 z m -58.67789,-1.84134 c -4.30855,-9.57832 6.61139,0.25445 0,0 z m 26.00147,-0.61005 c -5.92593,-4.55619 5.37048,-3.20249 0,0 z m -0.92359,-10.90051 c -2.24762,-6.26742 6.69553,1.4606 0,0 z m 21.93815,-12.36644 c -6.3952,-10.47357 10.68053,1.77096 0,0 z m 75.61251,-2.1567 c -1.36114,-6.38018 6.66752,1.79324 0,0 z m -58.79945,-7.54294 c -9.96614,-12.07858 8.34098,-2.26635 0,0 z m 107.8664,-1.01101 c -27.64443,-21.03378 29.76932,-9.53724 0,0 z m -164.79834,-1.77882 c -9.53628,-11.08994 11.36733,-2.53838 0,0 z m 101.90435,-0.14969 c -4.33578,-9.85246 9.49028,-4.25866 0,0 z m -112.76835,-7.90535 c 0.96628,-7.98838 4.34928,4.53677 0,0 z m 47.81232,-2.13849 c -1.48576,-9.02447 6.95568,1.21957 0,0 z m 18.24637,-5.49671 c -11.98112,-7.27525 9.49801,-1.76326 0,0 z m 104.50605,-0.98329 c -7.44535,-11.83576 8.00505,-5.56373 0,0 z m 7.84,0 c -5.63965,-3.60734 7.35611,-2.73079 0,0 z m -175.91025,-0.74925 c -3.32478,-6.9828 8.40023,0.74662 0,0 z m 147.82753,-1.05984 c -1.32831,-6.04737 5.64363,2.04898 0,0 z m -110.15728,0.20909 c -6.22311,-10.75066 -20.36341,-34.02599 0.24415,-24.51526 2.05818,14.84088 17.78504,4.68043 1.34444,21.4283 l -0.39895,2.09776 z m -34.48865,-7.0017 c -16.36368,-20.88192 6.87334,-53.0506 15.54352,-16.49039 -5.79758,3.61999 -8.66191,17.31472 -15.54352,16.49039 z m 9.68864,-22.27831 c -1.68007,-6.02028 -1.68004,6.02031 0,0 z m -3.79792,-3.2551 c -2.52216,-9.74382 -2.23293,6.63272 0,0 z m 58.35793,25.46087 c -3.51122,-2.93491 7.2629,-0.63036 0,0 z m 107.68,-0.60701 c -5.36078,-8.5441 10.45063,-6.31486 0,0 z m -36.61335,-0.6121 c -8.33125,-28.37949 9.66503,-9.30545 0,0 z m -66.26665,-5.6465 c -3.41928,-9.90997 10.87463,0.88697 0,0 z m 4.93916,-7.85388 c -2.01234,-14.32831 15.26283,-3.47851 0,0 z m -97.25917,-0.88039 c -10.32788,-4.98959 11.34819,-2.42385 0,0 z m 196.28347,-1.14153 c -3.7677,-12.49714 7.10721,5.07468 0,0 z m -41.77239,-0.1274 c -2.64286,-5.85797 6.05066,-3.03561 0,0 z m -91.73319,-1.97696 c -5.31686,-15.06578 10.70603,-1.16859 0,0 z m -72.03984,-0.22835 c 0.51078,-4.90787 5.86615,1.89466 0,0 z m 153.19271,-0.0606 c -17.53519,-21.98423 24.15106,-1.09149 0,0 z M 331.14222,680.843 c -14.21583,-11.22232 23.14855,3.43455 0,0 z m -12.75068,-4.05895 c -1.07058,-8.25961 6.24766,2.39681 0,0 z m 25.87506,-3.03491 c -13.00805,-4.50996 10.13388,-1.97365 0,0 z m 83.20778,-0.52233 c -8.93692,-11.25404 12.5824,-11.42323 0,0 z m 116.90116,-0.50692 c -1.79034,-10.8733 9.06143,2.18113 0,0 z m 8.62643,0.13056 c -28.38433,-17.2475 3.13279,-33.91616 3.05896,-3.11681 l -3.05893,3.11717 z m -8.24288,-16.1839 c 1.41383,-7.65222 -5.39234,-0.78049 0,0 z m -230.51908,15.39811 c -14.62785,-16.6365 27.67499,-3.06691 0,0 z m 14.34499,-0.94601 c -1.06691,-7.10873 5.05179,1.10888 0,0 z m 7.89501,0.24124 c -10.75833,-4.09216 8.54892,-2.50992 0,0 z m -38.36,-0.89526 c 0.31506,-5.40773 6.73943,2.30666 0,0 z m 267.98043,-0.94387 c -14.24916,-18.63158 26.32735,-38.81098 15.55005,-11.42273 -8.63779,0.4939 -11.44645,6.60184 -15.55005,11.42273 z m -144.18343,-0.32087 c -8.20684,-2.4577 4.16188,-12.88384 0,0 z m -146.77121,-1.6825 c -35.26092,-10.84429 29.93297,-14.40803 0,0 z m -51.46579,-0.26083 c -14.57056,-19.69653 21.02858,-3.91554 0,0 z m 72.91916,-1.09655 c -1.19564,-6.16464 11.0389,1.41328 0,0 z m -79.71916,-0.58563 c -8.26589,-11.21948 9.74471,-1.37446 0,0 z m -9.4834,-4.23513 c -2.21406,-8.80758 7.2747,3.62666 0,0 z m 317.83598,-1.11655 c -0.2239,-11.64952 13.51437,-1.30697 0,0 z m 10.12743,-1.43865 c -6.52429,-7.00868 9.17306,-3.18557 0,0 z M 433.64923,658.3684 c -0.71479,-8.34639 8.85667,0.0941 0,0 z m 68.91168,-0.0741 c -1.05301,-7.22954 8.10171,1.26126 0,0 z m -283.70617,-3.17424 c -23.03663,-3.51897 -3.13372,-16.83375 0,0 z m 220.18528,-0.28387 c 2.32285,-8.52458 10.36906,-5.89793 0,0 z m 58.88,-1.04675 c -5.27702,-5.12033 5.99417,-4.15298 0,0 z m -295.46699,-1.06938 c 3.14174,-7.57836 3.30156,5.48906 0,0 z m 191.98602,-1.15683 c -16.24416,-24.36145 33.37963,-24.69876 0,0 z m 114.71159,-2.67305 c -5.68288,-6.51696 8.5565,-5.23817 0,0 z m -8.51529,-1.47312 c -4.42429,-9.66479 8.56551,-2.39877 0,0 z m -30.78913,-4.47082 c -6.32742,-6.47694 8.98122,-4.11017 0,0 z m 62.40669,-1.83258 c -15.00399,-17.1385 24.26888,-40.46334 13.65451,-4.92991 -2.7276,5.5446 -9.83963,0.85627 -13.65451,4.92991 z m -343.73752,-0.91097 c -2.39256,-5.88996 4.83927,-0.70166 0,0 z m 121.67924,-3.24659 c -12.00463,-20.23473 23.67642,-1.20213 0,0 z m 197.32539,0.24972 c -26.44607,-8.57569 5.73791,-15.34055 0,0 z m -236.37813,-0.96576 c -30.52144,-21.95583 38.14387,-4.67494 0,0 z m -2.3874,-6.60105 c 4.35967,-5.41595 -5.10804,-0.0226 0,0 z m 210.14902,5.96105 c -12.09967,-0.9965 7.13751,-9.5751 0,0 z m -260.54287,-2.49027 c -8.47566,-24.82414 6.47831,-4.76999 13.37738,-5.68973 -1.50218,5.43998 -8.36528,8.28984 -13.37738,5.68973 z m 351.92908,-1.12416 c -25.01766,-14.09334 9.89869,-46.21862 7.71831,-7.67543 -0.37821,3.91301 -3.62574,7.53718 -7.71831,7.67543 z m -335.39039,-1.39197 c -3.17904,-8.45325 9.82324,1.21413 0,0 z m 207.02069,-0.17203 c -5.64528,-7.5728 9.57214,-1.10049 0,0 z m -98.88001,-3.08653 c -3.20999,-7.7754 10.74624,0.70902 0,0 z m 83.38285,-5.75788 c -2.31387,-6.11063 6.87669,0.63311 0,0 z m -250.78075,-1.13626 c -4.55222,-8.64489 10.66932,0.90815 0,0 z m 53.26495,-2.4232 c -5.14138,-8.56507 6.87746,-2.63193 0,0 z m 226.53296,-0.56512 c -0.28643,-10.60214 5.45824,4.25096 0,0 z m -250.03791,-0.0926 c -14.32809,-11.03486 6.52511,-2.94673 0,0 z m -21.6421,-1.27852 -4.94995,-8.14993 c -11.226,16.25186 -10.19431,-48.23739 2.23797,-17.71494 2.37296,12.43092 15.34416,13.89791 2.71198,25.86487 z m -0.0318,-11.84148 c 2.75785,-16.02099 -4.91292,1.61672 0,0 z m 7.21005,11.10864 c -12.14125,-47.74918 30.80937,-9.66726 0,0 z m 399.36099,-2.25363 c -13.47804,-35.4395 20.9415,-19.53197 0,0 z m -420.50948,-3.89501 c -5.62538,-16.59687 6.18677,-2.96987 0,0 z m 63.64565,-0.83196 c -8.18772,-23.10959 13.84547,-7.8475 0,0 z m -6.04968,-2.7274 c -5.15904,-13.28798 10.69647,-3.46759 0,0 z m 52.29425,0.0672 c -34.19747,-7.53522 30.6199,-17.79768 0,0 z m 39.79555,-1.16288 c -6.34043,-16.07847 16.85999,-2.70886 0,0 z m 176.3003,-3.57299 c -15.29635,-15.35391 18.66828,-7.30767 0,0 z m -275.10204,0.0427 c 0.28889,-8.62184 10.23286,-0.92696 0,0 z m 42.77985,-0.69113 c -4.86694,-10.40904 5.73533,1.11992 0,0 z m 81.10657,-3.74413 c -3.91543,-4.86003 6.09991,-1.35521 0,0 z m -120.44159,-1.77946 c -7.21176,-11.20995 12.91257,-1.23514 0,0 z m 199.43858,-1.2279 c -3.79263,-11.53797 7.5076,1.39205 0,0 z M 187.64129,593.0115 c -12.32301,-24.00945 27.07625,-16.4265 0,0 z m 226.11872,-0.0159 c -6.45254,-6.33661 8.47985,-3.61007 0,0 z m 115.89409,-1.74364 c -11.10874,-13.04835 20.03322,-3.71412 0,0 z M 161.074,590.89185 c -6.6172,-10.75678 9.26524,-0.0502 0,0 z m 170.64083,-0.55776 c 0.90167,-7.52675 4.1943,4.12223 0,0 z m -127.55482,-3.32073 c -15.73448,-6.36136 3.66032,-13.44192 0,0 z m 12.32,-1.20695 c -18.44671,-11.51078 13.85589,-0.64784 0,0 z m 215.66157,0.78346 c -4.96105,-3.23754 3.30171,-4.60352 0,0 z m -272.75436,-0.9441 c -8.59075,-14.03601 18.39832,-7.0604 0,0 z m 280.1215,-6.36029 c -5.74444,-3.75413 5.44277,-1.33722 0,0 z m -68.78871,-0.49763 c -0.60523,-9.20736 11.28452,0.65359 0,0 z m -217.8961,-1.03625 c -15.58974,-15.39771 8.22959,-22.60457 0,0 z m 34.58007,-2.79159 c -3.9011,-18.1406 8.44453,-2.20986 0,0 z m 270.19604,0.78035 c -4.59246,-9.08809 10.75331,-1.71443 0,0 z m 96.67933,-0.18 c -11.27154,-18.70924 16.59897,-6.24681 0,0 z m -352.80356,-0.57824 c -13.56507,-17.2165 8.98875,-13.54761 0,0 z m 178.62624,-0.34211 c -2.81837,-8.45656 8.71718,0.55391 0,0 z m 105.68928,-1.00669 c -2.00389,-8.47001 8.8418,3.28439 0,0 z m -278.1913,0.10106 c -3.70637,-6.20537 6.22793,0.7463 0,0 z m -14.34205,-0.97968 c -9.62906,-22.10533 11.87478,-10.39987 0,0 z m 257.0299,-1.33702 c -3.65866,-8.37182 8.24968,1.40023 0,0 z m -47.06884,-0.75239 c -3.09044,-5.83707 7.04245,1.093 0,0 z m -14.73901,-0.73165 c -7.75783,-7.23418 7.93594,-4.695 0,0 z m 21.12,-5.13209 c 0.18353,-9.08854 13.51736,-1.68695 0,0 z M 133.0096,562.93483 c -0.97712,-5.55336 5.62065,0.78966 0,0 z m 55.78811,0.33718 c -16.4736,-20.74441 7.21923,-7.58363 0,0 z m 387.45777,-0.20934 c -15.11467,-7.0773 10.13581,-7.29355 10e-6,0 z m -58.11146,-3.76666 c -1.92167,-6.16209 6.02019,1.20061 0,0 z m -97.66237,-3.696 c 5.60378,-12.34307 15.73546,-2.39432 0,0 z m -10.3706,-1.23453 c -6.09027,-18.50339 22.62245,-3.00723 -8e-5,-3e-5 z m 201.10929,-1.27747 0.80739,-1.53538 z m -464.6513,0.13754 c -1.43779,-14.18464 17.42389,-5.93942 0,0 z m 24.31824,-0.89827 c -3.59285,-9.18723 7.1749,-1.63547 0,0 z m -12.8652,-2.00727 c -5.7693,-10.50064 8.64461,-0.16938 0,0 z m -36.09051,-2.69798 c -12.02278,-20.3802 35.05714,-25.12087 2.34888,-5.46496 l -2.42027,3.2615 z m 61.18896,-1.60778 c -4.87832,-5.6196 9.27047,-0.21455 0,0 z m 358.52909,-0.35942 c -4.22426,-8.80403 10.94815,1.72749 0,0 z m -81.36909,-2.11485 c -27.5843,-1.52369 18.44116,-5.8012 0,0 z m 12.13747,0.23779 c -0.89318,-7.26779 9.17535,0.30665 0,0 z m -307.67024,-8.92713 c -1.03563,-6.21209 5.27716,1.63999 0,0 z m 458.78749,-0.81581 c -3.22983,-15.55589 18.36477,-4.07363 0,0 z m -502.95589,-1.02611 c -5.39334,-15.78402 6.12911,-4.85462 0,0 z m 439.53816,-0.59392 c -0.97917,-5.85487 7.26512,1.75681 0,0 z m -399.39751,-5.29466 c -3.38939,-7.52061 7.08504,-0.16729 0,0 z m 433.36001,-2.00013 c -3.09902,-5.08934 6.49401,0.38624 0,0 z M 106.07883,523.5187 c -8.784975,-10.75504 8.97136,-4.25596 0,0 z m 41.44118,-0.3528 c -1.77282,-1.92698 1.33154,-23.93266 2.02144,-8.19882 z m 286.16615,-2.96067 c -3.24096,-4.46624 6.57673,-0.22223 0,0 z m -18.27472,12.32621 c 1.84747,-23.2928 -41.68477,22.89693 -34.27955,-43.90339 -6.57376,22.06834 -5.40939,-42.34282 22.316,-30.41013 3.50309,-16.76939 2.33003,-53.86767 16.22382,-39.03705 24.12608,-5.70562 -25.91589,-15.309 0.91207,-21.14158 -10.49384,-15.37667 -4.78976,-25.87688 -12.80411,-4.41518 -2.12674,-18.28648 -49.22081,-55.96278 -12.0208,-40.70697 14.92385,4.68483 -14.65052,-60.16896 6.82054,-26.53157 1.291,3.30207 19.12972,-58.43882 12.60399,-15.87728 11.95721,-19.91876 39.25442,-9.43508 33.64512,-22.556 24.89614,7.48282 -8.38361,40.65945 18.71993,27.00031 26.96306,-21.27875 47.12306,16.34295 29.05074,23.7075 17.67112,15.69644 11.78186,-18.43846 33.9729,8.39842 -23.67571,8.77417 -26.85401,3.41541 -19.07028,19.14377 7.23195,-15.17677 6.5875,18.39325 -0.27228,18.22523 3.86704,21.01106 -13.6825,49.46353 11.22971,53.67496 -22.82242,9.73475 -27.67528,50.20106 -35.07286,32.08747 -0.32505,26.65984 -37.88238,5.05855 -31.86122,23.08463 1.63344,-14.20357 -37.60299,-62.15202 -24.94456,-16.34724 -0.50489,11.07391 -6.4066,44.06254 -15.16916,55.6041 z m 9.53165,-77.57143 c 3.11885,-12.67641 -7.96173,5.06837 0,0 z m 3.85693,-1.2 c 4.40428,-8.29572 -4.73095,-1.17536 0,0 z m 75.24534,-58.55709 c 3.38192,-8.36217 -9.21402,1.57182 0,0 z m -1.77001,-44.15186 -4.25017,4.37538 z m -75.12916,-37.45161 c 10.82552,-7.7395 -6.23028,-1.01602 0,0 z m 212.53383,192.41186 c -14.87073,-13.84668 15.89309,-15.34992 0,0 z m -165.95056,-0.78074 c 0.70001,-7.5133 10.16243,2.71508 0,0 z m 133.2281,-2.00886 c -11.18783,-17.12348 19.28593,3.02013 0,0 z m -125.83754,0.1383 c -4.97407,-6.7545 9.54566,1.18591 0,0 z M 145.3966,502.75604 c -4.8869,-4.8312 7.26519,-1.75097 0,0 z m 437.81302,-13.78048 c -21.44152,-14.8085 22.10806,-10.89792 0,0 z m 40.1216,-2.83597 c -22.33664,-34.87079 34.41693,-16.34869 0,0 z M 432.6245,467.91607 c -7.30944,-8.22238 9.3933,-4.76226 0,0 z m 162.89552,-3.15734 c -8.349,-24.04685 31.00019,-19.1682 7.70415,0.56752 l -6.26414,-0.37271 -1.44,-0.19482 z m 77.60544,-8.10989 c -1.72226,-22.48539 -44.26512,-0.78307 -22.73914,-31.29106 9.80922,-3.7775 44.68807,20.75641 22.73914,31.29106 z m -54.47037,-21.17561 c 8.26227,-15.66479 28.86545,-57.65894 37.98361,-51.87414 -2.67234,28.12592 36.88829,-1.06669 16.12818,-17.12977 -7.33114,-25.06733 39.80021,7.11752 13.52811,-25.82224 3.37815,-12.00191 6.82497,12.91646 13.19056,-10.4072 -2.23628,28.49899 18.61591,48.86198 -0.49962,77.5614 -20.63938,20.33167 14.30539,-19.80779 -5.40252,-27.88271 -5.87614,-15.65261 -2.29959,31.96966 -22.09547,16.98748 4.83547,20.47032 -2.9658,22.51941 -18.34175,4.18859 -21.6466,6.35641 -2.57795,36.1728 -34.4911,34.37859 z m 83.06173,-52.24282 c 1.64927,-12.92805 -6.64143,9.23977 0,0 z m -40.44022,33.63616 c -2.40242,-8.39456 7.29538,6.54233 0,0 z m 16.34627,-8.40941 c -2.59068,-7.77083 3.94973,-0.0645 0,0 z m 3.8713,-0.32285 c -1.53589,-13.08805 15.46276,-7.75131 0,0 z m -164.9001,-10.49267 c -2.37691,-8.13462 8.13314,2.32552 0,0 z m 171.51059,-3.93238 c -5.6342,-6.82962 8.80877,-1.58959 0,0 z m -175.69152,-7.46644 c -0.71905,-8.84357 6.20324,2.36119 0,0 z m 201.7313,-4.37529 c -15.62305,-21.97534 25.73178,-29.02393 0,0 z m -189.33252,-7.91626 c -12.50328,-5.49315 9.38295,-4.59018 0,0 z m 133.79226,-0.16313 c -5.81947,-7.32787 7.16728,-0.45581 0,0 z m 6.77677,-0.35037 c -7.956,-7.33831 10.59922,1.00423 0,0 z m -4.58093,-5.75776 c 3.76671,-14.06859 18.55877,1.77342 0,0 z m -136.47655,-1.76 c -12.09917,-2.9683 6.73555,-11.41047 0,0 z m 152.31655,-13.6 c -2.42539,-7.78577 8.89643,-1.1334 0,0 z m -301.57165,-3.64983 c -1.54978,-5.93331 4.83044,2.69496 0,0 z m 327.13165,-0.82534 c -5.20299,-17.63455 20.4367,0.18562 0,0 z m -21.60448,-1.95037 c -1.02997,-5.54125 4.93837,2.19239 0,0 z m 42.55572,-0.26912 c -3.86524,-15.35031 10.61184,3.64866 0,0 z m -7.63123,-1.45408 c 3.37863,-9.78084 3.84936,7.14502 0,0 z m -344.64002,-0.484 c -18.05214,-7.79019 13.79685,-1.70201 0,0 z m 338.06203,-2.39059 c 1.52631,-22.49832 22.21253,-9.6856 0,0 z m -345.66203,-2.6425 c -21.88112,-15.64766 -7.55796,-20.07547 0,0 z m 10.78375,-4.49417 c -2.92761,-7.92657 6.93694,0.86846 0,0 z m 349.77627,-1.01875 c 1.0817,-6.52231 3.7198,4.94564 0,0 z m -31.12001,-3.93773 c -8.19321,-11.48781 10.30541,-3.34108 0,0 z m -318.32001,-1.03667 c -11.36826,-6.31711 3.29366,-14.32201 0,0 z m 139.32266,-5.60685 c -2.19774,-14.41274 7.62683,-1.67471 0,0 z m -169.9561,-0.86496 c -15.364,-7.61054 5.37867,-8.89187 0,0 z m 357.03345,-1.07168 c -5.20845,-7.54947 8.51953,2.25379 0,0 z m -331.70436,-9.11232 c -8.59959,-26.72474 8.63927,-11.19491 0,0 z m -43.33565,-3.83104 c -13.42914,-6.71968 5.72892,-4.05712 0,0 z m 6.88922,-0.0626 c -18.03775,-12.95197 2.24031,-10.73543 0,0 z m 131.61098,-1.75959 c -5.5593,-17.09781 21.51984,2.675 0,0 z m 53.08442,-0.45993 c -5.97327,-16.68843 15.03559,-19.95939 0,0 z m -197.53829,-4.6524 c -2.21032,-12.61761 9.05975,0.42295 0,0 z m -1.61675,-9.54552 c -9.52034,-6.86322 9.95444,0.97031 0,0 z m 204.05612,-6.4 c -5.54308,-6.41382 10.78604,-14.36128 0,0 z m -32.00569,-2.01393 c -18.84149,-7.79636 5.96905,-12.75387 0,0 z m -6.91671,-9.35543 c -13.37096,-7.1235 6.55367,-1.08584 0,0 z m 42.98781,-0.1543 c -2.13409,-12.44838 7.76682,1.65666 0,0 z m -55.43504,-7.246 c -9.68227,-11.24846 9.62677,-1.53822 0,0 z m 64.48394,-1.49048 c -19.10061,-4.10355 28.00674,-33.01614 4.1087,-4.68459 -5.87347,-7.43483 1.67724,5.63867 -4.1087,4.68459 z m -237.52001,-3.33928 c -2.93964,-6.42075 6.49489,-1.01566 0,0 z m -4.57008,-0.47146 c -16.60712,-10.0705 -1.83247,-21.33672 0,0 z m 174.70874,-7.63271 c -5.74812,-19.96096 7.44501,-16.38163 0,0 z m -193.81804,-2.46396 c -24.17983,0.7516 -53.47501,-55.89337 -20.45303,-15.2454 1.05396,9.56518 41.46485,8.21419 20.45303,15.2454 z m 20.88509,-1.02814 c -5.38934,-8.87048 10.81765,-11.37273 0,0 z m 250.51875,-6.88431 c 12.3194,-14.98939 20.5977,-39.30169 36.28944,-47.10048 -6.18518,16.80784 -20.56172,40.39245 -36.28944,47.10048 z m -250.84446,-6.16987 -0.29407,-4.84646 z m -0.45861,-11.8343 c 3.78695,-8.77996 2.91486,5.48335 0,0 z m 266.68412,-8.57324 c 1.92957,-5.05062 7.39339,0.20818 0,0 z m -327.48265,-3.20541 c -13.18207,-13.76062 8.05287,-8.17061 0,0 z m 59.33714,-3.03379 c -9.7148,-6.30046 7.34826,-12.84133 0,0 z m -0.22183,-18.26294 c -0.49321,-24.60247 13.3418,-10.75333 0,0 z m 254.54184,-4.98962 c -10.12315,-4.80315 5.0512,-12.14171 0,0 z m -11.44,-0.99086 c -4.64511,-4.86288 5.91227,-0.96185 0,0 z m 3.76784,-3.37965 c -14.42227,-2.15933 -32.76973,-42.24687 -11.81618,-20.46737 2.67528,0.29282 20.24175,21.0979 11.81618,20.46737 z m -8.11069,-9.66314 c -0.76782,-5.70355 -9.03047,-6.53133 0,0 z m 56.32627,1.09062 c -3.38406,-18.56116 20.38237,-73.05744 9.3787,-24.66878 -5.54537,6.72319 -4.6281,20.51569 -9.3787,24.66878 z m -107.3144,-28.13659 c -7.18649,-5.13027 6.6733,-2.03994 0,0 z M 224.98611,143.28 c -10.3147,-6.94219 6.22438,-7.6151 0,0 z m -24.32084,-6.57403 c -14.21849,-4.84923 3.85872,-16.15548 0,0 z m 25.3722,-6.06597 c -3.92852,-11.55155 8.47427,-1.77784 0,0 z m -29.37461,-5.70285 c -13.91476,-19.61434 3.87266,-28.881583 0,0 z m 403.52433,-6.90065 c -2.99528,-18.546456 13.09347,-3.12471 0,0 z m 7.01827,-12.746 c -1.41225,-19.851931 9.81711,-2.29686 0,0 z m -21.6281,-0.8378 c -7.76635,-12.83822 9.80651,-0.97535 0,0 z m 25.30266,-10.757357 c 4.07921,-34.644635 19.85303,-20.64521 0,0 z m -23.52826,-6.43098 c -12.27955,-9.040358 -19.48987,-56.107285 -1.61657,-18.587919 1.51863,5.612417 5.93146,12.945658 1.61657,18.587919 z m 34.67309,-29.603309 c -5.43034,-18.707135 9.96195,-5.760377 0,0 z m -54.01219,-8.075642 c -15.49244,-10.682103 17.03918,0.712305 0,0 z M 624.00025,32.32041 c -6.41762,-15.516443 -12.07792,-47.971747 1.34731,-17.121163 0.69099,5.380923 2.65991,12.50207 -1.34731,17.121163 z"
         sodipodi:nodetypes="cccccccccccccccccccccccccccccccccccccccccccccccccccccccccccccccccccccccccccccccccccccccccccccccccccccccccccccccccccccccccccccccccccccccccccccccccccccccccccccccccccccccccccccccccccccccccccccccccccccccccccccccccccccccccccccccccccccccccccccccccccccccccccccccccccccccccccccsssccccssscccccccccccccccccccccccccccccccccccccccccccccccccccccccccccccccccccccccccccccccccccccccscccsccccccccccccccccccccccccccccccccccccccccccccccccccccccccccccccccccccccccccccccccccccccccccccccccccccccccccccccccccccccccccccccccccccccccccccccccccccccccccccccccccccc" />
    </g>
  </g>
</svg>
