<?xml version="1.0" encoding="UTF-8" standalone="no"?>
<svg
   xmlns:dc="http://purl.org/dc/elements/1.1/"
   xmlns:cc="http://creativecommons.org/ns#"
   xmlns:rdf="http://www.w3.org/1999/02/22-rdf-syntax-ns#"
   xmlns:svg="http://www.w3.org/2000/svg"
   xmlns="http://www.w3.org/2000/svg"
   xmlns:sodipodi="http://sodipodi.sourceforge.net/DTD/sodipodi-0.dtd"
   xmlns:inkscape="http://www.inkscape.org/namespaces/inkscape"
   version="1.1"
   id="svg6505"
   width="1600"
   height="1100"
   viewBox="0 0 1600 1100"
   sodipodi:docname="upper-vacancies.svg"
   inkscape:version="1.0.1 (unknown)">
  <style
     id="style2" />
  <metadata
     id="metadata6511">
    <rdf:RDF>
      <cc:Work
         rdf:about="">
        <dc:format>image/svg+xml</dc:format>
        <dc:type
           rdf:resource="http://purl.org/dc/dcmitype/StillImage" />
        <dc:title />
      </cc:Work>
    </rdf:RDF>
  </metadata>
  <defs
     id="defs6509" />
  <sodipodi:namedview
     pagecolor="#e0e0e0"
     bordercolor="#666666"
     borderopacity="1"
     objecttolerance="10"
     gridtolerance="10"
     guidetolerance="10"
     inkscape:pageopacity="1"
     inkscape:pageshadow="2"
     inkscape:window-width="1278"
     inkscape:window-height="1415"
     id="namedview6507"
     showgrid="false"
     inkscape:zoom="1"
     inkscape:cx="704.88639"
     inkscape:cy="604.72266"
     inkscape:window-x="1280"
     inkscape:window-y="0"
     inkscape:window-maximized="0"
     inkscape:current-layer="g6517"
     inkscape:document-rotation="0"
     fit-margin-top="4.1" />
  <g
     inkscape:groupmode="layer"
     inkscape:label="Image"
     id="g6513">
    <g
       id="g6517"
       transform="translate(0,114)">
      <path
         id="path6525"
         style="display:inline;fill:#b4b7b4;fill-opacity:1"
         d="M -7.630223,882.48069 C -6.3043634,808.0706 -13.636132,733.67014 -11.980932,659.11446 -26.529924,618.6828 -0.38358181,502.87156 -2.3666659,523.32802 2.2919721,482.17957 -0.9591476,438.16328 0,395.74234 c 53.039486,5.08769 91.263748,54.92358 126.72367,72.79535 22.77993,-10.26733 77.93489,-51.57352 17.92585,-55.00706 C 121.3666,381.97694 126.86014,380.5813 118.22076,399.22956 61.38995,390.02443 54.338388,351.71577 51.795474,304.23862 30.660913,291.59154 -25.055516,329.1252 14.820779,280.61218 63.948627,249.82314 139.63009,332.66543 184.34301,254.27357 171.57657,232.76109 77.594644,277.11651 98.333156,215.61169 118.4973,184.04971 139.12009,154.99741 187.21692,159.7432 c -11.87884,-26.81021 85.69748,40.35445 67.54812,-12.73147 -67.46703,12.14658 42.90774,-18.8176 -7.6469,-37.59399 27.9052,-70.357057 123.20507,-54.312804 127.75573,21.90779 -30.90808,70.98908 123.52986,-3.03476 89.64458,67.21975 -42.41725,-10.48339 -64.26324,-10.47892 -73.81592,10.07652 -56.87601,-28.47961 -22.44773,71.95143 -81.87835,24.5526 -47.46279,-53.13793 -81.98809,6.29374 -104.64349,45.78901 -30.60646,48.04427 -100.9987,18.37592 -137.804567,53.39905 11.162606,98.27002 114.243167,-44.00583 165.573797,23.0438 62.49449,9.84232 113.06297,59.24965 116.81067,114.92161 41.52529,22.99072 -8.32164,90.36934 34.08922,34.85451 13.40781,-52.74806 -8.34728,-20.82031 26.67239,-98.48833 25.9821,-117.30077 117.29874,-5.37793 21.86321,-33.98683 10.94417,46.53931 -16.10092,-26.69433 -3.24067,14.80676 19.16245,11.81537 54.62721,0.41089 64.26893,20.75394 42.39249,-5.70574 -36.97716,-25.14016 -0.007,-30.45183 41.42349,-41.44116 131.67537,-37.44667 144.08346,-80.29362 -11.4921,-47.28228 -86.84234,-91.56012 -29.22359,-135.1743 7.71244,-28.36437 -52.9018,-63.642132 2.08776,-60.86692 72.18251,30.92707 -29.48455,-66.987033 46.87634,-75.679585 61.49907,-31.3860636 109.46469,44.805969 46.80834,83.468115 -60.80348,38.47047 26.94768,119.41691 -37.89891,137.15045 -21.51537,40.50308 40.80269,142.94865 53.80517,53.77379 9.88416,-53.86913 36.02124,-57.84636 7.93833,-103.15869 11.09225,-16.45407 11.20756,30.31354 28.41276,3.87905 39.52884,54.10945 13.29095,-32.4678 -9.06397,-51.57432 C 719.32629,88.261502 787.03216,39.58535 831.36255,9.7238628 891.84031,-23.117546 966.83048,-51.909136 1034.7824,-26.567157 1093.582,27.143434 1010.016,102.34819 973.85204,144.70401 954.79145,187.997 870.28981,214.44449 856.69641,172.3596 c 23.34765,-38.33517 -8.94742,-63.3691 -29.05181,-24.2367 5.42633,50.14525 -23.64966,20.98293 -39.31399,2.05226 -53.17909,3.55534 31.13176,38.57273 3.32218,68.28089 21.77737,30.98291 37.20378,130.19229 110.1648,89.45608 59.76412,-11.86854 -41.22829,38.56812 -35.73759,37.92908 31.27271,62.12541 111.7984,-22.05871 143.982,-54.72677 22.9996,-46.08201 79.7633,-103.00231 69.0382,-148.78055 -58.7281,-23.19099 -41.8515,50.80362 -38.6866,74.2578 -38.78,14.09911 -51.29159,61.6312 -91.74795,83.47286 14.39882,-34.34889 -63.34892,0.76536 -24.66319,-41.56453 35.50484,-38.65546 89.03084,-63.46187 104.07064,-116.86493 19.2191,-36.24197 67.2128,-48.801107 66.7967,-5.58663 29.7037,-43.729837 -13.6154,-139.0117264 63.3353,-153.511968 104.6504,-16.043756 208.8263,29.448816 313.7716,14.2106414 41.9907,6.9526184 85.4216,1.5442687 128.0233,3.2528866 0.055,124.98605 -0.2342,249.52881 -0.047,374.14349 -3.0243,44.52642 1.5276,90.40829 0.047,136.21119 v 351.64532 c -64.6382,-16.83243 -130.9896,-39.78763 -199.1251,-27.3662 -77.6614,15.26703 -114.4202,-73.7889 -191.3665,-52.06655 -48.247,-1.24927 -86.3802,-99.30013 -128.7949,-35.116 43.9459,57.86319 -80.093,35.54421 -110.40407,62.59026 -56.03786,24.56937 -99.95194,-23.1439 -54.08546,-70.47024 7.85097,-24.84854 -110.80243,-44.15716 -58.22335,-75.65637 9.9394,11.87309 20.87583,43.43483 26.49059,8.32966 -15.80491,-56.84025 78.42956,33.31906 97.04695,-30.10612 -33.70605,-4.41051 -64.05172,8.77646 -95.42742,-23.7988 -8.13503,32.29624 -63.73041,10.62192 -75.18165,33.31011 -54.72776,-20.92447 -112.60127,69.98036 -43.91581,80.48149 0.6675,34.49344 22.62975,30.90415 7.59527,69.16576 38.88306,-14.64098 51.3398,39.71367 19.32445,47.28498 -46.67962,39.91377 101.90213,-0.52473 43.81471,63.482 -48.59044,18.46332 -111.0055,23.62017 -99.94914,-44.20703 -66.04025,39.91284 7.01802,-75.11938 -64.81388,-44.44068 20.06499,-62.51276 26.589,-112.3765 51.06813,-173.581 31.19504,-43.12892 -67.60152,-39.06381 -28.76492,-53.05173 29.04752,7.24164 8.56506,-28.5443 33.07532,-10.89255 16.11143,-54.92203 -69.48344,-51.93551 -55.97227,4.07662 -31.86791,9.27307 -37.3945,29.13213 -29.96746,58.80856 -33.48045,-1.75063 -85.80374,1.0106 -111.79678,-19.9995 22.95873,-24.39671 -22.2108,-117.51846 -16.16884,-67.47351 4.7376,58.3557 -54.3961,-23.0462 -76.26023,31.53545 -45.06078,31.29108 -91.1002,75.30416 -128.41925,111.12146 -48.36939,21.50421 -96.95655,30.69051 -71.62279,-37.67268 -0.27865,-39.78048 80.47731,-48.82011 102.84031,-14.16771 28.16234,-66.20674 92.72684,-102.7626 132.30468,-150.75202 13.29789,-20.15372 -79.09482,-6.34922 -79.55339,29.32373 -28.73286,11.58143 -58.07104,26.85562 -67.57198,44.13224 -6.59726,-56.22282 -102.9704,-30.38756 -104.80119,28.57007 9.74394,50.96987 -130.426414,38.88836 -62.96322,-18.13755 21.27981,-60.65306 -37.23753,3.31475 -64.197599,-26.80729 -21.448502,11.56434 -70.824801,63.70851 -10.360699,42.37819 33.581708,-36.17744 68.678568,38.14825 14.105031,46.81862 -2.170724,-30.79868 -7.587596,-40.34735 -22.015761,-2.28432 28.193458,37.38892 99.766718,-26.14455 86.577708,36.37035 46.51681,-16.46643 61.86771,104.6476 6.20837,69.69844 7.67211,15.28665 12.02435,84.87359 48.94771,39.09666 43.31309,-15.50445 -14.64662,70.48995 36.17696,83.18357 58.42883,39.9547 -9.47973,49.12272 -42.90784,29.24663 -65.94033,33.12477 -66.33286,-35.32827 -99.3553,-65.22886 6.19658,39.54499 11.49042,92.10321 -52.007652,74.61425 -19.910646,-7.46057 -58.2862861,6.52958 -64.0654671,-17.34747 z M 769.37894,878.7639 c -4.92601,-16.70886 -16.79812,8.96103 0,0 z M 1539.8,838.8 c 6.0788,-14.90355 -15.9593,4.11499 0,0 z m -119.55,-16.46228 -2.4398,0.0477 z m 1.3877,-3.03333 c -7.9169,-4.35917 -2.9152,3.11768 0,0 z M 1588.8,818.8 c 6.6163,-25.42239 -27.1962,4.03477 0,0 z M 10.5,818 c 14.551755,-8.20063 -14.6372214,0.57748 0,0 z m 4.595708,-12.71561 c 12.010115,-23.75231 -21.6128368,6.30858 0,0 z M 946.75,761.67692 c 3.14548,-15.14962 -16.45824,10.19678 0,0 z m 18.677,-2.19839 c 3.7838,-7.97496 -8.38828,6.66009 0,0 z M 22.353944,754.35216 c 41.966207,-47.40404 -34.777748,-0.73519 -3.783883,3.98065 z M 988.247,751.81302 c 24.7269,-40.61461 55.832,-74.87243 107.8366,-59.66721 -4.8629,-66.39592 -82.4089,-47.85918 -90.8742,5.82561 -6.30733,12.87113 -71.6363,71.556 -16.9624,53.8416 z m -47.43836,-6.75233 c 30.73698,-8.06972 60.89516,-88.6479 9.19136,-40.58044 -2.0434,7.67799 -35.94993,46.31377 -9.19136,40.58044 z m -24.71345,-29.34586 c 11.2899,-18.98668 -17.93537,5.58269 0,0 z M 1120.9305,701.574 c 1.9587,-21.40642 -16.4205,10.35011 0,0 z m -173.00202,-3.03701 c 13.7928,-23.45479 -26.08936,2.9033 0,0 z M 301.8,690.8 c 9.20326,-17.40159 -14.37171,1.39887 0,0 z M 67.418213,672.39301 c 7.498571,-9.11996 -9.78554,0.54692 0,0 z M 1013.5163,659.85156 c 18.7126,-45.02738 -47.88519,11.94545 0,0 z m -3.7388,-45.40826 c 9.5348,-24.21818 -23.22396,3.80395 0,0 z m -423.64994,-1.10166 c 60.28817,-3.88868 9.91039,-61.00499 0,0 z m -22.54151,-24.29231 c 74.15945,-3.0232 -27.01861,-78.64088 -9.23158,-6.08526 l 3.48698,5.83418 z m 82.16687,-5.92393 c 34.56755,-57.08775 -73.72925,-3.12559 0,0 z M 1591,566 c 1.1769,-19.45434 -12.6259,9.54909 0,0 z M 234.68882,549.40208 c 36.0317,-30.85694 -25.12877,-25.56183 0,0 z m 103.65504,-8.40617 c 24.82021,-21.62401 -29.65759,9.47391 0,0 z M 75.32411,537.59777 c -0.846291,-8.97357 -4.443112,5.41499 0,0 z m 20.757481,-5.63994 c 31.936059,-30.51481 -43.172334,3.13768 0,0 z m 554.205539,-4.0707 c -6.81786,-3.09005 1.52416,7.2032 0,0 z M 222,524.08179 c 4.06822,-13.19998 -19.92479,8.43757 0,0 z m 13,-13.18878 c -5.70136,-7.26353 -2.96844,9.18375 0,0 z m -32.37133,-13.85269 c 92.45176,-19.22127 -72.11806,-65.21907 -35.88325,-12.4604 10.08019,6.55071 23.04713,17.4961 35.88325,12.4604 z m 51.85435,-8.02156 c 0.80283,-15.06102 -17.40594,10.1209 0,0 z m 16.18115,-7.58598 c -0.45747,-8.96762 -6.16286,5.82211 0,0 z m 152.78277,-12.34872 c 71.52296,-18.84497 -29.6486,-90.82345 -16.55846,-25.09206 2.60819,5.80112 4.08759,32.4735 16.55846,25.09206 z M 413.1327,392.84699 c 10.17273,-37.44801 -34.43292,-3.3254 0,0 z m -266.71449,-4.45398 c 1.70411,-17.59842 -19.63729,7.76983 0,0 z M 781,294 c -3.61658,-4.21481 -3.61658,4.21481 0,0 z m -13.62854,-6.07755 c 17.39416,-44.36514 -30.69888,-0.88246 0,0 z M 23.819551,283.23978 c -5.692071,-8.37081 -6.045581,9.52206 0,0 z m 764.597539,-4.20424 c 14.12026,-28.44781 -26.83001,6.52269 0,0 z M 207,231.5 c -2.39149,-5.52612 -2.39149,5.52612 0,0 z m 0.52639,-19.5427 c 11.76164,-29.58687 -11.6345,-0.50189 0,0 z m 20.3871,-15.1543 c 10.82195,-24.97513 -20.00754,18.0039 0,0 z M 247,196.49976 c 10.99166,-34.3906 -23.18442,6.56999 0,0 z m 1274.7028,-29.15503 c 24.2514,-44.73655 -53.8502,11.07038 0,0 z M 334.41821,99.393011 c 4.98113,-33.284421 -29.78273,3.062529 0,0 z m 498.72334,-7.102014 c 73.64937,12.227083 93.15686,-69.513777 9.44299,-58.947146 -47.6423,-19.096193 -32.50502,70.431709 -9.44299,58.947146 z m 85.4672,-0.81662 c -1.24404,-28.94247 -36.01549,-2.710276 0,0 z M 309.4349,92.024751 c 5.70143,-21.310233 -27.43586,2.562536 0,0 z m 696.344,-26.898225 c -9.57364,-10.765299 -4.8026,13.377782 0,0 z M 980.59996,52.172058 c 36.60184,-24.321875 -26.93817,1.052692 0,0 z M 482.60699,899.41821 c 6.57917,-44.57164 15.62706,-107.27328 -49.39071,-103.37486 -30.6602,-10.81237 -62.57494,-44.32599 -10.69308,-33.14384 42.06016,7.23765 135.91291,5.32835 133.44169,5.26566 20.54764,-0.53988 27.94248,-47.80788 50.98523,-21.6734 -37.10823,7.7952 -7.84578,20.95443 -48.58913,39.28374 -22.77859,33.4561 28.12652,56.67259 -3.95588,96.48705 -13.02901,44.18114 -41.21861,49.73259 -71.79812,17.15565 z M 1158,900.0348 c 54.0865,-26.094 -82.1436,-109.21142 15.6971,-98.3554 56.2332,13.70447 92.2684,57.58831 115.5046,105.61957 -26.5778,-0.85402 -127.355,18.02261 -131.2017,-7.26417 z m 160.5,0.2801 c 13.3998,-5.94048 10.6543,4.95809 0,0 z m 39,-0.3149 c 4.8162,-4.3756 4.8162,4.3756 0,0 z m 172.25,0.33772 2.4398,0.0477 z m 47.25,-0.14659 c 2.8892,-11.23425 10.8459,7.02457 0,0 z M 341,887.5 c 0.83252,-14.06787 11.50048,8.53554 0,0 z m 263.15092,-4.81815 c 0.9332,-16.60186 13.27193,5.35923 0,0 z M 860.04193,876.25 c -10.86717,-39.49396 38.3952,8.63925 0,0 z m -246.25132,-6.18251 c 16.72875,-19.69187 -4.979,20.2634 0,0 z m -260.13562,-6.89623 c -21.61745,-35.1655 35.68879,6.36163 0,0 z m 252.52546,-2.41104 c 5.36489,-10.13305 5.8955,8.53548 0,0 z m -264.99056,-17.0686 c -6.49078,-26.15761 20.9032,14.56474 0,0 z m 272.95898,2.57744 c -2.26844,-20.84381 -20.04537,-56.21204 15.61661,-28.13401 3.28462,14.09935 3.46836,33.4674 -15.61661,28.13401 z m -239.4822,-4.93573 c 3.08746,-16.58124 22.53892,-5.0112 0,0 z m 469.37229,-2.52189 c 0.61121,-31.77963 26.55426,4.79788 0,0 z m -555.55679,-37.7018 c -36.49349,-28.18355 37.59615,-85.77019 20.14044,-22.12503 -3.33154,6.6437 -8.94907,29.13936 -20.14044,22.12503 z m 332.85366,0.32314 c 0.33239,-9.70375 6.40693,5.72601 0,0 z M 639.5,802 c -32.36418,-19.35732 33.0248,-13.07824 0,0 z m 24,-13 c 3.61658,-4.21481 3.61658,4.21481 0,0 z M 640,779.5 c 5.74796,-22.16054 9.80212,9.27308 0,0 z m -450.25,-6.5801 c -0.74108,-24.93096 33.11506,0.0887 0,0 z m 451.93322,-12.95444 c -10.18874,-18.23705 19.07146,1.79148 0,0 z M 653.75,751.54697 c -10.51776,-27.42947 24.93816,17.91689 0,0 z M 257,751.05902 c 3.17862,-9.23162 6.26458,8.18904 0,0 z m 387,-14.93658 c 5.4371,-23.10027 8.0972,17.85016 0,0 z M 625.07308,711.7798 c -14.17035,-44.62384 24.62166,-19.69473 0,0 z M 378,711 c 3.61658,-4.21481 3.61658,4.21481 0,0 z m 93.5,-5.97448 C 406.65738,692.0708 451.87617,550.88537 498.40358,627.02264 485.64476,650.77314 522.51076,706.25818 471.5,705.02552 Z M 353,693.7 c 3.69903,-11.52838 9.35421,4.28348 0,0 z m 29.75,-2.27197 c -7.27677,-16.47111 19.61728,3.53497 0,0 z M 337,682.52305 c 6.59337,-14.85188 8.59439,5.53606 0,0 z m 436.65799,-6.19839 c -3.34011,-6.39328 7.54575,-0.21292 0,0 z M 810,661 c 2.41328,-3.92709 2.41328,3.92709 0,0 z m 29.69048,-0.64286 c -5.71456,-9.21121 10.52222,-1.13903 0,0 z M 219.38365,656.5574 c 0.48201,-15.56555 12.67956,7.00505 0,0 z m 182.07741,-2.62041 c 2.59635,-13.57007 11.55878,3.06665 0,0 z m -226.80307,-9.61233 c -2.05493,-5.26604 7.11924,0.22364 0,0 z M 328,586.10699 c 3.50744,-9.23618 5.60949,6.95362 0,0 z m 362,-21.03367 c 4.47555,-7.94708 4.70821,7.10845 0,0 z M 106.2,438.8 c -5.21751,-14.55755 12.60189,4.27471 0,0 z M 15.573984,397.29296 c 2.038948,-13.17715 5.493339,9.47521 0,0 z M 310.76377,377.95005 c -2.93394,-39.62717 49.77687,-12.33753 3.10958,5.70159 z M 84.964591,360.93384 c -3.802508,-20.56007 12.976612,7.63522 0,0 z m 207.538349,-1.92909 c -1.12438,-11.17404 8.37612,1.64026 0,0 z M 45.180449,338.76022 c 7.399639,-10.95046 7.261768,11.23887 0,0 z m 455.832061,-4.24514 c -11.73772,-25.81587 17.41642,-3.95575 0,0 z M 561.75,317.9199 c -13.53816,-31.65165 25.44744,-8.25983 0,0 z m -69.81352,-1.49643 c -6.26967,-67.01337 38.34666,-12.63108 0,0 z m -42.5727,-10.91785 c 0.20851,-11.21843 8.26199,4.43471 0,0 z m 120.30289,-8.17229 c -21.25041,-53.11351 33.75918,-20.57733 0,0 z m 310.74298,-0.70818 c 18.14193,-30.89995 40.85979,7.41669 0,0 z m -354.92928,-0.65691 c 0.74773,-8.16702 7.62923,4.50591 0,0 z M 480,295.03719 c -9.15876,-10.14274 15.28094,0.6892 0,0 z m 217.57143,-21.60862 c -5.89947,-18.06041 15.94049,4.02845 0,0 z m -570.22635,-0.9717 c -0.38213,-7.09818 5.5804,6.3425 0,0 z M 687.2,255.8 c -4.68826,-24.00996 20.09151,0.67509 0,0 z m 176.96104,-30.39976 c -38.06705,-14.13775 16.5979,-17.1006 0,0 z M 699.59522,198.83248 c -8.99522,-33.06418 23.37955,-5.50336 0,0 z m 346.91758,-21.81181 c 3.9868,-15.07042 21.8345,2.85652 0,0 z M 705.78766,163.90105 c -27.24323,-37.62212 14.76403,-61.35557 4.43583,-11.8395 0.624,1.49184 2.13106,13.99895 -4.43583,11.8395 z M 35.606989,156.41821 c -1.76723,-10.0956 7.563302,4.58939 0,0 z M 138.6875,149.35417 c -4.3345,-10.84683 11.42199,0.0807 0,0 z M 30.864481,146.75 c -18.253064,-55.4764 64.226467,-11.93012 0,0 z m 18.319097,-2.42288 c 6.511018,-10.86998 4.516675,9.7655 0,0 z m 105.471412,0.84414 c -2.87274,-16.37807 15.47003,6.06781 0,0 z M 180.50427,138.75 c -17.70434,-29.62925 22.05342,-5.05335 0,0 z M 65,129.65499 c 4.952583,-13.97361 11.246161,7.77892 0,0 z m 488.97773,-6.69863 c -31.34105,-40.138667 23.51791,-3.62283 0,0 z m -386.47812,0.65773 c -46.52634,-19.10423 29.05534,-1.22342 0,0 z M 22.209271,116.43403 c -8.339104,-9.80467 11.78042,1.78999 0,0 z m 37.492579,0.93449 c -0.149825,-12.26236 11.204481,3.94111 0,0 z M 90,90.532204 c 2.925167,-14.907841 12.13252,3.196621 0,0 z"
         sodipodi:nodetypes="ccccccccccccccccccccccccccccccccccccccccccccccccccccccccccccccccccccccccccccccccccccccccccccccccccccccccccccccccccccccccccccccccccccccccccccccccccccccccccccccccccccccccccccccccccccccccccccccccccccccccccccccccccccccccccccccccccccccccccccccccccccccccccccccccccccccccccccccccccccccccccccccccccccccccccccccccccccccccccccccccccccccccccccccccccccccccccccccccccccccccccccccccccccccccc" />
      <path
         id="path6521"
         style="display:inline;fill:#373b41;fill-opacity:1"
         d="M 10,894.58179 C 14.399684,856.41703 28.517541,795.86441 59.754158,856.85457 101.32698,907.96971 34.037328,914.02238 10,894.58179 Z m 136,3.86855 c -8.8766,-39.45334 -20.56226,-106.29882 41.43397,-88.17662 21.12136,-12.24065 55.15365,-28.76998 29.56603,7.82483 23.63562,48.91767 -24.67274,95.62703 -71,80.35179 z M 484.21157,899.25 C 463.0476,863.72842 529.66714,819.73043 514.014,879.04885 511.30307,891.18564 498.58937,909.04598 484.21157,899.25 Z M 503.8,881.8 c 8.14181,-15.19105 -11.45401,5.06156 0,0 z m 679.4148,16.45 c 18.9629,-25.94019 21.7335,-52.43336 13.0391,-58.00675 42.7594,10.43804 57.2087,84.82948 -13.0391,58.00675 z m -376.60959,-3.07976 c 10.12164,-25.76804 40.98172,-15.41399 0,0 z m 440.06149,-7.83691 c -3.6187,-17.91216 19.913,0.22746 0,0 z M 716.34925,870.5428 c 23.48833,-50.21414 -67.79783,-39.81136 -25.36103,-79.679 0.75154,-34.0248 3.91125,-102.92971 38.90754,-105.47212 -7.98053,43.5691 41.98253,47.56443 32.60351,89.57924 -3.05557,38.25416 72.82083,23.12218 31.71015,63.84615 -2.91734,-12.95404 -51.21829,-23.96107 -41.29831,0.53891 50.08059,-12.88282 -20.56098,34.34404 -36.56186,31.18682 z m 23.06597,-61.40563 c 32.91949,-40.24723 -73.30763,0.27555 0,0 z M 93.557987,861.75 c -22.651303,-41.53109 41.628883,-26.04164 0,0 z M 1587.8333,854.22921 c -57.5014,-3.65636 -112.1144,-30.54234 -170.8309,-20.92707 -73.6186,22.38926 -111.9966,-47.78593 -175.5528,-51.46668 -71.1123,28.71045 -117.8943,-115.70591 -176.3432,-34.04507 63.5906,61.422 -72.25591,24.17477 -98.2766,60.08624 -50.43023,18.84518 -63.96987,-28.52617 -12.53711,-38.41116 69.21771,-6.31498 100.88161,-92.4416 168.26071,-63.56501 -32.0655,-18.47553 -44.1871,-68.88435 -102.068,-65.127 -48.45327,-16.03583 -94.0987,16.25395 -133.92049,-19.45313 -46.95469,11.73184 -127.6128,57.0188 -163.73371,16.14499 25.74459,-34.92767 -60.95873,-24.69135 -21.95788,-36.5762 22.20069,-35.70219 22.26139,1.71362 30.72404,-21.88722 8.88117,-43.4828 -65.9642,-32.71464 -82.28236,-55.16876 -23.61366,96.83446 -60.58598,-44.53949 -114.68233,-39.47702 -38.43968,33.78988 -89.08297,91.53704 -125.56001,103.61541 -6.33292,-38.61756 78.39645,-58.32476 15.74288,-92.47169 -57.95586,-25.79871 44.1449,-48.68457 66.2372,-92.21478 49.47539,0.46744 98.52296,-44.29283 99.97869,-78.11825 105.39965,4.34364 -5.22491,-97.14603 13.23894,-145.10202 11.71847,-30.63894 8.99602,-101.053008 56.867,-50.3573 48.69453,34.59837 -8.62833,103.93426 -10.47075,152.26707 -10.37944,59.7015 86.34823,93.3315 76.30257,15.91891 -21.42204,-69.83416 38.42987,-4.11494 58.7986,9.88645 23.79177,-11.87645 27.35358,-72.48964 37.14435,-16.61461 13.45331,36.115 61.43645,30.05586 42.77095,67.09612 60.1618,39.0892 111.01553,-38.23273 150.94561,-74.69895 30.798,-48.71454 57.3643,-100.36566 84.8859,-150.99135 C 1123.9469,81.790786 1118.2388,-28.755058 1208.258,1.8835314 1281.669,-1.4481703 1355.0639,0.70081819 1429,0 c 31.0676,1.9545002 69.1063,-1.5718408 103.7316,0 19.417,5.0435525 61.9509,-10.332376 66.267,8.0499056 2.2791,122.2382644 0.045,244.1463544 0.9546,366.1088444 -3.0576,44.58756 1.5439,90.53927 0.047,136.40436 v 341.27798 l -5.9387,1.97886 z m -165.9434,-32.59653 c -1.5969,-10.52856 -9.887,7.69551 0,0 z M 1588.8,818.8 c 6.6163,-25.42239 -27.1962,4.03477 0,0 z M 1028.6939,632.35539 c -3.1742,-13.84322 -14.073,9.05222 0,0 z M 620,572.95203 c -3.23381,-19.99196 -17.16238,5.03423 0,0 z M 1591,566 c 1.1769,-19.45434 -12.6259,9.54909 0,0 z m -4.1918,-77.25447 c -4.8849,-4.70335 -2.6078,6.87954 0,0 z M 664.90122,178.44284 c 2.97666,-14.52838 -2.7397,-0.43008 -4.63732,3.21413 z m 857.14578,-11.4921 c 50.8151,4.45912 25.5031,-69.898259 -12.1689,-27.77366 -14.2789,7.70271 -4.7325,46.792 12.1689,27.77366 z M 1530,135 c -0.036,-10.77081 6.8654,6.60839 0,0 z M 506.56445,827.5 c -29.22413,-17.86282 41.90642,-13.7532 0.12473,0.16319 z m 15.9984,-6.08 c -6.8289,-16.20362 16.0775,4.08311 0,0 z M 89.729457,816.99136 c -58.58472,-3.32281 -19.588115,-75.20346 5.120646,-58.54133 2.896977,14.51054 14.697037,54.00625 -5.120646,58.54133 z M 475,809 C 432.37604,819.42398 377.75171,734.20388 447.57432,781.13475 452.18512,786.06584 500.04916,802.12896 475,809 Z m 49.36275,-9.49708 c 1.01204,-10.43202 9.14227,6.34497 0,0 z m -55.05341,-26.35657 c -13.43627,-18.38893 16.11268,3.19628 0,0 z M -11.260257,750.94098 c 3.4993865,-32.9732 3.8926609,47.22008 0,0 z m 77.788249,-1.50262 C 28.558945,773.54658 49.885354,665.70479 17.145436,727.16618 -15.300615,749.55887 5.2056118,672.52755 0,649.89819 v -82.96856 c 21.128046,-3.90054 102.48332,-32.74289 55.545656,12.07527 -55.13653159,6.90526 -29.279914,57.14378 12.433377,29.06359 54.995307,-15.43819 -57.624142,85.28852 19.690902,65.84485 41.089595,-50.69414 11.161422,42.8602 -1.508388,56.13445 -1.677689,9.40539 -7.248272,22.81172 -19.633555,19.39057 z m 107.416288,-38.9822 c -71.49547,-16.24816 70.02685,-32.76252 0,0 z m 297.67611,-6.92568 c -64.9199,-12.6173 -7.71283,-144.60296 8.46827,-73.62949 -14.64634,10.96336 16.56839,16.75164 -13.35084,29.5495 39.39591,-6.8022 43.08834,38.50575 4.88257,44.07999 z M 256.5,666.82289 c -47.52155,-26.7123 36.16433,-6.59104 0,0 z m 357.88478,-15.55064 c -30.30638,-25.19647 -87.56552,-22.72952 -72.50294,-52.54622 -10.47583,-33.89258 27.95574,-67.47425 30.50961,-10.64675 5.68945,18.52921 -2.96833,57.796 34.04314,28.02308 27.99724,-0.4812 56.99087,47.20328 7.95019,35.16989 z M 154.39858,632.56456 C 129.29752,582.33674 274.25282,525.50429 210.494,602.31821 196.66823,618.59647 177.11656,634.3177 154.39858,632.56456 Z M 173.075,609.725 c -4.05315,-2.36806 -0.48934,3.70317 0,0 z m 198.96018,7.34074 c 2.66125,-36.86306 33.31513,4.54078 0,0 z m 254.62851,-6.54491 c 13.72317,-45.60516 62.97398,-16.05808 0,0 z M 121.5,570.18045 C 113.93856,528.67308 87.000562,504.56175 55.206765,539.82993 -17.670311,565.11372 -25.157618,409.87778 25.991826,408.3845 c 53.053001,25.58746 92.068264,75.35836 150.737264,82.50467 52.0282,12.17411 44.20106,98.2489 -12.42562,70.45956 16.91912,-34.47251 -32.48318,15.32385 -42.80347,8.83172 z m 172,-25.27365 c -89.57997,5.05388 15.22165,-97.41273 -19.36896,-80.04039 -32.99052,-17.33944 -56.64837,-41.21644 -5.35226,-50.73637 43.20454,-22.91613 73.38084,25.53737 78.66797,66.55732 C 410.51921,509.2277 323.9654,546.92973 293.5,544.9068 Z M 219.66122,438.92672 c -3.7943,-14.22871 11.40614,5.15985 0,0 z M 216.04787,413.821 c 12.29853,-44.63163 97.22897,-23.99216 31.16657,-7.65888 -9.56328,4.89545 -20.16537,9.18521 -31.16657,7.65888 z m -14.08685,-12.36796 c 8.53251,-37.64435 39.66707,-6.47377 0,0 z M 103.83608,319.05641 C 62.331569,306.39482 -13.828753,287.06705 -0.50017273,303.81628 27.573254,223.82959 114.47064,331.83443 164.32758,277.3037 c 17.36512,-17.41406 87.94276,-38.86824 39.96352,-1.50342 -27.24842,25.48638 -63.17192,42.40274 -100.45502,43.25613 z M 46.819551,284.25 c -4.259869,-9.12052 -6.83094,9.61435 0,0 z m -23,-1.01022 c -5.692071,-8.37081 -6.045581,9.52206 0,0 z M 936.91357,269.10873 c -2.85488,-29.74022 52.56891,-73.9425 81.75573,-81.60306 -7.185,37.11218 -37.46719,85.90351 -81.75573,81.60306 z M 333.97115,233.55845 c -22.0633,-14.57502 -97.70549,-38.98189 -30.85531,-32.43751 55.68897,0.29371 30.46807,-29.56752 -8.44986,-22.77238 12.23123,-27.37218 -6.58312,-101.180497 43.57729,-57.61065 38.36364,-7.11059 23.06861,11.60443 26.43041,45.71896 18.93942,-7.87731 129.01468,-10.97451 85.85061,26.66724 -46.07059,-16.58909 -69.7322,10.88031 -98.79467,16.01104 -1.42984,9.76599 -6.18567,22.72292 -17.75847,24.4233 z M 900.75,190.30459 C 879.01248,170.28493 845.07331,186.39602 865.9752,141.57703 839.91606,88.374716 905.11621,80.492188 934.20294,99.468003 923.43098,85.226673 907.05666,62.43178 913.62029,33.226261 c -9.40356,-33.95144676 70.31231,58.586516 41.87406,-7.065703 33.66238,-32.727178 58.68735,6.640226 14.57114,28.693274 -31.34433,25.579255 -20.57857,71.288248 14.69656,40.308541 32.99775,-7.350002 32.47295,-47.813946 10.18507,-52.423897 13.23558,-31.962213 11.91048,-17.775755 34.87198,-17.343887 1.2736,-37.118718 64.3329,7.573238 21.2514,32.92256 -20.3183,64.891171 -86.60084,75.407341 -125.79458,118.013471 -8.30346,4.21767 -18.18718,6.60234 -24.52592,13.97397 z M 771.34998,143.14178 c -28.75366,-29.91747 -7.91151,-46.834263 9.26956,-3.11589 l -0.35575,4.87752 z M 342.5,117.70573 c -23.67003,-55.027213 26.63778,-32.797132 6.8553,2.12918 z m 439.75007,1.46999 c -1.27094,-9.35619 7.83342,3.18256 0,0 z M 681.36471,106.56471 C 714.69474,26.554296 578.58205,96.076963 626.12211,35.165441 574.16297,-12.156089 721.23469,1.1537522 652.28107,14.010694 607.17187,81.252526 726.76528,-5.1009675 712.26949,1.470279 692.7445,27.377885 703.72827,98.48046 681.36471,106.56471 Z M 285.00929,88.509891 c -4.00909,-18.79396 20.25537,4.296038 0,0 z m 500.60956,-4.033894 c -7.43349,-23.103303 15.04471,-4.125902 0,0 z m -16.60382,-5.936461 c -1.95034,-26.050244 18.35113,4.645357 0,0 z M 306.68975,76.484805 c -24.66313,-32.475535 16.39382,3.371124 0,0 z m 293.21829,-3.095611 c -10.17879,-29.643796 27.74135,-5.317571 0,0 z M 778.00977,61.549199 c 10.74705,-42.681187 31.20121,-13.958918 0,0 z M 796.1811,31.823384 c 1.9171,-8.86366 4.58839,6.168791 0,0 z m 1.2186,-23.5886968 c -14.31852,-17.5613921 22.89256,-2.3394359 0,0 z M 609.23832,3.8383206 c -1.91491,-11.3239448 13.56602,3.9109408 0,0 z"
         sodipodi:nodetypes="cccccccccccccccccccccccccccccccccccccccccccccccccccccccccccccccccccccccccccccccccccccccccccccccccccccccccccccccccccccccccccccccccccccccccccccccccccccccccccccccccccccccccccccccccccccccccccccccccccccccccccccccccccccccc" />
      <path
         id="path6519"
         style="fill:#1d1f21;fill-opacity:1"
         d="m 32,899.62443 c -2.239339,-91.49348 57.949763,12.7503 0,0 z m 1186.449,3.93534 c -32.7599,-45.92153 45.8447,-13.63258 0,0 z M 177,869.90576 c -72.17019,2.5964 -22.76385,-70.91385 17.78148,-58.71988 43.10678,-20.92911 -17.30823,27.83899 -4.85302,50.74562 -7.01454,2.61739 -10.21761,3.99456 -12.92846,7.97426 z m -29.58179,-13.51275 c 7.74213,-14.34251 -17.7152,-1.18944 0,0 z M 188.98469,848.75 c -1.6249,-4.99294 -2.12732,8.15644 0,0 z M 187.5,835.10899 c -4.05172,-9.75978 -7.17243,7.42197 0,0 z m 1395.5,16.2047 c -79.6865,-17.45486 -161.218,-18.82395 -238.7849,-23.89011 -46.4262,-39.4494 -97.2366,-61.28956 -161.1608,-59.67685 -62.1949,-6.18604 -12.1757,-77.69978 -71.2128,-76.12255 -42.285,-62.58971 -126.752,-62.67034 -191.10065,-52.49289 -54.05612,-42.53031 -129.48645,33.1927 -197.73649,12.64015 27.63983,-36.98452 -45.28287,-37.95304 1.11405,-64.17845 33.06016,-47.59696 -57.16107,-51.09045 -80.8297,-59.2661 -2.43123,44.9275 -34.12416,22.98272 -37.17532,37.79559 -25.99878,-20.73531 -64.78358,-28.08618 -55.71597,-53.14606 -16.70433,-75.97405 35.86891,9.70468 43.79986,11.9514 -21.06166,-56.1003 -62.03453,-102.47018 -103.13213,-143.87254 41.407,6.46502 93.61073,-36.07179 105.90251,-55.87747 79.19203,1.42785 25.75882,-99.20298 18.95565,-138.89018 -4.22865,-51.10308 63.09607,-51.04514 32.11719,-0.75744 0.57493,40.10967 3.18924,166.2766 63.44812,133.81587 19.05407,-29.75087 30.41784,-61.97616 58.76845,-19.90015 36.60634,11.32339 54.31117,-37.87889 71.90027,18.50127 20.23452,83.64714 108.76614,48.48092 144.87784,-5.97188 53.00612,-38.26973 66.54712,-104.67517 103.07242,-155.37744 42.2949,-51.48792 10.5865,-156.78533473 93.6716,-168.707981 76.0637,6.0752588 30.7002,-61.236104 -21.444,-58.795709 -34.3312,-0.667318 -62.5171,-29.62083 -10.7486,-33.6287 59.0629,-1.88059 119.6819,17.568973 180.0922,11.627914 53.3835,-19.411254 111.7418,-18.010384 155.0469,10.854355 31.8209,-16.643844 130.9802,-46.179469 61.2516,8.445143 -55.9365,44.115629 66.3523,13.563728 39.563,67.5405468 52.5373,31.6256492 47.6459,100.9925392 53.026,154.8917112 8.1931,180.68645 -35.9251,359.39756 -23.9272,540.23707 1.0965,53.95097 2.1728,107.94721 -0.018,161.8862 -11.2543,0.42902 -22.65,4.5367 -33.6208,0.36528 z m -61.3893,-683.87424 c 72.0557,-2.32147 23.0563,-71.321697 -21.6033,-41.82725 -12.6903,9.77441 4.328,59.25115 21.6033,41.82725 z M 732.75,836.9199 c -9.22722,-46.67222 79.14679,-29.48762 12.32422,-6.27157 l -6.29927,4.24576 z m -25.11789,-17.70614 c -55.31263,-19.40035 48.21148,-11.48092 3.4436,0.26754 z M 697,789.02418 c -25.62798,-42.15341 61.0545,-94.30517 30.40864,-24.32115 -49.2663,12.83048 54.86784,7.59353 -7.3752,20.28902 l -9.9108,1.42199 z M 1054.4727,778.25 c -12.0201,-39.11299 19.9588,12.29947 0,0 z m 1.9809,-14.93061 c -8.5389,-21.55497 18.15,-4.01854 0,0 z m -1.5721,-33.43855 c 13.5541,-43.21826 45.684,8.67356 0,0 z M 1113,717.63291 c -0.4799,-9.68155 15.5898,1.81961 0,0 z M 44.188561,709.96104 c -1.767115,-48.78506 79.909049,-22.98586 22.26537,-4.45989 -7.332157,1.44726 -14.35523,8.81106 -22.26537,4.45989 z M 1137.6994,708.04152 c 2.3969,-9.76738 2.3619,6.1503 0,0 z M 460.29928,692.75 c -39.41597,-46.64095 55.80028,-18.22902 0,0 z M 49.355787,660.50071 c 1.961823,-8.52156 2.434244,8.85787 0,0 z m 571.722023,-9.73053 c -38.0584,-35.40837 34.41405,-3.88008 0,0 z M 58.25,641.33772 c -7.07948,-20.27425 16.564316,-4.18476 0,0 z m 130.3105,-23.60505 c -19.51789,-43.70335 64.13665,-57.46903 0,0 z M 121.5,570.18045 C 113.97704,529.42582 87.480623,504.28557 55.904246,539.29051 -21.44392,560.13061 -41.047813,451.41242 0.40199668,407.75622 66.303778,394.19563 92.23303,490.6227 157.97586,477.59826 c 34.41638,23.15415 89.21111,80.00701 14.7976,82.36649 -15.74375,8.157 -33.3028,14.39379 -51.27346,10.2157 z m 351,-19.56198 c -79.87877,-9.80439 60.63747,-77.81956 -16.60483,-58.59987 -87.97857,-14.55249 40.25642,-75.69082 56.95129,-12.46971 27.94345,42.72232 14.9134,81.26438 -40.34646,71.06958 z m -179,-5.71167 c -87.4605,5.89644 9.88094,-116.96163 36.46374,-99.17665 23.4148,38.76293 64.80817,75.92711 -3.42886,93.40965 -10.50107,3.92365 -21.74374,6.58659 -33.03488,5.767 z m 84.54779,-4.66702 c -16.30984,-66.34074 61.23683,-5.92309 0,0 z m 20.28785,-65.571 c -30.93144,-25.30707 8.24508,-137.64036 21.59026,-106.40549 -51.54259,6.85443 5.54079,36.16629 -16.43483,61.75733 -2.64,11.65 14.17444,42.18724 -5.15543,44.64816 z M 415.75,415.73885 c -10.31994,-11.26886 17.45614,-2.93111 0,0 z m 34.28625,-68.67113 c -15.86754,-10.01871 10.24842,-0.15392 0,0 z M 446,338.96862 l 2.96704,-0.55705 z M 103.83608,319.05641 C 69.72694,317.41693 29.012001,277.58181 0.89647746,315.5884 3.9965216,238.05869 87.110756,298.7495 132.7374,289.85906 c 27.83159,8.65184 80.82346,-61.47013 81.21439,-25.78798 -44.84639,13.73066 -49.57968,58.33167 -110.11571,54.98533 z M 46.819551,284.25 c -4.259869,-9.12052 -6.83094,9.61435 0,0 z M 960.19495,240.5 c 1.36108,-4.57723 0.26513,6.38076 0,0 z m 14.39248,-0.0554 c -0.84576,-42.89 40.29867,-16.24913 0,0 z M 667.55044,202.75 c -10.29125,-37.26676 22.09767,-15.17518 0,0 z M 446.37892,190.56334 c -22.69231,-36.2562 34.43769,11.0677 0,0 z m -87.86615,-0.54267 c 5.02414,-20.01112 27.62792,2.5186 0,0 z m 38.36306,-2.84445 c -46.40541,-24.83522 79.0378,-17.78723 12.50144,0.0772 z M 450.5,164 c 1.31648,-3.7917 2.24454,3.87252 0,0 z m 3.5,0 c 3.43186,-4.15986 2.58643,4.07806 0,0 z m 484.5,-26.69922 c -33.47113,-17.02322 23.02346,-2.078 0,0 z M 635,130.5 c 3.61993,-5.89064 3.61993,5.89064 0,0 z M 936.46241,72.118425 c -57.66632,-6.58141 17.71567,-41.301012 0,0 z M 926.58936,43.5 c -1.73499,-22.46377 16.50728,5.155583 0,0 z"
         sodipodi:nodetypes="ccccccccccccccscccccccccccccccccccccccccccccssccccccccccccccccccccccccccccccccccccccccccccccccccccccccccccccccccccccccccccccccccccccccccccccccc" />
      <path
         id="path1663"
         style="fill:#e0e0e0;fill-opacity:1"
         d="m 279.09062,521.02776 c 5.76773,-14.75342 8.28757,10.30412 0,0 z m 25.58421,-21.20939 c 2.77153,-19.11699 11.13619,7.81483 0,0 z m 1114.59247,320.8777 c 6.3211,-12.94586 9.3365,9.87622 0,0 z m 165.3962,-2.92711 c -8.2374,-21.44574 21.6549,4.03821 0,0 z m -57.1123,-3.4939 c 2.8332,-7.0081 8.783,2.48464 0,0 z m -131.7939,-0.60284 c -1.2051,-10.24722 11.3381,2.96807 0,0 z m -60.6667,-6.83333 c 5.7717,-10.12093 6.1931,9.36224 0,0 z m -15.4577,-2.84541 c 4.8387,5.03629 -5.842,3.25624 0,0 z m 184.4577,-5.18597 c 4.0998,-7.53864 5.88,5.56562 0,0 z m 23.2278,-6.51154 c -12.1009,-17.39415 15.4568,-4.33379 0,0 z m -179.892,-24.5243 c 1.14,-9.33081 6.0213,5.6011 0,0 z m 107.7353,-1.30001 c -1.8348,-13.067 10.0978,5.60888 0,0 z m -153.9225,-0.38416 c -1.1459,-7.97741 11.8636,3.57627 0,0 z m -45.0339,-3.65659 c -3.327,-16.24551 12.5568,3.25637 0,0 z m -46.1147,-2.59202 c 4.6043,-10.53535 7.8486,9.47715 0,0 z m 130.7979,-4.86584 c -5.2688,-16.01842 17.6815,3.83562 0,0 z m 153.2531,-11.03881 c -0.7992,-16.17109 10.3169,8.28729 0,0 z m -256.051,-16.09535 c 7.642,-13.39208 7.4974,12.95893 0,0 z m 264.1949,0 c 1.09,-4.74912 0.5868,6.02352 0,0 z m -111.3293,-0.0114 c -13.4533,-29.5684 28.1909,2.57616 0,0 z m 108.2133,-1.07192 c 1.4435,-2.6633 0.4458,4.31151 0,0 z m -82.5502,-1.37025 c -1.2089,-15.13305 10.1104,5.78393 0,0 z m -143.9573,-5.61785 c -5.0058,-27.78767 25.5826,7.36957 0,0 z m -49.6503,-7.11955 c -10.053,-6.87389 8.7263,-4.78556 0,0 z m -77.7893,-2.86856 c -2.2318,-21.73479 20.2309,7.7404 0,0 z m 311.8682,-3.94047 c 3.3057,-8.4083 3.4516,8.76582 0,0 z m 60,-3.53138 c 5.3587,-9.88251 9.1258,8.91625 0,0 z m -173.5,-1.96862 c -4.0589,-9.04223 9.495,2.08317 0,0 z m 84.5625,-14.9375 c -5.6087,-13.78865 12.8238,3.51839 0,0 z m 51.0937,0.34126 c -3.0746,-15.02851 14.8635,4.27856 0,0 z m 63.5313,-4.04959 c -3.0597,-8.80182 8.0198,0.28483 0,0 z M 1179.491,675.798 c 2.1909,-13.3904 7.764,8.06126 0,0 z m 129.2871,-0.10494 c -2.9056,-7.84217 7.7153,0.88927 0,0 z m 141.5625,-0.85 c 0.4357,-8.25829 8.5859,4.02414 0,0 z m -157.5625,-6.15 c -3.0597,-8.80182 8.0198,0.28483 0,0 z m 67.3125,-1.16708 c 6.505,-14.96395 8.9889,3.69778 0,0 z m 176.0457,-6.63205 c -5.342,-18.68195 19.0727,4.05098 0,0 z m -385.0457,-5.55504 c 3.756,-7.06637 3.756,7.06637 0,0 z m 292.38,-3.45211 c 3.188,-23.23963 25.6969,3.42976 0,0 z m -263.13,-4.9586 c 2.7594,-8.22632 1.5901,6.63702 0,0 z m 73.13,0.9586 c 1.5703,-11.34023 8.8636,5.45629 0,0 z m -228.38,-15.53474 c -2.1845,-12.69018 17.0324,3.89282 0,0 z m 295.2,-1.21315 c -3.5176,-16.33392 11.1573,0.82348 0,0 z m 175.2237,-4.96059 c -12.4293,-41.60837 39.9227,13.55743 0,0 z m -207.0621,0.66059 c 0.9713,-12.99487 10.8798,7.25539 0,0 z m -121.8049,-1.72251 c -3.1196,-33.30072 20.8826,11.81224 0,0 z m -179.55668,-4.77749 c 4.29379,-10.34636 2.06601,9.8441 0,0 z m 558.69778,-0.78141 c -5.5685,-21.92857 21.3309,3.88852 0,0 z m -127.0229,-4.62349 c 2.4293,-7.31263 5.0983,2.78164 0,0 z m -412.4524,-1.1518 c -11.48308,-25.89294 28.6629,2.44647 0,0 z m 64.657,-0.80833 c -0.766,-16.23271 10.5034,6.94905 0,0 z m 292.1593,-0.56253 c -1.5006,-14.37786 10.8873,7.07397 0,0 z m -95.3055,-1.19653 c 5.369,-2.97942 -2.4366,3.0733 0,0 z m -359.72418,-1.36495 c -0.30226,-33.78308 24.02832,2.099 0,0 z m 542.99088,-1.04234 c 6.5415,-12.35401 7.3108,11.11079 0,0 z m 27,-4.04005 c 3.7169,-10.85939 7.9092,5.72316 0,0 z m -381.6115,-0.85843 c -0.3232,-11.62358 10.2642,4.79611 0,0 z m 197.9434,-5.14768 c 2.8984,-13.80872 11.343,8.18807 0,0 z m -439.00252,-1.00654 c -0.69866,-4.48642 9.94343,-0.59275 0,0 z m 398.35242,-0.0291 c 4.5434,-4.61272 3.9241,3.49637 0,0 z m -38.4318,-4.10528 c -5.9486,-9.37671 13.7094,-1.51546 0,0 z m 120.6724,-1.13654 c 7.008,-8.90672 -1.0215,7.66815 0,0 z m -504.54238,-4.59711 c 1.32802,-9.69322 5.54693,3.66259 0,0 z m 45.63531,-0.72834 c 1.98103,-9.13904 8.08758,4.19632 0,0 z m 93.05185,-5.24807 c -5.90457,-21.14699 22.26487,9.11088 0,0 z m 178.90692,-3.10274 c 1.5833,-12.01472 11.8768,6.27968 0,0 z M 932.66205,568.76746 c -5.27062,-14.44853 15.48053,3.06795 0,0 z m 127.70625,0.32143 c -5.5443,-18.22197 14.5027,1.67656 0,0 z m 111.7615,-1.5459 c -17.77,-14.95499 14.6045,-7.75287 0,0 z m 417.0617,-1.58246 c -1.2554,-18.18021 12.7585,5.28911 0,0 z m -183.4342,-1.28831 c -4.1745,-14.61673 9.7324,2.73668 0,0 z m 25,-3 c -4.4038,-9.46231 13.4946,-0.9392 0,0 z m -431.66668,-2.77431 c 0.51487,-4.89099 5.42978,4.94306 0,0 z m 126.61218,-2.12726 c -1.076,-11.39605 11.5723,5.89312 0,0 z m 131.5878,-1.63176 c -4.5364,-19.32765 17.5875,2.13699 0,0 z m 237,-5 c -5.33,-24.56431 20.4448,3.35075 0,0 z m 74.3447,-8.65912 c 0.4024,-13.85895 13.0448,6.24603 0,0 z M 170.09063,539.33889 c -3.6789,-2.9193 6.31198,1.27656 0,0 z m 892.07887,-0.58333 c 1.4435,-2.6633 0.4458,4.31151 0,0 z m 154.6711,-3.47301 c -5.0084,-20.37292 18.1138,4.86112 0,0 z m 102.5,0.35311 c -8.4064,-6.45806 13.9305,-3.60224 0,0 z m -481.22942,-1.41281 c -22.2558,-24.2238 31.51302,1.17461 0,0 z m 65.08039,-5.26232 c -0.39142,-20.70688 14.38828,5.11661 0,0 z m 70.02257,-3.97281 c 0.50307,-10.65032 9.26089,4.26138 0,0 z m 490.39596,-8.45862 c -0.2932,-6.2804 6.8909,5.28825 0,0 z m 76.4805,0.39519 c -28.1514,-37.15228 23.9625,-8.59379 0,0 z m -1401.24998,-0.6655 c -6.47725,-14.81968 12.91502,3.53609 0,0 z m 937.88948,0.3862 c -4.0511,-10.10177 8.0789,2.24168 0,0 z M 59.513845,513.9994 c -1.786694,-11.81705 9.780735,3.76077 0,0 z M 1417.3266,512.68444 c -14.9252,-28.37426 28.6981,-0.36973 0,0 z m -421.05553,-2.59555 c 7.66163,-9.0468 3.68559,8.60691 0,0 z m 247.81953,0.30902 c 1.7769,-6.78707 3.0916,5.40584 0,0 z m 132.3885,0.51112 c -0.3232,-11.62358 10.2642,4.79611 0,0 z m -135.3885,-0.51112 c 1.8976,-5.03541 3.1061,3.62658 0,0 z m 98.3229,-1.65994 c 2.4438,-9.84926 7.8525,5.76415 0,0 z m -160.9141,-2.90637 c 3.8879,-23.04747 16.3319,10.29489 0,0 z m -225.15878,-7.15499 c -4.76543,-10.305 14.11197,0.22222 0,0 z m -212,-1.05533 c -5.57311,-10.39678 10.0797,-1.99042 0,0 z M 47.313125,495.78219 c -8.13874,-32.55112 29.770669,2.36455 0,0 z m 984.334175,-4.66581 c -2.6977,-26.37059 23.7258,9.33225 0,0 z m 45.4433,-0.27749 c 5.4155,-9.09044 3.3761,8.3823 0,0 z m 415.2945,-1.94814 c 1.8493,-8.06846 6.1708,4.28474 0,0 z m 94.3979,0.0889 c 3.001,-6.37118 4.9799,4.12568 0,0 z m -662.69238,-2.64076 c 3.84426,-3.58521 2.56315,3.70389 0,0 z m -34.7532,-1.1532 c -0.88206,-11.59779 13.90931,2.2424 0,0 z m 115.75318,0.21222 c 2.3238,-4.33972 5.9736,3.74236 0,0 z m -246.99998,-3.05902 c 2.46629,-3.56228 1.20936,3.65615 0,0 z m 677.49998,-5 c -4.8802,-3.56692 7.9298,2.76853 0,0 z m -455.28941,-2.60496 c -1.57112,-4.54418 6.44584,3.0384 0,0 z m -125.21057,-1.19699 c 3.36284,-5.25475 2.36081,4.69622 0,0 z m -153.74999,-7.92869 c -4.30063,-10.5702 10.51239,-1.60705 0,0 z m 392.74997,-2.16237 c 4.2267,-9.03753 7.0565,6.86255 0,0 z m 457.25,0.86185 c -10.3301,-25.49709 20.9138,-1.32168 0,0 z m -98.6921,-1.74427 c -2.1862,-10.19577 11.7188,-0.12613 0,0 z m -299.7454,-0.90768 c 4.3835,-1.43244 0.4336,1.92488 0,0 z m -157.88054,-2.44406 c -1.17268,-18.83132 14.86484,13.40235 0,0 z m 294.06804,-0.76584 c 6.5117,-10.65175 5.6279,8.07331 0,0 z m 18.4824,0.23256 c -6.1733,-15.76473 17.0604,1.65659 0,0 z m 191.5176,-2.28053 c 4.3253,-15.03644 7.3397,12.35672 0,0 z m -455.345,-0.88776 c -7.8442,-23.85209 20.8532,5.63922 0,0 z m 126.9164,-2.74269 c -3.9596,-30.92152 24.6428,4.72973 0,0 z m 88.6511,-3.98527 c -8.7493,-29.20798 24.9364,1.91964 0,0 z m 100.812,-3.12652 c -3.3686,-21.08134 19.4576,9.95588 0,0 z m -513.93092,-4.19842 c -19.96268,-23.67996 43.01683,-2.65521 0,0 z m 717.26342,-0.48893 c 1.3091,-8.7717 6.8185,4.94335 0,0 z M 24.325415,438.17369 c 1.322048,-8.22425 7.791353,4.92478 0,0 z m 691.792855,-3.3015 c -1.1678,-15.27984 9.83819,7.6619 0,0 z m 673.31743,-1.07643 c 1.6514,-9.6797 8.9498,5.17587 0,0 z M 1199.141,431.1626 c -6.6961,-26.81866 27.943,1.63948 0,0 z m -461.78275,-5.12653 c 1.40659,-5.7534 4.37896,3.26543 0,0 z m 36.90116,-0.848 c 4.46861,-8.95216 4.59747,7.47574 0,0 z m 693.83119,-1.84918 c 2.5549,-3.58745 2.5549,3.58745 0,0 z m -571.81334,-3.25 c 8.15258,-13.26711 5.67763,12.32734 0,0 z m -327.76587,-2.23058 c -2.31827,-24.55528 18.80502,11.21919 0,0 z m 60.57924,-0.51942 c 7.15033,-11.28166 6.74887,10.30551 0,0 z m 162.99999,-3.89301 c 4.75144,-12.24914 6.65872,10.36417 0,0 z m 195.05456,-3.00507 c 3.45388,-14.75434 12.86252,8.66093 0,0 z m 122.69542,0.50603 c -6.4242,-19.07151 21.3677,1.22675 0,0 z m 365.3289,-1.27462 c -4.9352,-7.88358 4.5186,2.02364 0,0 z m -3.5789,-0.33333 c 2.4663,-3.56227 1.2094,3.65614 0,0 z m -145.25,-3.25 c 4.5429,-4.55454 4.5429,4.55454 0,0 z m 272.7138,-1.28856 c -4.6411,-11.64278 12.1826,4.11306 0,0 z m -358.7826,-2.63838 c 7.3977,-12.2606 4.7716,11.3964 0,0 z m -17.8717,-2.45898 c 2.301,-14.72303 10.4629,8.04314 0,0 z m -87.0318,-7.61408 c -5.3645,-20.42472 16.8929,2.21598 0,0 z m 283.1721,-1.0938 c 4.5454,-20.93307 14.3625,9.81554 0,0 z m -142.5513,-4.04258 c -7.659,-31.8181 33.6901,12.67891 0,0 z m -239.4578,2.29042 c 2.8191,-9.33005 6.7717,3.05318 0,0 z m -441.47629,-2.9706 c -2.01985,-20.48559 18.10048,8.24052 0,0 z m 842.74819,0.4458 c -3.2074,-17.48707 15.1888,2.93603 0,0 z m -374.0459,-1.04591 c -4.2789,-23.20781 19.5892,1.15393 0,0 z m -240.96544,-2.96543 c -3.8175,-11.01983 12.41136,0.5339 0,0 z m -200.06748,-11.2201 c -0.49964,-19.10342 17.54496,7.23128 0,0 z m 124.44519,-4.73113 c 1.44329,-2.66327 0.44609,4.31143 0,0 z m 429.12103,0.38333 c -4.8565,-17.54487 18.3319,0.11063 0,0 z m 214.811,-0.77948 c -13.5132,-35.76222 18.4265,-1.11097 0,0 z m -530.76098,-0.6828 c -5.19125,-10.1135 13.4103,-0.11319 0,0 z m 478.78978,-0.78973 c -2.2629,-16.17592 16.4174,5.12941 0,0 z m -96.8398,-3.74799 c -5.9957,-24.13384 23.7493,5.42108 0,0 z m -262.19997,-1.74098 c -9.02354,-3.66744 7.77322,-7.31908 0,0 z m 383.66667,-1.72569 c -4.1745,-14.61673 9.7324,2.73668 0,0 z m -266.2949,-2.98811 c 2.0452,-20.00985 17.0654,11.23744 0,0 z m -316.12178,-0.0119 c -4.05085,-7.17598 9.22148,0.74139 0,0 z m 255.99308,-5.86699 c -8.0562,-27.18886 20.098,7.29113 0,0 z m -229.79693,-0.55347 c 0.46998,-6.87881 5.58727,3.90417 0,0 z m 473.22053,-0.57953 c -2.0394,-14.01159 17.1329,1.37148 0,0 z m -135.1667,-2.33333 c 2.4663,-3.56227 1.2094,3.65614 0,0 z m 322.2255,0.39219 c -0.4478,-12.52812 10.5928,5.44071 0,0 z m 26.7268,-3.03821 c -4.2491,-23.9531 23.8551,5.93838 0,0 z m -42.2523,0.44602 c -5.33,-24.56431 20.4448,3.35075 0,0 z m -630.19998,-6.24098 c 2.54492,-6.73941 5.24328,5.30971 0,0 z m -34,-5 c 3.30809,-7.25714 -3.32391,-4.61135 0,-2.6e-4 z m 489.24998,-3.26225 c -8.4064,-6.45806 13.9305,-3.60224 0,0 z m -131.7648,-11.36393 c 5.3052,-21.20767 12.7793,12.19059 0,0 z m -121.756,-5.53701 c -4.2345,-14.1202 12.4095,-0.94988 0,0 z m 397.7903,-2.20562 c -0.2932,-6.2804 6.8909,5.28825 0,0 z m -320.8654,-2.64919 c -0.2963,-16.2412 12.0616,5.46403 0,0 z m 166.5459,0.25898 c -4.9497,-14.15555 13.842,3.29027 0,0 z m 108.036,-1.45445 c -14.9252,-28.37426 28.6981,-0.36973 0,0 z m -149.1571,-3.92888 c 1.4435,-2.6633 0.4458,4.31151 0,0 z m -160.3289,-11.106 c -7.2929,-11.83886 11.3454,1.59522 0,0 z m 123.9697,-2.27465 c 2.832,-16.07216 14.0753,9.26419 0,0 z m 260.5748,-6.48416 c 1.8493,-8.06846 6.1708,4.28474 0,0 z m -410.0445,-3.04769 c -4.0024,-11.87933 9.8344,4.12375 0,0 z m 75,-4.2125 c -4.6352,-6.08098 7.4063,-0.65601 0,0 z m 128.3462,-0.5977 c -5.8776,-14.14797 14.9088,1.44197 0,0 z m 149.9038,-3.69397 c -4.8802,-3.56692 7.9298,2.76853 0,0 z m -172.8005,-6.34068 c -0.2826,-8.80388 3.0656,5.03218 0,0 z m 2.3005,-1.65932 c 2.4139,-6.95128 2.4139,6.95128 0,0 z m 187.5579,-6.77543 c -2.1862,-10.19577 11.7188,-0.12613 0,0 z m -145.3702,-3.80565 c -8.537,-19.7387 18.4984,0.42264 0,0 z m 191.8123,-2.3599 c 4.3253,-15.03644 7.3397,12.35672 0,0 z m 50,-0.059 c 0.3278,-11.9956 8.9012,6.36053 0,0 z m 36,-4.5 c 5.1823,-5.45469 5.1823,5.45469 0,0 z m -376.25,-1.69059 c -4.4241,-12.63078 14.627,5.80869 0,0 z m -68.5,-2.47169 c -5.6411,-15.84465 15.6407,1.24545 0,0 z m 219.7845,-2.02094 c -3.3686,-21.08134 19.4576,9.95588 0,0 z m -96.0345,-7.35013 c 4.8076,-5.5296 6.2316,6.30166 0,0 z m 376.646,-1.41892 c -6.9527,-20.89525 13.7616,2.68514 0,0 z m -251.3009,-3.09088 c 1.6514,-9.6797 8.9498,5.17587 0,0 z m 78.6549,-10.45687 c 2.5549,-3.58745 2.5549,3.58745 0,0 z m -214,-5 c 6.7139,-12.42966 6.9238,12.10514 0,0 z m -49.3651,-6.07258 c -8.9621,-24.88172 25.0364,3.9212 0,0 z m 117.444,-0.17742 c 5.2678,-16.50288 14.1772,-0.56311 0,0 z m 153,-2.41667 c -4.9352,-7.88358 4.5186,2.02364 0,0 z m -3.5789,-0.33333 c 2.4663,-3.56227 1.2094,3.65614 0,0 z m -306.089,-1.37145 c -0.9883,-16.24567 14.0353,4.2111 0,0 z m 358.589,-16.12855 c 5.1411,-11.52737 3.4054,11.8714 0,0 z m -53.3333,-3.16667 c -6.5188,-18.45014 22.8881,0.32936 0,0 z m -152.5878,-17.08333 c 3.3979,-7.27645 3.5361,4.43098 0,0 z m -139.8289,0.10622 c -7.4557,-17.11006 18.0283,-1.81811 0,0 z m 236.75,-4.74923 c 0.4557,-2.68502 5.9133,0.89618 0,0 z m -34.6126,-4.13847 c -2.3013,-26.09934 17.5318,7.95561 0,0 z m -178.3874,-1.4095 c 1.7769,-6.78707 3.0916,5.40584 0,0 z m 3,-0.61804 c 2.987,-7.161 1.7851,8.55598 0,0 z m 271.75,-8.67189 c -6.2577,-26.84426 30.2323,3.92172 0,0 z m -173.0833,-10.43576 c -4.3689,-12.02376 15.3241,0.24585 0,0 z m 54.0833,-4.41343 c -5.5917,-28.78671 26.2851,-12.64326 0,0 z m -115.5,-2.58218 c -6.3961,-23.12038 24.4766,-1.2266 0,0 z m 275.9938,-2.00208 c -2.0846,-5.91903 6.9718,2.19254 0,0 z m -236.5771,-2.00231 c -2.3169,-19.28406 13.2497,1.50251 0,0 z m 121.3333,-4.33333 c 3.756,-7.06637 3.756,7.06637 0,0 z m 122,-11.81719 c 8.0308,-17.630622 11.2931,12.68957 0,0 z m -82.7839,-4.02807 c -2.3383,-9.238093 9.1851,2.78559 0,0 z m -115.7161,-1.15474 c 2.4663,-3.562275 1.2094,3.65614 0,0 z m 99.7,-7.200001 c -6.104,-18.918359 17.1744,2.877867 0,0 z m -85.2,-4.8 c 5.2321,-9.952556 5.096,9.43253 0,0 z m 218.6817,-4.651638 c -2.0473,-7.709042 11.105,1.257944 0,0 z M 1180.421,80.088889 c -16.9752,-48.45668 42.8208,-2.866818 0,0 z m 249.6696,-3.411808 c 4.4834,-7.664626 4.3245,7.846041 0,0 z m 78.2,-19.538192 c -7.3039,-20.001763 13.7485,6.512005 0,0 z m -111.0233,-8.467134 c 3.4576,-6.978939 3.5506,6.137003 0,0 z m -43.6767,-1.332866 c -5.57,-12.38702 9.6726,1.311507 0,0 z m -192.75,-2.695548 c -5.9846,-7.836942 10.5987,-0.480253 0,0 z m 314.6505,-3.844747 c 5.0614,-20.87832 15.1969,10.560818 0,0 z m -228.6505,-3.149031 c -6.8686,-11.564776 11.724,-0.575991 0,0 z m -28.3416,-8.68888 c 0.3347,-9.70742 8.5345,4.137571 0,0 z M 1600.5906,21.889 c -4.8247,-8.342212 8.2079,0.84859 0,0 z m -419.8832,-2.10637 c -1.7908,-6.560225 7.5813,1.828853 0,0 z M 1434.0906,7.33889 c -8.5065,-22.20188 21.7999,2.97723 0,0 z M 1298.4334,2.6628 c -2.2101,-10.0171978 10.6014,3.6809027 0,0 z M 1204.823,1.42342 c 2.926,-6.6137954 8.2312,4.4302283 0,0 z"
         sodipodi:nodetypes="cccccccccccccccccccccccccccccccccccccccccccccccccccccccccccccccccccccccccccccccccccccccccccccccccccccccccccccccccccccccccccccccccccccccccccccccccccccccccccccccccccccccccccccccccccccccccccccccccccccccccccccccccccccccccccccccccccccccccccccccccccccccccccccccccccccccccccccccccccccccccccccccccccccccccccccccccccccccccccccccccccccccccccccccccccccccsccccccccccccccccccccccccccccccccccccccccccccccccccccccccccccccccccccccccccccccccccccccccccccccccccccccccccccccccccccccccccccccccccccccccccccc" />
      <g
         id="g12919">
        <path
           style="fill:#b4b7b4;fill-opacity:1"
           d="m 391.6526,485 c 0.0839,-5.225 0.47282,-12.27537 0.86422,-15.66748 0.51146,-4.43269 0.29468,-7.38614 -0.77068,-10.5 -0.81527,-2.38289 -2.53657,-7.70752 -3.82512,-11.83252 -1.28855,-4.125 -3.09155,-8.4 -4.00667,-9.5 C 380.21616,433.05467 374,406.17087 374,394.62217 c 0,-6.99324 0.0979,-7.29757 7.11981,-22.12468 1.74489,-3.68444 1.78259,-4.43939 0.47445,-9.5 -3.15366,-12.8129 -16.862,-12.16786 -21.25398,-18.99749 -1.20911,-1.925 -3.26518,-4.85 -4.56904,-6.5 -1.30387,-1.65 -3.88068,-5.3983 -5.72625,-8.32955 -4.5941,-7.29666 -5.18363,-15.8512 -2.05027,-29.7512 2.11263,-9.37189 2.50018,-10.17636 7.02321,-14.57853 l 4.7872,-4.65928 7.34743,0.0515 c 6.92897,0.0486 16.00393,2.15488 21.76478,5.05155 1.32954,0.66851 4.00162,3.69048 5.93796,6.71548 1.93634,3.025 4.57003,6.32723 5.85264,7.3383 5.30978,4.18562 6.08953,8.53202 4.07284,22.70248 -0.93913,6.59889 -0.85066,8.00971 0.70835,11.29506 1.94497,4.09872 9.12807,9.66416 12.47316,9.66416 3.31095,0 8.2393,-2.42513 11.89347,-5.85251 14.19664,-5.98072 14.65914,-5.38349 30.20606,10.09749 1.341,2.05974 5.39455,6.21325 9.00789,9.23003 4.27247,3.56709 7.37691,7.15299 8.87814,10.25502 1.26963,2.62349 4.67999,6.86131 7.57857,9.4174 l 5.27015,4.64743 c 42.68285,32.54755 30.84381,31.14779 67.63924,55.49123 19.10795,12.6416 38.62323,58.56354 38.8917,110.43676 14.66764,27.50678 27.63647,43.50167 -11.14298,9.25465 -20.39177,-62.48785 -40.80127,-43.68211 -29.20692,17.57491 2.77125,14.64147 3.09992,9.33844 2.96572,22.68826 -0.15804,15.72112 5.28739,31.94973 -7.6464,39.83053 -27.74119,-1.05202 -13.03694,-22.09828 -14.85545,-36.12726 -2.07944,-12.33198 -8.84711,-46.59495 -11.80996,-56.5945 -26.19223,-130.87435 -125.32699,-128.8819 -116.13175,-34.83627 -0.3816,2.74276 -1.50713,6.78683 -2.50119,8.98683 -0.99406,2.2 -2.76684,6.23187 -3.93952,8.95971 -1.17267,2.72784 -3.113,5.87784 -4.31184,7 -6.42625,6.01521 -10.31382,8.56309 -15.25928,10.00077 -4.92462,1.43163 -5.78139,1.43913 -8.42174,0.0738 C 356.8916,513.95616 390.87048,507.08557 391.6526,485 Z m 36.11774,-51.81064 c -1.46056,-0.56255 16.67966,-4.36044 11.72966,-7.11685 -4.95,-2.75641 -9.67858,-5.02534 -10.50796,-5.04208 -0.82937,-0.0167 -3.55089,-1.11797 -6.04782,-2.44719 -6.47711,-3.44803 -11.03024,-4.10724 -14.82274,-2.14606 -3.6443,1.88454 -3.82849,3.39014 -1.59367,13.02649 1.40593,6.06228 2.47602,24.3092 3.52214,34.23337 8.75488,-18.90977 -2.92205,-39.63955 17.72039,-30.50768 z m 47.53951,-55.18932 c 2.61912,-5.04639 2.54976,-5.69053 -1.19673,-11.11441 -2.34503,-3.39495 -5.60604,-6.49446 -8.82253,-8.38559 -14.67125,-11.38243 -25.72668,-9.08891 -21.4983,10.38732 0.58652,2.53698 0.70024,4.98813 0.25272,5.44702 -1.47933,1.51687 -12.87611,2.05072 -14.52715,0.68048 -2.1127,-1.75339 -1.89386,-5.72135 0.48214,-8.74195 2.42781,-3.08647 2.51033,-4.61969 0.36411,-6.7659 -1.51451,-1.51452 -1.87344,-1.40565 -4.8377,1.46743 -1.76099,1.70682 -4.14922,4.78901 -5.30717,6.84931 l -2.10537,3.74599 2.35108,6.72837 c 1.29309,3.7006 3.74247,8.31308 5.44306,10.24994 1.94056,2.21017 3.09199,4.60503 3.09199,6.43102 0,1.60137 1.04291,4.12189 2.31966,5.60621 2.17884,2.53305 2.49528,2.61232 5.21267,1.30576 4.3568,-2.09481 7.01439,-6.89504 8.4438,-15.25146 1.83537,-10.72966 3.70243,-10.95632 12.58294,-1.52759 21.85283,-1.16207 14.58581,-0.75877 17.75078,-7.11195 z"
           id="path12925"
           sodipodi:nodetypes="cssssssccsssscsssssssccssscsccssccccsssscccssssscccsccssssscssssssscc" />
        <path
           style="fill:#373b41;fill-opacity:1"
           d="m 600.17271,531.86819 c 3.11556,39.50279 36.59912,36.99627 26.5153,50.81714 -5.05733,6.62547 -7.04425,8.16474 -9.65791,7.48199 -3.87598,-1.01251 -9.52051,-6.0986 -12.40379,-7.66491 -23.30233,-16.03412 -19.73845,-0.58928 -24.91727,-40.20917 -8.78221,-15.56839 -15.01533,-34.02266 -18.35155,-41.88169 -1.1,-2.15759 -7.04276,15.95507 -7.04276,14.53499 0,-1.42008 -2.51466,-9.53743 -5.58813,-18.03856 -3.07348,-8.50113 -6.11098,-17.27005 -6.75,-19.48648 -0.63903,-2.21643 -2.11827,-5.2433 -3.28721,-6.72637 -2.53301,-3.21374 -4.8709,-11.64751 -3.58517,-12.93324 1.01508,-1.01508 8.0326,4.57645 13.41564,10.68949 3.82327,4.34176 6.14569,8.46206 7.16315,12.70844 0.35693,1.48965 2.97751,5.50648 5.82351,8.92629 5.4271,6.52133 9.0858,15.96232 8.12788,20.97338 -0.61806,3.23313 3.35836,13.66083 6.35018,16.65265 2.931,2.931 7.16773,2.35246 12.00795,-1.63973 3.72994,-3.07643 4.37419,-8.18602 1.68729,-13.38192 -1.34575,-2.60239 -1.4458,-3.96433 -0.56567,-7.70034 0.58809,-2.49632 0.96128,-7.94995 0.82933,-12.11916 -0.19479,-6.15454 -0.74673,-8.44521 -2.93433,-12.17807 -3.34078,-20.74983 -17.01094,-22.87187 -30.18576,-38.74157 -4.47675,-5.225 -9.12756,-10.92628 -10.33512,-12.66952 -1.20757,-1.74324 -4.93309,-5.03813 -8.27894,-7.32199 -5.51545,-3.76481 -6.47135,-4.08863 -10.23922,-3.4686 -5.84239,0.96141 -10.73623,3.11982 -13.65584,6.02287 -1.375,1.3672 -4.06429,3.4981 -5.9762,4.73533 -4.48885,2.9048 -8.0238,8.19388 -8.0238,12.0054 0,1.65425 -1.08691,4.43274 -2.41536,6.17443 -2.57432,3.3751 -2.88955,4.40603 -2.70312,8.84036 0.088,2.09353 1.98706,4.6651 7.38476,10 4.62503,4.5712 8.48068,9.54444 10.60717,13.68172 1.83748,3.575 4.19227,7.30467 5.23286,8.28816 5.20681,4.92109 9.85576,20.41783 10.86337,36.21184 0.94391,14.79555 -1.43175,28.93963 -3.29553,19.62074 -28.56019,-139.65696 -125.19263,-119.18097 -116.17438,-35.60757 -0.3816,2.74276 -1.51599,6.78683 -2.52088,8.98683 -1.00488,2.2 -2.53007,5.72773 -3.3893,7.83939 -2.85409,7.01429 -11.99984,15.85154 -18.16725,17.55444 -3.08545,0.85193 -3.79645,0.65173 -6.52004,-1.83589 -3.87312,-3.53754 -4.8743,-9.27763 -2.43944,-13.98612 1.57271,-3.04129 1.57339,-3.37428 0.0104,-5.10136 -1.56343,-1.72756 -1.5603,-2.10117 0.0481,-5.74674 0.99745,-2.26077 3.03506,-4.61852 4.84944,-5.61136 5.63936,-3.08592 8.88782,-6.51528 8.30018,-8.76242 -0.29695,-1.13552 -0.0276,-3.25379 0.59849,-4.70726 0.62612,-1.45347 1.22779,-6.91768 1.33705,-12.14268 0.10925,-5.225 0.51887,-12.27537 0.91027,-15.66748 0.51146,-4.43269 0.29468,-7.38614 -0.77068,-10.5 -5.80727,-16.97363 -6.19445,-18.70382 -4.95356,-22.13547 1.41749,-3.91998 1.60937,-17.50963 0.29601,-20.96403 -0.50127,-1.31845 -1.03054,-4.38525 -1.17615,-6.8151 -0.14561,-2.42986 -0.58082,-4.86792 -0.96714,-5.41792 -0.38631,-0.55 -0.99599,-4.15 -1.35483,-8 -1.16419,-12.49045 -1.69065,-14.71344 -3.60293,-15.21351 -1.48823,-0.38918 -1.64669,-0.98817 -0.92611,-3.5007 0.47814,-1.66715 1.55889,-4.08358 2.40168,-5.36984 1.27619,-1.94771 1.34579,-3.22275 0.41631,-7.62731 -1.42754,-6.7648 -7.10119,-12.60494 -14.37127,-14.79299 -3.76904,-1.13436 -5.50053,-2.34112 -7.16787,-4.99565 -1.20911,-1.925 -3.26518,-4.85 -4.56904,-6.5 -1.30387,-1.65 -3.88068,-5.3983 -5.72625,-8.32955 -4.5941,-7.29666 -5.18363,-15.8512 -2.05027,-29.7512 2.12813,-9.44063 2.4745,-10.15129 7.17858,-14.72829 4.1235,-4.01209 5.47155,-4.75782 8.13463,-4.5 2.57424,0.24923 3.24942,0.8009 3.48835,2.85029 0.30551,2.6202 -4.27168,11.95875 -5.86142,11.95875 -1.49623,0 -4.93483,7.7166 -4.93483,11.07429 0,2.42648 0.9803,4.06184 4.25,7.08994 14.19236,9.84571 16.9996,9.81149 26.46839,6.64056 4.32051,-0.27909 5.10492,0.89456 7.7665,-3.07748 2.75588,-4.11277 4.27662,-7.23577 7.71347,-6.60466 1.99371,0.3661 2.69778,2.41661 3.18195,2.88548 0.50617,0.49018 0.33778,4.19331 -0.3962,8.71296 -1.15328,7.10165 -1.10453,8.22289 0.50502,11.61475 2.00622,4.22781 9.17643,9.67547 12.69105,9.6422 2.99133,-0.0283 9.92356,-3.18223 11.69226,-5.31956 9.25427,-5.98778 8.50835,-3.60799 20.56746,1.34152 0.62146,0 3.36422,2.31562 6.09501,5.14581 2.7308,2.8302 7.32759,7.39744 10.21509,10.14942 2.8875,2.75199 5.25,5.61137 5.25,6.35419 0,1.79876 -0.68789,1.70553 -3.84563,-0.52117 -1.4599,-1.02947 -4.9664,-3.03647 -7.79222,-4.46002 -2.82582,-1.42354 -6.68598,-4.3969 -8.57814,-6.60747 -5.95882,-6.96154 -13.58848,-8.87075 -18.47825,-4.62391 -2.45622,2.13327 -2.65003,2.69219 -1.55576,4.48643 1.64313,2.69418 1.5812,4.07672 -0.18261,4.07672 -0.78794,0 -1.74664,1.0125 -2.13045,2.25 -0.38381,1.2375 -2.44915,4.16331 -4.58965,6.50181 -2.1405,2.3385 -4.36573,5.29194 -4.94496,6.5632 -0.57923,1.27127 -2.59421,3.14132 -4.47774,4.15566 -1.88352,1.01435 -3.42459,2.22341 -3.42459,2.6868 0,0.46339 -2.01344,0.84253 -4.47432,0.84253 -3.98367,0 -4.64858,0.33698 -6.06342,3.07299 -2.38391,4.60996 -1.13248,8.07113 4.53968,12.5558 2.69295,2.12916 5.3575,5.14238 5.92123,6.69603 1.2464,3.43513 5.33102,8.41029 9.32431,11.3572 2.3747,1.75245 3.40396,1.97829 5.22817,1.14712 2.94671,-1.34261 6.28382,0.36432 7.10444,3.63393 1.04567,4.1663 9.03841,5.97871 11.18784,2.53693 1.7486,-2.79996 5.64497,-2.54497 7.64011,0.5 1.43786,2.19445 2.35208,2.5 7.48015,2.5 4.26561,0 6.50694,0.52297 8.30587,1.93801 1.35508,1.06591 3.77827,2.21334 5.38486,2.54985 1.60659,0.33652 5.22489,1.33765 8.04065,2.22474 l 5.11957,1.6129 7.88043,-4.45315 c 9.12834,-5.15833 21.89618,-11.44568 25.0794,-12.35002 2.91635,-0.82852 1.96564,-3.095 -1.85727,-4.42767 -1.64887,-0.5748 -5.77529,-3.71573 -9.16982,-6.97986 -3.39453,-3.26412 -8.72792,-8.02949 -11.85196,-10.5897 -4.38203,-3.59115 -5.58447,-5.15428 -5.26168,-6.84002 9.47277,9.64772 40.47382,25.1993 68.64975,54.31314 22.72713,23.48365 36.5349,55.41583 39.65045,94.91862 z M 459.78435,443.20856 c -2.19185,-1.1766 -42.67752,-27.31127 -45.9866,-28.25913 -4.97383,-1.42471 -6.23029,-1.49454 -7.25,-0.40293 -1.65554,1.77226 3.26011,48.77131 5.10851,56.74143 10.91422,-5.04316 33.20549,-16.57956 48.12809,-28.07937 z m -57.17838,-82.17567 c 7.21556,-3.39197 10.7083,-6.36309 10.7083,-9.10906 0,-2.28326 -2.89545,-5.97248 -4.68744,-5.97248 -2.14746,0 -8.34319,-6.13755 -9.85973,-9.76713 -0.79906,-1.91241 -1.45283,-5.1956 -1.45283,-7.29598 0,-2.10037 -0.4128,-4.07398 -0.91732,-4.38579 -0.50453,-0.31182 -3.72905,2.59675 -7.1656,6.46349 -3.43655,3.86674 -7.29876,7.29409 -8.58268,7.61633 -3.39553,0.85222 -2.87332,3.17877 1.65101,7.35561 2.26152,2.08782 4.6592,5.58992 5.54312,8.09639 1.41464,4.01139 5.79041,9.54042 7.76317,9.80921 0.43544,0.0593 3.58544,-1.20544 7,-2.81059 z m 149.69096,275.03828 c -14.48411,0.75787 -13.77347,-0.77861 -12.1779,-27.80853 -1.6826,-21.32295 -8.13916,-32.91617 -12.35603,-52.57878 -1.61547,-15.67091 17.51737,-17.17469 24.0389,-11.23518 4.80764,50.97379 8.02001,33.85693 6.37608,52.2245 0.21672,15.12893 2.26971,34.48253 -5.88105,39.39799 z M 359.54719,308.7595 c 2.0107,0 18.66403,17.7313 36.40584,-0.80667 -10.77052,17.47105 -24.24322,12.26403 -36.40584,0.80667 z m 10.61974,-27.24248 c 1.28327,-0.68678 8.50535,0.1363 15.42753,3.92574 6.92217,3.7894 7.93824,7.68999 17.49687,17.69881 -6.99726,-5.94578 -13.38228,-13.0628 -18.33623,-16.20399 -4.95394,-3.1412 -9.21419,-4.08671 -14.58817,-5.42056 z"
           id="path12923"
           sodipodi:nodetypes="zcscccssssssssssssssccssssssssssssccssssssssssssssssssssssssssssssssccssssssccssssssssssssssssssssssssssscssssscszcssccssssssssssssccccccccccscsc" />
        <path
           style="fill:#1d1f21;fill-opacity:1"
           d="m 599.78369,543.29546 c 3.01382,17.57488 8.80085,24.24744 14.08777,29.81831 4.07203,4.29072 11.47187,10.46536 2.07666,11.77228 -18.02123,-14.1191 -16.59992,-6.79078 -26.22501,-26.3183 -9.62509,-19.52752 -15.35986,-26.70087 -18.30324,-37.20144 -1.16563,-2.62886 -15.9663,34.81001 -17.26017,32.75622 -0.77313,-13.07648 -0.51649,-26.58987 -0.1599,-39.08397 -1.9e-4,-2.37118 -7.79797,-25.73265 -11.49357,-34.43376 -1.35253,-3.18444 -1.4128,-4.04837 -0.33032,-4.73468 3.84095,-2.43522 10.87144,0.41577 12.8592,5.21464 0.72425,1.74849 3.66858,6.04819 6.54297,9.55489 5.48818,6.69549 7.21878,11.34524 7.76891,20.87341 17.54466,12.30134 19.77551,19.58922 20.55326,-14.25846 -6.91728,-28.24873 -6.30476,-31.10009 -20.40693,-42.27125 -1.84393,-3.11986 -8.49146,-7.75835 -12.97388,-12.98335 -4.48243,-5.225 -9.15865,-10.95546 -10.3916,-12.73434 -1.23296,-1.77889 -4.65053,-4.83322 -7.59461,-6.78739 -2.94408,-1.95417 -6.51349,-5.07467 -7.93201,-6.93446 -1.41853,-1.85978 -4.15911,-3.90286 -6.09018,-4.54017 C 522.57997,410.36633 521,409.48439 521,409.04377 c 0,-0.44062 -1.38907,-1.3765 -3.08682,-2.07973 -1.69775,-0.70323 -6.72503,-4.61887 -11.17173,-8.70142 -4.44671,-4.08255 -9.58264,-8.56518 -11.41318,-9.96141 C 492.88871,386.44048 492,384.97824 492,382.82508 c 0,-2.5219 -3.88058,1.71656 0,0 108.42705,26.45079 104.76987,142.8955 107.78369,160.47038 z m -59.7852,83.07628 c 0.32877,-14.22715 2.30878,-2.16904 1.88335,-27.64571 -0.96541,-15.35785 -10.20079,-27.42013 -2.01834,-28.73272 6.65705,5.48778 18.71946,12.15593 15.92532,30.62264 -0.43103,9.88082 3.46295,26.28489 -1.8071,28.798 -4.41059,2.10327 -13.206,-1.01678 -13.98323,-3.04221 z m -9.22751,-63.30657 c -2.49298,-5.14981 -1.82013,-12.11382 -0.0859,-12.11382 8.50124,-10.88105 27.18741,-4.64226 11.59267,-3.79799 -2.58001,1.95912 -9.06035,20.96553 -11.50681,15.91181 z M 378.04779,540.23978 c -2.72656,-2.20783 -3.8027,-8.98367 -1.96074,-12.34562 0.73076,-1.3338 1.21749,-4.83009 1.09897,-7.89416 -0.117,-3.025 0.13078,-5.95 0.55062,-6.5 0.41985,-0.55 3.42456,-2.79306 6.67715,-4.98458 9.01544,-6.07441 12.05877,-5.10565 16.74061,5.32893 2.80987,6.26246 2.82665,6.41304 1.2995,11.66623 -1.63895,5.63781 -2.73502,7.04797 -5.94052,7.64293 -1.09264,0.2028 -2.89264,1.80372 -4,3.5576 -3.2131,5.08904 -10.3797,6.83723 -14.46559,3.52867 z m 20.28785,-65.571 c -3.54555,-3.24926 -3.63041,-3.4979 -3.44863,-10.10524 0.14457,-5.25521 -0.27029,-7.54797 -1.85033,-10.22594 -2.99091,-5.06923 -2.56113,-7.23644 2.44249,-12.31645 4.44839,-4.5163 4.46844,-4.56808 2.9173,-7.53435 -0.85902,-1.64274 -1.73627,-4.69562 -1.94943,-6.78417 C 395.96488,422.97843 395.37578,422 393.01356,422 c -2.4649,0 -5.84728,-4.40643 -6.41056,-8.35145 -0.24725,-1.7317 -0.97101,-6.52355 -1.60834,-10.64855 -0.63733,-4.125 -1.55193,-10.60757 -2.03244,-14.40572 -0.48052,-3.79815 -1.34359,-7.37565 -1.91794,-7.95 -1.53075,-1.53075 -1.27306,-6.87264 0.45021,-9.33294 0.89983,-1.2847 3.10853,-2.40637 5.55095,-2.81902 2.23106,-0.37693 4.87146,-1.56012 5.86756,-2.62931 2.47898,-2.66088 9.087,-3.7472 9.087,-1.49385 0,2.936 2.56977,1.70951 3.85289,-1.83888 0.69007,-1.90835 2.34872,-4.33031 3.6859,-5.38213 2.32418,-1.8282 6.46121,-9.89596 6.46121,-12.60021 0,-0.70744 1.65665,-1.55509 3.68144,-1.88367 3.27196,-0.53097 4.06409,-0.20343 7.12154,2.94473 3.04815,3.13858 3.37949,3.99393 2.90823,7.50746 -0.37653,2.80719 -1.73281,5.26818 -4.6438,8.42624 -2.26157,2.4535 -4.57524,5.47777 -5.14151,6.72059 -0.56626,1.24281 -2.42191,3.05875 -4.12365,4.03542 -2.98571,1.71356 -3.16777,1.70873 -5.19817,-0.13794 -1.84545,-1.67848 -2.53077,-1.76546 -5.57545,-0.70766 -2.4618,0.8553 -4.25615,0.90982 -6.16983,0.18749 -1.89475,-0.71519 -3.09724,-0.6876 -4.03734,0.0926 -1.88214,1.56204 -3.79862,9.01598 -3.53957,13.76679 l 0.21811,4 h 4.47713 c 3.68363,0 4.54456,0.35447 4.85761,2 0.65371,3.43623 2.08006,4.48289 4.73404,3.47385 1.32762,-0.50476 3.07099,-0.66558 3.87417,-0.35737 1.51132,0.57995 4.20369,7.12037 3.6569,8.88352 -0.17056,0.55 -0.40975,1.61739 -0.53152,2.37198 -0.27507,1.70449 -4.36538,4.04519 -7.15166,4.09258 -3.10237,0.0528 -3.36814,0.78562 -1.94551,5.36448 3.9182,12.61097 4.27379,27.38608 0.82001,34.07181 -1.71087,3.31187 -1.21926,8.43148 1.29328,13.46798 3.54129,7.09868 2.6737,15.13117 -1.63432,15.13117 -1.08872,0 -3.61525,-1.49905 -5.61449,-3.33122 z M 415.75,415.73885 c -4.09222,-1.02309 -4.90457,-2.62416 -1.75,-3.4491 1.1,-0.28766 2,-1.34397 2,-2.34736 0,-2.78122 1.53972,-3.14158 4.14584,-0.9703 1.29479,1.07875 1.85406,1.97634 1.24283,1.99464 -0.62719,0.0188 -0.9129,1.07129 -0.65583,2.41605 0.58478,3.05907 -0.36833,3.50973 -4.98284,2.35607 z m -60.51916,-79.1173 c -1.03205,-1.16685 -3.37607,-4.51985 -5.20894,-7.4511 -4.56842,-7.30614 -5.15295,-15.88486 -2.02718,-29.7512 2.12813,-9.44063 2.4745,-10.15129 7.17858,-14.72829 4.1235,-4.01209 5.47155,-4.75782 8.13463,-4.5 2.57424,0.24923 3.24942,0.8009 3.48835,2.85029 C 367.10865,285.72052 362.50895,295 360.8685,295 c -1.03403,0 -5.84259,9.66622 -5.85873,11.7773 -0.0162,2.12207 9.15626,10.21945 14.49023,12.79184 5.68808,2.74316 11.9803,3.10371 17.94353,1.02819 3.97037,-1.3819 6.92804,-0.67737 7.9111,1.88444 0.21629,0.56364 -2.67425,4.39832 -6.42343,8.52152 l -6.81668,7.49671 -12.50362,0.12155 c -11.56817,0.11246 -12.644,-0.0372 -14.38006,-2 z"
           id="path12921"
           sodipodi:nodetypes="zsczcccssssccccsssssssssszccccscsccssssssssssssssssssssssssssssssssssssssssscsssssssssssssssssssssssssssssssscss" />
        <path
           style="fill:#c5c8c6;fill-opacity:1;stroke:none;stroke-width:1px;stroke-linecap:butt;stroke-linejoin:miter;stroke-opacity:1"
           d="m 360.36098,304.23061 c 0.10101,-8.92645 14.99543,-25.42834 11.15181,-18.24849 -4.16173,7.7741 -9.73765,9.27906 -11.15181,18.24849 z"
           id="path1129"
           sodipodi:nodetypes="csc" />
        <path
           style="fill:#c5c8c6;fill-opacity:1;stroke:none;stroke-width:1px;stroke-linecap:butt;stroke-linejoin:miter;stroke-opacity:1"
           d="m 371.95483,299.76457 c -6.11129,-2.64871 11.88423,-14.18859 8.04061,-7.00874 -4.16173,7.7741 5.66683,4.67824 -8.04061,7.00874 z"
           id="path1129-5"
           sodipodi:nodetypes="csc" />
      </g>
      <path
         style="fill:#373b41;fill-opacity:1;stroke:none;stroke-width:1px;stroke-linecap:butt;stroke-linejoin:miter;stroke-opacity:1"
         d="m 408.07584,376.29925 c 3.60251,-4.65893 19.12813,-18.54516 29.49803,-23.45847 11.93289,-5.65386 22.18308,-4.86962 22.18308,-4.86962 0,0 8.08489,4.38579 2.38329,3.26202 -5.7016,-1.12376 -14.70317,-0.79599 -24.56641,5.07253 -9.86324,5.86851 -27.57308,20.52424 -30.68969,29.54551 -3.11661,9.02128 -8.0299,9.0681 -8.0299,9.0681 0,0 -3.51997,-3.04353 0.75165,-5.32225 4.27161,-2.27872 4.86745,-8.6389 8.46995,-13.29782 z"
         id="path1227"
         sodipodi:nodetypes="zscssscsz" />
      <path
         style="fill:#373b41;fill-opacity:1;stroke:none;stroke-width:0.97049px;stroke-linecap:butt;stroke-linejoin:miter;stroke-opacity:1"
         d="m 412.12366,381.34952 c 3.37175,-4.68833 17.90285,-18.66221 27.60849,-23.60653 11.16851,-5.68954 20.76211,-4.90035 20.76211,-4.90035 0,0 7.567,4.41347 2.23063,3.28261 -5.33638,-1.13086 -13.76134,-0.80102 -22.99277,5.10454 -9.23144,5.90555 -25.80685,20.65378 -28.72382,29.73199 -2.91697,9.07821 -7.51554,9.12533 -7.51554,9.12533 0,0 -3.29449,-3.06274 0.70351,-5.35584 3.99798,-2.2931 4.55565,-8.69343 7.92739,-13.38175 z"
         id="path1227-7"
         sodipodi:nodetypes="zscssscsz" />
      <path
         style="fill:#373b41;fill-opacity:1;stroke:none;stroke-width:1px;stroke-linecap:butt;stroke-linejoin:miter;stroke-opacity:1"
         d="m 411.50458,398.18208 c 5.62371,3.06401 10.85384,4.92601 7.38123,2.43949 -3.47261,-2.4865 -7.38123,-2.43949 -7.38123,-2.43949 z"
         id="path1244" />
      <path
         style="fill:#373b41;fill-opacity:1;stroke:none;stroke-width:1px;stroke-linecap:butt;stroke-linejoin:miter;stroke-opacity:1"
         d="m 413.1327,392.84699 c 5.07829,3.90194 9.95488,6.55527 6.91159,3.55858 -3.04329,-2.99668 -6.91159,-3.55858 -6.91159,-3.55858 z"
         id="path1244-3" />
      <path
         style="fill:#373b41;fill-opacity:1;stroke:none;stroke-width:1px;stroke-linecap:butt;stroke-linejoin:miter;stroke-opacity:1"
         d="m 415.51784,390.04941 c 5.07829,3.90194 9.95488,6.55527 6.91159,3.55858 -3.04329,-2.99668 -6.91159,-3.55858 -6.91159,-3.55858 z"
         id="path1244-8" />
      <path
         style="fill:#373b41;fill-opacity:1;stroke:none;stroke-width:1px;stroke-linecap:butt;stroke-linejoin:miter;stroke-opacity:1"
         d="m 417.56207,386.45094 c 5.07829,3.90194 9.95488,6.55527 6.91159,3.55858 -3.04329,-2.99668 -6.91159,-3.55858 -6.91159,-3.55858 z"
         id="path1244-7" />
      <path
         style="fill:#373b41;fill-opacity:1;stroke:none;stroke-width:1px;stroke-linecap:butt;stroke-linejoin:miter;stroke-opacity:1"
         d="m 420.93537,383.99711 c 5.07829,3.90194 9.95488,6.55527 6.91159,3.55858 -3.04329,-2.99668 -6.91159,-3.55858 -6.91159,-3.55858 z"
         id="path1244-1" />
      <path
         style="fill:#373b41;fill-opacity:1;stroke:none;stroke-width:1px;stroke-linecap:butt;stroke-linejoin:miter;stroke-opacity:1"
         d="m 424.19869,379.54373 c 5.07829,3.90194 9.95488,6.55527 6.91159,3.55858 -3.04329,-2.99668 -6.91159,-3.55858 -6.91159,-3.55858 z"
         id="path1244-0" />
      <path
         style="fill:#373b41;fill-opacity:1;stroke:none;stroke-width:1px;stroke-linecap:butt;stroke-linejoin:miter;stroke-opacity:1"
         d="m 426.93954,375.49587 c 5.07829,3.90194 9.95488,6.55527 6.91159,3.55858 -3.04329,-2.99668 -6.91159,-3.55858 -6.91159,-3.55858 z"
         id="path1244-08" />
      <path
         style="fill:#373b41;fill-opacity:1;stroke:none;stroke-width:1px;stroke-linecap:butt;stroke-linejoin:miter;stroke-opacity:1"
         d="m 431.38541,372.70722 c 5.07829,3.90194 9.95488,6.55527 6.91159,3.55858 -3.04329,-2.99668 -6.91159,-3.55858 -6.91159,-3.55858 z"
         id="path1244-6" />
      <path
         style="fill:#373b41;fill-opacity:1;stroke:none;stroke-width:1px;stroke-linecap:butt;stroke-linejoin:miter;stroke-opacity:1"
         d="m 434.89134,369.00061 c 4.73649,4.31043 9.37574,7.35981 6.59199,4.1206 -2.78376,-3.2392 -6.59199,-4.1206 -6.59199,-4.1206 z"
         id="path1244-79" />
      <path
         style="fill:#373b41;fill-opacity:1;stroke:none;stroke-width:1px;stroke-linecap:butt;stroke-linejoin:miter;stroke-opacity:1"
         d="m 438.09406,365.69515 c 4.60154,4.45421 9.14471,7.64496 6.462,4.32159 -2.68271,-3.32337 -6.462,-4.32159 -6.462,-4.32159 z"
         id="path1244-00" />
      <path
         style="fill:#373b41;fill-opacity:1;stroke:none;stroke-width:1px;stroke-linecap:butt;stroke-linejoin:miter;stroke-opacity:1"
         d="m 442.71889,362.72569 c 4.36658,4.68478 8.73978,8.10479 6.23139,4.64794 -2.50838,-3.45683 -6.23139,-4.64794 -6.23139,-4.64794 z"
         id="path1244-65" />
      <path
         style="fill:#373b41;fill-opacity:1;stroke:none;stroke-width:1px;stroke-linecap:butt;stroke-linejoin:miter;stroke-opacity:1"
         d="m 446.23855,360.71975 c 4.17044,4.8602 8.39946,8.45697 6.03519,4.9 -2.36426,-3.55696 -6.03519,-4.9 -6.03519,-4.9 z"
         id="path1244-4" />
      <path
         style="fill:#373b41;fill-opacity:1;stroke:none;stroke-width:1px;stroke-linecap:butt;stroke-linejoin:miter;stroke-opacity:1"
         d="m 451.26301,358.53145 c 4.25278,4.78831 8.54257,8.31237 6.11794,4.79628 -2.42463,-3.51609 -6.11794,-4.79628 -6.11794,-4.79628 z"
         id="path1244-31" />
      <path
         style="fill:#373b41;fill-opacity:1;stroke:none;stroke-width:1px;stroke-linecap:butt;stroke-linejoin:miter;stroke-opacity:1"
         d="m 456.765,356.77544 c 4.26396,4.77837 8.56197,8.2924 6.12913,4.78197 -2.43284,-3.51041 -6.12913,-4.78197 -6.12913,-4.78197 z"
         id="path1244-30" />
      <path
         style="fill:#373b41;fill-opacity:1;stroke:none;stroke-width:0.96412px;stroke-linecap:butt;stroke-linejoin:miter;stroke-opacity:1"
         d="m 461.91759,356.2444 c 3.64786,4.51008 7.63266,8.02155 5.73665,4.82546 -1.89602,-3.19608 -5.73665,-4.82546 -5.73665,-4.82546 z"
         id="path1244-12" />
      <path
         style="fill:#373b41;fill-opacity:1;stroke:none;stroke-width:0.915977px;stroke-linecap:butt;stroke-linejoin:miter;stroke-opacity:1"
         d="m 422.36421,404.39103 c 3.50934,-7.08058 5.48158,-10.1604 6.06729,-7.2487 0.58571,2.91169 3.76617,8.38073 0.56939,8.17506 -3.19676,-0.20567 -6.95826,1.15046 -6.63668,-0.92636 z"
         id="path1345" />
      <path
         style="fill:#373b41;fill-opacity:1;stroke:none;stroke-width:0.915977px;stroke-linecap:butt;stroke-linejoin:miter;stroke-opacity:1"
         d="m 430.17516,391.34535 c 5.12324,-6.01686 7.78413,-8.52577 7.64548,-5.55899 -0.13864,2.96678 1.61902,9.04431 -1.4322,8.06875 -3.05121,-0.97556 -7.0294,-0.57313 -6.21328,-2.50976 z"
         id="path1345-4" />
      <path
         style="fill:#373b41;fill-opacity:1;stroke:none;stroke-width:0.915977px;stroke-linecap:butt;stroke-linejoin:miter;stroke-opacity:1"
         d="m 439.12523,381.42024 c 5.85067,-5.31223 8.81058,-7.46024 8.29364,-4.53555 -0.51693,2.92468 0.44905,9.17709 -2.45236,7.81932 -2.90138,-1.35777 -6.89838,-1.46742 -5.84128,-3.28377 z"
         id="path1345-3" />
      <path
         style="fill:#373b41;fill-opacity:1;stroke:none;stroke-width:0.915977px;stroke-linecap:butt;stroke-linejoin:miter;stroke-opacity:1"
         d="m 449.01356,372.30153 c 6.78838,-4.04576 10.11564,-5.56377 9.02868,-2.7998 -1.08696,2.76398 -1.38076,9.08374 -3.95508,7.17727 -2.57429,-1.90644 -6.47007,-2.80698 -5.0736,-4.37747 z"
         id="path1345-7" />
      <path
         style="fill:#373b41;fill-opacity:1;stroke:none;stroke-width:0.858552px;stroke-linecap:butt;stroke-linejoin:miter;stroke-opacity:1"
         d="m 460.61906,366.40285 c 6.4163,-2.78026 9.48776,-3.67897 8.12617,-1.12201 -1.36159,2.55695 -1.14305,8.02879 -3.03287,5.64956 -1.88981,-2.37922 -6.52982,-3.21892 -5.0933,-4.52755 z"
         id="path1345-5"
         sodipodi:nodetypes="cssc" />
      <path
         style="fill:#373b41;fill-opacity:1;stroke:none;stroke-width:0.858552px;stroke-linecap:butt;stroke-linejoin:miter;stroke-opacity:1"
         d="m 469.92091,363.28609 c 4.67465,-1.57846 2.4773,-2.33143 5.43198,2.15615 1.76756,2.68457 0.72624,4.12709 -1.24439,2.35843 -2.26125,-2.02949 -5.62411,-3.20569 -4.18759,-4.51432 z"
         id="path1345-5-8"
         sodipodi:nodetypes="csscc" />
      <path
         style="fill:#373b41;fill-opacity:1;stroke:none;stroke-width:1px;stroke-linecap:butt;stroke-linejoin:miter;stroke-opacity:1"
         d="m 384.26917,394.47107 c -4.56579,-2.51539 -10.65183,1.87473 -10.62657,3.22488 0.0253,1.35014 0.14143,1.53504 5.81835,-1.16096 5.67693,-2.69599 4.73752,2.25741 4.80822,-2.06392 z"
         id="path1395" />
      <path
         style="fill:#373b41;fill-opacity:1;stroke:none;stroke-width:1.4647px;stroke-linecap:butt;stroke-linejoin:miter;stroke-opacity:1"
         d="m 374.87888,399.62625 c -0.67219,2.20975 3.16245,10.7759 0,0 z"
         id="path1397" />
      <path
         style="fill:#373b41;fill-opacity:1;stroke:none;stroke-width:1.4647px;stroke-linecap:butt;stroke-linejoin:miter;stroke-opacity:1"
         d="m 376.71371,398.82855 c -0.8988,2.20975 2.05739,10.7759 0,0 z"
         id="path1397-6" />
      <path
         style="fill:#373b41;fill-opacity:1;stroke:none;stroke-width:1.4647px;stroke-linecap:butt;stroke-linejoin:miter;stroke-opacity:1"
         d="m 378.60776,398.04391 c -0.97013,2.20975 1.70954,10.7759 0,0 z"
         id="path1397-7" />
      <path
         style="fill:#373b41;fill-opacity:1;stroke:none;stroke-width:1.4647px;stroke-linecap:butt;stroke-linejoin:miter;stroke-opacity:1"
         d="m 380.76193,397.49542 c -0.93237,2.20975 1.89367,10.7759 0,0 z"
         id="path1397-71" />
      <path
         style="fill:#373b41;fill-opacity:1;stroke:none;stroke-width:1.4647px;stroke-linecap:butt;stroke-linejoin:miter;stroke-opacity:1"
         d="m 382.81758,396.8767 c -1.02469,2.20975 1.44348,10.7759 0,0 z"
         id="path1397-8" />
      <path
         style="fill:#373b41;fill-opacity:1;stroke:none;stroke-width:1px;stroke-linecap:butt;stroke-linejoin:miter;stroke-opacity:1"
         d="m 378.15283,406.85028 c -1.76773,2.84219 -2.27784,2.5197 -1.97481,4.20093 0.30304,1.68124 0.61618,2.30901 1.88389,2.09832 1.26771,-0.21069 -1.19699,-4.22244 0.0909,-6.29925 z"
         id="path1432"
         sodipodi:nodetypes="cssc" />
      <path
         style="fill:#373b41;fill-opacity:1;stroke:none;stroke-width:1px;stroke-linecap:butt;stroke-linejoin:miter;stroke-opacity:1"
         d="m 383.47401,405.28392 c -1.76773,2.84219 -3.59101,3.54735 -3.28798,5.22858 0.30304,1.68124 1.78289,1.73284 3.0506,1.52215 1.26771,-0.21069 -1.05053,-4.67392 0.23738,-6.75073 z"
         id="path1432-4"
         sodipodi:nodetypes="cssc" />
      <path
         style="fill:#373b41;fill-opacity:1;stroke:none;stroke-width:0.993559px;stroke-linecap:butt;stroke-linejoin:miter;stroke-opacity:1"
         d="m 377.55059,420.76461 c 4.61976,2.29622 10.41555,-2.37734 10.32749,-3.72478 -0.0881,-1.34742 -0.21126,-1.52661 -5.68289,1.43535 -5.47162,2.96195 -4.77702,-2.03039 -4.6446,2.28943 z"
         id="path1395-5" />
      <path
         style="fill:#373b41;fill-opacity:1;stroke:none;stroke-width:0.968916px;stroke-linecap:butt;stroke-linejoin:miter;stroke-opacity:1"
         d="m 378.90906,425.96634 c 4.45925,2.14746 9.82996,-2.70899 9.70636,-4.05294 -0.12365,-1.34394 -0.24602,-1.5191 -5.35929,1.61623 -5.11327,3.13533 -4.60087,-1.87673 -4.34707,2.43671 z"
         id="path1395-8" />
      <path
         style="fill:#373b41;fill-opacity:1;stroke:none;stroke-width:0.915977px;stroke-linecap:butt;stroke-linejoin:miter;stroke-opacity:1"
         d="m 387.15759,474.1125 c 5.65328,0.78343 5.79129,1.53209 4.04408,3.92804 -1.74997,2.39971 -2.5678,5.10617 -3.57185,2.06421 -1.04321,-3.16058 -1.16617,1.56951 -0.47223,-5.99225 z"
         id="path1345-2"
         sodipodi:nodetypes="cssc" />
      <path
         style="fill:#373b41;fill-opacity:1;stroke:none;stroke-width:0.759657px;stroke-linecap:butt;stroke-linejoin:miter;stroke-opacity:1"
         d="m 385.7721,485.17122 c 1.6394,4.16937 6.01664,2.85713 6.38584,1.64852 0.36918,-1.20862 0.36171,-1.42195 -3.32523,-1.43916 -3.68695,-0.0172 -1.80089,-4.01336 -3.06061,-0.20936 z"
         id="path1395-8-0" />
      <path
         style="fill:#373b41;fill-opacity:1;stroke:none;stroke-width:1px;stroke-linecap:butt;stroke-linejoin:miter;stroke-opacity:1"
         d="m 483.96909,378.27509 c -15.0568,-2.09183 -16.62818,5.3755 -30.35645,14.20492 -13.72827,8.82942 -13.64258,9.02402 -17.08536,21.30739 -3.44278,12.28337 -6.5141,9.61995 -2.0285,13.41441 4.4856,3.79447 10.68549,-3.07692 12.82828,-13.00091 2.14279,-9.924 20.92806,-18.3156 26.54223,-23.52083 5.61417,-5.20523 6.92847,-7.45514 15.12827,-5.42413 8.1998,2.031 -5.02847,-6.98085 -5.02847,-6.98085 z"
         id="path1500"
         sodipodi:nodetypes="cssssssc" />
      <path
         style="fill:#373b41;fill-opacity:1;stroke:none;stroke-width:0.936615px;stroke-linecap:butt;stroke-linejoin:miter;stroke-opacity:1"
         d="m 491.45355,385.69285 c -15.36089,-0.29045 -16.266,6.30116 -29.29643,15.28701 -13.03043,8.98586 -12.92641,9.14493 -15.27971,20.07392 -2.35329,10.92902 -5.68978,8.94262 -0.82557,11.76152 4.86421,2.81889 10.48703,-3.724 11.74477,-12.48964 1.25772,-8.76566 19.42325,-17.88206 24.60723,-22.93058 5.18398,-5.04854 6.3039,-7.11902 14.75032,-6.19246 8.4464,0.92656 -5.70061,-5.50977 -5.70061,-5.50977 z"
         id="path1500-9"
         sodipodi:nodetypes="cssssssc" />
      <path
         style="fill:#373b41;fill-opacity:1;stroke:none;stroke-width:0.913076px;stroke-linecap:butt;stroke-linejoin:miter;stroke-opacity:1"
         d="m 500.57863,392.23562 c -14.74104,-0.28764 -15.60962,6.24023 -28.11424,15.13919 -12.50462,8.89897 -12.4048,9.0565 -14.66314,19.87981 -2.25833,10.82335 -5.46018,8.85615 -0.79225,11.6478 4.66792,2.79163 10.06385,-3.68799 11.27084,-12.36887 1.20696,-8.6809 18.63947,-17.70915 23.61426,-22.70886 4.97479,-4.99972 6.04952,-7.05018 14.15511,-6.13258 8.10556,0.9176 -5.47058,-5.45649 -5.47058,-5.45649 z"
         id="path1500-9-2"
         sodipodi:nodetypes="cssssssc" />
      <path
         style="fill:#373b41;fill-opacity:1;stroke:none;stroke-width:0.775116px;stroke-linecap:butt;stroke-linejoin:miter;stroke-opacity:1"
         d="m 506.77652,397.77052 c -15.36376,4.15341 -15.39212,8.68638 -27.19996,18.20026 -11.80785,9.51388 -11.68296,9.58769 -12.58063,17.34443 -0.89764,7.75677 -4.48998,7.41092 0.737,7.86512 5.22694,0.45421 9.96854,-5.38066 10.06024,-11.42399 0.0917,-6.04333 17.00537,-17.09339 21.50742,-21.83455 4.50204,-4.74117 1.43045,-2.74055 9.98021,-4.52677 8.54972,-1.78623 -2.50428,-5.6245 -2.50428,-5.6245 z"
         id="path1500-9-2-8"
         sodipodi:nodetypes="cssssssc" />
      <path
         style="fill:#373b41;fill-opacity:1;stroke:none;stroke-width:0.775116px;stroke-linecap:butt;stroke-linejoin:miter;stroke-opacity:1"
         d="m 514.8101,404.50214 c -15.61765,3.06348 -15.96448,7.58325 -28.4117,16.24384 -12.44722,8.66059 -12.32783,8.743 -13.76837,16.41748 -1.44051,7.67451 -4.99966,7.07707 0.18248,7.89747 5.18209,0.82039 10.32201,-4.66684 10.83816,-10.68879 0.51616,-6.02195 18.16453,-15.85612 22.98863,-20.26918 4.82408,-4.41308 1.6195,-2.63326 10.27364,-3.81425 8.65411,-1.181 -2.10284,-5.78657 -2.10284,-5.78657 z"
         id="path1500-9-2-8-8"
         sodipodi:nodetypes="cssssssc" />
    </g>
  </g>
</svg>
