<?xml version="1.0" encoding="UTF-8" standalone="no"?>
<svg
   xmlns:dc="http://purl.org/dc/elements/1.1/"
   xmlns:cc="http://creativecommons.org/ns#"
   xmlns:rdf="http://www.w3.org/1999/02/22-rdf-syntax-ns#"
   xmlns:svg="http://www.w3.org/2000/svg"
   xmlns="http://www.w3.org/2000/svg"
   xmlns:sodipodi="http://sodipodi.sourceforge.net/DTD/sodipodi-0.dtd"
   xmlns:inkscape="http://www.inkscape.org/namespaces/inkscape"
   version="1.1"
   id="svg3699"
   width="1600"
   height="1220"
   viewBox="0 0 1600 1220"
   sodipodi:docname="broken-rabbit-visiting.png.svg"
   inkscape:version="1.0.2 (e86c870879, 2021-01-15)">
  <metadata
     id="metadata3705">
    <rdf:RDF>
      <cc:Work
         rdf:about="">
        <dc:format>image/svg+xml</dc:format>
        <dc:type
           rdf:resource="http://purl.org/dc/dcmitype/StillImage" />
      </cc:Work>
    </rdf:RDF>
  </metadata>
  <defs
     id="defs3703" />
  <sodipodi:namedview
     pagecolor="#ffffff"
     bordercolor="#666666"
     borderopacity="1"
     objecttolerance="10"
     gridtolerance="10"
     guidetolerance="10"
     inkscape:pageopacity="0"
     inkscape:pageshadow="2"
     inkscape:window-width="2558"
     inkscape:window-height="1415"
     id="namedview3701"
     showgrid="false"
     inkscape:zoom="2.8377007"
     inkscape:cx="745.73268"
     inkscape:cy="572.04586"
     inkscape:window-x="0"
     inkscape:window-y="0"
     inkscape:window-maximized="0"
     inkscape:current-layer="g3719" />
  <g
     inkscape:groupmode="layer"
     inkscape:label="Image"
     id="g3707">
    <g
       id="g3719">
      <path
         style="fill:#e0e0e0;fill-opacity:1;stroke:none;stroke-width:1px;stroke-linecap:butt;stroke-linejoin:miter;stroke-opacity:1"
         d="m 47.08738,1029.1069 436.99605,9.4578 L 663,1042.8309 771.57545,1033.7551 803.96913,904.17054 775.77015,744.697 666.78094,964.78717 l -77.53188,61.69243 -135.27548,-20.4937 22.47209,-40.69688 41.47504,-50.63818 105.54014,-95.02749 77.4103,-168.69486 69.561,-150.22857 L 792.13814,425.25 808,400.2128 l 76.57237,5.75093 20.71484,51.26056 -2.65795,133.03652 -9.10084,98.78518 -8.97078,126.12802 L 884.07143,928 l 8.63679,58.63688 -43.09777,39.45852 75.9013,15.7235 63.31521,-7.5125 594.54694,1.1494 20.6126,186.9271 L 0.47982634,1218.6008 0.3659115,1031.728 Z"
         id="path3819" />
      <path
         id="path3725"
         style="display:inline;fill:#969896;fill-opacity:1"
         d="m 35.559836,1217.6431 c -45.12197,-21.0248 97.173914,-3.8068 7.66208,-2.3482 z M 770.116,1217.3216 c 23.1739,-7.2821 15.79147,8.5267 0,0 z m 31.90361,1.0907 c -9.18727,-15.1165 39.30583,-1.9571 3.83003,1.0237 z M 83,1211 c -27.389698,-7.5937 2.9863,-5.4235 0,0 z m 946.4991,-2.9344 c -18.8294,-12.9865 -23.0867,-2.6183 -32.70691,-20.1047 44.44881,4.3273 85.70701,-14.8516 127.74101,-4.1909 -46.9134,5.0964 23.3269,5.6124 -21.0522,15.4828 -26.1242,-9.6633 -27.3285,-3.0342 -72.6525,4.0955 z M 43.116001,1204.75 c -25.536146,-12.9656 62.496489,-8.0914 0,0 z m 325.575189,-1.5441 c -33.36203,-8.4425 33.23068,-5.4914 -13.80706,-7.5544 -23.95937,-0.3479 1.94909,6.6436 -39.57957,-0.5853 -38.0751,1.6494 46.04022,4.8873 -13.21445,3.6393 -67.58799,-3.6823 65.62117,-18.1351 55.4896,-13.1789 29.3307,8.8196 85.9757,11.3198 21.76535,17.5566 z m 363.15255,0.3045 c -34.71047,4.7359 21.274,-15.8073 0,0 z m 233.19755,-2.6544 c 22.90543,-18.9736 -130.02794,2.2228 -43.79256,-9.5472 30.71046,5.5017 80.38987,-17.7645 68.72453,1.0424 21.70434,18.5697 -20.75018,-5.1521 -24.93197,8.5048 z m -415.31212,-0.4602 c 39.56347,-17.1411 40.98992,-0.6005 0,0 z M 620,1195.9562 c -18.35063,-14.1261 13.08438,-8.783 0,0 z m -388,-0.9371 c -15.15072,-12.042 45.37244,4.219 0,0 z m -78.37328,-3.5352 c -22.91284,-10.1604 28.27472,-5.6273 0,0 z m 533.82358,-3.215 c -12.07994,-17.2025 16.58692,-2.1178 0,0 z m -43.15842,-0.377 c 6.07154,-14.1847 16.33365,1.1753 0,0 z m -469.78504,-3.0767 c -34.03675,-7.4326 -47.11602,-11.6459 -0.74494,-11.598 38.43848,7.0083 39.16915,15.0145 0.74494,11.598 z m 986.02716,1.0083 c 20.1631,-18.6982 6.9634,14.5864 0,0 z m -483.84316,-0.2745 c -30.85577,-4.9379 18.62304,-12.9279 -15.42184,-13.049 -32.91102,-2.7269 72.2552,-22.0219 22.731,5.9962 -3.56507,1.922 -0.4834,12.1903 -7.30916,7.0528 z m 133.55117,-0.081 c -32.06852,-10.7417 -2.27792,-11.403 0,0 z M 819,1185.166 c -41.48738,-35.15 -5.5393,-7.244 22.95411,-17.4443 -53.14611,20.3694 50.6479,-28.5499 16.75559,1.7097 8.63049,-0.4645 45.9172,4.0137 0.0121,10.6123 -12.59775,9.9169 -29.5636,-9.6336 -39.72182,5.1223 z m 39.60994,-13.3663 c -5.61197,-36.1617 -14.19691,4.4783 0,0 z m -143.27661,7.6746 c -1.36901,-12.6179 67.50462,-20.3052 18.83546,-4.3461 l -8.43897,2.3622 z M 283,1179.2361 c -20.52337,-16.669 38.0453,1.1924 0,0 z m 234.23517,0.056 c -36.9689,-13.3271 3.5574,-5.9979 -18.76368,-30.3238 -53.25814,11.2306 22.53302,-8.7277 -31.64823,-8.6112 -28.60409,21.0171 -59.76425,-12.1178 -9.82364,-2.8577 27.17346,-17.2258 51.6663,-15.9328 86.35964,-5.3177 -50.39303,14.283 12.31016,-2.3865 6.64076,25.8179 -40.30701,-35.2201 -49.52858,3.6527 -26.10012,3.7197 -39.3669,1.6994 13.7817,8.0628 -6.66473,17.5728 z M 1089,1178.1973 c 25.8986,-16.8584 -58.5613,-9.0335 11.3205,-18.0679 -41.3034,-26.5892 126.5438,-4.6031 98.9296,-25.5325 -77.2791,1.4372 101.5823,-8.7788 11.5549,-12.3855 -19.835,-6.5875 -77.7618,-27.1557 -29.5616,-0.2403 -22.7387,26.0709 -85.4977,-37.3046 -102.2623,-2.001 -2.6081,-30.091 -26.9431,-39.3942 13.9865,-28.9651 -41.9736,-15.3068 30.303,-13.8461 -28.3282,-17.219 -23.8176,44.77 -42.1304,63.1307 -100.7719,63.6815 -84.39644,-3.9247 -169.97059,0.7079 -253.92602,-3.4685 -34.7477,17.2862 -83.8822,-17.1922 -110.63671,-15.1009 -26.13748,3.5088 -60.86653,-17.0967 -64.69009,-48.7528 -33.28448,2.7876 -27.81412,10.6144 -7.07589,9.5966 -33.804,16.4057 -51.32811,-3.6813 -82.63137,-11.2834 41.77461,-1.8242 2.66017,-32.8678 2.30606,-9.1113 -21.1611,12.1669 -45.56549,-2.9503 -61.15448,8.6535 22.81284,11.3588 34.56723,14.3199 7.80023,20.6576 23.73519,-10.7661 115.52649,5.0258 44.75864,11.3877 -7.60658,7.3475 64.10057,32.5482 4.28859,13.1618 -29.17051,-19.5268 -38.59746,-16.5533 -80.98854,-22.1175 28.99305,-22.3157 -106.85801,-30.4983 -35.99746,-9.9047 48.30959,21.4506 -66.43402,12.3381 10.78387,20.373 34.02332,42.0062 -66.20455,-25.969 -99.5583,-6.847 -35.59152,3.368 -78.27549,0.9037 -55.72209,16.5815 -39.7236,-1.2776 -45.60269,-21.714 -31.82256,-13.6685 -68.960237,-7.2916 7.59811,-13.2357 -6.59977,-21.4262 -37.8035,8.8566 -100.776338,-8.2986 -123.94819,25.08 -15.5603039,-6.9613 23.830274,17.8476 -15.069882,5.9133 -29.610771,-43.6134 75.487482,-41.6458 -1.0772049,-41.961 10.4976209,-8.6343 97.6228769,-0.6656 34.2190179,-7.6983 -24.852595,2.2866 -43.7031956,-7.4493 -9.748774,-5.2004 -33.9467562,-10.9565 -28.9072381,-38.2382 19.710803,-23.2251 89.76351,-0.4686 180.421,5.4768 270.55206,-0.1942 53.21409,2.5665 107.97275,2.4229 159.57764,-2.5211 -44.52987,-8.2059 -48.49115,-54.21612 -7.34698,-68.86271 C 522.42028,930.90337 521.46512,855.99227 589.15258,845.98898 625.59583,790.54912 662.64272,728.46459 694,665.02784 733.30957,611.83987 731.90388,538.03255 672.10892,501.05967 644.61462,436.74819 630.0964,442.65209 578.55971,414.658 c -12.71963,-26.28313 -48.48422,-61.36449 -42.48857,-8.53318 -7.5672,12.8388 -0.55118,-72.10924 -33.97816,-20.10485 -16.62627,61.29234 42.23557,97.48272 85.77697,127.26893 21.88043,-1.71773 129.11189,4.1386 56.85257,3.22154 -48.28868,23.45093 104.66769,52.88863 71.14513,43.37745 -83.57832,-23.39125 -49.10563,67.40604 -17.66231,30.20982 -48.00549,37.39046 -49.24357,-83.44084 -91.31232,-0.90297 2.24875,16.04934 74.85363,-3.56662 30.0586,12.77997 -53.55902,-2.12081 -117.93387,-2.58113 -148.84161,-57.42949 -66.42025,-35.37431 -16.57663,111.21977 42.84369,79.63243 55.03127,-2.02934 121.12792,4.82895 168.826,-4.83082 -45.36478,18.73837 -127.37916,19.62765 -185.20725,17.41355 53.95259,33.25102 -39.94386,-20.70059 -51.24777,-41.26599 -20.80166,66.33263 0.42421,-92.34711 -6.30072,-122.60208 3.51403,-30.56528 15.15076,-74.23632 -32.71369,-44.78777 -46.86672,-4.25351 48.62104,-4.60505 56.33171,-32.23036 39.24845,1.15273 81.19082,-90.7209 24.73208,-75.7912 -22.00221,43.44096 -143.42031,25.9444 -120.20154,29.64456 58.97323,8.43877 167.52748,-12.10283 144.92152,-95.60658 -28.71575,-0.0794 -100.31312,69.54197 -51.36965,18.83737 -64.11894,-6.10682 -138.18062,42.88523 -119.64951,114.5008 -12.81398,38.69151 15.9873,61.38841 40.19444,79.53531 -58.70432,-69.22128 -48.30225,54.17705 2.27346,55.57602 -0.89446,-33.26906 8.16076,-61.77317 3.71514,-11.87813 -0.80961,20.95524 37.27855,52.84874 4.01181,23.27624 -33.62481,71.07444 58.66267,156.51342 127.02128,149.3643 27.7203,-3.61566 107.02179,0.99643 37.18732,4.80799 -21.55705,18.41095 75.07484,66.44011 106.53617,32.23064 27.24079,-13.25749 65.81074,-58.32035 26.13641,-11.33079 -52.14571,49.85077 -110.06344,12.61412 -156.07044,-17.83776 -58.97666,0.0388 -103.39495,-39.38505 -142.78021,-78.64092 -24.2385,-18.05205 12.07668,-115.88049 -26.18365,-79.40086 3.00511,22.9017 -3.04601,135.39025 -4.98371,109.3764 -1.25432,-59.61163 21.31639,-132.90507 -24.3402,-172.99693 6.94717,-53.2116 -28.03862,-141.23973 6.19303,-146.83465 17.48639,-18.02987 98.83546,-55.26115 26.13018,-49.23018 -59.64911,-4.23853 122.99429,9.34217 77.19877,-2.05832 52.45686,-10.85178 133.73143,-57.72773 146.04284,-96.82825 -22.6548,3.10457 -85.98807,1.63884 -26.66214,-3.19696 69.2418,-12.88879 81.38216,15.63569 133.27737,50.32356 53.82619,-3.12254 121.03576,7.28361 167.16126,-7.96448 -40.55284,-62.46801 -110.60606,-22.44623 -168.20095,-35.04982 42.00267,-5.41959 130.56834,0.075 189.14953,-2.5322 70.86026,9.21134 110.82961,-24.93303 170.79691,13.33578 58.9753,58.82852 148.9617,98.05033 145.1925,187.79998 43.6606,71.46337 7.6866,165.75832 19.6155,247.06425 -70.0285,24.77856 -10.9818,70.12853 7.1789,105.38006 5.0288,26.56104 -4.3719,139.88743 -5.5536,67.94681 16.92,-52.18028 -17.8105,-125.3077 -54.445,-137.20373 -43.7962,53.68 18.5095,100.01494 33.0865,142.96017 -10.4017,37.62847 10.8563,91.76413 -7.6994,120.28304 -7.0677,-36.98363 30.9462,-140.31342 -22.7891,-150.8183 9.9959,68.11899 -7.7066,139.45365 10.0124,207.29616 -35.3796,2.49604 5.2294,-90.93731 -10.8374,-122.4487 7.6466,-22.04556 -2.3364,-142.26234 -12.5856,-70.93978 3.6755,32.39909 0.2271,107.88686 -6.1749,37.17666 15.3244,-67.47387 -14.6758,-123.15178 -54.1052,-170.15822 -30.0134,-8.85945 -121.17875,-93.06494 -53.1161,-42.08243 22.3562,33.69999 111.8677,86.79073 66.7081,9.27344 -56.1735,-30.36048 -91.318,-108.23136 -163.65325,-96.65543 -89.44282,-9.50606 97.60875,14.999 18.6159,-22.99706 -16.85,-31.31203 -109.1022,19.09613 -80.60488,-15.43208 63.63598,-0.21554 115.24883,20.99502 154.41973,72.98552 16.8271,24.13818 114.6518,97.38415 62.0887,34.49531 -55.7033,-35.10373 -84.4058,-94.41839 -81.3428,-153.74045 -14.6202,-33.28688 -116.28153,10.99804 -92.89282,-14.15561 32.79407,5.03504 104.91342,3.34768 38.63797,-29.51644 -50.241,-19.1452 -69.81552,3.79144 -91.36801,36.34584 -48.03832,-47.75463 -73.73517,78.62545 -73.12264,44.47898 0.14762,22.68792 25.36235,62.02448 -5.24831,51.92648 -9.09606,0.42398 27.62875,35.91683 1.46527,34.93712 -20.1463,-14.07952 39.06638,41.76799 18.05431,57.02763 4.55327,75.66968 5.92573,-46.09152 6.12177,-68.42878 -2.15791,-33.14364 -8.52826,-125.92971 22.80753,-110.7862 -36.99235,18.74338 29.40103,48.83064 -14.17825,56.22301 -6.536,37.82776 36.84997,-27.9112 17.19642,13.32546 36.37349,-1.54662 -27.3199,31.94341 16.31686,12.76354 24.62444,-61.0101 -16.76186,26.56196 21.94866,66.42944 -13.07598,-27.7255 13.81482,-256.79506 7.6053,-34.00231 -17.58331,42.35946 -12.48498,37.73791 23.70528,41.35694 -90.79509,-0.60797 55.13201,45.37278 58.29291,26.37862 -26.2165,-4.07237 -87.60319,1.64665 -32.2567,26.61895 36.687,-5.17072 85.80345,7.48533 95.16695,5.0429 -75.84225,-29.68021 45.9261,88.74611 -16.2534,17.94511 -22.3902,-28.56459 -123.61392,-36.26665 -60.08605,6.55058 20.7355,12.97246 65.75285,77.7305 22.65085,25.83647 -33.41595,-46.11876 -32.98295,-14.97272 -34.73165,11.13122 5.5248,-18.34707 -17.52165,-95.47104 -29.97684,-50.93754 -10.82608,72.78254 46.72804,122.67865 117.36289,99.35515 25.9243,-9.78256 75.3116,14.41343 19.3271,5.39876 -35.0539,0.47605 -138.24068,-20.63865 -69.8472,28.77959 31.0826,29.94283 140.8757,17.30596 126.947,25.32222 -85.0125,-5.58819 54.2039,47.38516 23.8549,95.51514 1.9942,72.38433 -13.1493,-9.02046 -5.8556,-34.25784 -45.1784,-75.15263 -1.7307,144.72953 -20.0401,87.4555 3.426,40.57863 -10.0012,43.57263 -4.1828,3.49509 16.1753,-74.77734 0.9228,-175.2132 -97.2468,-159.7342 -58.96865,-31.56114 -96.35075,-91.6205 -89.98994,-158.36573 1.00186,-66.08073 -49.5932,-81.4952 -33.1276,0.64779 -5.76384,40.87947 80.58172,135.44638 5.68561,140.64596 -20.93486,-69.26313 -24.49782,51.39319 -21.80938,75.97181 14.40878,57.08584 10.84621,113.84227 -38.21354,149.68441 52.86236,14.1741 106.37857,-0.01 161.66185,6.6732 113.587,0.3373 227.1322,0.5126 340.4844,-0.9605 76.7534,4.6185 154.6425,1.0426 231.6172,3.6477 24.6118,8.866 16.2549,49.361 -3.6239,43.5271 27.0748,10.2733 27.4586,60.9116 -7.1461,55.0402 16.3227,22.5553 -112.9461,-0.7128 -37.3599,1.3266 92.9586,-6.5186 -102.5691,-18.8853 -24.4616,-5.7746 -11.1878,14.0257 -134.7844,-30.8451 -45.0743,-20.3021 42.9701,-6.072 -86.2637,-8.7475 -16.8833,-10.3174 36.5844,-3.9041 -26.6711,-26.8964 -44.8218,-7.7411 -6.4213,-21.5879 -90.2618,-20.767 -38.9996,-6.2161 -11.6304,22.6923 -77.225,-1.1173 -25.75,-4.0803 -76.3448,-9.5218 -30.3793,30.5794 22.6779,19.4619 12.5975,19.3285 106.7026,39.0335 34.1808,32.57 -14.9669,-16.5815 -67.3919,-31.3657 -63.4068,-21.7755 -2.9611,-9.9572 -87.5164,-14.3754 -118.72,-13.6368 -27.9999,-4.2487 -32.1927,1.0126 -5.8795,5.3861 -35.7015,16.0521 41.8581,16.8141 61.338,8.0943 28.9919,-3.2528 -3.3592,14.8846 37.9314,9.1497 -21.3955,10.9805 -101.4923,-9.6062 -38.6247,14.0838 -40.7489,-1.8444 56.6977,18.7858 -1.2453,9.1577 -28.7369,0.2912 -8.7448,5.833 -48.9861,-2.248 -57.5001,-2.2467 -6.8569,10.7308 12.8592,13.0076 -37.152,19.3872 -103.0919,-14.0247 -119.5099,10.7944 24.4628,9.7157 79.3543,-8.2901 21.4219,8.0261 -14.9036,-2.143 -30.4196,7.3065 -44.2903,5.2079 z M 685.24475,1136.5 c -37.80026,-30.4682 -43.55594,1.2389 0,0 z m 275.55967,-6.005 c 48.27858,-11.608 3.04069,-14.7303 -7.65794,0.1131 l 3.83433,-0.057 z M 699,1130.5 c -6.91464,-30.3497 76.91411,18.8498 31.31443,-13.0218 -49.6825,-1.2047 -105.00625,-25.8297 -127.54544,-57.2255 -39.0233,-6.1442 32.19919,-18.2075 33.72353,-10.7677 -20.20744,-44.6605 -79.05393,30.7148 -28.97709,27.5239 -67.53815,-0.5562 20.98334,63.6093 51.80803,36.5341 16.74677,5.6399 30.76139,1.8096 39.67654,16.957 z m -61.68045,-19.8482 c -33.21079,-5.9823 15.86869,-5.707 0,0 z m 253.58491,19.9072 c 6.83915,-7.0112 -66.5258,-0.8656 -4.63619,0.1051 z m 29.247,-2.952 c 22.45382,-11.9001 -23.20621,9.3756 0,0 z m 69.83323,-5.357 c 22.77101,-25.0562 -12.84391,12.7939 0,0 z m 22.51561,3 c 70.0389,-4.658 -23.53326,-79.5525 -7.3762,-44.267 23.5144,-15.228 -14.80836,48.5458 7.3762,44.267 z m -238.65083,-2.9996 c 24.31787,5.164 59.48633,-12.1642 13.17051,-7.2654 12.24083,-12.0897 -15.96346,-29.7617 27.98052,-4.9848 48.69789,18.6379 98.35249,-8.987 70.23582,-49.9233 17.90548,5.4753 19.33388,55.7832 -8.10603,61.7586 27.81239,19.5406 73.69576,-45.7705 72.57581,-0.835 72.1509,-14.6441 25.27616,-66.987 -24.19435,-79.1816 -49.63672,-19.5407 -43.4694,5.141 -37.99964,3.5802 -52.19023,-10.2355 -78.13548,-15.7163 -40.51952,23.5856 -15.90809,-10.0107 -50.04976,-25.5334 -18.0894,-51.7463 -42.72542,-60.21474 -64.18576,130.8059 -60.83004,19.5121 -32.61509,-11.4802 -135.37891,1.2757 -112.70518,49.8775 5.30155,14.6794 72.34457,30.0037 66.02767,21.3202 15.38802,5.0689 35.33061,14.4403 52.45383,14.3022 z m -7.59947,-10.968 c 16.09467,-8.6974 -67.26554,-7.0962 -14.26072,-10.7824 13.62532,0.1147 53.74378,7.0443 14.26072,10.7824 z m 54.31568,-4.3493 c 12.46681,-36.4937 25.09455,4.5952 0,0 z m -58.95476,-9.9448 c -34.65989,-47.2031 32.28128,10.0414 0,0 z M 726.5,1093.0548 c -29.27572,-13.8609 25.62958,-24.8552 0,0 z m 211.1867,-3.5856 c -28.06792,-25.4301 15.86378,1.2825 0,0 z m -230.793,-3.1602 c -27.61359,-43.8524 28.94087,-18.1846 47.64325,-44.2028 -31.17927,20.8409 -25.83994,23.3808 -47.64325,44.2028 z M 803,1086 c -34.87756,-37.2063 41.94495,-6.8823 0,0 z m 26.59767,-5.6061 c -40.41654,-3.8175 9.16395,-11.6157 0,0 z m 107.21228,-3.9198 c -28.65858,-24.0362 -37.88459,-33.2462 -2.20029,-10.5769 -1.97579,-0.316 11.10565,14.9488 2.20029,10.5769 z m -63.1014,-5.8485 c -39.52696,-6.6784 15.04366,-6.2892 0,0 z m -40.25097,50.6874 c -12.17014,-19.1963 -25.91196,11.264 0,0 z m 625.52412,-4.8243 c 49.65,-1.0463 -27.1105,-4.9365 0,0 z m -613.49808,1.5378 c 14.99337,-6.2889 -22.99603,-3.8008 0,0 z m 301.57278,-7.2765 c 24.8511,-8.5601 -10.0417,-33.8878 -40.4668,-21.1996 21.8371,18.5164 -44.907,4.9724 13.3803,16.2001 7.7682,7.7528 18.0737,2.8887 27.0865,4.9995 z m -10.6538,-10.866 c -35.1916,-18.3135 -13.5417,2.4396 0.041,0.3137 z m -239.20551,6.8468 c 33.05288,-35.6399 -26.14102,15.2207 0,0 z M 331,1106.452 c -21.83478,-12.1371 -22.1307,-1.1257 0,0 z m 1214.7764,1.2666 c 56.0674,-8.1933 -27.3127,-12.8855 0,0 z M 1532,1105.0045 c 3.073,-15.327 -27.8474,9.2227 0,0 z m -263.4449,-8.1819 c 51.6353,-9.5182 -38.2513,-3.7009 0,0 z m -692.27249,-4.4516 c -8.58734,-41.8596 -11.2679,17.6989 0,0 z m 632.46739,1.2205 c -24.8514,-12.7595 -25.5364,4.8462 0,0 z m -40.4423,-0.1561 c 7.5872,-21.8973 -33.9217,-6.2012 0,0 z m 377.5185,-1.8472 c -16.4797,-16.0637 -137.8393,-2.4777 -52.8561,-2.2933 17.5961,0.7262 35.2355,3.1294 52.8561,2.2933 z m -322.5762,-2.1906 c 35.5035,9.6751 54.5723,-20.3821 9.11,-9.3603 -23.0195,1.4355 -65.5051,5.539 -14.36,7.0474 -9.9767,1.4258 5.4927,7.7622 5.25,2.3129 z m -994,-1.8626 c 39.83392,-40.853 -119.70263,-10.0913 -29.29975,-10.7382 -10.6168,5.4772 -33.24402,7.7293 5.98877,9.8344 l 12.13094,0.6439 z m -14.49233,-8.7698 c -13.45241,-12.8444 36.32653,5.6098 0,0 z m 891.50533,5.1326 c 18.9391,-5.4189 60.6308,-24.9817 10.5349,-22.8147 -29.2205,2.4282 -66.0969,1.8959 -15.8595,16.3534 0.8323,3.1328 -2.7908,8.8358 5.3246,6.4613 z m 13.3939,-13.0699 c -24.4994,0.032 -18.1707,-9.2207 0.4455,-1.9497 z m 356.431,10.7516 c -4.4393,-13.632 -38.9024,-3.6151 0,0 z M 101.28463,1078.618 c 18.0595,-11.0427 -39.620099,-0.062 0,0 z M 1160.5,1074.8308 c -6.7818,-10.1879 -18.5936,14.7148 0,0 z m 280.5,2.6327 c 30.2663,-16.6105 -84.2951,1.3188 0,0 z m -120.9847,-1.8449 c -14.9358,-26.9939 -46.3445,7.9998 0,0 z m 251.4284,-1.729 c -14.2855,-11.3319 -25.453,1.1211 0,0 z m -45.7737,-4.4008 c 33.9577,-5.7016 -31.9143,-1.8159 0,0 z M 624.94387,1069.25 c 10.14233,-30.0049 -21.5059,-13.7959 0,0 z m 857.34843,0.7131 c -26.6184,-18.6164 -143.0653,-1.0588 -57.334,-3.4144 19.1863,-0.549 38.2385,2.0362 57.334,3.4144 z m -1209.70685,-1.1497 c 12.45072,-10.2273 -37.83818,4.1653 0,0 z M 482,1067.0053 c -14.2699,-6.993 -21.61871,6.1788 0,0 z m 873.4182,2.3877 c -15.4099,-12.6539 -43.3366,1.9972 -8.805,0.2251 z m -71.6427,-1.192 c 17.8596,-11.1268 -35.6309,4.7828 0,0 z M 565.63837,1065.5 c 25.10014,-12.4811 -40.92527,5.0152 0,0 z M 1067.379,1065 c -7.2363,-19.3736 -24.088,11.3254 0,0 z M 989,1064.5 c 57.8335,0.7569 -67.67083,-33.6822 -9.05394,-3.3563 z m -501.43339,-0.4747 c 25.90755,-7.0623 -44.36178,-13.5896 -1.06661,-3.5253 -6.06924,-6.4961 -21.29972,11.957 1.06661,3.5253 z M 1042,1062.8776 c 10.6394,-10.4561 -28.1754,-1.1327 0,0 z m -734,-1.492 c 2.76082,-18.5845 -18.01,5.5411 0,0 z m 974.0297,-0.3376 c 29.4163,-3.7597 -37.2067,-6.8045 0,0 z m -981.69613,-2.6211 c -8.44788,-13.5491 -32.64789,10.7663 0,0 z M 1191.5,1057.4616 c -23.1316,-4.9172 -20.4097,3.293 -0.3649,1.5463 z m 273.9076,-2.1063 c 54.3775,2.9523 -64.7082,-22.129 -45.1739,-7.6369 15.1729,1.616 30.5976,2.7937 45.1739,7.6369 z m -393.6221,-3.6053 c -9.2722,-17.5172 -15.9368,6.2153 0,0 z m -577.27273,0.2707 c -5.06904,-18.3199 -31.20504,-0.5611 0,0 z M 144.25,1050.6755 c -2.04531,-14.5754 -32.34315,4.3246 0,0 z m 256.06848,-0.2879 c 38.46039,-1.1332 -24.59475,-6.7985 0,0 z M 645,1051 c 37.16366,-17.3567 -18.46517,-7.5363 0,0 z m 377.8008,-1.904 c 21.5133,-13.5464 -53.65797,-6.2514 0,0 z m -928.944037,-0.2057 c 10.079607,-10.8182 -28.235562,0.9322 0,0 z m 303.086527,1.7584 c -33.0698,-10.7857 -139.07048,-8.7638 -46.94329,-2.8388 15.35141,3.9425 31.29056,2.5297 46.94329,2.8388 z m -337.746076,-2.6894 c -14.048527,-18.0905 -23.629795,12.7535 0,0 z m 1425.424686,0.7258 c 58.5562,2.692 -34.6141,-12.1087 0,0 z M 778.45817,1042.75 c 40.58168,-96.31142 -30.09802,4.0985 0,0 z m -269.25831,0.1 c 2.61352,-15.912 -18.28011,17.5117 0,0 z m 472.562,2.4 c -22.73996,-21.0843 -33.65494,0.1765 0,0 z m -779.1112,-1.718 c 25.95663,-13.0704 -59.39625,-2.764 0,0 z m 350.83499,-1.7394 c 49.30462,-11.1985 25.09955,-15.5752 0,0 z M 174.5,1039.1168 c -26.73125,-10.9319 -24.0048,11.1982 0,0 z M 60.999734,1039.75 c -20.305514,-7.7557 -34.392456,8.7387 0,0 z M 661,1038.893 c 49.22299,-26.9292 131.45398,10.7609 120.10419,-69.11923 54.88749,-50.30892 -22.60112,-111.67959 -6.34912,-171.50714 -4.73621,-31.07324 -5.44038,-73.33272 -21.97036,-19.40052 -6.87728,19.92968 18.31844,123.32961 -11.56112,71.90647 7.49627,-24.52008 -26.60652,45.00199 -8.62768,-2.97504 -16.2475,22.01497 -35.76852,30.94826 -21.9357,35.28627 -45.34522,69.90833 70.49131,-125.6975 -2.62555,-60.11969 8.35436,37.37078 -13.42999,71.68072 -33.65481,107.54914 42.52754,30.00438 -105.73623,83.81234 -21.35582,104.08014 l 5.12137,3.9401 z m 27.36341,-113.75378 c 7.88707,-19.37727 28.36373,-22.22861 0,0 z M 544.24544,1033.25 c -13.57038,-19.1963 -0.87807,15.3033 0,0 z m -104.49534,-0.146 c 46.2298,0.87 -22.49389,-5.302 0,0 z m 121.31456,-3.1744 c 39.21835,-11.8307 -5.55427,-13.5999 0,0 z M 588.48578,1020 c 13.25324,-13.538 -34.66896,18.546 0,0 z m -52.68408,-0.1129 c -22.25065,-22.77455 -16.37338,7.2751 0,0 z M 545.5,1023 c 19.6342,-26.3805 -5.40885,-28.30694 0,0 z m 311.47271,-10.2905 c -8.98274,-25.08628 -15.52227,27.8188 0,0 z m -290.68993,5.387 c 13.17264,-19.20338 20.11837,-10.4377 -10.2272,-8.4688 -2.28321,5.6497 5.06061,14.0826 10.2272,8.4688 z M 501,1009.3125 c 5.34285,-47.80391 29.28073,18.4992 35.33515,-26.8684 C 522.53077,959.48849 460.83551,1003.356 501,1009.3125 Z m 42.01082,-6.7587 c 12.80376,-46.2494 -16.6392,28.8133 0,0 z m -89.03724,3.4321 c 8.09118,-30.5651 -26.20082,-0.8757 0,0 z m 30.55023,-0.3669 c 26.62867,-38.78904 -17.85035,-13.16932 -3.36149,0.079 z m 96.93389,-6.55056 c -5.67023,-25.3659 -13.79147,3.80316 0,0 z m 11.28213,-1.18155 c 3.54437,-26.26622 -12.82324,-19.01986 -3.47293,0.47037 z M 798.61288,997.75 c 22.05984,-7.88681 -17.29115,-7.03444 0,0 z m 58.04206,0.70683 c 16.90544,-8.81002 -7.10893,-22.12466 0,0 z M 598.67579,997.491 c 23.26066,-15.74881 -12.30349,-16.47859 0,0 z m 26.37387,-0.0167 c 8.35002,-14.85654 -37.60523,13.319 0,0 z m 225.45748,-0.83861 c 16.73584,-24.25838 -7.9895,-13.34436 0,0 z M 611.5,989 c 30.02452,-0.73323 -6.25215,-18.95097 -0.33399,1 z m -138.53896,-3.18856 c 25.55572,-27.49819 -24.42562,-0.33107 0,0 z M 591.25,980.75419 c 29.87772,-3.33928 71.69772,-39.79412 17.1401,-11.27444 -6.49927,4.61632 -43.36901,16.35399 -17.1401,11.27444 z m 295.38386,-2.33702 c 6.26695,-49.7981 -19.30175,-7.89529 0,0 z m -327.27988,-0.86942 c 29.9757,-44.74113 1.70206,-28.70969 0,0 z M 512,974.44777 c 3.13349,-12.0155 -24.50781,8.97457 0,0 z m 129.30952,1.09985 c 22.83077,-7.85911 -3.47379,-15.41311 0,0 z M 539.3377,971.73739 c 28.6852,-32.97774 -20.169,-16.88848 -0.38837,2.31036 z M 488.76972,965 c 5.81732,-20.43394 -18.93883,-1.83837 0,0 z m 109.85585,-4.59248 c 21.68586,-36.84019 -16.89196,8.57661 0,0 z m 55.89046,-4.74997 c 1.51745,-26.76913 -12.14285,10.37259 0,0 z m -45.01319,-0.6486 c 40.99107,-8.43796 12.16897,-32.15961 0,0 z m -102.65206,-0.10678 c -6.01932,-20.51005 -27.48325,-2.14152 0,0 z M 563.99503,949.25 c 22.13164,-36.1316 -20.87895,22.03147 0,0 z m -38.69537,-3.88548 C 586.07355,903.33212 629.59831,840.7662 666.18708,777.71091 626.8202,840.76776 572.77811,895.17474 521.82223,946.85565 Z m 359.11855,1.02849 c 14.55743,-9.2195 -12.88415,-26.10748 0,0 z M 516.53634,941.25 c 12.05216,-8.96307 -19.15087,-16.65344 0,0 z m 44.48134,-1.9594 c 40.85086,-34.48819 -5.07917,-38.62992 -7.10629,4.80646 z m 33.2182,-10.6182 c 25.69594,-34.79439 -6.41077,17.06573 -10.73101,9.3806 z m -57.81116,-3.91095 c 21.43002,-17.0716 16.89268,-67.7851 -8.87248,-32.77224 -29.1368,35.06182 54.42614,-27.05898 8.57302,17.12074 -4.86823,1.07704 -14.52127,26.89112 0.29946,15.6515 z M 884.07143,928 c 3.90737,-31.47939 -12.76815,12.55281 0,0 z M 628.7746,916.1605 c 31.62429,-24.88819 -18.75161,6.59596 0,0 z m -17.17979,-11.36738 c 37.31383,-40.44617 -18.72502,-5.55951 -0.89515,3.92619 l 1.64287,-1.9205 z m -49.05472,-8.9899 c 11.55512,-28.31257 -26.5117,40.09027 0,0 z m 30.74372,10e-4 c 13.34894,-27.12102 -27.67379,26.43768 0,0 z m 40.59745,3.56952 c 35.49903,-25.77678 -21.25164,-14.85981 0,0 z m 60.98709,-16.51479 c -5.29299,-15.34639 -15.28306,39.87295 0,0 z M 670,892.89301 c 7.57016,-21.8703 -24.60855,4.04673 0,0 z m 9.70269,-8.64301 c 50.13826,-59.71286 -30.45501,-4.68138 0,0 z m -114.77746,-0.6599 c -17.94194,-16.5604 -31.61113,-1.56072 0,0 z M 601,882.39301 c 43.96358,1.89533 5.66057,-36.48675 0,0 z M 611,877 c 0.4464,-21.56751 15.05538,5.6555 0,0 z m -39.75,4.60795 c 15.62438,-34.25319 -11.85732,1.48984 -12.84201,-6.41217 z m 65.55243,-7.62222 c 10.24877,-26.80432 -12.90064,10.63532 0,0 z M 654.43426,874 c 48.96643,8.17011 28.16075,-76.4965 2.06655,-19.13492 -2.9068,4.91566 -19.7018,26.09494 -2.06655,19.13492 z m -17.97524,-16.46963 c 48.84145,-48.64963 -44.45541,-12.65837 -7.6469,11.16566 l 4.7554,-2.44342 z m 12.55471,-1.56351 c -3.36661,-24.01527 -9.49274,22.01337 0,0 z m 105.97847,1.90887 c -1.05032,-86.84495 -17.48562,9.63772 0,0 z m -147.2916,-6.76792 c 1.86159,-30.25879 -13.54233,-13.60311 0,0 z m 127.57891,-5.46457 c 16.42389,-48.27797 -1.2547,-38.04909 0,0 z M 658.10695,841 c 9.39385,-28.78739 -16.28366,22.24114 0,0 z M 677,824.5 c 55.73053,-17.73452 -65.4745,-25.8873 -6.48652,-7.38204 l 5.07634,3.07491 z m -48.36469,-12.09762 c 39.63011,-60.10533 0.87436,-14.03311 0,0 z M 745,807.05902 c 10.21204,-9.75692 -10.43793,-20.76934 0,0 z M 658.53172,803.25 c 25.75292,-30.88308 -2.2537,-16.05678 0,0 z M 927,802.65499 c 21.8784,-59.35434 -16.73212,-21.81309 0,0 z M 651.46039,784.75 c 2.32677,-47.47102 -7.70382,20.93614 0,0 z m 5.50781,-12.13057 c 21.89956,-33.22486 7.35565,-27.64912 0,0 z m 513.9325,-67.20904 c -10.8836,-36.46813 26.2988,-127.103 -25.9499,-127.96437 -2.1253,45.78257 -16.241,143.11424 26.6467,153.62274 0.6016,-8.56261 -0.1326,-17.12217 -0.6968,-25.65837 z m -283.90916,19.08438 c 7.35579,-21.14818 2.17196,-99.45239 -6.0842,-30.63846 -5.44593,6.96179 -8.58496,33.12445 6.0842,30.63846 z M 706.49239,707.81966 c 19.61262,-23.4942 -11.40235,-4.55716 0,0 z m -17.73636,-11.65399 c 20.59813,-26.22824 -19.27026,13.70566 0,0 z m 122.67092,-13.89648 c 4.34647,-20.23675 -18.58773,22.91447 0,0 z m -73.00869,0.61151 c 18.59624,-24.54194 -2.8391,-18.0621 0,0 z m -16.22496,0.28938 c 19.36025,-19.3456 -10.66585,-11.36338 0,0 z m 75.86064,-14.45604 c 8.42344,-31.45043 22.80117,-37.50615 19.45841,-20.0941 17.98399,-42.63543 -12.77236,-69.34414 -23.15607,-35.0579 30.49621,-14.1029 -16.88265,29.19164 10.24931,5.02465 -15.69578,12.97071 -27.41337,55.10137 0.14807,20.82913 0.38777,8.71435 -14.87472,22.67077 -6.69972,29.29822 z M 727,668.08477 c 21.04024,-16.8041 -5.36295,-11.81942 0,0 z m 451.7454,-4.2743 c 52.8192,-46.57813 5.8263,-125.05287 29.8256,-184.40445 11.4334,-39.64785 -66.6166,-101.39813 -49.1796,-96.94188 20.6272,25.744 73.4692,37.4714 28.145,1.4946 -29.9574,-16.50571 -68.0555,-62.20851 -18.652,-15.26164 33.1304,35.66411 53.5427,1.02159 11.7587,-18.02271 -40.0824,-45.93431 -87.1609,-95.2106 -154.4966,-80.0941 -35.97405,-0.3549 -138.66199,-10.56523 -61.59625,29.14856 40.97955,13.60876 97.90215,4.06261 120.41465,50.57603 -13.1515,-31.93694 14.4582,-50.31523 3.1797,-8.35042 -16.2295,83.84981 126.2564,102.09741 86.3182,196.13852 0.5225,41.82181 -5.1648,84.53026 4.2826,125.71749 z m -476.85521,1.34374 c 17.99365,-26.34076 -3.78767,-19.42678 0,0 z M 1212.38,639.33043 c 48.4581,-39.69504 10.5574,-109.87295 23.4691,-162.6507 12.4231,-58.80276 -50.6752,-46.37999 -29.9986,7.43423 12.877,48.44938 -17.9898,119.6209 6.5295,155.21647 z m -319.08679,-0.009 c -12.69226,-13.74049 27.05593,-13.17647 -8.55269,-15.48656 -24.93518,-7.72953 -51.81295,-46.28302 -20.30325,-0.51713 6.01681,6.26677 19.67317,22.5058 28.85594,16.00369 z M 888,625.60868 c -15.25477,-29.39823 -25.97726,-12.52084 0,0 z m -142.11608,-4.20016 c 10.64319,-25.6583 1.10336,-51.92153 0,0 z m 26.56893,-17.75678 c 11.77223,-55.34675 -22.33787,-18.80882 0,0 z m 91.65727,-4.10985 c -20.81096,-32.60293 1.01951,21.38874 0,0 z m 267.03948,-49.58161 c -31.3345,-16.34605 -63.9712,-75.42152 -16.9538,-18.22319 33.2286,54.90286 28.8916,-71.72793 29.3691,3.3678 -9.1427,29.53597 40.286,72.37233 28.1028,18.34483 15.7495,-66.89474 -12.806,-110.60791 -66.1536,-146.57968 -23.5795,-68.95259 -80.1945,-118.6804 -159.17792,-98.18897 -29.58414,-2.1663 -52.4459,7.52292 -61.28856,-2.17628 29.35162,-7.23802 74.63463,18.83989 66.19458,-14.14091 -25.67048,-21.90566 -45.57271,-52.45738 -46.58264,-36.32768 -44.56904,-54.36744 38.76047,35.59615 67.86969,13.54541 85.77725,-23.48536 157.41575,17.1849 212.58705,79.45104 58.8355,16.46742 3.6076,-75.95021 -27.9398,-82.51477 -52.8928,-39.62879 -94.9191,-111.20665 -169.61835,-91.51432 -62.41454,0.84506 -78.64463,3.11784 -141.05815,4.04579 18.43068,19.18078 68.91284,58.7816 79.23212,72.55528 -54.65574,-52.56483 -135.67699,-16.38312 -202.47006,-28.28216 -71.18711,-1.59429 -45.73292,92.47091 -121.62767,80.21419 -56.05609,-12.98511 85.93706,11.07487 92.172,-44.18337 36.8551,-17.86409 42.13621,-47.82609 -5.08582,-30.46642 -98.15874,-12.47832 89.39692,13.09404 26.07809,-32.17399 -54.49163,-55.03927 -127.1487,-0.0942 -172.07168,40.88352 -29.45493,53.56784 -21.8351,163.09961 64.48633,152.29319 31.64415,-15.85079 49.55009,10.79785 10.50548,0.19666 -35.36174,-12.59427 -72.19614,4.27084 -21.01049,29.52807 73.26737,55.1976 78.9484,-30.66416 94.99714,-92.09771 21.47437,-19.64265 73.50727,-44.85532 86.10445,-21.27843 -48.03042,-25.06724 -136.48531,53.27353 -94.11791,79.4151 13.79267,-41.17503 170.49497,-10.87189 76.91514,-17.95465 -36.93554,5.15927 38.7634,67.28876 56.2833,25.20966 49.35297,-28.01403 38.77546,57.70176 76.7489,-1.52071 66.94573,-19.67989 170.95878,23.47407 152.17988,103.80928 5.503,37.76053 72.104,118.12378 95.5326,93.5011 -0.2459,-12.47369 2.4805,-31.2102 -10.2022,-38.73768 z m -526.1004,37.54816 c 19.44082,-26.80844 85.56743,-38.11937 21.93741,-66.89929 -53.4378,24.0873 -97.54298,-88.7274 -127.26022,-51.61104 10.37282,22.33711 1.4786,87.2017 -1.36306,28.94494 -1.91226,-32.81799 18.86314,-151.56382 -30.14059,-84.83826 -32.3853,60.21483 -0.858,131.13149 56.55971,161.45403 21.05399,16.62422 56.40334,32.67874 80.26675,12.94962 z M 867.74723,578.25 c 28.47059,-33.74507 -55.32073,-21.4705 -2.68538,-10.60295 -35.876,-10.65686 -14.93791,21.84905 2.68538,10.60295 z M 727.9549,551.73643 c 63.1252,-38.19463 -104.54337,-126.09481 -53.04924,-48.55517 15.68513,17.52812 31.07018,38.84031 53.04924,48.55517 z m 45.45405,-0.88375 c 1.92947,-31.49301 21.22175,-133.25161 -2.9768,-50.15276 12.43281,-9.81727 -7.73974,60.81565 2.9768,50.15276 z M 861.08179,554 c 0.51127,-24.86859 -34.38304,0.37925 0,0 z M 752.94742,509.25 c 5.32927,-21.59848 3.15337,-21.87412 0,0 z m -4.1753,-3.5 c 39.54801,-51.47193 -92.30044,-28.32881 -17.36326,2.67582 5.36255,1.19823 13.78193,3.40849 17.36326,-2.67582 z m 11.31121,-31.5 c 70.86622,-62.14825 -44.651,-152.85371 -90.17223,-75.51569 -52.33668,19.02127 -39.54736,51.79671 10.28233,34.9594 51.4761,4.11054 -42.60137,7.62783 8.64126,31.29848 20.67494,15.19783 47.66289,7.93184 71.24864,9.25781 z m -67.72487,-3.66292 c -4.10779,-45.642 -47.11138,-38.77786 12.20646,-0.26036 12.18527,4.67096 -23.59195,9.19862 -12.20646,0.26036 z m 140.34505,-15.41757 c 27.28102,-55.5889 -1.51591,-18.73583 0,0 z M 1235.849,418.10148 c 6.0813,-55.69423 -54.5176,-30.667 -20.6339,7.70379 9.8262,15.03782 31.8748,17.85498 20.6339,-7.70379 z m -440.46119,18.50671 c 16.46664,-7.47833 0.0301,-10.61116 0,0 z M 792.13814,425.25 c 27.75381,-31.03637 10.49396,-25.09516 0,0 z m 35.48728,-3.5 c 23.1611,-15.82941 12.05173,-21.53597 0,0 z m 56.99657,-4.91436 c 7.91402,-19.25755 -46.20512,6.45039 0,0 z M 809.5,413 c 22.18048,-11.01695 74.13775,-17.01511 19.60737,-18.32775 C 821.13021,397.39907 808.29716,402.27458 809.5,413 Z m -202.86084,764.5021 c 39.16913,-18.4044 45.07899,-2.2603 0,0 z m 295.86795,-0.209 c -29.90859,-4.0306 -10.79357,-17.2028 0,0 z M 906,1178.5567 c 7.32751,-26.8102 25.60083,-5.4813 0,0 z m 28.34851,-0.6082 c -1.26229,-19.7662 30.93399,-12.4034 0,0 z M 23.7,1176.3667 c -23.09668645,4.5961 1.463405,-11.3702 0,0 z m 320.90056,-0.7682 c 2.52356,-24.5001 36.31512,-5.2198 0,0 z M 8.960716,1173.4527 c -21.798928,-17.132 16.17471,2.0593 0,0 z m 54.077053,-0.9072 c -34.717071,9.1301 -81.184325,-35.4668 -50.355772,-53.2651 40.686892,6.9187 109.509323,-9.8942 34.208887,-15.952 -21.022018,-26.5253 85.704966,-20.4679 51.010621,12.6421 22.652155,6.8365 109.194545,5.3112 91.055315,22.6384 -41.5074,-15.4399 -53.24349,6.6728 -96.936203,-10.1374 -23.534843,12.9898 -2.462454,34.382 -46.358024,32.011 3.496711,-1.5652 46.057449,18.0679 17.375176,12.063 z m -29.471191,-25.6532 c 25.258375,-7.0368 -43.5213936,-6.2798 0,0 z M 20.881579,1132.25 c 10.784427,-18.1634 -32.165536,4.244 0,0 z m 54.682872,-2.3241 c 11.816204,-28.0147 -25.711477,11.8909 0,0 z m 15.853762,-5.5329 c 31.092727,3.9481 19.322017,-9.2224 0,0 z M 1586.1034,1172.75 c -33.1409,3.791 -61.8955,-20.6071 -11.6034,-10.7415 6.6335,3.3485 40.3725,-1.7048 11.6034,10.7415 z M 75.729167,1172.3958 c -15.528902,-4.6885 28.443563,-7.7015 0,0 z M 1015.75,1166.9167 c -30.15582,-22.5388 14.1242,3.7386 0,0 z m -314.75,0.031 c 42.44846,-13.5656 52.05325,1.8095 0,0 z m 327.8376,-0.2769 c -6.9616,-6.6115 27.3618,-2.8372 0,0 z M 118,1163.941 c -7.34843,-22.3353 24.78136,-24.803 0,0 z m 139.98469,-3.8865 c -15.3173,1.4806 -57.21672,-27.8363 -16.92253,-12.1791 -28.59801,-26.1044 -46.92544,-41.7822 5.5497,-42.3059 26.92488,-11.9136 68.7634,12.5317 17.48903,-2.3447 -16.49971,0.8019 38.15792,19.8647 0.81517,11.5051 -45.21122,-8.725 29.45088,1.65 -16.49752,12.0935 21.27686,-11.0673 34.24586,30.1092 22.52622,19.8895 27.84861,14.9419 -57.01986,-12.9763 -4.47996,11.4452 -0.19495,3.9832 -6.40662,5.9931 -8.48011,1.8964 z M 263,1142.977 c -21.91576,-26.0979 -48.923,-3.3393 0,0 z m -29.7309,-26.759 c -0.92033,-8.8121 -28.2826,6.5084 0,0 z m 801.031,44.0687 c 3.5794,-13.7113 21.9723,2.6113 0,0 z m 435.0003,-1.0367 c 16.0936,-23.1356 -70.4317,6.4131 -38.256,-28.9085 38.4316,13.7325 45.642,6.6853 7.5075,-8.7226 10.8781,-0.9451 58.3224,11.8225 27.493,21.1226 37.6536,1.1588 -13.1052,3.0697 23.0875,10.9333 l -5.9565,0.7117 z m -144.5504,-0.6969 c -47.4738,4.2734 -18.5795,-10.0075 8.6117,0.1159 z M 418,1157.4636 c -44.54063,-10.2375 -54.09133,-75.1112 -14.59507,-32.8938 -24.94924,6.8232 21.25671,20.2461 14.59507,32.8938 z m -52.69801,-1.8528 c -64.43233,0.078 23.33716,-5.7934 0,0 z M 325,1153.059 c -50.85636,-6.412 -13.88499,-9.571 12.61223,-2.0753 l -3.83614,1.8297 z m 131.74208,0.8565 c -20.84736,-7.4241 26.54097,-3.0741 0,0 z M 991,1150.6897 c -0.2454,-14.5908 45.3563,3.3365 0,0 z m 41.8008,0.7759 c -30.9769,-12.1359 67.9303,-0.6194 7.0763,-2.1406 z M 1065,1149.5 c 12.3197,-10.6144 26.9251,10.7747 0,0 z m 89.5416,-7.3752 c -1.0827,-15.8738 34.7111,4.2528 0,0 z m -59.0363,-0.1162 c -0.1943,-5.0796 -14.4561,-7.0557 19.1298,-8.3091 17.6879,7.7712 -14.8641,11.2538 -19.1298,8.3091 z m 215.9766,-2.9793 c -11.4801,-16.8249 40.5576,5.5544 0,0 z M 294.63837,1134.5 c -38.91883,-11.005 51.8361,-6.6987 2.49013,13.6947 -5.63544,-5.7118 5.68245,-16.1604 -2.49013,-13.6947 z M 1352,1134.9167 c -55.4508,-4.1433 -2.885,-21.2226 0,0 z m -771.33254,-12.1879 c -47.93479,-11.0148 -5.42443,-10.3559 0,0 z m -77.96427,-4.836 c -35.10673,-7.8288 38.77392,1.264 0,0 z M 9.6094913,1115.2762 c -46.6754073,-7.3576 27.8612077,-2.4895 0,0 z m 1396.0641087,-0.96 c -53.4858,-8.3067 -21.3558,-22.9658 -5.7414,-12.1033 -1.306,2.8048 18.6219,15.0913 5.7414,12.1033 z m -902.04155,-5.2699 c -26.69448,-21.278 24.78753,1.9855 0,2e-4 z M 1370,1090.941 c 20.6162,-16.6883 14.4283,1.9806 0,0 z m -932,-6.9206 c -0.0308,-15.7372 -8.67193,0.1484 0,0 z M 0,1047.0758 c 8.7078409,-10.5449 20.630725,11.0868 0,0 z m 1256.5617,-47.77233 c 13.8812,-54.18578 5.7362,-105.95855 -34.9784,-145.71036 37.7448,34.84327 64.2645,98.83229 34.9784,145.71036 z M 825.77725,563.19753 c 2.32564,-29.93039 4.55357,23.35375 0,0 z m 73.6061,-77.23977 c -54.52223,10.7052 -14.72934,-63.62274 -6.9249,-24.71517 6.77554,-23.41181 2.98922,14.7417 6.9249,24.71517 z"
         sodipodi:nodetypes="ccccccccccccccccccccccccccccccccccccccccccccccccccccccscccsscccccccccccccccccccccccccccccccccccccccccccccccccccccccccccccccccccccccccccccccccccccccccccccccccccccccccccccccccccccccccccccccccccccccccccccccccccccccccccccccccccccccccccccccccccccccccccccccccccccccccccccccccccccccccccccccccccccccccccccccccccccccccccccccccccccccccccccccccccccccccccccccccccccccccccccccccccccccccccccccccccccccccccccccccccccccccccccccccccccccccccccccccccccccccccccccccccccccccccccccccccccccccccccccccccccccccccccccccccccccccccccccccccccccccccccccccccccccccccccccccccccccccccccccccccccccccccccccccccccccccccccccccccccccccccccccccccccccccccccccccccccccccccccccccccccccccccccccccccccccccccccccccccccccccccccccccccccccccccccccccccccccccccccccccccccccccccccccccccccccccccccccccccccccccccccccccccccccccccccccccccccccccccccccccccccccccccccccccccccccccccccccccccccccccccccccccccccccccssscccccccccccccc" />
      <path
         id="path3723"
         style="display:inline;fill:#373b41;fill-opacity:1"
         d="m 376.35447,1201.5186 c -20.39027,-6.7926 44.47524,-0.5114 0,0 z M 1030.116,1199.95 c -13.8149,-24.6155 19.0784,-4.9714 0,0 z M 391,1198.941 c 27.27017,-10.147 27.46278,4.7765 0,0 z M 1106,1197 c -15.7168,-6.2283 15.1571,-3.8299 0,0 z m -21.6591,-3 c -37.4572,-10.1459 17.9477,4.019 0,0 z m -908.04638,-11.1469 c -32.45919,-5.8916 19.55305,-13.109 0,0 z m 1408.54018,-13.9094 c -42.981,-8.7058 -25.4395,-12.6841 0,0 z m -29.6446,-0.5002 c -4.6927,-11.9135 35.8003,8.181 0,0 z m -1295.78559,-7.598 c -63.94376,-32.444 7.9404,-20.8365 0,0 z m 246,0 c -27.9557,-11.6249 25.45419,-4.3163 0,0 z m 675.28169,0.5073 c -16.0126,-25.1327 85.0508,1.757 16.3586,-1.7845 l -9.7583,-0.076 z M 43.593992,1152.997 c 4.020967,-17.0873 10.138626,19.4604 0.07677,0.3922 z m -30.660823,-0.108 c 12.985701,5.916 29.86199,-7.1533 0,0 z m 977.431671,-3.1077 c -4.92435,-9.243 36.52356,2.7127 0,0 z M 402,1147.559 c -30.54777,-30.0397 10.80415,-4.9709 0,0 z m 1050.5,1.3748 c -28.9347,-27.2729 3.0067,-5.1074 7.0502,-0.9916 z m -1396,-1.2671 c -3.752506,-9.6239 -36.495747,-15.1133 9.202321,-8.2965 20.957908,5.6447 -4.654209,8.0944 -9.202321,8.2965 z m 443.45123,0 c -38.11201,-32.9692 49.21499,-10.0807 12.2334,-8.073 28.9535,12.2521 -21.22944,-7.8653 -12.2334,8.073 z m 678.65437,-5.8396 c 30.2201,-5.4058 47.5516,0.6955 0,0 z m 60.5888,0.1191 c -35.4558,-10.2673 14.1117,-14.2915 0,0 z M 15.25,1140.3207 c -17.5363677,-18.9731 41.291005,5.4996 0,0 z m 108.66668,0.1293 c 10.12577,-25.4958 -78.580473,-2.3927 -12.16892,-19.598 12.20944,-6.243 63.04556,3.7514 14.04387,13.4783 l -1.99016,2.7625 z M 699,1140.2711 c -15.65294,-12.1622 24.17323,-19.279 4.4178,0.144 z m 830.2556,0.027 c -61.3654,-3.8774 66.393,-3.9514 0,0 z m -570.51303,-4.1745 c 6.91145,-18.2749 44.90373,1.354 0,0 z m -50.09294,0.1927 c -47.50138,0.9009 -15.7096,-9.9264 7.53788,-2.265 z m 9.69972,-3.0817 c 5.36391,-10.792 25.26446,11.9438 0,0 z m -147.6057,2.1757 c -25.86799,-0.1 -68.33446,-11.6825 -17.43707,-4.9621 11.71374,-1.293 54.4057,6.5349 17.43707,4.9621 z m 28.24624,-0.9157 c -1.27628,-21.4406 -44.04869,-6.6572 1.02542,-8.2453 25.94609,2.4383 87.84872,5.8445 29.27356,9.1763 -10.3653,-0.6447 -20.10345,1.3267 -30.29898,-0.931 z m 614.65731,-0.1807 c -71.3295,-10.7773 -12.2751,3.3315 1.5887,-5.5049 l 0.025,3.8926 z M 27.789361,1133.456 c -49.922712,-27.3381 30.048116,-7.5843 3.102195,-0.9344 z m 655.663619,-0.9623 c -23.96154,-14.478 -48.76878,-20.5561 -4.85553,-11.648 3.36143,2.2764 7.60714,7.3113 4.85553,11.648 z M 1344,1131.8493 c -22.6429,-0.6207 -17.1786,-9.1217 0.2459,-1.8369 z m -117.0833,-0.2623 c -13.1833,1.3592 -39.6337,-7.0945 -11.1818,-2.4303 z m 22.4783,-0.7569 c -17.5391,-8.4814 -90.1501,-22.4881 -31.9461,-11.4163 -0.8711,5.6723 52.4718,5.7729 31.9461,11.4163 z M 230.63837,1129.5 c -9.28814,-10.2124 28.46679,-0.8089 0.22758,1.3354 z M 930,1129.9126 c 10.16943,-18.4173 31.4629,3.6155 0,0 z m 643,0.2908 c -31.3844,12.3674 19.302,-15.908 0,0 z m 21.6798,0.088 c -34.6799,-3.5612 13.5092,-18.5054 0,0 z M 57.010081,1129.1076 c -15.66963,-8.0717 17.922428,-6.782 0,0 z m 335.564419,-2.676 c -41.89596,-16.7598 28.18673,-5.1805 0,0 z m 765.7075,1.0292 c -33.5244,-13.4468 -58.8876,-25.0522 -4.3454,-14.6547 21.3842,5.0297 22.5247,14.088 4.3454,14.6547 z M 764,1126.0573 c -36.64777,-5.2241 -0.62423,-19.0697 0,0 z M 244.13866,1125.5 c -30.65752,-30.3935 51.66262,-16.4479 -1.40812,-8.6723 l 2.71801,8.1217 z m 394.59691,-0.098 c -44.6126,-6.271 -12.32027,-16.5005 2.37758,0.5341 z m 836.17663,-0.684 c 7.3152,-3.6792 60.8737,-16.2802 5.8706,-16.5764 -34.3353,1.383 32.2597,-13.8789 -9.9998,-14.8106 32.9694,1.9526 87.2676,-1.4717 33.7713,9.8067 4.9604,0.6278 59.7877,9.6902 14.0955,17.4578 -13.7408,5.7404 -29.5616,-7.0709 -43.7376,4.1225 z m -1260.87585,-3.1744 c -27.0692,6.2003 12.09462,-15.1479 0,0 z m 1352.32705,-1.5804 c -73.4163,-7.4073 74.6587,-31.5412 15.9045,-5.2439 9.2871,-11.9376 -9.0875,-18.2372 -15.9047,5.2438 z M 87,1118.059 c -43.406816,-14.6917 7.425328,-9.1788 0,0 z m 1184,0.2743 c -54.3147,0.9489 15.4501,-11.9361 0,0 z m -413,-0.4285 c 24.20731,-10.0494 20.82739,5.6139 0,0 z m -42.13237,-3.1521 c 4.93554,-11.6285 28.98229,11.4527 0,0 z m 528.84707,0.2642 c -10.0502,-22.8328 62.6284,2.7639 0,0 z M 578.59728,1109.5 c -16.62051,-2.0387 18.95597,-32.2 0,0 z M 88,1109.347 c -45.773923,2.7336 -46.761814,-30.2823 -1.958796,-17.3137 14.796516,-3.1587 13.151787,15.2109 1.958796,17.3137 z M 77.5,1102 c 28.69798,-4.9987 -39.685081,-2.7556 0,4e-4 z m 92.5,7.893 c 10.70166,-3.6728 -65.4076,-18.2844 -11.68245,-30.4025 18.50726,-2.816 39.91711,7.8025 65.38748,15.0601 -44.03243,10.7442 -63.95432,0.01 -41.74816,15.803 z m 6.43524,-12.9978 c 6.79782,-10.2042 -32.82164,5.6494 0,0 z m 259.13088,12.6155 c -28.88912,-10.8441 13.37131,-1.9463 -26.34388,-18.5491 12.62832,-15.4745 45.3984,6.7695 17.43129,7.9922 4.03298,4.5882 32.96388,15.2082 8.91259,10.5569 z m 250.72793,0.3833 c -26.55623,-1.2401 -56.50675,-39.4906 -15.34813,-8.1471 4.56945,1.8254 13.53135,1.7402 15.34813,8.1471 z M 1402,1109.8333 c -40.7151,-9.3953 1.1632,-8.2997 0,0 z M 13,1109.0565 c -49.005006,-15.6701 44.601008,-47.6606 3.122737,-27.9824 17.776371,17.5939 -35.64738,17.1383 11.308403,28.2609 -4.81115,0.1323 -9.806318,-2.8523 -14.43114,-0.2785 z m 1174.9945,-1.0599 c -51.9424,3.6113 -14.5133,-29.8553 5.8603,-3.9355 -0.8267,2.2029 -3.106,5.3366 -5.8603,3.9355 z m -199.9755,-2.2111 c 14.0228,-15.6889 -11.88788,-53.4582 8.26907,-15.5642 l -2.89096,8.3585 z m 94.981,-0.8661 c -23.7556,-10.6819 39.0707,3.4279 0,0 z M 1329.9605,1103 c -60.1166,-3.8373 26.0926,-12.359 0,0 z M 302.5,1102.2644 c -37.21373,-14.4976 -26.35425,-20.0269 -62.8454,-26.1552 39.69983,-23.5209 -106.65054,-28.6426 -38.74646,-14.1777 -31.87612,14.0582 -52.34025,11.8164 -82.11693,14.2704 -20.634757,-10.9197 -51.733274,-4.089 -77.569902,-10.4974 32.805116,-7.378 87.947692,-1.392 79.215872,-20.2332 20.73037,22.6775 91.08495,1.9002 19.18708,1.1581 5.42261,-12.2991 72.09251,12.4745 101.45278,-2.7448 39.57439,-7.706 -122.08599,-9.8388 -85.1181,-9.0956 -40.21539,2.2293 -71.02541,-4.6069 -102.833355,1.5356 -23.008179,8.08 -82.264329,-11.6451 -22.151524,-6.7402 89.011439,-1.0967 179.296379,6.1177 268.919439,0.7674 47.31298,0.097 118.18169,-2.122 150.42744,7.6504 -48.15398,4.4829 -96.90616,1.3919 -146.27081,5.8354 31.12328,6.0081 152.60127,8.2778 73.94987,23.2158 65.38528,47.2455 -54.40254,-3.3159 -59.94441,-3.7146 7.11251,-24.3872 -104.3739,-10.3138 -40.11945,-5.3459 47.39013,0.8473 -9.89713,16.7008 18.0868,14.9803 4.02425,8.4218 78.03265,11.9582 29.10422,20.4841 15.81428,8.1341 -93.82972,-13.2195 -22.09716,7.7428 6.21424,2.5884 -0.54481,-0.6812 -0.53,1.0643 z m 14.8472,-11.7275 c 17.64379,-11.7931 -23.71075,2.889 0,0 z M 301.5,1089 c 19.03482,-11.7499 -37.31243,-1.7095 0,0 z m 89.63112,-5.342 c -15.98795,-13.5562 -20.41876,3.0199 0,0 z m -111.10826,-10.8513 c -38.85705,-33.5139 -17.74874,22.3884 0,0 z M 342,1070.5818 c -1.91282,-13.1393 -24.7787,-0.2202 0,0 z m 31.85014,-6.1561 c -19.45945,-7.7611 -28.97552,4.9479 0,0 z m -19.41201,-7.7203 c -20.89499,-7.2839 -22.30673,2.7751 0,0 z m -126.78599,-6.2413 c 23.9976,5.1653 -0.82116,-8.5944 0,0 z m 66.88584,-5.4026 c 0.97448,-13.1448 -24.33797,1.9436 0,0 z m 270.72498,53.0487 c -27.03658,-7.3837 -21.30208,-45.2311 4.72695,-26.6039 -38.95209,8.2756 -4.29158,-1.1751 -4.72695,26.6039 z m 201.31559,1.0169 c -23.35776,-25.0482 1.51372,-14.0545 0,0 z m 458.85165,-3.4483 c -43.225,-2.1687 41.5199,-8.0632 0,0 z m -852.50915,-1.6416 c -38.38964,-8.9303 12.77472,-4.2496 0,0 z m 759.55965,0.3006 c -41.0307,-6.1869 -25.4602,-8.2456 0,0 z m 427.3528,-4.0479 c -43.4632,-3.5399 39.7921,-12.1526 -19.3089,-5.2554 -4.9404,-14.4635 -27.9988,-18.9222 -31.6114,-9.6157 -35.9431,6.3389 -51.8168,-4.4754 1.1981,-6.8706 -49.9437,-6.4033 -120.3637,-22.5543 -134.8625,-8.0355 -27.7056,1.431 -68.1265,6.7347 -14.6646,9.1732 32.1062,-9.4463 136.4895,3.7717 48.905,1.9682 -61.3035,24.2533 -94.7936,-33.0402 -145.732,-10.1808 -4.2104,33.217 -32.1645,6.9969 -33.2753,8.1725 -25.0099,7.0736 -65.1684,24.0719 -69.8258,-6.5771 29.8197,13.7017 51.9114,6.3264 10.3928,-0.9502 55.2274,-1.2812 -55.0162,-9.609 -49.2045,-8.9128 -23.0276,11.674 -88.658,2.7258 -26.0885,-3.0393 95.1978,-0.5396 -43.358,16.7283 -47.8587,0.6977 -7.4333,-1.1376 -62.09528,-32.0482 -39.0948,4.7553 -18.99864,-15.3748 -72.69005,-41.9681 -19.97544,-21.313 67.84444,-3.3378 137.09424,3.6155 204.50894,-3.3325 58.0319,2.0426 124.7253,3.2781 181.9905,2.9582 29.4184,-0.9421 134.0794,-1.4451 54.3501,10.9923 -34.9326,-1.7498 -97.3509,-7.1531 -33.6952,5.3902 32.0265,-3.1446 111.6656,21.6352 110.7984,-2.8241 -75.5733,-13.9654 43.36,-17.1 63.2401,-9.9528 43.946,-4.038 19.2706,35.9735 5.9834,45.1793 36.3554,7.038 -15.7292,5.147 -16.1697,7.5729 z m 12.2281,-13.7518 c -30.391,-24.6054 -84.1798,-3.9477 -20.856,5.296 7.6437,0.1003 20.9176,6.9659 20.856,-5.296 z m -178.2421,-2.8392 c -19.9785,-15.4453 -30.2372,12.2498 0,0 z m 167.6564,-8.4498 c 50.2436,-0.9558 18.2363,-11.1616 -8.4759,-11.8486 37.0451,10.7157 33.6942,-22.4467 -0.2987,-10.3408 61.4738,-3.9889 -47.4315,20.4651 8.7746,22.1894 z m -352.6669,-7.7435 c 40.918,8.6628 -17.9181,-9.7606 0,0 z m 126.441,1.4632 c 62.3982,2.8012 14.2961,-15.9199 0,0 z m -98.8474,-7.5009 c 21.5379,-24.5641 -135.9913,-0.503 -44.0799,-3.7744 12.7577,4.1936 35.2193,-7.7615 44.0799,3.7744 z m 41.8514,-1.7179 c 23.4366,-12.4424 16.7873,-0.2447 -1.7965,-1.3835 z M 1155,1046.6633 c -0.6564,-15.5859 -27.6722,8.2006 0,0 z m 192.8882,0.7676 c 27.1179,-6.6579 -34.7275,-1.8132 0,0 z M 640.99878,1090.25 c -23.71841,-9.0821 9.73513,-37.4765 -17.69726,-9.2593 1.52277,-31.4767 -1.65338,-22.0295 -18.72686,-21.4212 -36.15892,-13.4075 72.49865,-0.6146 14.68354,-22.4411 -41.23647,-16.9817 -31.0301,79.0713 -49.76813,24.8496 -28.2689,13.2231 -70.38366,5.7719 -96.40881,-26.199 -49.15497,-14.561 -10.86361,3.2666 7.55079,-8.7282 -26.54458,-8.988 -66.34054,-42.89343 -16.34014,-58.80873 5.68194,9.83999 -43.30992,36.39533 -6.20058,37.25893 -23.63793,-25.00056 36.90429,-17.97214 18.35434,-40.21198 61.67139,1.19027 -37.38195,-11.41687 12.67098,-17.94589 24.31109,-15.32408 51.02089,-95.44187 28.80406,-32.69229 27.27845,-34.8297 37.64395,-26.46976 9.21299,8.23684 18.11455,15.67745 42.58265,-45.83069 8.25531,-53.99374 35.4905,7.93261 69.94399,-62.06891 71.83289,-18.469 -11.82479,-33.35923 16.64395,-65.90421 40.81703,-80.13717 0.81047,72.77711 -75.33875,109.78571 -109.97968,164.02345 -34.10387,6.17912 -63.7274,25.62733 -12.42307,13.39765 C 587.00451,900.86464 637.5657,837.80967 670.88216,768 c -22.89428,48.2152 -21.33235,9.52228 -7.99885,-9.58875 -42.86716,14.60649 26.27726,-73.3429 37.98784,-107.48276 45.3758,-60.46616 58.46154,-133.72747 7.38882,-174.65433 -34.34551,-58.72077 -115.43899,-29.55168 -153.93547,-93.65475 -25.65546,-43.73661 -17.51454,69.97445 -19.25176,1.8097 -33.72076,-49.92952 -53.29454,82.68679 4.27045,90.1772 35.56952,45.12322 85.00098,36.15684 134.85235,39.2737 3.31975,7.58712 -74.74978,-11.74398 -23.06752,24.4087 21.28523,29.05927 107.10785,10.62816 30.15062,21.06628 -38.78121,26.60531 123.9855,37.68434 42.31574,39.29225 -20.31407,-3.71988 -62.73666,-51.50234 -72.03116,-44.92226 15.40651,-49.69548 -94.87254,-25.38811 -109.59508,-76.94662 -50.16616,-64.56862 -36.3912,18.8495 -39.95181,45.91505 11.61984,-57.48034 -31.33855,-130.88878 29.06534,-166.79799 22.2827,-48.79118 -30.38597,-52.35948 -46.85751,-14.44968 -19.63323,12.73624 -74.73736,8.3303 -89.81816,4.24099 58.73648,14.77673 144.31694,-11.32828 142.05901,-83.66741 -4.14701,-43.7379 2.63973,104.17779 -0.87019,83.52813 9.10413,64.96315 76.47821,23.70761 97.23438,42.79979 -26.70643,-8.20276 -92.81982,-0.94975 -38.57956,24.81605 56.23766,56.73136 88.23099,-4.42964 85.10204,-73.37459 16.77118,-27.16404 87.41775,-52.085 90.5359,-36.29067 -41.34916,-12.22903 -127.62904,48.98022 -87.93426,84.1768 2.00779,-41.96175 177.75043,-10.44096 116.91636,-17.65888 -34.99033,-2.74109 -71.6708,-4.609 -29.46071,28.08671 39.71806,27.02175 94.3345,-41.35513 120.00632,17.07453 43.84833,-11.2309 79.76933,-58.40206 128.22711,2.2903 38.6698,11.95153 21.2204,111.29667 30.9818,97.91804 32.8176,-80.77172 -57.19068,-99.21587 -113.26644,-85.22313 27.60536,1.56777 115.39324,-1.90243 48.65926,-33.30255 -56.93645,-32.2724 -58.52219,19.46325 -107.10391,28.06389 27.06368,-34.37194 -80.49989,-3.94428 -9.91311,-3.77683 -48.87031,-5.02252 -44.70817,79.03762 -60.66533,131.3975 3.89755,21.39164 -0.56192,14.19115 14.38164,34.06981 14.11659,10.8574 -2.26155,105.50703 20.975,41.67523 5.0152,-51.55295 -8.53302,-121.71494 -1.06579,-167.65625 1.61521,49.99222 12.93411,61.37362 6.82238,65.43965 C 855.73041,537.35636 893.28258,506.33368 884,560 c -6.56505,52.87706 56.92641,25.82362 36.37476,38.02975 -39.69849,10.42883 48.37656,66.18879 81.78544,53.86667 34.6969,-7.08206 88.7914,4.87014 20.6568,0.4388 12.288,15.82611 55.6996,62.4505 20.3761,21.85565 -27.8586,-38.43258 -126.04601,-30.53502 -55.46458,13.0144 25.47208,25.24616 52.25888,60.81863 9.9895,13.16206 -32.153,-51.89023 -36.6655,12.63983 -30.8535,13.03697 13.6742,-25.76028 -30.20072,-96.6377 -26.54312,-37.26997 -12.30247,68.96452 52.09372,109.35214 115.1581,92.00744 35.7433,-8.28834 63.2216,11.37851 12.2279,3.55227 -30.7528,6.56058 -125.38095,-13.50562 -61.3057,31.50078 34.0759,28.32947 117.9414,10.4274 124.4103,22.3102 -74.1662,-12.54337 45.8556,50.81649 25.7143,98.14861 -2.7293,89.32737 -5.4292,-110.23371 -27.5471,-28.38973 1.3143,35.36071 4.1258,95.59761 -5.3466,109.21 1.6146,-59.48863 32.3997,-175.51304 -55.4832,-182.45197 -79.90378,-1.81347 -137.27991,-85.44438 -125.907,-160.77176 -2.59535,-56.92367 -42.70434,-92.66351 -37.22875,-13.78682 -22.95445,47.48849 77.0655,127.74447 10.57055,155.76647 -12.32987,-31.19415 -31.54304,-48.47618 -23.84769,-1.64211 -16.57177,59.6778 9.43929,123.19526 0.97171,185.04917 -37.50464,14.76392 -66.14513,74.16182 -64.73067,25.51952 -44.17529,-44.81579 -66.3724,126.592 -56.4021,21.5987 -0.72808,-64.97522 60.32394,-117.97292 7.8159,-181.16286 -10.59611,-25.80075 2.50782,-147.47801 -24.87469,-78.36775 -8.48987,21.1007 12.94982,134.85978 -13.1509,70.94689 9.62902,-28.46133 11.00047,-117.62359 1.05632,-41.20515 -54.5831,1.90182 -23.25536,83.30952 -64.84968,114.50383 -10.62577,24.49443 12.49791,47.20922 -32.57685,62.72521 -39.5445,18.32744 -10.27694,74.06113 19.0616,69.22793 -11.56631,10.8567 -35.93937,18.8641 -23.05837,39.8268 z m -125.29844,-34.4643 c -8.45455,-33.1439 -22.96066,-1.6371 0,0 z m 262.87767,-11.9396 c 14.19534,-28.4998 21.33073,-72.70307 12.85446,-38.1915 -16.11411,-28.21886 -24.55511,52.9113 -12.85446,38.1915 z M 551,1042.7446 c 37.92192,-3.1175 40.05837,-25.6283 0,0 z m -49,-4.2722 c -2.16988,-26.9746 -30.30869,7.4338 0,0 z M 547,1037 c 54.02401,-15.5035 -23.71766,-13.9646 -3.98259,0.9929 z m 80,-2 c 9.28834,-13.9839 -39.40801,5.2325 0,0 z m -43.76462,-12.1962 c 34.16891,-19.7877 -24.95915,6.0298 0,0 z m -47.25069,-3.5538 c -19.06741,-21.65179 -21.29049,9.5956 0,0 z m 10.88334,1.5 c 24.67083,-45.45203 -16.89769,-9.2061 0,0 z m 56.8629,0.1719 c 1.0958,-18.5317 -19.29905,11.6578 0,0 z m -106.8294,-0.4828 c 28.99455,2.0557 -27.66751,-17.0674 13.3008,-6.6909 -28.18127,-6.2183 -14.79074,-8.0396 0.86554,-20.24366 30.6661,-7.9466 7.05054,16.00746 19.62401,1.62721 17.54816,-27.86069 34.79853,-71.21733 -8.07449,-30.50295 -18.80932,0.77845 -67.14883,51.1717 -36.16103,35.7273 -7.40622,1.3101 12.03886,21.6306 10.44517,20.083 z m 357.27027,-4.6067 c -0.0491,-20.66956 -24.8946,-16.39031 -13.96151,-3.5928 -27.47592,-17.34237 9.35618,22.2199 13.96151,3.5928 z m -288.75896,3.2841 c 4.76493,-19.072 36.1087,-14.5051 -1.90133,-14.0336 -12.11471,2.0093 -10.32709,17.4947 1.90133,14.0336 z M 538,1009.893 c 25.31416,-30.45497 -8.53248,-37.67514 -7.21828,0.107 7.74344,-24.79062 21.13495,-31.79407 7.21828,-0.107 z m 44.57943,-9.1391 c -3.55908,-23.40694 -17.76447,-1.25716 0,0 z m 285.11934,-6.30263 c 45.43965,-14.0078 10.15141,-128.34265 6.62035,-66.24057 -3.41801,25.69937 15.50253,-12.81007 -3.54877,24.06376 28.75978,26.05448 -38.74252,27.97778 -28.96451,40.31851 8.76289,5.14684 18.0931,14.32013 25.89293,1.8583 z m -272.11245,4.39459 c 24.80268,-19.96727 -39.64242,-16.1417 -5.48934,2.61384 z m 30.16368,-1.4857 c -4.48805,-17.02773 -32.02109,15.08534 0,0 z M 612,990.37756 c 31.85263,-11.18297 -13.47952,-8.95793 0,0 z m -26.4445,-8.46737 c 28.19566,-2.24045 98.79094,-41.00517 49.4445,-27.05456 -17.79938,8.66348 -52.9371,-3.98657 -50.59073,10.92788 l -0.65991,9.05928 z m -27.819,-2.55776 c 39.79524,-57.84751 -14.8008,-7.07197 0,0 z m 96.40554,-1.94022 c -3.51323,-24.99384 -28.91598,5.07133 0,0 z M 863,975.37756 c 9.45077,-34.89039 -12.91976,4.70755 0,0 z m -309.48219,-5.41151 c 3.05591,-39.77101 -7.42936,21.48517 0,0 z m 113.26313,-5.17888 c 13.39683,-22.59625 -20.51474,9.78629 0,0 z M 824.08179,967 c 20.90066,-27.5156 9.11569,-3.05993 -2.20816,-12.07064 z m -225.63223,-6.0498 c 26.90848,-38.07752 -23.55661,2.13436 -0.50288,0.15398 z m 11.78676,-7.15617 c 55.50154,-12.3022 -6.54339,-19.54966 0,0 z m -47.75171,-0.95708 c 31.86109,-35.66149 -17.47044,0.0584 0,0 z M 509,944.07143 c 30.83175,-31.37783 1.1024,-38.67003 0,0 z m 44.41667,0.17857 c 32.15465,-9.10505 32.44603,-60.6733 3.55305,-18.95806 6.63478,-0.0237 -10.56339,19.0124 -3.55305,18.95806 z m 35.86755,-9.91939 c 35.87031,-39.6536 -23.08066,5.41122 0,0 z M 623,921.5 c 34.97624,-22.77328 8.47072,10.75346 -4.03429,1.28373 z m 56.57031,-13.24021 c 27.40308,-18.26914 30.90735,-97.617 18.19115,-36.24211 -6.10535,4.38613 -40.09313,66.92149 -18.19115,36.24211 z m -46.93372,9.70362 c 13.35783,3.32483 24.6403,-23.92467 7.52664,-7.56423 z M 612.12972,904.3041 c 35.77273,-33.65038 -16.40302,-10.95174 0.34126,2.92583 z M 554,909.8939 c 18.70881,-19.49425 6.69744,-29.7843 0,0 z m 333.41274,-9.07079 c 0.3603,-13.70447 -12.55304,-42.76218 -4.14191,-12.39958 z M 590.36163,901.5 c 18.67993,-26.01636 56.63607,-38.42933 60.01843,-73.83143 -15.23033,10.90867 -64.79522,54.41384 -60.01843,73.83143 z m 282.03772,-0.25 c 20.06375,-25.94295 -2.33163,-31.41658 -2.33087,-39.53601 -2.86471,-14.4266 -12.92643,48.32453 5.62894,16.83648 2.27187,6.88697 3.34689,18.13432 -3.29807,22.69953 z m -238.22036,-1.75658 c 33.13523,-11.41372 -5.96719,-37.15294 0,0 z m -22.29499,-12.214 c -10.43936,-4.43984 -11.26676,23.53189 0,0 z m 58.95141,5.59635 c 3.75299,-25.21169 -25.8862,7.88417 0,0 z m 13.13365,-14.70757 c 34.27293,-36.45455 -10.66057,-20.49107 -11.52376,4.29489 z m -28.36111,8.0818 c 16.94561,-15.52707 -18.86504,-4.06772 0,0 z m -90.61709,-1.73899 c 71.84519,-51.49925 -67.22276,2.36465 0,0 z m 20.34352,-13.93599 c 0.64401,-43.32753 -8.95008,24.40749 0,0 z m 51.32641,3.80483 c 14.5781,-40.35508 -14.97079,15.65206 0,0 z m 15.64766,0.51596 c 51.47371,8.76953 12.86786,-65.21356 44.42314,-52.96316 -29.14424,-45.74478 -44.27605,8.29324 -27.31849,9.35227 -0.86869,9.99509 -36.33976,49.21467 -17.10465,43.61089 z m -6.38897,-14.13701 c 13.43485,-36.81824 -15.61802,14.87161 0,0 z M 859,862.5 c 20.89515,-21.33076 1.28938,-18.17982 -1.33249,2.42747 z m -106.63837,-1 c 10.11166,-36.32845 -12.82332,-59.65734 -3.09233,-10.01542 1.29627,1.70973 -4.66369,14.60019 3.09233,10.01542 z m 94.51649,-11.40351 c 11.79517,-32.63451 -32.02307,-11.82689 0,0 z m -190.94841,-3.65536 c 20.73709,-20.19669 -9.44067,-14.73279 0,0 z M 854.8,838.39388 c 13.55113,-6.37385 -9.23325,-8.63661 0,0 z M 822.1881,838.5 c -6.21576,-35.62418 -15.00014,14.21007 0,0 z m 42.23563,-0.37659 c 1.25645,-21.07573 -12.37108,-15.02906 0,0 z M 803.75,835.75 c 1.81445,-29.08081 -14.33059,-5.93033 0,0 z m 65.67302,-5.06201 -0.17751,-7.71579 z M 795,828.50295 c 5.61379,-31.16758 -12.64076,13.47379 0,0 z m -91.94349,-3.04385 c 15.07888,-25.87714 -13.22342,-1.76772 0,0 z m -79.59566,-5.83575 c 37.73952,-53.38018 7.04689,-26.81566 0,0 z M 649,817.11663 c 35.12126,-36.78975 22.55107,-57.32833 0,0 z M 639.17249,811.25 c 25.02204,-35.7731 -11.06042,-9.96756 0,0 z M 928,802.49769 c 21.54712,-69.49117 -33.79462,-3.25031 0,0 z M 659.18602,780.45126 c 20.04563,-20.91296 0.91756,-19.92048 0,0 z M 924.35037,773.75 c -8.24674,-23.4506 -7.91184,14.66491 0,0 z M 680.52254,760.03647 c 20.73401,-21.64681 -5.14227,-13.84478 0,0 z M 679.02762,747.25 c 8.69541,-20.42396 -12.71025,10.58393 0,0 z m 240.71467,-3.3351 c 14.09439,-23.08422 -17.04685,10.42294 0,0 z m -218.05476,-7.97679 c 10.0705,-17.23212 1.54054,8.27406 -4.98746,2.6171 z M 914,733 c 7.95293,-27.11354 -28.22946,-20.66204 0,0 z m -223.3863,-1.59474 c 35.44499,-42.03995 59.54214,-95.29321 62.58812,-151.0113 -9.79796,36.86874 -37.94976,119.83484 -63.70806,143.94152 l -1.68289,4.09176 z M 677,725.85644 c 16.50589,-18.00205 32.49327,-80.13267 6.07769,-28.37178 1.50061,8.44452 -21.39383,39.07612 -6.07769,28.37178 z m 207.97271,1.69454 c 11.64117,-18.90303 8.94346,-97.10144 -6.68261,-39.17327 -3.41822,8.30908 -3.81176,42.23196 6.68261,39.17327 z M 767.2928,723.3965 c 29.59031,-27.73923 -32.65514,18.25273 0,0 z M 721.99341,714.75 c 22.0365,-22.46363 30.94452,-81.21182 6.65965,-18.76333 0.11468,-3.03408 -13.7755,37.00135 -6.65965,18.76333 z m 42.75606,-3.00624 c 20.01605,-12.587 16.84415,-24.36931 -2.21958,-1.69368 z M 901.92971,704.95 c 3.4121,-33.54112 -17.41067,-27.04139 0,0 z m -92.80916,-19.61394 c 22.35833,-25.48735 -13.74461,-7.58097 0,0 z m -11.54912,-10.76463 c 11.81612,-33.51726 22.81762,-42.4385 13.5467,-7.21437 9.95712,-11.93585 25.71556,-72.84761 -5.78876,-77.68921 -30.32267,18.90145 -30.28011,69.50767 -7.81106,65.33215 1.9346,-0.27524 -9.47249,21.57285 0.0531,19.57143 z m -101.37817,-3.53685 c 34.31574,-33.67831 10.66678,-55.46385 0,0 z m 54.2671,-18.68722 c 21.22196,-46.26024 -1.19928,-25.47773 0,0 z m 136.27121,-10.26584 c 9.79415,-12.67251 0.10033,-6.02579 18.62976,-22.56294 -23.237,36.53658 -72.93253,-74.49497 -44.71606,-18.01858 43.97556,43.40297 -45.77224,-35.87768 -3.54387,15.43993 7.9753,3.69862 24.71518,30.71881 29.63017,25.14159 z M 765,616.17842 C 787.74516,572.05652 767.48419,456.62528 799.96445,451 c 8.86462,-28.83414 14.15583,-43.97798 25.30609,-39.24499 74.20924,-31.38497 -49.32375,-15.98218 -46.25014,30.49499 -18.25887,29.83869 51.98838,-66.10838 13.35741,-0.6865 -32.19585,52.34096 -22.52779,123.78808 -29.58263,176.95895 l 2.20483,-2.34403 z m 132,-0.0951 c 3.45184,-20.02188 -47.47844,-5.84776 -1.4226,1.84083 z M 872.29905,599.25 c 13.91895,0.50405 -23.6043,-9.17868 0,0 z m -141.2201,-3.5 c 14.49716,-16.07284 25.1734,-84.99733 13.78151,-65.08122 11.82861,-32.94167 -29.94587,37.22389 -5.56079,43.49064 -4.42075,5.61767 -14.90029,13.71494 -8.22072,21.59058 z M 856.07332,579 c 39.98601,-1.74909 2.29693,-3.04737 22.40862,-17.81303 C 865.37031,544.73345 816.17543,564.02684 856.07332,579 Z M 854,570.20512 c -17.41302,-9.14203 43.06803,-2.32725 0,0 z M 727.88976,554.50778 c 53.59142,-40.27944 -62.95414,-90.38381 -46.10875,-80.66352 109.64306,1.8832 -24.74032,-64.53912 13.13715,-13.12502 64.63992,74.57644 35.85268,86.04266 32.9716,93.78854 z m 135.33396,-1.41373 c -6.51316,-31.75007 -34.98929,7.58751 0,0 z M 752.54213,515.93183 c 15.48405,-57.41474 -2.40535,-26.32498 0,0 z m -3.47955,-9.62144 c 47.22702,-44.23516 -89.90195,-40.033 -23.40164,-1.46476 6.13434,5.37019 16.93843,8.33681 23.40164,1.46476 z M 760.6316,472 c 65.81814,-51.61342 -32.42222,-147.65136 -83.17319,-83.13865 -25.33014,14.31434 -18.66011,59.20558 42.74018,45.07216 29.81326,-4.88584 39.73661,6.98115 3.52432,4.92544 12.38313,36.76662 9.18217,41.92089 36.90869,33.14105 z m 63.96036,-45.5 c 35.53337,-19.76887 19.70879,-39.549 0,0 z m 447.15454,662.649 c -17.1947,-29.7618 47.492,-4.7686 0,0 z m -130.8625,-3.0657 c -42.2183,-6.3563 39.5065,-24.1899 -10.1991,-8.1814 0.3116,-4.24 23.7412,10.8955 10.1991,8.1814 z m -89.7173,-0.1879 c -4.3375,-11.7225 -57.36169,-38.4709 -25.2238,-29.2001 17.7201,3.8242 36.9808,13.6055 25.2238,29.2001 z m 299.9493,-0.038 c -26.1406,-8.6158 30.9199,1.8338 0,0 z m -548.866,-0.9943 c -21.57038,-33.2128 18.94173,-2.7409 0,0 z m -280.85171,-1.4583 c -46.10181,-2.1529 32.20213,-5.6369 0,0 z M 1431,1081.432 c 24.5348,-12.2664 15.3265,8.1453 0,0 z m -90.8,-0.632 c -25.9651,-4.9091 22.4871,-6.4976 0,0 z M 44.48361,1078.9735 c 9.296445,-13.039 59.2897,-0.2581 0,0 z m 434.26089,-3.3825 c -18.77232,-13.9919 59.52512,4.712 0,0 z M 1267,1066.9969 c -2.7331,-20.6642 11.8762,3.4141 0,0 z M 1.25,1065.3749 c -0.2056749,-13.3872 29.481192,9.4636 0,0 z m 707.55543,0.2673 c -19.28214,-10.2833 21.48857,-1.7593 0,0 z m 210.49541,0.8438 c -10.44156,-16.2414 16.03772,-2.6141 0,0 z m -194.35261,0.014 c -15.61778,-6.9268 22.45602,-17.7671 1.80043,-2.7612 z m -633.215873,-8.4155 c -26.60329,2.4011 -61.662886,-12.8021 -14.478008,-8.1427 8.104338,-4.8896 39.675201,10.6414 14.478008,8.1427 z M 424,1059.1213 c 9.91036,-14.3907 16.914,1.035 1.20146,-0.8733 z m -400.268126,-2.7228 c -83.006284,2.5765 64.563423,-6.6675 0,0 z M 0,1047.5118 c 12.055949,-12.3396 15.278987,10.9512 0,0 z m 75.989431,9e-4 c -41.629655,-5.1491 19.929894,-7.6214 0,0 z m 869.673369,-0.076 c -58.60345,-26.1143 64.3076,-0.757 2.13549,-1.5315 z M 201,1045.9784 c 28.32946,-9.9733 24.91497,2.677 0,0 z m 462,-3.1475 c 35.64792,-28.645 44.96731,-4.7655 7.96969,-0.7084 z m 201.37521,-5.0372 c -21.12221,2.8369 -39.57627,-11.881 14.24435,-2.7256 z m -140.9455,-2.155 c -54.4611,-12.493 85.80602,-7.3558 22.12934,-9.6387 -6.47038,5.4599 -16.1661,3.4306 -22.12934,9.6387 z m 536.14549,-36.3095 c -1.5073,-29.47066 10.2531,-112.77871 4.4022,-39.58421 -1.956,11.88439 20.5046,40.65621 -4.4022,39.58421 z m -69.7141,-6.69109 c -6.9653,-75.08109 6.8054,-150.97495 -1.7712,-226.20116 -28.597,-29.36395 1.0919,111.52244 -17.5305,83.15669 4.2977,-52.59268 12.2889,-106.55126 -28.6032,-144.29215 19.8946,-56.14346 -120.2041,-84.99905 -97.3545,-112.24103 18.6289,30.14022 124.3452,114.57229 90.5506,36.3104 C 1079.321,588.32382 1031.675,509.62597 953.60848,524.8456 c -39.70187,1.49574 89.42122,-9.97298 47.01942,-13.90639 48.3114,32.28955 94.1021,95.5346 140.9931,112.72008 28.3735,-51.86465 -45.4711,-102.94743 -44.9451,-113.48665 16.1673,23.4411 52.8399,61.17869 46.8429,5.94627 -11.243,-29.96468 16.4915,112.2983 29.2202,37.95486 24.907,-78.01392 -32.0689,-117.05058 -79.7962,-164.95048 -3.163,-28.26683 -49.6747,-79.46572 -49.6952,-74.2375 23.9078,28.54097 47.471,43.74047 47.7722,-5.42854 -13.6854,56.74025 7.1788,99.99858 58.2634,126.25725 54.4663,64.3221 10.6293,151.90854 30.9314,224.7422 48.737,-46.04916 13.7239,-145.79676 27.2645,-212.44347 17.8147,-37.29899 -88.7813,-87.95987 -15.8727,-44.31052 59.3161,7.67818 -92.5909,-87.69836 -26.953,-41.31391 28.2354,29.28606 66.4169,24.21476 21.0896,-12.82845 -52.2071,-65.88872 -132.0171,-94.98214 -213.69668,-80.47335 -48.79247,-10.46109 -33.25258,20.33665 -7.1831,38.64692 -16.65418,-17.74321 -40.61058,-44.03206 -49.35426,-45.39508 -25.13992,-28.06316 -34.67755,-35.31981 0.16729,-6.65114 65.84367,40.3364 157.65385,-23.45001 213.87935,40.52774 23.442,42.46493 114.4742,94.37034 72.8292,8.57917 -40.4098,-40.53561 -89.0501,-72.06169 -127.9031,-114.58622 -49.8721,-34.93803 -71.9896,-4.59443 -129.06961,-12.56301 -10.5353,-1.58953 32.01743,-4.11247 60.19881,-5.31508 82.5289,-8.66346 126.7752,82.0336 188.9729,123.09369 24.4408,32.27552 19.3319,85.55383 48.472,124.14908 -5.8834,51.93265 -12.4121,195.53081 -7.0686,176.66777 -10.1778,-48.53094 31.3599,-148.56746 -26.3426,-163.39198 -1.7024,63.01368 -2.9544,126.91485 -4.3132,190.49028 -2.0988,40.70525 52.4859,-13.71961 12.636,12.34233 -41.5896,50.83702 50.2322,77.1019 27.1309,132.66021 13.6272,23.86041 -9.7345,82.82187 -2.6976,28.21109 14.0534,-37.88006 -20.6246,-155.93437 -62.4951,-123.64084 -36.9995,72.33551 67.7376,105.40509 36.9352,180.05778 12.5756,29.51261 -13.5609,108.18839 -0.8009,37.31239 -4.0901,-32.04342 16.2636,-125.79207 -27.7647,-113.1694 6.7368,64.46955 1.8877,130.6019 3.3224,195.84929 10.5549,0.94513 11.1756,25.32971 -1.7365,19.67612 z M 1173.145,705.85596 c -11.5452,-40.66965 26.1233,-127.92638 -27.0337,-136.73784 6.7432,50.38072 -26.4802,134.70461 27.2499,162.1439 0.059,-8.46965 -0.091,-16.94006 -0.2162,-25.40606 z m 65.2479,-288.04666 c 9.4654,-48.33529 -56.4862,-36.60515 -24.424,4.94556 15.7029,7.83563 31.3492,34.05443 24.424,-4.94556 z M 541.55827,916.90572 c -19.19277,-10.91846 26.57166,-10.09142 0,0 z M 1259.107,901.1004 c -18.5698,-16.7962 -50.6946,-68.68172 -15.0318,-21.77202 0.8738,2.105 34.5786,41.08774 15.0318,21.77202 z M 636.15855,728.96512 c -59.99183,6.86749 -82.19902,-60.46871 -145.33459,-51.8332 -65.0417,-33.35639 -97.56363,-82.71356 -94.86979,-154.16929 -25.99676,-1.73278 -6.94854,114.00307 -18.51296,114.1915 -10.2723,-50.56995 34.11405,-123.22588 -23.61311,-154.56142 10.55342,-34.03118 -2.12899,-126.0179 6.11841,-133.12112 -3.43943,42.60461 -5.84272,103.63725 45.72544,118.178 -34.12817,-49.52285 -70.21982,-5.21908 -33.94194,31.27837 32.75292,54.7098 44.6515,-62.64617 30.83033,0.93057 -0.72704,23.3243 45.64894,66.76592 8.88287,34.43105 -37.77093,61.92926 31.56925,104.5644 74.20051,139.4999 26.18902,19.98387 128.03791,-0.002 106.78583,11.24287 -77.24646,0.38317 69.3082,80.40389 98.90446,28.84249 23.7042,-15.69964 50.73753,-51.69655 17.28537,-8.0632 -15.22285,13.87553 -50.44536,28.80496 -72.46083,23.15348 z m -103.0284,-75.21569 c -15.45419,-15.98283 -78.92412,-89.46037 -74.2509,-31.34663 -10.09299,-67.14765 4.89413,-137.95631 2.29988,-203.74391 -35.23346,1.30618 -75.61475,9.84415 -18.13645,0.22033 36.82494,-18.417 35.41661,-28.66382 17.32359,12.09857 -20.28214,73.36804 32.30504,134.587 94.08222,162.30944 35.05097,19.80506 105.61462,-56.06592 52.94518,-4.65892 15.52463,7.9455 74.24553,1.18244 30.5742,9.84917 -67.86089,10.64609 -122.33973,-23.01516 -170.92191,-69.41596 -38.19542,29.31078 22.30116,116.21485 78.06279,93.34732 44.96571,4.32428 126.47442,-6.32445 151.39967,1.29281 -60.38637,4.39848 -124.80061,-3.6827 -186.90017,3.01519 1.09843,11.94041 55.8893,19.7474 23.5219,27.03259 z m 463.41537,-24.89562 c -26.0652,-5.988 -83.07464,-2.99333 -25.2852,-4.80066 5.5231,2.67874 46.69668,-9.98365 25.2852,4.80066 z M 1134.4803,601.8105 c -26.711,-18.88176 -111.2777,-93.05669 -43.331,-37.73002 9.2731,9.56206 47.4324,33.30895 43.331,37.73002 z M 852.10076,518.0012 c 2.10001,-0.62506 12.75111,-0.42782 14.12634,-1.9198 3.90544,-4.237 1.58185,-11.51142 2.88704,-11.63054 2.41276,-0.2202 0.3305,8.95722 0.1862,10.55556 -0.42853,4.74673 6.5532,-0.24061 9.917,-0.17667 -8.14995,6.38168 -18.17494,4.92891 -27.11658,3.17147 z m 16.34462,-15.35091 c -12.10388,-7.08171 16.73391,-5.34221 0,0 z m 70.94089,3.5844 c -2.24779,-33.8535 86.14823,-1.47483 2.25897,-12.60031 -13.29875,1.73756 3.00458,-4.29481 -2.25897,12.60031 z m -49.46139,52.30635 c -3.55871,-41.57775 3.93991,-54.17286 1.87626,-92.43406 5.39629,-1.92469 8.51132,74.51695 -1.87626,92.43406 z m -11.96383,-79.70036 c 5.69865,-15.58585 14.49862,0.5186 0,0 z M 336.57462,343.50835 c -14.75498,-21.6266 31.1857,-6.16296 0,0 z m 14.89913,-15.8994 c 22.589,-15.66596 106.402,-69.54575 28.90686,-54.53318 -26.0233,-6.82651 76.59642,-2.40095 81.8541,-1.22563 34.5349,8.32259 121.49704,-74.52728 53.04671,-19.91029 -12.14684,20.04839 -83.64337,55.62469 -37.29087,21.62567 -54.53702,-16.64426 -87.89996,31.31289 -126.5168,54.04343 z m 521.09768,-13.18038 c 9.74819,-27.77749 97.2669,9.34246 27.1037,-4.53375 -9.21125,0.19353 -18.22569,2.26917 -27.1037,4.53375 z M 578.28359,301.78033 c 52.86425,0.24002 127.78579,-26.22194 146.36583,-79.0084 -21.13806,5.22118 -102.71628,1.00979 -38.37495,-1.1117 58.81551,12.9941 48.74378,-23.93998 8.81816,-45.27594 44.75984,68.03124 62.83565,39.73919 128.81133,46.50743 41.55273,9.0701 75.11735,-13.19194 23.35812,-38.28274 -3.17878,-16.87955 61.20165,53.92681 81.25273,72.22163 -48.9385,-63.25429 -139.52584,-19.13566 -207.59012,-33.25484 -67.64361,-3.218 -40.96787,89.69276 -110.03035,74.10706 -11.00609,-1.39635 -22.15137,0.7767 -32.61075,4.0975 z m -19.87656,-80.57451 c 23.98315,-13.42644 93.45247,-61.52662 21.99786,-48.08991 -98.86657,-3.36879 119.59348,-0.56714 60.47739,-1.46072 39.79672,2.94954 53.36168,-3.44449 7.76988,0.0434 -34.53025,6.73906 -90.24513,83.67761 -90.24513,49.50726 z M 708.36163,183.5 c -1.12364,-22.95059 88.34837,4.14149 21.09428,-4.59783 l -11.50037,1.27176 z"
         sodipodi:nodetypes="ccccccccccccccccccccccccccccccccccccccccccccccccccccccccccccccccccccccccccccccccccccccccccccccccccccccccccccccccccccccccccccscssccccccccccccccccccccccccccccccccccccccccccccccccccccccccccccccccccccccccccccccccccccccccccccccccccccccccccccccccccccccccccccccccccccccccccccccccccccccccccccccccccccccccccccccccccccccccccccccccccccccccccccccccccccccccccccccccccccccccccccccccccccccccccccccccccccccccccccccccccccccccccccccccccccccccccccccccccccccccccccccccccccccccccccccccccccccccccccccccccccccccccccccccccccccccccccccccccccccccccccccccccccccccccccccccccccccccccccccccccccscccsscccccccccsccccccscccccccccccccccccccccccccccccccccccccccccccccccccccccccccccccccccccccccccccccccccccccccccccccccccccccccccccccccccccccccccccccccccccccccccccccccccccccccccccccccccccccccccccccccccccccccccsssccccccccccccccccccccccccsccccccccscccssccccc" />
      <path
         id="path3721"
         style="display:inline;fill:#282a2e;fill-opacity:1"
         d="m 514.73784,1069.4045 c -6.94773,-14.4992 20.33821,-6.0166 11.58884,-6.4046 22.59244,-8.4874 -4.22639,7.534 -11.58884,6.4046 z m 2.68359,-12.0889 c 1.45516,-26.1331 13.0803,1.8468 0,0 z M 538,1051.5 c -9.52652,-16.6789 -18.90767,-30.8468 -16.25,-28.5965 33.75632,7.5398 -7.6851,-30.17621 -5.84984,-5.4039 0.3362,7.9899 -3.32455,-10.0606 -4.51003,-12.2452 -16.60856,-19.87008 7.7862,0.07 27.87206,6.8881 -13.42032,24.3185 5.76111,39.3621 30.391,31.6457 -10.71398,3.3808 -28.01541,7.3999 -31.65319,7.7118 z m 42.50072,-6.75 c 22.39925,-23.6432 18.16576,-12.5184 8.74834,-18.2704 14.47329,-2.9553 7.49343,-15.5686 14.25094,-14.5238 -22.96102,-10.3945 6.68322,0.3586 -11.07742,3.5686 -8.75047,-6.3475 -17.45732,0.4822 -16.42258,2.5073 -23.81567,-3.0691 16.26205,-16.4191 36.21125,-17.1831 2.44714,27.8442 -10.34474,23.1516 12.69579,26.1517 36.47052,33.6094 -13.1807,-4.4765 -1.15648,1.4294 -25.96116,-0.3963 -25.86703,6.2832 -43.24984,16.3206 z M 555,1034.8987 c 29.22544,-13.0861 -1.13689,7.5873 0,0 z m -9.77345,-4.0791 c 1.42518,-24.0037 17.90319,-23.8273 11.64093,-1.7925 -3.29272,-0.029 -11.04528,6.743 -11.64093,1.7925 z m -43.35155,0.3647 c -26.52402,-17.3653 -31.59329,-27.0033 -3.875,-5.5169 2.28725,2.957 14.34348,8.0847 3.875,5.5169 z m 348.74306,-9.7404 c 26.10316,-27.64003 -8.99727,-12.0258 -16.60275,-28.57888 -13.85766,-0.55411 -22.99805,-8.0486 -16.31402,-0.53344 -6.71137,7.07487 19.1687,36.32072 -7.29786,5.87057 -18.60589,-25.23772 53.09886,-38.56396 22.48633,-60.1232 8.99595,-12.05185 -33.72709,-38.49694 -5.48827,-0.40276 -1.30932,11.36409 -14.9954,2.75865 -13.83867,17.02207 2.79209,-15.22312 -23.42697,4.6513 -13.06278,10.66337 8.88112,8.33398 -10.85501,3.4627 -0.50004,16.63837 -14.35666,-8.9408 -10.85399,13.23012 -20.99996,6.61803 7.86866,-15.13854 11.28309,-23.16877 20.69557,-38.9963 C 815.07766,927.3711 795.81864,897.25489 791.00535,872 775.87523,857.92354 766.76767,771.52918 778.02292,809.01416 c -12.272,-13.08808 -1.05927,-43.71992 -2.25277,-64.31716 -46.42121,0.41045 -9.77959,168.74006 -24.11584,69.803 -11.93478,0.4746 3.23215,96.15473 -6.19851,27.02343 8.4113,-40.63347 -6.23838,-77.21785 20.76266,-104.16096 13.99138,-19.72596 6.44317,-26.271 19.12207,-41.55667 17.38172,-11.14543 2.4192,-2.45239 5.06107,-17.18889 -6.78916,-21.84113 -10.70939,-17.20705 -17.41787,-11.10683 4.1077,18.24952 -27.64804,34.275 -9.73219,16.68183 4.51893,-17.13699 -2.82127,-2.79255 -16.17338,4.87936 7.05552,11.58759 -14.84815,21.83112 -8.07766,29.96013 -8.86389,11.76917 -21.65511,13.85777 -26.83056,26.57363 -9.06863,-5.74096 10.72039,23.34128 6.58007,16.18881 10.80823,5.33064 -1.26012,14.29137 -9.96186,0.27504 -8.02564,-10.81038 3.6656,16.44962 0.14791,16.68115 3.18055,23.76555 -3.4085,0.23112 -16.55748,-2.4695 -2.53179,0.13201 -25.32,5.16622 -3.51933,9.46947 10.10242,-2.84313 32.01645,31.91181 18.53598,21.9389 C 687.31047,781.58454 678.36322,800.89821 679.9818,790 c -8.75025,5.49347 -4.96211,11.65948 9.9864,16.30901 16.82116,10.49439 -32.74628,-11.14187 -22.9682,-7.01926 2.01621,-4.98505 15.61942,-19.49464 7.74843,-27.28464 3.63076,-8.56523 27.47078,-49.54524 -1.28786,-11.00535 -1.49496,6.05582 -7.92054,-20.40344 -14.12282,-8.5123 C 645.45885,769.67493 651.33682,736.38929 661,732.5 c 17.562,-48.74331 -7.04998,26.5675 16.79412,19.96003 18.71396,-48.37847 7.45639,30.28976 30.86233,-15.91291 17.35464,-23.64869 34.52332,-47.49531 41.48942,-76.62882 12.37332,-11.47702 3.59271,-5.79937 10.12705,-21.10788 -0.92926,-24.66155 23.03454,-40.81691 28.01745,-62.28257 18.12024,6.96653 -50.42368,73.55414 -13.46122,67.4596 -14.86181,9.89567 -12.99699,19.09777 -1.41906,10.86713 4.21146,4.84416 13.56929,-7.23347 18.18109,3.21946 8.57186,-4.21437 -8.55509,29.65806 7.31689,17.02004 15.32556,-33.37617 -7.01957,37.51636 4.55804,18.40592 -14.5658,41.96593 33.42985,-78.13621 18.66923,-25 17.8808,-49.00858 -13.19921,35.66521 7.59825,9.24387 6.18939,20.21072 -8.87604,23.06328 -19.24404,16.15254 -1.66893,5.85936 11.50955,16.25515 16.42418,27.8364 -2.71827,6.82269 -31.83816,2.54417 -6.3886,27.60857 11.19754,7.0744 -4.23368,5.03829 -1.67562,17.16811 -9.24602,-4.51854 -11.08624,33.6997 -2.54261,26.39738 -16.14266,9.76723 32.22108,13.08674 28.1931,15.45473 -6.16636,22.8913 27.76948,-14.40211 28.42101,-20.99329 -8.86752,5.67118 -39.80966,15.67855 -23.42101,2.63169 0.67864,-9.58803 25.73275,-20.09766 10.16031,-19.67303 -6.315,3.04303 -20.01112,19.61891 -31.82461,10.00875 1.25664,1.30212 16.03891,-25.62287 9.33558,-40.68075 -19.45959,-4.89207 3.79261,-12.01567 4.82874,-23.55063 -2.54779,3.80018 22.49223,-3.15607 7.09684,-8.66421 -18.83973,-3.07688 -4.95694,-18.26071 1.44239,-32.37836 9.83872,7.10305 -5.48282,-19.25642 -6.7798,-31.0602 -8.89677,47.078 -8.53767,4.3946 1.25701,-20.79952 8.38419,-2.68148 -3.81898,25.45958 11.96491,32.47634 17.58943,11.75267 -20.84243,-40.06904 2.95982,-17.48741 -18.0184,-30.41352 5.72262,-0.32814 3.44698,-9.62185 8.70024,7.19189 38.61105,23.18482 33.61183,21.43087 -3.76377,7.31292 -22.01745,14.28278 -17.26609,27.32077 -1.62881,14.50384 -14.98158,49.63733 8.94493,52.10975 9.22537,-30.00814 9.05943,-8.81949 17.12116,3.16852 -14.69532,1.48179 6.23692,19.42375 -3.71483,28.49324 5.84163,26.67124 -18.72332,-24.133 -16.70327,22.71659 4.53855,5.78286 8.93106,59.68277 -0.82426,31.36514 C 876.78887,828.18174 861.7059,813.92742 850,831.5 c -9.71865,-4.25482 -49.30989,-8.41545 -39.49526,-10.49233 -5.47299,23.7962 -15.93989,-30.14295 -20.36817,4.87925 3.93996,15.79347 26.03231,7.69163 40.86346,20.61308 34.84366,2.69698 -13.4407,14.36797 10.66664,20.99968 -14.93267,-18.12819 5.71619,84.12761 -1.13134,28.14613 0.97209,0.29726 10.95519,12.31713 9.43921,9.35419 9.49431,-10.24242 -3.25035,13.94881 -1.72304,11 -8.22661,19.45396 -0.50059,44.94059 8.36987,38.31487 0.6211,3.82569 -10.90314,7.91286 -17.90146,11.01363 -31.74874,4.49978 9.48531,44.7577 26.00803,32.8039 41.94136,-24.64826 -11.23371,6.5817 -12.57025,23.3117 l -1.86465,1.444 0.32502,-1.444 z M 813.83244,994.75 c 19.58253,-12.32904 -5.19862,-29.0358 -1.67596,3.02324 z m 9.76541,-57.56079 c -19.03481,-24.99744 -6.95293,-37.08955 -19.62872,-33.01867 -0.83367,10.71451 13.94701,38.39887 19.62872,33.01867 z M 788.78986,822.75 c -4.97394,-27.69792 -7.65033,30.36244 0,0 z m 62.97807,2.25 c 38.60218,-25.94864 -17.40628,2.31437 0,0 z m -8.88981,-3.90351 c -6.86602,-12.11605 -28.65684,-4.54814 0,0 z m 25.83612,-11.45377 c 24.16252,-15.96309 1.7831,-6.76276 -0.96424,-5.79963 -15.21898,4.19346 -4.00857,7.14235 0.96424,5.79963 z m -68.39685,-21.5287 c 11.66335,-5.63124 -5.45221,-25.59781 -1.31739,-1.1908 l -5.53803,1.01525 z m -9.01647,-5.77221 c 4.64759,-13.47782 4.22506,-23.24888 -12.92759,-14.89 -3.9167,21.116 13.05361,0.3196 12.92759,14.89 z m -88.93475,-8.85366 c -4.79261,-14.43959 -22.30112,-3.65716 0,0 z M 849.60149,761.75 c -10.71565,-4.64017 4.52273,-21.93162 -9.09483,-9.74447 -2.37798,3.19418 7.44288,18.51473 9.09483,9.74447 z m 6.93135,-11.55049 c 13.01578,-34.35772 -9.33133,-0.8252 0,0 z m -51.34599,-5.58409 c -6.16092,5.6262 -15.06544,-35.30331 -21.74572,-15.11297 -3.09135,12.20063 10.38704,18.13209 21.74572,15.11297 z M 807,711.41667 c 12.27745,0.0479 -13.87403,-19.28702 0,0 z M 868.5,668 c -7.26082,-22.07427 -7.35483,4.4336 0,0 z M 858,666.55902 c -2.25407,-20.28393 -14.08552,-21.27399 0,0 z m 262.2934,347.46518 c 18.0557,-38.01317 2.079,-117.83823 8.946,-142.20693 3.0894,43.61603 -3.9194,91.33436 2.435,133.16473 6.6947,15.303 -14.2232,4.1556 -11.381,9.0422 z M 457,1008.3981 c 12.25417,-12.10215 23.54696,-20.00502 27,-36.33078 16.33528,-15.98184 30.56471,-8.59739 46.1173,-23.24795 26.53442,-25.02044 16.80188,-2.33292 2.14728,3.08189 8.89926,2.84752 -18.99289,23.41436 -31.86938,16.92915 -8.33177,11.47347 -18.57755,8.29082 -28.60081,33.21199 3.41467,1.1503 -16.52147,12.7717 -14.79439,6.3557 z m 100,-1.3596 c 12.05759,-15.93566 48.23246,-3.6194 0,0 z M 544.54258,1003 c 7.58431,-55.52906 7.41275,-2.3927 13.70742,-14.32112 13.6287,-30.51821 28.71688,-70.64597 -3.25417,-17.98965 2.002,-19.37106 -11.99006,-10.84417 -0.32096,-22.55405 13.18915,32.10527 17.58106,-38.40911 24.66641,-14.22677 5.80135,-16.29292 27.5275,-37.94872 46.44103,-59.50694 14.56436,-14.69847 33.83466,-64.20082 29.69378,-24.4797 14.4411,-23.30568 -23.74844,61.52828 -20.72609,30.94938 1.37806,27.55163 -42.98683,65.29808 -37.72861,54.79354 13.85681,-20.36991 -25.33842,22.10213 -12.50832,19.09124 16.16516,17.08706 23.13436,-0.47226 36.45056,-3.07424 1.15161,-2.04518 10.69104,-10.71739 13.44966,-7.83239 -1.78874,22.99484 -19.74167,11.04569 -29.41329,25.97614 -24.01718,4.64969 -12.5768,-11.49693 -37.81953,7.92456 -7.47878,-1.37694 3.906,37.2141 -15.18047,15.75 -3.69956,-6.26085 -6.5876,21.809 -7.45742,9.5 z m 55.26458,-36.10268 c 22.79135,-13.47261 -25.48665,6.79023 0,0 z M 574,962.61078 c 7.25968,6.08365 10.77022,-42.41124 0,0 z m 12.77778,-24.82522 c 8.91845,-18.99852 50.0546,-46.89257 35.67581,-57.11219 -15.67065,21.95641 -33.28472,39.57701 -35.67581,57.11219 z M 619,907.94098 c 30.09091,-35.99987 -2.20744,-16.4999 0,0 z m 16.80498,-31.86763 c 8.46463,-9.47046 23.68905,-43.27409 -1.14255,-11.13945 -0.19479,2.12782 -10.44593,22.58575 1.14255,11.13945 z M 620.57131,1006.238 c -3.617,-7.1515 0.6105,-2.4241 3.53687,-16.66852 7.18243,-7.87994 21.35511,24.12762 -3.53687,16.66852 z m 168.67623,-1.8869 c -38.3011,-13.62637 21.04865,-66.80862 -12.6594,-15.7202 -3.4472,6.94541 27.53362,21.8447 12.6594,15.7202 z m 471.00886,-6.89499 c -14.6858,-43.37006 27.4845,-25.0902 0,0 z m -680.60848,-4.89917 c -26.12787,6.00952 9.33097,-32.64796 7.2753,-8.7019 -26.63867,-12.99906 11.54302,19.78826 -7.2753,8.7019 z m 610.07398,-2.24941 c -17.5856,-15.68252 9.4331,-79.7267 -0.2441,-125.90864 -2.1883,-35.69314 4.6138,-75.18836 -2.3518,-108.86146 17.6928,-2.06596 44.6305,67.75401 29.9156,102.59443 9.4334,20.18901 -4.8061,93.88777 -7.6835,51.67719 4.6456,-41.6088 26.7561,-116.82425 -16.7442,-148.12104 -1.9032,69.90173 -3.3452,141.45134 0.4489,210.75 11.8335,13.23974 5.4483,17.96399 -3.3409,17.86952 z M 593.5,992.62648 c -10.95425,-11.51107 9.91377,-16.68797 0,0 z m 11.8891,-4.60619 c -11.96253,-6.88262 19.06652,-12.71512 0,0 z m 23.82699,-6.04588 c -30.76503,-9.68545 -8.61143,-4.25374 2.60357,-10.98291 12.64171,4.4777 -16.761,13.50237 16.18034,4.1104 -4.87408,0.75106 -14.62203,9.21992 -18.78391,6.87251 z m 263.25908,-5.64025 C 890.65174,934.25345 889.91923,884.29893 874.5,847 c 2.035,-26.04735 -28.87437,16.9257 -23.17567,-1.34201 17.36356,-8.96676 30.94324,-19.52074 31.39708,2.94159 3.11157,36.5211 17.22399,87.03061 9.48379,129.16461 l 0.26999,-1.43003 z M 660.81144,957.96104 c -5.96983,-24.28909 7.14084,-27.35944 8.65724,1.7919 -4.1239,-20.38899 -5.13143,8.71228 -8.65724,-1.7919 z m 498.26736,-3.41342 c -9.4769,5.79085 -12.8926,-34.80817 2.3733,-1.68529 l -2.4588,2.56037 0.085,-0.87508 z M 639.27826,952.555 c 8.97297,-24.1645 14.74068,11.54337 0,0 z M 617.55495,942.08891 C 625.00877,931.1011 657.38644,930.67004 649.8866,924 c -5.82225,-27.39313 6.57853,-45.89736 30.86142,-62.50624 25.82451,-9.90242 -17.35745,-51.89622 10.65691,-24.24381 14.60967,23.11906 4.3068,28.02527 0.78746,11.75 -38.06359,19.7632 4.65484,47.48731 -28.10665,48.44263 -15.65847,8.30641 -0.0168,16.46768 -8.51038,25.41165 -2.7084,16.80986 -14.63918,2.47941 -22.69137,9.39577 -7.10391,-1.85153 -6.8996,8.96585 -15.32904,9.83891 z M 659.81955,893.25 c 33.43627,-3.86064 -11.33977,-18.13507 0,0 z M 502,939.47069 c 11.45727,-28.99603 32.04811,-59.35569 0,0 z m 19.90378,-8.36713 c -6.68316,-10.6824 11.48497,-24.80039 17.89175,-33.63512 -10.84039,3.9796 -14.79516,35.35941 -17.89175,33.63512 z m 630.28502,-9.41555 c -1.1691,-59.81908 2.543,-9.28267 0,0 z M 678,912.43426 c 14.58789,-26.41057 37.48541,-47.67558 0,0 z m 579.7092,-14.67365 c -25.3328,-28.06276 -53.4155,-70.99902 -12.3382,-17.46485 2.1947,2.81733 22.2361,27.32143 12.3382,17.46485 z m -619.44993,2.64679 c -19.18425,-20.8565 29.76625,2.39563 0,0 z M 1151.2219,883.342 c -13.9763,-9.72321 -55.1793,-62.32651 -58,-64.02156 16.4886,20.14256 51.9702,47.55409 58,64.02156 z M 597,865.87634 c 19.38107,-25.45818 27.93894,-28.12729 0,0 z m 572.9609,-7.39771 c -7.5895,-11.25208 11.2041,-35.65244 3.5271,-57.47767 -0.457,-73.98134 -1.4608,-142.67963 0.1554,-215.65173 -3.1859,-18.99258 1.8769,-161.98361 1.1383,-58.30518 9.9653,32.48013 -17.0825,134.20909 11.565,131.11114 20.2729,-19.2241 71.8079,-48.33958 17.5775,-10.14971 -57.6078,27.56741 -16.0307,103.94955 -28.7072,153.835 -9.1295,16.51885 17.7463,59.10583 -5.2561,56.63815 z M 700,836.7 c -7.7117,-3.59601 22.76384,-45.15099 0,0 z m -89,-5.2 c 3.00516,-32.0124 15.51722,-19.17384 -2e-5,0 z m 522.9852,-3.70523 c -16.5971,-19.83496 22.2708,-1.87155 1.3045,-0.46646 z m 106.0874,-1.5408 c -0.9507,-22.9488 4.6317,-160.72314 4.0172,-69.56348 -11.7616,21.44299 19.5249,61.41324 -4.0172,69.56348 z M 625.07029,805.19098 c -8.43349,-11.70805 22.5176,-27.02553 4.01179,-10.37217 0.68841,4.61844 -3.72144,6.10934 -4.01179,10.37217 z M 740.75,799.42808 c -7.75616,-12.90421 -9.564,-1.1467 -2.98214,-20.0935 9.34502,-10.50188 -0.012,16.91153 2.98214,20.0935 z M 725,791 c -17.55696,-20.34059 1.70563,-6.46089 0,0 z m 0.34068,-6.07838 c -2.03865,-26.29867 7.53903,2.47829 0,0 z m 373.13122,-12.21985 c -46.7579,0.28571 30.4725,-19.87278 0,0 z m -166.86491,-4.28356 c 3.55348,-29.62444 -38.26814,0.81903 -18.60699,-14.75768 13.98904,-17.14449 29.51632,19.4002 18.60699,14.75768 z M 930.21165,749.75 c -9.47656,-20.92245 5.17353,-23.74695 0,0 z m 92.05415,-18.75904 c -15.1419,-28.05471 -71.82364,-79.02838 -19.1766,-27.6729 1.1316,9.29959 41.871,27.15862 19.1766,27.6729 z m -100.23539,1.18761 c -17.36241,-24.23631 -7.82262,-35.24829 1.03939,-4.87057 3.607,-10.00955 5.19633,9.59763 -1.03939,4.87057 z m -268.01572,0.76103 c -54.01005,-2.3046 -10.66088,-3.9861 17.51993,-0.29041 l -8.20999,0.68242 z m 288.84135,-19.00159 c -2.50783,-24.98768 -3.55471,-101.40601 -0.48646,-36.14242 0.79169,3.44173 2.92058,67.64894 0.48646,36.14242 z M 605.7037,728.86966 c -29.49869,-29.95369 -59.06969,-53.73774 -103.81844,-43.02595 -40.8185,-28.08293 -24.12715,-7.53626 7.25901,-1.06205 32.16335,-1.61342 69.12659,5.51672 97.7886,-3.05604 12.23396,23.04775 -85.2299,-14.47349 -26.11851,24.21778 1.06767,7.67556 49.95277,30.61727 24.88934,22.92626 z M 748.5,726.23469 c 6.01376,-40.79722 12.22061,-10.14801 21.5,-36.83066 6.93715,10.70914 -18.83196,24.63597 -21.5,36.83069 z m 216.7219,-8.68789 c -10.42675,-29.3186 24.8932,1.08615 0,0 z m 267.8045,-11.72499 c -17.9687,-15.70879 -47.2014,-45.00651 -9.5949,-11.31256 3.2679,2.20196 33.0752,32.46241 9.5949,11.31256 z m -89.628,-13.3838 c 1.4859,-21.27938 2.2674,-69.76925 -12.9389,-71.39095 26.381,39.33878 5.5642,-89.81789 13.6151,-17.20811 0.7244,16.50913 0.2688,133.50777 -0.6759,88.59906 z M 688.5,709.08333 c 5.83717,-14.33011 22.10995,-20.01081 7.75,-2.36942 -3.52333,-3.30383 -8.06287,9.45405 -7.75,2.36942 z m 32.22163,-4.69503 c 6.26548,-26.54247 12.0398,-21.47875 18.82197,-43.31775 6.764,-13.9179 -9.58838,27.72377 -5.18946,20.69344 -7.86709,7.38935 -3.98542,19.62551 -13.63251,22.62431 z m 335.50027,-10.6848 c -20.8257,-25.93027 -44.8492,-48.84242 -5.1887,-10.50899 3.1842,-0.9278 15.2567,14.2864 5.1887,10.50899 z M 702.63837,694.5 c 5.31575,-11.77511 15.38318,-38.43405 12.32824,-32.59446 7.23265,-3.51433 -1.80253,-19.58398 14.86951,-26.39937 -13.93423,6.323 -0.86193,-6.17063 -0.44258,-10.61975 8.25457,-24.19532 17.53998,-34.95621 12.64168,-14.95211 -6.71355,13.96694 -9.23426,28.00511 -16.03518,42.02663 -5.04549,18.69464 -9.3513,21.27961 -15.66235,34.28906 -2.35014,-4.58372 -4.05678,14.70217 -7.69932,8.25 z M 666.75,694.33772 c -9.83473,-19.61573 22.5021,-11.77055 0,0 z m 226.77842,-5.29173 c 0.66658,-25.69912 8.97451,-30.26608 2e-5,0 z M 962.4122,664.2272 c -22.29993,-23.72238 -85.42449,-94.599 -29.1903,-33.84904 3.80806,4.78676 41.7517,42.85828 29.1903,33.84904 z m -497.55055,-4.40596 c -27.60525,-21.8932 -72.40245,-64.06825 -18.47639,-17.45941 -1.65235,-2.33937 35.2551,30.29559 18.47639,17.45941 z m 592.68555,-6.24716 c -23.8581,-4.23806 -89.8337,-1.57823 -96.0358,-5.46383 32.3322,2.30276 78.4272,-0.37431 103.7105,1.43472 1.0637,4.02887 -8.2091,4.47872 -7.6747,4.02911 z m -519.80031,3.57449 c -27.17432,-33.56709 -3.19202,-3.47511 3.52868,-5.64324 6.30448,6.19265 -2.28069,3.43072 -3.52868,5.64324 z m 205.13463,-4.77615 c -0.35714,-11.25227 9.46227,-40.12162 13.11851,-57.83919 0.36447,-10.91553 -2.92313,-27.88029 2.40564,-26.86504 6.1238,-25.04824 -11.23301,-1.07469 -3.98829,-17.33829 -5.06359,-8.55051 -1.50799,1.75461 8.45654,-20.41191 -9.08426,-1.80313 -8.83671,19.44705 -5.62392,-1.31545 2.17766,-14.08469 3.6185,-19.25613 7.13159,-31.1545 16.48172,-53.76395 2.90077,44.79991 1.50628,36.83978 6.08151,-1.41657 -2.98369,25.56989 -2.40061,40.69149 -2.12804,13.60275 -4.80375,14.46992 -5.53549,26.8379 6.09909,-4.46296 -4.65868,33.64734 -6.7851,26.18277 4.06052,-4.58597 -4.03458,22.64555 -8.28515,24.37244 z M 378.66445,651.61 c -3.21012,-5.74935 7.78103,-15.90754 5.74741,-1.03555 l -1.68447,2.55984 z m 330.57129,-17.86 c 2.7213,-9.03355 21.16357,-53.40958 11.68459,-10.13169 -2.73767,-21.78018 -11.33508,23.35756 -11.68459,10.13169 z m -193.08255,1.89859 c -36.45451,-28.02009 -49.4435,-39.43829 -6.71541,-8.91223 24.64144,-2.46339 -11.61099,3.09474 6.71541,8.91223 z m 180.07518,-4.44499 c -11.26161,-8.10712 -131.63548,-1.30677 -42.93372,-4.73247 20.57971,7.59767 42.7284,-11.98958 51.29061,-1.62256 -0.35017,2.91529 -4.25806,13.34822 -8.35689,6.35503 z m 297.92843,-5.83067 c -34.3625,-3.91805 -91.79756,-1.4513 -23.5408,-2.94671 7.7469,1.46169 48.4839,-7.99186 23.5408,2.94671 z m -538.02953,1.61604 c -3.59857,-1.43537 6.59948,-53.72868 8.34455,-10.30998 5.44457,8.13332 -6.33072,9.29468 -8.34455,10.30998 z m 612.59463,-7.26101 c -19.038,-10.668 -56.0518,-30.43931 -25.2401,-29.28994 -19.3607,7.56714 42.0742,33.80014 25.2401,29.28994 z m 35.4013,-19.55195 c -39.9405,-21.28844 -64.8454,-81.69829 -114.2135,-77.62933 -35.17469,5.76654 -88.78265,-4.90978 -26.3001,-1.58944 23.6124,-0.74354 48.3057,4.69378 43.2406,-6.2261 48.4219,40.44027 119.3539,105.84899 108.4268,94.81116 z M 908.5263,610.91712 C 895.65339,580.50851 887.38231,617.5074 866,590.92756 c -9.62744,-5.26824 -7.34474,-11.40959 5.0187,-8.45006 11.29947,-7.68863 36.80669,26.45261 21.25291,0.43112 -29.23823,-32.3055 29.97055,19.25781 16.16419,29.44336 z m 224.1956,-12.1439 c -24.054,-18.85964 -119.4418,-97.72491 -48.9072,-41.80579 7.6503,6.77781 71.172,55.63972 48.9072,41.80579 z m -486.15798,4.90315 c -56.41939,-0.12642 -122.46294,-9.84706 -165.17866,-63.06388 -40.03735,-34.85596 51.35619,38.8645 66.83656,50.76498 31.9939,27.32835 80.51281,-14.47942 89.15617,-23.72888 -63.74956,40.472 -5.62955,22.52194 21.9914,28.93468 1.61297,14.60967 -10.19784,7.36451 -12.80547,7.0931 z m 280.75848,-4.83773 c -24.47746,-5.62323 -70.76512,-3.41291 -11.56806,-5.58771 12.52354,-11.52142 33.90056,4.44113 11.56806,5.58771 z m 276.9796,-2.90063 c -1.1163,-59.6675 4.5433,-77.08126 0,0 z M 695,597.47215 c -47.71605,-6.26226 -43.16378,3.97872 -1.75972,-6.53958 6.1809,-5.51514 9.98597,10.47666 1.75972,6.53958 z m 29.58568,-5.02479 c -1.3355,-31.68669 20.23593,-74.668 3.529,-13.38332 -0.14187,2.02399 -3.93825,29.12806 -3.529,13.38332 z m 14.34054,-2.03626 c 10.25104,-29.67576 16.69477,-1.02247 0,0 z m 56.10051,-4.51188 c 14.68265,-16.27346 -14.65955,-34.51302 10.74602,-19.16366 14.80773,21.67121 -15.71589,16.27903 -6.71618,15.39583 z M 778,582.68146 c 6.85721,-29.98427 1.6841,-25.07998 4.69382,-57.0379 13.49555,-32.33988 5.35911,-35.25282 3.338,-25.95866 14.22765,-20.19984 -5.08861,-6.53191 6.95614,-22.66239 8.30532,-34.05353 8.79763,-25.08635 20.01201,-42.06956 -12.54077,52.27212 -4.44582,22.50739 13.55462,-5.18622 5.37285,-1.0532 24.90641,-19.62397 7.40216,0.23327 -13.85578,32.23524 -10.77759,28.28697 -16.23193,50.72535 -1.79387,14.39932 0.42721,37.52928 -7.81558,50.29018 -11.67306,39.3372 -1.37079,-18.11535 -16.86557,8.45748 0.10795,10.75511 -6.69246,48.90741 -12.60265,41.52699 -1.76896,-0.0524 -0.58892,4.37535 -2.44102,1.68146 z m 32.17864,-62.54222 c -0.36747,-10.76414 -8.54017,-36.26645 -4.19164,-13.11487 -4.81448,1.76024 2.65602,29.36475 4.19164,13.11487 z M 799.175,510.5 c 5.07094,-68.01426 -6.71203,23.4733 0,0 z m 13.80969,-28.31739 c -11.03315,-16.34684 -1.44498,-3.28733 0,0 z m 342.64721,86.86013 c -18.2815,-12.35542 -6.9423,1.14672 -27.41,-26.92902 27.7206,42.44808 9.4995,-81.07291 16.0458,-18.22295 -18.2811,19.53108 36.4604,74.11073 11.3642,45.15197 z m -477.75666,-2.46709 c -9.88233,-15.73364 -51.04436,-5.27491 -10.48998,-9.67205 -20.70608,-33.53548 -50.32419,-44.39999 -85.91663,-42.63979 -29.66153,-18.67079 -93.46443,-111.95695 -76.11513,-22.49414 0.15715,14.52643 -7.39935,-84.91279 3.67778,-109.66883 11.36604,-13.19354 -16.94256,50.46143 0.63475,66.24599 44.77088,57.41828 105.24822,80.46927 174.71923,68.375 -15.07764,12.02477 -83.63606,-14.35506 -28.13913,26.2482 0.99594,25.5659 80.9881,11.07821 41.52542,15.36224 -53.57866,-17.0452 7.3886,30.97011 -19.89631,8.24338 z m -272.76461,-3.67706 c -0.73855,-111.37114 3.93039,31.43396 0,0 z m 316.91735,-4.65778 c -15.40432,-15.83535 -100.19744,-122.56954 -47.56577,-58.83273 13.90136,17.22103 46.05364,53.00617 47.56577,58.83273 z m 158.31698,-1.58888 c -19.37107,3.05282 -18.14647,-16.32755 -37.91188,-32.98788 8.45696,25.88853 47.37473,1.07366 27.96552,29.28579 2.49138,-8.65294 12.93202,4.37476 9.94636,3.70209 z m -454.27764,-4.59401 c -5.67937,-22.19916 19.89097,5.7802 0,0 z M 1121.053,536.61679 c -29.3821,-13.38067 -43.8829,-51.60488 -28.3542,-29.04774 0.6007,1.21997 49.1553,45.6292 28.3542,29.04774 z m -660.24351,-23.7182 c 0.47639,-30.88204 4.01821,-125.02583 2.50627,-44.72921 0.0708,12.1699 -2.18334,98.20644 -2.50627,44.72921 z m 589.41201,6.53942 c 23.1067,-60.16211 -42.153,-109.27086 -65.6073,-128.75 53.1719,30.28143 80.0044,72.10614 66.6481,134.57048 l -1.0411,-5.82048 z m -549.15857,10.55491 c -2.11599,-26.77076 23.82982,-3.7891 0,0 z M 394.73935,519.39859 c -24.65186,-20.43597 -53.37674,-48.39076 -11.98358,-13.02751 2.7567,1.42929 35.41309,32.41399 11.98358,13.02751 z m 12.22004,-11.25881 c 5.31154,-98.1749 -0.0589,56.32152 0,0 z m 311.38362,-9.90623 c -11.90801,-33.11391 -55.04017,-18.00057 -25.05048,-27.62958 -37.01791,-67.16052 -19.12964,-6.36279 4.28502,-6.73277 -2.93476,-43.05471 -118.23341,-19.32641 -40.16302,-26.85964 39.37128,5.58745 22.61294,-56.2464 13.39771,-75.79719 -22.96814,68.20697 71.30902,-29.58811 10.38835,24.67442 -23.85691,23.15218 -91.89529,61.35488 -18.71928,50.10443 25.4847,-7.86729 -4.03756,17.12413 34.69408,36.21123 9.03097,8.64029 58.67558,61.86358 21.16762,26.02912 z M 938,505.1706 c -6.55829,-20.23348 19.07024,-17.29213 8.64188,-7.62069 -1.47303,2.03582 -5.39345,12.50822 -8.64188,7.62069 z m -187.81583,-6.92672 c 14.77284,-31.86463 12.21953,-16.88803 0,0 z m 98.28891,-24.85475 c 2.2129,-3.56898 7.19406,0.83479 10.2545,5.11963 -4.91687,5.26221 -12.4674,-1.55065 -10.2545,-5.11963 z m -72.98316,-1.40544 c -7.05076,-14.99768 24.57307,-46.79832 10.37473,-30.23369 -1.54826,7.29533 -8.12698,29.03189 -10.37473,30.23369 z m -371.00167,-2.41354 c -39.04611,-26.45493 -65.2152,-53.96198 -11.98526,-10.84329 2.40492,2.0216 22.77309,16.7498 11.98526,10.84329 z m 763.46915,-11.13959 c -42.7722,-31.28581 -80.9304,-66.94802 -89.0919,-113.14812 -23.3766,-17.78947 28.1949,25.28525 8.1598,-18.78513 -2.2577,-44.23789 9.4483,12.4064 1.9312,44.59602 -4.779,33.36392 83.6791,76.07992 79.0009,87.33723 z m -474.30241,-16.2593 c -36.71609,-11.81297 29.99554,-11.70594 0,0 z m 514.11671,-14.34294 c -10.7981,-35.64408 4.1891,-6.99884 19.2106,5.32505 -21.4139,-38.83244 -18.0465,22.48174 -19.2106,-5.32505 z M 619.78296,439.36055 C 601.97385,424.125 503.54589,339.8788 572.31335,396.46205 c 12.53381,13.15905 44.1933,33.33637 47.46961,42.8985 z m 312.38493,-7.02347 c 0.41826,-16.51151 37.02581,-2.33432 4.11747,1.85176 z m -522.65151,-2.0305 c -2.47946,-9.58148 39.74157,-4.59814 0,0 z m 482.52196,-3.42347 c 6.09245,1.42434 1.13276,-33.50013 13.24887,30.34118 -3.04142,-11.17378 -8.43219,-23.09677 -13.24887,-30.34118 z M 890.41011,419.25 c -12.76635,-22.40876 -41.99353,-28.90725 -5.83774,-13.28627 5.1756,-0.72853 10.07429,26.00916 5.83774,13.28627 z m -355.02485,-6.08962 c -4.96088,-13.81991 6.10293,-75.01169 2.62309,-17.46689 2.22624,7.35125 10.07484,13.92894 -2.62309,17.46689 z m 244.99644,-6.5422 C 760.15807,389.64046 722.88505,352.17116 766,391.15463 c -6.08852,-6.28238 27.44514,24.66443 14.3817,15.46355 z m 428.2816,-19.92165 c -4.8347,-29.13598 2.5869,-38.70426 2.4278,-77.83936 5.1664,15.46738 -9.0416,63.37187 6.9809,68.44793 -15.865,-21.83716 -6.1754,55.00189 -9.4087,9.39143 z M 808,400.2128 c 33.79054,-14.92737 56.38434,-11.42291 0,0 z m -166.50022,-5.81421 c 9.81793,-4.84722 -36.97784,-10.66056 -38.4281,-5.44201 10.59999,-5.02934 60.27115,-1.85192 38.4281,5.44201 z m 515.84292,-11.0627 c -5.9493,-20.19828 20.4137,9.3104 0,0 z M 794.92584,372.5 c 0.10425,-22.86176 18.33702,-1.38741 0,0 z m -87.9259,-4.75 c 36.77436,-2.89929 126.53829,0.44035 40.37974,0.30493 -13.45759,-0.26742 -26.94231,0.79231 -40.37974,-0.30493 z m 438.44776,-18.31573 c -28.1507,-32.74428 16.0009,9.57514 0,0 z M 775.12198,297.89828 c 10.87528,16.26404 -39.96871,-2.08437 0,0 z M 1178.6617,342.647 c -24.9866,-23.88162 -62.7972,-53.16064 -81.108,-74.13884 23.508,22.71451 69.7492,60.36767 81.108,74.13884 z M 363.167,324.41158 c 34.28035,-28.66123 26.78803,-13.74422 0,0 z m 510.58646,-9.8011 c -33.52166,-16.15261 31.81157,-10.04828 0,0 z M 390.6125,305.64859 c 39.10904,-33.5145 49.42278,-33.41206 0,0 z m 70.5383,-6.38068 c -4.77916,-13.7375 20.66322,-9.82832 0,0 z m -92.65245,-20.52827 c -20.74057,-15.00864 37.28013,-2.09363 0,0 z m 684.22355,-10.38352 c 1.6623,-3.8595 63.9888,1.02513 9.7565,0.50265 z M 933.45787,241.93183 c -8.58537,-20.87976 18.87569,-2.28926 0,0 z m -275.07261,-8.94991 c -8.37291,-22.92561 106.69089,0.68043 30.41924,-5.68715 -12.2848,-5.39593 -22.05876,6.80413 -30.41924,5.68715 z m 23.15379,-7.2073 c -13.61929,-18.02134 32.74861,4.40786 0,0 z M 780,222.89084 c 29.52841,-2.67404 138.81063,-0.39366 54.41947,0.20691 C 816.28918,222.9675 798.10316,224.25496 780,222.89084 Z M 673.29485,208.2519 c -27.06596,-22.24966 -55.80832,-55.19373 -8.36666,-9.42284 -3.88975,-6.12821 23.33665,22.43204 8.36666,9.42284 z M 713.0151,177.5 c -16.22365,-0.82115 10.57791,-7.42949 1.06505,3.25 l -1.065,-3.25 z m -157.87616,3.45997 c -22.43518,-18.46041 51.44281,-2.01098 0,0 z m 39.4323,-5.05939 c 51.49133,-0.68437 35.29078,1.13091 0,0 z"
         sodipodi:nodetypes="ccccccccccccsccccccccsccccccccsccccccccccccccccccccccccccccccccccccccccccccccccccccccccccccccccccccccccccccccccccccccccsccccccccccccccccccccccccccccccccccccccccccccccccccccccccccccccccccccccccccccccccccccccccccccccccccccccccccscccccsccccccccccccccccccccccccccccccccccccccccccccccccccsssccccccccccccccccccccccccccccccccccccccccccscssccccccccccccccccccccccccccccccsssccccccccccccccccccccccccccccccccccccccccccccccccccccccccccccccccccccccccccccccccccccccccccccccccccccccccccccccccccccccccccccccccccccccccccccccccccccscccccccssccccczczcccccccccccccccccccccccccccccccccccccccccccccccccccccccccccccccccccccccccccccccccccccsccscccc" />
    </g>
    <path
       style="fill:#1d1f21;fill-opacity:1;stroke:none;stroke-width:0.86852px;stroke-linecap:butt;stroke-linejoin:miter;stroke-opacity:1"
       d="m 900.21953,531.91982 c 2.63688,-15.42571 -24.24849,-32.02573 -18.89291,-26.92703 5.35558,5.09871 20.10267,16.01539 18.89291,26.92703 z"
       id="path3742" />
    <path
       style="fill:#1d1f21;fill-opacity:1;stroke:none;stroke-width:1px;stroke-linecap:butt;stroke-linejoin:miter;stroke-opacity:1"
       d="m 909.44079,528.21117 c -0.93683,-20.13957 -31.6697,-32.012 -25.13252,-27.40844 6.53718,4.60357 23.81431,13.37851 25.13252,27.40844 z"
       id="path3742-1" />
    <path
       style="fill:#1d1f21;fill-opacity:1;stroke:none;stroke-width:1px;stroke-linecap:butt;stroke-linejoin:miter;stroke-opacity:1"
       d="m 903.85702,527.66011 c -0.93683,-20.13957 -31.6697,-32.01201 -25.13251,-27.40843 6.53717,4.60355 23.8143,13.37849 25.13251,27.40843 z"
       id="path3742-8" />
    <path
       style="fill:#1d1f21;fill-opacity:1;stroke:none;stroke-width:0.86852px;stroke-linecap:butt;stroke-linejoin:miter;stroke-opacity:1"
       d="m 832.52889,534.29723 c -2.63688,-15.42571 24.24849,-32.02573 18.89291,-26.92703 -5.35558,5.09871 -20.10267,16.01539 -18.89291,26.92703 z"
       id="path3742-9" />
    <path
       style="fill:#1d1f21;fill-opacity:1;stroke:none;stroke-width:1px;stroke-linecap:butt;stroke-linejoin:miter;stroke-opacity:1"
       d="m 825.6855,529.74006 c 0.93683,-20.13957 31.6697,-32.012 25.13252,-27.40844 -6.53718,4.60357 -23.81431,13.37851 -25.13252,27.40844 z"
       id="path3742-1-0" />
    <path
       style="fill:#1d1f21;fill-opacity:1;stroke:none;stroke-width:1px;stroke-linecap:butt;stroke-linejoin:miter;stroke-opacity:1"
       d="m 830.73533,530.55271 c 0.93683,-20.13957 31.6697,-32.01201 25.13251,-27.40843 -6.53717,4.60355 -23.8143,13.37849 -25.13251,27.40843 z"
       id="path3742-8-1" />
  </g>
</svg>
