<?xml version="1.0" encoding="UTF-8" standalone="no"?>
<svg
   xmlns:dc="http://purl.org/dc/elements/1.1/"
   xmlns:cc="http://creativecommons.org/ns#"
   xmlns:rdf="http://www.w3.org/1999/02/22-rdf-syntax-ns#"
   xmlns:svg="http://www.w3.org/2000/svg"
   xmlns="http://www.w3.org/2000/svg"
   xmlns:sodipodi="http://sodipodi.sourceforge.net/DTD/sodipodi-0.dtd"
   xmlns:inkscape="http://www.inkscape.org/namespaces/inkscape"
   width="160.27971mm"
   height="161.99826mm"
   viewBox="0 0 160.27971 161.99826"
   version="1.1"
   id="svg8"
   inkscape:version="1.0.2 (e86c870879, 2021-01-15)"
   sodipodi:docname="dtv-entry.svg">
  <defs
     id="defs2" />
  <sodipodi:namedview
     id="base"
     pagecolor="#ffffff"
     bordercolor="#666666"
     borderopacity="1.0"
     inkscape:pageopacity="0.0"
     inkscape:pageshadow="2"
     inkscape:zoom="1.979899"
     inkscape:cx="175.0969"
     inkscape:cy="402.56242"
     inkscape:document-units="mm"
     inkscape:current-layer="g3883"
     inkscape:document-rotation="0"
     showgrid="false"
     showguides="false"
     inkscape:window-width="1278"
     inkscape:window-height="1415"
     inkscape:window-x="1280"
     inkscape:window-y="0"
     inkscape:window-maximized="0"
     fit-margin-top="0"
     fit-margin-left="0"
     fit-margin-right="0"
     fit-margin-bottom="0" />
  <metadata
     id="metadata5">
    <rdf:RDF>
      <cc:Work
         rdf:about="">
        <dc:format>image/svg+xml</dc:format>
        <dc:type
           rdf:resource="http://purl.org/dc/dcmitype/StillImage" />
        <dc:title></dc:title>
      </cc:Work>
    </rdf:RDF>
  </metadata>
  <g
     inkscape:label="Layer 1"
     inkscape:groupmode="layer"
     id="layer1"
     transform="translate(-23.183568,-33.006116)">
    <g
       id="g3883"
       transform="matrix(1.5942153,0,0,1.5942153,-20.188593,-12.002815)">
      <path
         id="path3889"
         style="fill:#c5c8c6;fill-opacity:1;stroke-width:0.0846667"
         d="m 35.930447,102.99692 v -5.461 c 2.510283,-0.230111 0.413144,-4.219688 2.254864,-5.678274 0.494308,-3.314946 3.238331,-5.476264 6.364427,-6.162968 2.748465,-0.25357 6.024589,0.180974 5.054365,-3.709123 C 49.001061,79.42297 48.680225,76.653217 46.47887,75.423598 46.175729,72.108623 45.147388,68.612175 44.737353,65.355484 44.112209,61.6094 42.908505,58.180183 42.808968,54.471173 c -0.400872,-2.193179 -0.975916,-4.153548 0.327366,-6.141031 -0.589729,2.419795 -1.13862,-1.520922 -0.698296,-2.01995 2.601475,-1.770565 1.181457,-2.610051 0.440917,-2.839815 1.433634,-1.11793 3.043806,-2.657802 1.925135,-3.464857 2.931499,-0.132579 1.73874,-3.626362 3.046541,-3.734381 0.556249,-0.314272 1.612997,0.542369 1.72531,-0.962143 0.649702,2.693775 0.907038,-5.293475 2.036823,-1.686525 2.037715,0.314769 6.140558,-5.849883 3.949273,-1.394884 3.066648,2.216475 3.453844,-6.138308 5.895373,-2.001588 1.859579,-0.324219 2.942576,-1.613243 4.311249,-0.673718 1.230947,-0.879277 1.310712,-2.271884 2.148496,-0.364567 0.863891,-0.596412 5.167339,-0.877664 2.728119,0.411641 1.313562,2.300198 3.087731,-0.480539 4.739882,1.436594 2.393709,0.424537 3.875696,1.239273 2.158205,2.246343 3.446614,0.626561 5.835922,2.612232 7.111425,5.678143 1.280676,0.916182 4.392091,2.085868 0.910641,1.99727 -0.05701,1.756804 2.274165,3.832499 2.28397,4.455689 -1.443726,1.211212 1.179613,3.229091 -0.855406,4.341864 1.90952,2.82817 -0.699498,5.748227 -1.704798,8.481031 -1.121604,2.37745 -0.248102,4.289792 1.426009,4.501978 0.217173,2.785882 -4.271717,1.284088 -2.568257,4.075273 0.06915,1.693115 -0.476558,2.329413 -0.813693,1.438501 0.861329,2.118539 -1.133693,4.196786 -0.116538,6.540445 0.230475,1.561038 -1.3767,0.451867 -1.005553,2.520907 0.468167,1.985889 -0.85428,4.397721 -1.60484,6.662049 -1.779256,2.13162 -4.160571,5.165004 -4.865564,7.702405 2.803137,0.964204 6.918674,2.627478 6.987918,6.061144 -0.01744,1.195788 -3.016773,2.405649 0.09775,2.691319 2.94451,0.02 3.838473,2.97185 6.519548,4.42759 1.00083,1.07303 6.491774,7.03932 2.856645,6.71313 -3.503763,-0.53928 -3.091778,16.89176 -6.945856,16.81436 -16.466121,-0.0353 -45.81584,9.55878 -48.245088,-19.92683 -1.778035,0.53639 -0.86456,-1.61876 -1.081193,-2.6438 l -3.8e-5,-2.81778 z m 36.309066,-2.17426 c 2.377353,-0.899412 1.372219,-1.250073 -0.380483,-0.19476 l -0.187343,0.28654 0.567832,-0.0918 z m -11.011561,-0.0661 c -3.147227,-0.83233 -6.400589,-1.164442 -9.453796,-2.326656 -1.897093,-0.433416 -6.716661,-1.898622 -2.781898,0.507067 3.631852,0.855753 7.355287,2.060979 11.45386,1.848499 z m 1.573183,-0.55558 c 1.847318,0.0895 2.709854,-0.428663 1.239743,-1.10846 -2.01799,0.228316 -3.632879,-0.129387 -5.525851,-1.131945 -0.477908,1.015562 2.469838,1.804907 3.963282,2.252075 z m 7.734863,-1.829164 c 0.434781,-1.951411 -1.979244,0.614496 0,0 z m 0.98789,-0.257638 c 3.421458,-0.641549 -0.624517,-3.151473 -0.692146,-0.429224 0.158141,0.120647 0.397667,0.549178 0.692146,0.429224 z M 61.076447,97.77542 c 2.942156,-0.36221 7.180941,0.533889 9.797745,-2.273293 3.418374,-2.212498 -2.257876,-3.165958 -3.897676,-1.32497 -3.192684,0.32271 -5.890725,-2.850885 -7.313645,-4.773764 -1.609411,-1.20331 -3.350819,-4.528085 -5.092225,-3.370296 -0.404365,-1.710094 -1.991812,-3.891806 -1.328623,-0.683169 -0.655521,2.857351 -2.454837,6.118872 -1.876071,8.934336 3.088306,0.815002 6.083697,2.268473 9.207792,3.373774 l 0.443601,0.200716 0.05907,-0.08332 z m -6.878111,-0.716473 c -1.098422,-2.079105 -3.817208,-0.02366 -0.603582,-0.103211 z m -3.451967,-0.75093 c 0.341124,-2.047934 -2.344583,0.777549 0,0 z m 16.36153,-2.7553 c 1.509207,-1.712453 -1.780935,0.897828 0,0 z M 50.916447,80.250895 c 1.075975,-1.379563 -0.403685,-2.594822 -0.152395,-0.06474 z m -0.07729,-0.426805 c 0.06065,-1.12134 0.523314,0.43914 0,0 z m 8.244327,-0.835505 c -0.125562,-2.975247 2.24707,-0.701585 3.502913,-1.736748 -0.884237,1.541738 2.218818,-0.264147 2.837188,-0.381086 -1.866559,-1.289233 -1.01178,-4.866037 1.19851,-4.280881 -0.986451,1.402238 -1.924342,1.468557 0.05136,2.621049 -0.181407,1.35065 -2.020284,-0.94074 -1.137527,1.230819 1.680855,1.384031 1.31232,-3.727294 3.801909,-1.466918 1.370725,0.325012 5.551143,-1.386449 3.422046,-2.243052 1.535453,-3.088891 2.749646,3.075791 0.396102,3.794917 1.038369,-0.165142 1.908809,0.0044 2.725137,0.68464 1.796824,-2.140454 3.471255,-5.225993 4.411877,-8.510788 0.124305,-1.791936 1.219198,-0.0013 1.054881,-2.337567 -0.909445,-1.4001 0.417259,-4.069092 -2.128886,-2.143832 -1.665331,2.149061 -6.026454,0.997607 -5.787052,-0.647624 1.95375,0.119586 4.097795,-0.715154 5.496655,-0.534596 1.447985,-1.65603 2.058755,0.991159 2.294629,-1.914106 2.786709,-2.221556 -3.590041,-2.429755 -4.524154,-1.455708 -0.915072,0.689058 -2.325222,1.894 -3.306774,1.338418 0.87507,-0.528886 4.493836,-2.74724 1.095592,-1.722827 -1.183003,0.528431 -3.645172,5.107599 -3.326726,1.767797 2.088216,-1.243618 -0.472751,-5.034243 2.960839,-4.456638 2.164495,-1.683891 6.66684,-0.380074 7.552727,-2.686514 -0.05206,-1.470634 -0.907548,-3.767394 0.570522,-2.458418 2.348388,-3.001774 -5.186444,-4.514156 -3.769805,-0.95705 -2.359945,-1.569022 -1.034595,1.491933 -3.450401,0.646921 -1.290336,1.373906 -2.82137,-0.34621 -4.467554,1.451648 -3.239282,2.837641 -4.974554,-2.064262 -8.308404,-1.920631 -2.046174,-0.990341 -2.965807,1.267182 -4.557106,-0.965106 -1.460822,-0.374368 -2.933236,0.309924 -3.115001,1.378891 -2.437218,0.797076 0.727093,2.056274 -1.513721,2.83612 -0.292699,1.614249 -0.371195,3.672792 -0.837896,3.484221 -0.894093,2.839424 -0.09807,5.864378 0.200606,8.805313 0.02998,2.24388 -0.0229,5.27381 1.207705,6.990702 0.940499,-2.935007 0.78238,1.311286 2.493713,1.297358 -2.359704,-1.037567 -1.470684,3.933189 -0.595539,0.469897 -0.331717,1.54473 1.756356,1.23366 1.58135,3.068494 0.04347,-1.330262 1.111119,-3.19179 1.157466,-1.048954 0.633391,0.335359 0.117852,2.11659 0.812821,2.001839 z m 0.20408,-2.598166 c 0.779806,-1.137398 1.337148,0.734503 0,0 z m 3.027832,-8.929499 c -1.175967,-1.402497 -5.201206,0.657628 -3.823727,-1.985313 2.409436,0.112567 4.984062,0.109709 7.000632,-0.856201 1.087777,2.184715 -3.006897,0.847935 -3.176905,2.841514 z m -4.614514,-3.397291 c -0.223223,-0.96265 0.702214,0.609553 0,0 z m 0.462808,-0.323047 c -1.163069,0.258196 0.777326,-1.050874 0,0 z m 6.183768,-1.138902 c 1.576344,-0.973382 2.549507,-2.173654 -0.153784,-1.899727 -1.719036,-0.664336 -4.115121,-1.895062 -6.007726,-0.08064 -1.937231,0.722057 -6.794793,-1.01785 -3.663975,-3.055479 1.704865,-1.405972 4.48174,-0.07036 6.231579,-1.54727 2.028068,0.941325 6.427618,-0.100239 5.966868,2.788716 -2.266318,-0.655516 0.551665,1.565584 -1.975241,0.827818 1.591459,0.5696 2.791027,-0.237359 1.892938,1.811512 -0.292188,-0.672442 -0.236074,2.089759 -0.989626,0.487086 0.06602,0.822303 -0.963884,0.218428 -1.301033,0.667984 z m 1.99011,-4.520595 c -0.585979,-0.925315 -1.415315,0.35764 0,0 z m 13.141507,3.686157 c 0.447653,-2.418018 2.347316,-1.769958 0.189567,0.04745 z M 59.406338,61.277419 c 1.482989,-2.149664 3.579986,-0.0937 0,0 z m 21.491931,-0.635 0.316263,-0.200197 z m 0.58666,-0.0589 c 0.489577,-1.625312 0.696594,0.105882 0,0 z m -3.04924,-0.117157 c -2.006691,0.896191 0.597293,-0.946032 0,0 z M 59.129114,56.525285 c 0.197567,-0.796924 0.573388,0.570084 0,0 z m 2.573441,21.776913 0.149412,0.321512 z m -1.307026,-0.477916 c -0.06096,-0.658465 -0.624692,0.596108 0,0 z M 56.113538,77.16027 c -0.321863,-2.135294 -0.223475,1.394443 0,0 z m -0.879091,-0.02902 c -0.33857,-0.67555 -0.514092,0.386674 0,0 z m -1.100666,-2.88423 c -1.038205,-1.915804 -0.310661,1.212005 0,0 z M 49.47634,71.501851 c 0.664578,-0.284482 -1.420097,-0.78563 0,0 z m -0.639332,-0.220859 c 0.336859,-0.428212 -1.076627,-0.270847 0,0 z m 1.026873,-1.507934 c 1.080262,-0.973369 -0.119388,-2.2726 -0.34333,0.212668 l 0.05891,0.122928 z m -0.07281,-0.550038 c 0.690867,-1.068171 0.506597,0.337856 0,0 z m -0.68947,0.551104 c 0.4337,-0.214549 -0.287508,-0.402498 0,0 z M 81.671614,67.99373 c 0.719291,-0.725029 -0.91566,-0.237772 0,0 z m -28.6385,-14.696145 c -0.665245,-0.575004 0.336972,1.009708 0,0 z M 42.836399,52.079009 c 0.923475,-3.212557 -0.939397,-1.194163 0,0 z m 28.400049,-0.465698 c -0.463867,-0.950328 -0.344434,0.590685 0,0 z M 61.101392,31.243494 c -0.881472,-0.827843 -0.333564,0.771397 0,0 z"
         sodipodi:nodetypes="cccccccccccccccccccccccccccccccccccccccccccccccccccccccccccccccscccccccccsccccccccccccsccccccccccccccccccccccccccccccccccccssccccccccccccccccccccccccccccccccccccccccccccccccccccccccccccccccccccc" />
      <path
         id="path3887"
         style="fill:#b4b7b4;fill-opacity:1;stroke-width:0.0846667"
         d="m 35.930447,103.30124 c -0.788878,-3.588328 1.439814,-6.153942 1.561368,-9.480256 1.062128,-3.309014 2.50731,-7.092026 6.371115,-7.845552 2.813883,-1.193575 9.681565,1.125405 7.898088,-3.88561 -0.06939,-1.407989 -2.133036,1.312158 -0.634383,-0.855747 1.30328,-0.821035 -0.565137,-4.886372 -0.448539,-1.702415 -0.809824,4.455366 -1.806918,-1.692886 -2.272278,-2.952587 -0.427483,-0.731494 -1.960442,0.09432 -1.556898,-1.866661 0.595392,-0.840272 0.552109,2.277004 0.722044,-0.374137 1.592624,-1.540081 -2.061751,0.795628 -1.514652,-2.005914 -0.5069,-3.626795 -1.539029,-7.177704 -1.7854,-10.855795 -0.692887,-2.054431 -2.039165,-7.051376 -1.060929,-10.348888 1.657784,-1.570384 -0.818979,-0.743762 0.231223,-3.066749 0.469409,-1.986962 -1.974226,1.169233 -1.121543,-1.737357 1.768122,-1.149958 3.637221,-4.844838 0.468823,-2.476085 0.77417,-1.209834 5.513051,-3.947435 2.427833,-3.603519 2.861126,-0.409305 0.831757,-4.185608 3.395807,-3.639528 2.505763,0.254061 1.545055,-4.335494 3.420408,-2.108461 0.691137,-0.857171 4.334245,-4.799241 3.803494,-3.250827 -1.208118,0.9649 -2.217364,3.888063 0.185393,1.809825 1.37042,-0.608244 3.094832,0.698099 2.318679,-1.531803 1.639602,-3.108295 -0.523964,2.41585 2.067543,0.295206 2.103227,-0.541956 3.820061,-3.561754 5.289489,-1.917764 0.777585,-0.353908 1.957765,-2.821186 1.607622,-0.433709 1.237458,-0.07021 3.196247,-0.448704 0.968396,0.434973 -0.0034,1.989091 1.902607,-1.011382 2.842795,0.679389 2.573528,-0.393626 5.972221,1.255094 7.536786,1.955822 -4.60097,0.876802 2.436232,1.705038 3.615645,2.923612 -0.0015,0.824898 -2.247803,0.568875 -0.02579,1.450099 2.055236,0.892412 0.981414,2.073731 2.850432,2.818924 0.591138,3.222611 2.47095,5.841375 2.623971,9.043653 -2.247741,0.463276 0.940902,4.992184 -1.284752,5.80562 -0.149232,-3.0536 -0.471971,-0.474732 -1.251376,0.857393 1.823791,2.253794 -2.951807,3.551882 -2.13433,6.111799 -1.652787,3.590263 0.769213,7.632554 -0.641192,11.469988 0.259205,2.52499 -0.805503,5.376553 -0.8943,8.557781 -1.948357,3.11681 -3.910176,6.398904 -5.99036,9.438431 0.838867,2.646528 7.332811,2.034323 6.414296,6.09821 0.604293,1.820985 -2.021753,2.914369 1.106659,3.637209 0.33315,0.33104 0.425722,1.25318 -0.01738,1.40886 -14.620148,7.4612 -33.192375,-0.3452 -38.815817,0.5416 -3.77666,2.26228 -0.914507,5.84337 -6.204799,5.7456 -1.4195,0.19642 -2.588289,0.1403 -2.073188,-1.61194 0,-1.17748 -3e-6,-2.3554 -2e-6,-3.53261 z M 62.746959,102.437 c 3.404586,-0.53136 7.905108,0.95692 10.402774,-1.80977 2.301585,-0.1249 0.829359,-2.044657 -0.714739,-0.49529 -2.281104,0.89742 -7.171785,1.56425 -7.53473,0.89908 -1.55994,-0.27159 -7.240822,1.83418 -2.630423,1.47106 z m -1.331845,-1.68672 c 1.696941,-0.985882 7.799251,-0.30102 8.13414,-1.506609 -0.122432,-1.53696 4.343106,-0.900752 4.627663,-3.589091 2.601872,0.254698 -1.990351,-1.871259 -0.709111,-0.01333 -1.662253,0.936671 -6.216436,2.722303 -6.180808,3.213802 3.664453,0.248299 -2.774784,1.284878 -2.495402,0.115568 -3.917398,0.26412 -7.432471,-1.588566 -11.131293,-2.517679 -2.204944,-0.923711 -4.712559,-0.195805 -4.809854,-3.152297 -0.308435,-0.983887 -3.537968,-1.521721 -2.385841,-0.276043 1.732347,-0.296578 0.621502,2.611757 2.377382,2.846504 2.270558,1.388412 6.966265,1.7075 8.772663,3.608948 -3.058158,0.898317 -5.915634,-2.178666 -8.383332,-1.740021 -4.657105,-1.439021 1.357704,3.069288 3.426161,2.187463 2.874229,0.739805 5.769775,1.296275 8.757632,0.822785 z m -0.719667,-0.4204 c 0.04895,-0.806738 0.847618,0.41189 0,0 z m -0.762,-0.16933 c -2.302369,-1.062907 0.738656,-1.007567 0.241373,-0.10109 l 0.01334,0.18691 z m 20.00754,-1.157115 c 3.564767,-1.31893 -1.710615,-5.769355 -0.732085,-2.269991 3.01602,-2.671672 -0.219688,1.799942 0.732085,2.269991 z m -15.748239,-1.14444 c 2.52209,0.223069 8.924462,-1.435054 7.353324,-4.695266 -3.516389,0.343156 -7.942881,1.993954 -10.259526,-1.955134 -2.143947,-2.614721 -3.011631,-6.624621 -6.777178,-6.266722 -2.046051,-3.74664 -1.26697,2.266435 -2.463931,3.380138 -0.530959,2.226408 -3.842302,6.196786 0.660657,6.583343 3.74007,1.257293 7.272771,2.751276 10.874659,3.115974 l 0.323108,-0.03184 z m -15.46913,-0.529486 c 3.192414,0.02347 -3.359305,-2.145111 -0.19691,-0.256985 l 0.196912,0.256999 z M 47.231021,96.74383 c 0.532444,-0.854485 -0.758145,0.3509 0,0 z m -0.209362,-0.859039 c -0.983834,-0.611414 -0.983861,-0.170464 -0.03852,0.0695 z m 0.762122,-0.169205 c -0.969352,-0.95736 -2.702081,-3.046806 -1.543469,-0.408198 0.451603,0.318952 1.005095,0.426534 1.543469,0.408198 z m 28.448,-1.566333 c 1.635259,-2.31277 -3.004307,-0.438008 0,0 z m -9.394022,-0.338667 c 2.60324,-1.876374 -1.616867,-0.39635 0,0 z m -23.003074,-1.397 c 1.409387,-0.338486 4.587423,-2.22469 1.333387,-1.741442 -0.621815,0.248494 -1.721,0.929898 -1.333387,1.741442 z m 0.812845,-1.742807 c 1.639278,-1.118185 -2.552947,0.414706 0,0 z m 27.09673,-4.461683 c 0.768373,-0.622835 3.959257,-2.480709 1.090472,-3.438784 -1.699373,0.884009 -2.663183,1.307743 -1.764099,2.959436 -1.605043,0.02852 0.434574,0.97831 0.673627,0.479348 z m 1.88e-4,-1.032451 c -0.548845,-0.447654 0.740221,-0.06495 0,0 z m -6.362634,1.005658 c 2.62205,-1.436187 -2.463683,-5.791387 -1.805789,-2.039008 1.830644,-1.457834 0.115543,1.733867 2.007246,0.968271 -0.04902,0.507983 -1.723765,1.316811 -0.201457,1.070737 z m 2.213967,-0.833386 c 1.191228,-2.445863 -2.196194,0.20018 0,0 z m -3.650028,-0.835191 c -0.847798,-0.782078 0.179012,0.888494 0,0 z m -4.786825,-4.234549 c 3.302051,-2.376422 7.285916,-3.784768 11.166606,-3.452993 1.502079,-1.116102 6.422623,2.642499 6.04764,-1.013179 1.303048,2.466009 1.653436,-3.398138 2.752036,-1.366487 3.166972,-2.28327 2.731726,-6.665309 2.21176,-10.066329 -1.488863,-2.038982 3.689756,-7.132009 -0.536861,-6.756037 1.729893,2.535058 -3.934134,0.884304 -5.629531,1.101372 -1.89955,1.721322 -4.827339,-0.09069 -2.086064,-1.797762 2.968763,-0.238654 7.556077,-3.326013 9.67556,-0.462478 3.021562,-2.191538 -0.720908,-8.882342 -2.354667,-8.941663 -1.122388,0.369545 -1.276133,-2.407384 -2.851016,-1.62702 -1.739801,-1.739155 1.707273,6.253515 -2.453247,4.493664 -4.029925,-0.966516 -3.995789,3.77952 -7.902109,2.735055 -1.992933,-3.418863 -6.612868,-1.741153 -9.156712,-4.462398 -3.46885,-1.363569 0.423488,0.386298 0.650982,1.368579 -2.718021,-1.493279 -6.167492,0.307068 -5.11088,3.03023 -1.762034,0.854805 -0.714504,3.958056 -2.078237,5.414556 -1.185915,2.725631 1.160506,7.154317 0.828782,10.600889 -0.584825,1.933399 0.481778,3.784698 1.629686,6.182144 1.646004,-3.83173 -0.64003,4.820263 2.176729,3.304326 -0.47804,-3.663435 2.784003,1.147987 3.019543,1.715531 z m -3.532107,-2.206648 c -0.538845,-1.606887 -0.395985,-3.911128 0.02695,-1.109446 -0.037,0.137283 0.499883,1.013185 -0.02695,1.109446 z m 2.406741,-0.04611 c -0.201272,-0.868086 0.640489,0.238459 0,0 z m -0.491948,-0.448143 c -0.702218,-1.146384 0.897764,-0.81606 0,0 z m 10.830404,-1.513377 c -2.930205,-0.600182 0.86284,-1.652181 1.795877,-0.938547 5.910277,-1.502567 0.384602,1.856261 -1.795877,0.938547 z m 4.677344,-0.245391 c -0.22668,-1.127255 0.617478,0.39389 0,0 z M 64.972705,75.692906 64.73895,74.928238 Z m 1.153494,-0.46761 c -1.704982,-0.209202 -0.137344,-1.001588 0,0 z M 73.588253,74.2241 c 0.476648,-2.035778 1.446003,0.613766 0,0 z M 62.396718,67.40994 c -0.235516,-1.763488 -5.598184,-0.151085 -3.331038,-1.77712 1.977653,0.829673 5.897341,-1.327804 6.330747,-0.334981 -1.514434,0.278679 -2.977901,1.642807 -2.999709,2.112101 z m 13.24946,-2.041224 c -2.899183,-1.854763 3.560026,-1.268786 4.37338,-2.699882 0.100881,1.974735 -3.01157,2.123866 -4.37338,2.699882 z m -4.156061,-3.964293 c 0.792514,-1.551812 2.214256,-1.40864 0,0 z M 55.912676,60.74933 c 1.2278,-1.363999 -4.70284,-0.776234 -1.955535,-2.927476 1.679959,-0.436923 3.537714,-1.46808 4.877292,-0.656794 1.70341,-0.532747 5.431067,-0.805546 6.415739,0.02486 -0.943097,1.235918 1.193343,2.537753 -0.808907,2.33097 3.039483,2.5282 -3.121556,-0.815276 -4.551679,0.06593 -1.663028,0.776291 -2.209376,0.974574 -3.97691,1.162505 z m 9.573123,-2.229466 c 0.337854,-0.65918 0.559685,0.526403 0,0 z m -0.176018,-1.190147 c -0.08058,-0.528982 0.658808,-0.402278 0,0 z m 4.517375,20.198467 c -0.224328,-0.795582 -0.702897,0.806559 0,0 z m -15.726499,-0.01934 c -0.435605,-0.983257 -0.36301,0.782716 0,0 z m 0.239185,0.03667 c 0.874568,-0.182429 -0.132028,-0.347263 0,0 z m -4.608728,-0.418799 c -0.523814,-1.302762 -0.887393,0.590667 0,0 z m 4.826,-0.05351 c -0.859023,-1.776303 -1.085726,-0.318575 -0.170811,0.03324 z m -4.656667,-1.56164 c 1.622175,-0.766208 1.314962,-5.827556 -0.376407,-2.621084 -1.438273,0.233835 -1.135687,1.771647 -0.996592,2.34333 l 0.720724,0.239778 z M 49.307781,74.45167 c -1.550065,-1.126027 1.311018,0.121203 0,0 z m 0.162427,-2.383747 c 2.759818,-2.077065 -0.173815,-5.361984 0.608292,-8.382667 1.173956,-2.380299 -2.469235,-1.764003 -1.869242,-4.30308 -2.684025,1.311368 1.711672,3.123471 0.550616,4.725135 0.251711,2.613779 1.590245,4.288712 -0.452203,6.643168 -0.326136,0.80361 0.528013,1.236035 1.162537,1.317444 z m 0.477443,-1.307837 c -0.240782,-1.162761 0.514963,0.09335 0,0 z m -0.01762,-0.67679 c 0.08529,-1.061782 0.686755,0.215486 0,0 z m 1.822428,-0.826044 c -0.375742,-1.603943 -0.315781,1.626659 0,0 z m -0.168908,-0.783166 c 0.83305,-1.991125 -1.317572,-3.398542 -0.58488,-0.636042 0.0162,0.07425 0.415993,1.515441 0.58488,0.636042 z m -0.669342,-5.563661 c 0.599318,-1.643213 -2.062771,-2.647867 -0.390842,-0.655487 0.02416,0.08368 0.0251,0.827589 0.390842,0.655487 z M 49.31744,60.892584 c -0.122393,-1.655881 -0.731531,0.903157 0,0 z m 1.481143,0.0885 c 0.480912,-1.216735 -0.72274,0.525134 0,0 z m -5.518756,-1.008992 c -0.06468,-1.054419 -0.578623,0.729852 0,0 z m 4.461011,-0.189705 c 1.632039,-0.611015 0.915851,-4.962118 -0.12885,-1.797043 -2.06244,0.318271 0.184841,1.158249 0.12885,1.797043 z m 34.068606,-1.257933 c 0.525716,-0.980576 -0.734137,0.235243 0,0 z M 82.75111,57.39892 c 1.093576,-1.593166 -0.6573,-0.297252 0,0 z M 51.726828,55.504967 c -0.559952,-1.433651 0.08374,-3.374274 -0.932643,-0.890785 -0.311597,0.621397 0.251963,1.34045 0.932643,0.890785 z m -1.155515,-4.926106 c 0.349623,-2.517734 -1.388628,-0.450508 3e-6,4.3e-5 z m 0.695021,-0.999675 c 1.766151,-1.165745 -1.04157,-4.518181 -0.321627,-1.103484 0.519853,0.14437 -0.334005,1.547626 0.321627,1.103484 z M 76.79896,49.329629 c 0.456082,-2.936672 -2.225811,-0.153415 -0.01225,0.0026 l 0.01226,-0.0026 z M 50.89532,49.043085 c -0.379619,-0.450797 -0.385132,0.525485 0,0 z M 50.693798,48.60996 c -0.553328,-1.4128 -0.644825,0.55698 0,0 z m 5.006319,-1.138496 c 0.729801,-1.760907 -2.424264,-3.350615 -0.716923,-1.230936 -1.682042,0.553589 0.699244,2.363125 0.716923,1.230936 z m -5.144437,-0.48547 c -0.84499,-0.754901 0.259655,0.708888 0,0 z m 1.985503,-0.546409 c -0.114834,-1.445435 -0.431506,1.022195 0,0 z m 0.661264,-0.116633 c -0.105387,-0.822008 -1.12604,-0.318974 0,0 z m 0.570381,-0.349033 c -1.481965,-2.114236 0.883329,0.01734 0.744964,-2.510586 0.721237,-1.640489 1.969507,-0.117774 0.983852,0.354744 0.63948,3.446806 2.454266,-0.851214 0.724048,-2.083935 1.99014,-0.463745 -1.816655,-3.841772 -1.047156,-1.298973 -1.152704,3.558411 -2.133815,-3.507566 -2.16773,0.724826 0.09151,1.279063 -0.02461,4.711035 -0.663781,1.543909 -0.218941,-3.368167 -0.759954,2.516095 -0.72135,-0.47426 -1.464793,-3.171398 -0.934601,4.240745 -0.176718,2.174621 0.14768,2.629692 1.175201,-0.269137 1.483792,1.257668 l 0.417443,0.160319 0.422637,0.151667 z m 1.46291,-4.823587 c -0.325737,-0.771408 0.995847,0.119441 0,0 z m 17.042633,3.495631 c -0.785315,-2.583473 -1.999828,-0.401377 0,0 z M 64.004588,44.25279 c 0.775801,-1.913678 -2.911456,-3.977533 -1.12378,-4.813735 1.337657,2.539261 5.075451,0.761846 1.742709,-1.254477 -0.752195,-2.598326 -4.798551,0.65151 -4.940124,1.714333 2.412087,0.271169 2.581429,4.886154 4.321195,4.353879 z m -0.221053,-5.345303 c -2.373713,-0.499105 1.419616,-0.515663 0,0 z m 16.890768,5.204705 c 0.797097,-1.871718 -2.336829,-0.0261 0,0 z m -22.070122,-0.35654 c 0.02928,-1.968269 0.205367,-4.974006 -2.471234,-4.8003 0.529137,1.631257 2.788885,1.71665 1.751126,3.932638 0.14911,0.243121 0.255269,1.056193 0.720108,0.867662 z m 2.227745,-0.586662 c 1.829178,-1.368961 -1.886609,-0.584915 0,0 z m 13.390343,-0.915376 c 0.08657,-1.890189 -0.76408,-3.032989 -1.176288,-1.166621 0.751522,0.13467 0.530309,1.577291 1.176288,1.166621 z m -1.598401,-0.306929 c 0.303281,-4.383971 -3.623349,0.197778 0,0 z m -3.295727,-1.835506 c -0.168446,-1.537514 -0.321848,-1.898065 -0.574606,-3.796812 -1.762196,0.571956 -0.754092,4.359655 0.574606,3.796812 z m -2.499405,-1.101094 c 1.283053,-1.134024 -1.131971,-3.568688 -0.828381,-0.710043 -0.002,0.362394 0.33821,1.065246 0.828381,0.710043 z m 11.283533,-0.344064 c 2.193211,-1.568998 -3.106874,-0.296824 -0.22755,0.159525 z m 1.68227,-0.150805 c 0.08213,-1.031337 -0.936156,0.577855 0,0 z m -12.876092,-6.45404 c 0.01437,-1.272599 -0.901848,-2.351563 -0.950174,-0.138996 0.06812,0.45595 0.723913,0.293325 0.950174,0.138996 z"
         sodipodi:nodetypes="cccccccccccccccccccccccccccccccccccccccccccscccccccccccccccccccccccccccccccccccccccsccsccccccccccccccccccccccccccccccccccccccccccccccccccccccccccccccccccccccccccccccccscccccssccccccccccccccccccccccccccccccccccccccccccccccccccccccccscscccsccscccccccccccccscccccccccccscccccccccccccccccccccccccccccccccccccc" />
      <path
         id="path3885"
         style="fill:#969896;fill-opacity:1;stroke-width:0.0846667"
         d="m 35.930447,103.27054 v -5.189496 c 2.751387,-1.458717 0.376289,-3.993529 2.5326,-5.939726 0.288333,-1.234791 3.472687,-2.467798 1.426266,0.207339 -2.82749,1.312162 0.26578,4.564213 0.749413,1.064638 1.650768,-1.526789 0.891729,-5.647678 2.580579,-2.988387 0.388809,-0.301881 2.373166,0.983812 -0.148917,1.011329 -2.042791,0.689672 -1.920469,5.759026 -0.426438,4.79407 -2.108487,-3.877405 3.627038,-4.018637 4.772689,-5.484909 -1.575158,-0.03631 -3.788106,-1.575717 -4.142412,-1.216525 0.03049,-0.799918 -3.6088,-2.17717 -1.120775,-1.35639 0.8283,-1.142224 3.401779,0.918432 2.752,-1.360229 2.147541,-0.730322 5.473062,-0.544251 6.772008,0.242779 -0.790601,1.235004 -3.090743,-1.300577 -1.288103,1.031137 0.56156,2.42517 -1.424896,0.826304 -1.241264,-0.461843 -1.672469,-0.269533 -1.877828,-0.02421 -1.632681,-0.781285 -2.808259,0.65046 0.36415,3.337421 1.702952,4.142927 -1.510304,1.324639 -6.047342,1.550359 -5.873989,4.221506 2.291924,3.251803 5.794559,4.397184 9.676808,4.997475 7.258291,1.04727 14.378133,0.60235 20.882081,-1.677472 4.633174,-0.254664 1.315899,-4.740301 -1.362903,-4.154298 0.143833,-2.63741 5.791,1.237236 4.732459,2.949901 0.963914,0.382083 -2.3229,1.06544 -2.889074,2.169087 -5.821996,1.370872 -15.305361,3.131802 -20.643436,1.411752 -2.503486,-0.0904 -6.339331,-1.701891 -7.945927,-1.229198 7.823654,3.755718 16.323531,2.706728 24.205647,2.721378 3.485911,-0.964 7.281612,-1.60901 10.279965,-3.696846 3.192181,-3.1334 -2.092101,-5.76957 -4.791838,-5.993262 -1.572613,0.177007 -0.438821,-1.474355 -1.935862,-0.964684 0.720431,-0.945805 1.80417,-1.96602 1.617102,-3.52121 1.725706,-1.025545 0.151562,-2.204479 -0.419486,-0.693259 -0.691327,-2.704065 -1.230171,5.067939 -2.085223,1.472015 1.321942,-1.052641 1.246009,-6.078243 2.511422,-2.958011 -0.192554,0.591905 1.220336,-0.467144 1.310929,0.255362 1.185147,-2.901144 2.601152,2.911998 0.03117,1.88177 -0.273675,1.694064 -2.910153,3.990596 0.510014,4.588621 3.667334,0.153967 7.166259,5.283124 2.818521,7.321164 -3.052683,1.03731 -6.050959,2.22308 -9.232561,2.94519 -5.84503,3.42932 -18.981976,-0.34148 -16.93828,0.0835 10.431842,3.73515 -7.355249,-4.37468 -9.708974,-2.32434 0.701664,-1.960179 -2.547997,-0.14235 -2.950282,-2.542296 -1.070999,-1.781701 -4.701541,-0.320056 -1.705072,0.203365 1.974527,0.558004 3.215291,1.629661 1.980557,2.612141 1.619848,2.51777 -1.537327,3.54073 -0.416444,4.6214 2.702669,2.80711 -0.322151,3.10309 -2.685747,2.71496 -2.469509,1.0123 -2.419799,-1.33592 -2.259475,-2.99133 5e-6,-0.71328 -7.3e-5,-1.42661 -1.8e-5,-2.13987 z m 9.33555,-3.991138 c -0.633397,-1.500147 -0.98532,0.416528 0,0 z m -4.88931,-1.823816 c -0.817541,-1.064485 -0.788244,0.583602 0,0 z m -1.683651,-5.283198 -0.169367,0.03096 z m 1.555411,-0.393802 c -0.194609,-1.934538 -1.360627,0.404698 0,0 z m 8.724934,-1.100666 c -0.206217,-0.736784 -1.094064,0.46515 0,0 z M 77.79313,87.502712 c 0.08955,-0.277611 -0.279976,0.05721 0,0 z M 45.645947,87.254833 c 1.113277,0.0706 -1.519843,-0.02831 0,0 z m 1.001171,-0.0278 c 0.704488,-1.523875 -0.847271,0.527076 0,0 z m 31.229565,-0.789186 c -0.826898,-0.464227 -0.105412,0.736652 0,0 z m 13.520253,21.270183 c -1.215001,-0.58258 -3.718161,-3.46389 -1.017789,-1.30742 0.317533,0.46073 1.702996,1.10726 1.017789,1.30742 z m -5.043553,-2.88437 c -1.977714,-1.12411 1.190947,-1.46978 0,0 z m -2.04092,-2.41652 c -3.328829,-2.30455 2.269358,-0.38092 0,0 z m -42.73354,-1.36744 c 0.25464,-1.408708 0.848302,-0.10377 0,0 z m 40.680361,-0.0195 c -2.032445,-0.87115 1.939695,0.058 0.47669,-0.0145 z M 76.76306,98.636586 c 0.454081,-0.831747 0.420365,0.391444 0,0 z m -4.496618,-0.314691 c 0.03061,-0.703094 1.245858,0.169421 0,0 z M 39.239131,98.022753 c 0.810977,-0.407718 0.534918,0.724606 0,0 z m 13.347682,-0.230878 c -0.512179,-0.619394 0.816534,0.332581 0,0 z m 16.146053,-0.123801 c 0.551964,-1.090268 1.45457,-0.0095 0,0 z m -0.787904,-0.151801 c 0.537168,-0.509546 0.0154,0.53918 0,0 z m 7.640259,-0.276865 c 0.262707,-0.615325 0.292242,0.610607 0,0 z m -5.725203,-0.230746 c 0.238527,-0.858374 0.452866,0.380572 0,0 z M 56.553684,96.792426 c -0.130025,-0.99858 0.718561,0.9888 0,0 z m 17.363134,0.112806 c 0.206132,-0.998503 0.942162,-0.235413 0,0 z M 54.133781,96.136263 c -0.728118,-0.436847 0.950764,-0.604761 0,0 z M 44.653806,95.75792 c 0.270816,-1.159024 0.744043,0.610009 0,0 z m 8.410388,-0.09652 c -0.969099,-1.255743 1.939936,0.644675 0,0 z m -7.380147,-0.08974 c -0.400636,-0.544167 0.655046,0.108613 0,0 z m 25.806401,-0.0909 c 1.000714,-1.446126 2.612827,-0.245752 0,0 z m -21.23664,-0.54543 c -0.861085,-0.880207 1.176482,-0.216028 0,0 z m 27.463718,-0.688551 c -1.713119,-1.356457 1.212528,0.321502 0,0 z M 38.988948,93.926945 c -0.340141,-0.850557 1.194488,-0.230726 -5e-6,1.2e-5 z m 10.869166,-1.301692 c -1.4729,-2.03869 1.266506,-0.01518 0,0 z m 15.0495,0.02491 c -1.886421,-0.628258 0.691497,-0.995186 -6e-6,-5e-6 z m 7.927474,0.0033 c -0.671404,-0.800957 0.78938,0.08639 0,0 z m -9.219937,-0.33161 c -0.70058,0.140125 -0.145215,-0.304708 0,0 z m 4.794054,-0.04999 c -1.971496,0.407278 -3.231686,-5.067431 -3.941203,-2.399268 0.122021,0.157859 0.456444,1.766739 1.239997,0.831224 2.08149,2.475577 -5.285,0.203472 -3.213792,-1.049234 -0.542964,-1.877983 -0.969115,-0.634673 -0.646391,0.02818 -1.839583,-2.242055 -4.213228,-4.134593 -5.969889,-6.6646 -1.302985,-3.891231 -0.624365,3.865346 -1.306163,-0.02572 -1.054879,-2.660144 -2.599561,0.930315 -1.980596,2.389241 -0.387447,-1.233648 -0.961882,-5.923298 -0.579476,-6.350318 0.907656,3.307454 0.730915,-2.291436 -1.145876,-2.613379 0.102652,-3.247867 0.759801,-6.886512 -0.798292,-10.261325 0.708809,-1.88972 1.196347,3.134848 1.395565,4.159303 0.830098,1.142546 -1.089915,3.473971 0.797167,2.101881 1.588218,0.522058 1.654395,4.757959 0.696898,2.860704 -1.115756,1.651092 0.411088,3.181724 1.662357,2.60509 -1.976918,1.398344 0.792056,3.36662 1.077996,0.690391 0.158827,1.558004 -0.0455,3.323055 1.207879,3.911195 -0.449524,2.360224 1.946248,-1.094817 -0.176525,-0.595194 0.02602,-2.765122 2.026918,1.189532 1.377121,-0.470249 0.709239,0.06442 -0.840533,-3.460074 0.609377,-0.693133 0.361218,1.829348 3.40039,6.095164 0.961999,4.943628 0.304688,1.874627 2.948863,-1.329674 3.705016,1.084009 1.557764,1.981163 -2.712951,-1.470968 -1.388817,0.536827 -1.362558,-0.07722 2.791904,2.76605 2.052838,0.43746 0.581054,-0.556252 1.271202,1.212677 2.343163,0.38042 -0.232223,2.108731 1.931198,-0.506655 1.186878,1.755189 0.51083,2.332572 1.588889,-1.926768 2.037299,-2.096601 -0.287067,-3.089163 2.252616,1.573348 2.209839,-1.316339 2.087209,0.370856 -0.446133,2.978715 0.527903,4.490595 0.02291,1.570224 -3.154909,0.932153 -0.949892,0.05686 0.968071,-2.210478 -1.257939,-3.809257 -1.240161,-0.621147 -0.268385,1.419239 -1.420107,0.611229 -1.752219,1.89432 z m -0.474757,-0.922295 c -0.572513,-0.446878 -1.281876,0.180311 0,0 z M 63.637614,90.23083 c 0.07527,-1.175663 -0.997868,0.886651 0,0 z m -3.556756,-3.257329 c -0.539173,-1.120929 -0.279078,0.872092 0,0 z m -1.365683,-1.816468 c -0.101379,-2.553184 -1.480097,0.01104 0,0 z m 0.488784,-0.774672 c -0.306515,-0.262816 -0.102238,0.962514 0,0 z m -1.683512,-0.341017 c -0.597887,-1.217934 -0.808452,0.552461 0,0 z m 0.720382,-0.3277 c -0.349567,-1.048858 -0.194868,0.641077 0,0 z m -4.191715,-2.184722 c 1.14367,-1.842284 -1.981281,0.02365 0,0 z m -1.308852,-0.423969 c -0.363825,-0.930453 -0.673381,0.306184 0,0 z m 1.304064,-0.773026 c 0.362906,-0.854586 -0.944998,0.165361 0,0 z m 20.974147,10.974106 c 0.664051,-0.79074 0.723703,-0.04165 0,0 z M 40.893649,90.858525 c 0.08493,-3.085273 1.818803,-0.127801 0,0 z m -1.204002,-0.55245 c 0.187961,-0.582678 0.252987,0.714997 0,0 z m 1.102311,-0.07266 c -1.24802,-1.072384 1.079424,0.421153 0,0 z m 18.760489,-1.336479 c 0.334877,-0.614296 0.185683,0.877253 0,0 z m -11.873673,-0.07187 0.294139,-0.02488 z m 11.695369,-0.152987 c -0.456072,-0.92562 0.713015,-0.749242 0,0 z m 8.053601,-0.30133 c 0.228332,-0.927813 0.526672,0.316394 0,0 z m 0.8622,-0.199899 c -0.07862,-0.667251 0.656913,0.196343 0,0 z m 0.370327,0.06169 c -0.328779,-1.998645 1.737937,-4.840941 -1.273299,-4.658124 1.20906,-1.156811 3.116777,0.164438 2.598864,1.819832 -0.210875,0.893496 -1.067557,1.865156 -0.864791,2.872322 z m -3.011824,-0.68911 c 0.402493,-1.950419 1.502709,0.244453 0,0 z M 43.682431,87.24744 c 0.552449,-0.952894 1.047909,0.21626 0,0 z m 22.201938,-0.891488 c -0.195332,-0.697751 1.144494,0.864745 0,0 z M 51.347986,86.242807 c -0.06482,-0.939633 0.692943,0.602202 0,0 z m 26.78518,-0.15957 c -0.354034,-1.621367 0.691635,0.460539 0,0 z m -31.687883,-0.05651 0.0957,-0.363595 z m 17.176509,-0.249488 c 0.468217,-1.430475 1.742741,0.812685 0,0 z m 13.689489,-0.153016 c -1.811993,-1.508837 1.853232,0.08339 0.412181,-2.007583 -0.438215,-1.56331 -0.987185,-6.005727 -4.717248,-4.834384 1.900173,1.648543 2.321402,3.361374 -0.746267,2.799339 -3.354875,-0.105929 -6.306527,0.704364 -9.652449,1.15778 -1.595907,-1.337161 -0.682921,-0.270013 -1.320838,0.273712 -1.351176,-1.454079 2.965766,-3.373045 0.469793,-3.750365 1.243994,-1.808515 4.834131,-2.476666 6.553152,-2.268363 0.0966,2.452566 2.850639,1.20083 3.135603,1.233953 -3.525443,-1.951711 2.238962,-1.468933 3.543936,-0.699798 2.235795,-0.79273 1.640891,3.296826 3.728725,0.801248 1.172391,-1.581234 -0.297888,-3.838384 2.172699,-4.304345 0.763565,-2.83366 1.714522,-0.356302 0.703955,1.453249 1.323716,3.288332 -2.637213,4.537286 -1.4542,7.53544 -0.418261,2.155715 -1.877187,-0.669805 -1.492611,2.042729 -0.472933,0.332841 -1.000221,0.578711 -1.336431,0.567388 z M 65.965947,81.141234 c 1.746113,-0.739018 8.138997,-0.30433 3.588789,-1.948107 -0.984913,1.040928 -4.170193,1.031786 -5.556594,1.362033 0.374153,0.667465 1.300355,0.760411 1.967805,0.586074 z m 1.799167,-2.040681 c 2.298039,-1.542626 -1.328199,0.0091 0,0 z m 7.620708,6.414929 c -0.230544,-3.247691 1.395745,-0.570897 0,0 z m 1.015292,-0.06394 c -1.332672,-0.650086 0.893288,-0.12264 0,0 z M 61.722031,85.029948 c -0.489784,-2.029825 1.128336,-0.907518 0.193507,0.0063 z m 15.77975,-0.404644 c -0.274877,-0.513001 0.508038,0.01467 0,0 z M 61.005848,84.422139 c -0.0532,-0.694523 0.738544,-0.195928 0,0 z m 9.584402,-0.812537 c 0.0255,-1.140027 0.604973,0.637413 0,0 z m 6.522433,-0.01078 0.03676,-0.326192 z m -10.953845,-0.04249 c -1.365645,-1.162195 1.355694,-0.02535 0,0 z M 75.69122,83.04639 c -1.213756,-0.846559 1.474381,-0.911378 0,0 z M 59.992714,82.194319 c 0.488992,-2.020133 2.544876,-2.174675 0.315946,-0.490765 -0.06865,0.153527 0.179485,0.868251 -0.315946,0.490765 z m 14.775163,-0.3429 c -0.381402,-0.72713 0.743103,0.344611 0,0 z m 0.828904,-0.0635 c -0.456766,-0.690892 0.960167,0.208722 0,0 z M 59.25854,81.24983 c 0.398952,-2.37993 1.824603,-1.556056 0,0 z m 15.618013,-0.732689 c -0.380713,-0.958854 1.231865,-0.02262 4e-6,4e-6 z m 0.666416,0.02604 c 0.09937,-1.070808 1.382857,0.603629 0,0 z M 57.443987,80.06214 57.831663,79.945998 Z m -0.43154,-0.246954 c -1.267475,-1.723618 0.497768,-2.62108 0,0 z m -7.418088,-0.71673 0.05057,-0.345798 z m 4.793422,-0.27387 c -0.05007,-0.680295 0.6477,0.760286 0,0 z m 22.999172,-0.154133 c -0.719622,-1.109207 1.035147,-1.058896 0,0 z m -23.976996,-1.20726 c -0.9145,-1.566434 0.942235,-2.181879 0,0 z M 48.785822,76.64587 c -0.702136,-0.532898 0.821401,0.06837 0,0 z m 19.747977,-0.714062 c -0.257229,-0.85913 1.03766,-0.07201 0,0 z m 0.538043,-0.230818 c 0.603028,-0.734181 1.564562,0.546597 0,0 z M 52.694447,72.681256 c -0.605724,-0.461933 0.621694,-0.115416 0,0 z m -3.205119,-0.14317 c 1.077612,-0.793996 -0.0064,0.487972 0,0 z M 47.708476,71.87247 c -1.200984,-0.897303 1.373888,0.265967 0,0 z m -0.326879,-1.408715 c -0.18496,-0.966704 0.45055,0.571071 0,0 z m 34.522851,-0.305581 c -0.504632,-1.152001 0.540277,0.227048 0,0 z M 45.79773,69.85577 c 0.236188,-2.210012 1.987596,-0.413479 0,0 z m 2.862069,-0.902782 c -1.19822,-2.39702 2.269879,-2.6489 1.063782,-0.11164 -0.206543,0.377315 -0.780478,0.422594 -1.063782,0.11164 z m -2.193835,-0.787531 c -1.787164,-0.01852 0.42318,-0.955022 1.4e-5,2.7e-5 z m 0.277562,-1.216443 c -1.303655,-1.536517 0.426548,-3.122247 0.360321,-0.399289 0.42103,0.351088 -0.176426,0.781692 -0.360321,0.399289 z m 1.622895,-0.417265 c -0.730653,-2.065534 0.476402,-1.612816 0,0 z m 13.482651,-0.128673 c -1.962636,0.710716 -2.990035,-1.153695 -0.487369,-0.511918 1.575144,-0.361431 4.51509,-0.53217 1.411067,0.119244 -0.253937,0.192995 -0.531709,0.654252 -0.923698,0.392674 z m 13.907689,-0.936875 c -2.846638,-2.232363 3.375751,-0.991791 4.273086,-2.594821 -0.430476,1.964727 -3.114107,1.239104 -4.273086,2.594821 z m 5.78839,-1.612692 c 0.341734,-1.77132 1.119368,-0.580791 0,0 z M 46.00578,63.282205 c -1.455984,-0.607525 0.470654,-2.977648 0.294206,-4.005518 0.794214,0.40155 -0.911863,-1.6981 1.161814,-0.610723 -0.268865,1.760018 -1.700017,3.375105 -1.45602,4.616241 z m 2.502652,-0.165978 c -0.02783,-0.398875 0.697674,0.102865 0,0 z m 34.116404,-1.627141 c -0.672993,-2.38289 0.895247,-1.272408 0.07508,0.279803 z M 63.447114,59.7837 c -2.682752,-1.489515 -6.191319,-0.67578 -8.790617,-0.355871 0.02588,-0.962811 3.84804,-0.525915 5.374502,-2.040936 2.109033,-1.320746 6.194377,1.487631 3.702363,1.649791 -1.030599,-0.903152 -0.669354,0.250035 -0.286248,0.747016 z m -1.382596,-1.399107 c 2.876324,-0.158177 -2.164271,-1.315538 -0.675271,-0.138403 l 0.455714,0.04608 z m -1.679755,-0.55662 c -1.22355,-0.683878 -1.263712,0.779014 0,0 z m -6.85776,1.347571 c -0.33656,-0.699995 0.650768,0.417285 0,0 z m 29.315463,-0.05985 c 0.07164,-1.746499 0.741154,-0.08489 0,0 z M 47.879235,58.875451 c 0.08815,-1.32346 1.123505,1.139168 0,0 z m 6.032072,-0.06861 c -0.751535,-1.687487 1.54385,-0.460464 0,0 z m 19.991492,-0.04931 c 1.222372,-1.536963 4.193824,-3.273779 5.679294,-2.320116 -2.210059,0.181926 -3.537392,2.408075 -5.679294,2.320116 z m 2.604149,-0.163505 c 0.267529,-1.291009 1.69294,0.763987 0,0 z M 47.992451,58.156478 c 0.154789,-1.748871 0.985973,0.6019 0,0 z m -1.438756,-0.04741 c -1.117663,-1.433369 1.230131,0.176004 0,0 z m 33.432727,-0.07871 c -4.019622,-1.169221 5.297483,-1.525728 0.408314,-0.565083 -0.15095,0.248407 0.337631,1.096932 -0.408314,0.565083 z m 3.685231,-0.351272 c -0.292596,-2.252762 1.507774,-0.471887 0.150268,-0.134929 l 0.03598,0.08884 z M 45.236725,55.985752 c 0.01373,-0.953838 0.962167,0.19792 0,0 z m 4.706056,-0.6985 c -1.335102,-1.340616 1.224269,-5.300863 0.537093,-1.928513 -1.156503,0.108719 0.891841,1.416714 -0.537093,1.928513 z m -4.445001,-0.30133 c -0.560204,-1.589878 1.007149,-0.909594 0,0 z m 1.093575,-0.01366 c -0.395616,-3.704446 1.912811,-1.418244 0,0 z m 37.347785,-1.95484 0.08542,-0.487524 z M 66.918447,52.874248 c 0.76379,-0.04822 0.112721,-0.234707 0,0 z m 0.671557,-0.13057 c -1.670634,-2.299154 -6.719068,-2.859295 -6.682903,-5.923092 1.020307,0.388364 2.652616,-1.975806 1.315743,0.25041 0.963519,1.411743 2.584288,1.603042 3.53662,3.371495 2.40411,-1.602074 -2.864259,-3.075863 -1.964436,-3.888049 0.293788,0.585426 2.044738,1.390146 1.729535,-0.08311 1.865665,-0.05671 -2.274309,-3.383682 0.917005,-2.13091 -0.393533,2.801031 2.07761,1.527537 2.854189,3.176476 -3.619201,-1.04469 -2.270805,3.156277 -0.573791,4.61187 -1.222551,-0.960705 -0.650107,0.570133 -1.425199,-0.85794 -0.387728,0.509844 1.508998,1.7361 0.293237,1.472845 z m -0.282456,-1.995516 c 0.663452,-0.645699 -1.429194,-0.0259 0,0 z M 61.452463,47.28356 c 0.469171,-1.231261 -1.069174,0.825502 0,0 z m 6.703838,5.349909 c 0.1517,-1.048643 0.65639,0.842213 0,0 z m 17.132718,-0.103395 c 0.0401,-1.626391 1.146916,0.988595 0,0 z m 0.641817,-0.283182 c 0.211711,-1.358031 1.184968,0.546354 0,0 z m -16.585277,-0.06409 c -1.70884,-0.95286 -2.378119,-5.866203 -0.291786,-2.557707 1.12487,0.750538 1.416079,0.812967 1.355427,2.557907 l -0.366503,0.06731 z m -19.759203,-0.80441 c 0.37455,-0.960312 0.625694,0.843275 0,0 z m 21.907803,0.145837 c -0.690108,-1.930056 0.402337,-3.268949 1.554313,-3.743592 -0.831329,-1.150198 1.665462,-0.597975 1.928483,-0.942151 -1.563794,2.635226 -0.132776,2.988094 -3.110006,3.910753 -0.34641,0.08849 0.13557,1.050814 -0.37279,0.77499 z m 14.583866,-0.673174 c -0.653327,-2.511455 -2.191982,-3.924169 -3.599123,-6.038253 0.954089,-2.196623 2.258306,3.948814 3.165963,0.483677 0.801424,-1.76627 -0.263811,2.399631 0.168902,3.135343 -0.08814,0.504016 1.052219,2.410809 0.264258,2.419233 z m -2.437911,-4.961803 c -0.386574,-1.363322 -0.774196,0.355689 0,0 z m -38.386859,4.602169 c -0.646208,-1.318577 0.740723,-0.858563 0,0 z m 39.455735,0.06321 c -0.867575,-2.446753 1.381648,0.710792 0,0 z M 53.371781,49.931285 c 0.586559,-0.743501 0.494925,0.378281 0,0 z m 21.206597,0.02585 c -0.620208,-0.587432 0.963687,-0.51543 0,0 z M 47.361743,49.585927 c 0.272562,-0.468543 0.19823,0.872396 0,0 z m 7.080086,0.155658 c 0.6758,-0.791789 1.144842,0.132641 0,0 z m 28.704397,-0.183444 c -0.782779,-1.892057 0.278118,-0.796048 0.1004,0.0237 z M 45.97223,49.395278 c -2.57163,-1.685618 1.106271,-5.449884 2.197596,-5.56913 -0.867987,1.284579 -1.50419,2.20704 -2.646356,2.860496 1.198454,1.580869 0.64062,1.216721 0.44876,2.708634 z m 29.656858,0.07114 c -0.773898,-1.270542 0.442618,-1.214727 0,0 z m 8.357646,-0.177633 c -0.883597,-2.042951 0.976396,-0.393678 0.18086,0.03705 z M 56.413867,48.926517 C 55.174262,48.580771 52.38155,46.58876 54.9835,47.880437 c 0.196712,0.07696 3.255294,1.489373 1.430367,1.04608 z m 17.833823,0.01976 c 0.387525,-1.211942 0.537932,-0.151185 0,0 z M 53.838812,48.746752 c -0.434347,-1.306575 0.801655,0.322942 0,0 z m -4.746429,-0.06954 c -0.03857,-1.3711 1.19888,0.23295 0,0 z m 9.206646,-0.03978 c -0.407184,-0.477564 1.100755,0.32562 0,0 z m -5.858582,-0.08047 c -0.165211,-1.598573 0.690031,-0.500539 0,0 z M 47.000211,48.3726 c 0.112205,-1.711028 1.326231,-3.665016 0.816655,-0.828673 -0.142553,0.286928 -0.336873,1.035551 -0.816655,0.828673 z m 10.510487,-0.176181 c -1.536691,-1.868559 2.224963,-0.05451 0,0 z m 1.52742,-0.172092 c -0.391554,-1.684773 0.991018,0.859908 0,0 z m -9.564903,-0.03957 c -0.212091,-1.875209 1.310486,-0.63305 0,0 z M 75.381752,47.77309 c 0.171078,-1.574178 -2.015309,-6.004993 0.440816,-2.575384 0.401728,0.744969 0.637597,2.272247 -0.440816,2.575384 z M 71.8539,47.602581 c 0.548036,-1.18665 0.436451,0.605593 0,0 z M 70.685518,47.41513 c -1.339912,-1.191881 1.11662,-0.02683 0,0 z M 56.102281,47.35718 c -1.312133,-1.061886 0.927605,-0.13845 0,0 z m 26.264047,-0.142768 c 0.08234,-1.290839 1.815395,-0.378879 0,0 z m -10.320006,-0.27025 c -1.162531,-1.483502 -0.04177,-1.497585 0,0 z m -2.012255,-0.355985 c 0.110964,-0.703835 -1.215227,-2.422783 0.09305,-2.564205 -0.676184,0.712009 1.748699,3.189359 -0.09305,2.564205 z m 3.807692,0.04857 c -0.914263,-1.504119 0.841937,-0.184686 0,0 z m 6.877355,0.02157 c -0.882729,-2.774923 -0.636447,0.769349 -2.128307,-0.790585 -0.672641,0.12529 -3.592691,-1.911371 -3.14346,-2.756458 2.016274,-2.012091 1.360482,0.505479 3.285113,0.794994 -0.279569,-3.320341 1.067492,0.03978 1.840819,1.049538 1.250797,0.274044 0.343537,1.421318 0.145835,1.702511 z M 60.682331,45.927934 c 0.07518,-0.831804 0.400378,0.669008 0,0 z m 2.574283,-0.01238 c -0.724864,-0.848585 0.859062,0.147216 0,0 z M 48.395799,45.73367 c -0.09768,-0.884799 0.875902,0.271775 0,0 z M 61.542114,45.7215 c -0.165216,-1.536355 1.368661,0.03911 0,0 z m 6.366127,-0.03988 c -1.86961,-0.597728 0.718905,-2.624454 0,0 z m 17.157275,-0.321532 c -1.326694,-0.956932 -1.548256,-4.939891 -0.05561,-2.130583 -0.168995,0.734231 0.703463,1.562017 0.05561,2.130583 z M 47.574413,45.130971 c 0.340808,-1.200246 0.9339,0.316558 0,0 z m -2.366918,-0.136767 c -0.289404,-0.663687 0.855609,0.388408 0,0 z m 35.469286,-0.290285 c 0.371464,-1.220259 1.196446,0.105958 0,0 z m -34.87293,-0.208688 c -1.815642,-0.553222 1.892294,-1.859203 0.0078,-0.791113 0.130858,-0.221085 0.526717,1.146138 -0.0078,0.791113 z m 36.217841,-0.02544 c -2.192931,-0.800831 0.347275,-4.283306 0.412569,-0.841784 0.01057,0.277889 0.02118,0.846562 -0.412569,0.841784 z m -33.78126,-0.274063 c 0.371518,-1.187957 0.169887,1.016548 0,0 z m 18.814074,-0.641732 c 0.0066,-0.501383 0.706475,0.100724 0,0 z m 3.345096,0.07043 c -1.156754,-1.38218 0.923542,-1.246568 0,0 z m -1.352958,-0.171991 c -1.720209,-1.150274 1.022431,-0.638303 0,0 z m -2.128197,-0.280476 c -0.572463,-1.069593 0.854932,-0.453631 0,0 z M 46.572019,42.848501 c 0.03522,-1.00207 1.478915,-1.569628 1.066255,-2.041428 0.848816,-1.316631 0.329382,-3.02299 -0.484458,-0.816743 0.317148,-2.463046 3.024575,-2.754353 5.09683,-3.632291 -0.342441,1.062908 -3.586015,2.205354 -1.385826,2.679079 -2.650203,-0.04472 -2.171046,3.05963 -4.292801,3.811383 z m 19.732595,-0.04044 c -0.590294,-0.699487 1.096969,0.173916 0,0 z m 0.924607,-0.25604 c -0.594018,-1.64636 0.590603,-0.97263 0,0 z M 66.184669,41.7547 c 0.230103,-0.847332 0.23011,0.847327 0,0 z m 15.626004,-0.04333 c -2.147681,-0.492663 1.276665,-1.096105 0,0 z m -3.490447,-0.02723 c -0.886128,-1.266932 0.801287,-0.524781 0,0 z M 50.577781,41.571969 c -1.058916,-1.4723 1.656177,-0.459674 0,0 z m -4.862195,-0.09532 c 0.821705,-0.863994 0.826799,0.09279 0,0 z m 38.01183,-0.310063 c -0.621458,-0.508681 1.365251,0.380132 0,0 z M 52.149872,40.782443 c -1.722991,-0.323337 0.955938,-3.496715 0.426774,-0.496792 -0.443095,-0.269863 -0.547831,0.114956 -0.426774,0.496792 z m 30.730783,-0.05375 c -0.33271,-1.791644 0.900685,-0.177473 0,0 z m -7.495541,-0.888115 c -1.376292,-1.241329 1.62527,-0.611804 0,0 z m 6.010037,-0.09672 c -0.489589,-0.535178 0.180739,-0.95653 0,0 z M 82.63376,39.57913 c -2.367108,-1.784455 1.944893,-0.526053 0,0 z m -8.293396,-0.171749 c 0.515792,-0.751945 0.435523,0.308852 0,0 z m -3.764078,-0.124308 c -0.853,-1.309113 0.9854,0.238468 0,0 z m -17.797172,-0.29416 c -0.740341,-1.125042 1.312996,-0.876175 0,0 z m 1.899616,-0.0593 c 1.076572,-0.745479 0.783809,-5.301116 1.280137,-1.938986 0.874956,0.862728 -0.443156,2.01075 -1.280137,1.938986 z m 26.209718,-0.132292 c -0.838678,-0.850117 1.162561,-0.541123 0,0 z m -28.829001,-0.443403 0.121996,-0.408149 z m 6.815667,-0.826634 c 0.632263,-0.854656 0.64667,1.014179 0,0 z m 20.900256,-0.13149 c -0.958693,-1.069271 -1.7034,-4.335479 -0.441939,-1.452556 0.407174,0.365587 1.131402,0.921558 0.441939,1.452556 z M 53.138858,37.05982 c 0.682216,-3.102218 2.460367,0.300936 0,0 z m 4.293053,-0.334364 c -1.653093,-0.490835 -0.206725,-3.528094 0.07426,-3.176091 0.988406,1.270353 -0.559048,1.475409 -0.07426,3.176091 z m 0.681203,0.0148 c -0.80568,-2.128863 1.055869,-2.037276 0.987491,-0.431475 -0.165236,0.293017 -0.623683,0.679279 -0.987491,0.431475 z m 6.63062,-0.403901 c -1.148928,-1.421798 0.6115,-1.216148 0,0 z m 8.03774,-1.011873 c -0.35911,-0.571363 1.35373,0.104315 0,0 z m 3.196307,-0.455136 c -0.906148,-2.618969 3.759077,-0.384207 0,0 z m -19.8755,-0.215222 c -0.674151,-0.974061 1.259691,-0.772919 0,0 z m 8.588212,-0.512371 c 0.24548,-0.798667 0.2385,0.571781 0,0 z m 8.641455,-0.07724 c 0.549974,-1.275937 1.153763,-0.332282 0,0 z M 58.067234,33.893276 c -0.236174,-0.658929 0.81701,0.206234 0,0 z m 14.054449,0.06407 c -0.09382,-0.438987 0.911708,-0.249964 0,0 z m -5.864839,-0.811138 c 0.806791,-0.922277 -0.187139,0.716886 0,0 z m -0.169132,-0.527481 c 0.50218,-0.655744 0.275647,0.464006 0,0 z m -6.196598,-0.03463 c 1.026489,-1.304665 1.201367,0.03424 0,0 z m 2.425096,-0.199179 c -0.954267,-1.996075 1.227614,-0.997155 0,0 z m 11.887293,-0.702976 c -0.778934,-1.046183 1.204349,0.210249 0,0 z M 70.9503,31.364933 c -1.456578,-0.45174 0.171849,-1.100274 -4e-6,4e-6 z"
         sodipodi:nodetypes="cccccccccccccccccccccccccccccccccccccccccccccccccccccccccccccccccccccccccccccccccccccccccccccccccccccccccccccccccsssccsssccccsccccccccccccccccccccccccccccccssccccccccccccccccccccccccccccccccccccccccccccccccccccccccccccccccccccccccccccccccccccccccccccccccccccccccccccccsssccccccccccccccccccccccccccccccccccccccccccccccccccccccccccccccccccccccccccccccccccccccccccccccccccccccccccccccccscccccccccssccccccccccccccccccccccccccccccccccccccccccccccccccccccccccccccccccccccccccccccccccccccccccccccccccccccccccccccccccccccccccccccccccccccccccccccccccccccccccccccccccccccccccccccccccccccccccccccccccccccccccccccccccccccccccccsss" />
      <path
         id="path924-7-8"
         style="display:inline;fill:#969896;fill-opacity:1;stroke:none;stroke-width:1.24803px;stroke-linecap:butt;stroke-linejoin:miter;stroke-opacity:1"
         d="m 86.885332,116.73457 c 2.652434,2.78334 -15.291383,4.8941 -20.359173,5.8637 -9.467611,1.17948 -19.309867,-0.46986 -26.241739,-1.40527 9.407492,0.72619 36.519963,0.33751 46.600912,-4.45843 z"
         sodipodi:nodetypes="cccc" />
      <path
         id="path885"
         style="display:inline;fill:#969896;fill-opacity:1;stroke:none;stroke-width:0.277043px;stroke-linecap:butt;stroke-linejoin:miter;stroke-opacity:1"
         d="m 48.343743,124.14856 c -1.666571,-0.14779 -3.302557,-0.5272 -4.971162,-0.65824 1.586205,6.57279 0.542648,7.66079 4.971162,0.65824 z"
         sodipodi:nodetypes="ccc" />
      <path
         id="path885-0"
         style="display:inline;fill:#969896;fill-opacity:1;stroke:none;stroke-width:0.277043px;stroke-linecap:butt;stroke-linejoin:miter;stroke-opacity:1"
         d="m 62.199221,124.37004 c -1.6701,0.0998 -3.344208,-0.0331 -5.013856,0.0833 2.540032,6.26622 1.668722,7.4965 5.013856,-0.0833 z"
         sodipodi:nodetypes="ccc" />
      <path
         id="path885-6"
         style="display:inline;fill:#969896;fill-opacity:1;stroke:none;stroke-width:0.277043px;stroke-linecap:butt;stroke-linejoin:miter;stroke-opacity:1"
         d="m 55.668551,124.82141 c -1.670006,-0.10207 -3.315847,-0.43622 -4.987437,-0.52114 1.766923,6.52651 0.753796,7.64286 4.987437,0.52114 z"
         sodipodi:nodetypes="ccc"
         inkscape:transform-center-x="5.2208405"
         inkscape:transform-center-y="6.7109926" />
      <path
         id="path885-5"
         style="display:inline;fill:#969896;fill-opacity:1;stroke:none;stroke-width:0.277043px;stroke-linecap:butt;stroke-linejoin:miter;stroke-opacity:1"
         d="m 68.741038,123.7777 c -1.655257,0.24375 -3.334639,0.25533 -4.987989,0.51562 3.070857,6.0239 2.308867,7.32466 4.987989,-0.51562 z"
         sodipodi:nodetypes="ccc" />
      <path
         id="path885-58"
         style="display:inline;fill:#969896;fill-opacity:1;stroke:none;stroke-width:0.277043px;stroke-linecap:butt;stroke-linejoin:miter;stroke-opacity:1"
         d="m 75.267018,122.4364 c -1.633055,0.36398 -3.307122,0.49799 -4.937043,0.87828 3.502404,5.78368 2.837387,7.1366 4.937043,-0.87828 z"
         sodipodi:nodetypes="ccc" />
      <path
         id="path885-58-0"
         style="display:inline;fill:#969896;fill-opacity:1;stroke:none;stroke-width:0.277043px;stroke-linecap:butt;stroke-linejoin:miter;stroke-opacity:1"
         d="m 81.869324,121.03253 c -1.579683,0.55092 -3.226847,0.87876 -4.8015,1.44613 4.150843,5.33735 3.647598,6.75845 4.8015,-1.44613 z"
         sodipodi:nodetypes="ccc" />
      <path
         id="path885-58-0-2"
         style="display:inline;fill:#969896;fill-opacity:1;stroke:none;stroke-width:0.277043px;stroke-linecap:butt;stroke-linejoin:miter;stroke-opacity:1"
         d="m 87.699289,119.68445 c -1.579683,0.55147 -3.226841,0.87883 -4.801498,1.44618 4.15085,5.33737 3.647596,6.7584 4.801498,-1.44618 z"
         sodipodi:nodetypes="ccc" />
      <path
         id="path924-7-8-4"
         style="display:inline;fill:#969896;fill-opacity:1;stroke:none;stroke-width:0.950232px;stroke-linecap:butt;stroke-linejoin:miter;stroke-opacity:1"
         d="m 83.422178,108.23798 c 2.582771,1.62366 -14.606925,3.28347 -19.456667,3.97772 -9.068818,0.91547 -18.535349,0.13093 -25.199543,-0.28519 9.036878,0.23648 35.047703,-0.58002 44.65621,-3.69253 z"
         sodipodi:nodetypes="cccc" />
      <path
         id="path924-7-8-0"
         style="display:inline;fill:#969896;fill-opacity:1;stroke:none;stroke-width:0.871268px;stroke-linecap:butt;stroke-linejoin:miter;stroke-opacity:1"
         d="m 84.068207,106.40071 c 2.464197,1.43465 -14.027446,2.81844 -18.681903,3.40704 -8.700832,0.765 -17.770507,0.0355 -24.156324,-0.35522 8.661783,0.24511 33.603931,-0.36233 42.838227,-3.05192 z"
         sodipodi:nodetypes="cccc" />
      <g
         id="g1409"
         transform="matrix(1.1166551,0.17217156,-0.225374,0.85305403,-153.15643,-103.65379)"
         style="display:inline;fill:#969896">
        <path
           id="path961-7"
           style="fill:#969896;fill-opacity:1;stroke:none;stroke-width:1px;stroke-linecap:butt;stroke-linejoin:miter;stroke-opacity:1"
           d="m 230.57864,209.65933 c -0.11053,1.28596 -0.0752,4.94581 1.00832,4.56493 -0.25006,-1.54062 -1.13748,-2.96521 -1.00832,-4.56493 z" />
        <path
           id="path961-9-5"
           style="fill:#969896;fill-opacity:1;stroke:none;stroke-width:1px;stroke-linecap:butt;stroke-linejoin:miter;stroke-opacity:1"
           d="m 233.26055,209.03855 c -0.11055,1.28596 -0.0752,4.94582 1.00833,4.56494 -0.25016,-1.54062 -1.13748,-2.96522 -1.00833,-4.56494 z" />
        <path
           id="path961-91-6"
           style="fill:#969896;fill-opacity:1;stroke:none;stroke-width:1px;stroke-linecap:butt;stroke-linejoin:miter;stroke-opacity:1"
           d="m 235.57136,209.67238 c -0.11054,1.28596 -0.0752,4.94581 1.00832,4.56493 -0.25006,-1.54062 -1.13749,-2.9652 -1.00832,-4.56493 z" />
        <path
           id="path961-6-1"
           style="fill:#969896;fill-opacity:1;stroke:none;stroke-width:1px;stroke-linecap:butt;stroke-linejoin:miter;stroke-opacity:1"
           d="m 240.36051,208.18043 c -0.11056,1.28596 -0.0752,4.9458 1.00833,4.56494 -0.25007,-1.54063 -1.13749,-2.96522 -1.00833,-4.56494 z" />
        <path
           id="path961-8-0"
           style="fill:#969896;fill-opacity:1;stroke:none;stroke-width:1px;stroke-linecap:butt;stroke-linejoin:miter;stroke-opacity:1"
           d="m 243.78937,205.27335 c -0.11055,1.28596 -0.0752,4.94582 1.00834,4.56494 -0.25017,-1.54062 -1.1375,-2.96521 -1.00834,-4.56494 z" />
        <path
           id="path961-0-2"
           style="fill:#969896;fill-opacity:1;stroke:none;stroke-width:1px;stroke-linecap:butt;stroke-linejoin:miter;stroke-opacity:1"
           d="m 246.03114,204.59105 c -0.24251,1.01259 0.0639,4.82589 0.78155,3.55476 -0.21907,-1.19211 -1.03966,-2.29622 -0.78155,-3.55476 z" />
        <path
           id="path961-5-9"
           style="fill:#969896;fill-opacity:1;stroke:none;stroke-width:1px;stroke-linecap:butt;stroke-linejoin:miter;stroke-opacity:1"
           d="m 241.88453,206.32648 c -0.11054,1.28597 -0.0752,4.94582 1.00834,4.56494 -0.25006,-1.54062 -1.13749,-2.9652 -1.00834,-4.56494 z" />
        <path
           id="path961-3-1"
           style="fill:#969896;fill-opacity:1;stroke:none;stroke-width:1px;stroke-linecap:butt;stroke-linejoin:miter;stroke-opacity:1"
           d="m 237.87269,208.62709 c -0.11056,1.28596 -0.0752,4.9458 1.00833,4.56493 -0.25016,-1.54061 -1.13749,-2.96521 -1.00833,-4.56493 z" />
        <path
           id="path961-6-1-5"
           style="fill:#969896;fill-opacity:1;stroke:none;stroke-width:1px;stroke-linecap:butt;stroke-linejoin:miter;stroke-opacity:1"
           d="m 220.3934,213.67336 c -0.11056,1.28596 -0.0752,4.9458 1.00833,4.56494 -0.25007,-1.54063 -1.13749,-2.96522 -1.00833,-4.56494 z" />
        <path
           id="path961-8-0-8"
           style="fill:#969896;fill-opacity:1;stroke:none;stroke-width:1px;stroke-linecap:butt;stroke-linejoin:miter;stroke-opacity:1"
           d="m 223.82226,210.76628 c -0.11055,1.28596 -0.0752,4.94582 1.00834,4.56494 -0.25017,-1.54062 -1.1375,-2.96521 -1.00834,-4.56494 z" />
        <path
           id="path961-0-2-8"
           style="fill:#969896;fill-opacity:1;stroke:none;stroke-width:1px;stroke-linecap:butt;stroke-linejoin:miter;stroke-opacity:1"
           d="m 227.0059,210.23421 c -0.24251,1.01259 0.0639,4.82589 0.78155,3.55476 -0.21907,-1.19211 -1.03966,-2.29622 -0.78155,-3.55476 z" />
        <path
           id="path961-5-9-9"
           style="fill:#969896;fill-opacity:1;stroke:none;stroke-width:1px;stroke-linecap:butt;stroke-linejoin:miter;stroke-opacity:1"
           d="m 221.91742,211.81941 c -0.11054,1.28597 -0.0752,4.94582 1.00834,4.56494 -0.25006,-1.54062 -1.13749,-2.9652 -1.00834,-4.56494 z" />
        <path
           id="path961-3-1-8"
           style="fill:#969896;fill-opacity:1;stroke:none;stroke-width:1px;stroke-linecap:butt;stroke-linejoin:miter;stroke-opacity:1"
           d="m 217.90558,214.12002 c -0.11056,1.28596 -0.0752,4.9458 1.00833,4.56493 -0.25016,-1.54061 -1.13749,-2.96521 -1.00833,-4.56493 z" />
        <path
           id="path961-6-1-5-2"
           style="fill:#969896;fill-opacity:1;stroke:none;stroke-width:1px;stroke-linecap:butt;stroke-linejoin:miter;stroke-opacity:1"
           d="m 250.37686,202.37161 c -0.11056,1.28596 -0.0752,4.9458 1.00833,4.56494 -0.25007,-1.54063 -1.13749,-2.96522 -1.00833,-4.56494 z" />
        <path
           id="path961-8-0-8-1"
           style="fill:#969896;fill-opacity:1;stroke:none;stroke-width:1px;stroke-linecap:butt;stroke-linejoin:miter;stroke-opacity:1"
           d="m 253.80572,199.46453 c -0.11055,1.28596 -0.0752,4.94582 1.00834,4.56494 -0.25017,-1.54062 -1.1375,-2.96521 -1.00834,-4.56494 z" />
        <path
           id="path961-5-9-9-5"
           style="fill:#969896;fill-opacity:1;stroke:none;stroke-width:1px;stroke-linecap:butt;stroke-linejoin:miter;stroke-opacity:1"
           d="m 251.90088,200.51766 c -0.11054,1.28597 -0.0752,4.94582 1.00834,4.56494 -0.25006,-1.54062 -1.13749,-2.9652 -1.00834,-4.56494 z" />
        <path
           id="path961-3-1-8-6"
           style="fill:#969896;fill-opacity:1;stroke:none;stroke-width:1px;stroke-linecap:butt;stroke-linejoin:miter;stroke-opacity:1"
           d="m 247.88904,202.81827 c -0.11056,1.28596 -0.0752,4.9458 1.00833,4.56493 -0.25016,-1.54061 -1.13749,-2.96521 -1.00833,-4.56493 z" />
      </g>
    </g>
    <path
       id="path3662"
       style="fill:#1d1f21;stroke-width:0.0686345"
       d="m 62.435421,170.00423 c -1.002268,-5.87321 4.031533,-13.68775 -1.477203,-18.01939 -4.151455,-0.32682 1.690232,13.2422 -2.743226,11.5925 2.251998,-6.28991 0.239039,-13.12568 0.481534,-19.63993 0.01868,-6.00084 -2.746981,-13.73396 4.511151,-16.43657 3.543697,-2.20993 7.324161,-6.94275 0.488421,-5.68843 -8.642083,0.19169 -17.402278,-2.09574 -24.403499,-7.10943 1.460196,-4.97474 3.78986,3.67498 7.57361,3.21007 4.889303,2.44974 16.305946,6.18763 12.650061,-3.59323 1.072794,-5.66693 -5.483063,-10.8916 -10.590115,-11.41921 -3.735487,0.095 -15.196485,4.57526 -6.584948,7.06432 3.439799,1.87941 12.594944,3.22418 11.440422,6.00191 -4.461587,-5.35494 -13.322494,-3.69647 -18.540408,-8.99348 -3.592421,-3.10472 -12.635866,-5.74397 -12.028496,-9.875479 3.607928,3.085889 9.211036,10.324589 15.169275,8.953649 4.311095,-1.46817 9.513203,-4.13726 2.330063,-5.14311 -2.116244,-0.81903 -7.466439,-3.516879 -2.770537,-3.776249 3.301021,6.713659 13.890832,2.37879 17.996651,8.473759 2.798644,3.19237 4.819985,4.72458 4.393409,-0.79348 0.543932,-2.69619 -0.254777,-13.419695 1.574776,-6.274479 -0.763651,5.925079 -0.859185,11.945119 -1.386868,17.881949 -2.368929,7.85564 7.839455,3.83796 12.30149,5.11751 4.693091,-1.27857 6.692206,1.38409 8.678787,4.89462 4.437642,0.78805 -9.198635,0.48373 -11.163996,0.63311 -7.461124,4.05355 -1.669,13.49665 -3.039773,20.03189 -1.580426,-2.79921 -0.518021,-11.27223 -1.668893,-16.23525 1.101047,-7.2589 -5.662574,-1.19605 -2.744223,2.71645 0.834284,5.689 -6.022411,10.5447 -2.989127,16.78018 4.830431,5.1293 10.239648,11.96711 8.496402,19.23657 -2.597522,-1.80314 1.702008,-11.86854 -4.607199,-9.59168 -1.134154,2.80863 1.775103,8.63187 -1.347541,10.00091 z m -3.067439,-28.34578 c 4.209816,-1.33451 3.505967,-14.5078 -0.351627,-8.67035 -0.184165,2.85887 -0.611578,5.9072 0.351627,8.67035 z m 2.016419,-11.77587 c -0.30525,-0.68745 -0.233606,1.06987 0,0 z m 4.911792,-0.82533 c 4.040393,-2.29298 7.703045,-5.50116 12.126307,-2.51821 2.912612,-6.54763 -9.408892,-6.3743 -11.874945,-1.56689 -0.795158,1.17174 -1.080045,2.8382 -0.251362,4.0851 z M 42.187044,100.48749 c -0.482903,-0.23003 -0.11167,0.62265 0,0 z m 41.44413,53.76919 c 1.287999,-2.24194 0.801494,-9.49827 1.792385,-3.05645 1.965849,4.06378 -2.434335,1.27803 -1.039863,3.21565 z m 1.179205,-6.94049 c -0.917431,-1.58417 0.851256,-2.34003 0,0 z m -47.416737,-2.12261 c -1.397668,-5.68222 2.815843,-12.21641 2.943283,-18.4163 -1.421704,-5.03541 8.243282,-6.56754 8.697683,-5.72517 -8.05195,0.77712 0.707119,12.2181 -5.125769,12.2491 -0.65778,-2.6744 4.239133,-14.68224 -1.940084,-9.19958 -2.572113,6.92495 -1.947807,14.61325 -4.575113,21.09195 z m 47.361596,-0.21027 c -0.518545,-2.19935 0.571586,-2.57901 0,0 z m 9.954614,-0.20385 c -1.322979,-2.23192 2.583076,-12.09114 1.365408,-4.52514 1.064524,1.1439 1.034536,5.10323 -1.365408,4.52514 z m -9.986021,-2.67015 c -0.447623,-2.1619 0.647937,-1.59057 0.215167,0.0533 z m -1.474886,-1.40576 c -2.08899,-2.11961 7.990744,-7.98273 2.127642,-2.94184 -0.570341,1.25387 0.02903,3.10879 -2.127642,2.94184 z m 12.49389,-4.31015 c -0.982203,-4.2067 1.28205,-3.08436 0,0 z m -7.826746,-1.48015 c 1.106036,-2.97672 7.882207,-7.56054 2.593199,-2.45935 -0.861452,0.82294 -1.746244,1.6212 -2.593199,2.45935 z m 7.790013,-2.29925 c 0.640713,-3.36672 1.515122,-0.38665 0,0 z m 48.520468,-1.69871 c -3.46972,-7.04295 10.03361,0.44773 7.93569,-7.84724 0.48896,-3.43603 1.57791,-11.07783 0.91437,-3.29261 -0.097,2.93353 -2.33501,9.26341 3.08623,5.86171 3.17363,-1.01227 13.0964,-5.35619 5.14705,-1.08783 -4.86471,2.94989 -14.58788,2.19883 -17.08334,6.36597 z m 8.82364,-10.95124 c -0.0643,-0.66575 -0.51375,0.0346 0,0 z m 0.16424,-2.00913 c 0.52717,-1.26583 -0.71651,0.27045 0,0 z m -56.246744,12.47231 c 4.645754,-4.54201 4.604074,-7.47573 11.575114,-6.97643 2.47278,-0.6726 9.26332,-0.80059 2.83462,0.20951 -6.0142,-0.27339 -10.42761,2.55592 -14.409734,6.76692 z m 15.209334,-1.33698 c -3.04435,-5.5115 12.10056,2.78656 5.13839,-4.46803 -3.57208,-4.87735 2.91353,4.79036 6.18206,3.17014 1.26696,1.34255 -9.72397,-0.7655 -11.32045,1.29789 z m 70.36942,0.14335 c 0.0869,-3.26874 0.75777,-7.84076 0.87657,-1.89044 -0.0559,0.5201 0.0978,2.09243 -0.87657,1.89044 z m -88.68879,-0.38683 c 0.203901,-0.94983 0.496722,0.0439 0,0 z m 76.9048,-0.008 c 0.83216,-2.21762 1.50463,-10.39996 1.65025,-4.49572 1.79127,2.41034 1.12776,4.17364 -1.65025,4.49572 z m 1.80796,-0.67625 c -0.13033,-0.80255 -0.55197,0.34445 0,0 z m -1.00925,-1.07839 c -0.6375,-0.63389 -0.21048,1.62492 0,0 z m -77.227317,1.41067 0.475329,-0.55551 z m 31.164507,-0.47677 c 3.50838,-0.12085 8.98875,-1.78131 3.3565,-4.64101 -3.51829,-4.08645 -10.73238,-5.15567 -9.93485,-11.1718 -3.9375,-0.31479 -3.37812,-9.21276 -2.52605,-2.89287 2.89987,4.38594 3.06648,1.55502 3.71356,-1.12687 -0.47319,5.21103 -0.78079,9.48464 4.9778,11.34505 4.7775,3.26188 8.24663,9.33141 14.42799,6.20661 -4.53629,1.16056 -9.26586,2.5402 -14.01495,2.28089 z M 95.055087,127.6205 c 1.056199,-1.8482 0.853422,-0.0821 0,0 z m 51.835893,-0.20595 c 3.04792,-5.53075 -9.58187,-0.5111 -1.42501,-3.01823 4.22165,-3.4013 -0.19853,-9.12454 2.20231,-13.59072 0.0322,-8.71353 1.29105,-17.510559 1.08606,-26.144788 2.35262,1.607911 -0.96639,9.814639 -0.14831,14.104069 -0.73052,9.534279 -0.55865,19.174439 -1.71505,28.649669 z m -62.449109,-0.7306 c -0.05601,-4.53404 2.026571,1.50785 4.98705,-0.78786 1.15472,0.32132 -4.274301,1.24165 -4.98705,0.78786 z m 11.668156,-0.14875 c 0.614318,-1.27938 1.767471,-0.83883 0,0 z m -5.469337,-0.50463 c -0.03663,-0.66016 0.806183,0.1861 0,0 z m 0.748054,-0.0146 c 2.864685,-1.481 3.733395,0.28362 0,0 z m 49.109476,-0.51515 c 0.57067,-0.99198 2.03748,0.4161 0,0 z m -45.593703,-0.06 c 3.527168,-1.33949 6.177843,-0.14696 0,0 z m 5.434373,-0.63632 c -2.200045,-0.54854 3.09546,-0.22416 0,0 z m -15.528514,-1.06151 c -0.623201,-3.01108 0.671358,-6.88059 0.08992,-1.66128 -0.05629,0.53745 0.505761,1.23871 -0.08992,1.66128 z m 98.033714,-0.55398 c -0.24071,-4.99203 -0.34251,-13.28631 0.0573,-16.24762 -0.10912,5.26723 1.35686,11.41796 -0.0573,16.24762 z m -93.657181,-0.39845 c -0.788012,-2.9734 0.713262,-0.11839 0,0 z m 76.217471,-0.5541 c -1.03232,-1.29816 1.57609,0.10024 0,0 z m 0.7556,-0.29437 c -0.80045,-1.2748 1.76136,-0.18664 0,0 z m -77.053957,-0.66994 c -0.36849,-2.65106 0.665859,-3.7496 0,0 z m 82.975247,-0.20906 c -1.9183,-3.74664 1.07096,0.5971 0,0 z m -3.73888,-0.52371 c 1.179,-1.64867 2.70279,-0.291 0,0 z m -111.429216,-0.5416 c -2.93768,-2.23707 -1.550549,-5.93681 0,0 z m 115.317296,-0.14976 c 0.25517,-0.77526 0.12987,0.76303 0,0 z m -2.03769,-0.18804 c 0.29875,-1.02646 0.14661,0.63396 0,0 z m 0.5421,-0.31674 c 0.14378,-2.06545 1.47845,-0.13958 0,0 z m 1.56393,-0.0715 c -0.56387,-2.50162 0.54323,-0.77117 -2e-5,-2e-5 z m -87.529491,-0.90169 c 1.139165,-6.27349 -2.484446,-15.8601 1.489799,-20.005629 -1.462984,4.860189 -1.060799,11.391479 -1.100526,17.093879 -0.01734,0.97834 0.06904,1.99916 -0.389273,2.91175 z m 4.313519,-0.34492 c -1.477185,-4.36911 3.714714,-1.09087 0,0 z m 13.892302,-0.7954 c -2.94629,-1.71158 4.64544,-4.64 0.85477,-0.732 -1.13799,-1.06857 0.36244,1.28435 -0.85477,0.732 z m 72.23916,-0.14555 c -1.01254,-4.52833 2.9528,-0.73315 0,0 z m 1.11071,-1.49897 c -0.16804,-1.21469 0.89549,0.49589 0,0 z m -3.96989,-0.28577 c -0.17861,-2.6777 0.5589,-0.78805 0,0 z m -19.12841,-0.004 c -1.92265,-6.07333 2.32643,-6.12238 0,0 z m 24.16797,-0.2071 c -0.24596,-1.96627 0.89198,0.18378 0,0 z m 0.48781,-0.77788 c 0.34214,-1.55133 1.65615,-1.13559 0,0 z m -136.46013,-0.0807 c 0.145637,-1.09583 0.743665,0.36358 0,0 z m 63.7009,-0.30763 c -0.25002,-0.51113 1.0507,-0.77238 0,0 z m -0.27171,-0.33024 c 0.37449,-0.41004 0.2973,0.47965 0,0 z m 67.68299,0.096 c -0.38319,-2.91229 0.87211,-4.0488 0,0 z m -29.25191,-0.33602 c -1.82654,-1.88636 -1.39017,-2.49097 0,0 z m -37.84763,-0.1315 0.33218,-0.15889 z m 0.4783,-0.31516 c -0.5351,-0.874 1.13456,-0.63313 0,0 z m 0.33612,-1.10864 0.34239,-0.89481 z m 73.52982,-0.10384 c -0.34071,-3.76542 3.36691,-5.70436 0,0 z m -38.57944,-0.49269 c -3.94766,-5.02679 -9.37529,-7.11621 -10.90185,-12.387399 2.0451,-0.32614 2.85174,6.596659 3.71522,1.190879 -0.46787,-7.273439 0.84904,-14.721182 -0.41121,-21.851656 3.52794,3.499809 -0.51485,12.901421 0.61167,18.689947 -2.05535,7.044139 4.36422,10.249109 6.98617,14.358229 z m -39.56114,0.11194 c -3.650286,-3.70388 5.54437,-0.59252 7.55153,-2.46842 7.13405,-1.99308 -3.54341,1.81292 -2.03273,1.07383 -1.01062,-0.72137 -4.80332,0.10785 -5.5188,1.39459 z m 70.97234,-1.20169 c 0.2313,-0.69747 0.34476,0.30821 0,0 z m -32.30704,-1.09416 c 0.18955,-3.70996 0.52453,-1.0821 0,0 z m 41.67602,-0.24651 c -0.52654,-1.32062 0.70435,0.37326 0,0 z M 170.73187,108.229 c -1.92283,-1.25111 -0.65239,-1.81437 0,0 z m -58.54078,-0.14335 c -1.01599,0.63159 1.16316,-2.04433 0,0 z m 7.40308,-1.2616 c -0.43515,-2.35123 0.80746,-12.151919 1.28324,-5.82751 -0.0839,0.60311 -1.17985,7.87966 -1.28324,5.82751 z m 60.73836,0.60135 c -0.52428,-0.99665 0.64985,0.1852 0,0 z m -67.85576,-0.19289 c -0.88053,-1.0339 1.3614,-0.66025 0,0 z m 56.58239,-0.47438 c -0.67402,-0.42356 0.58578,-0.39968 0,0 z m 0.77933,-0.19692 c -0.81405,-1.52967 0.34494,-1.94034 0,0 z m 10.45099,0.0746 c -0.65196,-0.83617 0.61076,-1.16065 0,0 z m -39.80452,-0.0458 c -0.14568,-1.08965 0.62581,-0.19509 0,0 z m 27.89992,-0.4334 c -2.23426,-1.79617 -6.18579,-6.275219 -1.76365,-2.12877 0.6737,0.62903 1.419,1.23315 1.76365,2.12877 z m -55.60946,-0.005 c -0.0477,-0.48149 0.54989,0.41985 0,0 z m 0.29693,-0.16474 c -0.28484,-1.04342 0.53701,0.72322 0,0 z m 2.49851,-0.22695 c -1.5821,-6.001429 1.60585,-9.992059 4.98792,-14.014922 3.8105,-6.103147 -10.23774,-0.736642 -6.47554,-3.852501 5.46144,2.501263 8.6146,-1.822067 5.93295,-6.471032 4.81662,-3.101188 -0.68369,6.618256 1.09441,9.326357 -1.69788,5.060189 -7.01266,8.674819 -5.1637,14.913818 l -0.37606,0.0983 z m -1.91688,-0.4421 c -0.89179,-1.70411 2.14813,-2.83834 0,0 z m 22.5492,-0.99873 c -0.7967,-1.95165 0.6433,0.26768 0,0 z m 4.01234,0.0555 c 0.17703,-0.54132 0.39392,0.47532 0,0 z m 39.82516,0.0534 c -0.5798,-3.08832 1.12522,-0.88527 0,0 z m -43.78686,-0.84677 c -0.25789,-0.66487 0.35157,0.20361 0,0 z m -21.68328,-0.52697 c -0.54226,-1.95456 1.61425,-0.79723 0,0 z m 54.67932,-0.0871 c -0.65611,-1.16038 0.46226,-0.4519 0,0 z m 13.33542,-0.32334 c -0.94397,-1.65985 0.94298,-0.55375 0,0 z m -2.49313,-0.22937 c -0.29746,-2.687089 0.11711,-7.134479 0.28885,-1.81882 -0.47597,-0.36928 0.50105,2.36475 -0.28885,1.81882 z m -10.88493,-0.65296 c -0.0377,-1.0121 0.44761,0.57411 0,0 z m -5.73659,-0.17038 c -2.99658,-2.019729 0.12458,-1.664629 0.13537,0.16725 z m 18.97094,-0.41208 c -0.0183,-3.305099 0.45402,-5.883669 0.24839,-1.0703 -0.11842,-0.185019 0.57673,2.07955 -0.24839,1.0703 z m -42.05731,0.13264 0.10435,-0.56448 z m 32.43264,0.0246 c -1.78229,-2.233639 2.53178,-2.844729 0,0 z m -3.5409,-0.21184 c -0.24037,-1.474199 0.43571,-0.33922 0,0 z m 5.18813,-1.04261 c -0.98327,-0.778409 2.09397,-0.627239 0,0 z m -38.21894,-0.473489 c -0.43665,-1.30653 0.60567,-0.32302 0,0 z m 38.93431,-0.12293 c 0.17782,-1.06657 0.98869,0.665889 0,0 z m -14.04439,-0.14229 c -1.57821,-2.13879 -10.89709,-7.609576 -5.89544,-7.498748 -0.26914,3.244478 5.24033,4.775488 5.89544,7.498748 z m 15.50244,-0.20026 c 0.59056,-1.44422 2.54234,-0.91242 0,0 z m 1.60147,-1.22395 c 0.0851,-0.7291 0.41814,0.17724 0,0 z m 0.37527,-0.29523 c -0.44195,-1.24832 1.71744,-0.75661 0,0 z m -42.37449,-0.59091 c -0.15401,-0.43607 0.54288,0.27685 0,0 z m 45.46538,-0.0402 c -0.70322,-1.66655 1.02932,-0.0755 0,0 z m -21.33739,-0.1883 c -1.64255,-6.11283 -0.22573,-12.549797 -0.46059,-18.838265 -0.47214,-3.768805 2.91296,-0.599357 0.4723,1.679546 -0.43651,5.627329 -0.23614,11.946583 -0.0117,17.158719 z m -0.93461,0.0474 c -0.56996,-1.55898 1.67457,-0.85774 0,0 z m 20.55602,-0.20244 c -0.70611,-2.35881 1.47771,-2.1368 0,0 z m 1.99829,-0.99278 c -0.38522,-1.03294 0.46723,0.53234 0,0 z m 0.56693,0.13485 c -2.05502,-2.0204 1.90748,-3.08499 0,0 z m -23.15233,-0.23499 c -0.71336,-2.50045 0.87255,-0.0775 0,0 z m 9.91654,-0.0472 c -2.80402,-3.11148 4.19132,-2.58115 0,0 z m -2.97837,-0.26734 c -3.82699,-1.40163 2.78176,-3.998386 0,0 z m 14.3696,0.0447 c -0.32571,-1.93946 1.10411,-0.23164 0,0 z m -21.31786,-0.7306 c 0.19722,-0.6102 0.2427,0.62426 0,0 z m 20.64522,-0.51833 c -0.47938,-0.93442 0.59091,0.0821 0,0 z m 1.67929,-0.17945 c -0.17946,-1.3778 0.78845,-0.12499 0,0 z m -0.83902,-0.52054 c -0.13495,-2.4516 1.5083,-0.0176 0,0 z m -0.98089,-0.1291 c -0.26806,-1.199689 0.79342,0.57576 0,0 z m 2.45079,0.12916 c -1.02897,-2.157253 1.12937,0.51778 0,0 z m -45.92715,-0.28014 c -2.21187,-2.403403 2.94657,-4.601828 0,0 z m 43.61204,-0.50517 c -0.17762,-3.41292 0.78507,-1.142514 0.78219,0.0299 z m 2.35568,-0.25067 c -0.26857,-2.382454 0.43144,-1.033386 0,0 z m -0.54563,0.0351 c -1.25748,-1.686303 0.83747,-0.820583 0,0 z m -41.83611,-0.841414 c 0.0744,-0.839211 0.54925,0.112257 0,0 z m 40.75512,0.0695 c -0.25025,-0.990747 1.53707,0.130665 0,0 z m 0.0491,-0.799344 c 0.0239,-1.140322 1.4468,0.643027 0,0 z m 1.58042,-0.447742 c -1.19742,-2.49104 0.9378,-0.364227 0,0 z m -42.38121,-0.02121 c -0.40363,-1.511774 0.98002,-1.231591 0,0 z m 40.56295,-0.16509 c -0.89349,-0.570157 1.17693,0.04961 0,0 z m -0.29864,-0.926829 c -0.76697,-3.838633 1.72917,-1.443137 0,0 z m -40.29083,-0.572625 c -0.59622,-0.172567 0.36234,-0.449491 0,0 z m 42.40111,-0.201403 c -0.56028,-1.963288 0.58546,-1.081372 0,0 z m -42.48303,-1.086053 c 0.0564,-5.049179 0.7452,0.511772 0,0 z m 42.30497,-0.702935 c -0.67273,-2.571364 0.63028,-4.014075 0,0 z m -1.90841,-0.644406 c -1.11905,-0.96666 1.54445,0.469151 0,0 z m 0.5605,-0.03744 c -0.2192,-0.792749 0.29277,0.417653 0,0 z m -0.44158,-1.390138 c -0.39533,-2.85559 1.40194,0.01789 0,0 z m -40.83393,-0.07917 c -3.14381,-1.966293 3.69433,-2.101587 0,0 z m 42.39426,-1.293225 c -0.3097,-2.469359 0.76844,-0.480954 0,0 z m -1.38815,-0.304149 c -1.77739,-2.557895 1.22881,-1.244425 0,0 z m -0.65444,-0.219634 c -0.0743,-0.576564 0.53343,0.03016 0,0 z m 1.78736,-1.054813 c -0.66843,-0.987697 0.63358,-0.302126 0,0 z m -1.13555,-0.111414 c -0.16343,-0.865971 0.75494,0.32373 0,0 z m 0.13032,-1.523294 0.11097,-0.220086 z m 0.13057,-0.639822 c -1.0735,-2.580181 1.02096,-1.640771 5e-4,-1e-5 z m 0.61784,-1.946366 c -1.96425,-1.332435 -3.55249,-5.596749 -0.46687,-2.344558 0.31342,-2.150671 1.7802,2.995119 0.46687,2.344558 z m -0.0859,-3.358262 c -0.29838,-0.745163 1.08759,-0.724074 0,0 z m 0.1699,-0.838667 c -0.8906,-2.294354 0.95271,-0.73617 0,0 z m -3.24129,-0.413575 c -4.40305,-3.670164 -0.89878,-3.223104 0,0 z m 3.36309,-1.870684 c -0.91761,-1.555011 0.65048,-1.026635 0,0 z m -4.29621,-0.474739 c -0.36625,-0.51123 0.31081,-0.510255 0,0 z m -0.18791,-0.536802 c -0.41245,-0.894513 0.50385,-0.222981 0,0 z m -1.70058,-0.342886 c -2.56346,-2.846127 -3.70745,-4.777487 -0.28458,-0.724832 z m 1.76112,-0.635472 c -0.885,-1.290283 0.68705,-0.207205 0,0 z m 4.1233,-0.197425 c -0.0297,-0.530814 0.58531,0.215133 0,0 z m 0.0879,-0.957424 c -1.10462,-3.393121 1.19545,0.498327 0,0 z m -4.23173,-0.88957 c -0.45643,-0.770867 0.62445,-0.07997 0,0 z m 4.14786,-0.739935 c -0.84927,-1.992821 1.15462,-0.107905 0,0 z m -4.3511,-0.494229 c 0.0296,-1.081725 0.61709,0.439031 0,0 z m -5.62012,-0.554243 c -1.71771,-1.807486 -1.91467,-3.736372 0,0 z m 9.93154,-0.217337 c -1.39865,-3.578055 1.48098,-2.224611 0,0 z m -4.0567,-0.149286 c -1.32839,-0.374127 0.1453,-0.672915 0,0 z M 177.1208,64.04747 c -0.53092,-1.095442 1.01251,-0.211312 0,0 z m -7.87289,-1.580902 c -3.6573,-2.348773 -1.95747,-7.215236 -0.65779,-0.914778 -0.0831,0.277674 1.31801,0.596217 0.65779,0.914778 z m 4.94168,-0.992204 c -1.26837,-1.172189 0.67021,-0.07068 0,0 z m -2.74533,-1.593336 c -3.84732,-4.060623 5.06681,0.679445 0,0 z"
       inkscape:label="dtv"
       sodipodi:nodetypes="ccccccccccccccccccccccccccccccccccccccccccccccccccccccccccccccccccccccccccccccccccccccccccccccccccccccccccccccccccccccccccccccccccccccccccccccccccccccccccccccccccssscccccccccccccccccccccccccccccccccccccccccccccccccccccccccccccccccccccccccccccccccccsccccccscccccccccccccccccccccccccccccccccccccccccccccccccccccsccsscccccccccccccccccccccccccccccccccccccccccccccccccccccccccccccccccccccccccccccccccccccccccccccccccccccccccccccccccccccccccccccccc" />
  </g>
</svg>
