<?xml version="1.0" encoding="UTF-8" standalone="no"?>
<svg
   xmlns:dc="http://purl.org/dc/elements/1.1/"
   xmlns:cc="http://creativecommons.org/ns#"
   xmlns:rdf="http://www.w3.org/1999/02/22-rdf-syntax-ns#"
   xmlns:svg="http://www.w3.org/2000/svg"
   xmlns="http://www.w3.org/2000/svg"
   xmlns:sodipodi="http://sodipodi.sourceforge.net/DTD/sodipodi-0.dtd"
   xmlns:inkscape="http://www.inkscape.org/namespaces/inkscape"
   width="130.15439mm"
   height="184.97411mm"
   viewBox="0 0 130.15439 184.97411"
   version="1.1"
   id="svg5344"
   inkscape:version="1.0.2 (e86c870879, 2021-01-15)"
   sodipodi:docname="freefall.svg">
  <defs
     id="defs5338" />
  <sodipodi:namedview
     id="base"
     pagecolor="#c5c8c6"
     bordercolor="#666666"
     borderopacity="1.0"
     inkscape:pageopacity="0"
     inkscape:pageshadow="2"
     inkscape:zoom="1.1232668"
     inkscape:cx="256.67271"
     inkscape:cy="436.27883"
     inkscape:document-units="mm"
     inkscape:current-layer="layer1"
     inkscape:document-rotation="0"
     showgrid="false"
     inkscape:window-width="1278"
     inkscape:window-height="1415"
     inkscape:window-x="1280"
     inkscape:window-y="0"
     inkscape:window-maximized="0"
     inkscape:snap-nodes="false"
     inkscape:snap-others="false"
     fit-margin-top="0"
     fit-margin-left="0"
     fit-margin-right="0"
     fit-margin-bottom="0" />
  <metadata
     id="metadata5341">
    <rdf:RDF>
      <cc:Work
         rdf:about="">
        <dc:format>image/svg+xml</dc:format>
        <dc:type
           rdf:resource="http://purl.org/dc/dcmitype/StillImage" />
        <dc:title></dc:title>
      </cc:Work>
    </rdf:RDF>
  </metadata>
  <g
     inkscape:label="Layer 1"
     inkscape:groupmode="layer"
     id="layer1"
     transform="translate(-36.025293,-1.2200929)">
    <path
       style="fill:#373b41;fill-opacity:1;stroke:none;stroke-width:0.237164px;stroke-linecap:butt;stroke-linejoin:miter;stroke-opacity:1"
       d="m 99.68139,103.37969 c 5.5092,-44.51492 0.66406,-101.7315359 0.66406,-101.7315359 0,0 0.17212,81.0050249 -0.66406,101.7315359 z"
       id="path5943-2" />
    <path
       style="fill:#373b41;fill-opacity:1;stroke:none;stroke-width:0.315154px;stroke-linecap:butt;stroke-linejoin:miter;stroke-opacity:1"
       d="m 130.37913,182.55604 c -5.5092,-78.60556 -0.66406,-179.6401473 -0.66406,-179.6401473 0,0 -0.17212,143.0407373 0.66406,179.6401473 z"
       id="path5943-7" />
    <path
       style="fill:#1d1f21;fill-opacity:1;stroke:none;stroke-width:0.264583px;stroke-linecap:butt;stroke-linejoin:miter;stroke-opacity:1"
       d="m 104.09609,101.74617 c -3.60308,-8.019364 -3.41863,-13.777399 -1.09445,-17.012364 2.32419,-3.234965 -3.184957,-2.544016 -4.291725,1.978668 -1.106768,4.522684 0.455002,11.348564 0.455002,11.348564 0,0 -12.297265,-0.79566 -12.801444,-5.977887 -0.50418,-5.182227 -4.033467,-7.558733 1.217443,-9.861942 5.25091,-2.303211 6.160915,-4.616889 6.160915,-4.616889 l -1.758508,-2.303211 c 0,0 -11.6455,3.214029 -11.584,6.742131 0.0615,3.528102 -0.836211,10.961211 1.746213,14.405549 2.582426,3.44434 17.36368,9.767711 21.950554,5.297381 z"
       id="path5907" />
    <path
       style="fill:#1d1f21;fill-opacity:1;stroke:none;stroke-width:0.264583px;stroke-linecap:butt;stroke-linejoin:miter;stroke-opacity:1"
       d="m 99.68139,103.42123 c 0,0 1.88148,-2.79788 4.29635,-4.368246 2.41487,-1.57037 5.36314,-1.913232 7.49671,2.996796 2.13357,4.91003 -0.62155,5.52231 0.43304,9.50052 -2.26004,-3.72956 -5.91571,3.08226 -12.2261,-8.12907 z"
       id="path5909"
       sodipodi:nodetypes="csscc" />
    <path
       style="fill:#1d1f21;fill-opacity:1;stroke:none;stroke-width:0.264583px;stroke-linecap:butt;stroke-linejoin:miter;stroke-opacity:1"
       d="m 111.75728,102.36385 c 11.26426,1.68553 12.08815,-0.86893 14.05572,6.27103 1.96757,7.13995 -0.0369,7.27605 -0.0369,7.27605 0,0 -3.01167,0.26972 -3.17269,-3.48623 -0.27011,-6.3007 -5.63398,-7.14785 -10.90764,-6.30244 -4.99358,0.80052 0.0615,-3.75841 0.0615,-3.75841 z"
       id="path5911"
       sodipodi:nodetypes="sscsscs" />
    <path
       style="fill:#1d1f21;fill-opacity:1;stroke:none;stroke-width:0.264583px;stroke-linecap:butt;stroke-linejoin:miter;stroke-opacity:1"
       d="m 87.507124,91.140924 c 3.332546,-5.265975 7.85795,-9.851471 12.297238,-6.113981 4.439288,3.737491 5.115648,4.88909 5.115648,4.88909 0,0 -0.72554,2.973247 -7.09551,-1.549424 -6.369973,-4.522671 -3.172692,10.866964 -10.317376,2.774315 z"
       id="path5913" />
    <path
       style="fill:#1d1f21;fill-opacity:1;stroke:none;stroke-width:0.264583px;stroke-linecap:butt;stroke-linejoin:miter;stroke-opacity:1"
       d="m 62.316572,138.4529 c -7.046327,-6.66884 -4.008903,-4.67969 -2.828366,-12.46875 1.180536,-7.78906 -3.012864,-13.91351 -0.282853,-15.64091 2.73001,-1.7274 9.59187,0.76425 10.809287,7.297 1.217419,6.53274 -4.414724,9.75724 -2.803776,15.52574 1.610947,5.7685 0.565679,7.75762 -4.894292,5.28692 z"
       id="path5915" />
    <path
       style="fill:#1d1f21;fill-opacity:1;stroke:none;stroke-width:0.264583px;stroke-linecap:butt;stroke-linejoin:miter;stroke-opacity:1"
       d="m 62.316572,138.4529 c -8.571187,9.79912 -11.09214,13.12831 -16.146285,10.57384 -5.054147,-2.55448 -19.429629,-0.11516 -1.106744,4.15625 18.322888,4.27141 22.700702,-16.3214 17.253029,-14.73009 z"
       id="path5917" />
    <path
       style="fill:#1d1f21;fill-opacity:1;stroke:none;stroke-width:0.264583px;stroke-linecap:butt;stroke-linejoin:miter;stroke-opacity:1"
       d="m 58.307669,133.55334 c -2.1766,7.23419 -5.792025,21.14768 -9.186045,26.5707 -3.394019,5.42302 15.285487,-11.63124 9.186045,-26.5707 z"
       id="path5919" />
    <path
       style="fill:#1d1f21;fill-opacity:1;stroke:none;stroke-width:0.264583px;stroke-linecap:butt;stroke-linejoin:miter;stroke-opacity:1"
       d="m 64.087376,110.0501 c -7.34145,-0.56534 -4.500788,-12.562981 -0.577975,-13.222531 3.922816,-0.65956 5.595237,5.224091 9.247518,6.564151 3.652285,1.34006 5.772314,3.62408 0.688652,3.16168 -8.110417,-0.7377 -6.286002,-1.3193 -9.358195,3.4967 z"
       id="path5921"
       sodipodi:nodetypes="csssc" />
    <path
       style="fill:#1d1f21;fill-opacity:1;stroke:none;stroke-width:0.264583px;stroke-linecap:butt;stroke-linejoin:miter;stroke-opacity:1"
       d="m 59.561998,110.97139 c -10.971843,7.83499 -19.966668,-0.0787 -12.616974,-3.71656 9.02504,-4.46712 15.391911,-3.1834 10.206699,-0.81658 -22.386525,10.21846 4.935711,-0.60436 2.410275,4.53314 z"
       id="path5923"
       sodipodi:nodetypes="cssc" />
    <path
       style="fill:#1d1f21;fill-opacity:1;stroke:none;stroke-width:0.264583px;stroke-linecap:butt;stroke-linejoin:miter;stroke-opacity:1"
       d="m 72.412596,117.02256 c 5.22632,13.47379 2.975928,14.43694 8.657249,17.86035 5.681323,3.42342 1.893776,7.93564 -6.947945,-0.87939 -8.841722,-8.81503 -1.709304,-16.98096 -1.709304,-16.98096 z"
       id="path5925" />
    <path
       style="fill:#1d1f21;fill-opacity:1;stroke:none;stroke-width:0.264583px;stroke-linecap:butt;stroke-linejoin:miter;stroke-opacity:1"
       d="m 129.55828,168.07928 c 17.53585,-16.21671 9.00157,-15.65139 11.9775,-23.16823 2.97593,-7.51684 12.039,-3.03605 10.76009,-8.05077 -1.27892,-5.01471 6.36997,4.57503 6.40685,15.61997 0.0369,11.04495 -7.95633,14.03913 -1.70933,20.19499 6.247,6.15586 11.27656,10.8565 8.31293,11.73591 -2.96363,0.87941 -29.80848,-6.9201 -34.91183,-2.60682 -5.10335,4.31328 -10.41729,-0.18525 -13.95737,0.87941 -6.85529,2.06169 -6.52911,-8.76325 1.25431,-11.33808 0,0 8.03012,6.0407 11.86685,-3.26638 z"
       id="path5927"
       sodipodi:nodetypes="cssssssscc" />
    <path
       style="fill:#1d1f21;fill-opacity:1;stroke:none;stroke-width:0.264583px;stroke-linecap:butt;stroke-linejoin:miter;stroke-opacity:1"
       d="m 145.78453,45.669356 c -3.75066,-15.609498 7.1201,-18.425702 7.1201,-18.425702 0,0 3.63999,14.730095 -7.1201,18.425702 z"
       id="path5929" />
    <path
       style="fill:#1d1f21;fill-opacity:1;stroke:none;stroke-width:0.361286px;stroke-linecap:butt;stroke-linejoin:miter;stroke-opacity:1"
       d="m 152.42357,33.496774 c 11.93717,-2.650391 -10.39071,23.23148 0,0 z"
       id="path5931" />
    <path
       style="fill:#1d1f21;fill-opacity:1;stroke:none;stroke-width:0.264583px;stroke-linecap:butt;stroke-linejoin:miter;stroke-opacity:1"
       d="m 152.42357,33.496774 c 5.95332,-3.709114 2.11659,-7.341904 5.28929,-8.765709 3.17269,-1.423808 -1.9951,3.356192 -5.28929,8.765709 z"
       id="path5933" />
    <path
       style="fill:#1d1f21;fill-opacity:1;stroke:none;stroke-width:0.264583px;stroke-linecap:butt;stroke-linejoin:miter;stroke-opacity:1"
       d="m 111.29583,174.17055 c -1.64008,-3.58645 -6.4147,-2.37046 -8.98686,-1.14458 -2.0164,0.96101 -5.301582,-7.25821 -3.727542,-13.36172 1.574042,-6.10351 -1.21739,1.67506 0.67638,7.49591 1.893782,5.82084 -2.77922,12.15468 -0.70097,13.76693 2.078252,1.61224 -4.2917,2.04148 1.451062,4.41798 5.7428,2.3765 8.00546,-0.78519 5.60751,-2.76386 -2.39796,-1.97867 5.23861,-0.50252 5.87808,-1.86351 2.11256,-1.16225 -1.23478,-4.60188 -0.19766,-6.54715 z"
       id="path5935"
       sodipodi:nodetypes="csssssscc" />
    <path
       style="fill:#1d1f21;fill-opacity:1;stroke:none;stroke-width:0.264583px;stroke-linecap:butt;stroke-linejoin:miter;stroke-opacity:1"
       d="m 120.17539,176.7813 c 6.38227,-14.81384 1.21745,-17.66145 2.34878,-21.77583 1.13133,-4.11438 -1.03298,-28.38185 -2.34878,21.77583 z"
       id="path5937" />
    <path
       style="fill:#1d1f21;fill-opacity:1;stroke:none;stroke-width:0.264583px;stroke-linecap:butt;stroke-linejoin:miter;stroke-opacity:1"
       d="m 117.996,173.72781 c -3.30239,2.5622 -3.84623,-22.59591 -2.69031,-27.28609 1.15592,-4.69019 3.44054,6.30376 2.69031,27.28609 z"
       id="path5939"
       sodipodi:nodetypes="csc" />
    <path
       style="fill:#373b41;fill-opacity:1;stroke:none;stroke-width:0.314589px;stroke-linecap:butt;stroke-linejoin:miter;stroke-opacity:1"
       d="m 132.89495,181.84326 c 5.5092,-78.32374 0.66406,-178.9960865 0.66406,-178.9960865 0,0 0.17212,142.5278965 -0.66406,178.9960865 z"
       id="path5943" />
    <path
       style="fill:#373b41;fill-opacity:1;stroke:none;stroke-width:0.237164px;stroke-linecap:butt;stroke-linejoin:miter;stroke-opacity:1"
       d="M 97.16557,103.55981 C 91.65637,59.044907 96.50151,1.8282807 96.50151,1.8282807 c 0,0 -0.17212,81.0050063 0.66406,101.7315293 z"
       id="path5943-7-1" />
    <path
       style="fill:#373b41;fill-opacity:1;stroke:none;stroke-width:0.261322px;stroke-linecap:butt;stroke-linejoin:miter;stroke-opacity:1"
       d="M 59.89916,124.73217 C 54.38996,70.686698 59.2351,1.2200929 59.2351,1.2200929 c 0,0 -0.17212,98.3480511 0.66406,123.5120771 z"
       id="path5943-7-0" />
    <path
       style="fill:#373b41;fill-opacity:1;stroke:none;stroke-width:0.267047px;stroke-linecap:butt;stroke-linejoin:miter;stroke-opacity:1"
       d="M 66.86659,130.58011 C 72.37579,74.140822 67.53065,1.5973598 67.53065,1.5973598 c 0,0 0.17212,102.7041502 -0.66406,128.9827502 z"
       id="path5943-1" />
    <path
       style="fill:#1d1f21;fill-opacity:1;stroke:none;stroke-width:0.264583px;stroke-linecap:butt;stroke-linejoin:miter;stroke-opacity:1"
       d="M 60.687393,101.01458 C 50.530189,93.455909 61.561128,86.956264 54.046889,87.362809 42.900265,87.965877 52.492557,77.686692 60.687393,101.01458 Z"
       id="path5941"
       sodipodi:nodetypes="csc" />
  </g>
</svg>
