<?xml version="1.0" encoding="UTF-8" standalone="no"?>
<svg
   width="210mm"
   height="297mm"
   viewBox="0 0 210 297"
   version="1.1"
   id="svg4129"
   inkscape:version="1.1 (c68e22c387, 2021-05-23)"
   sodipodi:docname="hanging-at-height.svg"
   xmlns:inkscape="http://www.inkscape.org/namespaces/inkscape"
   xmlns:sodipodi="http://sodipodi.sourceforge.net/DTD/sodipodi-0.dtd"
   xmlns="http://www.w3.org/2000/svg"
   xmlns:svg="http://www.w3.org/2000/svg"
   xmlns:rdf="http://www.w3.org/1999/02/22-rdf-syntax-ns#"
   xmlns:cc="http://creativecommons.org/ns#"
   xmlns:dc="http://purl.org/dc/elements/1.1/">
  <defs
     id="defs4123">
    <inkscape:path-effect
       effect="bspline"
       id="path-effect1126"
       is_visible="true"
       lpeversion="1"
       weight="33.333333"
       steps="2"
       helper_size="0"
       apply_no_weight="true"
       apply_with_weight="true"
       only_selected="false" />
  </defs>
  <sodipodi:namedview
     id="base"
     pagecolor="#373b41"
     bordercolor="#666666"
     borderopacity="1.0"
     inkscape:pageopacity="0"
     inkscape:pageshadow="2"
     inkscape:zoom="1.4"
     inkscape:cx="235.35714"
     inkscape:cy="664.28571"
     inkscape:document-units="mm"
     inkscape:current-layer="g4997"
     inkscape:document-rotation="0"
     showgrid="false"
     inkscape:window-width="1278"
     inkscape:window-height="1415"
     inkscape:window-x="1280"
     inkscape:window-y="0"
     inkscape:window-maximized="0"
     inkscape:snap-nodes="false"
     inkscape:pagecheckerboard="0" />
  <metadata
     id="metadata4126">
    <rdf:RDF>
      <cc:Work
         rdf:about="">
        <dc:format>image/svg+xml</dc:format>
        <dc:type
           rdf:resource="http://purl.org/dc/dcmitype/StillImage" />
      </cc:Work>
    </rdf:RDF>
  </metadata>
  <g
     inkscape:label="Layer 1"
     inkscape:groupmode="layer"
     id="layer1">
    <path
       style="fill:#1d1f21;fill-opacity:1;stroke:none;stroke-width:0.264583px;stroke-linecap:butt;stroke-linejoin:miter;stroke-opacity:1"
       d="m 98.601486,162.15965 c 0,0 13.428034,-1.34382 16.063024,1.64413 2.63499,2.98795 12.20297,14.18589 11.58743,26.49626 -0.61555,12.31037 10.4967,25.47574 4.15764,30.97358 -6.33906,5.49785 -13.60684,-0.67113 -11.43622,10.79341 2.17062,11.46454 -6.95459,25.24593 -4.16845,29.47503 2.78615,4.22909 -37.505205,17.19222 -42.084012,8.44901 -4.578811,-8.74322 -1.965458,-40.53504 -6.209477,-51.42039 -4.24402,-10.88535 -18.606791,-33.73171 -13.812004,-38.53082 4.794789,-4.79912 19.859484,-16.42915 19.200748,-13.01829 -0.658735,3.41087 22.106911,12.93863 26.701321,-4.86192 z"
       id="path5000" />
    <path
       style="fill:#c5c8c6;fill-opacity:1;stroke:none;stroke-width:0.264583px;stroke-linecap:butt;stroke-linejoin:miter;stroke-opacity:1"
       d="m 114.4686,199.11243 c -13.08848,8.47659 -37.093213,12.13169 -46.99902,9.80249 C 57.563776,206.58572 23.086723,74.390622 22.460377,44.67657 21.834031,14.962518 50.378066,216.8737 62.077861,219.53117 73.777657,222.18863 117.06041,207.57064 114.4686,199.11243 Z"
       id="path943"
       sodipodi:nodetypes="csssc" />
    <path
       style="fill:#282a2e;fill-opacity:1;stroke:none;stroke-width:0.264583px;stroke-linecap:butt;stroke-linejoin:miter;stroke-opacity:1"
       d="m 50.620318,246.02727 c -4.416835,-5.65413 -8.045307,-5.88397 -11.436225,-2.6202 -3.390919,3.26377 -13.002091,1.14922 -15.907044,8.9087 -2.904954,7.75948 -4.103662,44.95723 -4.103662,44.95723 l 84.610793,-0.0919 c 0,0 5.43193,-26.52384 -1.63067,-33.81445 -7.0626,-7.29061 -8.563639,-18.69999 -15.874632,-18.67241 -7.310993,0.0276 -10.174595,-2.84476 -10.174595,-2.84476 z"
       id="path5021" />
    <g
       id="g4989">
      <path
         style="fill:#e0e0e0;fill-opacity:1;stroke:none;stroke-width:0.264583px;stroke-linecap:butt;stroke-linejoin:miter;stroke-opacity:1"
         d="m 69.433169,122.89335 c -3.012945,9.35919 -2.742959,32.65602 2.149023,31.46085 4.891984,-1.19518 3.228924,13.08264 -0.388771,15.54656 -3.617698,2.46391 3.758075,8.71562 13.822823,5.81041 10.064744,-2.90521 15.755866,-5.09331 15.755866,-5.09331 0,0 -5.453523,-10.93132 0.31317,-17.31174 5.7667,-6.38043 -9.816374,-44.44236 -31.652111,-30.41277 z"
         id="path4698" />
      <path
         style="fill:#c5c8c6;fill-opacity:1;stroke:none;stroke-width:0.264583px;stroke-linecap:butt;stroke-linejoin:miter;stroke-opacity:1"
         d="m 78.310027,99.31149 c 17.807675,-3.824581 29.859473,4.77153 33.282753,10.43485 3.42329,5.66333 -2.01944,9.27646 2.66736,10.17744 4.6868,0.90098 18.75799,15.80398 16.4254,28.25225 -2.33259,12.44828 7.74296,28.96936 -0.78832,37.99758 -8.53127,9.02822 -0.31857,19.49985 -0.31857,19.49985 0,0 -18.80179,-24.80419 -14.97292,-32.38023 7.85855,-15.54938 0.087,-40.43451 -3.09934,-34.6143 -1.30605,2.27146 -4.99395,14.89858 -7.55936,15.13285 -3.50015,0.31964 -5.345543,8.34787 -5.345543,8.34787 0,0 -9.544657,4.84206 -11.749391,-0.26661 -6.418519,-14.87259 2.350484,-30.22611 -2.354208,-31.27698 -5.292337,-1.18213 -13.250461,3.45684 -10.65868,12.55861 2.591779,9.10176 -2.257014,11.17953 -2.257014,11.17953 0,0 0.410343,-7.67675 -0.05401,-15.45462 -0.464352,-7.77787 5.723532,-6.82174 3.779692,-11.49213 -1.943841,-4.6704 -10.799059,-21.96376 3.002147,-28.09596 z"
         id="path4694"
         sodipodi:nodetypes="ssssscscscssscssss" />
      <path
         style="fill:#373b41;fill-opacity:1;stroke:none;stroke-width:0.264583px;stroke-linecap:butt;stroke-linejoin:miter;stroke-opacity:1"
         d="m 83.000793,107.83249 c -10.755849,2.22488 -6.738606,21.82585 -12.613295,18.64484 -5.874687,-3.18101 -1.706198,-10.60954 -6.932991,-15.9235 -5.226796,-5.31395 -12.116557,-14.507668 -12.656529,-11.30825 -0.539972,3.19942 -3.779668,11.10598 0.885513,-7.171097 7.624164,-2.684545 6.889805,-3.144213 13.930812,-1.103223 7.041007,2.040988 19.30876,4.835875 24.125142,3.787789 4.816382,-1.048084 22.915595,12.246021 13.606815,10.535991 -9.308765,-1.71003 -20.345467,2.53745 -20.345467,2.53745 z"
         id="path4692" />
      <path
         style="fill:#1d1f21;fill-opacity:1;stroke:none;stroke-width:0.264583px;stroke-linecap:butt;stroke-linejoin:miter;stroke-opacity:1"
         d="m 72.986086,110.13249 c 1.630665,-6.54593 -3.099364,-8.70646 -3.099364,-8.70646 0,0 -2.332569,8.2192 3.099364,8.70646 z"
         id="path4696"
         sodipodi:nodetypes="ccc" />
    </g>
    <g
       id="g4997">
      <path
         style="fill:#e0e0e0;fill-opacity:1;stroke:none;stroke-width:0.264583px;stroke-linecap:butt;stroke-linejoin:miter;stroke-opacity:1"
         d="m 76.104285,241.84943 c -1.069912,-6.94127 6.594647,-7.15866 11.290424,-20.51116 5.127279,-14.57948 4.869103,-32.24228 -0.804527,-35.85085 -16.348158,-10.39782 -17.721277,-10.89914 -27.47825,-8.62829 -9.756969,2.27085 -13.363861,-0.8826 -13.363861,-0.8826 0,0 5.053979,4.50952 3.666295,5.69551 -1.387686,1.18598 -3.126333,3.26377 -3.990264,8.0261 -0.863931,4.76233 -2.327193,33.25823 1.603666,39.69382 3.930856,6.43559 6.844694,12.02982 2.483779,16.0568 -2.597348,2.39846 -6.88318,0.52759 -6.906001,0.55623 3.966972,11.49616 46.211,19.94815 33.498739,-4.15556 z"
         id="path4935"
         sodipodi:nodetypes="cssscsssscc" />
      <path
         style="fill:#c5c8c6;fill-opacity:1;stroke:none;stroke-width:0.230272px;stroke-linecap:butt;stroke-linejoin:miter;stroke-opacity:1"
         d="m 87.561174,199.88632 c 2.710435,-1.452 2.500193,-3.47226 2.500193,-3.47226 0.928684,0.006 -1.891596,27.26699 -1.852077,24.56546 0.0037,-0.25576 -0.370124,-5.76993 -0.626918,-11.09759 -0.237397,-4.92522 -0.37474,-9.69106 -0.0212,-9.99561 z"
         id="path845-82"
         sodipodi:nodetypes="ccssc" />
      <path
         style="fill:#c5c8c6;fill-opacity:1;stroke:none;stroke-width:0.203017px;stroke-linecap:butt;stroke-linejoin:miter;stroke-opacity:1"
         d="m 87.375597,199.96108 c 2.964943,-0.63622 2.724572,-1.81954 2.724572,-1.81954 0,0 -5.619637,15.53309 -5.570487,17.66513 0.04914,2.13204 0.06871,-13.4412 2.845915,-15.84559 z"
         id="path845-88"
         sodipodi:nodetypes="ccsc" />
      <path
         style="fill:#373b41;fill-opacity:1;stroke:none;stroke-width:0.264583px;stroke-linecap:butt;stroke-linejoin:miter;stroke-opacity:1"
         d="m 42.254198,181.05703 c -0.420193,5.93013 3.15778,3.88983 3.041696,14.54286 -0.38189,4.88976 -4.927738,26.17771 13.006237,40.83296 0,0 6.724675,-2.71511 18.229546,-11.37284 12.008771,-9.03692 5.417704,-30.46741 11.534617,-26.74541 3.382073,2.05792 6.446595,-5.83876 7.16375,-8.19254 -6.247469,2.26771 -14.20264,-0.3454 -29.119861,-1.11655 -22.648441,-1.17082 -19.338483,-6.26804 -23.855985,-7.94848 z"
         id="path4848"
         sodipodi:nodetypes="cccsscsc" />
      <path
         style="fill:#1d1f21;fill-opacity:1;stroke:none;stroke-width:0.264583px;stroke-linecap:butt;stroke-linejoin:miter;stroke-opacity:1"
         d="m 49.391223,197.71742 c 6.108178,0.17192 8.172554,8.8683 8.172554,8.8683 0,0 -7.888861,0.58156 -8.172554,-8.8683 z"
         id="path4850" />
      <path
         style="fill:#1d1f21;fill-opacity:1;stroke:none;stroke-width:0.264583px;stroke-linecap:butt;stroke-linejoin:miter;stroke-opacity:1"
         d="m 78.163103,203.33944 c -5.805272,-1.90741 -10.693521,5.57548 -10.693521,5.57548 0,0 7.225428,3.21955 10.693521,-5.57548 z"
         id="path4850-1" />
      <path
         style="fill:#969896;fill-opacity:1;stroke:none;stroke-width:0.264583px;stroke-linecap:butt;stroke-linejoin:miter;stroke-opacity:1"
         d="m 61.045684,217.71215 c -0.338529,-4.41753 -0.500517,-12.96768 -2.597248,-19.19645 -2.096731,-6.22878 -6.128302,-10.13603 -9.188058,-12.12352 -3.059756,-1.9875 -5.147534,-2.05492 -6.223974,-2.97112 -1.076439,-0.91619 -1.141243,-2.68162 -1.206039,-4.44681 0.85313,1.20438 1.706473,2.40906 3.21477,2.85172 1.508296,0.44266 3.671667,0.12395 6.227506,1.25494 2.555838,1.13099 5.503927,3.7113 11.290508,4.88184 5.786582,1.17053 14.411276,0.9315 19.852259,1.51388 5.440984,0.58238 7.697948,1.98593 9.470646,1.96131 1.772698,-0.0246 3.061376,-1.47721 4.350065,-2.92982 -1.709852,2.53746 -3.419743,5.07498 -5.588406,5.66955 -2.168662,0.59457 -4.796387,-0.75381 -8.916361,-0.67882 -4.119973,0.075 -9.731783,1.57353 -13.200207,6.67779 -3.468424,5.10425 -4.793049,13.81337 -6.117734,22.52287 -0.514757,-0.285 -1.029199,-0.56983 -1.367727,-4.98736 z"
         id="path1124"
         inkscape:path-effect="#path-effect1126"
         inkscape:original-d="m 60.869139,221.8445 c -0.161724,-8.54988 -0.323713,-17.10003 -0.485966,-25.65044 -4.031472,-3.90714 -8.063045,-7.81438 -12.094961,-11.72197 -2.087597,-0.0672 -4.175376,-0.13458 -6.26346,-0.20226 -0.06453,-1.76497 -0.194387,-5.29558 -0.194387,-5.29558 0,0 1.706523,2.40902 2.559389,3.61313 2.16372,-0.31846 4.327091,-0.63717 6.490237,-0.95614 2.948471,2.58068 5.896562,5.16099 8.844444,7.74109 8.625303,-0.23878 17.249997,-0.47781 25.874598,-0.71711 2.257317,1.40386 4.514279,2.80741 6.771019,4.21072 1.288981,-1.45237 3.866067,-4.35782 3.866067,-4.35782 0,0 -3.419438,5.07519 -5.129556,7.61239 -2.627564,-1.34817 -5.255289,-2.69655 -7.883332,-4.04522 -5.61177,1.49886 -11.22358,2.9974 -16.835765,4.49571 -1.324446,8.70994 -3.974055,26.12851 -3.974055,26.12851 0,0 -1.02925,-0.56974 -1.544272,-0.85501 z" />
      <path
         style="fill:#1d1f21;fill-opacity:1;stroke:none;stroke-width:0.323479px;stroke-linecap:butt;stroke-linejoin:miter;stroke-opacity:1"
         d="m 62.077862,219.53117 c 4.258304,6.13839 -2.807276,14.47451 -2.807276,14.47451 0,0 -6.290879,-7.34538 2.807276,-14.47451 z"
         id="path4850-3" />
    </g>
    <path
       style="fill:#c5c8c6;fill-opacity:1;stroke:none;stroke-width:0.264583px;stroke-linecap:butt;stroke-linejoin:miter;stroke-opacity:1"
       d="m 49.973219,181.48917 c -1.168326,-3.10744 -1.725761,-3.478 -1.725761,-3.478 0,0 25.195326,9.46861 28.830111,9.90092 3.634784,0.43232 -22.925704,-3.10387 -27.10435,-6.42292 z"
       id="path845"
       sodipodi:nodetypes="ccsc" />
    <path
       style="fill:#c5c8c6;fill-opacity:1;stroke:none;stroke-width:0.264583px;stroke-linecap:butt;stroke-linejoin:miter;stroke-opacity:1"
       d="m 76.486087,239.39858 c 1.168326,-3.10744 6.328954,-9.01691 6.328954,-9.01691 0.255082,0.58874 -18.805988,10.50007 -22.852809,10.39737 -3.474734,-0.0882 13.206352,3.68682 16.523855,-1.38046 z"
       id="path845-8"
       sodipodi:nodetypes="ccsc" />
    <path
       style="fill:#ffffff;fill-opacity:1;stroke:none;stroke-width:0.163079px;stroke-linecap:butt;stroke-linejoin:miter;stroke-opacity:1"
       d="m 91.291244,120.01649 c -2.527553,-0.30613 -9.453495,-1.66584 -9.453495,-1.66584 0.112188,1.25802 18.407191,3.42272 22.053071,3.39406 3.26198,-0.0256 -8.04208,-0.6089 -12.599576,-1.72822 z"
       id="path845-3"
       sodipodi:nodetypes="ccsc" />
    <path
       style="fill:#ffffff;fill-opacity:1;stroke:none;stroke-width:0.138433px;stroke-linecap:butt;stroke-linejoin:miter;stroke-opacity:1"
       d="m 97.600566,111.75561 c -2.079027,-0.45155 -8.621345,-2.55918 -8.377895,-2.69444 11.532609,0.44781 14.892549,8.80417 16.039399,10.22556 1.93944,2.40374 -4.72059,-5.27752 -7.661504,-7.53112 z"
       id="path845-3-7"
       sodipodi:nodetypes="ccsc" />
    <path
       id="path845-3-0"
       style="fill:#ffffff;fill-opacity:1;stroke:none;stroke-width:0.0503473px;stroke-linecap:butt;stroke-linejoin:miter;stroke-opacity:1"
       d="m 108.41775,111.47295 c -1.55451,-1.86115 -3.69526,-3.87818 -6.23096,-3.98533 2.54527,1.67864 5.99487,2.60864 6.79409,5.99163 0.85432,1.07915 1.85106,4.99998 0.68549,4.67387 -0.39353,-2.22287 0.24587,-4.75956 -1.24862,-6.68017 z" />
    <path
       style="fill:#ffffff;fill-opacity:1;stroke:none;stroke-width:0.116763px;stroke-linecap:butt;stroke-linejoin:miter;stroke-opacity:1"
       d="m 105.95665,146.34911 c -0.58652,1.72599 -2.55867,6.37886 -2.55867,6.37886 0.898,0.10655 5.10758,-12.39411 5.62412,-14.95299 0.46218,-2.28943 -1.61034,5.54544 -3.06545,8.57413 z"
       id="path845-3-4"
       sodipodi:nodetypes="ccsc" />
    <path
       style="fill:#ffffff;fill-opacity:1;stroke:none;stroke-width:0.138433px;stroke-linecap:butt;stroke-linejoin:miter;stroke-opacity:1"
       d="m 94.981449,134.16679 c 2.118258,-0.1981 8.991611,-0.16693 8.800441,0.0356 -11.128344,3.05962 -16.857322,-3.88996 -18.380216,-4.89813 -2.575378,-1.70494 6.095179,3.60346 9.579775,4.86253 z"
       id="path845-3-7-2"
       sodipodi:nodetypes="ccsc" />
    <path
       id="path845-3-0-0"
       style="fill:#ffffff;fill-opacity:1;stroke:none;stroke-width:0.0503473px;stroke-linecap:butt;stroke-linejoin:miter;stroke-opacity:1"
       d="m 106.87301,133.90124 c 1.55451,1.86115 3.69526,3.87818 6.23096,3.98533 -2.54527,-1.67864 -5.99487,-2.60864 -6.79409,-5.99163 -0.85432,-1.07915 -1.85106,-4.99998 -0.68549,-4.67387 0.39353,2.22287 -0.24587,4.75956 1.24862,6.68017 z" />
    <path
       style="fill:#c5c8c6;fill-opacity:1;stroke:none;stroke-width:0.264583px;stroke-linecap:butt;stroke-linejoin:miter;stroke-opacity:1"
       d="m 73.950451,162.9444 c 0,0 -47.559113,-98.152006 -50.150917,-122.349829 C 21.207731,16.396747 47.128792,155.27093 73.950451,162.9444 Z"
       id="path945" />
    <path
       style="fill:#c5c8c6;fill-opacity:1;stroke:none;stroke-width:0.264583px;stroke-linecap:butt;stroke-linejoin:miter;stroke-opacity:1"
       d="m 91.434432,280.36043 c -22.829263,10.29693 -50.755668,3.751 -50.755668,3.751 l 1.44708,5.51625 c 0,0 51.295641,4.50492 49.308588,-9.26725 z"
       id="path947" />
    <path
       style="fill:#c5c8c6;fill-opacity:1;stroke:none;stroke-width:0.264583px;stroke-linecap:butt;stroke-linejoin:miter;stroke-opacity:1"
       d="M 31.888281,246.12305 C 28.497384,219.07517 25.40884,72.049457 25.40884,72.049457 c 0,0 -3.974102,156.384893 6.479441,174.073593 z"
       id="path949" />
  </g>
</svg>
