<?xml version="1.0" encoding="UTF-8" standalone="no"?>
<svg
   xmlns:dc="http://purl.org/dc/elements/1.1/"
   xmlns:cc="http://creativecommons.org/ns#"
   xmlns:rdf="http://www.w3.org/1999/02/22-rdf-syntax-ns#"
   xmlns:svg="http://www.w3.org/2000/svg"
   xmlns="http://www.w3.org/2000/svg"
   xmlns:sodipodi="http://sodipodi.sourceforge.net/DTD/sodipodi-0.dtd"
   xmlns:inkscape="http://www.inkscape.org/namespaces/inkscape"
   version="1.1"
   id="svg2034"
   width="539.34369"
   height="561.98907"
   viewBox="0 0 539.34369 561.98908"
   sodipodi:docname="monk-stayed-upright.svg"
   inkscape:version="1.0.2 (e86c870879, 2021-01-15)">
  <metadata
     id="metadata2040">
    <rdf:RDF>
      <cc:Work
         rdf:about="">
        <dc:format>image/svg+xml</dc:format>
        <dc:type
           rdf:resource="http://purl.org/dc/dcmitype/StillImage" />
        <dc:title />
      </cc:Work>
    </rdf:RDF>
  </metadata>
  <defs
     id="defs2038" />
  <sodipodi:namedview
     pagecolor="#ffffff"
     bordercolor="#666666"
     borderopacity="1"
     objecttolerance="10"
     gridtolerance="10"
     guidetolerance="10"
     inkscape:pageopacity="0"
     inkscape:pageshadow="2"
     inkscape:window-width="2560"
     inkscape:window-height="1440"
     id="namedview2036"
     showgrid="false"
     fit-margin-top="0"
     fit-margin-left="0"
     fit-margin-right="0"
     fit-margin-bottom="0"
     inkscape:zoom="1.4886579"
     inkscape:cx="369.70143"
     inkscape:cy="289.14738"
     inkscape:window-x="0"
     inkscape:window-y="0"
     inkscape:window-maximized="0"
     inkscape:current-layer="g2607"
     inkscape:document-rotation="0" />
  <g
     inkscape:groupmode="layer"
     inkscape:label="Image"
     id="g2042"
     transform="translate(-8.740353,-1.1213595)">
    <g
       id="g2607">
      <path
         id="path2613"
         style="display:inline;fill:#969896;fill-opacity:1;stroke-width:0.32"
         d="m 111.86512,392.57603 c 3.82788,12.99435 18.2973,3.51393 24.4772,14.61032 -0.97934,6.42435 -2.66789,8.53727 -7.74925,10.09381 -6.40715,4.9089 -1.5415,-3.98965 -9.27037,-6.4 -8.0738,-15.30457 -9.51196,2.72374 -2.40069,6.11197 1.27307,0.31341 7.6142,9.97577 10.50431,8.85257 1.51542,-11.10928 14.32714,6.48478 11.08972,5.21944 0.45021,2.21921 14.21662,0.12215 12.7643,6.19294 4.06511,4.3311 16.07007,-1.36261 16.11519,6.20619 7.39465,5.25686 23.09469,6.92838 34.28054,7.49129 23.52469,1.47419 40.44091,-7.7393 35.44424,-33.45965 9.42077,-20.38408 -10.86275,-16.29221 -4.39541,-5.04365 -10.20485,5.20669 -4.70603,-14.64436 -1.25708,-24.39593 0.62,-13.43119 7.20928,-30.16997 0.24229,-41.61483 14.32159,-14.03094 -4.67119,-14.08629 -19.12012,-17.70063 -4.78847,1.7932 1.41461,-6.84242 -5.81961,-4.92533 -7.92919,-8.4021 -18.2173,1.4526 -23.40574,-10.27794 12.57314,3.22595 7.85211,-1.14548 -1.47987,-4.4167 -8.53254,-11.4784 -18.93069,1.74203 -20.81925,-9.17205 -6.50538,10.63961 -4.38988,18.75063 -0.64718,30.08223 5.99671,13.51657 5.48076,31.36373 -1.05803,5.63043 -4.28597,-12.13583 -7.35955,-30.38289 -9.56851,-39.20033 -14.66624,-0.87139 -3.32703,14.61855 -9.02405,26.09972 6.92442,14.8888 15.22242,30.84908 9.77357,47.64995 -10.91801,5.33678 -4.65446,23.68432 -8.4565,30.51007 -2.16226,-14.66306 -2.99008,-39.54213 -1.46174,-57.6095 -3.28275,-14.6551 -3.13819,-8.94456 -1.73367,-16.69504 1.10064,-12.37649 -10.42113,-26.68517 0.63001,-29.2932 -3.89216,-12.92179 -3.83449,-14.26065 2.21455,-25.75601 0.20131,-13.47426 13.01327,-30.02081 -0.0805,-37.66129 14.48489,-3.014 16.04404,-24.50036 11.52057,-35.51848 -12.2549,0.0582 -6.42109,27.26635 -17.37296,27.25793 -11.13435,3.78817 5.25988,-18.78598 5.3651,-26.08441 1.32046,-6.66468 5.50094,-12.99615 7.95466,-20.88 6.0416,-7.22263 5.66761,-22.45501 11.9414,-15.90606 2.3644,5.94782 -12.47657,20.03966 0.73194,23.99909 9.91334,11.65416 -15.50527,6.96129 -3.39914,11.50727 3.40523,-1.11714 -2.35379,22.82941 -6.36339,31.71319 -2.12535,15.63196 -0.12879,20.43069 11.37013,16.76059 6.67103,-16.93477 18.31881,-28.98129 24.32159,-43.92282 6.63736,-11.56058 12.67075,-23.71306 14.19656,-35.18855 4.48072,-14.53797 11.97697,-16.6305 14.97727,-26.44097 8.76531,-3.06677 20.7002,-7.60446 24.1553,-7.29327 8.07232,5.33997 -5.88605,16.30646 -6.38506,21.58755 -6.74147,1.91137 -7.29743,4.10791 -6.37228,10.90975 0.89675,2.245 12.51514,10.12794 7.77764,1.74315 2.01301,-3.95617 6.58601,-4.65761 3.44368,-7.3115 -2.42631,-3.37957 2.16324,-10.29506 9.31477,-17.18065 14.27482,-18.29887 1.53224,2.1702 -0.57491,11.64428 3.81525,9.61431 15.78852,-4.19335 8.70369,-4.38094 -0.13017,-3.21148 10.56888,-12.27198 16.12969,-4.35633 3.95767,9.32025 5.7624,7.70992 -0.29887,14.8478 2.32996,-5.23927 5.60192,1.77005 4.24922,-1.81339 3.8948,-2.1101 8.35788,-3.18488 3.17544,-12.94843 0.96654,-4.22129 29.76422,-1.13749 12.26921,4.7491 -5.31817,5.5958 6.79831,17.57884 -6.09895,20.65357 5.05535,-1.71743 17.15779,-0.33126 17.23442,-10.02498 6.08051,0.74211 -5.68616,-18.31163 4.06318,-23.90711 6.47243,-4.71426 7.81882,-12.68327 6.84102,-10.33228 12.64384,0.455 -3.55922,9.79988 7.63181,12.74954 10.95398,-9.59618 22.75705,12.79788 9.52389,10.86269 -6.72494,-15.66512 -18.68235,8.50211 -6.17606,7.136 6.37014,-2.4185 -8.42982,0.12273 0.95595,-4.79644 3.22283,-2.44534 2.18682,4.72239 8.7095,4.17061 2.60131,-2.2882 10.19661,-2.00793 8.54222,-7.39049 1.77815,-4.72604 3.85606,-6.34959 7.15243,-10.47996 -8.83025,-10.65046 -9.84008,-26.76719 -14.55542,-40.281464 -6.50035,-12.058691 -10.3536,-3.923483 -7.35114,3.319944 -0.9587,-0.4326 -6.34238,-15.28699 -6.84723,-21.040712 1.12777,-11.567001 4.50781,-35.866659 -9.20781,-41.987168 0.85263,-13.753643 1.07659,-8.03484 -3.79425,-11.574457 7.63771,-4.175004 16.10548,10.094379 4.71365,-6.524107 -0.27246,-16.064157 8.01452,-31.0534887 9.36142,-4.086455 -3.32025,8.890358 4.54008,11.004279 0.94652,18.494489 -2.10091,10.250246 12.53333,26.731609 1.02157,24.826662 16.34977,6.671351 -10.69781,19.759527 6.35352,27.760017 3.88586,-15.521335 11.19703,13.888931 10.09509,14.450261 7.03471,9.10534 8.3171,14.24037 12.1253,24.9055 5.28036,9.93432 19.16593,-8.14922 19.99443,5.01756 1.73052,10.72214 -7.45804,11.70667 -1.9246,21.70402 3.83228,15.90441 12.33359,2.83683 16.63098,1.49238 5.19079,-0.91276 10.31304,-17.12166 -0.85757,-12.40218 -8.19588,0.58867 2.74864,-12.82878 9.23126,-11.88536 6.35206,-14.23444 -6.27938,-8.27307 -5.63188,-1.9166 -18.53543,7.4576 7.51231,-19.64077 2.21506,-12.03242 10.96591,-5.45051 1.55077,-4.25356 5.4923,-9.74052 3.65193,-5.4904 1.55087,-16.145627 7.04494,-16.109463 33.24993,2.438465 0.0573,-15.979165 -4.80043,-16.427194 -21.37351,-8.274256 -6.77486,16.60222 -6.73654,24.957267 -5.13868,-4.104692 -13.9075,-13.030655 -11.74579,-21.898004 -4.5032,-10.362398 -13.25468,-5.304222 -13.42131,-12.497007 11.11531,-1.229969 16.57386,-2.963645 4.86361,-5.492849 -6.96118,2.222734 -16.28314,0.765492 -13.64429,-4.072215 5.98714,-12.325761 11.59514,-17.398777 13.56436,-15.741666 303.63876,-198.640449 147.14574,535.786201 -5.77382,466.467881 -6.43561,-9.90826 -23.00825,-6.27558 -31.09812,-1.93323 -19.09575,4.83133 11.97191,13.60229 14.73428,5.19686 3.79342,-2.94239 13.03603,8.90763 19.81204,7.68216 1.77145,12.59509 -23.68409,-11.36725 -34.17423,-1.38983 -3.87573,7.47473 -33.65153,-9.82265 -26.71651,-9.98052 19.30314,0.25287 23.96224,-2.62653 24.41734,-7.69699 19.54354,2.15243 -8.13105,-11.69913 -18.25094,-8.21337 8.98688,-8.68365 -15.63638,-15.70554 -11.34893,-5.91078 4.34436,8.68685 -26.18253,-4.84111 -20.75241,8.36943 -6.11758,4.01433 -26.11931,-16.0183 -21.96759,5.81167 10.68982,6.16979 27.53368,4.53489 40.12681,8.01608 -12.00107,2.72712 -12.6941,29.55094 -31.54362,18.41676 23.43332,-1.50073 18.54357,-26.74441 -4.03507,-16.13123 0.41208,7.10758 -12.20283,12.19347 -1.71906,17.81544 -9.81101,-1.72936 -11.04883,12.27393 -9.98656,23.30758 -5.29344,31.34649 -11.57772,-11.55927 -8.78186,-20.31823 -16.81155,3.05519 -0.37513,-25.47993 -18.63845,-11.28864 -12.65495,-18.96776 -15.50238,18.48956 6.01834,5.82612 -5.47659,7.55984 -36.00039,-5.09677 -22.88182,12.41974 2.92023,7.94366 -7.66159,7.48088 -5.86976,-3.57608 0.58639,-8.03173 -19.98048,-12.91476 -25.13051,-8.53065 -1.51245,-13.21887 -8.44488,-16.40995 -22.40812,-15.84241 -13.23811,3.50753 -28.52752,-6.86012 -18.5118,-16.05963 2.96097,-4.36671 15.70427,-5.19001 20.47997,-10.95648 13.69566,11.07639 21.57889,-3.08169 30.10934,-10.50519 -8.10041,-3.90726 14.39383,-3.64863 3.26139,-10.92179 1.58394,-5.29858 -49.22289,-6.25138 -29.01083,-8.92493 9.78631,-0.10514 -14.7281,-14.31439 -14.52838,-11.13232 -2.64694,-3.82503 -16.36612,-3.98401 -21.53938,-9.26928 -3.84547,-5.6577 -11.41187,-6.84002 -10.20732,-8.27053 5.70316,0.92251 -10.35044,-4.9663 -2.25867,-2.26833 -3.37844,1.34028 -9.60192,-14.79176 -14.88747,-20.43206 -4.784895,-7.45182 6.17572,-9.29412 10.92696,-8.25938 z m 105.31221,132.43328 c -10.76004,-3.85867 -4.79639,-14.04737 -15.61452,-16.08082 -23.36671,-7.18565 -14.89501,19.97421 2.22305,15.70591 4.44175,0.42667 8.93259,1.0011 13.39147,0.37491 z m 30.70853,-1.33187 c 4.52779,-26.28366 -12.13814,-2.12416 0,0 z M 183.35999,512.6217 c -1.89369,-10.39327 -13.65295,-0.28671 0,0 z m 46.15534,-2.31485 c 12.60827,2.90103 12.22688,-27.00132 7.0083,-29.35376 -16.51025,-1.3472 -34.38249,2.49583 -9.70908,8.90451 8.43268,13.05366 -14.23493,12.01444 -6.8431,20.55816 3.31325,-1.25589 6.40247,2.64627 9.54388,-0.10891 z m -64.86667,-4.08087 c 1.80909,-6.81936 13.25707,-18.40748 11.66471,-2.17497 8.91977,0.95434 42.36641,5.39748 39.11208,-4.71287 28.17726,-15.19298 -30.5458,-10.84248 -41.09504,-8.68123 -15.91817,-7.53176 -30.76949,11.0718 -9.68175,15.56907 z M 151.03814,503.92 c 12.28057,-24.02716 -13.88926,-7.25885 0,0 z m 282.44985,-0.88 c 12.81988,-13.87069 -20.52848,-4.34862 0,0 z m -80.84314,-4.32253 c 1.2953,-2.26667 25.76765,0.87482 7.37047,-9.74653 -8.01059,-3.77616 -1.41337,1.67992 -5.78499,-0.97689 0.27783,2.09477 -7.55912,11.74977 -1.58548,10.72342 z m 36.35716,-8.27193 c -2.46179,-2.61395 -1.26189,-14.26421 -8.67551,-15.06651 -10.41408,6.2016 4.76721,16.63533 8.67551,15.06651 z m 28.03798,-1.44471 c 5.98958,-8.80866 -10.50805,-14.69477 -9.36,-3.56083 -1.10679,4.28254 -6.47917,-0.11487 -2.66034,3.37648 3.09119,-2.62058 9.80131,-0.75879 12.02034,0.18435 z m -155.44,-1.73056 c 6.83204,-4.10963 -2.8019,-3.88537 5.52008,-5.36973 17.52898,5.54224 27.53526,-8.28587 13.35993,-13.90068 -18.07893,-2.67645 -16.95025,15.26686 -21.46134,17.67747 0.33769,1.68554 -2.89418,4.94385 2.58133,1.59294 z m -66.67753,-0.59923 c -12.5746,-10.6787 22.39447,-0.83277 21.07753,-8.91137 -4.28336,-12.69146 -25.19991,-4.46369 -30.63548,4.37219 -5.23389,4.39491 7.88265,3.88673 9.55795,4.53918 z m 168.34003,-1.551 c 8.33745,-3.49506 4.63437,-18.97469 -7.40292,-16.1721 -6.66995,-3.3076 -5.34026,11.98432 -11.45283,4.13427 -19.25281,8.59018 15.48917,7.47336 15.32751,9.1287 -3.45436,2.23874 1.9895,3.57216 3.52824,2.90913 z M 232.90657,478.1911 c 12.73819,-9.76638 -23.80365,-1.94975 0,0 z m 70.64333,-0.13424 c 18.4581,3.86504 25.86767,-23.5574 47.68238,-11.94764 8.88706,4.0324 25.29633,-4.57538 26.08265,4.2909 11.26203,3.52781 15.11673,-11.36498 12.86526,-19.22764 2.85019,10.65156 17.89278,0.35549 8.78445,12.70677 0.0843,7.61366 3.3669,15.36872 8.31676,7.46304 -0.52867,-17.46189 12.4454,-3.25998 4.52813,-20.73305 -2.06415,-6.90306 -8.93117,-10.57326 -8.55966,-15.69648 -4.64498,-0.25531 -7.19611,3.24806 -9.80583,2.27299 -4.7238,3.39444 -3.5819,6.86743 -5.04374,13.48261 -1.97971,4.49477 -11.96715,-11.43635 -6.41686,-7.90492 -0.36709,-5.70955 -9.08882,6.90751 -14.83319,1.31641 -8.27007,3.31691 -17.44503,6.92596 -26.04871,0.72 2.79621,2.61035 -8.83461,0.5167 -2.58883,3.02195 3.67158,-1.14866 3.46477,7.51548 -6.60816,8.10499 -11.10737,-4.1727 -28.94141,-8.61211 -6.07386,-8.88699 -2.05709,-11.06459 -21.03948,1.52287 -19.71644,0.17531 -10.85699,-5.9357 -22.7869,1.4308 -33.88563,-1.57214 -6.24111,2.20286 -6.52761,0.85758 -13.82774,1.71673 -10.67334,7.22642 -14.06464,3.21173 -25.13883,1.59642 -12.89045,1.44028 -0.18221,12.8524 -22.40005,8.00754 -11.97893,-2.8514 -17.32385,5.82752 -5.6418,11.85606 22.28925,5.93705 28.75121,-9.80205 43.91093,4.20535 11.60876,6.49797 14.27301,-11.69993 25.74751,-7.90432 13.51776,-0.71555 19.82168,12.18396 28.67126,12.93611 z m 125.04675,-21.56915 c 1.27394,-9.65194 12.62868,-17.29749 -0.11661,-22.20854 -8.99203,-4.05036 -2.43236,-13.20154 -17.92005,-4.51917 -3.22931,3.08992 -2.79673,0.13928 -3.83998,3.84 7.03436,7.12181 10.0583,14.92697 15.1506,14.40001 4.80621,0.28294 3.70601,8.44826 6.72604,8.4877 z m -0.7271,-9.72982 c -3.46005,-14.22101 12.80102,-6.69645 0,0 z m -182.61232,-0.0186 c 16.38583,-4.32503 -5.78827,-4.71971 14.74684,-8.61571 31.5556,-1.4641 23.35766,-6.36512 43.67596,3.46108 11.66044,-1.84389 26.17578,0.17083 38.81289,-2.20671 9.36811,4.84713 20.1014,-4.66716 24.79504,-5.12037 4.02458,-2.79541 -0.49691,0.90866 4.57924,-0.29228 2.54168,-0.68938 13.35483,0.30592 10.65146,-8.92368 -1.58962,-6.22547 6.61872,-20.52284 12.12149,-12.6682 9.80553,19.67999 5.1589,8.13807 10.08569,-5.97194 -7.2086,-19.38427 15.35482,22.69114 10.06787,-1.78272 13.92373,-9.93956 -9.24488,-14.93606 -7.39243,-23.17728 2.73948,-8.18936 11.57253,-18.07022 -0.042,-17.59832 10.4018,-10.76025 -2.59231,-2.23839 0.81434,-11.49981 -8.21262,6.3137 -11.34037,2.6668 -14.81347,-4.63515 -4.64556,-5.68401 -2.60442,-7.08668 1.56223,-9.46666 2.5507,-6.34115 -4.42066,-13.37528 -2.00308,-22.74666 -0.36917,5.04673 -17.98245,-7.85591 -21.6853,2.18271 21.34383,23.06621 -10.03281,3.04373 -12.91275,5.75135 -12.47659,3.07435 -19.42072,2.56229 -30.69069,8.26039 -9.65044,4.78571 -25.51061,6.26011 -32.0076,11.5743 -9.52403,-5.29809 -45.10583,-12.81052 -40.41042,3.87492 0.10222,15.95474 23.97344,51.18459 -4.63525,52.66822 -9.63535,2.1123 0.14298,-17.54098 -5.35562,-24.67069 -5.11317,-2.98147 -15.17133,15.45695 -7.44907,18.13684 7.10426,-25.99225 -0.0163,36.82532 4.46023,45.82212 -4.02701,0.64387 -3.3999,11.53918 3.0244,7.64425 z m 108.37712,-7.35799 c 5.8362,-0.0978 2.65198,-1.55242 0,0 z m 48.8456,-41.52284 c -11.21219,-12.88064 7.7009,-19.36896 0.98614,0.0235 l -0.98617,-0.0234 z m -5.35514,31.25664 c 1.0808,-20.45697 -13.34862,0.81426 0,-4e-5 z M 427.10162,378.16 c -0.81355,-13.96524 8.85011,-24.67302 -3.31419,-32.59744 -0.24948,-0.70091 0.0358,19.76127 -0.71217,26.73674 -1.73469,3.9827 0.84759,7.52698 4.02636,5.8607 z m -13.1593,-24.52387 c 12.51329,-3.90484 -8.99586,-21.52106 6.46656,-15.7187 2.80022,-2.60349 -1.32348,-16.75608 -0.40029,-14.39739 -9.54928,1.02837 -11.69329,-3.04503 -10.80921,3.89156 0.51073,5.4868 -6.66495,20.80961 1.54343,24.08633 1.2324,0.44299 2.08037,1.50353 3.19951,2.1382 z m -16.0191,-6.44135 c 8.6774,-8.80414 -9.2439,-3.59854 0,0 z M 287.56542,328.0505 c -2.2774,-15.7019 -21.45697,4.47168 -3e-5,4e-5 z m -14.73784,0.0246 c 1.96295,-15.78046 -39.12166,-2.55881 -6.18524,-1.0732 l 4.46399,0.93639 1.72125,0.13677 z m -43.04909,-2.6536 c 15.0798,2.05868 4.6268,-14.0476 -1.45584,-5.79228 -17.10804,-2.33092 -5.12545,4.45734 1.45584,5.79228 z m 160.3015,-17.62068 c 5.80492,-14.10119 -5.44652,-1.09765 -4.52504,-1.88081 -2.49958,-0.46211 -0.34183,1.65399 4.52504,1.88081 z m -73.52297,-0.38929 c 20.48813,-16.94844 -23.88865,-1.08339 0,0 z m -17.92575,-0.0955 c 22.70213,-20.17914 -17.98089,-9.89102 -2e-5,0 z m 121.35422,-1.88419 c 8.12606,-14.66086 -19.34631,-11.79588 -4.16441,0.80816 1.65254,-0.51505 4.80952,3.43086 4.16441,-0.80816 z m -88.8718,1.15033 c 2.01989,-3.88234 -0.46193,2.93482 4.6428,-1.77249 0.18677,-4.50972 3.7022,-12.48531 -3.35649,-13.79935 -4.7823,-4.72462 -3.27761,18.9899 -3.32425,13.55808 0.51984,-0.82067 1.81236,4.01316 2.03794,2.01376 z m -51.75291,0.0656 c 18.67851,-5.69818 -0.40131,-25.49723 -3.21804,-7.31273 0.44961,3.93781 -4.71354,7.79164 3.21804,7.31273 z m -48.16079,-0.51502 c 4.98222,0.27044 4.29784,-3.99524 5.23617,-8.44853 5.07991,-4.55374 -5.09949,-14.48809 -10.61726,-7.58682 7.9592,6.09349 -5.76707,18.5162 5.38109,16.03535 z m -15.97788,-1.5285 c 10.23724,-1.50632 0.9383,-15.73703 4.4522,-21.89465 -9.34665,-7.66346 -12.65469,12.20255 -10.37472,16.65044 -2.64159,5.23189 1.73578,3.27387 5.92252,5.24421 z m -42.8777,-3.94292 c 0.35106,-6.68416 -6.9361,0.8798 0,0 z m 27.93411,-1.58498 c 5.48194,-1.27372 6.55257,-22.04466 -1.7719,-13.15631 1.96454,3.83267 -7.57612,15.41412 1.7719,13.15631 z m 141.65513,0.1458 c 4.23779,-2.53336 3.7979,0.38247 5.9465,-4.75538 4.3964,-18.43798 -15.75867,1.95044 -5.9465,4.75538 z m 84.37165,-7.82253 c -7.70146,-15.83636 -6.29612,12.29259 0,0 z m -280.54757,2.68404 c 2.42471,-1.92891 10.00944,-20.56714 -2.23135,-11.36397 -2.30884,5.72821 2.2648,8.42856 2.23135,11.36397 z M 436.40572,290.56 c 5.57069,-13.99606 -11.84554,-8.28352 0,0 z M 301.0176,289.78479 c -0.63353,-5.19399 12.90525,-10.36739 7.98897,-8.28338 9.84594,1.24494 11.38567,-26.13989 -7.89208,-14.12691 -15.89623,-1.58202 -21.29022,29.40038 -0.0969,22.41029 z m -31.49807,-3.1248 c 5.2681,-11.31833 22.47401,2.52467 4.93202,-12.52306 2.21714,-11.80295 -5.86993,-8.19155 -11.52921,-10.78466 -8.34294,7.03943 0.6537,22.3982 6.59719,23.30772 z m 156.35889,-5.72994 c 9.21506,-5.91778 9.26521,-9.99542 10.60157,-14.13666 -2.86629,-3.36134 4.11877,-26.03064 9.73391,-12.71342 6.01448,-3.12591 0.22624,-0.4023 1.56401,-8.72 -8.40268,-1.24741 -8.21473,3.81796 -12.01799,0.62628 -0.18877,-6.99834 -6.57413,-15.45611 -3.53882,-21.00277 -2.83176,-5.22451 -3.44709,-12.11545 -9.83063,-16.26352 -9.97006,-8.37705 -3.66541,15.23176 0.94782,19.31262 0.0822,4.47992 -8.59409,6.64619 -6.41741,9.08738 2.76705,7.39818 -1.72992,3.96193 5.73881,6.16003 3.58868,-2.20944 9.03576,13.94574 7.87484,21.26519 -5.112,-6.98164 -10.59166,-1.69845 -10.05453,3.74056 7.52008,3.20199 -6.82069,14.31799 5.39842,12.64431 z M 228.4178,277.91423 c 21.85981,-8.06871 7.21153,-23.56897 -3.80543,-10.85715 -2.86378,1.01978 -2.03498,6.857 0.0643,0.45817 0.53133,4.48107 -3.53762,5.66344 -3.28088,6.14533 0.0127,3.39655 2.73486,3.66817 7.02196,4.25365 z m -68.58573,-4.52163 c 12.62174,-22.09096 -8.24407,-27.15337 -3.4897,1.12764 0.95208,1.14946 4.15075,1.35249 3.4897,-1.12764 z m 201.93675,-1.05833 c 4.80841,-5.22839 2.43161,-10.45283 -5.84579,-14.31136 -3.59398,1.04624 3.41436,12.7253 5.84579,14.31136 z m -25.29328,-2.10134 c 5.68593,-14.91163 -16.76202,4.39256 0,0 z M 151.12129,267.44 c 5.77242,1.07545 6.07237,-20.98259 -2.52345,-13.04004 -3.01145,3.19194 -5.66838,14.29952 2.52345,13.04004 z M 169.68,265 c 11.7363,1.0259 -4.21265,-9.38794 0,0 z m 1.39707,-0.42243 c -7.99505,-5.28885 6.98216,0.3507 0,0 z m 235.49466,-6.49086 c -1.45722,-9.34578 -6.60411,-16.24494 -4.51804,-16.96079 1.79215,-9.74476 -7.36263,2.89283 -10.37371,6.23408 4.56487,-4.70679 -0.86505,14.53303 9.04,10.67088 2.74193,-2.22443 3.61841,6.07649 5.85175,0.0558 z m -229.45816,-4.12244 c 11.63523,1.19078 24.08581,-4.9543 35.592,-3.25473 7.19826,-12.52933 38.36463,-2.98233 33.85463,-26.29926 4.75199,-14.22368 -1.22632,-24.06463 -5.73761,-8.10238 -21.7265,10.71454 16.6758,-17.76175 -2.38605,-19.26149 -14.40235,-1.43195 3.47602,-21.60239 3.32423,-7.79827 11.59498,-2.69293 0.23793,-22.46095 -12.68304,-11.90298 -14.43759,4.50238 -13.27458,-8.20173 -21.93617,5.24485 -10.82049,2.70225 -0.89971,33.74795 -12.30112,22.85002 -3.69496,12.27292 -11.80517,25.86474 -18.56824,37.78954 2.68383,-1.35434 -9.28814,8.67125 0.84137,10.7347 z m 199.2356,-6.10624 c 4.43715,-6.48039 2.31799,-8.30272 12.99716,-10.01509 0.95568,-4.05895 -13.63828,-13.61963 6.11593,-5.79786 8.19967,1.79351 1.96102,-7.30099 0.45934,-6.85947 -2.79471,-0.24584 -18.00076,-2.57074 -6.46989,-9.1856 -2.55582,-7.60812 -12.1675,-23.49082 -18.14948,-10.46489 4.65547,11.6125 -4.28419,1.89058 -8.90337,3.10489 -5.17593,-6.92132 4.72647,-8.68065 -0.85976,-19.2003 10.62753,-11.64987 -3.37046,-5.72907 -11.55944,-6.08945 -13.93218,-3.06349 -4.52355,-5.29492 -23.57944,-3.54765 -18.02754,-2.12789 -5.0097,18.08089 -18.54982,18.6774 9.29322,-0.42 8.15763,19.06005 -4.01019,14.48004 -2.55571,-9.28746 4.47646,-18.58834 -6.07646,-25.43708 -8.95248,-9.73465 -8.58581,-12.08344 -12.34846,-2.22022 -1.28665,24.04871 -8.05434,1.67692 -7.03188,-8.48247 -0.0402,-22.03399 -6.4134,1.27875 -3.13186,11.61401 -10.26986,8.27905 0.70698,24.3039 -5.06467,30.55943 5.44118,9.51584 -8.43765,16.3259 9.93164,14.82762 18.67566,0.81768 17.12878,-11.20646 35.18003,-1.81106 8.33453,13.46018 20.59325,9.26214 33.41913,8.23232 6.2447,-3.24983 10.21298,-21.77597 8.27518,-3.98961 0.32504,9.07893 3.11602,1.27314 8.86622,8.18955 2.57605,-1.44278 2.87855,2.19824 6.13357,4.07052 0.84942,0.6143 2.64502,1.03683 4.35652,-0.65503 z m -95.36539,-32.12416 c -1.53084,-14.16724 8.14468,2.16041 0,0 z m 164.90264,22.35889 c 8.78409,-4.72665 -22.25009,-13.77593 -3.64643,-1.1897 0.44973,1.40783 2.32808,2.45047 3.64643,1.1897 z M 401.5621,234.64 c -0.34957,-7.25033 -2.78822,-1.20832 4e-5,4e-5 z m 41.30602,-18.69739 c 3.15381,-6.71468 4.19029,-2.73368 1.75127,-9.11728 -8.44037,-2.24173 -9.9827,6.86999 -1.75127,9.11728 z m -31.46061,-13.53415 c -4.0824,-4.83739 -5.98249,-21.12111 -16.70102,-10.40846 -18.09163,-7.08543 -1.57952,6.44889 5.63048,7.74159 3.83636,-0.10427 7.56676,3.32271 11.07054,2.66687 z m 17.01657,-1.93636 c -1.68569,-9.41612 7.39202,-26.65716 -6.60784,-13.55607 3.0453,4.13179 -0.86171,15.55673 6.60784,13.55607 z M 153.92,190.3951 c 11.61045,-3.18413 -5.31714,-10.95344 0,0 z M 380.14322,183.68 c 5.25544,-4.77757 1.15326,-17.81669 -2.78313,-18.88 -1.67695,3.11326 -3.03256,3.25197 -3.14228,8.03605 1.60997,3.50022 4.72317,9.04012 5.92541,10.84395 z m 25.41248,0.16 c 18.58115,-2.76283 1.93166,-9.79232 3.40429,-20.38384 -8.00196,-6.5386 -3.27395,13.72118 -13.12,11.90406 -0.89018,2.90208 6.60396,5.87079 9.71571,8.47978 z m -52.51213,-11.53084 c 5.11776,-12.09212 -4.89166,-9.80212 -10.59788,-8.62916 -2.60234,-6.23209 6.57499,11.93628 10.59788,8.62916 z m 52.76205,-13.77276 c 7.55967,-4.41141 -8.79931,-13.07052 -9.38227,-3.85264 2.55473,2.81314 8.57653,0.73531 9.38227,3.85264 z M 407.03999,118.4 c 8.94963,-4.90758 3.6717,-16.85385 -3.31777,-5.76 -1.89522,2.15558 -0.38444,8.15514 3.31777,5.76 z m -236.8002,204.98813 c -8.53178,-11.38872 -2.20528,-7.52796 5.12007,-1.19949 9.8498,-7.35778 27.12469,19.07524 3.33173,2.98269 -11.80799,1.26876 13.89099,15.07195 -0.88673,5.86909 -12.75915,12.92461 -6.14777,-6.90131 -7.56507,-7.65229 z m -38.80017,-26.82972 c -12.00481,-18.83674 -2.64841,-35.76099 1.08293,-54.50471 2.46314,-9.85113 9.78032,22.11413 2.87085,7.91326 -4.77947,10.95198 4.09639,20.28099 -5.20104,22.85627 -5.47851,11.13215 7.28232,18.08549 2.0474,23.54637 -0.0583,0.75539 1.99877,0.80191 -0.80014,0.18881 z m -7.1369,-39.10291 c 1.86601,-7.80245 -12.61485,-32.03864 2.75338,-18.02711 -0.77233,2.95447 0.34991,25.82401 -2.75338,18.02711 z m 36.80391,-96.52135 c 0.8716,-8.77738 10.40008,-17.50297 11.14489,-24.85415 9.40253,-14.5462 -0.16546,20.47473 -6.17152,22.17717 -0.5752,1.34583 -3.1192,4.24592 -4.97337,2.67698 z m 95.21336,-33.94376 c -17.18517,1.35045 7.03397,-15.36605 13.93375,-4.29643 1.14256,7.79327 -10.90998,0.23907 -13.93375,4.29643 z m -29.76,-7.21904 c -7.71898,-5.55433 13.12549,-26.919196 2.11339,-26.582644 0.0392,-3.935304 13.09154,-28.951374 12.13856,-10.913271 -1.09928,9.272775 -9.18997,7.755243 -6.82,18.580615 -3.84241,5.596 -4.57624,14.38706 -7.43195,18.9153 z m 89.31407,-26.135091 c -6.99116,-11.330062 5.74951,-3.480726 0,0 z M 259.29762,83.28 c -11.92333,-12.371422 -3.74627,-24.957934 -12.90253,-30.442134 -9.64088,-11.994868 4.80687,-8.96707 9.70348,-4.878681 0.25689,9.795724 5.68282,28.653786 3.19905,35.320815 z m 7.66237,-46.405846 c 0.68356,-5.858512 -1.94136,-11.774392 2.71044,-15.514158 4.70457,0.536961 5.45758,-1.26098 4.47689,3.840004 -1.02203,2.362485 -4.99424,7.025291 -7.18733,11.674154 z m 61.47347,-25.343275 c 3.94362,-13.552689 10.30891,2.304072 1.16653,0.941201 l -0.47147,0.276851 z m -4.48278,-5.8506867 c -3.5162,-3.7083616 1.11178,-8.0689986 0,0 z"
         sodipodi:nodetypes="ccccccccccccccccccccccccccccccccccccccccccccccccccccccccccccccccccccccccccccccccccccccccccccccccccccccccccccccccccccccccccccccccccccccccccccccccccccccccccccccccccccccccccccccccccccccccccccccccccccccccccccccccccccccccccccccccccccccccccccccsccssssccccccccccccsssscccsccccccccsssccccccccccccccccccccccccccccccccccsccsscccccccccccccccccscccsscccccccccccccccscccssccccccccccccccccccccccccccccccccccccccccsssccccccccccccccccccccccccccccccccccccccccccccccccccccccccccccccccccccccc" />
      <path
         id="path2611"
         style="fill:#373b41;fill-opacity:1;stroke-width:0.32"
         d="m 252.30979,563.11043 c -9.92329,-2.36401 0.78133,-3.07696 2.5323,-3.2538 -4.5432,3.44831 0.23028,2.7197 -2.5323,3.2538 z m 1.23687,-6.50964 c -4.66477,3.08508 -10.48138,-11.61551 -2.40908,-9.41093 3.40165,-16.84538 -4.6282,-20.14568 -5.51884,-35.29083 -14.38705,23.32115 -3.30253,-54.76562 -1.93286,-9.81898 8.03027,-10.13218 2.30728,-34.78019 -4.3658,-20.92993 -15.57424,-12.41565 25.21639,-9.46191 26.04913,-8.62452 -9.55502,15.82298 -8.25523,41.64491 -9.04512,64.09821 -2.59872,8.55479 0.65898,14.23248 -2.35055,20.38953 l -0.42667,-0.4126 z m -4.69831,-10.25904 c -3.12848,-0.66439 -2.1174,-7.50154 -0.56631,-10.26174 2.49873,-4.69364 1.58093,10.21238 0.56631,10.26174 z m 37.52526,-281.33637 c -3.23759,33.46671 2.09079,15.44705 0,0 z m 5.62638,245.72561 c -11.97618,-1.19334 -27.59826,-7.55782 -4.52631,-5.73082 4.15546,-0.31626 16.70163,4.08667 4.52631,5.73082 z m -87.92461,-1.48224 c -1.45664,-1.44726 -5.23632,-3.68932 0.29182,-3.13901 2.42457,-1.04216 1.69274,1.92122 -0.29182,3.13901 z m 208.08461,-0.34352 c -8.40864,-2.31704 -13.37365,-4.43005 -20.62634,-5.52321 0.6163,-1.50695 -1.75666,-1.63105 -4.65379,-2.67797 -6.52138,-1.38371 -4.66929,-1.63386 -4.51187,-3.88435 3.13502,0.63021 2.63861,-3.87881 8.49018,1.64457 10.5249,2.09488 16.14204,3.66034 26.22166,4.5324 -0.57684,3.51127 -3.64202,4.39978 -4.91984,5.90856 z m -202.05171,-0.37942 c 0.25463,-4.32812 -5.59761,-0.49504 -1.91511,-2.66086 6.61961,-2.86162 4.64759,-0.11246 1.91511,2.66086 z m 138.55686,-7.3719 c -13.27592,-6.4878 29.09218,0.0713 0,0 z m -209.0581,-2.35149 c -0.0953,-0.23712 -0.28025,-0.76345 0.88093,-1.99749 0.15391,-4.55565 7.69468,-8.34746 3.63006,-1.5402 -3.18389,0.82878 -1.41851,3.94704 -4.51099,3.53769 z M 416.50338,494.96 c -10.07434,-5.04215 -22.36912,-7.58269 0.13658,-5.09921 9.54057,-1.55375 6.29503,8.92688 -0.13658,5.09921 z m 17.96877,-6.32 c -16.4802,-13.87234 39.30692,12.80065 4.19585,4.03634 z m -104.84774,3.70944 c 1.85522,-21.66163 22.12938,-4.99866 3.15017,-0.72192 l -1.85125,1.03925 z m -66.12075,-3.85917 c 0.91567,-14.88419 24.24824,6.01013 1.85016,1.06467 -1.89963,-1.96345 -0.62678,2.01543 -1.85016,-1.06467 z m -57.55341,-1.32681 c -8.51191,-2.79193 10.88727,-11.50771 12.98324,-5.64206 -8.58233,-2.86894 -4.55537,7.95929 -11.08196,5.53742 l -0.80256,0.36822 -1.09876,-0.26349 z m 138.16462,-40.19648 c -7.5629,-3.6057 -18.37593,-4.40711 -32.37356,-4.42106 8.06568,-4.89012 41.87178,1.26794 58.21391,-7.7716 30.53791,6.20849 -8.28506,6.48916 -16.47735,8.28225 -8.49929,0.0334 5.93292,3.97139 -7.63299,1.58339 0.67164,1.60465 5.08702,1.84536 -1.73001,2.32702 z m -80.99488,-0.63754 c 2.17446,-5.04529 33.24522,-17.23262 30.87775,-1.78233 -11.1081,-2.12012 -19.7373,0.44008 -30.87775,1.78233 z M 151.36,441.8985 c -11.38074,-3.05824 -41.07877,-20.46937 -11.12,-9.91515 2.32959,1.97526 19.8798,10.06032 11.12,9.91515 z m 234.23999,-4.46602 c 12.67589,-5.2661 20.474,-16.69584 32.86131,-21.35417 2.38928,-4.78998 7.93924,-12.11566 8.68192,-9.24461 2.27686,3.01795 0.51396,-11.02828 5.81821,-5.42572 2.3669,0.0351 8.7164,-1.23718 5.89518,4.2802 -15.96819,12.5011 -25.95813,23.27324 -42.55938,30.539 -2.16547,0.96459 -9.71406,3.64654 -10.69724,1.2053 z m -95.22182,-2.098 c -13.70426,-11.6322 8.9021,-5.52433 0,0 z m 147.85286,-34.86344 c -0.15281,-15.6529 18.63143,-21.85644 27.51005,-32.75802 14.66298,-12.54229 27.16005,-27.05925 42.81891,-38.92432 9.93166,-14.81799 9.41034,-35.47321 8.69798,-53.15821 -4.70433,-26.14176 22.33118,-31.20275 19.10389,-56.51049 -0.27019,-12.71814 15.20028,-28.01382 4.29247,-39.87492 3.48313,-3.50241 3.64925,-42.66691 7.28934,-26.12508 -0.57226,16.93907 1.66739,34.67241 -2.16352,52.45484 -3.79983,31.48775 -7.46625,26.5418 -9.67243,45.73162 -9.54039,17.74328 -4.47455,24.64031 -10.23145,40.99806 -8.45675,15.15287 3.87317,33.93803 -16.07783,39.51842 -14.49567,11.69388 -26.33864,24.73888 -39.98067,36.21154 -1.3271,6.10052 -3.20803,13.47606 -11.03488,15.32552 -10.32835,-2.03188 -7.39238,16.45645 -17.95065,17.04005 0.12099,1.11803 -2.85877,-0.89195 -2.60121,0.071 z m -189.27104,-0.38173 c -2.8939,-7.93958 -5.52685,-23.66826 2.54801,-25.37731 2.97832,-2.76785 -8.05984,-26.87095 -5.42805,-23.03155 -0.80486,6.19748 -1.97779,30.30503 -10.40788,23.72584 -4.93072,10.32161 -3.32271,-24.54846 5.21248,-13.96597 0.91315,-16.24161 -4.2434,-40.7966 0.22409,-47.58724 -12.18546,-5.62143 -31.36241,-3.64139 -5.23738,-10.5923 1.28597,-15.49644 7.84862,13.59628 10.01352,-8.03422 -16.19148,4.21023 0.49289,-16.63243 -5.72824,-22.53667 4.03699,-31.31477 -37.36945,14.56728 -9.03309,13.6329 -3.625,2.74664 -5.76724,28.18412 -7.36445,12.72345 -4.77603,-9.79587 0.0893,-37.22339 -12.24,-32.50827 -8.7464,3.23981 -1.80736,9.39834 -5.12007,11.54242 14.41777,6.78693 -12.83938,2.30649 -3.05408,-9.8534 -9.1194,-8.67508 25.86517,-3.48052 20.63262,-16.74563 15.88581,-13.38384 -0.0354,11.79194 17.66018,-2.37271 4.10159,11.45383 1.80004,-24.44033 6.79733,-30.94826 6.27422,-17.98108 -4.61993,-38.13386 8.34293,-50.28351 -26.07638,10.12708 -6.42948,-14.12288 1.46094,-5.73742 -3.57431,-3.50277 6.50923,-7.32614 6.24108,-2.56464 -0.57247,5.75248 4.72493,-2.07537 4.84252,-1.01628 3.81565,1.77876 4.33252,18.73456 -0.55363,27.52184 -3.45878,-12.09837 -2.87562,-24.66626 -9.814,-10.91564 -5.07962,17.42604 18.49139,22.89752 11.6124,39.71564 -8.26015,18.6053 5.06172,31.71807 24.15165,30.4 7.31146,1.48779 17.71742,3.64057 29.07615,-2.46725 -8.21166,14.7991 28.59646,2.04713 27.79437,2.50977 -18.60809,12.94247 26.42475,-11.88973 22.40308,10.19744 13.62033,-6.93478 16.04766,8.65041 26.02444,13.02162 -3.14489,10.39232 12.8169,29.31357 -4.8839,23.93802 -3.41514,-8.21895 -7.64951,9.10506 -11.3786,14.88616 -9.45991,5.62835 -1.95272,-24.02513 -12.64127,-3.28783 -7.53865,17.207 -8.78005,-15.72922 -22.99307,4.70103 -4.49511,19.39688 -6.39138,-6.63617 -17.74981,4.17718 -11.77079,14.62785 -11.658,-6.34763 -27.66772,4.1971 -6.84219,16.91088 -15.76661,0.41791 -24.23256,6.36638 -15.23574,0.92243 -21.17056,-7.40386 -27.22314,-7.84933 2.23303,17.02291 2.51632,28.67331 6.02848,44.51468 6.48787,15.61202 4.61372,21.89182 -3.19633,19.26865 -10.71192,8.24547 10.60037,22.8874 -5.119,20.63531 z m 51.68,-87.76931 c 17.2112,-4.77139 -18.93816,0.129 3.87469,-8.90394 2.6363,-14.45933 4.60315,14.30655 18.49664,1.70037 23.52532,4.72671 6.28177,-29.41409 22.10656,-6.52207 25.31621,-1.06597 -12.63504,-37.79936 10.91649,-22.46821 5.16845,-2.06577 12.67035,-5.27149 14.47267,-2.58403 -1.56494,1.53546 5.25192,-2.66286 5.73316,-4.0958 1.02604,-1.95064 0.0165,-1.8022 2.97698,-5.0944 4.70218,-5.66643 -11.46627,2.74834 -0.8915,-0.3645 -2.71972,-3.6855 -14.11992,3.08884 -10.94897,-1.51866 -0.59309,-14.9225 -15.01644,-1.85332 -13.6624,4.49121 -4.59395,-17.58636 -5.68327,14.30031 -7.47809,-9.02951 -22.19744,-0.9882 -48.02604,-5.83589 -68.2702,0.38955 -7.93529,1.74383 6.24531,5.42284 -3.46436,5.47653 -5.50961,-0.5156 -7.08596,0.69324 -12.84562,0.007 -6.43701,5.38568 -13.68507,12.60319 -4.16504,21.17245 15.79582,5.10554 20.62352,5.44718 19.50475,21.70425 11.46525,-2.32546 14.28216,-17.18679 15.0648,0.92007 -14.00671,-3.22032 0.62407,10.20621 8.57944,4.71998 z m -7.24498,-19.02266 c -28.78104,-5.92167 35.52049,-7.83869 19.14224,-2.34397 -5.25204,4.62484 -12.85457,1.13214 -19.14224,2.34397 z m 28.64338,-6.07826 c -10.22153,-7.23616 7.03914,-7.5229 1.80346,-19.53908 9.68023,-14.2274 2.65017,17.55572 16.72646,11.1755 -5.77266,2.20875 -12.94833,2.66531 -18.52992,8.36358 z m -66.39962,22.93795 c -2.12107,-25.26175 7.52502,13.434 17.31667,-13.11863 -12.71267,-12.93872 -29.43455,-6.72156 -22.00354,12.88299 l 2.57978,0.71831 2.10713,-0.48268 z m 103.36148,-17.70811 c 17.54942,-2.85632 24.8799,-5.81128 10.67683,-15.89762 3.35815,-12.12547 -11.39776,5.38043 -12.94824,13.62497 l 0.002,2.7684 2.26896,-0.49572 z M 255.4273,233.36 c 9.50698,-15.65687 -3.02383,-36.05446 0.50438,-7.10747 -2e-4,0.33871 -4.47137,9.23442 -0.50438,7.10747 z m 7.18753,-26.28581 c 7.74533,-19.46445 -9.57895,-7.02943 0,0 z M 86.761636,370.93549 c -9.130721,-16.17873 -22.927277,-30.40175 -32.020753,-45.51372 12.267234,6.18164 15.690024,22.41648 26.567292,31.12096 0.479195,2.79721 12.339363,16.46928 5.453461,14.39276 z m 128.293184,-62.4765 c -17.11066,-1.99494 -44.41292,-11.15109 -35.912,-33.11398 7.37578,-9.61522 -19.94853,-9.41973 5.87117,-9.0804 5.13658,0.004 13.94921,7.96653 6.94098,15.19825 -3.03094,-1.08509 1.00932,1.65494 -2.60352,3.57003 4.68665,5.1333 -2.02701,13.34769 11.27749,16.72901 6.50936,2.15071 6.47449,-31.66534 7.71638,-6.5264 -8.47194,10.6603 22.87888,10.66244 6.7095,13.22349 z M 38.499903,305.08727 c -9.358734,-10.90493 -16.5657,-23.25729 -17.552487,-37.00344 -6.2222,-13.82631 1.119673,-83.14681 0.698594,-35.58023 -4.472127,17.02438 5.034266,35.78544 7.153996,46.37642 1.682628,2.91962 7.061717,20.87166 9.699898,26.20727 z M 414.57452,288.6635 c -2.8393,-13.07398 -7.57512,-23.26543 5.94636,-20.83377 -5.22973,4.78238 0.13112,15.34075 -5.94636,20.83377 z m -6.33453,-28.7327 c -0.73834,-6.26357 7.32679,-0.34421 0,0 z m -2.35575,-15.26927 c -2.31958,-11.22747 -21.06569,-47.81748 -10.05817,-40.99032 4.07601,11.81865 18.56915,32.07084 10.05817,40.99032 z M 22.910578,198.44948 c -4.979115,-4.03856 -11.509897,-13.74848 -7.0738,-18.60427 6.973431,11.42127 6.46765,-11.84013 8.495743,10.07474 -0.173809,-2.29154 3.25531,11.23235 -1.421943,8.52953 z m 360.959752,-0.6058 c -15.07721,-14.51866 4.34826,-16.87218 0,0 z m -31.54474,-14.36017 c 2.32133,-6.46089 5.26758,-6.27837 12.15952,-7.6403 -0.25127,-1.10615 -0.92492,-4.69418 2.61183,-5.96037 0.89683,-3.49748 4.8661,-1.9457 7.13719,4.50772 -1.04357,6.79688 0.0606,-2.60319 -5.96609,0.54872 -1.8434,4.87751 -6.84779,2.49991 -10.19355,8.2875 -1.78492,0.68263 -3.95341,1.41452 -5.7489,0.25673 z m -46.15447,-7.33905 c -18.27396,-14.71028 24.76011,-23.06883 34.04228,-14.6858 1.71724,3.4684 -7.40637,-0.19932 -7.14132,4.19923 6.81337,-1.38234 5.03586,16.20609 -8.00709,7.1122 -5.59849,-4.0262 -12.98158,3.76621 -18.89387,3.37437 z M 15.192073,170.89283 C 9.0068142,160.40974 8.6078243,135.28599 8.7658411,121.17679 9.3341383,133.42411 28.98473,164.11975 15.192073,170.89283 Z m 347.687917,-4.82257 c -0.41516,-0.29637 4.60687,-4.90334 -1e-4,1e-5 z m -2.44157,-1.33754 c -6.25523,-6.85834 9.69161,-0.52311 0,0 z M 265.689,162.201 c -3.51984,-10.33558 1.18171,2.12883 0.71804,-3.46958 1.18049,-4.55356 3.49376,-0.79594 2.56027,-1.61752 -3.13646,0.72176 0.10607,5.69849 -3.27831,5.0871 z m -6.61865,-10.34223 c 2.12337,-19.62486 23.35631,-2.41749 0,0 z"
         sodipodi:nodetypes="cccsccccccccscccccccccccccccccccccccccccccccccccccccccccccccccccccccccccccccccccscccccccccccccsscccccccccccccccccccccccccccccccccccccccccccccccccccccccccccccccccccsccccssccccscccccccccccccccccscccsscccccccccccccccccccccccccccccccccccccccc" />
      <path
         id="path2609"
         style="display:inline;fill:#1d1f21;fill-opacity:1;stroke-width:0.32"
         d="m 241.98772,355.6816 c -5.26487,-18.15737 7.99449,-5.24949 0,0 z m -0.22703,-12.90896 c -3.6755,-14.8346 8.9451,-14.61348 4.0072,-2.81183 -5.89672,-1.26537 -1.05504,2.3732 -4.0072,2.81183 z m 8.50836,-11.7017 c -2.87819,-10.21201 7.42877,1.20528 0,0 z m 37.25464,-5.62707 c -3.18894,-13.46554 16.71289,0.90418 0,0 z m -18.2308,-4.03401 c -3.06756,-11.75679 24.4225,-10.26755 3.4767,-0.39485 -2.11862,2.09087 -17.7223,3.48123 -3.4767,0.3948 z m 72.00972,-4.03469 c 2.81417,-14.07056 -10.91434,-1.39767 -17.58596,-4.90738 -15.55198,6.29737 -36.77785,1.41147 -9.36967,-2.11095 11.20923,0.77435 44.60228,-15.90966 31.84655,2.92806 1.2047,1.01422 -2.81035,5.86551 -4.89092,4.09027 z m -96.69396,-0.44127 c 1.8026,-12.9181 -3.70571,-27.32242 3.74121,-37.46447 -1.13988,-17.40642 2.17476,-34.51134 1.25023,-51.58317 6.52536,-1.35412 5.94318,3.13334 9.00602,8.48911 1.15774,6.01211 -0.64735,13.00273 -3.72779,7.26105 -3.34528,8.22484 0.47822,24.77299 -2.95454,34.90771 -3.1906,12.52405 3.9192,28.33489 -5.84387,38.68346 l -1.4711,-0.2937 z m -11.12632,-7.24849 c -2.97545,-7.55861 5.01231,0.74556 0,0 z m 131.21993,-3.15443 c 6.05679,-11.90972 22.17227,-21.01351 11.11552,-35.78948 3.47433,-29.31815 23.9613,-7.77727 16.0339,11.92284 -9.10836,1.11659 -11.86788,35.95226 -13.10469,12.05566 -6.12871,3.62876 -7.35371,10.86397 -14.04473,11.81098 z m -170.82682,-5.06721 c -0.2959,-7.66025 7.04581,1.61198 0,0 z m 167.55732,-1.42989 c 0.85135,-9.62225 10.58272,1.01936 0,0 z M 256.15998,289.94272 c -4.09613,-2.55897 29.26102,-0.73512 19.15787,3.34237 -3.68253,0.73872 -21.57802,-1.24442 -19.15787,-3.34237 z m 37.43679,3.17206 c -1.85473,-0.12587 -7.16138,-3.29128 -8.31678,-3.19478 0.92475,-3.32831 1.69932,-0.49219 5.53957,0.15975 8.06119,-1.48686 25.63132,4.08129 2.77721,3.03503 z m -113.88921,-1.00475 c -8.08748,-5.89419 6.90632,-36.80751 9.08231,-21.69914 17.21448,-0.89324 -7.90072,22.82792 -9.08231,21.69914 z m 174.93243,-12.1049 c -1.23052,-9.95843 23.1608,-5.12982 0,0 z m 0.0626,-13.03504 c -2.58129,-3.85907 -1.32209,-4.29813 -3.66206,-6.84781 -0.71542,-3.80614 -15.36833,-2.154 -11.21536,-6.20713 4.32249,3.55474 7.32293,-5.60136 13.67646,-4.01758 -3.46528,3.61458 3.69325,12.03185 1.20139,17.07255 z m 13.36864,0.0518 c -11.17804,-20.55269 15.56809,-10.84959 0,0 z m -151.95787,-1.97792 c -4.04143,-11.94397 47.5683,-7.05303 10.62427,-0.91189 -3.58964,0.0116 -7.01781,1.71359 -10.62427,0.91189 z m 26.29683,-1.34751 c -0.22289,-12.37021 11.14294,-0.99334 0,0 z m 21.9667,-3.17452 c -6.41178,-11.61269 2.51816,-7.41551 7.48473,-18.85183 -6.32037,20.80284 31.55843,1.25028 29.57841,3.53337 6.5616,10.50719 30.73742,10.21564 2.72463,9.78571 -14.92026,0.4686 -26.32831,0.25245 -39.78777,5.53275 z m -1.2785,-29.24 c 0.38569,-4.37422 1.87842,-32.98324 8.88119,-22.32569 -6.28374,5.99371 2.26337,28.9817 -8.88119,22.32569 z m -11.75132,-15.36032 c -4.47697,-16.96043 13.83401,-6.37273 0,0 z m 3.37296,-17.53226 c -13.98128,-2.86153 6.06,-21.38826 5.58354,-10.22934 0.55939,6.1533 -5.50772,2.67158 -5.58354,10.22934 z m -13.19978,-27.72993 c 4.2961,-16.71809 26.82475,-3.87007 0,0 z m 90.15175,-3.31248 c -0.21226,-2.93056 -11.08,-6.28127 -7.65214,-8.33886 3.4532,2.66443 10.76903,-2.02597 8.78519,-0.9892 3.42783,-0.69981 5.14303,2.05232 7.05065,3.60435 -8.82879,0.54353 -4.47379,-1.60395 -8.1837,5.72371 z"
         sodipodi:nodetypes="cccccccccscsscccccccccccccccccccccccccccccccccccccccccccccccccccccccccccccccccccccc" />
    </g>
  </g>
</svg>
