<?xml version="1.0" encoding="UTF-8" standalone="no"?>
<svg
   xmlns:dc="http://purl.org/dc/elements/1.1/"
   xmlns:cc="http://creativecommons.org/ns#"
   xmlns:rdf="http://www.w3.org/1999/02/22-rdf-syntax-ns#"
   xmlns:svg="http://www.w3.org/2000/svg"
   xmlns="http://www.w3.org/2000/svg"
   xmlns:sodipodi="http://sodipodi.sourceforge.net/DTD/sodipodi-0.dtd"
   xmlns:inkscape="http://www.inkscape.org/namespaces/inkscape"
   version="1.1"
   id="svg2034"
   width="539.34369"
   height="561.98907"
   viewBox="0 0 539.34369 561.98908"
   sodipodi:docname="monk-stayed-upright.svg"
   inkscape:version="1.0.2 (e86c870879, 2021-01-15)">
  <metadata
     id="metadata2040">
    <rdf:RDF>
      <cc:Work
         rdf:about="">
        <dc:format>image/svg+xml</dc:format>
        <dc:type
           rdf:resource="http://purl.org/dc/dcmitype/StillImage" />
        <dc:title />
      </cc:Work>
    </rdf:RDF>
  </metadata>
  <defs
     id="defs2038" />
  <sodipodi:namedview
     pagecolor="#ffffff"
     bordercolor="#666666"
     borderopacity="1"
     objecttolerance="10"
     gridtolerance="10"
     guidetolerance="10"
     inkscape:pageopacity="0"
     inkscape:pageshadow="2"
     inkscape:window-width="851"
     inkscape:window-height="1415"
     id="namedview2036"
     showgrid="false"
     fit-margin-top="0"
     fit-margin-left="0"
     fit-margin-right="0"
     fit-margin-bottom="0"
     inkscape:zoom="0.74432895"
     inkscape:cx="256.82189"
     inkscape:cy="209.65641"
     inkscape:window-x="854"
     inkscape:window-y="0"
     inkscape:window-maximized="0"
     inkscape:current-layer="g2607"
     inkscape:document-rotation="0" />
  <g
     inkscape:groupmode="layer"
     inkscape:label="Image"
     id="g2042"
     transform="translate(-8.740353,-1.1213595)">
    <g
       id="g2607">
      <path
         id="path2613"
         style="display:inline;fill:#969896;fill-opacity:1;stroke-width:0.32"
         d="m 113.79224,385.20483 c 9.13699,2.99114 33.83419,21.47655 12.58841,24.24885 -7.86834,-21.04525 -17.72267,3.92513 -0.29539,5.71947 28.88904,11.45034 51.52178,35.69219 87.72287,36.21018 19.86976,0.22739 37.03496,-41.99891 19.11021,-44.44371 -13.48579,10.89297 1.11623,-28.3395 0.90358,-36.19767 14.00329,-32.99121 -18.4225,-44.24883 -42.46528,-52.82947 -5.73085,-20.65197 -47.75171,-16.87683 -31.5051,9.02626 6.27019,9.81801 1.34505,26.53241 -1.79333,7.09466 5.37338,-14.38674 -18.64267,-52.81552 -16.01853,-18.31561 10.03019,22.61111 11.1982,67.34858 -1.04634,78.09893 -1.09543,-29.79334 -1.79809,-59.55344 -4.38677,-89.2866 0.67351,-24.91192 9.42341,-54.34986 12.59757,-75.13684 8.27591,-15.11572 -3.3532,-37.24636 -5.93262,-13.68523 -10.39778,19.4374 -11.4594,-8.97446 -2.12861,-15.26424 0.51505,-9.26791 20.14467,-51.40693 16.48175,-23.5943 9.89337,22.17708 -8.25309,43.80909 -4.72945,65.87415 19.04225,6.52952 23.77673,-27.09223 35.03021,-39.74136 10.85193,-16.19394 12.03926,-36.70831 22.20333,-52.80911 9.4734,-19.97695 45.79674,-17.65832 22.48526,5.83586 -8.29169,18.17199 7.92474,12.73718 8.51322,-1.04104 2.78394,-9.43912 17.10742,-21.5938 8.3452,-3.84243 5.19243,16.27447 22.71286,-25.79747 26.49741,2.86054 4.22244,10.95826 11.45059,-25.47349 20.5533,-5.98978 -12.579,9.02196 -3.52346,34.70466 7.86986,14.0742 -2.44181,-14.22462 7.46936,-44.84137 18.70166,-23.88978 18.16111,2.00943 13.72244,13.10117 -1.02307,11.51947 6.15941,24.27033 38.48676,-13.25038 21.85289,-29.38801 -3.07658,-11.879 -12.43327,-25.222692 -18.15145,-26.030889 -5.23779,-21.824754 -0.13614,-46.911657 -14.45585,-65.941225 12.88272,4.683205 -4.73408,-33.8894878 9.99965,-17.931844 8.76124,25.276113 -0.79671,58.372533 13.76927,78.618491 18.78721,25.646577 49.13042,87.887137 59.30147,59.614247 4.38692,-65.779549 -59.37315,-82.780677 5.73464,-123.064605 32.93213,-18.4658014 80.3481,-29.8090369 110.51827,-0.200288 35.63121,37.068419 36.25949,92.663743 36.31385,140.915943 -2.51337,95.5657 -28.4594,190.55882 -73.41002,274.81698 -16.9944,29.46623 -40.08786,58.27662 -72.727,70.7877 -21.33843,6.3668 -52.5631,-24.86268 -66.14687,1.01585 8.34088,-2.41918 39.90399,1.38184 29.24536,6.68833 -14.80665,-9.3119 -42.4798,6.57282 -50.20153,-12.12679 15.52938,6.25146 37.55485,-19.64873 9.47214,-16.28043 -15.77091,-21.46003 -32.6523,9.16937 -55.30401,-1.06584 -17.8396,22.68659 51.05269,5.56024 24.30428,29.83067 -2.9658,11.79331 -27.27954,5.72237 -8.29193,1.2897 7.45545,-25.90669 -30.95455,-5.06083 -23.11855,7.89917 -6.8694,7.68693 -8.98686,45.46356 -13.20697,16.40557 6.63416,-16.98931 -28.53797,-42.79991 -26.54294,-21.70545 22.42164,8.97338 -16.95082,-6.47887 -11.32684,12.27508 -1.78218,10.40906 -10.93129,-20.67865 -25.27974,-12.28077 -5.79234,-19.76316 -45.63671,-5.86294 -44.99169,-27.75596 11.90019,-15.27508 57.73219,-18.26762 50.26838,-44.48376 -40.70819,-21.52094 -41.25524,-21.12617 -65.6958,-31.63907 -8.46884,-5.17016 -35.428293,-35.43532 -10.20836,-34.7582 z m 103.38509,139.80448 c -3.81415,-25.54267 -48.91465,-11.58565 -15.78639,0.0938 5.26388,0.35111 10.52455,-0.53798 15.78639,-0.0938 z m 30.70853,-1.33187 c 9.61333,-15.63074 -14.23904,-9.843 0,0 z M 183.35999,512.6217 c -1.56846,-10.98744 -11.62697,2.58341 0,0 z m 46.15534,-2.31485 c 25.53192,-3.36566 0.90127,-47.15608 -13.91459,-24.73369 31.19904,-1.64988 -12.404,30.01777 13.91459,24.73369 z m -64.86667,-4.08087 c 11.12205,-18.12833 34.62508,14.61662 50.69107,-4.33661 11.60489,-21.93288 -29.06398,-10.06708 -41.37364,-13.01185 -11.11104,-2.17315 -26.88664,14.20844 -9.31743,17.34846 z M 151.03814,503.92 c 18.0551,-19.96966 -16.11666,-11.61841 0,0 z m 282.44985,-0.88 c 12.28015,-11.77812 -18.77003,-1.64212 0,0 z m -80.84314,-4.32253 c 28.09489,4.96468 -4.59667,-23.94363 0,0 z m 36.35716,-8.27193 c 1.21542,-25.92427 -26.83041,-5.81819 0,0 z m 28.03798,-1.44471 c 2.93112,-19.92393 -22.03885,7.84817 -1.02302,-0.34187 z m -155.44,-1.73056 c 11.67527,-2.22453 37.57487,-16.93757 12.03842,-19.60874 -5.54798,3.51142 -17.42356,12.22613 -12.03842,19.60874 z m -66.67753,-0.59923 c -1.58535,-10.09766 36.62862,-5.60716 11.13705,-15.74123 -8.4324,-1.20873 -35.75136,17.09068 -11.13705,15.74123 z m 168.34003,-1.551 c 20.49199,-25.81575 -46.20903,-9.23401 -11.03431,-3.53428 3.79254,0.73702 7.63399,1.62246 11.03431,3.53428 z M 232.90657,478.1911 c 6.81864,-13.88077 -17.73229,4.70967 0,0 z m 70.64333,-0.13424 c 25.12286,-12.16166 53.51438,-17.90519 79.93591,-9.44189 4.26126,-14.23147 20.71777,-20.25097 16.57863,0.13892 20.96767,9.70807 14.24949,-48.15965 -7.40645,-28.34364 -10.86068,10.48096 -30.13217,-0.67323 -45.6468,8.22718 -5.63397,-0.70568 -25.57689,16.6213 -27.98158,-1.88446 10.81243,-6.33468 -23.61859,0.0679 -31.33498,-0.96651 -26.73319,3.45626 -70.52153,1.32949 -84.55204,19.12838 19.49228,7.59994 45.33677,5.52433 65.98979,2.00904 13.99047,-5.07693 23.30663,4.87873 34.41752,11.13298 z m -58.29267,-31.31757 c 24.7203,-21.52766 57.76471,-2.5694 86.35332,-6.2614 24.76381,3.59558 49.41684,-6.98713 58.82276,-27.58165 16.01187,12.88201 8.04612,-1.8591 16.46707,-9.70621 20.03471,17.3431 2.20627,-21.48643 1.91955,-31.86137 11.08046,-19.22712 -32.92087,-21.94654 -12.60404,-44.32555 0.57229,-15.25948 -34.03361,-16.93238 -19.19762,0.12986 -34.24217,-13.27824 -64.79826,21.15246 -99.33463,11.801 -28.78316,-7.55876 -21.70011,20.98972 -13.9915,36.75686 8.94041,17.30661 -18.80071,34.3759 -17.1129,9.53892 -3.63858,-20.75002 -17.3048,7.11022 -4.11543,9.17219 1.04722,17.07962 -9.28102,37.46726 2.79342,52.33735 z m 108.37712,-7.35799 c 4.56587,1.51253 2.06426,-2.36415 0,0 z m 60.30797,-85.74517 c 1.0604,-9.87225 13.1724,-28.50532 -1.21392,-29.72163 -7.61019,6.76259 -10.85906,25.70516 1.21392,29.72163 z M 287.56542,328.0505 c -3.76377,-19.20786 -20.43292,9.86357 0,0 z m -14.73784,0.0246 c -3.0942,-17.00424 -28.54734,2.49616 -4.79099,-0.77288 1.56741,0.42917 3.1901,0.53648 4.79099,0.77288 z m -43.04909,-2.6536 c 27.50181,-9.98615 -27.94568,-6.95141 0,0 z m 160.3015,-17.62068 c 9.9859,-14.26514 -14.53026,1.62057 0,0 z m -73.52297,-0.38929 c 18.02676,-9.3112 -14.47162,-7.18416 -3.42451,-0.68668 z m -17.92575,-0.0955 c 24.46306,-12.19326 -13.31711,-13.61036 0,0 z m 32.48242,-0.73386 c 17.59981,-11.86324 -13.4319,-21.53797 0,0 z m -51.75291,0.0656 c 26.22436,-15.97987 -18.93081,-13.45031 0,0 z m -48.16079,-0.51502 c 18.33842,-14.11806 -17.12034,-21.35574 -2.4384,0.82304 z m -15.97788,-1.5285 c 18.51391,-11.02724 -12.77777,-34.51765 -6.18166,-6.7841 -1.22237,4.08322 1.48588,8.95505 6.18166,6.7841 z m -14.94359,-5.5279 c 17.18385,-21.32864 -15.60154,-10.96505 0,0 z m 141.65513,0.1458 c 18.99979,-7.43999 -7.9301,-21.48327 0,0 z m -40.91605,-9.43736 c 23.48459,-5.46078 8.02695,-40.63939 -9.294,-17.9089 -8.49606,8.14555 -3.98757,23.50792 9.294,17.9089 z m -31.49807,-3.1248 c 27.39808,-5.60781 -16.66285,-42.12864 -8.96679,-7.44626 1.34958,3.89481 4.98384,6.66296 8.96679,7.44626 z m 156.35889,-5.72994 c 7.71106,-12.03683 28.37571,-33.8481 9.51904,-39.44149 -1.37821,-8.85888 -12.94595,-43.88391 -15.2094,-23.03695 -2.81817,15.36481 -0.23198,26.54732 10.30052,36.66185 0.11556,7.37179 -20.6041,21.12221 -4.61016,25.81659 z M 228.4178,277.91423 c 34.14107,-15.34084 -27.47788,-15.53512 0,0 z m -68.58573,-4.52163 c 14.09689,-22.67588 -16.03443,-10.8412 -0.81773,1.71954 z m 201.93675,-1.05833 c 9.08506,-17.97382 -20.49594,-14.98054 0,0 z m -25.29328,-2.10134 c 4.0836,-15.65438 -13.41107,6.385 0,0 z M 169.68,265 c 12.14452,2.59513 -4.20291,-10.52252 0,0 z m 236.89173,-6.91329 c 6.69087,-19.48639 -23.40718,-19.1845 -10.23014,-1.16727 2.93594,2.11088 6.8947,2.33314 10.23014,1.16727 z m -229.45816,-4.12244 c 23.4232,-4.23771 54.6981,-1.50152 68.58594,-24.95602 7.7723,-14.12488 -0.16036,-23.53626 -9.60852,-13.15304 14.88139,-9.45079 -0.5396,-19.61611 -0.58046,-28.04591 27.43014,-12.1685 -30.24978,-20.28058 -31.9499,0.98745 -2.23602,24.64149 -30.56858,41.82977 -26.44706,65.16752 z m 199.2356,-6.10624 c 6.51994,-7.69551 15.30378,-17.80917 19.81228,-20.5849 -13.81546,-4.8582 -8.57347,-37.33419 -27.13019,-18.59338 -16.77584,2.46278 5.39524,-37.00129 -19.80553,-26.83588 -21.83898,-12.28649 -42.55995,9.8266 -38.79694,28.41163 -11.9403,0.97001 -8.78006,-44.88606 -25.38228,-22.92429 -6.82263,21.24616 -7.80881,-39.19962 -10.22841,-5.8686 -4.66412,19.60508 -13.22765,63.66059 19.7637,49.06875 23.72053,-3.80977 42.27605,24.07184 62.40786,2.6744 2.42015,9.8393 9.49114,12.90275 19.35951,14.65227 z m -95.36539,-32.12416 c -5.11841,-9.46647 7.67145,-1.85881 0,0 z M 401.5621,234.64 c 3.06807,-5.68256 -4.40957,-1.92638 0,0 z m 13.95465,-32.15486 c 8.45796,-20.53919 -10.97365,-15.91052 0,0 z M 380.14322,183.68 c 12.09831,-13.62214 -14.31456,-21.73928 -2.03383,-3.43909 0.67795,1.14636 1.35589,2.29273 2.03383,3.43909 z m 25.41248,0.16 c 19.84495,-2.81088 -5.62176,-32.63869 -7.98671,-9.34604 -5.26893,4.04236 6.41069,6.72786 7.98671,9.34604 z m -52.51213,-11.53084 c 6.01899,-20.42041 -26.66666,-4.36006 0,0 z m 52.76205,-13.77276 c 3.26122,-15.13514 -17.83461,0.1119 0,0 z M 170.23979,323.38813 c -5.87453,-16.85112 36.48355,15.21659 7.7815,3.5777 -0.55628,13.00059 -12.38476,8.26835 -7.7815,-3.5777 z m -38.80017,-26.82972 c -8.54011,-13.06873 -10.73081,-43.56154 6.10882,-48.62281 -4.24023,15.66381 -9.05184,32.31627 -6.10882,48.62281 z m -7.1369,-39.10291 c -7.93055,-11.03511 1.99807,-28.84789 2.14047,-7.41882 -0.37519,0.48593 1.59953,11.4101 -2.14047,7.41882 z m 36.80391,-96.52135 c 0.61366,-12.96474 21.89259,-36.39673 10.10145,-9.86404 -1.80386,4.24584 -4.74743,9.81602 -10.10145,9.86404 z m 95.21336,-33.94376 c -15.4417,-11.68477 32.13476,-2.34868 2.71245,-1.18162 -1.10246,-0.25288 -1.81205,0.77553 -2.71245,1.18162 z m -29.76,-7.21904 c -0.54103,-10.76117 6.10825,-46.015314 11.98174,-35.374059 -2.2758,12.323663 -8.11169,23.544809 -11.98174,35.374059 z m 89.31407,-26.135091 c -7.37941,-4.742493 3.91042,-6.178914 0,0 z M 259.29762,83.28 c -12.42454,-10.979023 -15.5818,-57.824608 -0.67063,-22.436021 0.85144,7.453001 0.16593,14.965835 0.67063,22.436021 z m 7.66237,-46.405846 c -5.27644,-18.347205 16.6358,-17.645944 0,0 z"
         sodipodi:nodetypes="ccccccccccccccccccccccccccccccccccccccccccccccccccccccccccccccccccccccccccccccccccccccccccccccccccccccccccccccccccccccccccccccccccccccccccccccccccccccccccccccccccccccccccccccccccccccccccccccccccccccccccccccccccccccccccccccccccc" />
      <path
         id="path2611"
         style="fill:#373b41;fill-opacity:1;stroke-width:0.32"
         d="m 252.30979,563.11043 c -9.92329,-2.36401 0.78133,-3.07696 2.5323,-3.2538 -4.5432,3.44831 0.23028,2.7197 -2.5323,3.2538 z m 1.23687,-6.50964 c -4.66477,3.08508 -10.48138,-11.61551 -2.40908,-9.41093 3.40165,-16.84538 -4.6282,-20.14568 -5.51884,-35.29083 -14.38705,23.32115 -3.30253,-54.76562 -1.93286,-9.81898 8.03027,-10.13218 2.30728,-34.78019 -4.3658,-20.92993 -15.57424,-12.41565 25.21639,-9.46191 26.04913,-8.62452 -9.55502,15.82298 -8.25523,41.64491 -9.04512,64.09821 -2.59872,8.55479 0.65898,14.23248 -2.35055,20.38953 l -0.42667,-0.4126 z m -4.69831,-10.25904 c -3.12848,-0.66439 -2.1174,-7.50154 -0.56631,-10.26174 2.49873,-4.69364 1.58093,10.21238 0.56631,10.26174 z m 37.52526,-281.33637 c -3.23759,33.46671 2.09079,15.44705 0,0 z m 5.62638,245.72561 c -11.97618,-1.19334 -27.59826,-7.55782 -4.52631,-5.73082 4.15546,-0.31626 16.70163,4.08667 4.52631,5.73082 z m -87.92461,-1.48224 c -1.45664,-1.44726 -5.23632,-3.68932 0.29182,-3.13901 2.42457,-1.04216 1.69274,1.92122 -0.29182,3.13901 z m 208.08461,-0.34352 c -8.40864,-2.31704 -13.37365,-4.43005 -20.62634,-5.52321 0.6163,-1.50695 -1.75666,-1.63105 -4.65379,-2.67797 -6.52138,-1.38371 -4.66929,-1.63386 -4.51187,-3.88435 3.13502,0.63021 2.63861,-3.87881 8.49018,1.64457 10.5249,2.09488 16.14204,3.66034 26.22166,4.5324 -0.57684,3.51127 -3.64202,4.39978 -4.91984,5.90856 z m -202.05171,-0.37942 c 0.25463,-4.32812 -5.59761,-0.49504 -1.91511,-2.66086 6.61961,-2.86162 4.64759,-0.11246 1.91511,2.66086 z m 138.55686,-7.3719 c -13.27592,-6.4878 29.09218,0.0713 0,0 z m -209.0581,-2.35149 c -0.0953,-0.23712 -0.28025,-0.76345 0.88093,-1.99749 0.15391,-4.55565 7.69468,-8.34746 3.63006,-1.5402 -3.18389,0.82878 -1.41851,3.94704 -4.51099,3.53769 z M 416.50338,494.96 c -10.07434,-5.04215 -22.36912,-7.58269 0.13658,-5.09921 9.54057,-1.55375 6.29503,8.92688 -0.13658,5.09921 z m 17.96877,-6.32 c -16.4802,-13.87234 39.30692,12.80065 4.19585,4.03634 z m -104.84774,3.70944 c 1.85522,-21.66163 22.12938,-4.99866 3.15017,-0.72192 l -1.85125,1.03925 z m -66.12075,-3.85917 c 0.91567,-14.88419 24.24824,6.01013 1.85016,1.06467 -1.89963,-1.96345 -0.62678,2.01543 -1.85016,-1.06467 z m -57.55341,-1.32681 c -8.51191,-2.79193 10.88727,-11.50771 12.98324,-5.64206 -8.58233,-2.86894 -4.55537,7.95929 -11.08196,5.53742 l -0.80256,0.36822 -1.09876,-0.26349 z m 138.16462,-40.19648 c -7.5629,-3.6057 -18.37593,-4.40711 -32.37356,-4.42106 8.06568,-4.89012 41.87178,1.26794 58.21391,-7.7716 30.53791,6.20849 -8.28506,6.48916 -16.47735,8.28225 -8.49929,0.0334 5.93292,3.97139 -7.63299,1.58339 0.67164,1.60465 5.08702,1.84536 -1.73001,2.32702 z m -80.99488,-0.63754 c 2.17446,-5.04529 33.24522,-17.23262 30.87775,-1.78233 -11.1081,-2.12012 -19.7373,0.44008 -30.87775,1.78233 z m -107.933,-10.46192 c -11.38074,-3.05824 -41.07877,-20.46937 -11.12,-9.91515 2.32959,1.97526 19.8798,10.06032 11.12,9.91515 z m 230.413,1.56496 c 12.67589,-5.2661 20.474,-16.69584 32.86131,-21.35417 2.38928,-4.78998 7.93924,-12.11566 8.68192,-9.24461 2.27686,3.01795 0.51396,-11.02828 5.81821,-5.42572 2.3669,0.0351 8.7164,-1.23718 5.89518,4.2802 -15.96819,12.5011 -25.95813,23.27324 -42.55938,30.539 -2.16547,0.96459 -9.71406,3.64654 -10.69724,1.2053 z m 52.63104,-36.96144 c -0.15281,-15.6529 18.63143,-21.85644 27.51005,-32.75802 14.66298,-12.54229 27.16005,-27.05925 42.81891,-38.92432 9.93166,-14.81799 9.41034,-35.47321 8.69798,-53.15821 -4.70433,-26.14176 22.33118,-31.20275 19.10389,-56.51049 -0.27019,-12.71814 15.20028,-28.01382 4.29247,-39.87492 3.48313,-3.50241 3.64925,-42.66691 7.28934,-26.12508 -0.57226,16.93907 1.66739,34.67241 -2.16352,52.45484 -3.79983,31.48775 -7.46625,26.5418 -9.67243,45.73162 -9.54039,17.74328 -4.47455,24.64031 -10.23145,40.99806 -8.45675,15.15287 3.87317,33.93803 -16.07783,39.51842 -14.49567,11.69388 -26.33864,24.73888 -39.98067,36.21154 -1.3271,6.10052 -3.20803,13.47606 -11.03488,15.32552 -10.32835,-2.03188 -7.39238,16.45645 -17.95065,17.04005 0.12099,1.11803 -2.85877,-0.89195 -2.60121,0.071 z m -189.27104,-0.38173 c -2.8939,-7.93958 -5.52685,-23.66826 2.54801,-25.37731 2.97832,-2.76785 -8.05984,-26.87095 -5.42805,-23.03155 -0.80486,6.19748 -1.97779,30.30503 -10.40788,23.72584 -4.93072,10.32161 -3.32271,-24.54846 5.21248,-13.96597 0.91315,-16.24161 -4.2434,-40.7966 0.22409,-47.58724 -12.18546,-5.62143 -31.36241,-3.64139 -5.23738,-10.5923 1.28597,-15.49644 7.84862,13.59628 10.01352,-8.03422 -16.19148,4.21023 0.49289,-16.63243 -5.72824,-22.53667 4.03699,-31.31477 -37.36945,14.56728 -9.03309,13.6329 -3.625,2.74664 -5.76724,28.18412 -7.36445,12.72345 -4.77603,-9.79587 0.0893,-37.22339 -12.24,-32.50827 -8.7464,3.23981 -1.80736,9.39834 -5.12007,11.54242 14.41777,6.78693 -12.83938,2.30649 -3.05408,-9.8534 -9.1194,-8.67508 25.86517,-3.48052 20.63262,-16.74563 15.88581,-13.38384 -0.0354,11.79194 17.66018,-2.37271 4.10159,11.45383 1.80004,-24.44033 6.79733,-30.94826 6.27422,-17.98108 -4.61993,-38.13386 8.34293,-50.28351 -26.07638,10.12708 -6.42948,-14.12288 1.46094,-5.73742 -3.57431,-3.50277 6.50923,-7.32614 6.24108,-2.56464 -0.57247,5.75248 4.72493,-2.07537 4.84252,-1.01628 3.81565,1.77876 4.33252,18.73456 -0.55363,27.52184 -3.45878,-12.09837 -2.87562,-24.66626 -9.814,-10.91564 -5.07962,17.42604 18.49139,22.89752 11.6124,39.71564 -8.26015,18.6053 5.06172,31.71807 24.15165,30.4 7.31146,1.48779 17.71742,3.64057 29.07615,-2.46725 -8.21166,14.7991 28.59646,2.04713 27.79437,2.50977 -18.60809,12.94247 26.42475,-11.88973 22.40308,10.19744 13.62033,-6.93478 16.04766,8.65041 26.02444,13.02162 -3.14489,10.39232 12.8169,29.31357 -4.8839,23.93802 -3.41514,-8.21895 -7.64951,9.10506 -11.3786,14.88616 -9.45991,5.62835 -1.95272,-24.02513 -12.64127,-3.28783 -7.53865,17.207 -8.78005,-15.72922 -22.99307,4.70103 -4.49511,19.39688 -6.39138,-6.63617 -17.74981,4.17718 -11.77079,14.62785 -11.658,-6.34763 -27.66772,4.1971 -6.84219,16.91088 -15.76661,0.41791 -24.23256,6.36638 -15.23574,0.92243 -21.17056,-7.40386 -27.22314,-7.84933 2.23303,17.02291 2.51632,28.67331 6.02848,44.51468 6.48787,15.61202 4.61372,21.89182 -3.19633,19.26865 -10.71192,8.24547 10.60037,22.8874 -5.119,20.63531 z m 51.68,-87.76931 c 17.2112,-4.77139 -18.93816,0.129 3.87469,-8.90394 2.6363,-14.45933 4.60315,14.30655 18.49664,1.70037 23.52532,4.72671 6.28177,-29.41409 22.10656,-6.52207 25.31621,-1.06597 -12.63504,-37.79936 10.91649,-22.46821 5.16845,-2.06577 12.67035,-5.27149 14.47267,-2.58403 -1.56494,1.53546 5.25192,-2.66286 5.73316,-4.0958 1.02604,-1.95064 0.0165,-1.8022 2.97698,-5.0944 4.70218,-5.66643 -11.46627,2.74834 -0.8915,-0.3645 -2.71972,-3.6855 -14.11992,3.08884 -10.94897,-1.51866 -0.59309,-14.9225 -15.01644,-1.85332 -13.6624,4.49121 -4.59395,-17.58636 -5.68327,14.30031 -7.47809,-9.02951 -22.19744,-0.9882 -48.02604,-5.83589 -68.2702,0.38955 -7.93529,1.74383 6.24531,5.42284 -3.46436,5.47653 -5.50961,-0.5156 -7.08596,0.69324 -12.84562,0.007 -6.43701,5.38568 -13.68507,12.60319 -4.16504,21.17245 15.79582,5.10554 20.62352,5.44718 19.50475,21.70425 11.46525,-2.32546 14.28216,-17.18679 15.0648,0.92007 -14.00671,-3.22032 0.62407,10.20621 8.57944,4.71998 z m -7.24498,-19.02266 c -28.78104,-5.92167 35.52049,-7.83869 19.14224,-2.34397 -5.25204,4.62484 -12.85457,1.13214 -19.14224,2.34397 z m 28.64338,-6.07826 c -10.22153,-7.23616 7.03914,-7.5229 1.80346,-19.53908 9.68023,-14.2274 2.65017,17.55572 16.72646,11.1755 -5.77266,2.20875 -12.94833,2.66531 -18.52992,8.36358 z m -66.39962,22.93795 c -2.12107,-25.26175 7.52502,13.434 17.31667,-13.11863 -12.71267,-12.93872 -29.43455,-6.72156 -22.00354,12.88299 l 2.57978,0.71831 2.10713,-0.48268 z m 103.36148,-17.70811 c 17.54942,-2.85632 24.8799,-5.81128 10.67683,-15.89762 1.7401,-10.77666 -12.17013,6.02428 -12.94824,13.62497 l 0.002,2.7684 2.26896,-0.49572 z M 255.4273,233.36 c 9.50698,-15.65687 -3.02383,-36.05446 0.50438,-7.10747 -2e-4,0.33871 -4.47137,9.23442 -0.50438,7.10747 z M 86.761636,370.93549 c -9.130721,-16.17873 -22.927277,-30.40175 -32.020753,-45.51372 12.267234,6.18164 15.690024,22.41648 26.567292,31.12096 0.479195,2.79721 12.339363,16.46928 5.453461,14.39276 z m 128.293184,-62.4765 c -17.11066,-1.99494 -44.41292,-11.15109 -35.912,-33.11398 7.37578,-9.61522 -19.94853,-9.41973 5.87117,-9.0804 5.13658,0.004 13.94921,7.96653 6.94098,15.19825 -3.03094,-1.08509 1.00932,1.65494 -2.60352,3.57003 4.68665,5.1333 -2.02701,13.34769 11.27749,16.72901 6.50936,2.15071 6.47449,-31.66534 7.71638,-6.5264 -8.47194,10.6603 22.87888,10.66244 6.7095,13.22349 z M 38.499903,305.08727 c -9.358734,-10.90493 -16.5657,-23.25729 -17.552487,-37.00344 -6.2222,-13.82631 1.119673,-83.14681 0.698594,-35.58023 -4.472127,17.02438 5.034266,35.78544 7.153996,46.37642 1.682628,2.91962 7.061717,20.87166 9.699898,26.20727 z M 414.57452,288.6635 c -2.8393,-13.07398 -7.57512,-23.26543 5.94636,-20.83377 -5.22973,4.78238 0.13112,15.34075 -5.94636,20.83377 z m -6.33453,-28.7327 c -0.73834,-6.26357 7.32679,-0.34421 0,0 z m -2.35575,-15.26927 c -2.31958,-11.22747 -21.06569,-47.81748 -10.05817,-40.99032 4.07601,11.81865 18.56915,32.07084 10.05817,40.99032 z M 22.910578,198.44948 c -4.979115,-4.03856 -11.509897,-13.74848 -7.0738,-18.60427 6.973431,11.42127 6.46765,-11.84013 8.495743,10.07474 -0.173809,-2.29154 3.25531,11.23235 -1.421943,8.52953 z m 360.959752,-0.6058 c -15.07721,-14.51866 4.34826,-16.87218 0,0 z m -31.54474,-14.36017 c 2.32133,-6.46089 5.26758,-6.27837 12.15952,-7.6403 -0.25127,-1.10615 -0.92492,-4.69418 2.61183,-5.96037 0.89683,-3.49748 4.8661,-1.9457 7.13719,4.50772 -1.04357,6.79688 0.0606,-2.60319 -5.96609,0.54872 -1.8434,4.87751 -6.84779,2.49991 -10.19355,8.2875 -1.78492,0.68263 -3.95341,1.41452 -5.7489,0.25673 z m -46.15447,-7.33905 c -18.27396,-14.71028 24.76011,-23.06883 34.04228,-14.6858 1.71724,3.4684 -7.40637,-0.19932 -7.14132,4.19923 6.81337,-1.38234 5.03586,16.20609 -8.00709,7.1122 -5.59849,-4.0262 -12.98158,3.76621 -18.89387,3.37437 z M 15.192073,170.89283 C 9.0068142,160.40974 8.6078243,135.28599 8.7658411,121.17679 9.3341383,133.42411 28.98473,164.11975 15.192073,170.89283 Z m 345.246347,-6.16011 c -6.25523,-6.85834 9.69161,-0.52311 0,0 z M 259.07035,151.85877 c 2.12337,-19.62486 23.35631,-2.41749 0,0 z"
         sodipodi:nodetypes="cccsccccccccscccccccccccccccccccccccccccccccccccccccccccccccccccccccccccccccccscccccccccccccsscccccccccccccccccccccccccccccccccccccccccccccccccccccccccccccccccccsccccssccccscccccccccccccccscccssccccccccccccccccccccccccccccccccc" />
      <path
         id="path2609"
         style="display:inline;fill:#1d1f21;fill-opacity:1;stroke-width:0.32"
         d="m 241.98772,355.6816 c -5.26487,-18.15737 7.99449,-5.24949 0,0 z m -0.22703,-12.90896 c -3.6755,-14.8346 8.9451,-14.61348 4.0072,-2.81183 -5.89672,-1.26537 -1.05504,2.3732 -4.0072,2.81183 z m 8.50836,-11.7017 c -2.87819,-10.21201 7.42877,1.20528 0,0 z m 37.25464,-5.62707 c -3.18894,-13.46554 16.71289,0.90418 0,0 z m -18.2308,-4.03401 c -3.06756,-11.75679 24.4225,-10.26755 3.4767,-0.39485 -2.11862,2.09087 -17.7223,3.48123 -3.4767,0.3948 z m 72.00972,-4.03469 c 2.81417,-14.07056 -10.91434,-1.39767 -17.58596,-4.90738 -15.55198,6.29737 -36.77785,1.41147 -9.36967,-2.11095 11.20923,0.77435 44.60228,-15.90966 31.84655,2.92806 1.2047,1.01422 -2.81035,5.86551 -4.89092,4.09027 z m -96.69396,-0.44127 c 1.8026,-12.9181 -3.70571,-27.32242 3.74121,-37.46447 -1.13988,-17.40642 2.17476,-34.51134 1.25023,-51.58317 6.52536,-1.35412 5.94318,3.13334 9.00602,8.48911 1.15774,6.01211 -0.64735,13.00273 -3.72779,7.26105 -3.34528,8.22484 0.47822,24.77299 -2.95454,34.90771 -3.1906,12.52405 3.9192,28.33489 -5.84387,38.68346 l -1.4711,-0.2937 z m -11.12632,-7.24849 c -2.97545,-7.55861 5.01231,0.74556 0,0 z m 131.21993,-3.15443 c 6.05679,-11.90972 22.17227,-21.01351 11.11552,-35.78948 3.47433,-29.31815 23.9613,-7.77727 16.0339,11.92284 -9.10836,1.11659 -11.86788,35.95226 -13.10469,12.05566 -6.12871,3.62876 -7.35371,10.86397 -14.04473,11.81098 z m -170.82682,-5.06721 c -0.2959,-7.66025 7.04581,1.61198 0,0 z m 167.55732,-1.42989 c 0.85135,-9.62225 10.58272,1.01936 0,0 z M 256.15998,289.94272 c -4.09613,-2.55897 29.26102,-0.73512 19.15787,3.34237 -3.68253,0.73872 -21.57802,-1.24442 -19.15787,-3.34237 z m 37.43679,3.17206 c -1.85473,-0.12587 -7.16138,-3.29128 -8.31678,-3.19478 0.92475,-3.32831 1.69932,-0.49219 5.53957,0.15975 8.06119,-1.48686 25.63132,4.08129 2.77721,3.03503 z m -113.88921,-1.00475 c -8.08748,-5.89419 6.90632,-36.80751 9.08231,-21.69914 17.21448,-0.89324 -7.90072,22.82792 -9.08231,21.69914 z m 174.93243,-12.1049 c -1.23052,-9.95843 23.1608,-5.12982 0,0 z m 0.0626,-13.03504 c -2.58129,-3.85907 -1.32209,-4.29813 -3.66206,-6.84781 -0.71542,-3.80614 -15.36833,-2.154 -11.21536,-6.20713 4.32249,3.55474 7.32293,-5.60136 13.67646,-4.01758 -3.46528,3.61458 3.69325,12.03185 1.20139,17.07255 z m 13.36864,0.0518 c -11.17804,-20.55269 15.56809,-10.84959 0,0 z m -151.95787,-1.97792 c -4.04143,-11.94397 47.5683,-7.05303 10.62427,-0.91189 -3.58964,0.0116 -7.01781,1.71359 -10.62427,0.91189 z m 26.29683,-1.34751 c -0.22289,-12.37021 11.14294,-0.99334 0,0 z m 21.9667,-3.17452 c -6.41178,-11.61269 2.51816,-7.41551 7.48473,-18.85183 -6.32037,20.80284 31.55843,1.25028 29.57841,3.53337 6.5616,10.50719 30.73742,10.21564 2.72463,9.78571 -14.92026,0.4686 -26.32831,0.25245 -39.78777,5.53275 z m -1.2785,-29.24 c 0.38569,-4.37422 1.87842,-32.98324 8.88119,-22.32569 -6.28374,5.99371 2.26337,28.9817 -8.88119,22.32569 z m -11.75132,-15.36032 c -4.47697,-16.96043 13.83401,-6.37273 0,0 z m 3.37296,-17.53226 c -13.98128,-2.86153 6.06,-21.38826 5.58354,-10.22934 0.55939,6.1533 -5.50772,2.67158 -5.58354,10.22934 z m -13.19978,-27.72993 c 4.2961,-16.71809 26.82475,-3.87007 0,0 z m 90.15175,-3.31248 c -0.21226,-2.93056 -11.08,-6.28127 -7.65214,-8.33886 3.4532,2.66443 10.76903,-2.02597 8.78519,-0.9892 3.42783,-0.69981 5.14303,2.05232 7.05065,3.60435 -8.82879,0.54353 -4.47379,-1.60395 -8.1837,5.72371 z"
         sodipodi:nodetypes="cccccccccscsscccccccccccccccccccccccccccccccccccccccccccccccccccccccccccccccccccccc" />
    </g>
  </g>
</svg>
