<?xml version="1.0" encoding="UTF-8" standalone="no"?>
<svg
   xmlns:dc="http://purl.org/dc/elements/1.1/"
   xmlns:cc="http://creativecommons.org/ns#"
   xmlns:rdf="http://www.w3.org/1999/02/22-rdf-syntax-ns#"
   xmlns:svg="http://www.w3.org/2000/svg"
   xmlns="http://www.w3.org/2000/svg"
   xmlns:sodipodi="http://sodipodi.sourceforge.net/DTD/sodipodi-0.dtd"
   xmlns:inkscape="http://www.inkscape.org/namespaces/inkscape"
   version="1.1"
   id="svg885"
   width="610.82642mm"
   height="836.92291mm"
   viewBox="0 0 2308.6352 3163.1732"
   sodipodi:docname="princess-elect-in-painting.svg"
   inkscape:version="1.0.2 (e86c870879, 2021-01-15)">
  <metadata
     id="metadata891">
    <rdf:RDF>
      <cc:Work
         rdf:about="">
        <dc:format>image/svg+xml</dc:format>
        <dc:type
           rdf:resource="http://purl.org/dc/dcmitype/StillImage" />
        <dc:title></dc:title>
      </cc:Work>
    </rdf:RDF>
  </metadata>
  <defs
     id="defs889" />
  <sodipodi:namedview
     pagecolor="#373b41"
     bordercolor="#666666"
     borderopacity="1"
     objecttolerance="10"
     gridtolerance="10"
     guidetolerance="10"
     inkscape:pageopacity="0"
     inkscape:pageshadow="2"
     inkscape:window-width="1278"
     inkscape:window-height="1415"
     id="namedview887"
     showgrid="false"
     inkscape:zoom="0.25000001"
     inkscape:cx="1264.7898"
     inkscape:cy="2074.1167"
     inkscape:window-x="1280"
     inkscape:window-y="0"
     inkscape:window-maximized="0"
     inkscape:current-layer="g897"
     inkscape:document-rotation="0"
     fit-margin-top="0"
     fit-margin-left="0"
     fit-margin-right="0"
     fit-margin-bottom="0"
     units="mm" />
  <g
     inkscape:groupmode="layer"
     inkscape:label="Image"
     id="g893"
     transform="translate(-123.43584,-30.280778)">
    <g
       id="g897"
       transform="translate(-2.9879297,-1066.5457)">
      <path
         id="path835"
         style="fill:#e0e0e0;fill-opacity:1;stroke:none;stroke-width:1px;stroke-linecap:butt;stroke-linejoin:miter;stroke-opacity:1"
         d="m 126.42377,1622.7246 v 2634.4535 c 713.96098,0.9406 1427.92193,1.8811 2141.88293,2.8217 -33.7017,-376.2137 -191.3969,-728.4552 -381.9472,-1049.9972 51.3428,-145.3869 254.6411,-226.9086 212.3112,-403.5886 34.2207,-73.6716 -46.5464,-115.1813 -102.9445,-179.4171 -74.6084,101.714 -191.8772,212.7558 -212.1973,350.8316 -79.7357,166.7081 -161.9728,-81.6972 -225.171,-142.762 -126.5244,-106.8215 17.7598,-249.4554 67.8826,-362.3183 98.2315,-71.7939 -0.6811,-300.7384 -96.2144,-233.5741 -67.4108,50.962 -57.1176,184.8858 -128.2067,56.6503 -124.5222,-51.3265 54.0128,-260.3436 -115.5559,-260.0176 -43.3213,37.7516 -63.7571,148.5195 -122.8776,47.8406 -10.4206,-90.7148 10.7332,-193.9684 -108.2205,-229.7666 C 912.701,1748.5433 746.51159,1680.4361 570.09798,1661.6263 422.95716,1640.8178 273.9141,1640.092 126.42377,1622.7246 Z"
         sodipodi:nodetypes="cccccccccccccccc" />
      <path
         id="path833"
         style="fill:#e0e0e0;fill-opacity:1;stroke:none;stroke-width:1px;stroke-linecap:butt;stroke-linejoin:miter;stroke-opacity:1"
         d="m 127.6645,1558.6679 c 298.40679,-51.5567 608.71306,4.1827 879.0632,137.5316 141.2319,45.6561 273.5813,105.6629 390.0807,199.2329 270.7856,187.5811 529.4165,391.7989 792.9293,589.2739 156.0455,193.2156 218.6693,495.6981 243.2362,731.9405 10.8883,70.051 -22.2558,734.3779 -67.028,976.8416 -8.7651,-163.4658 -79.746,-888.5995 -101.2857,-891.5856 -43.3689,-188.732 -92.9504,-376.2517 -155.5688,-559.5853 C 1826.2995,2423.3483 1498.2693,2144.919 1144.4647,1908.2117 955.99357,1805.8054 769.69959,1679.8127 549.57829,1662.6915 408.9892,1644.558 266.60005,1644.5592 126.42377,1622.7246 c 0.41358,-21.3522 0.82715,-42.7045 1.24073,-64.0567 z"
         sodipodi:nodetypes="cccccccccccc" />
      <path
         id="path843"
         style="fill:#c5c8c6;fill-opacity:1;stroke:none;stroke-width:1px;stroke-linecap:butt;stroke-linejoin:miter;stroke-opacity:1"
         d="m 915.93825,1575.9302 c -84.62908,-47.2276 -148.18479,-212.8366 -250.1361,-166.5379 -98.75779,30.5795 5.25143,-156.8788 66.20977,-166.2749 74.31469,-25.2945 163.12369,-162.9574 29.04755,-143.4735 -152.59104,28.3565 -297.68231,38.6905 -368.85147,196.9368 -87.44143,77.2074 -72.87441,194.4951 -90.51634,299.1185 -9.79284,94.5898 182.85036,29.0418 257.84615,70.9572 124.40601,20.4589 269.42318,14.5644 356.40044,-90.7262 z" />
      <path
         id="path837"
         style="fill:#282a2e;fill-opacity:1;stroke:none;stroke-width:1px;stroke-linecap:butt;stroke-linejoin:miter;stroke-opacity:1"
         d="m 347.01927,1442.8918 c -98.67421,145.6069 -227.16167,-193.1058 -28.27933,-162.4885 71.2396,-22.7157 161.44782,-137.4037 225.85513,-90.7709 -42.33825,114.6311 -310.50547,120.0967 -197.5758,253.2594 z" />
      <path
         id="path839"
         style="fill:#282a2e;fill-opacity:1;stroke:none;stroke-width:1px;stroke-linecap:butt;stroke-linejoin:miter;stroke-opacity:1"
         d="m 896.11185,1590.0803 c 90.79149,57.8904 305.66095,144.4917 279.55535,242.5954 -117.5289,11.1418 -198.03448,-101.0394 -297.37258,-157.7121 -54.12428,-3.9982 -32.05746,-124.9951 17.81723,-84.8833 z" />
      <path
         id="path841"
         style="fill:#282a2e;fill-opacity:1;stroke:none;stroke-width:1px;stroke-linecap:butt;stroke-linejoin:miter;stroke-opacity:1"
         d="m 647.75742,1311.553 c 18.20266,102.9096 -191.8805,162.5481 -123.28039,37.813 32.52524,-30.0848 79.64464,-43.4218 123.28039,-37.813 z" />
      <path
         id="path907"
         style="display:inline;fill:#969896;fill-opacity:1;stroke-width:1.33333"
         d="m 829.72932,1874.6043 c 99.56402,196.0658 241.60528,367.3792 335.78878,566.4318 -47.7347,129.0674 -218.70342,126.4883 -334.39616,139.2144 -88.04362,4.9789 -292.27109,-12.6857 -227.03087,-140.4992 -1.37247,52.3945 125.2498,175.4432 129.88147,66.8669 16.6574,107.5228 111.78594,44.7914 82.0096,35.1375 23.41895,91.711 38.09346,-64.8564 50.82711,29.7724 24.88944,-110.9991 -12.93021,-65.2598 -46.31027,-15.725 -19.15634,-128.6612 50.23295,-213.0367 -22.56647,-345.2568 -27.21487,-104.6696 -51.71604,-218.4502 -138.44545,-253.4685 48.49028,-93.4302 -129.09296,101.7037 -63.1101,81.2159 -39.10456,13.0117 87.22357,-14.4054 10.76534,34.7498 7.00275,100.0283 -21.58285,186.9398 -37.54368,268.6728 28.8324,43.0341 33.77512,180.6465 -16.50215,96.938 -87.04728,31.5366 -104.46386,-20.1122 -127.13211,-72.0248 -170.32796,72.2949 26.01574,-112.5148 0.59165,-176.9753 -65.86836,37.827 -62.3758,197.1804 -150.74831,113.1879 -15.51681,-153.104 102.80665,-271.9243 164.17773,-399.2619 15.81413,-67.7431 60.84861,-279.1576 -31.99092,-267.9768 -73.54805,43.1782 -152.11489,140.1376 -122.91491,-9.0938 7.16299,-52.3985 3.17228,-76.4626 2.8964,-84.237 28.7533,-58.7525 -138.17887,-192.0156 -34.01258,-91.8426 88.3505,66.1382 97.4123,-20.5136 30.34535,-67.4458 14.81824,-97.7037 294.33207,-117.6188 214.9908,-206.2778 -61.62038,25.949 -209.50038,141.8815 -231.04412,123.4597 105.11211,-64.0639 222.77283,-175.8303 322.0785,-179.5114 46.44344,90.8366 228.32738,-111.3074 265.12233,24.9763 -69.24657,72.4683 -277.95415,160.6035 -212.07512,258.8806 86.12014,-58.9534 92.65953,184.9262 92.5791,74.5166 67.29414,85.0378 9.47567,-133.1698 -63.77899,-92.5152 108.92315,-47.3102 165.22003,101.0516 223.59554,167.4792 64.51072,133.2859 307.56909,127.1291 308.76699,291.6339 -60.671,-12.3978 -182.6925,-112.278 -205.88203,-112.7302 51.67603,52.4817 -210.40284,-74.95 -166.82553,-66.0559 -100.70539,-54.4148 -170.08771,50.6895 -75.50732,121.2719 22.7975,30.2162 48.57335,57.9763 73.4004,86.4924 z m 116.04122,681.645 c 65.70126,-0.576 163.70606,-86.8709 150.86326,-64.8696 48.4072,33.8132 1.9927,-26.2784 52.4564,-19.5578 -56.4604,-49.409 -45.3201,-177.6036 -101.3627,-237.4522 -4.1939,-73.4822 -113.87839,-55.5265 -59.37095,-100.4609 14.75165,-94.6395 -73.67999,6.7528 -37.92386,-65.0409 -72.45261,-42.7496 -42.79669,-142.8769 -138.25714,-116.4422 85.65783,-61.0214 -112.3553,-87.5548 -25.85579,2.1413 -22.71158,60.3719 76.43559,24.9681 53.13593,90.0212 -38.3521,-69.4758 -88.46675,54.5812 -15.94239,10.924 -34.03094,142.0162 66.06185,281.8657 84.14712,421.0181 -25.87377,20.9173 80.4515,81.1745 1.04339,39.1118 -7.90233,21.9652 11.00395,54.4502 37.06673,40.6072 z m 69.17456,-38.3791 c -22.58332,-38.8648 37.1782,-9.987 0,0 z m 48.812,-5.724 c -31.6689,-23.1851 37.3698,-12.2539 0,0 z m -101.95418,-3.7865 c -3.88451,-45.1625 33.00982,18.9266 0,0 z m 72.99348,-10.477 c -25.0357,-47.3417 49.871,5.5627 0,0 z m -102.63363,-7.2784 c -17.80642,-45.2875 40.75367,7.5029 0,0 z m 48.02257,-1.8434 c -5.10261,-47.1169 39.99586,14.1697 0,0 z m 80.31966,-4.7687 c -30.5401,-53.6682 67.2745,-33.6777 0,0 z m -59.1511,-21.2141 c 0.964,-39.762 28.7126,24.3881 0,0 z m -49.02934,-6.7386 c -31.7353,-44.342 36.00688,-7.4766 0,0 z m -28.72126,-4.1656 c -21.45956,-34.5511 31.35978,5.8703 0,0 z m 106.1538,-5.0745 c -34.21491,-18.1619 34.5857,-14.4108 0,0 z m 51.7999,0.462 c -9.5249,-52.8558 58.94,-3.0173 0,0 z m -28.6332,-9.6571 c -9.6192,-26.7128 30.0098,10.7863 0,0 z m -80.89366,-2.3557 c -21.49966,-42.9047 47.71556,-0.6809 0,0 z m 49.06026,-16.4357 c -28.95445,-13.7722 27.6022,-13.2784 0,0 z m 19.608,-1.5419 c -19.4123,-52.4896 57.025,9.1018 0,0 z m -128.91748,-2.088 c -26.78806,-41.394 49.90365,-12.8794 0,0 z m 80.96794,-2.2129 c -29.48334,-38.483 34.94364,-6.1962 0,0 z m 77.30454,0.619 c -12.508,-32.1584 28.9453,7.3898 0,0 z m 30.3006,-0.5716 c -47.6937,-25.7775 30.939,-14.1411 0,0 z m 17.5458,-1.5222 c -3.6435,-25.4903 24.5558,9.0509 0,0 z m -177.1427,-0.6644 c -49.86885,-122.9665 20.88556,-65.1465 0,0 z m 131.3517,-16.0748 c -44.9502,1.0044 14.3549,-33.0362 0,0 z m -62.9138,-1.656 c -27.89995,-40.7052 47.5102,1.7249 0,0 z m 27.2153,-3.5175 c -20.3418,-21.3061 24.2134,-7.9358 0,0 z m -78.9841,-8.3116 c -17.71151,-42.5406 40.00634,13.4135 0,0 z m -56.3741,-8.3795 c -11.97142,-37.9301 39.25611,-1.9547 0,0 z m 124.0723,-4.5866 c -18.1855,-41.7623 37.7943,3.3372 0,0 z m -44.70063,-0.345 c -28.3199,-26.7596 30.80153,-8.542 0,0 z m 98.64173,-2.396 c -37.2071,-28.3415 39.2233,-7.332 0,0 z m 25.6916,0.4187 c -21.5254,-21.4407 29.1936,-2.8104 0,0 z M 952.284,2354.2525 c -52.2374,-52.4287 25.31469,-55.3697 0,0 z m 38.2147,-11.1748 c -2.61384,-40.559 24.1037,14.0609 0,0 z m 52.5783,-2.8284 c -28.0988,-26.1211 37.7554,-9.7378 0,0 z m -21.3617,-7.3116 c -32.00182,-28.5475 19.9295,-49.5709 0,0 z m 45.0052,-2.1628 c -9.0246,-25.0486 20.6355,11.9485 0,0 z m -187.3908,-5.5039 c -10.87342,-30.9767 36.06506,-0.3369 0,0 z m 78.81986,-9.6584 c -63.10954,-108.0436 28.35561,-67.8798 0,0 z m 101.60754,0.6761 c -35.3567,-19.9423 30.2243,-13.9282 0,0 z m -201.90768,-4.7177 c -25.16342,-31.9646 31.75993,2.1608 0,0 z m 49.01871,0.154 c -22.78449,-22.4879 22.01669,-8.8873 0,0 z m 79.50751,-3.9203 c -1.96878,-30.6845 21.48776,16.7672 0,0 z m -57.44368,-3.5426 c -31.53947,-29.4289 40.94252,-16.3079 0,0 z m -34.22612,-9.1323 c -20.52246,-45.2516 37.20648,-2.3141 0,0 z m 85.76176,-1.1064 c -41.2383,-39.0306 42.5992,-10.8107 0,0 z m 42.8145,-0.2073 c -10.3682,-32.2878 34.4993,7.3429 0,0 z m -145.70656,-0.8708 c -45.61222,-13.1628 9.82003,-33.8311 0,0 z m 38.80034,-23.3939 c -45.23435,-48.8784 41.32248,-24.0066 0,0 z m -29.09704,-4.3377 c -41.15714,-20.4488 23.61649,-23.9353 0,0 z m 112.47826,0.053 c -47.04891,-33.0855 43.1624,-8.7958 0,0 z m -146.00938,-18.872 c -25.84865,-25.9915 26.8441,-10.7032 0,0 z m 104.55805,-1.0109 c -21.58707,-45.2786 47.18513,4.3735 0,0 z m 74.83153,0.3081 c -7.8159,-28.1421 28.37,12.7494 0,0 z m -22.81,-2.8271 c -13.72863,-53.5237 61.1714,-12.8135 0,0 z M 870.42377,2230.305 c -11.71679,-76.7513 49.78104,13.7337 0,0 z m 46.18449,-0.035 c -10.52464,-43.2469 39.82431,2.8182 0,0 z m 60.48218,-10.8383 c -44.76499,-14.0416 30.59986,-18.6934 0,0 z m 17.37256,-7.088 c -7.01918,-29.7102 29.671,11.1616 0,0 z m -157.42292,-8.8006 c -27.90488,-20.8539 31.52288,-8.7452 0,0 z m 95.65844,-3.3131 c -11.30878,-40.815 42.76572,16.6813 0,0 z m -79.03867,-8.9613 c -17.11718,-22.9775 28.63184,-3.9043 0,0 z m 44.82765,-10.2638 c -19.07558,-47.8518 40.9536,12.3672 0,0 z m -67.8627,-4.9081 c -0.52994,-43.3527 36.66394,7.1109 0,0 z m 31.94836,-2.6027 c -20.44531,-36.4538 27.09845,-23.2203 0,0 z m 87.1789,-1.0334 c -25.27228,-25.5351 34.4211,-5.9411 0,0 z m -130.22821,-8.0348 c -19.37129,-30.9409 23.09706,-6.9472 0,0 z m 92.25107,-13.8855 c -14.53533,-34.9135 33.63958,13.2638 0,0 z m 47.56818,-3.6644 c -68.04566,-23.1729 23.37918,-36.5204 0,0 z m -126.77984,-2.0563 c -29.71872,-58.2131 46.32566,-28.2025 0,0 z m 43.36358,-7.344 c -14.79624,-35.4981 36.27483,10.6847 0,0 z m 6.83026,-27.3178 c 5.07285,-85.2168 63.35252,-45.3321 0,0 z m -64.16372,-7.116 c -15.40069,-33.517 36.98285,-1.501 0,0 z m 36.75164,0.2658 c -62.71043,-35.9065 2.27298,-51.7762 0,0 z m 0.9528,-29.0357 c -19.10783,-60.9566 71.50859,-0.4212 0,0 z m 79.89643,-13.2176 c -16.15957,-17.5644 20.99606,-2.7663 0,0 z M 793.9416,2047.6043 c 5.67929,-47.1081 38.59333,7.9693 0,0 z m 123.14884,0.4834 c -35.7369,-31.7394 46.20392,-17.6094 0,0 z m -28.90282,-4.9286 c -19.01626,-17.9273 25.80551,-4.4281 0,0 z m -15.98012,-16.8878 c -24.12311,-44.1562 45.4327,8.6025 0,0 z m -58.93144,-31.381 c -19.37365,-40.9106 40.40615,4.1196 0,0 z m 29.85932,-2.5697 c -8.48597,-41.8544 41.50269,12.586 0,0 z m 7.95506,-21.3829 c -21.00159,-40.7138 42.70704,2.3327 0,0 z m -72.958,-35.1258 c -23.96141,-53.1634 39.86032,-14.3732 0,0 z m 28.62466,-20.1145 c -9.02097,-33.8729 35.75659,6.3559 0,0 z m 329.309,577.8564 c 5.4562,-28.8345 -24.5083,8.7961 0,0 z m -257.80484,-29.1541 c -1.34195,-66.8834 -62.79032,-207.3409 -21.37109,-58.6382 5.66383,19.7861 5.19028,43.3122 21.37109,58.6382 z M 485.4114,2321.9006 c 34.94517,-45.7619 -23.33754,-15.8929 0,0 z m 42.81938,-11.5463 c 10.24591,-34.3778 -29.09074,-0.8798 0,0 z m -61.27866,-14.8702 c 32.32745,-46.2905 36.79288,-175.2084 -14.01515,-54.3975 -7.8527,18.9216 -0.89889,41.0354 14.01515,54.3975 z m 4.64709,-18.8798 c -12.47205,-33.53 22.53699,-10.7274 0,0 z m 368.15789,14.9531 c -4.15051,-72.305 -51.04997,-130.6874 -11.87254,-27.0948 4.90823,2.5283 1.0751,33.6902 11.87254,27.0948 z m -523.75658,-0.2812 c 17.74384,-67.0403 134.84568,-176.2147 19.35664,-71.2861 -15.99885,19.2071 -29.23324,46.0103 -19.35664,71.2861 z M 519.7571,2278.271 c 23.86379,-23.4309 -27.48256,-6.6952 0,0 z m -216.44444,-8 c 16.74592,-34.9021 -23.62288,0.1732 0,0 z m 771.42404,-12 c 3.5385,-29.0561 -35.4832,23.5935 0,0 z m -771.05346,-24.9243 c -0.7598,-39.2553 -22.64013,24.869 0,0 z m 219.29049,-12.5488 c 25.503,-23.9954 -25.28067,-5.2637 0,0 z M 318.04292,2207.077 c 0.10385,-24.079 -22.01328,17.7642 0,0 z m 777.95458,-422.8315 c 27.5028,-19.4135 59.9808,77.3415 45.1766,4.054 28.2632,77.4269 14.3865,-44.8306 47.602,23.9137 -50.0431,-126.2782 -219.90293,-115.6693 -287.22285,-218.9836 -127.40172,61.479 76.95839,123.0759 137.18635,147.7731 51.2613,1.2343 60.5408,106.2287 57.2579,43.2428 z m -572.63006,408.0618 c 18.33476,-56.181 33.07177,-2.8427 0,0 z m -184.61656,2.7414 c -8.76076,-37.325 -27.17803,7.343 0,0 z m 133.26822,-9.1212 c 48.24059,-48.3499 41.78872,-139.175 -7.9495,-44.8843 -4.82941,10.5858 -10.83271,40.0757 7.9495,44.8843 z m -60.81961,-1.6565 c 40.90757,-42.6748 -35.19798,-5.061 0,0 z m 145.03869,-20.6667 c 18.8043,-40.9578 -37.99971,24.7095 0,0 z m -211.14774,3.3184 c 81.11644,-68.0189 -38.70015,-99.5426 11.03397,-17.476 l -1.49746,10.3449 z m 98.54644,-13.9108 c 40.58658,-80.7272 -46.2711,-18.0836 0,0 z m -21.30407,-5.8028 c 16.23743,-41.6389 -27.67264,15.9074 0,0 z m 109.66591,-4.6048 c 20.36411,-30.6711 -25.93559,-0.1657 0,0 z m -210.90828,-7 c 23.24934,-17.0948 -13.84952,-41.5519 0,0 z m 72.15025,-11.6141 c 22.55094,-42.7585 -35.3587,11.6053 0,0 z m 155.16592,-8.8055 c 68.88588,1.9921 16.9069,-97.7325 21.91951,-15.407 -15.38856,8.9732 -58.74999,-29.3027 -21.91951,15.407 z m -112.82675,-8.8574 c 8.06258,-24.6922 -27.40809,9.6858 0,0 z m -15.35892,-10.4031 c 13.56632,-46.9347 -33.06633,20.4733 0,0 z m 78.99792,-0.6059 c 68.45684,-72.6068 -87.90942,-119.6737 -5.22948,-44.8969 16.04703,8.3691 18.57631,32.5124 5.22948,44.8969 z m 288.57279,0.8882 c -0.21785,-41.5087 -38.67776,-37.2498 0,0 z m -318.17669,-4.7126 c 8.9063,-52.6198 -46.81231,-11.1961 0,0 z m -66.94574,-5.5562 c -1.54412,-41.0168 86.38013,-44.5288 -3.27411,-61.7393 -24.97929,8.9993 -33.96088,64.8487 3.27411,61.7393 z m -46.77334,-3.7923 c 62.27017,-22.4857 -36.93615,-15.5575 0,0 z m 197.79846,-32.6427 c 26.21575,-11.2895 -10.00426,-16.8147 0,0 z m 220.71511,-16.5274 c 77.07958,-18.2855 -35.87465,-18.6898 0,0 z m -345.38943,-20.5727 c 20.21518,-42.3921 -34.70944,-8.3467 0,0 z m 28.10808,-2.1083 c 16.16407,-80.1255 -54.4221,-13.4915 0,0 z m 76.11407,-4.7712 c 106.20209,-95.768 -98.13653,-69.7259 0,0 z m -6.16517,-21.2738 c -38.39404,-52.6609 65.13615,-17.9221 0,0 z m 227.41044,14.7281 c 25.69589,-49.0965 -45.55725,-9.8564 0,0 z m -274.61418,0.9179 c 25.43412,-52.1198 -45.92115,-30.3492 0,0 z m 120.02248,0.4777 c 30.2796,-19.6594 -35.58081,1.0564 0,0 z m -18.8053,-10.9319 c 29.93586,-6.4313 -13.00716,-16.9424 0,0 z m 194.73288,-12.5377 c 23.28554,-28.9695 -30.62746,6.0168 0,0 z m 159.9372,-3.9699 c 2.20265,-27.8129 -37.51599,-3.0428 0,0 z m -234.67008,-19.4644 c -24.03888,-26.8361 -33.43213,26.6143 0,0 z m -209.5647,0.7175 c 52.43973,-14.0843 -20.64301,-26.0352 0,0 z m 249.54428,-1.4289 c 57.67296,-10.253 1.10807,-33.9361 0,0 z M 631.272,1944.9453 c -9.79154,-10.9576 -7.18392,-8.0394 0,0 z m -34.23911,-8.8534 c 38.94,-38.576 -30.45059,3.2139 0,0 z m 130.72421,-2.2512 c 78.85077,-16.2589 -27.05135,-24.1204 0,0 z m -70.12462,-7.8548 c 23.45281,-31.5532 -32.30109,8.857 0,0 z m 2.73582,-17.8046 c 27.91521,-44.0881 27.15554,-84.4565 -14.58729,-79.8181 30.57855,-79.7326 -48.22699,-253.8631 -102.99736,-117.0663 0.32546,66.637 40.95064,184.1278 82.88189,165.3876 1.31635,23.0332 15.62406,30.5265 34.70276,31.4968 z m -51.25458,-97.8823 c -32.28106,-40.8804 28.85217,-14.4932 0,0 z m -24.04211,-50.7173 c -56.77039,-60.5328 112.95832,57.0303 0,0 z m 15.68549,-11.0344 c -11.56432,-26.7982 45.17848,-25.4176 0,0 z m -22,-21.1594 c -12.02571,-23.1535 30.32342,-1.0894 0,0 z m 18.03798,-33.123 c -17.89778,-59.9707 59.05011,6.2404 0,0 z m -57.83799,207.6728 c 6.05486,-30.6659 -23.68978,8.9861 0,0 z m 222.13335,-4.3334 c 42.86603,-24.0662 -31.10231,-25.2266 0,0 z m -270.16152,-1.9401 c 49.56571,-59.23 1.18632,-173.8118 -12.94272,-127.7467 10.07275,-226.9162 -57.41653,102.0922 12.94272,127.7467 z m 236.60596,-7.5047 c 85.55538,-37.4947 -24.86797,-29.6994 0,0 z m -178.16632,-12.6574 c 18.67343,-55.5892 -24.31111,-177.0473 -2.8946,-52.1156 -4.58234,8.8985 -22.90918,62.6234 2.8946,52.1156 z m 14.23169,-5.8978 c 17.98719,-38.9277 -29.95184,-50.799 0,0 z m 153.50121,-13.354 c 60.38311,-59.0486 -87.89602,-145.1661 -15.16976,-21.115 l 4.68234,12.5684 z m 414.79204,-27.5924 c -20.2643,-35.7081 -6.075,26.5802 0,0 z m -400.80889,-16.3964 c 14.77138,-36.7066 -29.32516,1.3229 0,0 z m 338.49309,-12.255 c -0.3191,-93.9646 -164.64977,-44.6485 -33.9578,-9.4648 11.0728,4.0139 22.5883,6.4771 33.9578,9.4648 z m -569.73294,-41.1158 c 30.80852,-32.0579 -27.21033,-24.9814 0,0 z m 196.05165,-24.3338 c 58.19943,-103.9024 -48.54962,-134.2572 0,0 z m 104.62388,-80.0154 c 105.38149,-7.3127 -9.91688,-252.435 -34.33686,-89.8718 -17.43456,33.9645 3.52032,73.0638 34.33686,89.8718 z m -272.16376,43.9982 c -21.32202,-50.1921 -54.0275,-14.7085 0,0 z M 321.05,1654.9593 c 35.80873,-56.4841 112.56873,-292.1302 5.20868,-151.7626 -17.19578,34.7271 76.6222,-23.8025 -4.47982,23.7816 -63.47154,62.9609 32.58489,39.8469 -22.20287,96.9923 l 4.67535,13.3103 z m 268.16284,-2.9896 c 42.5501,-2.1257 -13.28567,12.7588 -10.24722,-5.9426 z m -22.67198,-14.9806 c 55.0338,-68.4544 -48.66049,-114.1895 -6.90869,-5.271 l 1.77906,10.1387 z m 35.21624,-7.3848 c 20.13385,-22.3985 -26.32106,-11.4698 0,0 z m 16.83334,-1.3333 c 26.08925,-41.9184 -27.0178,-15.3 0,0 z m 39.94238,0 c 0.91597,-34.9074 -35.49019,-0.3286 0,0 z m -52.95102,-24.3975 c 16.71222,-73.1386 -65.18546,-36.1914 0,0 z m 97.35864,-7.8525 c 5.45512,-41.5649 -25.36565,15.4118 0,0 z m -309.61792,-11.4989 c 19.96652,-46.337 -37.27059,-13.9595 0,0 z m 331.87749,-10.4559 c 10.82418,-42.1906 -29.27612,-9.4068 0,0 z m -31.63035,-2.0287 c 43.25619,-15.6668 -37.51432,-20.076 0,0 z m -256.98569,-12.5968 c 14.74935,-14.4854 12.69837,-95.3431 -12.79114,-29.9844 15.86776,-139.6187 -85.9244,48.2662 12.79114,29.9844 z m 328.2526,-6.8396 c 21.46138,-34.4917 -42.29504,3.5585 0,0 z m -463.71313,-6.4169 c 1.99113,-23.2937 -19.70124,14.5919 0,0 z m 409.04518,-5.6919 c 23.78237,-28.3073 -27.52844,-1.293 0,0 z m -16.66741,-2.1558 c 28.25385,-34.3344 -29.78511,-12.8046 0,0 z m -25.74411,-3.6139 c 31.3928,-40.2767 -18.59356,-25.2775 0,0 z m -82.35374,-8.4516 c -8.5048,-37.6996 -24.17375,-21.1166 0,0 z m -69.64626,-39.1793 c -7.77674,-49.3448 -9.86086,25.7114 0,0 z m 160.04631,-0.2406 c 5.48272,-33.5185 -36.37489,13.2526 0,0 z M 423.7571,1469.3702 c 25.99033,-49.3621 -31.77272,-24.4661 0,0 z m 56.63559,0.1363 c 26.74851,-37.2329 -23.25232,-8.4738 0,0 z m 63.97729,-26.3378 c 9.80803,-37.7265 -25.85195,2.6456 0,0 z m 217.84806,-0.8297 c 0.0153,-56.6761 -52.44226,-30.4234 0,0 z m -297.1276,-0.8133 c 67.73767,-83.9143 -88.94785,-12.706 0,0 z m 113.91701,-19.3622 c 49.52321,-62.189 -164.03597,-45.2259 -26.20065,-7.3284 8.73355,2.4428 17.4671,4.8856 26.20065,7.3284 z m 121.59788,0.1147 c -1.17228,-17.3801 -33.73844,-2.9685 0,0 z m -322.20463,-3.3205 c 0.79972,-36.9085 -68.96114,24.7459 0,0 z m 35.97587,-4.67 c 50.71485,-30.5635 -201.5694,-40.59 -32.23699,-10.763 12.94447,-2.0989 22.25189,5.2084 32.23699,10.763 z m -44.79133,-27.2074 c 173.06601,-50.2254 346.24724,-126.9341 469.18821,-262.9496 -154.1261,-44.4276 -229.85192,161.0812 -380.26297,153.0654 -26.62656,9.0381 -182.43343,93.8975 -88.92524,109.8842 z m 225.25338,-2.7596 c 21.05595,-25.966 -29.26979,-38.6624 29.59251,-62.8594 -63.28451,-1.8652 -151.34327,60.7985 -29.59251,62.8594 z m -89.52037,-135.2856 c 75.8192,15.8213 176.10145,-138.2239 61.0696,-74.1642 -8.9605,31.401 -62.63234,42.297 -61.0696,74.1642 z m 0.43885,-78.0974 c 60.44461,-24.2181 -30.34753,-2.5455 0,0 z m 99.33334,1924.9214 c 5.19249,-24.4522 31.24181,18.5601 0,0 z m -351.42903,-20.2314 c -5.3434,-67.9557 30.51067,-170.0742 7.54468,-47.2625 -4.70689,11.7233 11.7459,43.0333 -7.54468,47.2625 z m 377.92553,-19.69 c -21.5181,-33.5255 23.50002,-59.9069 0,0 z m 0.87938,-46.6898 c -26.78041,-34.9069 14.71225,-20.5232 0,0 z m -0.70922,-27.523 c -25.04032,-29.3184 17.08187,-27.5344 0,0 z m 186.22223,-15.6762 c -21.33395,-56.5215 22.15667,-21.4752 0,0 z m -363.1828,-20.5553 c -4.39613,-40.45 17.01315,-50.0353 0,0 z m 351.1828,-52.778 c -25.73214,-67.9938 -8.35631,-118.6404 2.98319,-21.2391 3.74649,7.5347 -0.88349,14.2655 -2.98319,21.2391 z m 186.12176,-51.9905 c -28.87073,-33.6217 20.60581,-15.9949 0,0 z m 223.21161,-5.3428 c -28.8128,-9.0079 13.6928,-22.4639 0,0 z m -30.2303,-56.9228 c -7.9802,-37.6833 21.4639,25.0659 0,0 z M 765.70121,2536.4471 c -7.39081,-32.0397 30.79045,10.5335 0,0 z m -77.09725,-12.8316 c -45.34092,-40.2878 40.33289,-50.865 0,0 z m 148.1251,-2.1064 c -39.65863,-45.3 47.48773,-19.6608 0,0 z m -75.0351,-2.031 c -10.65954,-32.3892 24.67296,-1.4102 0,0 z m 25.18873,-12.6086 c -37.65646,-78.715 40.7402,-46.5855 0,0 z m 76.42997,-0.8208 c -19.19023,-22.1723 26.52995,-5.4077 0,0 z m -138.65646,-7.1838 c -32.36532,-78.4215 42.48485,-52.8043 0,0 z m 42.7042,0.5649 c -64.57455,-23.8988 32.49523,-47.6471 0,0 z m 67.05518,-9.8305 c -23.69688,-13.2965 23.22637,-6.6641 0,0 z m -187.99181,-2.4415 c -37.34696,-32.4997 29.32481,-35.5994 0,0 z m 170.55,-13.812 c -17.24933,-60.4568 50.61928,-11.5653 0,0 z m -141.87216,-10.1082 c -16.51971,-35.9576 33.21136,3.8413 0,0 z m 66.78877,-20.1534 c -7.58126,-49.9291 54.93746,10.9769 0,0 z m -109.38024,-2.184 c -9.59509,-38.0618 40.37448,8.7591 0,0 z m 77.14798,-11.0564 c -16.54217,-38.4749 46.30393,-3.5141 0,0 z m 105.18142,-1.5054 c -29.98054,-39.7096 44.26249,4.3279 0,0 z m -34.05578,-6.0829 c -48.3608,-30.452 45.85843,-19.645 0,0 z m -113.97955,-3.2049 c -6.80214,-37.9134 39.32696,2.8682 0,0 z m -33.06792,-8.9918 c -8.69507,-24.421 20.91146,2.8158 0,0 z m 65.68748,-8.9774 c -1.8405,-34.0799 28.51701,6.0832 0,0 z m 38.14181,-11.7872 c -7.15472,-37.2527 40.63192,4.0789 0,0 z m -115.8191,-4.7527 c -14.746,-52.1989 47.70663,18.8554 0,0 z m 188.32136,2.772 c -46.29987,-21.8064 27.48646,-26.8968 0,0 z m -120.23682,-10.1811 c -8.87846,-39.3602 38.14739,13.4192 0,0 z m -35.99542,-8.2374 c -23.45328,-41.0566 43.50209,-1.5936 0,0 z m 113.16845,-2.0974 c -42.69061,-24.9011 45.83078,-11.7789 0,0 z m -176.64565,-12.834 c -22.16767,-27.8078 38.29656,0.6916 0,0 z m 147.50981,-6.6929 c -42.40861,-19.0355 23.24938,-30.6308 0,0 z m -125.79795,-3.4797 c -9.0349,-56.2601 55.84208,6.2325 0,0 z m 146.51522,-6.107 c 10.23315,-35.5515 21.30274,25.0934 0,0 z m -106.82838,1.0468 c 5.34846,-29.9433 24.01121,14.5494 0,0 z m 25.36176,-8.374 c -7.67457,-40.2404 40.69254,18.531 0,0 z m 109.88086,0.089 c -14.38536,-39.7835 34.21299,6.909 0,0 z m -199.68706,-5.7316 c -9.58411,-22.2651 20.75392,0.5557 0,0 z m 61.32003,-5.0343 c -13.77863,-68.4498 51.95878,3.4043 0,0 z m 12.54327,-7.2611 c 8.422,-25.4732 -25.84592,9.065 0,0 z m 91.32542,1.8396 c -18.20177,-44.2444 43.57506,13.7624 0,0 z m -392.09084,1.9899 c -18.26777,-23.9961 38.46067,-7.795 0,0 z m 351.98471,-9.3416 c -29.51302,-63.1663 59.43643,5.7377 0,0 z m 9.53943,-5.8245 c 12.86816,-28.017 -27.58509,2.6596 0,0 z m 88.10248,7.3156 c -14.64829,-35.5683 31.9931,4.8038 0,0 z m -220.27666,-5.202 c -33.45006,-22.6 38.7904,-16.935 0,0 z m 96.44462,-0.5432 c -11.6689,-19.9242 25.26321,1.4893 0,0 z m -72.21259,-12.6542 c -13.49114,-30.0616 34.74043,-0.4105 0,0 z m 165.17255,-4.2198 c -25.73532,-24.1125 35.05422,-3.8218 0,0 z m -106.64494,-3.0046 c -17.82358,-42.7155 44.43497,7.6033 0,0 z m 75.53704,-12.3101 c -14.03156,-30.786 35.3348,8.1925 0,0 z m -92.43956,-0.5531 c -43.14523,-21.0062 35.9571,-27.0988 0,0 z m -67.57038,-17.4069 c -26.22024,-39.8247 33.02747,-9.7621 0,0 z m 88.63008,0.5181 c -6.51031,-27.408 31.03088,9.4309 0,0 z m 26.70944,-2.1008 c -18.02074,-49.3074 39.52662,3.017 0,0 z m -147.10946,-3.337 c -2.56199,-48.9295 47.9164,17.0789 0,0 z m 188.4798,-4.8636 c -8.98138,-23.9701 28.79696,8.496 0,0 z m -133.38196,-3.9434 c -17.79252,-29.7431 34.54461,2.8484 0,0 z m 35.58196,-4.6509 c 37.45251,-49.5192 52.05626,18.431 0,0 z m 119.85542,1.144 c -18.27736,-46.2023 46.13913,8.8013 0,0 z m -121.05542,-15 c -29.22085,-32.3185 33.30764,-41.9262 0,0 z m 85.14604,-0.02 c -21.91524,-34.2887 40.10181,-1.1734 0,0 z m -151.1252,-2.6052 c -20.54521,-34.2828 29.04976,-16.2776 0,0 z m 115.45596,-16.3073 c -30.33263,-39.4589 37.48136,-14.1286 0,0 z m -95.17152,-4.7379 c -17.60784,-30.1668 36.60902,-2.0304 0,0 z m 66.24579,-6.0383 c -17.17698,-41.0327 37.1454,-5.3548 0,0 z m 93.44893,-0.5634 c -32.17694,-30.326 32.72669,-14.3689 0,0 z m -42.17326,-18.3151 c -23.89739,-29.4583 35.62058,-0.1314 0,0 z m -107.95508,-1.2665 c -58.96505,-24.4631 27.12461,-40.9057 0,0 z m 25.62304,0 c -26.88558,-32.1679 30.79503,-18.8757 0,0 z m 56.17197,-20.4892 c -17.41709,-38.646 34.71381,1.3181 0,0 z m -41.41973,-8.8868 c -7.37909,-36.083 35.87407,10.0705 0,0 z m 89.41973,-1.7686 c -19.08171,-34.7543 40.93166,6.2042 0,0 z m -109.27589,-6.741 c -36.80651,-35.7491 44.38509,-4.574 0,0 z m 71.95344,-9.7969 c -64.51057,-19.2029 58.52103,-9.4731 0,0 z m 29.5074,-8.1473 c -3.71355,-24.148 24.12244,11.8969 0,0 z m 23.48172,-1.2416 c -20.575,-32.8105 37.37384,6.1186 0,0 z m -77.08078,-2.9288 c -39.38318,-33.1015 39.02073,-15.8994 0,0 z m -35.57962,-13.4704 c -9.41971,-38.5545 39.69329,11.2333 0,0 z m 83.99373,-4.0076 c -21.5872,-40.7807 31.71653,0.5957 0,0 z m -110,-11.2426 c -24.60078,-25.6428 38.0863,-15.0798 0,0 z m 75.55872,-2.6181 c -12.30271,-34.6222 38.02614,4.2958 0,0 z m -32.75711,-9.806 c -28.84983,-58.5143 41.38492,6.4484 0,0 z m 52.30167,-12.6524 c -23.02609,-32.345 32.44646,-2.0124 0,0 z m -30.15444,-11.7472 c -38.76392,-36.5337 24.57178,-29.7511 0,0 z m -40.12617,-17.0791 c -52.29733,-20.1536 57.78841,-8.2057 0,0 z m 55.38301,-11.2377 c -45.33786,-20.6811 43.83876,-21.0682 0,0 z m -74.77099,-9.2125 c -2.00853,-83.6698 85.05787,-0.5965 0,0 z M 214.42377,1348.1769 c 4.01038,-45.0285 22.80232,4.8366 0,0 z" />
      <path
         id="path907-4"
         style="display:inline;fill:#969896;fill-opacity:1;stroke-width:1.33333"
         d="m 433.71801,2421.5803 c -25.0357,-47.3417 49.87099,5.5627 0,0 z m -84.8379,14.2919 c 0.96398,-39.762 28.71255,24.3881 0,0 z m 90.99082,54.2288 c -34.21491,-18.1619 34.58567,-14.4108 0,0 z m 69.13381,2.3196 c 1.52296,-54.5238 67.16803,9.9034 0,0 z m -122.85819,-74.8081 c -9.61914,-26.7128 30.0098,10.7863 0,0 z m 94.47328,66.1732 c -28.95445,-13.7722 27.60225,-13.2784 0,0 z M 313.77867,2372.8549 c -12.50797,-32.1584 28.94523,7.3898 0,0 z m 81.65561,75.5525 c -47.69369,-25.7775 30.93896,-14.1411 0,0 z m -56.36723,-36.2518 c -44.95022,1.0044 14.35489,-33.0362 0,0 z m 219.27609,96.5521 c -27.89994,-40.7052 47.51016,1.7249 0,0 z M 415.65459,2405.3653 c -20.3418,-21.3061 24.21339,-7.9358 0,0 z m 112.85982,116.4867 c -17.71151,-42.5406 40.00634,13.4135 0,0 z" />
      <path
         id="path899"
         style="display:inline;fill:#1d1f21;fill-opacity:1;stroke-width:1.33333"
         d="m 1855.3959,3119.4219 c 19.6382,-54.3268 100.3178,-103.9898 26.1953,-36.9222 -9.2574,7.3066 -6.6639,46.3834 -26.1953,36.9222 z m 103.0279,-17.6544 c 19.0879,-44.8142 159.5907,-209.8673 70.976,-88.7714 -30.375,24.509 -35.0172,69.6461 -70.976,88.7714 z m -241.738,-42.885 c -60.0268,-121.4619 -198.1814,-220.0966 -208.9014,-353.2703 7.8008,-95.5514 154.1889,-224.2246 114.952,-279.8956 -115.665,25.0493 -180.8288,358.5907 -176.0919,305.4565 12.2824,-146.7681 107.2746,-291.2575 220.3907,-339.4061 10.6147,-76.4631 -80.2128,-160.8597 -65.5669,-28.7413 22.9488,-86.1455 -24.2853,-178.1388 -100.4714,-78.1191 -38.7485,3.1208 80.7132,-65.2559 -2.3881,-98.1507 -55.1962,-31.1459 -218.8161,-193.9285 -142.5664,-37.6255 -3.2279,51.9991 -11.8692,-126.6272 -80.1113,-121.1747 -72.3403,-14.2517 -135.1546,-122.7672 -115.8935,5.915 -11.6809,97.6455 91.9105,112.2542 114.3677,19.6573 36.455,-41.0212 -17.3913,192.6851 -35.4562,146.5404 12.4835,54.5134 -64.0714,233.6388 13.4943,203.0394 21.2762,-73.249 34.7589,-226.3729 49.5429,-227.1148 1.9311,60.3636 34.7609,-30.5478 6.0045,51.0541 -21.0666,61.3422 -66.8741,172.6658 -49.8849,162.9987 35.9818,156.1498 6.3286,-247.4088 119.4394,-115.9852 -4.0785,59.0501 70.2853,86.2464 80.6348,87.5114 21.6237,70.8317 -39.453,256.1582 -56.3058,256.0702 -41.4364,-132.6478 -205.3794,-176.9232 -239.013,-317.6205 -139.9664,-150.4794 42.4212,139.866 -15.3097,158.8622 -48.2836,-139.6664 -109.7634,-279.025 -188.14842,-406.2975 -60.07393,-62.2133 -176.17623,-252.5993 -259.82756,-146.394 2.98681,57.5825 127.44563,43.7914 37.60365,67.7094 -3.06536,25.8437 -55.32773,-94.7024 -3.98881,17.2583 97.41525,54.442 69.03363,215.5984 123.67907,319.7394 2.45293,17.9199 53.30083,165.3564 47.63697,166.5281 5.95252,63.5368 12.50072,98.2188 60.51034,89.0613 -174.43161,23.732 -58.39436,-230.5189 -137.41315,-327.8289 -24.1368,-63.4919 -32.89058,-108.0781 -12.43633,-15.1132 -17.62866,87.4978 -24.49281,-177.7186 -88.30564,-200.071 -29.80361,-88.7855 -102.51296,-184.1528 -65.78393,-268.6806 -19.78005,-51.7372 -30.47353,-147.0369 -38.38709,-124.7484 42.5179,-58.1849 -101.16958,-98.8675 -19.943,-23.0076 -51.99189,-20.904 -28.52982,-98.724 -60.80115,-8.3383 -49.07479,50.233 131.78376,73.9989 -4.73518,78.6366 -107.20422,-0.1177 40.44237,120.3844 3.51357,188.9233 12.91356,38.3873 164.95629,36.1652 71.89704,87.5099 -70.61736,103.7157 -113.03192,233.6002 -103.89717,359.5296 34.48665,143.2943 -4.12711,-144.3698 56.34138,-184.8877 86.84842,-145.9114 -63.92928,220.645 -20.29005,105.9041 27.20556,68.2338 48.30178,270.3003 -49.9284,131.4851 -55.60496,-73.4183 -183.99401,62.0847 -103.41944,-46.9881 8.60207,-57.086 105.83972,-166.3259 55.79056,-49.5351 -29.28452,78.8189 64.19466,58.8362 38.73739,-2.4902 -13.71882,-100.7073 53.51012,-232.8679 82.35445,-306.622 -99.01739,-106.7233 -227.46943,127.2095 -239.58633,208.7526 -22.74233,93.2141 -47.59798,90.3261 9.64712,150.9274 33.87221,49.518 -129.28076,16.5687 -60.96185,-57.4961 9.98198,-128.4475 84.23924,-234.3532 162.41969,-329.0405 14.78795,-50.4315 -29.39217,21.949 -51.7978,-32.2618 -112.94368,30.6179 -117.94777,-63.2909 -54.06315,-116.4027 39.35085,13.7158 158.41713,-6.6735 69.48382,-7.4678 -38.08313,16.5865 -67.21918,-97.3608 -74.93404,-17.4246 20.78264,-77.1608 -13.24816,-205.0638 111.114,-156.4065 -40.14341,-55.3802 21.51826,-93.7716 -3.3928,-163.1447 48.27603,47.8988 79.66357,-127.2297 -13.92969,-44.7023 -72.34263,13.2152 -100.10838,18.767 -14.86945,27.2934 7.27738,93.2872 -219.3075,-63.0822 -74.40708,-85.5617 46.27385,-42.9392 141.41201,-87.019 39.07468,-13.8802 -109.10492,121.5168 223.8961,-26.4402 175.04928,1.8827 91.41147,-49.3076 259.77928,-113.2201 276.0129,-208.7167 -157.77459,-31.2622 -202.58031,182.9551 -363.09073,136.3621 91.09172,23.6382 255.44557,-123.7276 73.63714,-114.7204 100.07497,48.3466 247.05157,-95.5418 316.58711,-0.3501 -79.06531,120.2599 -230.9278,146.2958 -333.02587,237.5644 -4.24483,113.0532 130.96497,4.3677 123.38098,-48.6849 -78.86235,95.8925 126.89086,96.1901 102.60078,208.7583 67.80042,57.9306 -61.8762,98.3891 23.23717,137.2229 -104.48295,-8.716 66.9464,42.8364 -22.70211,42.002 -50.47657,111.6889 120.43349,-5.8745 74.53748,-69.661 -26.489,-81.7147 76.03226,-57.029 0.79841,-132.0965 -52.34368,-42.2614 -111.94263,-178.2989 -26.43843,-61.7257 38.41196,69.7355 176.34516,115.8125 64.12926,154.4265 -0.31123,75.6349 -59.36803,52.9839 32.38684,97.4846 66.04624,34.4639 269.88537,108.6602 147.41607,94.7015 -69.64868,-45.7104 -177.8193,-108.861 -208.37123,-85.0182 116.91859,71.1384 234.94303,140.7459 349.00743,215.4101 256.0777,135.9473 452.7524,353.7375 679.8837,529.4562 95.4383,111.2723 -142.8554,-119.4106 -114.0581,-86.7663 -15.0346,-17.5403 -76.0618,-69.3773 -27.8526,-16.2978 -89.6023,-76.3019 -36.1592,159.989 -117.6434,189.1807 -93.3043,120.6334 -90.7313,277.9687 32.5432,375.3763 32.0031,43.6646 78.1268,83.7513 86.5527,139.7409 z m -303.7514,-464.2782 c 42.7859,-113.3612 28.6828,-264.41 -68.0871,-340.0065 -29.6345,129.7468 -59.7344,238.1673 53.3726,328.8253 z m -515.14455,-47.5554 c 4.34786,-61.083 -29.12777,-16.4639 0,0 z M 293.46673,2343.0282 c 12.55348,-34.9358 -30.06323,8.1582 0,0 z m 823.51597,-17.4904 c -7.3633,-55.0019 -32.7841,-35.4319 0,0 z m 84.6758,-1.5876 c 79.3729,-72.2488 5.2249,-319.8903 -87.0121,-193.6784 -20.9016,73.6923 20.1268,158.6892 87.0121,193.6784 z m -695.77408,-7.8852 c 9.27737,-23.4698 -18.06107,-28.5314 0,0 z m -210.60564,-24.4707 c 11.65572,-31.6463 -23.20479,-0.5646 0,0 z m 207.7026,-8.1326 c 16.99155,-41.3066 -18.99394,-27.2263 0,0 z m -191.72626,-41.0032 c -2.89405,-42.7966 -27.39186,-0.486 0,0 z m 194.2589,-6.9479 c 23.05307,-36.0021 -18.40133,-6.5158 0,0 z m 582.68698,-10.4201 c 6.7215,-51.6809 10.7899,-136.5865 40.3631,-194.8492 -36.0896,53.5556 -76.672,132.2747 -40.3631,194.8492 z m -542.12988,-5.0954 c 41.20272,-23.9905 -25.22826,-7.5407 0,0 z m -41.93884,-4.7241 c 20.62344,-45.8218 -13.78224,-30.9372 0,0 z m 560.39982,-32.6639 c 1.2915,-73.5701 135.5292,-275.6659 20.9507,-251.3808 3.0615,84.4883 -51.2987,167.7613 -20.9507,251.3808 z m 27.8096,-165.9364 c 17.3309,-113.0352 60.9933,-87.129 0,0 z m 13.7083,-36.5393 c 40.8393,-57.396 -38.0259,7.6229 0,0 z m -786.2929,165.5575 c 31.46783,-53.5535 -7.92693,-43.0167 0,0 z m 478.66667,-17.9364 c -4.92156,-63.7259 -59.78909,-95.9354 0,0 z m 242.69723,-0.8454 c 13.9631,-36.8845 -38.9532,3.7515 0,0 z m -519.87323,-6.6885 c 19.59858,-43.8456 -22.33341,17.4845 0,0 z m 526.02083,-24.0577 c 55.8602,-71.8685 -89.2643,-118.6184 -43.1942,-43.4983 10.6891,15.8273 21.7776,41.5456 43.1942,43.4983 z m -46.2254,-57.4667 c -13.7408,-25.3634 -8.66658,24.749 0,0 z m -16.74732,-14.7857 c 26.32922,-71.5757 24.61662,-158.5617 -12.98555,-40.6899 -2.5695,-3.1339 -1.52124,80.1202 12.98555,40.6899 z m 79.98522,3.5868 c -13.2156,-30.2939 -77.86369,-57.0743 -23.7176,-15.0122 z m -106.34625,-21.3574 c 23.38152,-60.3089 58.52515,-200.356 -0.36593,-69.8539 -9.83164,18.0873 -28.44787,58.0724 0.36593,69.8539 z m 210.46345,-3.6834 c 2.3916,-105.6565 -70.4629,-56.558 0,0 z m -250.18304,-70.538 c -70.82679,-109.9856 -57.33255,90.076 18.77412,2.5348 -6.25804,-0.8449 -12.51608,-1.6899 -18.77412,-2.5348 z m -337.12482,39.1638 c 43.46053,-49.7003 -8.48613,-45.7436 0,0 z m 180.47549,-8.5056 c 8.81256,-21.7204 -43.78623,20.7842 0,0 z m 182.68253,-34.7012 c -15.3055,-39.388 -45.6099,-24.3751 0,0 z m -430.09789,-5.0785 c 2.19857,-53.4462 -54.86375,25.9392 0,0 z m -41.52632,-11.8573 c -2.56426,-23.1717 -20.72048,14.7623 0,0 z m 66.21155,-6.4966 c -1.09054,-36.3365 -40.87949,-2.7169 0,0 z m -48.77252,-6.0318 c 57.27008,-44.7073 6.93471,-220.2378 -6.19202,-106.2881 -35.07551,-46.5052 24.56536,-180.2568 -34.13415,-64.9414 27.66001,53.1578 -14.29404,129.985 40.32617,171.2295 z m 356.38929,-5.437 c 54.23308,-73.3555 -11.68805,-81.4951 0,0 z M 391.498,1891.5338 c 156.4047,-13.6952 -45.09317,-175.1357 -81.83391,-35.3248 -8.74635,-1.5256 46.24506,62.4781 81.83391,35.3248 z m -59.7409,-24.1323 c -10.35136,-38.7981 33.51131,-5.3142 0,0 z m 497.97222,7.2028 c 72.37055,-30.3438 -3.17859,-192.742 -16.73581,-74.1357 77.36105,-115.485 -69.0606,115.6804 16.73581,74.1357 z m -139.46759,3.8619 c 7.14972,-47.7949 -45.18476,-4.7093 0,0 z m 326.97627,-6.7508 c 19.1058,-62.7473 -38.40141,-33.8911 0,0 z M 718.4648,1860.683 c 34.66352,-32.6796 112.54235,-6.5626 29.39778,-41.2757 -55.23761,-21.1168 -66.13267,-254.6178 -44.1253,-190.1795 -45.09814,65.4261 -28.62726,169.2287 14.72752,231.4552 z m -3.69311,-50.4139 c -24.09736,-58.2772 25.44868,-6.8366 0,0 z m -23.95985,39.5664 c -2.10293,-37.3007 -62.60338,-14.9227 0,0 z M 344.23097,1807.959 c 17.81083,-20.069 -31.05354,11.1666 0,0 z m 448.42529,-16.5915 c -24.63787,-35.8261 -27.29503,9.6131 0,0 z m 15.10084,-34.0906 c 44.06975,-70.2054 -70.50021,10.2231 0,0 z m -148.23557,-29.1638 c 25.49683,-20.3518 -27.30131,-10.0743 0,0 z m 8.92877,-46.4658 c 0.5503,-43.3879 -22.65603,19.2082 0,0 z m -144.96452,-18.7012 c 103.37362,-34.8289 -21.52577,-55.8842 0,0 z m -169.91821,-5.6751 c 6.10497,-47.1955 -21.00062,8.1547 0,0 z m 124.33843,-8.8789 c -36.65715,-84.2988 -197.47144,3.2647 -50.36319,-9.9078 17.16313,1.1349 33.72131,5.974 50.36319,9.9078 z m 171.54956,-20.5927 c 31.35792,-74.1156 -39.85703,-43.711 0,0 z m -128.34499,-1.5284 c 12.00935,-21.7729 -25.82917,-12.7842 0,0 z m 19.29927,-12.682 c -24.43088,-12.1241 4.05621,26.5892 0,0 z m 138.4093,0.049 c 39.71427,-39.3636 -51.93906,-20.9565 0,0 z m -164.47377,-18.3192 c 63.64923,-46.1901 -15.48466,0.8666 0,0 z m 188.93593,2.1874 c -2.29852,-40.0958 24.1864,-140.6335 -50.19086,-115.0983 89.24252,-11.5809 -13.48713,99.7696 50.19086,115.0983 z m -223.92344,0.075 c 1.83912,-26.3337 -20.55722,-57.8379 0,0 z m 80.39924,-4.7121 c 1.43918,-28.1424 -25.57838,9.5332 0,0 z m -132.8499,-6.0255 c 7.24189,-27.1542 -26.37294,13.847 0,0 z m 296.8499,1.4275 c 29.55427,-55.0975 -32.56414,-31.8615 0,0 z m 24.48218,-4.6667 c 1.5165,-32.3261 -24.24434,9.0295 0,0 z m -217.81551,-13.94 c 59.33703,-58.151 -26.45948,1.0409 0,0 z m -15.48969,-5.06 c -2.78526,-69.1017 -13.58852,22.8792 0,0 z m 154.26309,-13.6666 c 30.37841,-69.7504 28.80324,31.4049 0,0 z m -143.016,0.6666 c -0.55828,-41.4169 -21.94645,11.6079 0,0 z m -38.11192,1.2435 c 9.20246,-28.08 -28.4545,-36.7787 0,0 z m 224.12385,-6.7171 c 29.25562,-36.4829 27.89103,15.942 0,0 z m -248.70266,0.5403 c 13.73888,-35.1329 -23.79958,-7.7635 0,0 z m 122.43333,-15.4636 c -23.4671,-41.0757 -112.0629,-151.1883 -26.20437,-55.9723 7.70293,19.1268 13.17766,39.3458 26.20437,55.9723 z M 561.6112,1466.445 c -11.35397,-36.299 29.58786,3.3897 0,0 z m 0.59538,-15.0707 c -38.07695,-22.3949 18.41696,-14.8462 0,0 z m -21.3729,63.8968 c 1.34537,-27.5587 -30.74203,-42.417 0,0 z m 101.10792,1.6667 c 22.79004,-19.4413 -20.40757,-12.3638 0,0 z m -123.46571,-10.5296 c -0.0941,-30.5344 -13.28646,-6.4206 0,0 z m -42.24147,-11.2328 c 44.67265,-46.5204 -19.61833,-81.1741 0,0 z m 240.92251,-3.4908 c 5.12079,-32.8741 -23.23071,-8.1197 0,0 z M 541.09044,1466.271 c 36.32818,-17.0455 -13.58692,-13.1825 0,0 z m 124,-17.3333 c -6.59831,-28.6874 -28.54058,-14.0235 0,0 z m 29.89094,1.1906 c 6.42985,-30.3791 -26.51143,-11.5938 0,0 z m -50.2949,-9.524 c 2.21439,-27.663 -38.66071,-0.1594 0,0 z m 1099.87992,1598.891 c 5.4495,-38.7823 29.3894,-6.0882 0,0 z m 190.7463,-26.7799 c 47.0645,-71.7383 117.0117,-107.0912 22.112,-21.2981 z m -172.3705,-5.5379 c -12.7189,-29.1055 43.5129,-86.9818 15.7346,-26.1435 z m 91.1532,-53.158 c -3.2388,-85.5544 117.6656,-260.6383 171.7817,-191.1464 1.0044,102.2688 -37.0223,-100.0685 -90.8821,-6.672 -76.2974,51.8418 -16.1193,160.2763 -80.8996,197.8184 z m -63.8383,-15.1237 c 7.2047,-52.079 29.7037,-32.0215 0,0 z m 289.9043,-0.3828 c 22.9582,-50.5232 46.4317,-12.8514 0,0 z m -48.8487,-23.1309 c 33.404,-53.0706 75.9104,-31.9386 0,0 z m -114.8889,-24.4444 c 9.4104,-43.5925 57.6859,-6.3338 0,0 z m -106,-2.9967 c 14.9646,-76.5948 26.1959,-48.0803 0,0 z m 275.0972,-13.8045 c 56.7643,-142.3803 -72.755,-245.9084 -157.6066,-334.6282 65.9603,27.549 200.9421,217.7163 201.4569,222.3417 -92.4244,-64.3505 27.2071,122.9528 -43.8503,112.2865 z m -114.3363,-18.8824 c 8.4268,-25.4647 22.4435,-3.3336 0,0 z m -143.4276,-27.5711 c -9.9771,-22.9748 16.4659,-9.3245 0,0 z m 168.232,-1.6167 c -5.7163,-38.1232 27.761,-9.234 0,0 z m -49.4864,-15.0497 c 11.1417,-51.7744 57.2834,-37.2383 0,0 z m -524.222,-80.5276 c -24.5764,-51.0586 27.8038,-23.1658 -10e-5,0 z m 722.8748,-50.3248 c -36.5087,-33.3574 -219.4923,-205.7628 -93.3144,-119.5075 181.16,147.2401 201.6232,394.2145 261.5258,603.967 29.647,130.4191 51.0068,263.4309 51.9734,397.448 -48.0279,-295.9692 -110.0241,-592.1192 -211.4827,-874.4822 l -5.9166,-5.0485 z M 797.68173,2582.8157 c -12.17358,3.9651 5.24951,-55.5298 7.0318,-49.5946 18.57152,17.6897 54.48647,77.2323 -7.0318,49.5946 z m 54.07537,-1.5308 c -3.26516,-30.3781 30.50167,11.9463 0,0 z m -152,-14.3086 c -90.89479,49.0053 -139.58516,-162.2869 -31.99299,-40.9352 23.4552,7.3681 114.17089,39.5123 36.91346,42.9261 z m 291.13094,-6.3778 c -16.80535,-61.3509 55.96966,-8.8344 0,0 z m -141.99067,-2.6002 c -27.55728,-22.7651 36.2722,-15.7542 0,0 z m 184.33153,-12.2801 c 54.6623,-50.918 94.1577,-31.4829 0,0 z m -110.31124,-6.5348 c 0.31044,-47.0429 53.99905,15.0736 0,0 z m -154.85654,-1.9617 c -13.69986,-26.3763 28.07566,-3.4843 0,0 z m -36.3138,-15.6234 c -15.07159,-32.6976 39.64357,-7.6578 0,0 z m 106.00252,-1.8344 c -25.50936,-20.2808 29.52554,-17.1232 0,0 z m 176.56256,-5.0342 c -9.8817,-32.7674 37.715,-2.9722 0,0 z m 48.1352,-3.445 c -26.1082,-29.6631 39.0785,-5.4364 0,0 z m -374.6905,-6.3214 c -30.188,-30.6876 37.56261,-3.0967 0,0 z m 98.1167,0.231 c -0.95432,-29.3261 39.39576,0.336 0,0 z m 1186.3076,-4.1057 c -57.5369,-41.9898 -193.5141,-186.0477 -59.9963,-68.8272 22.2615,20.6286 47.8207,39.9516 59.9963,68.8272 z m -833.8539,-5.9623 c 22.5136,-54.8754 16.4319,19.336 0,0 z m -371.6496,2.1176 c -34.94264,-15.7356 17.84757,-43.0264 0,0 z m 267.9156,-0.1013 c -13.5609,-39.3295 36.6073,3.2278 0,0 z m -310.29142,-0.3504 c -2.33108,-33.875 35.28273,-5.9397 0,0 z m 353.94462,-7.2052 c -1.917,-35.7418 34.038,14.4849 0,0 z m -143.52744,0.2567 c -13.3668,-11.133 18.76143,-14.7819 0,0 z m 56.55434,-5.488 c -8.52922,-30.6152 17.4217,8.6227 0,0 z m 143.3863,0.5672 c -14.5077,-28.7192 32.4672,7.8017 0,0 z m -494.56946,-1.5155 c -15.48868,-41.6154 45.9373,4.6929 0,0 z m 85.91234,-11.7232 c -20.5866,-33.5863 41.59993,-11.099 0,0 z m 90.05684,0.2443 c -3.37228,-35.4648 39.02583,10.1919 0,0 z m 1349.03078,-0.3242 c -234.1966,-184.8124 -486.4866,-345.293 -719.9117,-531.28 -91.1364,-41.4236 -206.2734,-199.3966 -278.3854,-83.6509 56.3533,65.3564 102.4195,68.34 4.8709,24.9688 -69.7411,-39.025 -82.8943,-140.1272 -11.4733,-36.7549 76.3321,49.7818 -40.1741,-77.9603 36.042,-24.1447 -2.4646,-56.6931 -94.5255,-111.8235 8.5846,-47.3075 57.9931,33.0764 150.99,114.7666 181.8807,112.0715 132.5884,100.836 265.2428,200.5895 401.411,296.0431 117.6678,106.7904 270.7943,171.2037 376.9812,290.0546 z m -1024,-631.2546 c -0.8268,-15.4073 -62.2678,-26.8934 0,0 z m -18.3226,-34.3462 c -3.9065,-34.4003 -19.4429,17.8881 0,0 z m 362.8497,663.0159 c 3.8783,-70.1494 46.3,-174.4138 13.7952,-49.9636 7.6822,17.9666 13.3817,45.9591 -13.7952,49.9636 z m -428.3828,0.092 c -16.2351,-43.5581 40.2842,0.9847 0,0 z m -268.14426,-2.7985 c -43.39514,-18.9363 34.3405,-28.712 0,0 z m 214.83786,0.1644 c -18.52265,-37.3648 35.8314,2.6747 0,0 z m -324.8513,-3.5614 c -30.01418,-8.0887 29.56623,-20.4999 0,0 z m 427.7209,-3.6449 c -13.9396,-39.8779 41.2756,12.3384 0,0 z m -511.02038,-4.7995 c -1.38524,-52.2984 47.09649,6.6172 0,0 z m 355.96484,0.4386 c -13.75176,-25.2956 28.18013,-4.7445 0,0 z m -90.12795,-4.8508 c -37.47684,-57.7068 -32.33047,-221.2997 -18.10024,-82.9241 6.60551,26.8303 25.04112,54.5391 18.10024,82.9241 z m 62.10969,-1.2084 c -12.78635,-31.1659 24.51154,12.2436 0,0 z M 581.74437,2437.271 c -3.46034,-79.1754 10.9306,33.9965 0,0 z m 447.94833,7.4119 c -33.33541,-14.7677 31.9483,-11.9361 0,0 z m -285.83652,-1.56 c -6.34636,-33.6599 60.8415,2.9252 0,0 z m 334.23422,-1.6307 c -10.9783,-22.0785 36.2361,-2.9896 0,0 z m -443.66663,0.2676 c -12.04223,-28.3487 34.4061,-1.2808 0,0 z m 342.61804,-8.2041 c -13.30292,-27.655 28.47369,-5.5962 0,0 z m 543.97339,-1.4251 c 8.085,-62.7705 68.3643,-224.8951 42.0876,-66.2542 -9.9738,20.0595 -14.7404,64.1718 -42.0876,66.2542 z m 18.8703,-21.1136 c 42.245,-60.4207 -3.1261,-65.6437 0,0 z m -437.1284,19.8101 c -15.2304,-17.242 22.7517,-3.1013 0,0 z m -287.57142,-1.9846 c -6.72725,-25.1082 34.31965,11.2221 0,0 z m -107.4911,-3.3007 c -3.96386,-37.3323 39.04457,2.7459 0,0 z m 72.18343,-5.1679 c -40.13009,-27.5609 30.05035,-14.0095 0,0 z m 262.77739,-2.7718 c -17.239,-22.1465 42.6032,-11.7679 0,0 z m -24.5838,-2.1036 c -9.1265,-21.3607 23.0137,6.0705 0,0 z m -102.39236,-0.5819 c -31.53435,-24.0035 38.65947,-23.5352 0,0 z m 154.41116,-1.9383 c -12.8678,-27.9511 25.9019,4.6929 0,0 z m -76.07222,-0.7401 c -18.48231,0.7176 33.36352,-42.0635 0,0 z m 104.76722,-2.3821 c -23.293,-11.5805 20.5325,-19.1451 0,0 z m -158.58386,-2.3238 c -11.36792,-37.0106 29.50236,0.1963 0,0 z m -344.40425,-7.8222 c -22.15391,-24.7411 32.68067,-1.3723 0,0 z m 285.31375,-0.7596 c -11.46522,-32.6725 29.7732,6.6986 0,0 z m 132.21956,-7.4614 c 2.68,-13.5889 1.3953,-7.0748 0,0 z m 45.325,-1.2381 c -10.22,-32.1172 44.971,20.0508 0,0 z m -317.269,-2.2899 c 1.83754,-52.9263 31.90512,4.8844 0,0 z m -118.47624,-1.3148 c -14.6771,-33.9231 38.77324,4.2724 0,0 z m 182.6778,-2.8765 c -52.22021,-33.904 49.1972,5.3061 0,0 z m 152.86113,-2.5267 c -19.76692,-41.5334 32.59872,6.7896 0,0 z m -264.02552,-2.8166 c -8.5622,-40.6382 26.35118,2.273 0,0 z m 208,-6.9008 c -13.76246,-39.3052 31.35176,0.6229 0,0 z m 28.68044,-4.2547 c -24.60969,-37.7745 28.24778,5.7311 0,0 z m -164.34809,-1.0191 c -27.64555,-21.9675 47.14031,-8.7874 0,0 z m 212.48216,-0.037 c -27.74548,-38.6343 33.56132,1.2052 0,0 z m 45.29592,0.9021 c -7.945,-42.7491 34.4463,7.2391 0,0 z m 798.9206,-0.9253 c -78.927,-65.7502 -188.8853,-138.1338 -243.0502,-208.3744 77.605,73.3003 174.7079,125.3406 243.0502,208.3744 z m -743.0441,-2.7661 c -21.5369,-13.8925 20.9448,-14.136 0,0 z m -127.09174,-9.8939 c -49.9331,-39.572 19.57798,-36.9397 0,0 z m -365.55275,-1.0377 c -13.84809,-26.6593 40.36648,7.0182 0,0 z m 150.17452,-6.4831 c -51.80486,-13.8042 42.52619,-28.695 0,0 z m 351.58287,-1.4355 c -10.1769,-41.0201 36.8273,8.5105 0,0 z m -327.43316,-3.9813 c -17.89612,-25.9033 29.93883,2.1426 0,0 z m 236.95316,0.9352 c -35.82391,-24.5037 26.7947,-15.2933 0,0 z m -75.99132,-3.5029 c -49.55519,-24.3631 35.8721,-8.2096 0,0 z m 120.74672,1.6292 c -35.6245,-29.4212 41.8591,-7.8737 0,0 z m -419.55972,-5.3843 c -24.16696,-27.9332 31.41508,-2.0017 0,0 z m 54.7192,-1.33 c -11.6167,-34.8398 38.70391,7.3186 0,0 z m 112.79862,-0.67 c -32.49367,-25.7951 40.15522,-16.2281 0,0 z m -331.33333,-12 c -42.84694,-23.6613 39.47099,-24.5354 0,0 z m 552.30013,-2.4416 c -21.92069,-40.4764 40.9172,4.5563 0,0 z m -259.70258,-3.166 c -13.54444,-39.8578 31.80397,10.6471 0,0 z m 209.40245,3.3189 c -20.9093,-16.9106 28.9532,-40.7205 0,0 z m -603.37936,-2.6752 c -6.25469,-35.9246 30.51501,7.0637 0,0 z m 700.04599,-1.7028 c -26.8735,-25.732 28.0146,-1.9217 0,0 z m -200.42626,-3.0437 c -26.39325,-32.9509 27.63778,1.5865 0,0 z m -143.42181,-1.6615 c -18.11852,-32.6236 42.97622,-11.912 0,0 z m 99.84811,0.8286 c -27.74238,-18.8387 24.38793,-15.7469 0,0 z m -150.57742,-6.6456 c -33.03333,10.6095 6.8382,-19.7263 0,0 z m 265.80874,0.8556 c -31.15294,-29.1858 30.88207,-13.5042 0,0 z m -341.23132,-2.412 c -31.42032,-23.8092 36.54731,-13.8985 0,0 z m -23.94534,-4.5222 c -39.25428,-22.5956 34.65079,-40.3853 0,0 z m 417.68979,-2.3252 c -28.95279,-46.2154 34.68041,3.0757 0,0 z m 40.46221,-2.1789 c -7.4396,-31.2438 31.0503,9.1581 0,0 z m -406.87333,-2.4619 c -20.51638,-23.6003 32.65472,-10.6279 0,0 z m -279.48139,-6.4469 c -30.8296,-78.6448 48.15476,-32.3627 0,0 z m 48.68043,0.1445 c -21.972,-23.1098 36.66608,-1.2075 0,0 z m 481.03317,-0.5348 c -29.04175,-29.1033 38.12158,-0.8814 0,0 z m 76.90044,-9.9293 c -17.91218,-21.876 45.91081,-27.4655 0,0 z m 101.08958,-1.8889 c -8.456,-36.7007 40.3052,4.1518 0,0 z m -296.44355,-2.3438 c -9.90143,-30.6016 32.67893,8.8807 0,0 z m 251.14196,-5.3705 c -37.54826,-29.1338 39.76379,-5.8179 0,0 z m -90.58265,-5.0495 c -32.21429,-30.4184 47.27226,-6.3365 0,0 z m -521.7461,-4.6242 c -20.29949,-29.1199 36.23131,-20.9713 0,0 z m 202.87835,-2.3895 c -15.12198,-26.0169 30.21195,-1.4209 0,0 z m 114.36976,-1.2697 c -1.45193,-37.0538 30.02771,4.2044 0,0 z m -145.84,-1.6356 c -12.60467,-33.3436 41.88869,5.7366 0,0 z m 400.54933,-5.0878 c -3.03057,-48.7942 28.443,2.0567 0,0 z m -106.72412,-0.9566 c 4.72444,-14.0063 3.53125,-10.4689 0,0 z m 158.44912,-0.4751 c -6.9903,-47.4948 54.0581,-15.6584 0,0 z m -654.941,-3.114 c 0.32583,-19.5056 28.03769,9.4087 0,0 z m 520.02042,-1.0863 c -22.04499,-15.1919 19.99823,-19.1083 0,0 z m -268.87491,-6.3996 c 10.01252,-26.3522 33.56273,15.2055 0,0 z m 62.34923,0.9671 c -18.00939,-31.8387 37.90579,-2.7918 0,0 z m 97.15722,-3.3943 c -10.39765,-21.6773 27.88638,-0.7698 0,0 z m 156.18175,-1.8297 c -19.25251,-24.3005 30.31522,-11.5952 0,0 z m -563.07328,-2.2204 c 45.00354,-75.4127 95.1486,7.9185 0,0 z m -24.95417,0.108 c -4.48066,-24.6689 35.98598,10.9157 0,0 z m 97.66557,-2.8925 c -23.06289,-18.1513 34.42723,-13.7966 0,0 z m 211.88547,-4.7138 c -29.60322,-38.3741 40.24097,-3.515 0,0 z m 84.09221,1.1128 c -3.71516,-33.1327 37.82308,2.1278 0,0 z m 247.55049,-0.077 c -41.8388,-12.1088 29.0639,-17.2246 0,0 z m -396.45386,-2.0354 c -10.74069,-35.525 29.17777,2.3759 0,0 z m 285.94136,-2.7261 c 33.09024,-37.4091 26.80189,17.2238 0,0 z m -540.50103,-9.1956 c -17.63411,-21.7069 20.657,-5.3117 0,0 z m 369.72925,-5.3188 c -18.12164,-26.2053 32.47048,-8.4268 0,0 z m 248.67047,0.444 c -12.82136,-23.0774 25.73138,-7.0807 0,0 z m -341.55121,-5.486 c -21.88536,-23.7303 33.64235,-2.8428 0,0 z m -125.6638,-1.1779 c -16.50628,-43.4923 40.62211,-0.4029 0,0 z m 509.16216,0.305 c -53.64605,-16.4079 43.65036,-17.0253 0,0 z m 284.11666,-4.4554 c -35.2531,-37.2118 69.705,-143.5622 13.1003,-94.8018 72.502,-91.8669 16.7484,80.3933 -13.1003,94.8018 z m 30.9987,-50.8098 c 18.0593,-23.1132 -8.9903,-43.164 0,0 z m -634.62642,50.8588 c -12.75029,-42.1443 36.52679,0.2308 0,0 z m -314.66882,-2.8588 c 44.20386,-73.6562 118.97639,-46.9938 0,0 z m 92.28853,1.223 c -21.55047,-34.6707 56.29978,-0.12 0,0 z m 314.5134,1.1772 c -15.92384,-29.9488 28.84326,-0.5624 0,0 z m 143.31975,-6.7586 c -6.95129,-42.41 30.2391,10.8827 0,0 z m 96.42913,-3.8442 c -9.88405,-43.2363 39.73013,9.4321 0,0 z m -135.0376,-5.7101 c 2.24385,-38.1423 26.48316,0.8443 0,0 z m -443.55691,-2.4527 c -5.44071,-47.7375 29.00157,9.6519 0,0 z m 299.62058,1.187 c -28.47266,-39.351 39.31846,3.5829 0,0 z m 229.29113,-0.9243 c -22.52268,-41.1488 32.5891,9.9479 0,0 z m -310.84603,-0.81 c -29.7786,-30.7347 42.16777,-6.188 0,0 z m -176.63238,-7.8667 c -0.0199,-32.0524 33.61769,1.9441 0,0 z m 71.64088,-1.6021 c 8.46613,-12.9407 32.77191,7.565 0,0 z m 243.7132,-1.9128 c -29.77192,-15.6761 31.4372,-5.8468 0,0 z m -175.5638,0 c -10.10602,-20.1553 28.04925,1.2419 0,0 z m 92.45034,-8.3904 c -21.25498,-28.9504 28.98029,0.068 0,0 z m -244.78368,-3.0205 c -33.71762,-22.2727 43.97921,-7.3207 0,0 z m 925.3333,-3.4622 c -3.6759,-30.1265 -4.4284,-90.7797 -0.9784,-25.288 z m -709.3333,-4.0786 c -32.65226,-5.7712 17.08401,-18.9492 0,0 z m 76.66667,0 c -37.47235,-30.3396 41.28569,1.978 0,0 z m 102,-2.4 c -21.58382,-29.2657 27.07912,-13.2678 0,0 z m 42.33333,-1.571 c -26.61506,-21.0238 18.77956,1.4203 0,0 z m 44.20658,0.2402 c 15.43255,-28.7155 -21.37492,-6.378 0,0 z m 610.79342,-1.6812 c -44.4599,-15.8718 15.2562,-10.34 0,0 z m -562.66666,-3.5968 c -16.03173,-32.4018 38.60936,2.8471 0,0 z m -339.75283,-1.2363 c -26.5974,-18.6153 20.86556,-10.1193 0,0 z m -207.58051,-5.7549 c -77.4663,-10.9087 44.55666,-19.7955 0,0 z m 1090.5895,-1.2084 c -51.0479,-20.0849 -140.8347,-131.3648 -42.1882,-42.5169 -0.5241,15.8891 67.1918,31.6953 42.1882,42.5169 z m -1149.30936,-3.8499 c 4.86259,-32.4344 18.59401,17.9155 0,0 z m 82.20625,-3.1824 c -162.90415,-101.909 211.06732,22.1522 17.85403,-36.6596 -52.22758,-112.9315 97.38815,50.0246 -17.85403,36.6596 z m 433.18028,-3.7396 c -32.39373,-20.1478 47.3867,-5.24 0,0 z m -490.57619,-4.5901 c -64.62414,-33.2164 -8.87982,27.3017 0,0 z m 537.34167,-4.3547 c 4.63747,-39.7192 24.31,18.3792 0,0 z m -581.76548,-2.3467 c -6.66576,-56.9631 17.22848,16.6424 0,0 z m 507.84497,3.6723 c -32.8031,-6.8779 24.8366,-22.2796 0,0 z m -37.91681,-1.4433 c -23.34607,-22.5959 32.07483,-5.2354 0,0 z m -91.76123,-8.3434 c -26.82893,-20.0979 20.96306,-12.2832 0,0 z m -151.99604,-1.8897 c -28.53795,0.044 19.37367,-22.0932 0,0 z m 321.718,-0.2712 c -26.0784,-24.8628 42.57219,-13.3581 0,0 z m 47.9796,-1.4491 c -14.09999,-37.6235 47.06193,-0.6104 0,0 z m -446.15942,-3.379 c -2.76058,-26.6487 30.70196,-4.2529 0,0 z m 113.50784,-6.48 c -17.7465,-31.6922 43.84186,-2.1637 0,0 z m 77.11642,-4.4655 c 6.84071,-15.8883 27.14785,7.5291 0,0 z m 166.42319,-0.2989 c -23.79744,-71.3554 51.74975,-29.2304 0,0 z m -59.75652,-2.6856 c 19.12377,-56.793 28.95967,2.8461 0,0 z m -137.51896,-2.9838 c -0.33864,-35.4737 -28.70693,-2.8138 0,0 z m -265.46996,-4.3552 c -15.12929,-21.3599 30.41748,-9.8506 0,0 z m 164.31173,-8.0225 c -1.84096,-60.1495 64.62552,7.1717 0,0 z m 55.73984,-1.9996 c -60.60654,-8.3283 29.18562,-17.8805 0,0 z m 95.20402,-0.6004 c -11.39328,-32.713 31.12659,6.0776 0,0 z m -82.95007,-4.4089 c -14.58556,-25.5029 40.91371,5.5929 0,0 z m 288.67299,-3.3412 c -20.0512,-20.7147 35.27566,3.9481 0,0 z m -238.62795,-5.8408 c -5.73256,-32.9472 30.09965,13.8797 0,0 z m 161.06633,0.8576 c -36.84012,-21.1761 13.04395,-24.1927 0,0 z m -63.35105,-2.6504 c -1.8816,-29.5577 40.84625,6.5119 0,0 z m 34.37949,1.1829 c -34.50577,-8.7806 24.95371,-21.8167 0,0 z m -221.26389,-6.6772 c -6.75847,-61.5549 59.79695,-5.5312 0,0 z m -174.51092,-2.8099 c 18.05601,-44.9315 51.86949,-4.9306 0,0 z m 73.17883,-0.7088 c -9.12799,-32.7868 28.10103,2.1534 0,0 z m 20.3736,-3.5222 c -6.15489,-33.3125 22.98552,6.1515 0,0 z m 135.37489,0.092 c -16.01535,-30.9208 38.06274,5.2313 0,0 z m 237.18817,-3.9211 c -38.66539,-1.8112 18.76174,-17.1305 0,0 z m -85.46497,-1.8011 c -31.53203,-28.9844 30.9721,2.6804 0,0 z m 47.97208,0.5639 c -24.695,-13.3742 35.55809,-7.6513 0,0 z m -314.19776,-1.2427 c -38.00166,-18.0362 37.04147,-14.3829 0,0 z m -72.53645,-2.3242 c -5.37653,-44.1171 49.49924,-5.5381 0,0 z m 934.78384,-1.1606 c -59.9865,-30.2926 -155.7894,-115.1859 -41.8288,-36.6249 11.2126,11.6716 41.7042,16.3694 41.8288,36.6249 z m -695.73106,-2.0918 c -20.14165,-17.356 26.92695,-9.304 0,0 z m 117.80482,-1.8092 c -23.1155,-23.8329 43.0711,7.8704 0,0 z m -315.46254,-3.688 c -52.84401,-61.417 64.00945,-20.6607 0,0 z m 129.4759,-3.2059 c -33.80282,-19.3313 17.05844,14.9722 0,0 z m 166.83621,-3.3168 c -33.5938,-9.4093 40.46175,-17.3334 0,0 z m 89.02273,-1.8307 c -8.59583,-32.1934 29.78274,13.069 0,0 z m -128.6352,-5.4425 c 29.47779,-46.5668 46.04685,-0.1657 0,0 z m 59.8877,-2.2035 c -14.78836,-38.5949 34.03978,7.5899 0,0 z m 30.11428,-1.8469 c -13.11216,-42.3207 40.66106,9.4415 0,0 z m -207.64948,-4.5312 c -23.73004,-28.5447 38.44449,2.2366 0,0 z m -178.88404,-3.0447 c -11.50859,-33.6056 23.69835,3.5378 0,0 z m 206.59994,-14.94 c 19.88573,-36.7671 32.17906,16.7899 0,0 z m -185.55498,-2.7176 c 9.26441,-32.9673 33.71563,20.0871 0,0 z m 37.96454,2.5391 c 13.31026,-28.6221 47.29907,14.7155 0,0 z m 333.33718,-1.7291 c -12.88547,-26.9269 29.92427,10.4934 0,0 z m -394.60402,-1.6012 c -1.11248,-38.0268 28.08037,3.5155 0,0 z m 358.67468,-2.9294 c -13.80367,-29.3361 34.58608,12.3451 0,0 z m -187.30332,-0.6207 c -31.9712,-38.0283 46.25422,9.0895 0,0 z m -113.24717,-8.3872 c -53.97549,-11.0632 36.73099,-16.17 0,0 z m 149.30943,-1.29 c 0.32395,-37.2396 23.21151,9.2326 0,0 z m -113.25063,-5.1233 c -43.29487,-21.0427 27.79619,-19.2911 0,0 z m 267.79671,-4.4031 c -8.49034,-38.8064 36.09253,15.4168 0,0 z m 25.47782,-0.7667 c -3.75745,-32.2829 27.06631,16.1127 0,0 z m -59.52408,-4.198 c -25.28391,-29.4703 38.39252,-27.4448 0,0 z m -37.22194,-3.4454 c -8.19159,-27.8388 32.0956,4.8763 0,0 z m -2.57536,-20.4575 c -25.26017,-16.6405 52.03653,-5.4262 0,0 z m 65.24202,0.4575 c -14.10106,-22.8414 24.67904,1.274 0,0 z m -67.73356,-10.3968 c -31.0016,-44.8222 46.92692,-25.2021 0,0 z m -608.01164,-10 c 17.06557,-102.21 22.70206,-180.4819 10.68352,-280.7775 81.87254,-10.4162 32.03009,9.592 30.3579,24.53 42.03848,-0.1014 159.2775,15.8153 69.86533,63.2018 29.87817,63.1077 46.32443,150.7731 -41.29885,82.5476 -65.56897,-5.5363 3.01752,104.4017 -69.6079,110.4981 z M 257.2138,1756.6133 c -0.19776,-25.4173 -18.50032,10.3442 0,0 z m 2.70578,127.2869 c -19.315,-38.5741 37.69665,-41.7522 0,0 z m 317.24159,-29.544 c 1.23756,-25.9135 23.87361,3.0215 0,0 z m -37.60521,-48.1901 c -16.22943,-29.6985 21.1693,-7.6081 0,0 z m 17.50758,-3.9275 c -31.44364,-37.81 27.75557,-6.514 0,0 z m -266.10477,-31.0027 c -3.60308,-62.3944 48.10095,-75.6097 0,0 z m 780.79833,-8.27 c -62.9079,-11.1447 -3.5398,-30.2768 0,0 z m -530.55429,-12.5594 c -24.90009,-37.6001 24.5529,1.3988 0,0 z m 476.14289,-7.7476 c -61.18574,0.1971 -171.83109,-76.3888 -51.09764,-25.1591 7.46277,3.994 76.53614,15.9821 51.09764,25.1591 z m -716.21286,-38.7212 c 47.37587,-112.5231 -96.14502,-108.4471 -146.63251,-111.8045 110.39076,9.7557 202.04022,-35.1919 146.63251,111.8045 z m -19.72498,-8.1922 c 2.35341,-39.8228 24.17645,8.2459 0,0 z m 311.62324,-4.8445 c -2.57902,-39.1327 28.29711,-8.3743 0,0 z m 282.726,-6.63 c -22.27923,-32.3884 33.14318,0.3182 0,0 z m 91.91958,-31.4303 c -33.62025,-3.8883 -69.25896,-67.9716 -18.10137,-20.8355 z m -736.51786,-26.9716 c -60.6291,-23.6795 97.93556,10.6839 0,0 z m 376.39228,0.7352 c -34.84632,-58.9077 30.61913,-87.5673 0,0 z m 288.56075,-36.524 c -8.99966,-21.7484 22.77862,8.7884 0,0 z m -546.56672,-5.8108 c -12.29571,-19.0676 37.00872,-12.5402 0,0 z m 48.46452,-11.5237 c -71.11738,-7.1013 26.73811,-136.7353 -14.42772,-35.71 23.50418,-7.8778 38.63145,27.2081 14.42772,35.71 z m 375.50756,-8.8081 c -12.92032,-64.0903 27.02049,-53.2899 0,0 z m -645.85271,-5.2698 c 60.12043,-43.3899 190.61837,-3.6627 50.59428,-5.6341 -16.53147,3.7065 -33.47369,8.1568 -50.59428,5.6341 z m 184.0926,-16.2754 c -24.43203,-15.5555 27.0282,-19.7375 0,0 z m -27.83453,-0.6576 c 34.82814,-29.5382 -20.38042,-118.3954 32.57109,-35.8134 -5.15452,15.9485 -17.95245,28.3516 -32.57109,35.8134 z m 36.45381,-18.4874 c 13.72171,-31.5646 60.25452,6.0655 0,0 z m 436.98274,-9.2366 c -4.7754,-29.5804 16.79417,14.2611 0,0 z m -398.30259,-42.885 c -42.38592,-22.3303 35.32276,-0.5977 0,0 z m -94.63892,-3.8324 c -59.7319,-38.1657 -43.91488,-85.3382 0,0 z m 476.67283,-27.0225 c -26.1554,-24.164 19.80248,-30.435 0,0 z m -26.84988,-8.5363 c -31.55974,-32.6657 26.43852,4.4621 0,0 z m -133.68082,-37.5901 c -76.41662,-3.1697 28.28135,-19.221 0,0 z m 141.24659,-3.5412 c -59.81501,-30.6914 32.67008,-11.4796 0,0 z m -142.20712,-29.9328 c 20.34986,-46.3591 52.86389,19.5774 0,0 z m 12.98263,-25.3526 c 10.78652,-25.5704 31.91792,16.0974 0,0 z m -307.15719,-47.0073 c 12.87445,-23.2683 38.50092,5.9338 0,0 z m -54.17266,-104.3472 c -43.58225,-21.2836 -141.020397,-125.6461 -39.60877,-47.9311 32.31389,87.0484 320.00672,71.4839 117.11413,95.5627 -72.05638,4.4491 -30.76087,-32.7325 -77.50536,-47.6316 z m 271.81317,49.1205 c 42.72019,-49.8533 71.28808,-53.165 0,0 z m -94.12754,-18.6871 c 99.6236,-70.5795 -9.85817,29.5966 -0.92398,2.6294 z m 62.08888,-32.6891 c 19.65262,-45.4129 72.35042,-31.4098 0,0 z m 64.39727,-5.1083 c 6.72722,-48.4364 58.37447,-3.0376 0,0 z m 45.66251,-50.9056 c -81.1611,-12.0431 65.22296,-8.2866 0,0 z"
         sodipodi:nodetypes="ccccccccccccccccccccccccccccccccccccccccccccccccccccccccccccccccccccccccccccccccccccccccccccccccccccccccccccccccccccccccccccccccccccccccccccccccccccccccccccccccccccccccccccccccccccccccccccccccccccccccccccccccccccccccccccccccccccccccccccccccccccccccccccccccccccccccccccccccccccccccccccccccccccccccccccccccccsssccccccccccccccccccccccccccccccccccccccccccccccccccccccccccccccccccccccccccccccccccccccccccccccccccccccccccccccccccccccccccccccccccccccccccccccccccccccccccccccccccccccccccccccccccccccccccccccccccccccccccccccccccccccccccccccccccccccccccccccccccccccccccccccccccccccccccccccccccccccccccccccccccccccccccccccccccccccccccccccccccccccccccccccccccccccccccccccccccccccccccccccccccccccccccccccccccccccccccccccccccccccccccccccccccccccccccccccccccccccccccccccccccccccccccccccccccccccccccccccccccccccccccccccccccccccccccccccccccccccccccccccccccccccccccccccccccccccccccccccccccccccccccccccccccccccccccccc" />
      <path
         id="path899-2"
         style="display:inline;fill:#1d1f21;fill-opacity:1;stroke-width:1.33333"
         d="m 525.53998,2434.4132 c 26.99076,12.4457 -20.04931,19.9602 0,0 z m 5.55359,36.2243 c 18.72736,22.588 -31.33558,23.8793 0,0 z m 20.04081,-5.4824 c 37.25488,-8.9815 12.26707,44.9368 0,0 z m 1.24697,38.1771 c 48.32916,-1.5146 -25.48258,-37.8217 0,0 z M 312.73727,2363.4378 c 48.60138,-2.8167 -15.15917,29.4872 0,0 z m 28.51245,20.9132 c 30.98522,42.9474 -28.20425,15.6944 0,0 z m 98.00847,-29.0969 c 32.38822,17.81 -33.25623,20.3872 0,0 z m -89.4119,70.6143 c 62.04244,-5.2143 -42.12662,25.9591 0,0 z m 37.94121,-20.2904 c 31.67191,26.8638 -22.21517,14.354 0,0 z m 53.09685,-1.2933 c 35.30824,0.4151 -31.86371,35.8347 0,0 z m -59.77766,33.9018 c 49.39537,-20.8421 -16.0169,48.7376 0,0 z m -18.75278,-29.2835 c 30.01657,9.5003 -24.97017,16.6558 0,0 z m 107.95358,-11.4488 c 36.21585,7.2608 -23.59675,20.8352 0,0 z m -42.42285,34.587 c 30.53171,20.4101 -35.06841,17.9377 0,0 z m -23.07789,30.0446 c 30.30348,4.1773 -14.31052,27.1218 0,0 z m 38.31453,5.136 c 34.31104,14.6743 -26.65842,35.7517 0,0 z m 14.4777,-20.44 c 19.59995,-28.6289 6.68635,19.7781 0,0 z m 45.9938,-19.1652 c 30.6757,6.0745 -19.28947,28.4113 0,0 z m -14.69188,39.5258 c 23.85669,28.3893 -26.30401,15.0811 0,0 z m 57.07298,60.5005 c 98.06601,33.6193 -116.90337,-13.391 -2.42769,-0.2913 z m -19.86908,-25.8202 c 46.91035,12.1792 -29.64336,27.4403 0,0 z M 417.32765,2391.7549 c 30.37995,9.6006 -20.49298,26.559 0,0 z" />
      <path
         id="path899-2-8"
         style="display:inline;fill:#1d1f21;fill-opacity:1;stroke-width:1.33333"
         d="m 320.36435,2443.2427 c 58.7812,-5.6316 64.20414,59.4582 0,0 z m -29.60546,-95.6317 c 45.80716,111.836 -26.70443,70.4158 0,0 z m 124.16514,143.8785 c 104.54688,38.853 -83.62086,-17.0576 0,0 z" />
    </g>
  </g>
</svg>
