<?xml version="1.0" encoding="UTF-8" standalone="no"?>
<svg
   xmlns:dc="http://purl.org/dc/elements/1.1/"
   xmlns:cc="http://creativecommons.org/ns#"
   xmlns:rdf="http://www.w3.org/1999/02/22-rdf-syntax-ns#"
   xmlns:svg="http://www.w3.org/2000/svg"
   xmlns="http://www.w3.org/2000/svg"
   xmlns:sodipodi="http://sodipodi.sourceforge.net/DTD/sodipodi-0.dtd"
   xmlns:inkscape="http://www.inkscape.org/namespaces/inkscape"
   width="299.18246mm"
   height="225.46751mm"
   viewBox="0 0 299.18246 225.46751"
   version="1.1"
   id="svg8"
   inkscape:version="1.0.2 (e86c870879, 2021-01-15)"
   sodipodi:docname="ram-preparations-for-the-worst.svg">
  <defs
     id="defs2">
    <inkscape:path-effect
       effect="bspline"
       id="path-effect947"
       is_visible="true"
       lpeversion="1"
       weight="33.333333"
       steps="2"
       helper_size="0"
       apply_no_weight="true"
       apply_with_weight="true"
       only_selected="false" />
    <inkscape:path-effect
       effect="bspline"
       id="path-effect943"
       is_visible="true"
       lpeversion="1"
       weight="33.333333"
       steps="2"
       helper_size="0"
       apply_no_weight="true"
       apply_with_weight="true"
       only_selected="false" />
    <inkscape:path-effect
       effect="bspline"
       id="path-effect939"
       is_visible="true"
       lpeversion="1"
       weight="33.333333"
       steps="2"
       helper_size="0"
       apply_no_weight="true"
       apply_with_weight="true"
       only_selected="false" />
    <inkscape:path-effect
       effect="bspline"
       id="path-effect935"
       is_visible="true"
       lpeversion="1"
       weight="33.333333"
       steps="2"
       helper_size="0"
       apply_no_weight="true"
       apply_with_weight="true"
       only_selected="false" />
    <inkscape:path-effect
       effect="bspline"
       id="path-effect931"
       is_visible="true"
       lpeversion="1"
       weight="33.333333"
       steps="2"
       helper_size="0"
       apply_no_weight="true"
       apply_with_weight="true"
       only_selected="false" />
    <inkscape:path-effect
       effect="bspline"
       id="path-effect923"
       is_visible="true"
       lpeversion="1"
       weight="33.333333"
       steps="2"
       helper_size="0"
       apply_no_weight="true"
       apply_with_weight="true"
       only_selected="false" />
    <inkscape:path-effect
       effect="bspline"
       id="path-effect919"
       is_visible="true"
       lpeversion="1"
       weight="33.333333"
       steps="2"
       helper_size="0"
       apply_no_weight="true"
       apply_with_weight="true"
       only_selected="false" />
    <inkscape:path-effect
       effect="bspline"
       id="path-effect915"
       is_visible="true"
       lpeversion="1"
       weight="33.333333"
       steps="2"
       helper_size="0"
       apply_no_weight="true"
       apply_with_weight="true"
       only_selected="false" />
    <inkscape:path-effect
       effect="bspline"
       id="path-effect911"
       is_visible="true"
       lpeversion="1"
       weight="33.333333"
       steps="2"
       helper_size="0"
       apply_no_weight="true"
       apply_with_weight="true"
       only_selected="false" />
    <inkscape:path-effect
       effect="bspline"
       id="path-effect907"
       is_visible="true"
       lpeversion="1"
       weight="33.333333"
       steps="2"
       helper_size="0"
       apply_no_weight="true"
       apply_with_weight="true"
       only_selected="false" />
    <inkscape:path-effect
       effect="bspline"
       id="path-effect899"
       is_visible="true"
       lpeversion="1"
       weight="33.333333"
       steps="2"
       helper_size="0"
       apply_no_weight="true"
       apply_with_weight="true"
       only_selected="false" />
    <inkscape:path-effect
       effect="bspline"
       id="path-effect895"
       is_visible="true"
       lpeversion="1"
       weight="33.333333"
       steps="2"
       helper_size="0"
       apply_no_weight="true"
       apply_with_weight="true"
       only_selected="false" />
    <inkscape:path-effect
       effect="bspline"
       id="path-effect891"
       is_visible="true"
       lpeversion="1"
       weight="33.333333"
       steps="2"
       helper_size="0"
       apply_no_weight="true"
       apply_with_weight="true"
       only_selected="false" />
    <inkscape:path-effect
       effect="bspline"
       id="path-effect887"
       is_visible="true"
       lpeversion="1"
       weight="33.333333"
       steps="2"
       helper_size="0"
       apply_no_weight="true"
       apply_with_weight="true"
       only_selected="false" />
    <inkscape:path-effect
       effect="bspline"
       id="path-effect883"
       is_visible="true"
       lpeversion="1"
       weight="33.333333"
       steps="2"
       helper_size="0"
       apply_no_weight="true"
       apply_with_weight="true"
       only_selected="false" />
    <inkscape:path-effect
       effect="bspline"
       id="path-effect871"
       is_visible="true"
       lpeversion="1"
       weight="33.333333"
       steps="2"
       helper_size="0"
       apply_no_weight="true"
       apply_with_weight="true"
       only_selected="false" />
    <inkscape:path-effect
       effect="bspline"
       id="path-effect863"
       is_visible="true"
       lpeversion="1"
       weight="33.333333"
       steps="2"
       helper_size="0"
       apply_no_weight="true"
       apply_with_weight="true"
       only_selected="false" />
    <inkscape:path-effect
       effect="bspline"
       id="path-effect859"
       is_visible="true"
       lpeversion="1"
       weight="33.333333"
       steps="2"
       helper_size="0"
       apply_no_weight="true"
       apply_with_weight="true"
       only_selected="false" />
    <inkscape:path-effect
       effect="bspline"
       id="path-effect855"
       is_visible="true"
       lpeversion="1"
       weight="33.333333"
       steps="2"
       helper_size="0"
       apply_no_weight="true"
       apply_with_weight="true"
       only_selected="false" />
    <inkscape:path-effect
       effect="bspline"
       id="path-effect851"
       is_visible="true"
       lpeversion="1"
       weight="33.333333"
       steps="2"
       helper_size="0"
       apply_no_weight="true"
       apply_with_weight="true"
       only_selected="false" />
    <inkscape:path-effect
       effect="bspline"
       id="path-effect847"
       is_visible="true"
       lpeversion="1"
       weight="33.333333"
       steps="2"
       helper_size="0"
       apply_no_weight="true"
       apply_with_weight="true"
       only_selected="false" />
    <inkscape:path-effect
       effect="bspline"
       id="path-effect843"
       is_visible="true"
       lpeversion="1"
       weight="33.333333"
       steps="2"
       helper_size="0"
       apply_no_weight="true"
       apply_with_weight="true"
       only_selected="false" />
    <inkscape:path-effect
       effect="bspline"
       id="path-effect839"
       is_visible="true"
       lpeversion="1"
       weight="33.333333"
       steps="2"
       helper_size="0"
       apply_no_weight="true"
       apply_with_weight="true"
       only_selected="false" />
  </defs>
  <sodipodi:namedview
     id="base"
     pagecolor="#ffffff"
     bordercolor="#666666"
     borderopacity="1.0"
     inkscape:pageopacity="0.0"
     inkscape:pageshadow="2"
     inkscape:zoom="0.98994949"
     inkscape:cx="312.72992"
     inkscape:cy="461.51001"
     inkscape:document-units="mm"
     inkscape:current-layer="layer1"
     inkscape:document-rotation="0"
     showgrid="false"
     inkscape:object-nodes="true"
     inkscape:window-width="2560"
     inkscape:window-height="1440"
     inkscape:window-x="0"
     inkscape:window-y="0"
     inkscape:window-maximized="0"
     inkscape:snap-intersection-paths="false"
     inkscape:object-paths="true"
     inkscape:snap-nodes="false"
     fit-margin-top="0"
     fit-margin-left="0"
     fit-margin-right="0"
     fit-margin-bottom="0" />
  <metadata
     id="metadata5">
    <rdf:RDF>
      <cc:Work
         rdf:about="">
        <dc:format>image/svg+xml</dc:format>
        <dc:type
           rdf:resource="http://purl.org/dc/dcmitype/StillImage" />
        <dc:title />
      </cc:Work>
    </rdf:RDF>
  </metadata>
  <g
     inkscape:label="Layer 1"
     inkscape:groupmode="layer"
     id="layer1"
     transform="translate(0.59789807,56.224091)">
    <rect
       style="fill:#282a2e;fill-opacity:1;fill-rule:evenodd;stroke:none;stroke-width:0.273995"
       id="rect8959"
       width="127.68381"
       height="192.44904"
       x="170.90076"
       y="-56.224091" />
    <rect
       style="fill:#282a2e;fill-opacity:1;fill-rule:evenodd;stroke:none;stroke-width:0.23887"
       id="rect8957"
       width="122.84418"
       height="192.71637"
       x="-0.59789807"
       y="-56.491425" />
    <g
       id="g8770"
       inkscape:label="ram">
      <path
         style="mix-blend-mode:normal;fill:#969896;fill-opacity:1;stroke:none;stroke-width:0.304601px;stroke-linecap:butt;stroke-linejoin:miter;stroke-opacity:1"
         d="m 58.665032,46.043549 c -1.021961,-0.769003 -1.815353,-1.921566 -0.360435,-3.16581 1.454918,-1.244247 0.186809,-4.084493 0.230766,-2.054408 0.04396,2.030082 -0.134064,2.400551 -1.619753,1.784976 -1.485685,-0.615573 -3.305432,-2.284547 -5.188911,-0.851326 -1.883482,1.433221 0.131865,-2.436101 -2.395562,-3.287427 -2.527424,-0.851326 -0.285707,-0.198329 0.448345,1.03282 0.734049,1.231148 0.810973,4.273469 -1.830737,6.492527 -2.641711,2.219058 -1.4725,4.728132 -1.4725,4.728132 0,0 1.790754,4.619881 1.131848,1.891628 -0.791557,-3.277509 2.467091,-1.617389 2.553799,-1.573548 z"
         id="path8618"
         sodipodi:nodetypes="cssssssscscc" />
      <path
         style="fill:#969896;fill-opacity:1;stroke:none;stroke-width:0.264583px;stroke-linecap:butt;stroke-linejoin:miter;stroke-opacity:1"
         d="m 51.381932,140.24311 c -1.503923,-0.33362 -1.634082,-2.28481 -3.089101,-2.11093 -1.455018,0.1739 -5.064347,3.4061 -9.289088,3.38195 -4.22474,-0.0241 -8.611621,-1.376 -8.084744,0.17688 0.526878,1.55289 1.741773,7.61007 4.800666,8.13009 3.058895,0.52002 7.046799,-2.09434 10.00904,-2.37661 2.962242,-0.28226 5.411349,0.48081 5.411349,0.48081 z"
         id="path8605" />
      <path
         style="fill:#c5c8c6;fill-opacity:1;stroke:none;stroke-width:0.264583px;stroke-linecap:butt;stroke-linejoin:miter;stroke-opacity:1"
         d="m 92.212161,151.30553 c 2.34046,2.22657 3.03153,6.99175 5.265092,9.15006 2.233563,2.15831 2.936087,3.39349 4.360217,3.75429 1.42413,0.3608 5.14673,2.24932 1.08051,3.02943 -4.066232,0.78012 -10.942539,3.8258 -12.744658,-0.68584 -1.802119,-4.51165 -9.114361,-7.13163 -8.479893,-9.34834 2.836341,-9.90963 -6.498441,-15.33721 10.518732,-5.8996 z"
         id="path8603"
         sodipodi:nodetypes="csssssc" />
      <path
         style="fill:#373b41;fill-opacity:1;stroke:none;stroke-width:0.264583px;stroke-linecap:butt;stroke-linejoin:miter;stroke-opacity:1"
         d="m 81.83909,130.45601 c 0,0 16.532148,1.15067 18.83826,4.96671 2.30611,3.81605 2.39012,12.69631 -2.176278,13.2944 -4.566396,0.5981 -40.211716,-2.69788 -40.211716,-2.69788 z"
         id="path8601" />
      <path
         style="fill:#1d1f21;fill-opacity:1;stroke:none;stroke-width:0.264583px;stroke-linecap:butt;stroke-linejoin:miter;stroke-opacity:1"
         d="m 85.880502,134.5431 c 5.755913,1.93987 5.518328,2.48 7.286678,2.1881 1.768348,-0.29189 2.742973,0.56542 -2.154412,0.71482 -4.897387,0.14939 -6.487549,-1.41813 -5.132266,-2.90292 z"
         id="path8607" />
      <path
         style="fill:#1d1f21;fill-opacity:1;stroke:none;stroke-width:0.264583px;stroke-linecap:butt;stroke-linejoin:miter;stroke-opacity:1"
         d="m 51.745218,139.93436 c -2.978081,3.29598 -1.084323,5.79883 -2.695543,8.17818 -1.611217,2.37934 -1.198862,3.80955 1.175959,2.90592 2.374823,-0.90364 2.428274,-1.52774 4.062404,-0.14953 1.634131,1.37821 0.809427,1.20918 5.062736,0.71511 4.253312,-0.49407 11.66032,-3.01645 18.540455,-3.15947 6.880135,-0.14301 20.980192,2.25909 20.880921,-1.08241 -0.09927,-3.34148 -1.267081,-5.53642 -7.742493,-5.15937 -6.475413,0.37706 -12.588629,-1.52684 -16.849574,0.22841 -4.260946,1.75526 -22.434865,-2.47686 -22.434865,-2.47686 z"
         id="path8599"
         sodipodi:nodetypes="csssssssscc" />
      <path
         style="fill:#373b41;fill-opacity:1;stroke:none;stroke-width:0.264583px;stroke-linecap:butt;stroke-linejoin:miter;stroke-opacity:1"
         d="m 55.434792,85.997923 c -12.695955,4.331608 -6.400718,38.904877 -4.262556,43.118367 2.4283,4.78524 -0.832329,3.96557 -0.15272,5.5973 0.679609,1.63174 0.870519,-0.18202 0.259628,1.43021 -0.610894,1.61223 6.673948,17.99457 18.91462,9.47835 12.24067,-8.51621 0.320718,-35.6446 0.320718,-35.6446 -7.088849,-7.4609 -2.383736,-28.311235 -15.07969,-23.979627 z"
         id="path8597"
         sodipodi:nodetypes="zsssscz" />
      <path
         style="fill:#1d1f21;fill-opacity:1;stroke:none;stroke-width:0.264583px;stroke-linecap:butt;stroke-linejoin:miter;stroke-opacity:1"
         d="m 60.969352,118.32475 c -1.70285,3.5235 -5.66598,19.30126 -9.06405,18.8722 -0.305449,3.99807 1.634114,14.48407 10.759262,10.62252 9.125148,-3.86155 9.896388,-16.0703 9.896388,-16.0703 z"
         id="path8595" />
      <path
         style="fill:#1d1f21;fill-opacity:1;stroke:none;stroke-width:0.264583px;stroke-linecap:butt;stroke-linejoin:miter;stroke-opacity:1"
         d="m 36.072919,140.0546 c 0,0 -7.044741,2.1053 -7.865179,2.76291 -3.795078,3.04188 1.085744,14.993 1.069045,17.24369 3.818054,0.052 6.868682,-0.48105 11.354893,-1.67722 -0.725432,-2.67839 -4.558759,-18.32938 -4.558759,-18.32938 z"
         id="path8591"
         sodipodi:nodetypes="csccc" />
      <path
         style="fill:#373b41;fill-opacity:1;stroke:none;stroke-width:0.264583px;stroke-linecap:butt;stroke-linejoin:miter;stroke-opacity:1"
         d="m 35.496392,140.31789 c -3.797351,1.22533 3.301664,11.06117 5.145404,18.10241 0,0 -2.172507,-20.78988 -5.145404,-18.10241 z"
         id="path8589"
         sodipodi:nodetypes="ccc" />
      <path
         style="fill:#1d1f21;fill-opacity:1;stroke:none;stroke-width:0.264583px;stroke-linecap:butt;stroke-linejoin:miter;stroke-opacity:1"
         d="m 72.430498,130.19981 c 0,0 2.508457,5.85409 4.646566,9.67014 2.138106,3.81604 2.271733,5.48678 1.771573,6.39366 -0.50016,0.90688 1.26759,1.19942 0.515437,2.64913 -0.752152,1.44971 0.393269,2.57437 2.882633,3.58852 2.489364,1.01414 9.621483,-0.96539 9.621483,-0.96539 l -9.655847,-26.76758 z"
         id="path8577"
         sodipodi:nodetypes="cssssccc" />
      <path
         style="fill:#373b41;fill-opacity:1;stroke:none;stroke-width:0.264583px;stroke-linecap:butt;stroke-linejoin:miter;stroke-opacity:1"
         d="m 83.544843,125.09333 c 2.527551,8.21068 1.450853,0.01 4.524388,12.31601 3.073535,12.30627 4.115869,8.14892 3.627152,9.82291 -0.488717,1.67399 -0.351256,2.98393 0.362714,3.96232 0.713973,0.97839 -5.612537,4.59616 -8.812061,2.17781 -3.199527,-2.41834 -4.142589,-4.18335 -3.22244,-4.85295 0.920149,-0.66959 1.645592,-0.006 0.675801,-2.14205 -0.96979,-2.13556 1.301952,-3.73154 0.713971,-6.56594 -0.587979,-2.83441 -8.529524,-17.88731 2.130475,-14.71811 z"
         id="path8575" />
      <g
         id="g8613"
         inkscape:label="head">
        <path
           style="fill:#c5c8c6;fill-opacity:1;stroke:none;stroke-width:0.264583px;stroke-linecap:butt;stroke-linejoin:miter;stroke-opacity:1"
           d="m 74.952669,53.020941 c 0.272679,-2.70065 -4.142452,-5.9083 -11.037663,-7.753936 -6.895214,-1.845638 -11.843352,2.690351 -13.49831,5.037046 -1.654958,2.346693 -5.557485,8.777458 -3.481363,13.542096 2.076125,4.764635 0.69718,9.040525 3.934069,9.941233 3.677001,1.023175 10.047795,4.644603 7.511201,12.279997 -1.390219,4.184691 14.923915,-0.360431 15.85183,-2.695546 3.132236,-10.869506 0.480157,-20.233927 0.720236,-30.35089 z"
           id="path8609"
           sodipodi:nodetypes="cssssscc" />
      </g>
      <path
         style="fill:#b4b7b4;fill-opacity:1;stroke:none;stroke-width:0.264583px;stroke-linecap:butt;stroke-linejoin:miter;stroke-opacity:1"
         d="m 69.827168,84.90474 c -0.105291,-1.569825 -4.640908,-4.036036 -7.55396,-4.569272 -2.913052,-0.533236 -2.092325,-3.369495 -3.947064,-4.700283 -1.85474,-1.330785 -3.517797,-0.986025 -4.233236,-3.629213 -0.715438,-2.64319 0.248375,-6.610276 -0.526457,-4.213016 -0.774832,2.397258 -1.093407,4.828995 1.179801,6.879191 2.273205,2.050195 5.807204,4.399187 5.772107,7.233147 -0.0351,2.833957 -1.433578,4.562377 -1.433578,4.562377 0,0 9.373608,1.075664 10.742387,-1.562931 z"
         id="path8694" />
      <path
         style="fill:#969896;fill-opacity:1;stroke:none;stroke-width:0.264583px;stroke-linecap:butt;stroke-linejoin:miter;stroke-opacity:1"
         d="m 60.752709,47.30179 c 3.184258,2.278575 4.757295,2.246071 7.460472,3.237462 2.703176,0.991394 -0.12981,3.006683 0.622342,4.39138 0.752152,1.384697 -0.94307,-0.256789 -0.381809,-1.969783 0.56126,-1.712995 -4.154041,1.036897 -5.375815,-0.594834 -1.221775,-1.631733 -5.715617,-5.506288 -2.603908,-3.451995 3.111712,2.054294 6.093608,2.450852 0.278718,-1.61223 z"
         id="path8690" />
      <g
         id="g8573"
         inkscape:label="torso">
        <path
           style="fill:#373b41;stroke:none;stroke-width:0.264583px;stroke-linecap:butt;stroke-linejoin:miter;stroke-opacity:1"
           d="m 70.895106,122.90317 c -5.939491,3.83607 -9.225111,6.39882 -10.237523,7.02399 -1.012415,0.62517 -0.434665,0.23674 -0.634447,0.94465 -0.199781,0.70792 -1.125802,0.97683 -0.872027,1.53995 0.253778,0.56311 -0.267274,1.07796 1.231098,-0.0552 1.49837,-1.13313 16.409197,-8.59842 10.512899,-9.45343 z"
           id="path8615" />
        <path
           style="fill:#c5c8c6;fill-opacity:1;stroke:none;stroke-width:0.264583px;stroke-linecap:butt;stroke-linejoin:miter;stroke-opacity:1"
           d="m 74.635941,81.851872 c 4.967282,2.948173 13.738378,-0.304413 15.177783,3.462876 0.313084,4.586409 4.448036,13.512175 2.878816,16.694372 -1.569223,3.18221 0.09546,1.10842 -0.542152,5.41204 -0.637612,4.30361 0.536648,2.40709 -1.238743,10.44874 -3.260617,4.24185 -4.616011,5.32752 -7.666633,7.46307 -3.050622,2.13556 -1.870845,-0.18528 -4.929103,2.42485 -3.058258,2.61013 -7.222036,5.96253 -8.474357,5.32544 -1.25232,-0.63709 -0.69106,0.19178 -1.473766,0.76711 -0.782706,0.57533 -2.714636,0.77037 -3.760785,2.48011 -1.844127,-1.0369 -2.581006,-3.74454 -5.123827,-3.29598 1.458498,-3.42924 3.812887,-2.02967 5.138817,-3.43096 1.695075,-1.79142 7.675821,-4.69894 7.661478,-4.69788 9.243954,-11.88226 0.348569,-36.587925 2.352472,-43.053788 z"
           id="path8569"
           sodipodi:nodetypes="ccsscssssccscc" />
        <path
           style="fill:#373b41;fill-opacity:1;stroke:none;stroke-width:0.264583px;stroke-linecap:butt;stroke-linejoin:miter;stroke-opacity:1"
           d="m 74.424823,82.72757 c -4.06715,3.6491 -7.827861,3.655085 -10.391761,3.612909 -5.453247,-0.08971 -6.905417,0.130087 -6.137988,1.966602 0.767429,1.836515 14.573498,32.771189 14.573498,32.771189 0,0 8.292809,-4.07283 9.1366,-3.21146 0.843791,0.86138 0.614709,-0.7346 2.386282,-1.56347 1.771573,-0.82887 3.947861,-2.32408 5.22691,-1.59272 1.279049,0.73135 0.923959,0.44205 0.534525,-1.60899 -0.389438,-2.05104 -1.669567,-9.33953 0.163098,-10.80224 1.832666,-1.46271 -0.255817,-1.7 -0.534532,-3.572274 -0.278712,-1.872264 1.340141,-3.169201 0.836155,-6.094617 -0.503984,-2.925419 -4.169301,-9.049301 -6.1356,-8.486968 -1.966301,0.562332 -9.657187,-1.417961 -9.657187,-1.417961 z"
           id="path8561"
           sodipodi:nodetypes="csscssssssssc" />
      </g>
      <path
         style="fill:#969896;fill-opacity:1;stroke:none;stroke-width:0.264583px;stroke-linecap:butt;stroke-linejoin:miter;stroke-opacity:1"
         d="m 49.136418,55.558419 c -1.668488,4.238607 -2.28701,2.710892 -1.03469,7.88238 1.252321,5.171487 -0.278717,4.518146 0,7.736107 0.278718,3.21796 0.320715,-0.978392 0.885788,-2.909168 0.565071,-1.930773 0.05346,-6.023115 1.630307,-6.461927 1.576853,-0.438809 5.020739,3.455244 6.017249,-2.577618 0.996509,-6.032863 4.413666,-8.694997 1.970112,-6.835727 -2.443552,1.859266 -8.56007,5.613556 -7.05194,3.178955 1.508128,-2.434601 3.195709,-4.888701 -2.416826,-0.01299 z"
         id="path8688" />
      <path
         style="fill:#1d1f21;fill-opacity:1;stroke:none;stroke-width:0.264583px;stroke-linecap:butt;stroke-linejoin:miter;stroke-opacity:1"
         d="m 65.260284,107.08373 c 1.534856,-3.43249 2.41301,-5.67206 3.860051,-5.34051 1.447038,0.33155 3.959315,2.98068 3.810413,6.21164 -0.148905,3.23096 -3.642421,9.06555 -3.642421,9.06555 z"
         id="path8579" />
      <g
         id="g8565"
         inkscape:label="larm"
         transform="matrix(1.0226819,0,0,1.0226819,-1.1151676,-2.8981773)">
        <path
           style="fill:#b4b7b4;fill-opacity:1;stroke:none;stroke-width:0.264583px;stroke-linecap:butt;stroke-linejoin:miter;stroke-opacity:1"
           d="m 49.30458,92.03774 c 2.252647,-2.795399 10.484364,-3.822546 11.996314,2.356591 1.511951,6.179139 3.19953,13.463429 4.72675,15.615239 1.52722,2.15181 1.427953,5.64931 1.931934,5.06748 0.503981,-0.58184 5.902709,-11.27912 4.558753,-16.294591 0.824695,0.120266 1.676132,1.326191 4.199858,1.209172 2.523725,-0.117014 3.096429,0.09751 4.226573,-0.484319 0.248177,2.762898 -0.607057,4.553898 -1.611209,7.307048 -1.004152,2.75315 -3.867687,13.74947 -6.253972,16.01504 -2.386283,2.26558 -8.239347,6.17263 -9.938383,4.57016 C 61.442163,125.79708 47.639912,100.76199 49.30458,92.03774 Z"
           id="path8559" />
        <path
           style="fill:#373b41;fill-opacity:1;stroke:none;stroke-width:0.264583px;stroke-linecap:butt;stroke-linejoin:miter;stroke-opacity:1"
           d="m 49.363725,92.466458 c 2.481734,-2.307828 9.472589,7.563832 8.655524,10.047192 -0.817065,2.48336 -1.252326,1.52772 0.710155,3.19846 1.962478,1.67074 1.439405,5.15524 2.810086,7.20303 1.370682,2.04779 2.840631,7.99614 2.840631,7.99614 0,0 3.924956,-2.41834 4.955828,-6.13362 1.030872,-3.71528 3.91732,-6.31565 3.256796,-8.54222 -0.660522,-2.22658 0.923975,-1.62199 1.118695,-3.16271 0.194718,-1.54072 -0.492535,-3.474751 -0.492535,-3.474751 0,0 3.718782,0.802861 5.253641,0.416061 0.668157,2.38584 1.863201,2.29483 1.44322,3.17246 -0.419981,0.87762 -3.493516,4.25811 -3.245342,6.34166 0.248176,2.08354 -1.500495,1.74875 -2.466459,5.18774 -0.965965,3.43899 -1.588307,9.11106 -3.199527,9.54662 -1.61122,0.43556 -7.567374,5.49653 -8.697518,1.77474 -3.104462,-7.68841 -12.050091,-19.74188 -12.943195,-33.570802 z"
           id="path8557"
           sodipodi:nodetypes="cssscsssccsssscc" />
      </g>
      <g
         id="g8555"
         inkscape:label="lhand"
         transform="matrix(1.0226819,0,0,1.0226819,-3.0206319,-0.63107907)">
        <path
           style="fill:#e0e0e0;fill-opacity:1;stroke:none;stroke-width:0.264583px;stroke-linecap:butt;stroke-linejoin:miter;stroke-opacity:1"
           d="m 75.603382,77.705304 c 0.259625,1.84301 0.339805,6.172639 1.027054,6.455425 0.687253,0.282787 1.889938,-1.339193 3.180438,-0.838623 1.290499,0.500573 0.423807,0.656593 1.088149,0.809366 0.664339,0.152773 0.286337,0.763857 1.206497,1.007644 0.920157,0.243787 1.874671,0.815867 2.027391,1.680491 0.15272,0.864626 1.588307,4.472641 -0.290171,5.850839 -1.878481,1.378199 -1.595951,4.859444 -1.595951,4.859444 0,0 -5.772888,1.144161 -6.169969,0.188528 -0.397079,-0.955635 -5.120008,-30.986687 -0.473438,-20.013114 z"
           id="path8537" />
        <path
           style="fill:#969896;fill-opacity:1;stroke:none;stroke-width:0.244664px;stroke-linecap:butt;stroke-linejoin:miter;stroke-opacity:1"
           d="m 73.055338,76.463627 c -0.179563,1.732497 0.492985,2.798646 0.284037,4.667666 -0.208947,1.869019 0.297095,9.543367 1.041475,12.358272 0.744378,2.814902 1.456106,4.26136 1.456106,4.26136 0,0 2.752239,1.244926 5.311847,-0.448567 0.04571,-2.226566 0.72478,-8.022142 -0.460341,-7.755606 -1.185119,0.266533 -0.884759,-1.569982 -1.936029,-1.605735 -1.051269,-0.03575 -0.809669,-1.787753 -1.772791,-1.563471 -0.963122,0.224279 -2.3474,-3.474749 -2.197219,-5.662313 0.150179,-2.187562 -0.368925,-7.479316 -1.727085,-4.251606 z"
           id="path8535" />
      </g>
      <g
         id="g8551"
         inkscape:label="rammask"
         transform="translate(-0.44289353,0.29254219)">
        <path
           style="fill:#e0e0e0;fill-opacity:1;stroke:none;stroke-width:0.264583px;stroke-linecap:butt;stroke-linejoin:miter;stroke-opacity:1"
           d="m 61.69856,56.198314 c -3.115532,3.887555 -6.246334,12.40378 -3.039171,15.706249 3.20716,3.302471 8.873154,3.842049 10.728724,2.87991 1.855568,-0.962139 8.330991,5.558298 10.995986,4.992714 2.664997,-0.565581 8.590634,-2.015278 7.773556,-3.939559 -0.817076,-1.924277 0.595598,-3.621016 -1.7105,-4.173598 -2.306095,-0.55258 -6.757942,-2.346838 -7.422282,-6.143381 -0.664339,-3.796544 -1.191247,-10.759038 -4.49767,-12.397275 -3.306424,-1.638236 -12.828643,3.07494 -12.828643,3.07494 z"
           id="path8517" />
        <path
           style="fill:#1d1f21;fill-opacity:1;stroke:none;stroke-width:0.264583px;stroke-linecap:butt;stroke-linejoin:miter;stroke-opacity:1"
           d="m 80.65136,75.18103 c 3.130801,-1.300183 6.658697,-4.264609 6.192885,-2.086795 -0.465815,2.177812 -0.381805,4.303612 -1.901394,4.479137 -1.519589,0.175527 -4.138769,-1.072658 -4.291491,-2.392342 z"
           id="path8511" />
        <path
           style="fill:#1d1f21;fill-opacity:1;stroke:none;stroke-width:0.264583px;stroke-linecap:butt;stroke-linejoin:miter;stroke-opacity:1"
           d="m 76.464938,64.828001 c -0.389442,-3.178955 1.000321,-8.022145 1.343951,-5.681813 0.343631,2.340332 0.755978,4.160597 -1.343951,5.681813 z"
           id="path8513" />
        <path
           style="fill:#1d1f21;fill-opacity:1;stroke:none;stroke-width:0.33812px;stroke-linecap:butt;stroke-linejoin:miter;stroke-opacity:1"
           d="m 71.264295,66.100965 c -3.592179,-2.51555 -5.713308,-2.55368 -6.763473,-0.984932 -1.050165,1.568742 3.709057,4.098461 6.763473,0.984932 z"
           id="path8515" />
        <path
           style="fill:#b4b7b4;fill-opacity:1;stroke:none;stroke-width:0.264583px;stroke-linecap:butt;stroke-linejoin:miter;stroke-opacity:1"
           d="m 61.69856,56.198314 c 0.901054,-7.508578 -6.10888,-17.871061 -14.332966,-16.707395 7.96445,5.220251 10.377469,21.979644 11.026534,22.194179 0.649063,0.214535 3.306432,-5.486784 3.306432,-5.486784 z"
           id="path8519" />
        <path
           style="fill:#969896;fill-opacity:1;stroke:none;stroke-width:0.264583px;stroke-linecap:butt;stroke-linejoin:miter;stroke-opacity:1"
           d="m 38.36263,59.409774 c 0,0 2.924622,3.777038 5.230728,1.657736 -3.665331,0.49407 -4.23041,-9.354838 -2.344285,-11.74718 1.886122,-2.392344 -5.322358,-1.176673 -2.886443,10.089444 z"
           id="path8523" />
        <path
           style="fill:#373b41;fill-opacity:1;stroke:none;stroke-width:0.264583px;stroke-linecap:butt;stroke-linejoin:miter;stroke-opacity:1"
           d="m 47.365594,39.490919 c 0,0 -14.898031,6.058869 -9.002964,19.918855 -1.237051,-9.686385 7.315385,-15.238188 9.155687,-13.911995 1.840299,1.326194 7.918643,8.841268 8.262262,17.266475 0.343623,8.425204 3.199527,-1.306687 3.199527,-1.306687 1.653588,-3.436405 -3.813244,-21.812612 -11.614512,-21.966648 z"
           id="path8521"
           sodipodi:nodetypes="ccsscc" />
        <path
           style="fill:#e0e0e0;fill-opacity:1;stroke:none;stroke-width:0.264583px;stroke-linecap:butt;stroke-linejoin:miter;stroke-opacity:1"
           d="m 68.634064,35.614805 c 0.335992,4.553903 3.233227,8.823477 3.462519,12.441232 0.15646,2.468623 -7.606008,-4.756063 -3.462519,-12.441232 z"
           id="path8531"
           sodipodi:nodetypes="csc" />
        <path
           style="fill:#b4b7b4;fill-opacity:1;stroke:none;stroke-width:0.264583px;stroke-linecap:butt;stroke-linejoin:miter;stroke-opacity:1"
           d="m 68.706086,35.697628 c -1.027057,5.090229 1.869381,12.323019 1.869381,12.323019 l -4.702743,-2.071295 -1.251952,-7.095523 c 0,0 -0.05345,-8.538969 4.085314,-3.156201 z"
           id="path8529"
           sodipodi:nodetypes="ccccc" />
        <path
           style="fill:#b4b7b4;fill-opacity:1;stroke:none;stroke-width:0.264583px;stroke-linecap:butt;stroke-linejoin:miter;stroke-opacity:1"
           d="M 77.44942,57.439991 C 81.989088,51.543648 83.222313,37.189589 78.3123,32.768958 73.402287,28.348326 67.824116,30.62365 67.824116,30.62365 c 0,0 11.935225,7.001502 9.274043,25.545409 0.06873,0.474567 0.351261,1.270932 0.351261,1.270932 z"
           id="path8527" />
        <path
           style="fill:#373b41;fill-opacity:1;stroke:none;stroke-width:0.264583px;stroke-linecap:butt;stroke-linejoin:miter;stroke-opacity:1"
           d="m 74.979143,53.324902 c 2.829176,-4.095586 -0.454345,-15.966286 -4.364032,-17.31523 -3.909685,-1.348944 -6.208152,0.08126 -5.910345,2.925419 -0.713975,-4.745678 1.607399,-10.385237 6.066883,-8.373198 4.459486,2.012038 12.595754,14.139527 6.337966,25.561661 -1.771578,-2.116053 -2.130472,-2.798652 -2.130472,-2.798652 z"
           id="path8525" />
        <path
           style="fill:#e0e0e0;fill-opacity:1;stroke:none;stroke-width:0.264583px;stroke-linecap:butt;stroke-linejoin:miter;stroke-opacity:1"
           d="m 40.402872,56.724891 c 0,0 1.519589,4.176844 3.401885,3.751035 1.882299,-0.42581 1.84412,-0.633842 2.474098,-1.846263 -1.114872,3.549504 -5.658355,3.728286 -5.875983,-1.904772 z"
           id="path8533" />
      </g>
      <path
         style="fill:#969896;fill-opacity:1;stroke:none;stroke-width:0.264583px;stroke-linecap:butt;stroke-linejoin:miter;stroke-opacity:1"
         d="m 59.594064,132.98018 c -2.68791,2.95142 -4.58548,3.30572 -4.803111,5.11948 -0.217628,1.81376 0.481079,7.14452 1.47759,6.74147 0.99651,-0.40306 1.416497,0.21453 2.447369,-0.25679 1.030875,-0.47132 2.004478,-0.052 3.146073,-0.46156 1.141598,-0.40956 2.260288,-2.31109 2.260288,-2.31109 0,0 -1.473772,1.10516 -1.721943,0.22104 -0.248171,-0.88413 0.160359,-3.27322 1.431769,-3.58202 1.27141,-0.30879 0.263446,-3.50075 0.263446,-3.50075 0,0 -2.187739,-2.8474 -4.501481,-1.96978 z"
         id="path8581" />
      <path
         style="fill:#e0e0e0;fill-opacity:1;stroke:none;stroke-width:0.264583px;stroke-linecap:butt;stroke-linejoin:miter;stroke-opacity:1"
         d="m 60.304221,133.25647 c -3.18754,3.67094 -1.897556,2.35709 -0.209991,1.56022 0.622497,-0.29394 -2.588638,2.91241 0.885786,0.67284 1.024014,-0.66007 2.293426,1.4979 1.286684,2.09331 -2.023007,1.19645 -1.426207,4.65559 -0.412353,5.34052 0.980764,0.66257 -0.150685,-3.29877 0.633796,-3.8193 1.056249,-0.70086 3.639184,-5.39009 -2.183922,-5.84759 z"
         id="path8583"
         sodipodi:nodetypes="csssssc" />
      <path
         style="fill:#c5c8c6;fill-opacity:1;stroke:none;stroke-width:0.264583px;stroke-linecap:butt;stroke-linejoin:miter;stroke-opacity:1"
         d="m 64.036207,138.28923 c 3.432424,-0.76387 16.612332,-6.21165 17.116316,-4.36213 0.503986,1.84952 1.683763,4.04033 -0.404712,3.8193 -2.088476,-0.22103 -17.326313,4.65142 -17.326313,4.65142 -1.339167,0.98398 -1.911476,-3.00167 0.614709,-4.10859 z"
         id="path8585"
         sodipodi:nodetypes="csscc" />
      <path
         style="fill:#c5c8c6;fill-opacity:1;stroke:none;stroke-width:0.366619px;stroke-linecap:butt;stroke-linejoin:miter;stroke-opacity:1"
         d="m 54.872872,139.76296 c 0,0 -11.45033,3.40348 -15.87927,2.08155 -4.42894,-1.3219 -2.739091,5.26742 -1.257683,4.53112 1.481405,-0.7363 16.090807,-2.69934 17.633301,-2.74299 -0.393258,-2.33022 -0.496348,-3.86968 -0.496348,-3.86968 z"
         id="path8587"
         sodipodi:nodetypes="csscc" />
      <path
         style="fill:#969896;fill-opacity:1;stroke:none;stroke-width:0.264583px;stroke-linecap:butt;stroke-linejoin:miter;stroke-opacity:1"
         d="m 29.12498,158.88895 c 1.481404,0.0536 8.791538,-0.019 11.038462,-1.94541 0.551706,1.14741 0.498253,1.44158 0.498253,1.44158 -3.707113,1.11715 -7.548557,1.81331 -11.383995,1.72437 z"
         id="path8593"
         sodipodi:nodetypes="ccccc" />
      <path
         style="fill:#969896;fill-opacity:1;stroke:none;stroke-width:0.264583px;stroke-linecap:butt;stroke-linejoin:miter;stroke-opacity:1"
         d="m 49.43716,70.504367 c 1.800746,3.507398 -0.054,4.746251 2.424393,6.30918 2.478389,1.56293 1.884439,5.493239 2.154417,4.029141 0.269978,-1.464099 -1.916839,-4.734761 -1.220297,-4.785323 0.696542,-0.05056 3.32612,-0.903278 3.995661,1.946771 0.669541,2.850047 1.328283,2.06628 2.003227,4.252082 0.674942,2.1858 -1.31479,4.458952 -0.564255,3.213204 0.750536,-1.245748 1.527989,-0.876312 0.580456,-5.019767 -0.969221,-4.238299 -4.346635,-4.534792 -6.098783,-7.761783 -1.752147,-3.22699 -3.274819,-2.183505 -3.274819,-2.183505 z"
         id="path8692"
         sodipodi:nodetypes="cssssssssc" />
      <path
         style="fill:#969896;fill-opacity:1;stroke:none;stroke-width:0.264583px;stroke-linecap:butt;stroke-linejoin:miter;stroke-opacity:1"
         d="m 55.618276,68.81346 c -0.251076,2.484596 -1.168998,2.461614 -0.826127,3.112068 0.342868,0.650452 2.337999,0.719408 0.826127,-3.112068 z"
         id="path8696" />
      <path
         style="fill:#373b41;fill-opacity:1;stroke:none;stroke-width:0.264583px;stroke-linecap:butt;stroke-linejoin:miter;stroke-opacity:1"
         d="m 79.177867,74.825818 c -4.136046,-3.397073 -6.706227,-7.672147 -8.012915,-9.772909 -1.306687,-2.100763 -7.861733,-2.886824 -4.654404,-1.558335 3.207332,1.328491 3.320725,0.652756 4.427627,2.105361 1.106903,1.452602 2.52158,5.300175 8.239692,9.225883 z"
         id="path8716" />
      <path
         style="fill:#373b41;fill-opacity:1;stroke:none;stroke-width:0.264583px;stroke-linecap:butt;stroke-linejoin:miter;stroke-opacity:1"
         d="m 85.0526,72.008238 c -2.780763,-0.946951 -8.875493,-4.155554 -9.285859,-5.585171 -0.410366,-1.429621 -0.330727,-3.852167 -0.141738,-4.937022 0.188987,-1.084858 0.345573,-3.024727 -0.05939,-1.163003 -0.404969,1.861725 -1.034008,5.633445 0.693843,7.076855 1.727851,1.443411 6.714323,4.360112 8.793147,4.608341 z"
         id="path8718"
         sodipodi:nodetypes="sssssss" />
    </g>
    <g
       id="g8955"
       inkscape:label="peacock">
      <path
         style="fill:#969896;fill-opacity:1;stroke:none;stroke-width:0.264583px;stroke-linecap:butt;stroke-linejoin:miter;stroke-opacity:1"
         d="m 233.66458,75.377618 c -0.82613,1.420429 -1.60993,3.125052 -1.60993,3.125052 l 5.4787,18.714598 5.88176,-21.367741 c 0,0 -0.13935,-1.508498 0.29801,-3.726479 0.43737,-2.217981 -10.04854,3.25457 -10.04854,3.25457 z"
         id="path8913"
         sodipodi:nodetypes="ccccsc" />
      <path
         style="fill:#969896;stroke:none;stroke-width:0.264583px;stroke-linecap:butt;stroke-linejoin:miter;stroke-opacity:1"
         d="m 254.97225,86.631228 c 3.43624,2.353339 6.99223,16.432622 6.15989,20.820752 -0.83234,4.38813 -3.35226,10.70704 -1.13015,14.77012 2.22211,4.06308 -6.90303,16.1028 -6.90303,16.1028 l -7.86519,-17.37049 z"
         id="path8917"
         sodipodi:nodetypes="cssccc" />
      <path
         style="fill:#969896;fill-opacity:1;stroke:none;stroke-width:0.304515px;stroke-linecap:butt;stroke-linejoin:miter;stroke-opacity:1"
         d="m 226.68383,72.282165 c 0.73331,2.431046 0.62146,3.092376 2.33975,3.264321 1.7183,0.171947 12.24561,-2.071283 13.64076,-4.877964 1.39514,-2.806679 3.27192,-5.417609 3.27192,-5.417609 z"
         id="path8911" />
      <path
         style="fill:#c5c8c6;fill-opacity:1;stroke:none;stroke-width:0.304515px;stroke-linecap:butt;stroke-linejoin:miter;stroke-opacity:1"
         d="m 227.15587,45.542095 c -0.40867,-3.093843 3.23859,-2.712255 5.51045,-5.424512 2.27185,-2.712257 4.80296,-1.346778 3.11994,-1.39541 -1.68301,-0.04864 -3.36162,1.402892 -2.13123,0.901593 1.2304,-0.501301 5.14572,-2.023906 8.09869,-0.299285 2.95296,1.724622 5.94987,2.237146 6.64856,4.55659 0.69869,2.319448 5.34784,3.228519 4.45141,7.549426 -0.89643,4.320907 1.12934,11.612201 -2.16637,14.481582 -3.29573,2.869378 -6.17399,2.682327 -6.96497,4.713715 -0.79097,2.031387 3.29133,-23.699511 -16.56648,-25.083699 z"
         id="path8897" />
      <path
         style="fill:#373b41;fill-opacity:1;stroke:none;stroke-width:0.304515px;stroke-linecap:butt;stroke-linejoin:miter;stroke-opacity:1"
         d="m 225.00394,66.230021 c -1.11859,-5.221857 -1.29883,-7.893626 -0.85759,-9.761221 0.44122,-1.867598 1.32367,-3.290772 1.45419,-4.549948 0.1305,-1.259172 0.13671,-5.153073 1.41689,-6.539223 1.28018,-1.386149 10.91882,-8.232228 16.55535,-0.296274 5.63652,7.935952 4.89078,13.501699 3.93375,18.914015 -0.95703,5.412319 -17.46265,8.041769 -17.46265,8.041769 z"
         id="path8846" />
      <path
         style="fill:#969896;fill-opacity:1;stroke:none;stroke-width:0.304515px;stroke-linecap:butt;stroke-linejoin:miter;stroke-opacity:1"
         d="m 231.08196,54.890145 c 0.37954,5.024887 -12.01399,17.044195 -14.72966,19.004503 3.24394,-0.194258 17.46481,-13.179035 14.72966,-19.004503 z"
         id="path8782"
         sodipodi:nodetypes="ccc" />
      <path
         style="fill:#b4b7b4;fill-opacity:1;stroke:none;stroke-width:0.304515px;stroke-linecap:butt;stroke-linejoin:miter;stroke-opacity:1"
         d="m 232.98368,43.092696 c -5.08859,8.761522 0.40427,12.944012 -2.97054,17.35096 -3.37482,4.406949 -10.35296,12.674659 -14.0881,13.684738 7.90094,-0.02244 10.63418,-2.386782 13.99142,-2.080022 1.85439,-3.494135 2.03896,-15.248496 1.56437,-18.795005 -0.47458,-3.546509 -0.0176,-7.078053 1.50285,-10.160671 z"
         id="path8772" />
      <path
         style="fill:#969896;fill-opacity:1;stroke:none;stroke-width:0.304515px;stroke-linecap:butt;stroke-linejoin:miter;stroke-opacity:1"
         d="m 228.85174,66.198808 c 1.81923,-2.300741 0.3779,-2.880603 -0.75143,-1.604908 1.4677,-0.314251 1.04585,0.168349 0.75143,1.604908 z"
         id="path8774" />
      <path
         style="fill:#1d1f21;fill-opacity:1;stroke:none;stroke-width:0.304515px;stroke-linecap:butt;stroke-linejoin:miter;stroke-opacity:1"
         d="m 226.88101,55.805088 c -1.63908,-2.551391 -1.33587,-2.674848 -1.12935,-3.860757 -1.36662,2.667366 -0.82612,4.500471 1.12935,3.860757 z"
         id="path8776" />
      <path
         style="fill:#1d1f21;fill-opacity:1;stroke:none;stroke-width:0.304515px;stroke-linecap:butt;stroke-linejoin:miter;stroke-opacity:1"
         d="m 236.12659,57.757913 c 3.02767,-1.829372 5.45333,-1.821884 6.57387,-0.60979 -3.26496,3.157438 -4.03836,2.652399 -6.57387,0.60979 z"
         id="path8778" />
      <path
         style="fill:#969896;fill-opacity:1;stroke:none;stroke-width:0.304515px;stroke-linecap:butt;stroke-linejoin:miter;stroke-opacity:1"
         d="m 231.78724,56.663352 c 3.73954,-5.757463 6.60023,-11.398957 11.63609,-11.563563 1.85439,2.817005 2.18396,3.097582 2.18396,3.097582 0,0 -5.9191,-1.78448 -13.97824,12.394079 -0.0131,-2.278295 0.15819,-3.928098 0.15819,-3.928098 z"
         id="path8784" />
      <path
         style="fill:#969896;fill-opacity:1;stroke:none;stroke-width:0.187197px;stroke-linecap:butt;stroke-linejoin:miter;stroke-opacity:1"
         d="m 229.99029,57.249482 c -1.41317,-5.757463 -1.10563,-11.556082 -3.00869,-11.720688 -1.70581,2.15051 -0.99839,3.686278 -0.98351,3.696149 0,0 1.00644,-2.225922 4.05198,11.952636 0.005,-2.278295 -0.0597,-3.928097 -0.0597,-3.928097 z"
         id="path8784-9"
         sodipodi:nodetypes="sccccs" />
      <path
         style="fill:#969896;fill-opacity:1;stroke:none;stroke-width:0.304515px;stroke-linecap:butt;stroke-linejoin:miter;stroke-opacity:1"
         d="m 231.55923,64.187594 c 6.79012,1.013298 13.37691,3.027067 16.83655,-0.635989 1.05659,-2.613174 -0.4515,-3.934997 -0.4515,-3.934997 0,0 -0.3613,4.860258 -16.32103,1.503458 0.0948,1.284195 -0.39181,3.019466 -0.064,3.067528 z"
         id="path8784-2"
         sodipodi:nodetypes="ccccc" />
      <path
         style="fill:#969896;fill-opacity:1;stroke:none;stroke-width:0.164102px;stroke-linecap:butt;stroke-linejoin:miter;stroke-opacity:1"
         d="m 227.52983,62.896698 c -1.7457,-0.867905 -2.67581,-1.598331 -3.402,-3.448298 -0.30683,-2.885101 -0.071,-3.246422 -0.071,-3.246422 0,0 -0.12794,3.926324 4.50685,4.676914 0.0459,2.252102 -1.03384,2.017806 -1.03384,2.017806 z"
         id="path8784-2-9"
         sodipodi:nodetypes="ccccc" />
      <path
         style="fill:#b4b7b4;fill-opacity:1;stroke:none;stroke-width:0.455661px;stroke-linecap:butt;stroke-linejoin:miter;stroke-opacity:1"
         d="m 236.09463,41.404311 c -2.42633,-8.004994 0.0138,-11.240573 0.33533,-12.87516 -1.38084,-1.17556 2.55125,-0.862074 1.56494,0.02237 -0.98631,0.884465 -3.53756,0.33028 -1.90027,12.852767 z"
         id="path8848" />
      <path
         style="fill:#b4b7b4;fill-opacity:1;stroke:none;stroke-width:0.455661px;stroke-linecap:butt;stroke-linejoin:miter;stroke-opacity:1"
         d="m 234.94623,41.947083 c -2.42631,-8.004996 0.0138,-11.240573 0.33535,-12.87516 -1.38085,-1.17556 2.55124,-0.862074 1.56494,0.02237 -0.98632,0.884465 -3.53756,0.33028 -1.90029,12.852767 z"
         id="path8848-8" />
      <path
         style="fill:#b4b7b4;fill-opacity:1;stroke:none;stroke-width:0.455661px;stroke-linecap:butt;stroke-linejoin:miter;stroke-opacity:1"
         d="m 236.41591,42.040984 c -1.43853,-8.004994 1.40081,-11.240572 1.92408,-12.875159 -1.23579,-1.17556 2.65761,-0.862074 1.56218,0.02237 -1.09546,0.884464 -3.57832,0.33028 -3.48626,12.852767 z"
         id="path8848-1" />
      <path
         style="fill:#c5c8c6;fill-opacity:1;stroke:none;stroke-width:0.264583px;stroke-linecap:butt;stroke-linejoin:miter;stroke-opacity:1"
         d="m 232.05465,78.50267 c -1.55237,0.636664 -3.74575,1.133801 -2.96725,2.036682 2.10247,2.438407 7.38917,25.791668 7.38917,25.791668 0,0 10.71903,-24.019183 10.00359,-25.745301 -0.71544,-1.726116 0.28197,-0.986896 -0.56036,-1.793645 -0.84232,-0.806749 -2.37244,-3.651911 -2.52632,-2.872745 -0.15389,0.779166 -2.00063,2.888037 -3.24522,3.736156 -1.24459,0.848119 -0.0378,2.440927 -0.93682,6.511441 -0.89902,4.07051 -1.70626,8.72483 -1.70626,8.72483 0.38877,-3.49361 0.28618,-10.517604 -0.27807,-12.041459 -0.56425,-1.523854 0.88552,-1.769785 -0.0189,-2.300724 -0.90443,-0.530937 -3.89277,2.651081 -5.15356,-2.046903 z"
         id="path8895"
         sodipodi:nodetypes="cscssssscssc" />
      <path
         style="fill:#373b41;fill-opacity:1;stroke:none;stroke-width:0.264583px;stroke-linecap:butt;stroke-linejoin:miter;stroke-opacity:1"
         d="m 218.33517,87.993265 c 0,0 9.52888,-5.351368 10.87877,-7.134943 1.34988,-1.783578 7.38901,18.002584 7.416,24.001478 0.45897,-5.870184 10.45245,-19.098836 8.6922,-24.182956 -1.76024,-5.084119 6.98273,2.686024 9.65011,5.954384 -0.0432,7.7457 1.51041,12.450008 -0.43883,19.690052 -1.94923,7.24004 -7.38633,22.60928 -5.98785,24.84795 1.39848,2.23867 2.21813,1.81918 0.55075,4.30725 -3.95224,5.89752 -19.0258,-7.83459 -32.2772,2.48347 0.28618,-6.38503 1.38769,-3.15343 1.36069,-5.89776 -0.027,-2.74432 -0.73974,-0.34476 0.19978,-5.48404 0.93952,-5.13928 -1.98703,-14.36057 -1.56587,-19.863 0.42117,-5.50244 1.52145,-18.721885 1.52145,-18.721885 z"
         id="path8893"
         sodipodi:nodetypes="cscscssscsssc" />
      <g
         id="g949">
        <path
           style="fill:#1d1f21;fill-opacity:1;stroke:none;stroke-width:0.264583px;stroke-linecap:butt;stroke-linejoin:miter;stroke-opacity:1"
           d="m 208.26665,73.11787 c 0.21702,-4.353507 0.85858,-8.453648 0.85858,-8.453648 0,0 0.0372,7.207506 -0.009,9.570592 -0.64143,0.02925 -0.91061,0.09914 -0.91061,0.09914 z"
           id="path8879"
           sodipodi:nodetypes="scccs" />
        <path
           style="fill:#373b41;fill-opacity:1;stroke:none;stroke-width:0.264583px;stroke-linecap:butt;stroke-linejoin:miter;stroke-opacity:1"
           d="m 209.10519,65.092473 c 1.4165,-0.451815 2.07357,-0.926398 1.54727,-2.752332 -0.52314,-1.814971 1.43117,-1.628325 1.02705,-3.256968 -0.17945,2.564619 -3.7341,2.285761 -3.94786,1.525284 -0.19668,-0.699664 0.11836,-1.544784 -1.09578,-1.970597 2.06647,1.669241 -1.36464,5.719361 2.46932,6.454613 z"
           id="path8885"
           sodipodi:nodetypes="cscscc" />
        <path
           style="fill:#969896;fill-opacity:1;stroke:none;stroke-width:0.264583px;stroke-linecap:butt;stroke-linejoin:miter;stroke-opacity:1"
           d="m 209.12523,64.647971 c 2.00066,-0.438811 0.59944,-2.493108 0.62616,-5.194244 0.0267,-2.701137 -2.47027,-3.130201 -1.76394,-4.820441 -1.8632,2.993678 1.94339,3.611263 0.34363,5.66556 -1.59976,2.054296 -0.77125,4.904957 0.79415,4.349125 z"
           id="path8883" />
        <path
           style="fill:#b4b7b4;fill-opacity:1;stroke:none;stroke-width:0.264583px;stroke-linecap:butt;stroke-linejoin:miter;stroke-opacity:1"
           d="m 208.90379,64.628469 c -1.66849,-1.563476 1.03087,-1.612233 0.0916,-3.533259 0.9087,1.498465 1.63413,2.330587 -0.0916,3.533259 z"
           id="path8881" />
        <path
           style="fill:#969896;fill-opacity:1;stroke:none;stroke-width:0.264583px;stroke-linecap:butt;stroke-linejoin:miter;stroke-opacity:1"
           d="m 204.32084,78.2233 c -0.21058,-3.277552 -0.19438,-3.259172 1.30669,-4.054425 1.50107,-0.795252 2.43519,-3.737231 2.66197,-2.220274 0.22678,1.516956 -0.43197,2.620203 0.19438,2.31681 0.62635,-0.303392 0.77754,-2.326005 0.77754,-2.326005 0,0 1.80345,-1.025101 2.3326,-0.62977 0.52916,0.39533 3.13713,0.795257 3.96866,2.252458 0.83153,1.4572 2.66198,3.010942 2.12742,4.918633 -0.53455,1.907691 -11.38223,4.431359 -13.36926,-0.257427 z"
           id="path8889" />
        <path
           style="fill:#373b41;fill-opacity:1;stroke:none;stroke-width:0.264583px;stroke-linecap:butt;stroke-linejoin:miter;stroke-opacity:1"
           d="m 207.58216,84.594538 c -2.3056,-3.066103 -4.24404,-7.488272 -2.3056,-6.39422 1.93843,1.094052 3.95786,2.381166 6.29046,-0.482674 2.3326,-2.863836 3.01834,-4.647411 3.65549,-2.799477 0.63715,1.847932 1.12311,-0.353962 1.54427,1.333085 0.42116,1.687044 0.88553,0.376944 0.70194,2.404152 -0.0918,1.013605 -1.04076,2.946583 -2.72812,4.402062 0.55885,4.018227 -8.42193,7.791092 -7.15844,1.537072 z"
           id="path8887"
           sodipodi:nodetypes="cssssscc" />
        <path
           style="fill:#c5c8c6;fill-opacity:1;stroke:none;stroke-width:0.264583px;stroke-linecap:butt;stroke-linejoin:miter;stroke-opacity:1"
           d="m 207.63344,86.723805 c -1.13391,-0.99752 -1.98703,5.71848 -1.03131,4.59685 0.95572,-1.12164 -1.30129,5.74606 -0.57775,9.474115 0.72353,3.72805 0.65334,5.95753 0.0216,7.13432 -0.63175,1.17679 0,1.43881 0.57235,5.37831 0.57235,3.93951 0.85224,4.47639 4.35743,4.44056 6.21153,-0.0635 8.57577,-13.49235 8.87144,-17.789821 0.27264,-3.962861 1.07898,-13.459805 1.07898,-13.459805 0,0 -4.82988,3.175177 -5.46163,5.119642 -0.63174,1.94447 1.68288,-9.711679 0.41939,-8.346413 -1.2635,1.365269 -5.18896,6.320682 -8.2505,3.452242 z"
           id="path8891"
           sodipodi:nodetypes="csssssscssc" />
      </g>
      <path
         style="fill:#c5c8c6;fill-opacity:1;stroke:none;stroke-width:0.357243px;stroke-linecap:butt;stroke-linejoin:miter;stroke-opacity:1"
         d="m 244.4559,69.961921 c -0.86311,3.134949 -0.62646,2.233593 0.60557,2.581788 1.23201,0.348209 -2.10211,5.183903 1.97678,3.262875 4.0789,-1.921029 -2.45011,4.296434 0.16007,4.274285 2.61022,-0.02217 -2.67285,2.09699 -2.18562,5.007573 0.48725,2.910564 -2.97911,3.205714 -1.5522,5.203774 1.42692,1.99805 -2.08121,2.10102 -1.83063,4.67454 0.25058,2.57352 4.32948,1.34159 -0.18103,5.748394 5.56845,-5.072744 1.78191,-3.347194 3.18098,-6.270624 1.39908,-2.92342 -1.16453,-1.87705 1.29254,-4.30929 2.4571,-2.43223 -1.28893,-2.13114 1.28648,-4.570362 2.57542,-2.439222 0.0521,-2.230677 2.43951,-5.079621 2.38748,-2.848956 -1.05528,-2.903308 0.63615,-5.407874 1.6914,-2.504551 -3.13418,-3.029586 -2.22236,-5.021518 0.91184,-1.991945 -0.24439,-3.564095 -3.60634,-0.09387 z"
         id="path8899"
         sodipodi:nodetypes="csssssscsssssscc" />
      <path
         style="fill:#969896;fill-opacity:1;stroke:none;stroke-width:0.264583px;stroke-linecap:butt;stroke-linejoin:miter;stroke-opacity:1"
         d="m 250.96464,136.545 c 5.67362,-7.19653 16.73833,-20.54293 19.74696,-20.85498 3.00861,-0.31205 7.33829,-3.31251 7.97209,1.05965 0.60741,4.19008 6.30481,21.89333 3.8721,28.29014 -1.17973,3.1021 1.25232,2.32082 1.08431,4.57665 -0.16798,2.25583 1.17597,3.25698 1.22177,5.20725 -2.31373,-0.013 -10.06438,-0.7411 -11.94285,1.02065 -1.14543,-4.03058 0.83998,-2.8344 0.61852,-5.13574 -0.22146,-2.30133 -2.81773,-5.49978 -2.81773,-14.39306 -14.24581,20.73024 -19.80753,0.34771 -19.75517,0.22944 z"
         id="path8903"
         sodipodi:nodetypes="cssssccscc" />
      <path
         style="fill:#c5c8c6;fill-opacity:1;stroke:none;stroke-width:0.264583px;stroke-linecap:butt;stroke-linejoin:miter;stroke-opacity:1"
         d="m 216.78493,137.57637 c -0.47344,11.89671 0.81707,12.85233 5.02456,14.48407 4.20748,1.63174 35.40096,-4.74566 35.40096,-4.74566 1.77382,1.05709 12.00645,-8.88071 3.74986,-9.5086 -9.31903,-0.70869 -40.16002,-8.42262 -44.17538,-0.22981 z"
         id="path8901"
         sodipodi:nodetypes="cscsc" />
      <path
         style="fill:#c5c8c6;fill-opacity:1;stroke:none;stroke-width:0.264583px;stroke-linecap:butt;stroke-linejoin:miter;stroke-opacity:1"
         d="m 263.57188,140.08618 c 0.60325,6.72196 2.16101,10.19996 -5.95617,13.48293 -8.11717,3.28298 -25.55039,3.00343 -26.09256,4.40113 -0.54216,1.3977 -1.7563,-0.76711 -4.1464,0.94264 -0.1069,-3.00993 -0.71015,-5.6168 -2.95517,-6.2604 -2.24501,-0.64359 39.1503,-12.5663 39.1503,-12.5663 z"
         id="path8905" />
      <path
         style="fill:#969896;fill-opacity:1;stroke:none;stroke-width:0.264583px;stroke-linecap:butt;stroke-linejoin:miter;stroke-opacity:1"
         d="m 223.86018,151.52059 c -4.36279,-1.59653 -2.05606,-1.07518 -4.61221,-0.54608 -2.49378,0.51618 -5.98483,1.84086 -2.84826,5.23974 0.45167,0.48945 4.10457,5.89496 3.64241,9.33534 -0.44562,3.31732 2.60392,4.00459 7.18558,3.58202 4.58166,-0.42256 6.66631,-0.95565 3.6806,-2.95143 -2.98572,-1.99578 -3.97252,-5.97214 -3.59835,-8.29947 0.37416,-2.32733 -0.51755,-6.13259 -3.44977,-6.36012 z"
         id="path8907"
         sodipodi:nodetypes="cssssssc" />
      <path
         style="fill:#373b41;fill-opacity:1;stroke:none;stroke-width:0.264583px;stroke-linecap:butt;stroke-linejoin:miter;stroke-opacity:1"
         d="m 274.07559,155.13917 c 0.42765,2.51586 -2.62681,3.86805 -1.22177,6.55294 1.40505,2.68489 1.82505,1.37169 7.64374,1.05965 2.38191,-0.40936 12.53325,0.89102 14.78142,-0.0649 1.70947,-2.06471 -3.81116,-3.22002 -4.80953,-3.38166 0,0 -5.37497,-1.13004 -9.10901,-4.73806 -4.76493,-1.08566 -7.28485,0.57208 -7.28485,0.57208 z"
         id="path8909"
         sodipodi:nodetypes="csccsccc" />
      <path
         style="fill:#373b41;fill-opacity:1;stroke:none;stroke-width:0.304515px;stroke-linecap:butt;stroke-linejoin:miter;stroke-opacity:1"
         d="m 242.56801,70.85634 c -3.06062,1.981344 -6.89181,3.859863 -8.79966,3.952448 3.2415,1.381562 8.54569,-1.414178 8.79966,-3.952448 z"
         id="path8915"
         sodipodi:nodetypes="ccc" />
      <path
         style="fill:#969896;fill-opacity:1;stroke:none;stroke-width:0.267648px;stroke-linecap:butt;stroke-linejoin:miter;stroke-opacity:1"
         d="m 220.7642,150.12772 c 6.42098,-1.7254 15.91722,-4.26888 20.3864,-3.17603 4.46918,1.09287 13.52586,-4.91202 12.10174,-3.6448 -1.42413,1.26722 -3.53498,2.23965 -1.87824,2.61459 1.65672,0.37494 3.00134,0.26878 -5.02584,1.26222 -18.25301,2.25898 -22.75667,2.91431 -25.58406,2.94402 z"
         id="path8919"
         sodipodi:nodetypes="cssssc" />
      <path
         style="fill:#282a2e;stroke:none;stroke-width:0.264583px;stroke-linecap:butt;stroke-linejoin:miter;stroke-opacity:1"
         d="m 254.97225,86.631227 -3.05031,-3.184562 c -0.74789,17.521515 -2.69732,27.547395 -5.39045,32.933925 l -1.29772,4.57382 c 0.24862,1.81031 0.22943,3.71797 2.21695,4.8962 -0.40364,1.66422 -0.63918,3.37779 -2.17685,4.70911 1.70088,1.92296 2.61548,3.70295 2.22199,5.24507 0.12562,0.12291 3.12934,-1.07869 2.52301,-2.14205 -0.29159,-0.51139 -1.68801,-3.33469 -1.68801,-3.33469 3.68762,-25.19168 8.68691,-15.81958 6.64139,-43.696823 z"
         id="path943"
         sodipodi:nodetypes="cccccccscc" />
    </g>
  </g>
</svg>
